<svg xmlns="http://www.w3.org/2000/svg" xmlns:xlink="http://www.w3.org/1999/xlink" width="117.999" height="118" viewBox="0 0 117.999 118">
  <defs>
    <filter id="Trazado_874925" x="0" y="0" width="117.999" height="118" filterUnits="userSpaceOnUse">
      <feOffset dy="3" input="SourceAlpha"/>
      <feGaussianBlur stdDeviation="3" result="blur"/>
      <feFlood flood-opacity="0.161"/>
      <feComposite operator="in" in2="blur"/>
      <feComposite in="SourceGraphic"/>
    </filter>
    <filter id="Trazado_874925-2" x="2" y="2" width="113.999" height="113.999" filterUnits="userSpaceOnUse">
      <feOffset dy="3" input="SourceAlpha"/>
      <feGaussianBlur stdDeviation="3" result="blur-2"/>
      <feFlood flood-opacity="0.161"/>
      <feComposite operator="in" in2="blur-2"/>
      <feComposite in="SourceGraphic"/>
    </filter>
    <clipPath id="clip-path">
      <path id="Trazado_909641" data-name="Trazado 909641" d="M45.029,0A45.029,45.029,0,0,1,90.057,45.028h0A45.029,45.029,0,0,1,0,45.029H0A45.029,45.029,0,0,1,45.029,0Z" fill="#9ad354"/>
    </clipPath>
  </defs>
  <g id="Grupo_1119681" data-name="Grupo 1119681" transform="translate(-296.001 -856)">
    <g id="Grupo_1119680" data-name="Grupo 1119680">
      <g transform="matrix(1, 0, 0, 1, 296, 856)" filter="url(#Trazado_874925)">
        <g id="Trazado_874925-3" data-name="Trazado 874925" transform="translate(9 6)" fill="#bb965f">
          <path d="M 49.99972534179688 98.4998779296875 C 43.45164108276367 98.4998779296875 37.10022354125977 97.21776580810547 31.12189674377441 94.68914794921875 C 25.34676742553711 92.24647521972656 20.15985298156738 88.74925994873047 15.70523929595947 84.29464721679688 C 11.25062561035156 79.84004974365234 7.753411293029785 74.65313720703125 5.310725212097168 68.87800598144531 C 2.782111167907715 62.89969253540039 1.499996781349182 56.54829406738281 1.499996781349182 50.00022125244141 C 1.499996781349182 43.45157623291016 2.782111167907715 37.10017776489258 5.310725212097168 31.12186431884766 C 7.753411293029785 25.34673500061035 11.25062561035156 20.15983581542969 15.70523929595947 15.70522117614746 C 20.15985298156738 11.25062084197998 25.34676742553711 7.753406524658203 31.12189674377441 5.31073522567749 C 37.10022354125977 2.782120943069458 43.45164108276367 1.500006556510925 49.99972534179688 1.500006556510925 C 56.54780960083008 1.500006556510925 62.89922714233398 2.782120943069458 68.87755584716797 5.31073522567749 C 74.65267944335938 7.753406524658203 79.839599609375 11.25062084197998 84.29421234130859 15.70522117614746 C 88.74882507324219 20.15983581542969 92.24604034423828 25.34673500061035 94.68872833251953 31.12186431884766 C 97.21733856201172 37.10017776489258 98.49945068359375 43.45157623291016 98.49945068359375 49.99964904785156 C 98.49945068359375 56.54829406738281 97.21733856201172 62.89969253540039 94.68872833251953 68.87800598144531 C 92.24604034423828 74.65313720703125 88.74882507324219 79.84004974365234 84.29421234130859 84.29464721679688 C 79.839599609375 88.74925994873047 74.65267944335938 92.24647521972656 68.87755584716797 94.68914794921875 C 62.89922714233398 97.21776580810547 56.54780960083008 98.4998779296875 49.99972534179688 98.4998779296875 Z" stroke="none"/>
          <path d="M 49.99972534179688 3 C 43.65348052978516 3 37.49866485595703 4.242240905761719 31.70623016357422 6.692230224609375 C 26.10989379882812 9.059272766113281 21.08323669433594 12.44853210449219 16.76589202880859 16.76587677001953 C 12.44855499267578 21.08321380615234 9.059295654296875 26.10985565185547 6.692230224609375 31.70618438720703 C 4.24224853515625 37.49859619140625 3 43.65341186523438 3 50.00022888183594 C 3 56.34645843505859 4.24224853515625 62.50127410888672 6.692230224609375 68.29368591308594 C 9.059295654296875 73.8900146484375 12.44855499267578 78.91665649414062 16.76589202880859 83.23399353027344 C 21.08323669433594 87.55132293701172 26.10989379882812 90.94059753417969 31.70623016357422 93.30764007568359 C 37.49866485595703 95.75762939453125 43.65348052978516 96.99987030029297 49.99972534179688 96.99987030029297 C 56.34597015380859 96.99987030029297 62.50078582763672 95.75762939453125 68.293212890625 93.30764007568359 C 73.88955688476562 90.94059753417969 78.91621398925781 87.55132293701172 83.23355865478516 83.23399353027344 C 87.55089569091797 78.91665649414062 90.94015502929688 73.8900146484375 93.30722045898438 68.29368591308594 C 95.7572021484375 62.50127410888672 96.99945068359375 56.34645843505859 96.99945068359375 49.99964141845703 C 96.99945068359375 43.65341186523438 95.7572021484375 37.49859619140625 93.30722045898438 31.70618438720703 C 90.94015502929688 26.10985565185547 87.55089569091797 21.08321380615234 83.23355865478516 16.76587677001953 C 78.91621398925781 12.44853210449219 73.88955688476562 9.059272766113281 68.293212890625 6.692230224609375 C 62.50078582763672 4.242240905761719 56.34597015380859 3 49.99972534179688 3 M 49.99972534179688 0 C 77.61381530761719 0 99.99945068359375 22.38559722900391 99.99945068359375 49.99964141845703 L 99.99945068359375 50.00022888183594 C 99.99945068359375 77.6142578125 77.61381530761719 99.99987030029297 49.99972534179688 99.99987030029297 C 22.38563537597656 99.99987030029297 0 77.6142578125 0 50.00022888183594 L 0 49.99964141845703 C 0 22.38559722900391 22.38563537597656 0 49.99972534179688 0 Z" stroke="none" fill="#fff"/>
        </g>
      </g>
      <g id="Trazado_874923" data-name="Trazado 874923" transform="translate(305 862)" fill="none">
        <path d="M50,0a50,50,0,0,1,50,50h0A50,50,0,0,1,0,50H0A50,50,0,0,1,50,0Z" stroke="none"/>
        <path d="M 49.99972534179688 3 C 43.65348052978516 3 37.49866485595703 4.242240905761719 31.70623016357422 6.692230224609375 C 26.10989379882812 9.059272766113281 21.08323669433594 12.44853210449219 16.76589202880859 16.76587677001953 C 12.44855499267578 21.08321380615234 9.059295654296875 26.10985565185547 6.692230224609375 31.70618438720703 C 4.24224853515625 37.49859619140625 3 43.65341186523438 3 50.00022888183594 C 3 56.34645843505859 4.24224853515625 62.50127410888672 6.692230224609375 68.29368591308594 C 9.059295654296875 73.8900146484375 12.44855499267578 78.91665649414062 16.76589202880859 83.23399353027344 C 21.08323669433594 87.55132293701172 26.10989379882812 90.94059753417969 31.70623016357422 93.30764007568359 C 37.49866485595703 95.75762939453125 43.65348052978516 96.99987030029297 49.99972534179688 96.99987030029297 C 56.34597015380859 96.99987030029297 62.50078582763672 95.75762939453125 68.293212890625 93.30764007568359 C 73.88955688476562 90.94059753417969 78.91621398925781 87.55132293701172 83.23355865478516 83.23399353027344 C 87.55089569091797 78.91665649414062 90.94015502929688 73.8900146484375 93.30722045898438 68.29368591308594 C 95.7572021484375 62.50127410888672 96.99945068359375 56.34645843505859 96.99945068359375 49.99964141845703 C 96.99945068359375 43.65341186523438 95.7572021484375 37.49859619140625 93.30722045898438 31.70618438720703 C 90.94015502929688 26.10985565185547 87.55089569091797 21.08321380615234 83.23355865478516 16.76587677001953 C 78.91621398925781 12.44853210449219 73.88955688476562 9.059272766113281 68.293212890625 6.692230224609375 C 62.50078582763672 4.242240905761719 56.34597015380859 3 49.99972534179688 3 M 49.99972534179688 0 C 77.61381530761719 0 99.99945068359375 22.38559722900391 99.99945068359375 49.99964141845703 L 99.99945068359375 50.00022888183594 C 99.99945068359375 77.6142578125 77.61381530761719 99.99987030029297 49.99972534179688 99.99987030029297 C 22.38563537597656 99.99987030029297 0 77.6142578125 0 50.00022888183594 L 0 49.99964141845703 C 0 22.38559722900391 22.38563537597656 0 49.99972534179688 0 Z" stroke="none" fill="#fff"/>
      </g>
    </g>
    <g id="Grupo_1118198" data-name="Grupo 1118198" transform="translate(-551.051 -4293)">
      <g id="Grupo_1111552" data-name="Grupo 1111552" transform="translate(858.051 5157)">
        <g id="Grupo_1111316" data-name="Grupo 1111316" transform="translate(0 0)">
          <g id="Grupo_1109835" data-name="Grupo 1109835" transform="translate(0 0)">
            <g id="Grupo_1107913" data-name="Grupo 1107913" transform="translate(0 0)">
              <g transform="matrix(1, 0, 0, 1, -11, -8)" filter="url(#Trazado_874925-2)">
                <g id="Trazado_874925-4" data-name="Trazado 874925" transform="translate(11 8)" fill="#e2dacc" opacity="0.859">
                  <path d="M 47.99949264526367 94.4993896484375 C 41.72143936157227 94.4993896484375 35.63197326660156 93.27016448974609 29.90025329589844 90.84585571289062 C 24.36330604553223 88.50392150878906 19.39030647277832 85.15093231201172 15.11938571929932 80.88002777099609 C 10.84846591949463 76.60912322998047 7.495479106903076 71.63612365722656 5.15354585647583 66.09918975830078 C 2.729225873947144 60.36746978759766 1.499999284744263 54.27801513671875 1.499999284744263 47.99997329711914 C 1.499999284744263 41.72137451171875 2.729225873947144 35.63191986083984 5.15354585647583 29.90020179748535 C 7.495479106903076 24.36326789855957 10.84846591949463 19.39026832580566 15.11938571929932 15.11936187744141 C 19.39030647277832 10.84845447540283 24.36330604553223 7.495468139648438 29.90025329589844 5.153534889221191 C 35.63197326660156 2.729228258132935 41.72143936157227 1.500001549720764 47.99949264526367 1.500001549720764 C 54.27754592895508 1.500001549720764 60.36701202392578 2.729228258132935 66.09873199462891 5.153534889221191 C 71.63568115234375 7.495468139648438 76.60868072509766 10.84845447540283 80.87960052490234 15.11936187744141 C 85.15052032470703 19.39026832580566 88.50350952148438 24.36326789855957 90.84543609619141 29.90020179748535 C 93.26976013183594 35.63191986083984 94.49898529052734 41.72137451171875 94.49898529052734 47.99941635131836 C 94.49898529052734 54.27801513671875 93.26976013183594 60.36746978759766 90.84543609619141 66.09918975830078 C 88.50350952148438 71.63612365722656 85.15052032470703 76.60912322998047 80.87960052490234 80.88002777099609 C 76.60868072509766 85.15093231201172 71.63568115234375 88.50392150878906 66.09873199462891 90.84585571289062 C 60.36701202392578 93.27016448974609 54.27754592895508 94.4993896484375 47.99949264526367 94.4993896484375 Z" stroke="none"/>
                  <path d="M 47.99949264526367 3 C 41.92327880859375 3 36.03041458129883 4.189353942871094 30.48458862304688 6.535049438476562 C 25.12643432617188 8.801353454589844 20.31369018554688 12.04638671875 16.18004608154297 16.18001556396484 C 12.04640197753906 20.31366729736328 8.801353454589844 25.12638854980469 6.535049438476562 30.48454284667969 C 4.189369201660156 36.03035736083984 3 41.9232177734375 3 47.99997329711914 C 3 54.076171875 4.189369201660156 59.96903228759766 6.535049438476562 65.51484680175781 C 8.801353454589844 70.87298583984375 12.04640197753906 75.68572998046875 16.18004608154297 79.81935882568359 C 20.31369018554688 83.9530029296875 25.12643432617188 87.19803619384766 30.48458862304688 89.46434020996094 C 36.03041458129883 91.81002044677734 41.92327880859375 92.9993896484375 47.99949264526367 92.9993896484375 C 54.07570648193359 92.9993896484375 59.96857070922852 91.81002044677734 65.514404296875 89.46434020996094 C 70.87255859375 87.19803619384766 75.68529510498047 83.9530029296875 79.81893920898438 79.81935882568359 C 83.95258331298828 75.68572998046875 87.1976318359375 70.87298583984375 89.46393585205078 65.51484680175781 C 91.80961608886719 59.96903228759766 92.99898529052734 54.076171875 92.99898529052734 47.99941635131836 C 92.99898529052734 41.9232177734375 91.80961608886719 36.03035736083984 89.46393585205078 30.48454284667969 C 87.1976318359375 25.12638854980469 83.95258331298828 20.31366729736328 79.81893920898438 16.18001556396484 C 75.68529510498047 12.04638671875 70.87255859375 8.801353454589844 65.514404296875 6.535049438476562 C 59.96857070922852 4.189353942871094 54.07570648193359 3 47.99949264526367 3 M 47.99949264526367 0 C 74.50888061523438 0 95.99898529052734 21.49006652832031 95.99898529052734 47.99941635131836 L 95.99898529052734 47.99997329711914 C 95.99898529052734 74.50930786132812 74.50888061523438 95.9993896484375 47.99949264526367 95.9993896484375 C 21.49010467529297 95.9993896484375 0 74.50930786132812 0 47.99997329711914 L 0 47.99941635131836 C 0 21.49006652832031 21.49010467529297 0 47.99949264526367 0 Z" stroke="none" fill="#fff"/>
                </g>
              </g>
              <g id="Trazado_874923-2" data-name="Trazado 874923" fill="none">
                <path d="M48,0A48,48,0,0,1,96,48h0A48,48,0,0,1,0,48H0A48,48,0,0,1,48,0Z" stroke="none"/>
                <path d="M 47.99949264526367 3 C 41.92327880859375 3 36.03041458129883 4.189353942871094 30.48458862304688 6.535049438476562 C 25.12643432617188 8.801353454589844 20.31369018554688 12.04638671875 16.18004608154297 16.18001556396484 C 12.04640197753906 20.31366729736328 8.801353454589844 25.12638854980469 6.535049438476562 30.48454284667969 C 4.189369201660156 36.03035736083984 3 41.9232177734375 3 47.99997329711914 C 3 54.076171875 4.189369201660156 59.96903228759766 6.535049438476562 65.51484680175781 C 8.801353454589844 70.87298583984375 12.04640197753906 75.68572998046875 16.18004608154297 79.81935882568359 C 20.31369018554688 83.9530029296875 25.12643432617188 87.19803619384766 30.48458862304688 89.46434020996094 C 36.03041458129883 91.81002044677734 41.92327880859375 92.9993896484375 47.99949264526367 92.9993896484375 C 54.07570648193359 92.9993896484375 59.96857070922852 91.81002044677734 65.514404296875 89.46434020996094 C 70.87255859375 87.19803619384766 75.68529510498047 83.9530029296875 79.81893920898438 79.81935882568359 C 83.95258331298828 75.68572998046875 87.1976318359375 70.87298583984375 89.46393585205078 65.51484680175781 C 91.80961608886719 59.96903228759766 92.99898529052734 54.076171875 92.99898529052734 47.99941635131836 C 92.99898529052734 41.9232177734375 91.80961608886719 36.03035736083984 89.46393585205078 30.48454284667969 C 87.1976318359375 25.12638854980469 83.95258331298828 20.31366729736328 79.81893920898438 16.18001556396484 C 75.68529510498047 12.04638671875 70.87255859375 8.801353454589844 65.514404296875 6.535049438476562 C 59.96857070922852 4.189353942871094 54.07570648193359 3 47.99949264526367 3 M 47.99949264526367 0 C 74.50888061523438 0 95.99898529052734 21.49006652832031 95.99898529052734 47.99941635131836 L 95.99898529052734 47.99997329711914 C 95.99898529052734 74.50930786132812 74.50888061523438 95.9993896484375 47.99949264526367 95.9993896484375 C 21.49010467529297 95.9993896484375 0 74.50930786132812 0 47.99997329711914 L 0 47.99941635131836 C 0 21.49006652832031 21.49010467529297 0 47.99949264526367 0 Z" stroke="none" fill="#fff"/>
              </g>
            </g>
          </g>
        </g>
      </g>
      <g id="Enmascarar_grupo_1098790" data-name="Enmascarar grupo 1098790" transform="translate(861.022 5159.971)" clip-path="url(#clip-path)">
        <g id="Grupo_1115150" data-name="Grupo 1115150" transform="translate(1.209 5.6)">
          <path id="Trazado_907771" data-name="Trazado 907771" d="M105,216.164h38.649v18.881H105Zm0,0" transform="translate(-87.07 -179.337)" fill="#fea02c"/>
          <path id="Trazado_907772" data-name="Trazado 907772" d="M146.513,255.765V250H139v3.31Zm0,0" transform="translate(-115.264 -207.392)" fill="#ff5d5d"/>
          <path id="Trazado_907773" data-name="Trazado 907773" d="M26.747,294.348a78.74,78.74,0,0,1,24.632-25.22l.378-.53A78.776,78.776,0,0,0,10,256.625V298.61H24.144Zm0,0" transform="translate(-8.292 -212.889)" fill="#62cd4d"/>
          <path id="Trazado_907774" data-name="Trazado 907774" d="M92.832,298.471l2.6-4.262A78.806,78.806,0,0,1,162.7,256.457v42.014Zm0,0" transform="translate(-76.98 -212.75)" fill="#a0e557"/>
          <path id="Trazado_907775" data-name="Trazado 907775" d="M105,169.451l9.563-9.619,9.563,9.619Zm0,0" transform="translate(-87.07 -132.625)" fill="#fe8f8d"/>
          <path id="Trazado_907776" data-name="Trazado 907776" d="M190.087,169.451l-9.563-9.619H161l9.563,9.619Zm0,0" transform="translate(-133.508 -132.625)" fill="#ff5d5d"/>
          <g id="Grupo_1115150-2" data-name="Grupo 1115150" transform="translate(1.708 1.707)">
            <path id="Trazado_907777" data-name="Trazado 907777" d="M360.972,47.616c-12.747-10.25-12.747-26.867,0-37.116C373.719,20.749,373.719,37.367,360.972,47.616Zm0,0" transform="translate(-293.112 -10.5)" fill="#a0e557"/>
            <path id="Trazado_907778" data-name="Trazado 907778" d="M28.9,74.393c-9.637-7.749-9.637-20.312,0-28.061C38.537,54.081,38.537,66.644,28.9,74.393Zm0,0" transform="translate(-19.679 -40.213)" fill="#a0e557"/>
            <path id="Trazado_907779" data-name="Trazado 907779" d="M40.776,338.8A66.04,66.04,0,0,0,10,331.125v13.746a52.168,52.168,0,0,1,21.32,4.587" transform="translate(-10 -276.375)" fill="#a0e557"/>
          </g>
          <path id="Trazado_907780" data-name="Trazado 907780" d="M180.547,360.249a66.517,66.517,0,0,1,54.891-29.292V344.7a52.693,52.693,0,0,0-37.192,15.546Zm0,0" transform="translate(-149.717 -274.528)" fill="#62cd4d"/>
          <path id="Trazado_907781" data-name="Trazado 907781" d="M313.1,401.457a54.565,54.565,0,0,0-38.4,16.049,1.708,1.708,0,0,0,2.421,2.409A51.127,51.127,0,0,1,313.1,404.872a1.708,1.708,0,1,0,0-3.415Zm0,0" transform="translate(-227.375 -332.99)"/>
          <path id="Trazado_907782" data-name="Trazado 907782" d="M191.534,388.543a1.707,1.707,0,0,0-2.371-.459,67.4,67.4,0,0,0-18.33,18.342,1.708,1.708,0,1,0,2.836,1.9,63.983,63.983,0,0,1,17.406-17.417A1.708,1.708,0,0,0,191.534,388.543Zm0,0" transform="translate(-141.421 -321.658)"/>
          <path id="Trazado_907783" data-name="Trazado 907783" d="M387.411,320.957a67.158,67.158,0,0,0-22.458,3.876,1.707,1.707,0,1,0,1.139,3.219,63.756,63.756,0,0,1,21.319-3.68,1.708,1.708,0,0,0,0-3.415Zm0,0" transform="translate(-301.689 -266.236)"/>
          <path id="Trazado_907784" data-name="Trazado 907784" d="M24.466,76.212A77.83,77.83,0,0,1,69.907,47.583l.009,0a76.108,76.108,0,0,1,15.805-1.666,1.707,1.707,0,1,0,0-3.415,80.355,80.355,0,0,0-14.447,1.313V40.129c6.172-5.225,9.56-12.071,9.56-19.362,0-7.538-3.621-14.6-10.2-19.889a1.709,1.709,0,0,0-2.14,0C61.921,6.165,58.3,13.228,58.3,20.767c0,7.291,3.389,14.137,9.56,19.362v4.384a80.857,80.857,0,0,0-9.573,2.813v-10a1.7,1.7,0,0,0-.5-1.2h0L48.227,26.5a1.709,1.709,0,0,0-1.211-.5H27.492a1.708,1.708,0,0,0-1.211.5l-9.563,9.619h0a1.7,1.7,0,0,0-.5,1.2v6.521q-1.785-.327-3.586-.574V37.188a19.489,19.489,0,0,0,7.228-14.829C19.864,16.53,17.071,11.075,12,7a1.708,1.708,0,0,0-2.14,0C4.787,11.075,1.993,16.53,1.993,22.358A19.489,19.489,0,0,0,9.221,37.187v5.7q-3.735-.349-7.513-.353a1.708,1.708,0,1,0,0,3.415A77.018,77.018,0,0,1,40.491,56.411a80.607,80.607,0,0,0-8.066,6.265A67.935,67.935,0,0,0,1.708,55.251a1.708,1.708,0,1,0,0,3.415,64.465,64.465,0,0,1,28.034,6.49,80.7,80.7,0,0,0-7.262,8.038A53.416,53.416,0,0,0,1.708,69a1.708,1.708,0,0,0,0,3.415,49.975,49.975,0,0,1,18.645,3.6Q18.583,78.476,17,81.07l-2.6,4.263a1.707,1.707,0,1,0,2.915,1.779l2.6-4.263A75.807,75.807,0,0,1,24.3,76.432,1.615,1.615,0,0,0,24.466,76.212ZM61.715,20.767c0-6.069,2.777-11.818,7.852-16.324C74.643,8.948,77.42,14.7,77.42,20.767a21.258,21.258,0,0,1-6.145,14.668V22.358a1.708,1.708,0,0,0-3.415,0V35.435A21.255,21.255,0,0,1,61.715,20.767ZM5.408,22.358a15.979,15.979,0,0,1,5.52-11.78,15.978,15.978,0,0,1,5.52,11.78,15.438,15.438,0,0,1-3.813,10V20.992a1.708,1.708,0,0,0-3.415,0V32.355A15.438,15.438,0,0,1,5.408,22.358ZM52.473,35.62H37.765l-6.167-6.2H46.306ZM27.492,30.13l5.458,5.49H22.035Zm-7.855,8.9h15.71V49.895q-1.188-.546-2.391-1.055V43.1A1.708,1.708,0,0,0,31.249,41.4H23.736A1.708,1.708,0,0,0,22.028,43.1v2.03q-1.191-.31-2.391-.586Zm9.9,8.457q-2.031-.748-4.1-1.387V44.812h4.1Zm9.221,4.073V39.035H54.871v9.616A80.145,80.145,0,0,0,46.317,52.8q-1.329.745-2.626,1.543Q41.27,52.866,38.763,51.565Zm0,0" transform="translate(0 -0.501)"/>
          <path id="Trazado_907785" data-name="Trazado 907785" d="M399.106,83.915a1.71,1.71,0,1,0-1.207-.5A1.719,1.719,0,0,0,399.106,83.915Zm0,0" transform="translate(-329.539 -66.839)"/>
          <path id="Trazado_907786" data-name="Trazado 907786" d="M318.168,363.337a1.705,1.705,0,1,0,1.207-.5A1.722,1.722,0,0,0,318.168,363.337Zm0,0" transform="translate(-263.423 -300.964)"/>
        </g>
      </g>
      <path id="Trazado_909642" data-name="Trazado 909642" d="M48,0A48,48,0,0,1,96,48h0A48,48,0,0,1,0,48H0A48,48,0,0,1,48,0Z" transform="translate(858.051 5157)" fill="none"/>
    </g>
  </g>
</svg>
