<svg xmlns="http://www.w3.org/2000/svg" xmlns:xlink="http://www.w3.org/1999/xlink" width="118" height="118" viewBox="0 0 118 118">
  <defs>
    <filter id="Trazado_874925" x="0" y="0" width="118" height="118" filterUnits="userSpaceOnUse">
      <feOffset dy="3" input="SourceAlpha"/>
      <feGaussianBlur stdDeviation="3" result="blur"/>
      <feFlood flood-opacity="0.161"/>
      <feComposite operator="in" in2="blur"/>
      <feComposite in="SourceGraphic"/>
    </filter>
  </defs>
  <g id="Grupo_1123436" data-name="Grupo 1123436" transform="translate(-5452 10244.653)">
    <g id="Grupo_1111553" data-name="Grupo 1111553" transform="translate(4652.5 -12755.811)">
      <g id="Grupo_1111316" data-name="Grupo 1111316" transform="translate(808.5 2517.157)">
        <g id="Grupo_1109835" data-name="Grupo 1109835" transform="translate(0 0)">
          <g id="Grupo_1107913" data-name="Grupo 1107913" transform="translate(0 0)">
            <g transform="matrix(1, 0, 0, 1, -9, -6)" filter="url(#Trazado_874925)">
              <g id="Trazado_874925-2" data-name="Trazado 874925" transform="translate(9 6)" fill="#bb965f" opacity="0.859">
                <path d="M 49.99972534179688 98.4998779296875 C 43.45164108276367 98.4998779296875 37.10022354125977 97.21776580810547 31.12189674377441 94.68914794921875 C 25.34676742553711 92.24647521972656 20.15985298156738 88.74925994873047 15.70523929595947 84.29464721679688 C 11.25062561035156 79.84004974365234 7.753411293029785 74.65313720703125 5.310725212097168 68.87800598144531 C 2.782111167907715 62.89969253540039 1.499996781349182 56.54829406738281 1.499996781349182 50.00022125244141 C 1.499996781349182 43.45157623291016 2.782111167907715 37.10017776489258 5.310725212097168 31.12186431884766 C 7.753411293029785 25.34673500061035 11.25062561035156 20.15983581542969 15.70523929595947 15.70522117614746 C 20.15985298156738 11.25062084197998 25.34676742553711 7.753406524658203 31.12189674377441 5.31073522567749 C 37.10022354125977 2.782120943069458 43.45164108276367 1.500006556510925 49.99972534179688 1.500006556510925 C 56.54780960083008 1.500006556510925 62.89922714233398 2.782120943069458 68.87755584716797 5.31073522567749 C 74.65267944335938 7.753406524658203 79.839599609375 11.25062084197998 84.29421234130859 15.70522117614746 C 88.74882507324219 20.15983581542969 92.24604034423828 25.34673500061035 94.68872833251953 31.12186431884766 C 97.21733856201172 37.10017776489258 98.49945068359375 43.45157623291016 98.49945068359375 49.99964904785156 C 98.49945068359375 56.54829406738281 97.21733856201172 62.89969253540039 94.68872833251953 68.87800598144531 C 92.24604034423828 74.65313720703125 88.74882507324219 79.84004974365234 84.29421234130859 84.29464721679688 C 79.839599609375 88.74925994873047 74.65267944335938 92.24647521972656 68.87755584716797 94.68914794921875 C 62.89922714233398 97.21776580810547 56.54780960083008 98.4998779296875 49.99972534179688 98.4998779296875 Z" stroke="none"/>
                <path d="M 49.99972534179688 3 C 43.65348052978516 3 37.49866485595703 4.242240905761719 31.70623016357422 6.692230224609375 C 26.10989379882812 9.059272766113281 21.08323669433594 12.44853210449219 16.76589202880859 16.76587677001953 C 12.44855499267578 21.08321380615234 9.059295654296875 26.10985565185547 6.692230224609375 31.70618438720703 C 4.24224853515625 37.49859619140625 3 43.65341186523438 3 50.00022888183594 C 3 56.34645843505859 4.24224853515625 62.50127410888672 6.692230224609375 68.29368591308594 C 9.059295654296875 73.8900146484375 12.44855499267578 78.91665649414062 16.76589202880859 83.23399353027344 C 21.08323669433594 87.55132293701172 26.10989379882812 90.94059753417969 31.70623016357422 93.30764007568359 C 37.49866485595703 95.75762939453125 43.65348052978516 96.99987030029297 49.99972534179688 96.99987030029297 C 56.34597015380859 96.99987030029297 62.50078582763672 95.75762939453125 68.293212890625 93.30764007568359 C 73.88955688476562 90.94059753417969 78.91621398925781 87.55132293701172 83.23355865478516 83.23399353027344 C 87.55089569091797 78.91665649414062 90.94015502929688 73.8900146484375 93.30722045898438 68.29368591308594 C 95.7572021484375 62.50127410888672 96.99945068359375 56.34645843505859 96.99945068359375 49.99964141845703 C 96.99945068359375 43.65341186523438 95.7572021484375 37.49859619140625 93.30722045898438 31.70618438720703 C 90.94015502929688 26.10985565185547 87.55089569091797 21.08321380615234 83.23355865478516 16.76587677001953 C 78.91621398925781 12.44853210449219 73.88955688476562 9.059272766113281 68.293212890625 6.692230224609375 C 62.50078582763672 4.242240905761719 56.34597015380859 3 49.99972534179688 3 M 49.99972534179688 0 C 77.61381530761719 0 99.99945068359375 22.38559722900391 99.99945068359375 49.99964141845703 L 99.99945068359375 50.00022888183594 C 99.99945068359375 77.6142578125 77.61381530761719 99.99987030029297 49.99972534179688 99.99987030029297 C 22.38563537597656 99.99987030029297 0 77.6142578125 0 50.00022888183594 L 0 49.99964141845703 C 0 22.38559722900391 22.38563537597656 0 49.99972534179688 0 Z" stroke="none" fill="#fff"/>
              </g>
            </g>
            <g id="Trazado_874923" data-name="Trazado 874923" transform="translate(0 0)" fill="none">
              <path d="M50,0a50,50,0,0,1,50,50h0A50,50,0,0,1,0,50H0A50,50,0,0,1,50,0Z" stroke="none"/>
              <path d="M 49.99972534179688 3 C 43.65348052978516 3 37.49866485595703 4.242240905761719 31.70623016357422 6.692230224609375 C 26.10989379882812 9.059272766113281 21.08323669433594 12.44853210449219 16.76589202880859 16.76587677001953 C 12.44855499267578 21.08321380615234 9.059295654296875 26.10985565185547 6.692230224609375 31.70618438720703 C 4.24224853515625 37.49859619140625 3 43.65341186523438 3 50.00022888183594 C 3 56.34645843505859 4.24224853515625 62.50127410888672 6.692230224609375 68.29368591308594 C 9.059295654296875 73.8900146484375 12.44855499267578 78.91665649414062 16.76589202880859 83.23399353027344 C 21.08323669433594 87.55132293701172 26.10989379882812 90.94059753417969 31.70623016357422 93.30764007568359 C 37.49866485595703 95.75762939453125 43.65348052978516 96.99987030029297 49.99972534179688 96.99987030029297 C 56.34597015380859 96.99987030029297 62.50078582763672 95.75762939453125 68.293212890625 93.30764007568359 C 73.88955688476562 90.94059753417969 78.91621398925781 87.55132293701172 83.23355865478516 83.23399353027344 C 87.55089569091797 78.91665649414062 90.94015502929688 73.8900146484375 93.30722045898438 68.29368591308594 C 95.7572021484375 62.50127410888672 96.99945068359375 56.34645843505859 96.99945068359375 49.99964141845703 C 96.99945068359375 43.65341186523438 95.7572021484375 37.49859619140625 93.30722045898438 31.70618438720703 C 90.94015502929688 26.10985565185547 87.55089569091797 21.08321380615234 83.23355865478516 16.76587677001953 C 78.91621398925781 12.44853210449219 73.88955688476562 9.059272766113281 68.293212890625 6.692230224609375 C 62.50078582763672 4.242240905761719 56.34597015380859 3 49.99972534179688 3 M 49.99972534179688 0 C 77.61381530761719 0 99.99945068359375 22.38559722900391 99.99945068359375 49.99964141845703 L 99.99945068359375 50.00022888183594 C 99.99945068359375 77.6142578125 77.61381530761719 99.99987030029297 49.99972534179688 99.99987030029297 C 22.38563537597656 99.99987030029297 0 77.6142578125 0 50.00022888183594 L 0 49.99964141845703 C 0 22.38559722900391 22.38563537597656 0 49.99972534179688 0 Z" stroke="none" fill="#fff"/>
            </g>
          </g>
        </g>
      </g>
    </g>
    <g id="Grupo_1123435" data-name="Grupo 1123435" transform="translate(5479 -10221)">
      <path id="Trazado_920155" data-name="Trazado 920155" d="M63,31.89V32a30.826,30.826,0,0,1-4.28,15.72V33.3a3.2,3.2,0,0,0-.32-1.41Z" fill="#61993c"/>
      <path id="Trazado_920156" data-name="Trazado 920156" d="M63,26v5.89H58.4A3.277,3.277,0,0,0,55.42,30h-3.3a3.277,3.277,0,0,0-2.98,1.89H28.05a5.055,5.055,0,0,0,0,10.11H31.5a2.5,2.5,0,0,1,1.77,4.27,1.059,1.059,0,0,1-.12.1A1.964,1.964,0,0,0,31.98,46h-.96A2.014,2.014,0,0,0,29,48.02V49a2.006,2.006,0,0,1-2,2,2.015,2.015,0,0,1-2-2v-.98A2.014,2.014,0,0,0,22.98,46h-.96A2.014,2.014,0,0,0,20,48.02V49a2.006,2.006,0,0,1-2,2H17a2.006,2.006,0,0,1-2-2v-.98A2.014,2.014,0,0,0,12.98,46h-.96A2.014,2.014,0,0,0,10,48.02V49a2.006,2.006,0,0,1-2,2H7.5a31.051,31.051,0,0,1-4.85-9H13a2.015,2.015,0,0,0,2-2,2.006,2.006,0,0,0-2-2H11a2.015,2.015,0,0,1-2-2,2.006,2.006,0,0,1,2-2h6a2.015,2.015,0,0,0,2-2,2.006,2.006,0,0,0-2-2H1V26H63Z" fill="#5fb8d3"/>
      <path id="Trazado_920157" data-name="Trazado 920157" d="M58.72,50.04A7.432,7.432,0,1,1,47.94,51a6.685,6.685,0,0,1,.88-.96V33.3a3.2,3.2,0,0,1,.32-1.41A3.277,3.277,0,0,1,52.12,30h3.3a3.277,3.277,0,0,1,2.98,1.89,3.2,3.2,0,0,1,.32,1.41V50.04Zm-.88,6.27a4.15,4.15,0,0,0-2.42-4.52V36.6a1.65,1.65,0,1,0-3.3,0V51.79a4.131,4.131,0,1,0,5.72,4.52Z" fill="#f5be59"/>
      <path id="Trazado_920158" data-name="Trazado 920158" d="M58.72,50.04V33.3a3.2,3.2,0,0,0-.32-1.41A3.277,3.277,0,0,0,55.42,30h-3.3a3.283,3.283,0,0,0-2.2.84.615.615,0,0,1,.19-.02h3.3a3.277,3.277,0,0,1,2.98,1.89,3.2,3.2,0,0,1,.32,1.41V50.86a7.418,7.418,0,0,1-1.17,11.93,7.421,7.421,0,0,0,3.18-12.75Z" fill="#cc8c37"/>
      <path id="Trazado_920159" data-name="Trazado 920159" d="M58,9a4,4,0,0,1,0,8c0,2.21-1.79,3-4,3a3.657,3.657,0,0,1-1-.13V17a2.015,2.015,0,0,0-2-2,2.006,2.006,0,0,0-2,2v2.46A3.89,3.89,0,0,1,47,20c-2.21,0-4-3-4-3a4,4,0,0,1,0-8,4,4,0,0,1,7.5-1.93A4,4,0,0,1,58,9Z" fill="#81cc50"/>
      <path id="Trazado_920160" data-name="Trazado 920160" d="M62,13a4,4,0,0,1-4,4c0,2.21-1.79,3-4,3a3.657,3.657,0,0,1-1-.13v-.79A2.644,2.644,0,0,0,53.85,17a4,4,0,0,0,1.174-7.825,2.01,2.01,0,0,1-1.345-1.339A4.011,4.011,0,0,0,51.93,5.58,3.93,3.93,0,0,1,54,5a4,4,0,0,1,4,4,4,4,0,0,1,4,4Z" fill="#61993c"/>
      <path id="Trazado_920161" data-name="Trazado 920161" d="M55.42,51.79a4.12,4.12,0,1,1-3.3,0V36.6a1.65,1.65,0,1,1,3.3,0Z" fill="#e63946"/>
      <path id="Trazado_920162" data-name="Trazado 920162" d="M57.84,56.31a4.152,4.152,0,0,1-3.18,3.3,4.308,4.308,0,0,1-1.38.06,4.127,4.127,0,0,0,.3-7.69V36.79a1.628,1.628,0,0,0-.87-1.45,1.646,1.646,0,0,1,2.71,1.26V51.79a4.15,4.15,0,0,1,2.42,4.52Z" fill="#ad2b35"/>
      <path id="Trazado_920163" data-name="Trazado 920163" d="M53,19.87V26H49V17a2.006,2.006,0,0,1,2-2,2.015,2.015,0,0,1,2,2Z" fill="#d9ab82"/>
      <path id="Trazado_920164" data-name="Trazado 920164" d="M53,17v9H51V17a1.955,1.955,0,0,0-.59-1.41,1.813,1.813,0,0,0-.41-.32A2,2,0,0,1,51,15a2.015,2.015,0,0,1,2,2Z" fill="#a38062"/>
      <path id="Trazado_920165" data-name="Trazado 920165" d="M28.05,31.89H49.14a3.2,3.2,0,0,0-.32,1.41V50.04a6.685,6.685,0,0,0-.88.96H46a2.006,2.006,0,0,1-2-2v-.98A2.014,2.014,0,0,0,41.98,46h-.96A2.014,2.014,0,0,0,39,48.02V49a2.006,2.006,0,0,1-2,2H36a2.006,2.006,0,0,1-2-2v-.98a2.013,2.013,0,0,0-.85-1.65,1.059,1.059,0,0,0,.12-.1A2.5,2.5,0,0,0,31.5,42H28.05a5.055,5.055,0,0,1,0-10.11Z" fill="#81cc50"/>
      <path id="Trazado_920166" data-name="Trazado 920166" d="M46,51h1.94a7.389,7.389,0,0,0-.74,8.02A31.012,31.012,0,0,1,7.5,51H8a2.006,2.006,0,0,0,2-2v-.98A2.014,2.014,0,0,1,12.02,46h.96A2.014,2.014,0,0,1,15,48.02V49a2.006,2.006,0,0,0,2,2h1a2.006,2.006,0,0,0,2-2v-.98A2.014,2.014,0,0,1,22.02,46h.96A2.014,2.014,0,0,1,25,48.02V49a2.015,2.015,0,0,0,2,2,2.006,2.006,0,0,0,2-2v-.98A2.014,2.014,0,0,1,31.02,46h.96a1.964,1.964,0,0,1,1.17.37A2.013,2.013,0,0,1,34,48.02V49a2.006,2.006,0,0,0,2,2h1a2.006,2.006,0,0,0,2-2v-.98A2.014,2.014,0,0,1,41.02,46h.96A2.014,2.014,0,0,1,44,48.02V49a2.006,2.006,0,0,0,2,2Z" fill="#e63946"/>
      <path id="Trazado_920167" data-name="Trazado 920167" d="M53,26H51.054c.028,1.372.053,2.761.055,4.161A3.313,3.313,0,0,1,52.12,30h3.3a3.277,3.277,0,0,1,2.98,1.89H63V26Z" fill="#34889b"/>
      <path id="Trazado_920168" data-name="Trazado 920168" d="M48,47a22.793,22.793,0,0,1-2.6,3.9,1.96,1.96,0,0,0,.6.1h1.94a6.685,6.685,0,0,1,.88-.96V45.156c-.249.619-.516,1.235-.82,1.844Z" fill="#61993c"/>
      <path id="Trazado_920169" data-name="Trazado 920169" d="M14.477,57.563A30.983,30.983,0,0,0,47.2,59.02,7.389,7.389,0,0,1,47.94,51H46a1.96,1.96,0,0,1-.6-.1c-7.317,8.831-19.742,9.394-30.918,6.667Z" fill="#ad2b35"/>
      <path id="Trazado_920170" data-name="Trazado 920170" d="M39,20H30l-6.07-6.94L24,13h8Z" fill="#b0d7ed"/>
      <path id="Trazado_920171" data-name="Trazado 920171" d="M37,20v6H29V20h8Z" fill="#b88f43"/>
      <path id="Trazado_920172" data-name="Trazado 920172" d="M23.93,13.06,30,20H16Z" fill="#cee4f2"/>
      <path id="Trazado_920173" data-name="Trazado 920173" d="M30,4.57a1.977,1.977,0,0,1-.49,1.16.706.706,0,0,1-.56.27h-7.9a.706.706,0,0,1-.56-.27A1.977,1.977,0,0,1,20,4.57a2.151,2.151,0,0,1,2.86-2.02l.08.04a2.131,2.131,0,0,1,4.12-.01,2.367,2.367,0,0,1,.8-.15A2.142,2.142,0,0,1,30,4.57Z" fill="#b0d7ed"/>
      <path id="Trazado_920174" data-name="Trazado 920174" d="M18,20H29v6H18Z" fill="#f5be59"/>
      <path id="Trazado_920175" data-name="Trazado 920175" d="M17,30a2.006,2.006,0,0,1,2,2,2.015,2.015,0,0,1-2,2H11a2.006,2.006,0,0,0-2,2,2.015,2.015,0,0,0,2,2h2a2.006,2.006,0,0,1,2,2,2.015,2.015,0,0,1-2,2H2.65A30.931,30.931,0,0,1,1,32V30H17Z" fill="#81cc50"/>
      <path id="Trazado_920176" data-name="Trazado 920176" d="M16,7a2.763,2.763,0,0,1-.68,1.62,1,1,0,0,1-.79.38H3.47a1,1,0,0,1-.79-.38A2.763,2.763,0,0,1,2,7,3,3,0,0,1,6,4.17l.11.05a2.993,2.993,0,0,1,5.78-.01A3.129,3.129,0,0,1,13,4a3,3,0,0,1,3,3Z" fill="#cee4f2"/>
      <g id="Grupo_1123434" data-name="Grupo 1123434">
        <path id="Trazado_920177" data-name="Trazado 920177" d="M63,25H54V21c2.727,0,4.5-1.135,4.908-3.083a5,5,0,0,0,.008-9.833A5,5,0,0,0,50.5,5.431a5,5,0,0,0-8.416,2.653,5,5,0,0,0,.354,9.885C43.113,18.936,44.808,21,47,21a5.055,5.055,0,0,0,1-.111V25H38V21h1a1,1,0,0,0,.707-1.707l-7-7A1,1,0,0,0,32,12H24a1,1,0,0,0-.659.247l-8,7A1,1,0,0,0,16,21h1v4H1a1,1,0,0,0-1,1v6A31.977,31.977,0,0,0,46.834,60.339,8.417,8.417,0,0,0,53.775,64a8.645,8.645,0,0,0,1.761-.183A8.427,8.427,0,0,0,59.725,49.61V47.964A31.938,31.938,0,0,0,64,32V26A1,1,0,0,0,63,25ZM47,19c-1.33,0-2.75-1.861-3.142-2.514A1,1,0,0,0,43,16a3,3,0,0,1,0-6,1,1,0,0,0,1-1,3,3,0,0,1,5.623-1.449,1.04,1.04,0,0,0,1.754,0A3,3,0,0,1,57,9a1,1,0,0,0,1,1,3,3,0,0,1,0,6,1,1,0,0,0-1,1c0,.5,0,2-3,2V17a3.017,3.017,0,0,0-3-3,3,3,0,0,0-3,3v1.806A2.906,2.906,0,0,1,47,19Zm3-2a1,1,0,0,1,1-1,.978.978,0,0,1,.712.306A.957.957,0,0,1,52,17v8H50ZM36,25H30V21h6Zm.586-6H30.454l-4.373-5h5.505ZM23.837,14.472,27.8,19H18.662ZM19,21h9v4H19ZM2,31H17a1,1,0,0,1,1,1,.978.978,0,0,1-.306.713A.965.965,0,0,1,17,33H11a3,3,0,0,0-3,3,3.017,3.017,0,0,0,3,3h2a1,1,0,0,1,1,1,.978.978,0,0,1-.306.713A.965.965,0,0,1,13,41H3.388A29.983,29.983,0,0,1,2,32ZM4.1,43H13a3.015,3.015,0,0,0,3-3,3,3,0,0,0-3-3H11a.978.978,0,0,1-.712-.306A.957.957,0,0,1,10,36a1,1,0,0,1,1-1h6a3.015,3.015,0,0,0,3-3,3,3,0,0,0-3-3H2V27H62v3.89H58.983A4.3,4.3,0,0,0,55.425,29h-3.3a4.3,4.3,0,0,0-3.558,1.89H28.05A6.062,6.062,0,0,0,22,36.951,6.053,6.053,0,0,0,28.05,43H31.5A1.5,1.5,0,0,1,33,44.5a1.524,1.524,0,0,1-.142.631A3.048,3.048,0,0,0,31.98,45h-.96A3.023,3.023,0,0,0,28,48.02V49a1,1,0,0,1-1,1,.978.978,0,0,1-.712-.306A.957.957,0,0,1,26,49v-.98A3.024,3.024,0,0,0,22.98,45h-.96A3.023,3.023,0,0,0,19,48.02V49a1,1,0,0,1-1,1H17a1,1,0,0,1-1-1v-.98A3.024,3.024,0,0,0,12.98,45h-.96A3.023,3.023,0,0,0,9,48.02V49a1,1,0,0,1-.987,1A29.943,29.943,0,0,1,4.1,43Zm43.726-9.7V49.612c-.124.124-.236.257-.351.388H46a1,1,0,0,1-1-1v-.98A3.024,3.024,0,0,0,41.98,45h-.96A3.023,3.023,0,0,0,38,48.02V49a1,1,0,0,1-1,1H36a1,1,0,0,1-1-1v-.98a3.014,3.014,0,0,0-.533-1.679A3.488,3.488,0,0,0,31.5,41H28.05A4.053,4.053,0,0,1,24,36.95a4.06,4.06,0,0,1,4.05-4.061H47.866c-.013.138-.041.27-.041.411ZM32,62A29.807,29.807,0,0,1,9.344,51.668,2.992,2.992,0,0,0,11,49v-.98A1.01,1.01,0,0,1,12.02,47h.96A1.009,1.009,0,0,1,14,48.02V49a3,3,0,0,0,3,3h1a3,3,0,0,0,3-3v-.98A1.01,1.01,0,0,1,22.02,47h.96A1.009,1.009,0,0,1,24,48.02V49a3.017,3.017,0,0,0,3,3,3,3,0,0,0,3-3v-.98A1.01,1.01,0,0,1,31.02,47h.96a.979.979,0,0,1,.59.185,1.013,1.013,0,0,1,.43.835V49a3,3,0,0,0,3,3h1a3,3,0,0,0,3-3v-.98A1.01,1.01,0,0,1,41.02,47h.96A1.009,1.009,0,0,1,43,48.02V49a3,3,0,0,0,3,3h.16a8.291,8.291,0,0,0-.251,6.567A29.94,29.94,0,0,1,32,62Zm28.1-5.3a6.421,6.421,0,0,1-4.974,5.157,6.64,6.64,0,0,1-1.353.14,6.424,6.424,0,0,1-4.282-11.214,1,1,0,0,0,.332-.744V33.3a2.3,2.3,0,0,1,2.3-2.3h3.3a2.3,2.3,0,0,1,2.3,2.3V50.04a1,1,0,0,0,.332.744A6.427,6.427,0,0,1,60.1,56.7ZM59.684,32.89h2.287a30.014,30.014,0,0,1-2.245,10.563V33.3C59.725,33.159,59.7,33.027,59.684,32.89Z"/>
        <path id="Trazado_920178" data-name="Trazado 920178" d="M17,7a4.01,4.01,0,0,0-4.516-3.966,4,4,0,0,0-6.963,0A4.083,4.083,0,0,0,5,3,4,4,0,0,0,1,7a3.638,3.638,0,0,0,.891,2.234A1.986,1.986,0,0,0,3.468,10H14.531a1.986,1.986,0,0,0,1.578-.767A3.633,3.633,0,0,0,17,7ZM14.532,8H3.468v.005A1.811,1.811,0,0,1,3,7,2,2,0,0,1,5,5a2.093,2.093,0,0,1,.587.081l.11.05a1,1,0,0,0,1.379-.654,1.993,1.993,0,0,1,3.848-.01,1,1,0,0,0,1.323.678A2.025,2.025,0,0,1,15,7,1.785,1.785,0,0,1,14.532,8Z"/>
        <path id="Trazado_920179" data-name="Trazado 920179" d="M30.3,6.343A2.862,2.862,0,0,0,31,4.571a3.147,3.147,0,0,0-3.36-3.135,3.14,3.14,0,0,0-5.276,0A3.174,3.174,0,0,0,19,4.571a2.857,2.857,0,0,0,.695,1.769A1.7,1.7,0,0,0,21.049,7h7.9A1.7,1.7,0,0,0,30.3,6.343ZM28.809,5H21.191A.836.836,0,0,1,21,4.571a1.145,1.145,0,0,1,1.143-1.143,1.075,1.075,0,0,1,.375.065A1,1,0,0,0,23.9,2.842a1.138,1.138,0,0,1,2.2-.007,1,1,0,0,0,1.323.677A1.162,1.162,0,0,1,29,4.571.839.839,0,0,1,28.809,5Z"/>
        <path id="Trazado_920180" data-name="Trazado 920180" d="M3,16a1,1,0,0,0-1,1v3a1,1,0,0,0,2,0V17A1,1,0,0,0,3,16Z"/>
        <path id="Trazado_920181" data-name="Trazado 920181" d="M4,13a1,1,0,0,0-2,0v1a1,1,0,0,0,2,0Z"/>
        <path id="Trazado_920182" data-name="Trazado 920182" d="M7,18a1,1,0,0,0-1,1v1a1,1,0,0,0,2,0V19A1,1,0,0,0,7,18Z"/>
        <path id="Trazado_920183" data-name="Trazado 920183" d="M8,13a1,1,0,0,0-2,0v3a1,1,0,0,0,2,0Z"/>
        <path id="Trazado_920184" data-name="Trazado 920184" d="M11,17a1,1,0,0,0-1,1v2a1,1,0,0,0,2,0V18A1,1,0,0,0,11,17Z"/>
        <path id="Trazado_920185" data-name="Trazado 920185" d="M12,13a1,1,0,0,0-2,0v2a1,1,0,0,0,2,0Z"/>
        <path id="Trazado_920186" data-name="Trazado 920186" d="M15,12a1,1,0,0,0-1,1v2a1,1,0,0,0,2,0V13A1,1,0,0,0,15,12Z"/>
        <path id="Trazado_920187" data-name="Trazado 920187" d="M20,9v1a1,1,0,0,0,2,0V9a1,1,0,0,0-2,0Z"/>
        <path id="Trazado_920188" data-name="Trazado 920188" d="M24,9v1a1,1,0,0,0,2,0V9a1,1,0,0,0-2,0Z"/>
        <path id="Trazado_920189" data-name="Trazado 920189" d="M28,9v1a1,1,0,0,0,2,0V9a1,1,0,0,0-2,0Z"/>
        <path id="Trazado_920190" data-name="Trazado 920190" d="M56.425,51.185V36.6a2.65,2.65,0,0,0-5.3,0V51.185A5.126,5.126,0,0,0,53.783,60.7a5.3,5.3,0,0,0,1.081-.112,5.11,5.11,0,0,0,3.958-4.106A5.162,5.162,0,0,0,56.425,51.185Zm.426,4.954a3.136,3.136,0,0,1-2.4,2.49,3.131,3.131,0,0,1-3.806-3.054A3.151,3.151,0,0,1,52.53,52.7a1,1,0,0,0,.6-.914V36.6a.65.65,0,0,1,1.3,0V51.788a1,1,0,0,0,.6.914,3.162,3.162,0,0,1,1.831,3.437Z"/>
      </g>
    </g>
  </g>
</svg>
