<svg xmlns="http://www.w3.org/2000/svg" xmlns:xlink="http://www.w3.org/1999/xlink" width="190" height="217" viewBox="0 0 190 217">
  <defs>
    <clipPath id="clip-path">
      <rect id="Rectángulo_405786" data-name="Rectángulo 405786" width="190" height="217" rx="11" transform="translate(180.051 3466)" fill="#9ad354"/>
    </clipPath>
    <clipPath id="clip-path-2">
      <rect id="Rectángulo_404820" data-name="Rectángulo 404820" width="266" height="200" rx="13" transform="translate(0 0.106)" fill="#fff"/>
    </clipPath>
  </defs>
  <g id="Grupo_1123437" data-name="Grupo 1123437" transform="translate(-180.051 -3466)">
    <rect id="Rectángulo_405485" data-name="Rectángulo 405485" width="190" height="217" rx="11" transform="translate(180.051 3466)" fill="#9ad354"/>
    <g id="Enmascarar_grupo_1098798" data-name="Enmascarar grupo 1098798" clip-path="url(#clip-path)">
      <g id="Enmascarar_grupo_1098770" data-name="Enmascarar grupo 1098770" transform="translate(159.051 3482.894)" clip-path="url(#clip-path-2)">
        <g id="Grupo_1112759" data-name="Grupo 1112759" transform="translate(-12.717 14.372)">
          <g id="Grupo_1112759-2" data-name="Grupo 1112759">
            <path id="Trazado_901856" data-name="Trazado 901856" d="M0,216.607c4.58-15.461,20.9-16.3,26.452-11.757,7.759,6.344,10.493,21.887,13.523,30.973,12.621-18.172,19.688,11.111,21.205,20.2,10.095-11.613,20.193,1.012,27.262,9.588,1.009-6.057,6.564-14.132,14.136-14.132,7.067.5,10.1,8.075,13.127,13.128,10.1-11.111,20.7,4.04,23.222,13.127,10.1-3.539,16.156,3.531,19.695,12.617.5-21.2,11.607-28.271,30.287-18.675,2.024-6.567.51-15.152,8.082-19.187,9.086-5.05,13.629,3.534,18.172,10.093,2.527-13.128,16.659-2.519,20.7,3.028,0-8.576,9.6-13.629,16.156-6.56,0-5.555-2.526-16.155,2.527-19.686,5.555-4.041,11.1,1,15.144,4.033-1.012-13.629,12.115-12.115,19.694-4.543,0-8.075-.509-16.156,7.572-20.193,7.572-4.039,14.132,1.009,15.144,9.091V388.176H0Z" transform="translate(0 -202.442)" fill="#eff2d1"/>
            <path id="Trazado_901857" data-name="Trazado 901857" d="M298.533,332.151a8.06,8.06,0,0,1-.358,2.522,11.038,11.038,0,0,1,.358-2.522c-.072-3.551-2.59-6.385-6.253-4.413-4.162,2.08-5.2,8.669-5.548,12.484-6.588-9.363-13.524,2.08-13.177,9.016-8.669-8.322-10.751,5.548-10.751,11.79-1.276-7.338-10.766-7.332-14.167-1.885a8.6,8.6,0,0,1-.744,1.538,7.656,7.656,0,0,1,.744-1.538c2.585-7.111-8.022-11.507-12.882-4.7,1.041-4.508,0-15.258-6.242-15.258-4.648,0-7.909,7.2-7.808,11.7a5.918,5.918,0,0,1,.18,1.479,6.755,6.755,0,0,1-.18-1.479c-1.075-4.173-6.78-4.527-10.224-2.335-4.162,2.427-4.856,7.976-5.548,12.484-5.482-5.16-13.36-1.62-12.762,5.316a6.073,6.073,0,0,1,.278,1.619,9.709,9.709,0,0,1-.278-1.619c-1.905-5.921-12.95-1.041-13.593,4.74-5.2-2.428-6.588-6.935-13.177-6.589-4.854,0-9.709,2.775-9.709,7.977-6.242-7.977-14.565-5.549-17.339,4.161-8.323-5.9-18.032-6.242-19.073,6.588-3.814-3.121-6.242-7.975-11.79-8.669-4.855-.347-10.057,3.121-11.791,7.975-.346-6.588-8.669-25.315-16.3-13.524,0-5.2,0-13.177-4.509-16.645a8.286,8.286,0,0,0-12.484,1.733c-2.428-5.895-4.508-13.87-11.79-15.951-5.895-1.388-9.709,1.733-10.75,7.628-1.04-5.2-3.814-10.4-9.71-11.1-6.242-1.041-7.282,3.121-9.363,7.629-1.733-2.775-3.121-10.056-6.242-11.1-4.854-1.387-7.282,5.2-7.629,8.669C5.609,336.4,3.769,331.73,0,329.672V433.7H312.1V323.727C306.948,322.811,300.155,325.973,298.533,332.151Z" transform="translate(0 -247.963)" fill="#eff2d1" style="mix-blend-mode: multiply;isolation: isolate"/>
          </g>
        </g>
        <g id="Grupo_1112758" data-name="Grupo 1112758" transform="translate(-27.922 0)">
          <g id="Grupo_1112757" data-name="Grupo 1112757" transform="translate(0)">
            <g id="Grupo_1112660" data-name="Grupo 1112660" transform="translate(163.528 89.357)">
              <g id="Grupo_1112659" data-name="Grupo 1112659" transform="translate(0)">
                <path id="Trazado_901710" data-name="Trazado 901710" d="M261.081,200.422c25.348,14.273,75.435,65.279,75.435,87.64,0,14.244-48.429,27.631-47.955,10.728S241.2,189.226,261.081,200.422Z" transform="translate(-256.241 -199.487)" fill="#e05b2e"/>
                <path id="Trazado_901711" data-name="Trazado 901711" d="M261.081,200.422c-19.883-11.2,27.954,81.467,27.48,98.368-.181,6.472,6.808,8.5,15.5,7.742-2.642-30.377-10.718-75.014-34.876-100.908A95.372,95.372,0,0,0,261.081,200.422Z" transform="translate(-256.241 -199.487)" fill="#b6300d"/>
              </g>
              <path id="Trazado_901712" data-name="Trazado 901712" d="M329.4,261.964c.107-.045.215-.088.324-.134q-.51-.7-1.035-1.412c-.138.058-.278.113-.415.172q-.986-1.192-1.992-2.369c-3.7-4.317-7.521-8.539-11.361-12.744.382-.161.77-.306,1.154-.461-.4-.446-.8-.89-1.2-1.336-.387.161-.775.311-1.159.476-3.709-4.054-7.426-8.1-11.076-12.2.19-.142.382-.279.572-.42q-.6-.583-1.189-1.161c-.157.119-.32.233-.478.352q-2.3-2.6-4.61-5.18c-3.95-3.658-7.887-7.1-11.688-10.2,4.816,5.079,9.5,10.288,14.145,15.527.263.3.531.59.8.887q-2.223,1.7-4.387,3.478c-6.246-9.241-12.907-18.221-19.8-26.983-1.618-1.15-3.187-2.216-4.691-3.176,8.1,10.108,15.927,20.506,23.189,31.264-.611.517-1.228,1.024-1.831,1.555-5.054,4.446-9.8,9.215-14.4,14.131.235.589.473,1.175.708,1.764,4.074-4.367,8.262-8.624,12.661-12.671,1.248-1.149,2.518-2.269,3.8-3.374q3.937,5.89,7.633,11.927-2.318,1.389-4.562,2.876a171.079,171.079,0,0,0-15.368,11.63q.338.848.672,1.69A182.782,182.782,0,0,1,298.8,254.41q2.517-1.706,5.149-3.292,5.041,8.356,9.518,17.016a178.83,178.83,0,0,0-22.682,16.1q.307.874.595,1.718a177.386,177.386,0,0,1,22.862-16.3,229.693,229.693,0,0,1,14.109,34.162.819.819,0,0,0,.28.4c.471-.2.935-.417,1.391-.633a.743.743,0,0,0-.024-.219,231.64,231.64,0,0,0-14.289-34.573,128.765,128.765,0,0,1,12.07-6.134,131.435,131.435,0,0,1,13.767,20.156,73.692,73.692,0,0,0-8.344-15.952Q331.348,264.377,329.4,261.964ZM296.747,236.65q2.234-1.875,4.54-3.665,5.351,5.989,10.769,11.916c-2.566,1.179-5.075,2.492-7.521,3.908Q300.775,242.65,296.747,236.65Zm18.185,30.621q-4.464-8.665-9.525-17.017a85.58,85.58,0,0,1,7.83-4.049c3.518,3.87,7.026,7.745,10.48,11.666q1.488,1.688,2.931,3.416A130.932,130.932,0,0,0,314.932,267.271Z" transform="translate(-262.763 -201.906)" fill="#b6300d" opacity="0.3"/>
              <path id="Trazado_901713" data-name="Trazado 901713" d="M321.583,365.81s-11.432-1.723-10.869-17.235,31.516-28.627,41.82-26.953S359,330.076,359,330.076s11.482,7.448,9.082,18.914S342.673,370.321,321.583,365.81Z" transform="translate(-279.809 -252.286)" fill="#b6300d"/>
            </g>
            <g id="Grupo_1112661" data-name="Grupo 1112661" transform="translate(195.904 173.839)">
              <path id="Trazado_901714" data-name="Trazado 901714" d="M360.914,349.287c8.52,10.074-1.29,42.739-42.531,55.729l-5.059-20.5,5.059-23.077S338.4,344.5,360.914,349.287Z" transform="translate(-313.324 -348.436)" fill="#ffa17b"/>
              <path id="Trazado_901715" data-name="Trazado 901715" d="M318.383,361.44l-5.059,23.077,5.059,20.5a86.144,86.144,0,0,0,18.55-8.251,23.489,23.489,0,0,0,.913-3.358c.433-2.273,1.407-9.631-2.056-10.065a64.867,64.867,0,0,1,11.146-20.669A44.2,44.2,0,0,1,359.6,351.635c.623-.336,1.348-.758,2.134-1.2a9.494,9.494,0,0,0-.82-1.144C338.4,344.5,318.383,361.44,318.383,361.44Z" transform="translate(-313.324 -348.436)" fill="#cf6e4b" opacity="0.4"/>
            </g>
            <g id="Grupo_1112662" data-name="Grupo 1112662" transform="translate(45.575 78.675)">
              <path id="Trazado_901716" data-name="Trazado 901716" d="M76.037,204.125C58.27,236,38.635,291.273,53.569,341.214h146.88s19.28-118.021-36.529-153.745C148.253,177.441,92.191,175.145,76.037,204.125Z" transform="translate(-48.281 -180.654)" fill="#e05b2e"/>
              <path id="Trazado_901717" data-name="Trazado 901717" d="M87.2,267.074c4.914-12.716,8.794-36.611,4.8-50A25.442,25.442,0,0,0,84.2,204.806a35.187,35.187,0,0,0-8.162,9.772c-17.768,31.873-37.4,87.148-22.469,137.089H86.685C77.089,336.562,72.168,305.983,87.2,267.074Z" transform="translate(-48.281 -191.107)" fill="#b6300d"/>
              <path id="Trazado_901718" data-name="Trazado 901718" d="M193.482,290.592a223.161,223.161,0,0,0-2.36-24.075q5.541-1.189,11.037-2.57c-.071-.588-.145-1.174-.221-1.762q-5.524,1.383-11.1,2.587a228.93,228.93,0,0,0-6.4-28.183q5.578-1.988,11.045-4.261c-.175-.544-.358-1.084-.539-1.626q-5.439,2.269-10.992,4.249-3.013-9.979-6.907-19.705-1.331-3.319-2.738-6.6,4.064-1.666,7.994-3.621-.5-.708-1.017-1.4-3.757,1.852-7.645,3.452-1.3-3.019-2.661-6.016c2.947.153,5.887.373,8.825.624q-.737-.928-1.5-1.824-4.048-.316-8.1-.509-2.673-5.836-5.534-11.582c-.147-.1-.286-.2-.433-.294a22.763,22.763,0,0,0-2.231-1.24q3.264,6.457,6.291,13.031a225.381,225.381,0,0,0-29.31.689q-3.946-9.752-8.387-19.295c-.622,0-1.246.01-1.873.022q4.517,9.59,8.49,19.433c-4.791.478-9.57,1.121-14.331,1.957-.193.035-.385.075-.579.109-1.347-6.929-2.818-13.832-4.37-20.718q-.852.108-1.7.23,2.329,10.363,4.377,20.808a192.189,192.189,0,0,0-19.918,4.938q-1.428-6.71-3.167-13.346c-.585-2.226-1.21-4.441-1.852-6.652q-.8.362-1.582.748,2.814,9.8,4.942,19.761-4.7,1.468-9.322,3.121A94.788,94.788,0,0,0,67.365,222.15q-.679,1.525-1.349,3.087c7.418-5.691,16.038-9.61,24.817-12.759q4.24-1.523,8.558-2.863,1.633,7.914,2.8,15.912c-12.823,2.2-25.721,4-38.624,5.64q-.355.892-.7,1.795c13.226-1.678,26.43-3.516,39.566-5.768a266.353,266.353,0,0,1,2.421,27.125c.011.284.014.57.023.855a407.2,407.2,0,0,1-49.509,6.466c-.516.033-1.032.056-1.548.086q-.2.847-.4,1.7a398.023,398.023,0,0,0,44.148-5.111c2.459-.419,4.911-.868,7.359-1.331q.231,8.748-.137,17.488a330.894,330.894,0,0,1-53.137-2.6q-.156.835-.306,1.674a332.678,332.678,0,0,0,49.937,2.7c1.138-.018,2.278-.044,3.417-.07q-.494,9.889-1.753,19.713a432.116,432.116,0,0,1-53.8-5.536c-.047.571-.092,1.143-.132,1.716a428.852,428.852,0,0,0,53.7,5.589,259.89,259.89,0,0,1-4.963,26.409A249.166,249.166,0,0,1,49.02,314.51c.047.61.1,1.217.153,1.827a250.986,250.986,0,0,0,48.164,9.356c-.67,2.687-1.372,5.367-2.127,8.034q-1.064,3.763-2.258,7.487H94.71c1.592-5.08,3.046-10.2,4.328-15.359,8.714.809,17.472,1.241,26.239,1.345.834.01,1.667.014,2.5.019q-.585,5-1.34,9.989-.306,2.005-.644,4.005h1.649q1.141-6.975,1.95-13.981c12.42.072,24.831-.2,37.2-1.019q.106,7.5-.181,15H168.1q.277-7.552.164-15.109,11.383-.8,22.715-2.29-.81,8.734-2.223,17.4h1.707q1.4-8.771,2.211-17.622,4.736-.654,9.459-1.451c.265-.046.529-.1.793-.141q.07-.883.138-1.8-5.1.9-10.233,1.636a246.8,246.8,0,0,0,.722-29.536q5.2-.767,10.39-1.672c-.011-.573-.024-1.15-.037-1.728Q198.7,289.813,193.482,290.592Zm-1.7.253q-12.855,1.857-25.81,2.994c-.263-2.067-.539-4.131-.846-6.193-.805-5.414-1.806-10.771-2.954-16.085q8.02-1.121,15.982-2.511,5.686-1,11.344-2.18A235.874,235.874,0,0,1,191.779,290.845Zm-60.58-15.96q14.713-1.109,29.336-3.1,2.316,11.019,3.745,22.2c-10.944.945-21.91,1.559-32.843,1.923Q131.621,285.4,131.2,274.885Zm-24.565-18.226c7.145-1.379,14.254-2.92,21.344-4.555Q129,262.635,129.5,273.2q-6.525.475-13.041.815-4.978.262-9.973.4c.028-.625.064-1.25.087-1.874Q106.857,264.6,106.634,256.659ZM129.447,250q-1.367-13.71-3.529-27.345,9.189-2,18.3-4.393,1.7,4.607,3.35,9.226c1.984,5.545,3.88,11.107,5.649,16.7-5.252,1.361-10.516,2.657-15.773,3.924Q133.452,249.077,129.447,250Zm8.455-.235c5.288-1.273,10.569-2.577,15.833-3.946,2.006,6.449,3.829,12.955,5.381,19.557q.552,2.346,1.06,4.7c-9.657,1.294-19.358,2.273-29.058,3.008q-.472-10.685-1.505-21.356Q133.76,250.757,137.9,249.761Zm51.321,15.358c-9.07,1.905-18.228,3.46-27.43,4.727-1.835-8.241-4.037-16.375-6.507-24.437,6.634-1.745,13.238-3.606,19.781-5.672q3.973-1.257,7.907-2.639A216.6,216.6,0,0,1,189.223,265.119Zm-10.91-41.938c1.525,4.047,2.9,8.148,4.159,12.285-9.086,3.183-18.359,5.871-27.687,8.314-2.713-8.719-5.729-17.358-8.909-25.96q7.535-2.023,14.978-4.343c4.006-1.256,7.98-2.641,11.887-4.192Q175.669,216.174,178.312,223.181Zm-9.243-22.227q1.528,3.364,2.991,6.757a231.546,231.546,0,0,1-26.781,8.492q-.826-2.214-1.664-4.429-1.942-5.128-3.981-10.224A220.37,220.37,0,0,1,169.069,200.953Zm-45.727,2.764c4.814-.868,9.657-1.525,14.518-2.005q2.984,7.421,5.758,14.923-2.595.675-5.178,1.327-6.372,1.611-12.792,3.006-1.377-8.582-3.012-17.115C122.87,203.809,123.106,203.759,123.342,203.717Zm-22.292,5.393a200.379,200.379,0,0,1,19.883-4.932q1.638,8.557,3.033,17.159-10,2.154-20.074,3.895Q102.7,217.133,101.05,209.111Zm3.083,17.785q9.4-1.639,18.752-3.59c.451-.1.9-.2,1.354-.294q2.158,13.641,3.569,27.363-10.587,2.415-21.233,4.479A266.045,266.045,0,0,0,104.133,226.9Zm2.271,49.241q11.581-.3,23.176-1.133.429,10.472.258,20.954c-.589.019-1.179.04-1.768.057q-11.734.339-23.428-.067Q105.9,286.088,106.4,276.137Zm21.557,49.437q-6.2-.092-12.373-.316-8.093-.3-16.155-1.035a261.509,261.509,0,0,0,4.984-26.509q4.581.151,9.167.2c5.4.044,10.8-.021,16.211-.154C129.585,307.034,128.992,316.31,127.961,325.573Zm1.621.026c1.016-9.266,1.6-18.564,1.813-27.876q16.568-.459,33.109-1.983.584,4.771,1.016,9.557.862,9.632,1.052,19.3C154.256,325.456,141.893,325.743,129.582,325.6Zm61.555-3.523q-11.4,1.574-22.908,2.407-.3-14.484-2.044-28.9,12.237-1.157,24.383-2.838c.423-.06.847-.128,1.271-.188.105,2.814.172,5.628.181,8.44Q192.047,311.554,191.136,322.076Z" transform="translate(-48.598 -180.655)" fill="#b6300d" opacity="0.3"/>
            </g>
            <g id="Grupo_1112695" data-name="Grupo 1112695" transform="translate(42.342 81.659)">
              <path id="Trazado_901719" data-name="Trazado 901719" d="M42.58,343.951s24.8-6.567,35.47-17.924c11.491-12.235,21.074-53.3,21.074-53.3l85.227-4.329s15.624,45.35,19.552,68.117v63.033H42.58Z" transform="translate(-42.58 -221.613)" fill="#0e84c4"/>
              <path id="Trazado_901720" data-name="Trazado 901720" d="M119.578,192.019s14.946,18.73,15.056,54.494c.022,7.14,15.822,7.978,15.8-1.994-.041-15.834-13.861-49.57-23.547-56.123Z" transform="translate(-75.906 -186.989)" fill="#085dad"/>
              <path id="Trazado_901721" data-name="Trazado 901721" d="M240.08,189.537s14.946,18.73,15.056,54.494c.022,7.14,15.821,7.979,15.8-1.994-.043-15.833-13.863-49.57-23.548-56.122Z" transform="translate(-128.061 -185.915)" fill="#085dad"/>
              <g id="Grupo_1112663" data-name="Grupo 1112663" transform="translate(73.625 70.705)">
                <path id="Trazado_901722" data-name="Trazado 901722" d="M234.748,320.455c-.035-2.966-.269-5.929-.6-8.876-.12-1.082-1.83-1.094-1.708,0,1,8.956,1.065,18.292-2.042,26.867-3.527,9.74-12.074,15.852-22.045,17.844a26.386,26.386,0,0,1-27.921-11.961c-5.446-8.5-6.61-19.164-6.284-29.058a89.179,89.179,0,0,1,11.98-1.677,370.283,370.283,0,0,1,43.8-1.162.855.855,0,0,0,0-1.709,376.311,376.311,0,0,0-43.8,1.162,86.215,86.215,0,0,0-13.041,1.88.866.866,0,0,0-.628.823c-.4,10.11.8,20.593,5.853,29.532a27.788,27.788,0,0,0,24.526,14.411c9.632.047,19.542-4.488,25.321-12.241C233.594,339,234.847,329.3,234.748,320.455Z" transform="translate(-172.387 -310.575)" fill="#085dad"/>
                <path id="Trazado_901723" data-name="Trazado 901723" d="M183.177,325.669a4.945,4.945,0,0,1-2.172.2c-1.075-.23-1.532,1.417-.454,1.649a6.842,6.842,0,0,0,3.081-.2C184.7,327.054,184.248,325.406,183.177,325.669Z" transform="translate(-175.654 -317.096)" fill="#085dad"/>
                <path id="Trazado_901724" data-name="Trazado 901724" d="M195.858,324.6a12.149,12.149,0,0,1-2.6.373.855.855,0,0,0,0,1.709,14.144,14.144,0,0,0,3.054-.436C197.383,325.99,196.928,324.342,195.858,324.6Z" transform="translate(-181.062 -316.634)" fill="#085dad"/>
                <path id="Trazado_901725" data-name="Trazado 901725" d="M209.548,322.816a10.822,10.822,0,0,1-2.4.375.855.855,0,0,0,0,1.709,12.957,12.957,0,0,0,2.853-.435A.856.856,0,0,0,209.548,322.816Z" transform="translate(-187.074 -315.861)" fill="#085dad"/>
                <path id="Trazado_901726" data-name="Trazado 901726" d="M220.684,322.784a.855.855,0,0,0,0,1.71h2.829a.855.855,0,0,0,0-1.71Z" transform="translate(-192.933 -315.859)" fill="#085dad"/>
                <path id="Trazado_901727" data-name="Trazado 901727" d="M235.547,322.465a4.626,4.626,0,0,1-2.174.2.855.855,0,0,0-.453,1.649,6.285,6.285,0,0,0,3.08-.2C237.072,323.853,236.617,322.2,235.547,322.465Z" transform="translate(-198.325 -315.709)" fill="#085dad"/>
                <path id="Trazado_901728" data-name="Trazado 901728" d="M247.755,322.43a.856.856,0,0,0,0,1.71h3.233a.856.856,0,0,0,0-1.71Z" transform="translate(-204.649 -315.706)" fill="#085dad"/>
                <path id="Trazado_901729" data-name="Trazado 901729" d="M264.5,322.074a.855.855,0,0,0,0,1.709h2.223a.855.855,0,0,0,0-1.709Z" transform="translate(-211.895 -315.552)" fill="#085dad"/>
              </g>
              <g id="Grupo_1112664" data-name="Grupo 1112664" transform="translate(57.012 12.554)">
                <path id="Trazado_901730" data-name="Trazado 901730" d="M143.163,208.681c.845,1.367,1.585,2.8,2.429,4.163.289.469,1.029.041.738-.43-.845-1.367-1.585-2.8-2.429-4.164-.288-.468-1.028-.039-.738.431Z" transform="translate(-143.096 -208.048)" fill="#0e84c4"/>
              </g>
              <g id="Grupo_1112676" data-name="Grupo 1112676" transform="translate(51.809 17.583)">
                <g id="Grupo_1112665" data-name="Grupo 1112665" transform="translate(9.355 2.973)">
                  <path id="Trazado_901731" data-name="Trazado 901731" d="M150.452,222.667a19.978,19.978,0,0,0,1.778,3.746c.31.451,1.051.024.737-.431a18.98,18.98,0,0,1-1.691-3.541c-.21-.5-1.038-.28-.824.226Z" transform="translate(-150.417 -222.158)" fill="#0e84c4"/>
                </g>
                <g id="Grupo_1112666" data-name="Grupo 1112666" transform="translate(12.332 10.058)">
                  <path id="Trazado_901732" data-name="Trazado 901732" d="M155.673,235.186a19.853,19.853,0,0,1,.5,3.009.427.427,0,0,0,.854,0,21.336,21.336,0,0,0-.535-3.237c-.1-.542-.919-.311-.824.227Z" transform="translate(-155.665 -234.65)" fill="#0e84c4"/>
                </g>
                <g id="Grupo_1112667" data-name="Grupo 1112667" transform="translate(14.738 15.804)">
                  <path id="Trazado_901733" data-name="Trazado 901733" d="M159.938,245.3c.5,1.336,1.056,2.654,1.561,3.99.193.51,1.019.29.824-.226-.5-1.337-1.056-2.654-1.561-3.991-.193-.511-1.02-.29-.824.227Z" transform="translate(-159.908 -244.779)" fill="#0e84c4"/>
                </g>
                <g id="Grupo_1112668" data-name="Grupo 1112668" transform="translate(17.012 22.899)">
                  <path id="Trazado_901734" data-name="Trazado 901734" d="M163.929,257.823c.188.88.506,1.724.694,2.6.115.538.938.311.824-.227-.188-.88-.506-1.724-.694-2.6-.115-.539-.939-.31-.824.227Z" transform="translate(-163.918 -257.289)" fill="#0e84c4"/>
                </g>
                <g id="Grupo_1112669" data-name="Grupo 1112669">
                  <path id="Trazado_901735" data-name="Trazado 901735" d="M133.989,217.55a21.629,21.629,0,0,1,1.865,4.409c.174.521,1,.3.824-.227a22.659,22.659,0,0,0-1.952-4.612.427.427,0,0,0-.737.43Z" transform="translate(-133.924 -216.916)" fill="#0e84c4"/>
                </g>
                <g id="Grupo_1112670" data-name="Grupo 1112670" transform="translate(3.3 8.15)">
                  <path id="Trazado_901736" data-name="Trazado 901736" d="M139.8,231.923a8.039,8.039,0,0,1,.824,2.5c.108.541.932.311.824-.227a8.751,8.751,0,0,0-.91-2.7.427.427,0,0,0-.738.43Z" transform="translate(-139.743 -231.284)" fill="#0e84c4"/>
                </g>
                <g id="Grupo_1112671" data-name="Grupo 1112671" transform="translate(5.391 14.743)">
                  <path id="Trazado_901737" data-name="Trazado 901737" d="M143.437,243.446c.151.8.195,1.624.347,2.429.1.541.926.311.824-.227-.153-.805-.2-1.624-.347-2.429-.1-.542-.926-.311-.824.227Z" transform="translate(-143.429 -242.909)" fill="#0e84c4"/>
                </g>
                <g id="Grupo_1112672" data-name="Grupo 1112672" transform="translate(6.764 20.828)">
                  <path id="Trazado_901738" data-name="Trazado 901738" d="M145.873,254.16a20.639,20.639,0,0,1,.694,2.949c.091.542.915.312.824-.227a20.375,20.375,0,0,0-.694-2.949c-.17-.522-1-.3-.824.226Z" transform="translate(-145.85 -253.637)" fill="#0e84c4"/>
                </g>
                <g id="Grupo_1112673" data-name="Grupo 1112673" transform="translate(8.507 28.285)">
                  <path id="Trazado_901739" data-name="Trazado 901739" d="M148.922,267.2v1.737a.428.428,0,0,0,.855,0V267.2a.428.428,0,0,0-.855,0Z" transform="translate(-148.922 -266.784)" fill="#0e84c4"/>
                </g>
                <g id="Grupo_1112674" data-name="Grupo 1112674" transform="translate(8.507 34.184)">
                  <path id="Trazado_901740" data-name="Trazado 901740" d="M148.922,277.6a10.3,10.3,0,0,0,.189,2.368c.125.537.949.309.824-.227a9.36,9.36,0,0,1-.158-2.141.428.428,0,0,0-.855,0Z" transform="translate(-148.922 -277.185)" fill="#0e84c4"/>
                </g>
                <g id="Grupo_1112675" data-name="Grupo 1112675" transform="translate(19.245 28.647)">
                  <path id="Trazado_901741" data-name="Trazado 901741" d="M167.888,267.934a15.172,15.172,0,0,1,.867,3.644c.078.543.9.31.824-.227a15.126,15.126,0,0,0-.867-3.644c-.205-.5-1.032-.282-.824.227Z" transform="translate(-167.855 -267.423)" fill="#0e84c4"/>
                </g>
              </g>
              <g id="Grupo_1112686" data-name="Grupo 1112686" transform="translate(122.929 22.982)">
                <g id="Grupo_1112677" data-name="Grupo 1112677" transform="translate(8.866 2.228)">
                  <path id="Trazado_901742" data-name="Trazado 901742" d="M275,231a16.358,16.358,0,0,1,1.518,3.889.428.428,0,0,0,.825-.227,17.248,17.248,0,0,0-1.606-4.092c-.268-.482-1.006-.05-.738.43Z" transform="translate(-274.945 -230.363)" fill="#0e84c4"/>
                </g>
                <g id="Grupo_1112678" data-name="Grupo 1112678" transform="translate(11.3 8.651)">
                  <path id="Trazado_901743" data-name="Trazado 901743" d="M279.247,242.222q.259,1.3.52,2.6c.109.54.931.311.824-.226q-.259-1.3-.52-2.6c-.108-.54-.932-.311-.824.227Z" transform="translate(-279.237 -241.687)" fill="#0e84c4"/>
                </g>
                <g id="Grupo_1112679" data-name="Grupo 1112679" transform="translate(12.867 14.363)">
                  <path id="Trazado_901744" data-name="Trazado 901744" d="M282.046,252.409a10.175,10.175,0,0,1,.651,1.979.428.428,0,0,0,.825-.227,11.14,11.14,0,0,0-.738-2.184c-.238-.5-.976-.062-.737.431Z" transform="translate(-281.999 -251.758)" fill="#0e84c4"/>
                </g>
                <g id="Grupo_1112680" data-name="Grupo 1112680" transform="translate(14.765 19.584)">
                  <path id="Trazado_901745" data-name="Trazado 901745" d="M285.36,261.5a7.371,7.371,0,0,0,.736,2.184c.291.466,1.031.039.739-.432a6.743,6.743,0,0,1-.652-1.979c-.13-.535-.955-.309-.823.227Z" transform="translate(-285.346 -260.963)" fill="#0e84c4"/>
                </g>
                <g id="Grupo_1112681" data-name="Grupo 1112681" transform="translate(0)">
                  <path id="Trazado_901746" data-name="Trazado 901746" d="M259.347,226.946a27.875,27.875,0,0,1,1.04,3.991c.13.536.954.309.824-.227a27.63,27.63,0,0,0-1.042-3.99c-.2-.5-1.029-.284-.822.226Z" transform="translate(-259.314 -226.435)" fill="#0e84c4"/>
                </g>
                <g id="Grupo_1112682" data-name="Grupo 1112682" transform="translate(1.763 6.915)">
                  <path id="Trazado_901747" data-name="Trazado 901747" d="M262.427,239.163a20.145,20.145,0,0,0,.693,3.3c.17.522.994.3.825-.227a19.953,19.953,0,0,1-.694-3.3c-.078-.545-.9-.311-.824.227Z" transform="translate(-262.422 -238.626)" fill="#0e84c4"/>
                </g>
                <g id="Grupo_1112683" data-name="Grupo 1112683" transform="translate(3.487 14.038)">
                  <path id="Trazado_901748" data-name="Trazado 901748" d="M265.462,251.6a9.826,9.826,0,0,0,.362,2.2.428.428,0,0,0,.825-.228,8.638,8.638,0,0,1-.332-1.969.428.428,0,0,0-.855,0Z" transform="translate(-265.462 -251.184)" fill="#0e84c4"/>
                </g>
                <g id="Grupo_1112684" data-name="Grupo 1112684" transform="translate(5.058 19.753)">
                  <path id="Trazado_901749" data-name="Trazado 901749" d="M268.237,261.8c.159,1.1.337,2.2.521,3.3.089.543.914.313.824-.226-.183-1.1-.361-2.2-.521-3.3-.077-.544-.9-.312-.824.226Z" transform="translate(-268.232 -261.26)" fill="#0e84c4"/>
                </g>
                <g id="Grupo_1112685" data-name="Grupo 1112685" transform="translate(5.222 27.745)">
                  <path id="Trazado_901750" data-name="Trazado 901750" d="M268.52,275.764v2.428a.428.428,0,0,0,.855,0v-2.428a.428.428,0,0,0-.855,0Z" transform="translate(-268.52 -275.351)" fill="#0e84c4"/>
                </g>
              </g>
              <g id="Grupo_1112690" data-name="Grupo 1112690" transform="translate(129.521 46.565)">
                <g id="Grupo_1112688" data-name="Grupo 1112688">
                  <g id="Grupo_1112687" data-name="Grupo 1112687">
                    <path id="Trazado_901751" data-name="Trazado 901751" d="M282.967,273.343c-.513-3.532-4.949-6.567-8.337-4.824-2.861,1.471-4.2,5.583-3.518,8.589a5.609,5.609,0,0,0,8.544,3.6c1.453-.863,2.454-1.275,3-3.081A10.141,10.141,0,0,0,282.967,273.343Zm-7.448.683c-1,1.257-2.9,1-2.4-.917a2.462,2.462,0,0,1,.606-1.109C275.045,270.667,276.552,272.731,275.52,274.026Zm5.2,3.1c-1.63,1.616-3.214-.809-1.842-2.3C280.355,273.221,282.148,275.706,280.717,277.126Z" transform="translate(-270.937 -268.013)" fill="#ffa53e"/>
                  </g>
                </g>
                <g id="Grupo_1112689" data-name="Grupo 1112689" transform="translate(0.92 1.478)">
                  <path id="Trazado_901752" data-name="Trazado 901752" d="M274.765,270.726c-3.826,3.248-2.543,10.509,2.847,10.851.549.034.546-.819,0-.855-4.7-.3-5.434-6.685-2.242-9.392.42-.357-.187-.959-.605-.6Z" transform="translate(-272.56 -270.618)" fill="#ffb448"/>
                </g>
              </g>
              <g id="Grupo_1112694" data-name="Grupo 1112694" transform="translate(61.175 47.973)">
                <g id="Grupo_1112692" data-name="Grupo 1112692" transform="translate(0)">
                  <g id="Grupo_1112691" data-name="Grupo 1112691">
                    <path id="Trazado_901753" data-name="Trazado 901753" d="M162.467,275.825c-.513-3.532-4.95-6.566-8.338-4.825-2.861,1.471-4.2,5.585-3.517,8.591a5.607,5.607,0,0,0,8.543,3.6c1.454-.862,2.454-1.276,3-3.081A10.168,10.168,0,0,0,162.467,275.825Zm-7.448.682c-1,1.259-2.9,1-2.4-.915a2.462,2.462,0,0,1,.606-1.109C154.543,273.15,156.051,275.213,155.019,276.507Zm5.2,3.1c-1.629,1.616-3.215-.809-1.842-2.3C159.854,275.7,161.648,278.189,160.216,279.608Z" transform="translate(-150.437 -270.495)" fill="#ffa53e"/>
                  </g>
                </g>
                <g id="Grupo_1112693" data-name="Grupo 1112693" transform="translate(0.919 2.94)">
                  <path id="Trazado_901754" data-name="Trazado 901754" d="M152.849,275.9c-1,2.239-1.264,5.461.446,7.46a6.232,6.232,0,0,0,7.876.914c.448-.312.022-1.053-.431-.737-2.062,1.438-5.484,1.113-6.989-1-1.234-1.729-.98-4.373-.164-6.21.221-.5-.515-.934-.738-.43Z" transform="translate(-152.057 -275.678)" fill="#ffb448"/>
                </g>
              </g>
            </g>
            <g id="Grupo_1112724" data-name="Grupo 1112724" transform="translate(68.271 116.258)">
              <g id="Grupo_1112721" data-name="Grupo 1112721" transform="translate(3.423)">
                <g id="Grupo_1112699" data-name="Grupo 1112699" transform="translate(42.598 14.192)">
                  <path id="Trazado_901755" data-name="Trazado 901755" d="M268.226,363.581c1.891,3.993,3.574,9.495,2.59,13.92l8.016-1.115c.274-5.658-3.312-11.915-7.993-14.831Z" transform="translate(-212.193 -310.725)" fill="#7f3101"/>
                  <path id="Trazado_901756" data-name="Trazado 901756" d="M280.729,386.968c.893-1.184-5.939-1.737-8.016,1.115C271.618,389.586,279.467,388.639,280.729,386.968Z" transform="translate(-214.09 -321.307)" fill="#aa681a"/>
                  <path id="Trazado_901757" data-name="Trazado 901757" d="M231.241,325.577c4.8,2.852,10.525-2.705,1.766-23.2a61.5,61.5,0,0,0-10.372-16.338c-11.082-13.109-39.185-21.926-50.047-3.934-4.467,7.652-4.055,14.991.391,22.666,4.747,8.237,14.171,9.937,23.006,11.422,6.626,1.116,13.145,1.871,18.541,6.244a12.142,12.142,0,0,1,3.592,5.318c.559,1.4,1.341,3.328,2.553,4.062,2.675,1.623,4.5-1.387,4.735-3.666a3.189,3.189,0,0,0,4.264,1.589A3.4,3.4,0,0,0,231.241,325.577Z" transform="translate(-169.435 -271.938)" fill="#57517a"/>
                  <path id="Trazado_901758" data-name="Trazado 901758" d="M172.979,304.768a17.645,17.645,0,0,0,5.026,5.561c3.872-5.507,14.142-7.643,19.2-3.6,1.3-4.669,5.422-5.929,9.884-4.924a20.4,20.4,0,0,1,11.516,7.392c3.679-5.041,10.3-2.8,13.6,1.413a27.187,27.187,0,0,1,5.061,11.875c.842-3.641.023-10.091-4.26-20.114a61.5,61.5,0,0,0-10.372-16.338c-11.082-13.109-39.185-21.926-50.047-3.934C168.122,289.754,168.534,297.093,172.979,304.768Z" transform="translate(-169.435 -271.938)" fill="#4b4077"/>
                  <g id="Grupo_1112698" data-name="Grupo 1112698" transform="translate(15.072 12.495)">
                    <g id="Grupo_1112696" data-name="Grupo 1112696" transform="translate(2.241)">
                      <path id="Trazado_901759" data-name="Trazado 901759" d="M244.1,332.186c-.816-5.391-3.436-10.211-6.564-14.6A66.451,66.451,0,0,0,227.052,305.8a51.151,51.151,0,0,0-26.54-11.824c-.576-.077-.788.807-.208.885a50.692,50.692,0,0,1,25.6,11.156,63.91,63.91,0,0,1,10.155,11.079c3.353,4.47,6.288,9.52,7.136,15.118.088.573.995.552.909-.025Z" transform="translate(-199.96 -293.968)" fill="#382b60"/>
                    </g>
                    <g id="Grupo_1112697" data-name="Grupo 1112697" transform="translate(0 17.047)">
                      <path id="Trazado_901760" data-name="Trazado 901760" d="M237.127,349.645c-.964-3.673-3.551-6.687-6.225-9.269a56.034,56.034,0,0,0-9.614-7.38c-7.557-4.622-16.319-6.554-24.74-8.954-.564-.16-.77.725-.209.884,8.136,2.318,16.469,4.216,23.865,8.481a55.165,55.165,0,0,1,9.3,6.906c2.879,2.6,5.748,5.754,6.755,9.6.149.567,1.018.3.868-.266Z" transform="translate(-196.008 -324.023)" fill="#382b60"/>
                    </g>
                  </g>
                </g>
                <g id="Grupo_1112703" data-name="Grupo 1112703" transform="translate(12.71 11.181)">
                  <path id="Trazado_901761" data-name="Trazado 901761" d="M136.351,282.821c-.639-4.369-.639-10.125,1.6-14.067l-7.993-1.279c-1.918,5.328-.32,12.362,3.3,16.519Z" transform="translate(-122.106 -266.995)" fill="#7f3101"/>
                  <path id="Trazado_901762" data-name="Trazado 901762" d="M130.467,267.109c-1.2.869,5.172,3.4,7.993,1.279C139.947,267.271,132.164,265.878,130.467,267.109Z" transform="translate(-122.617 -266.628)" fill="#aa681a"/>
                  <path id="Trazado_901763" data-name="Trazado 901763" d="M125.694,287.3c-3.757-4.134-10.857-.493-8.477,21.671a61.493,61.493,0,0,0,5.134,18.658c6.761,15.777,31.054,32.432,46.705,18.408,6.512-6.011,8.265-13.149,6.262-21.787-2.129-9.267-10.644-13.65-18.657-17.656-6.01-3.006-12.02-5.636-15.9-11.395a12.14,12.14,0,0,1-1.878-6.136c-.125-1.5-.309-3.576-1.253-4.633-2.082-2.335-4.709.011-5.6,2.121a3.19,3.19,0,0,0-3.611-2.767A3.4,3.4,0,0,0,125.694,287.3Z" transform="translate(-116.739 -273.914)" fill="#ffb047"/>
                  <path id="Trazado_901764" data-name="Trazado 901764" d="M175.317,328.091a17.68,17.68,0,0,0-3.179-6.789c-5.315,4.133-15.762,3.169-19.413-2.18-2.609,4.084-6.921,4.084-10.891,1.815a20.391,20.391,0,0,1-8.849-10.439c-4.992,3.745-10.665-.339-12.593-5.332a27.209,27.209,0,0,1-1.365-12.835c-1.87,3.238-2.974,9.643-1.81,20.481a61.494,61.494,0,0,0,5.134,18.658c6.761,15.777,31.054,32.432,46.705,18.408C175.567,343.867,177.32,336.73,175.317,328.091Z" transform="translate(-116.739 -277.753)" fill="#eb9532"/>
                  <g id="Grupo_1112702" data-name="Grupo 1112702" transform="translate(8.168 13.135)">
                    <g id="Grupo_1112700" data-name="Grupo 1112700" transform="translate(0 2.825)">
                      <path id="Trazado_901765" data-name="Trazado 901765" d="M131.405,295.1c-.8,5.393.3,10.77,2,15.883a66.446,66.446,0,0,0,6.58,14.341,51.144,51.144,0,0,0,21.918,19.073c.529.242.99-.54.458-.784a50.709,50.709,0,0,1-21.214-18.161,63.885,63.885,0,0,1-6.469-13.565c-1.9-5.256-3.228-10.943-2.4-16.546.085-.573-.79-.818-.875-.242Z" transform="translate(-131.14 -294.767)" fill="#e47b05"/>
                    </g>
                    <g id="Grupo_1112701" data-name="Grupo 1112701" transform="translate(6.592)">
                      <path id="Trazado_901766" data-name="Trazado 901766" d="M142.773,290.224c-.155,3.794,1.438,7.433,3.241,10.685a56.05,56.05,0,0,0,7.033,9.87c5.874,6.633,13.687,11.044,21.036,15.8.493.318.947-.467.459-.784-7.1-4.6-14.514-8.852-20.339-15.093a55.15,55.15,0,0,1-6.871-9.326c-1.992-3.333-3.813-7.183-3.652-11.154.025-.586-.883-.583-.907,0Z" transform="translate(-142.763 -289.786)" fill="#e47b05"/>
                    </g>
                  </g>
                </g>
                <g id="Grupo_1112704" data-name="Grupo 1112704" transform="translate(0 46.604)">
                  <path id="Trazado_901767" data-name="Trazado 901767" d="M124.471,330.17c-4.611-1.687-9.591-.638-12.454,3.568a28.951,28.951,0,0,0-2.142,3.974c-4.2-1.665-10.434-.293-13.023,2.673-4.784,5.669-1.96,13.922,1.851,19.109,5.76,7.749,19.552,13.709,25.536,2.79,10.439,3.459,13.056-14.721,11.179-19.647C133.422,337.365,129.865,332.127,124.471,330.17Z" transform="translate(-94.33 -329.22)" fill="#17a55e"/>
                  <path id="Trazado_901768" data-name="Trazado 901768" d="M121.033,338.275c1.632-.939,1.481,1.632,1.16,2.349a9.463,9.463,0,0,1-3.459,4.059,5.709,5.709,0,0,1-5.42.658c-.856-.294-3.306-1.137-1.841-2.623,1.246-1.265,5.488.315,6.252-.108S119.77,339,121.033,338.275Z" transform="translate(-101.552 -332.973)" fill="#058f44"/>
                  <path id="Trazado_901769" data-name="Trazado 901769" d="M122.96,359.459c-2.885-1.2-6.723-3.954-6.939-7.343-1.3,1.3-1.987,2.779-3.839,3.559a10.249,10.249,0,0,1-7.743.611c-3.628-1.436-5.976-5.108-6.716-8.967a7.175,7.175,0,0,0-.871.821c-4.784,5.669-1.96,13.922,1.851,19.109,5.76,7.749,19.552,13.709,25.536,2.79,6.9,2.287,10.385-4.885,11.409-11.433-.5.236-1.012.457-1.551.652A15.358,15.358,0,0,1,122.96,359.459Z" transform="translate(-94.33 -336.975)" fill="#058f44"/>
                  <path id="Trazado_901770" data-name="Trazado 901770" d="M117.695,340.491c-.275-2.949-3.412-5.925-5.448-7.769a5.026,5.026,0,0,1,3.224-3.64A12.9,12.9,0,0,1,119.3,339.9Z" transform="translate(-102.085 -329.082)" fill="#7f3101"/>
                </g>
                <g id="Grupo_1112705" data-name="Grupo 1112705" transform="translate(82.617 28.075)">
                  <path id="Trazado_901771" data-name="Trazado 901771" d="M275.054,305.667c-3.8-3.108-8.846-3.754-12.934-.724a29.1,29.1,0,0,0-3.328,3.048c-3.418-2.953-9.758-3.709-13.179-1.758-6.381,3.781-6.429,12.5-4.537,18.655,2.894,9.21,13.958,19.375,23.2,11.031,8.721,6.7,17.171-9.609,17.016-14.881C281.144,315.406,279.5,309.291,275.054,305.667Z" transform="translate(-239.992 -299.254)" fill="#e05b2e"/>
                  <path id="Trazado_901772" data-name="Trazado 901772" d="M272.947,308.762c1.851-.35.863,2.03.322,2.6a9.453,9.453,0,0,1-4.6,2.694,5.711,5.711,0,0,1-5.334-1.16c-.712-.56-2.748-2.16-.876-3.083,1.592-.786,5.08,2.1,5.94,1.953S271.516,309.032,272.947,308.762Z" transform="translate(-249.382 -301.743)" fill="#b6300d"/>
                  <path id="Trazado_901773" data-name="Trazado 901773" d="M266.547,327.62c-2.331-2.078-5.049-5.945-4.138-9.215-1.653.8-2.79,1.969-4.8,2.1a10.246,10.246,0,0,1-7.513-1.968c-2.953-2.548-3.965-6.787-3.393-10.678a6.866,6.866,0,0,0-1.093.489c-6.381,3.781-6.429,12.5-4.537,18.655,2.894,9.21,13.958,19.375,23.2,11.031,5.766,4.429,11.413-1.2,14.533-7.046q-.818.092-1.679.107A15.352,15.352,0,0,1,266.547,327.62Z" transform="translate(-239.991 -301.367)" fill="#b6300d"/>
                  <path id="Trazado_901774" data-name="Trazado 901774" d="M269.578,307.927c.71-2.875-1.274-6.717-2.591-9.126a5.03,5.03,0,0,1,4.243-2.379,12.909,12.909,0,0,1,.056,11.476Z" transform="translate(-251.675 -296.414)" fill="#7f3101"/>
                </g>
                <g id="Grupo_1112712" data-name="Grupo 1112712" transform="translate(42.452 34.594)">
                  <path id="Trazado_901775" data-name="Trazado 901775" d="M182.1,316.146c-.863-.738-4.084-2.61-3.857-3.971.227-1.928,3.857,0,4.766.568-.114-.568-1.021-2.723-.568-3.291,1.135-1.248,3.177,1.816,3.745,2.61.34-1.929,4.2-6.354,4.992-2.837.454,2.042-1.864,4.37-.567,6.352,1.928,2.951,22.236,5.435,24.505,17.807s-10.269,30.639-33.526,21.677-7.77-27.117-1.985-31.882S183.241,317.12,182.1,316.146Z" transform="translate(-169.177 -307.908)" fill="#caddd3"/>
                  <path id="Trazado_901776" data-name="Trazado 901776" d="M222.026,333.384c-2.269-12.372-22.577-14.856-24.505-17.807-1.3-1.982,1.022-4.309.567-6.352-.795-3.517-4.653.908-4.992,2.837-.568-.794-2.61-3.858-3.745-2.61-.453.568.454,2.722.568,3.291-.908-.568-4.538-2.5-4.766-.568-.227,1.362,2.995,3.233,3.857,3.971,1.112.95,3.184,2.209-2.1,6.7-.318,3.029-1.47,6.04-1.036,8.986.453,3.177,3.63,4.992,6.693,4.992,2.949,0,4.992-1.928,7.489-3.177-.568,4.652,8.394,8.281,11.8,8.963a15.032,15.032,0,0,0,9.8-1.442A18.312,18.312,0,0,0,222.026,333.384Z" transform="translate(-176.087 -307.908)" fill="#dff3e8"/>
                  <g id="Grupo_1112711" data-name="Grupo 1112711" transform="translate(4.122 4.164)">
                    <g id="Grupo_1112706" data-name="Grupo 1112706" transform="translate(15.549)">
                      <path id="Trazado_901777" data-name="Trazado 901777" d="M203.919,315.466c-.741,6.093,5.509,9.112,10.11,11.315a24.819,24.819,0,0,1,8.248,5.668c2.935,3.274,4.734,7.8,3.206,12.114-.1.276.341.395.438.12,2.536-7.162-3.4-14.166-9.435-17.216-4.866-2.458-12.945-5.164-12.113-12,.036-.29-.419-.287-.454,0Z" transform="translate(-203.859 -315.249)" fill="#b2c6bd"/>
                    </g>
                    <g id="Grupo_1112707" data-name="Grupo 1112707" transform="translate(13.792 2.495)">
                      <path id="Trazado_901778" data-name="Trazado 901778" d="M200.763,319.866c.644,6.4,5.9,9.854,10.429,13.65a23.113,23.113,0,0,1,6.4,8.185,17.19,17.19,0,0,1,.316,13.049c-.1.276.341.395.437.12a17.915,17.915,0,0,0,.336-11.621,21.1,21.1,0,0,0-5.712-8.776c-4.623-4.342-11.044-7.6-11.748-14.608-.029-.289-.483-.292-.454,0Z" transform="translate(-200.762 -319.648)" fill="#b2c6bd"/>
                    </g>
                    <g id="Grupo_1112708" data-name="Grupo 1112708" transform="translate(12.205 4.537)">
                      <path id="Trazado_901779" data-name="Trazado 901779" d="M197.964,323.466c.44,6.59,3.608,12.432,6.523,18.214,1.437,2.851,2.877,5.751,4.038,8.726,1.235,3.158,1.944,6.735.134,9.817a.227.227,0,0,0,.392.229c3.13-5.329-.664-11.7-2.982-16.582-3.12-6.574-7.155-12.959-7.652-20.4-.02-.289-.474-.293-.454,0Z" transform="translate(-197.963 -323.248)" fill="#b2c6bd"/>
                    </g>
                    <g id="Grupo_1112709" data-name="Grupo 1112709" transform="translate(7.26 7.939)">
                      <path id="Trazado_901780" data-name="Trazado 901780" d="M193.283,329.466a15.529,15.529,0,0,1-1.2,5.016,52.364,52.364,0,0,0-1.511,5.032,39.309,39.309,0,0,0-1.323,10.156c.052,5.4,1.522,10.938,6.077,14.255.236.173.462-.221.229-.391-4.73-3.445-5.895-9.291-5.853-14.82a41.033,41.033,0,0,1,1.637-10.336c.79-2.941,2.326-5.829,2.4-8.912a.227.227,0,0,0-.454,0Z" transform="translate(-189.246 -329.247)" fill="#b2c6bd"/>
                    </g>
                    <g id="Grupo_1112710" data-name="Grupo 1112710" transform="translate(0 10.547)">
                      <path id="Trazado_901781" data-name="Trazado 901781" d="M185.732,333.952c-3.03,4.8-7.945,8.276-9.087,14.132-.953,4.887,1.607,9.263,5.765,11.705a.227.227,0,0,0,.23-.392c-4.524-2.657-6.669-7.342-5.259-12.458s6-8.412,8.743-12.759c.157-.248-.235-.476-.391-.227Z" transform="translate(-176.445 -333.845)" fill="#b2c6bd"/>
                    </g>
                  </g>
                </g>
                <g id="Grupo_1112719" data-name="Grupo 1112719" transform="translate(102.991)">
                  <path id="Trazado_901782" data-name="Trazado 901782" d="M298.126,318.323c-8.245-.915-8.509,10.665-7.6,16.791-6.352,2.383-7.26,9.19-5.444,14.75-7.49,1.206-12.367,32.262-6.7,34.017,4.764,1.475,18.181-14.653,21.556-22.445a10.093,10.093,0,0,0,.681-6.232,12.5,12.5,0,0,0,7.828-13.963,15.357,15.357,0,0,0,7.376-13.5C315.825,325.074,310.379,319.685,298.126,318.323Z" transform="translate(-275.912 -277.8)" fill="#ef8c3a"/>
                  <path id="Trazado_901783" data-name="Trazado 901783" d="M310.954,321.939c-1.85.1,10.539,7.482,15.53,6.916S323.106,321.265,310.954,321.939Z" transform="translate(-290.998 -279.367)" fill="#c15729"/>
                  <path id="Trazado_901784" data-name="Trazado 901784" d="M303.684,346.629c-.113,6.24-3.29,15.657-11.119,12.935a25.911,25.911,0,0,1-5.785,14.749c-2.339,2.9-6.317,4.694-9.682,2.291-1.762,8.618-1.733,17.857,1.286,18.792,4.764,1.475,18.181-14.653,21.557-22.445a10.093,10.093,0,0,0,.681-6.232,12.5,12.5,0,0,0,7.828-13.963,15.072,15.072,0,0,0,6.432-7.879A18.252,18.252,0,0,1,303.684,346.629Z" transform="translate(-275.913 -289.314)" fill="#c15729"/>
                  <g id="Grupo_1112713" data-name="Grupo 1112713" transform="translate(7.02 45.172)">
                    <path id="Trazado_901785" data-name="Trazado 901785" d="M301.853,377.48c-2.737-.242-5.991-.792-7.761-3.122-.261-.344-.854-.006-.587.345,1.941,2.555,5.328,3.192,8.348,3.457C302.29,378.2,302.286,377.517,301.853,377.48Z" transform="translate(-290.518 -347.184)" fill="#c15729"/>
                    <path id="Trazado_901786" data-name="Trazado 901786" d="M317.47,353.474c-4.549-.991-9.728-2.276-13.012-5.813-.3-.323-.779.161-.48.481,3.363,3.623,8.652,4.973,13.31,5.988C317.716,354.223,317.9,353.567,317.47,353.474Z" transform="translate(-295.039 -335.646)" fill="#c15729"/>
                    <path id="Trazado_901787" data-name="Trazado 901787" d="M316.314,331.658c.285.054.406-.383.12-.437-3.642-.678-7.16-1.838-9.77-4.594-.2-.213-.522.109-.322.321C309,329.758,312.592,330.967,316.314,331.658Z" transform="translate(-296.075 -326.558)" fill="#c15729"/>
                    <path id="Trazado_901788" data-name="Trazado 901788" d="M310.452,334.843c-.229-.178-.552.142-.322.321a11.442,11.442,0,0,0,5.833,2.335c.29.035.286-.419,0-.453A10.9,10.9,0,0,1,310.452,334.843Z" transform="translate(-297.708 -330.121)" fill="#c15729"/>
                    <path id="Trazado_901789" data-name="Trazado 901789" d="M306.747,360.7a9.871,9.871,0,0,1-4.459-3.207c-.163-.243-.555-.016-.391.226a10.211,10.211,0,0,0,4.62,3.372C306.783,361.208,307.012,360.815,306.747,360.7Z" transform="translate(-294.163 -339.901)" fill="#c15729"/>
                    <path id="Trazado_901790" data-name="Trazado 901790" d="M293.725,387.861a7,7,0,0,1-5.059-2.429c-.187-.226-.507.1-.32.32a7.449,7.449,0,0,0,5.379,2.564C294.017,388.336,294.015,387.881,293.725,387.861Z" transform="translate(-288.29 -352.006)" fill="#c15729"/>
                  </g>
                  <g id="Grupo_1112718" data-name="Grupo 1112718" transform="translate(8.941)">
                    <path id="Trazado_901791" data-name="Trazado 901791" d="M336.28,296.977c0-2.812.447-6.14,2.276-8.55.538-.714,1.384-1.964,2.457-1.562.715.222,1.028,1.115,1.429,1.65.534-.847.8-1.875,1.429-2.767a14.388,14.388,0,0,1,4.24-3.973c.849-.491,3.261-1.919,4.2-1.027.581.536.134,1.249.044,1.83,1.831-2.009,5.67-2.768,8.261-2.9,1.428-.045,6.742.715,6.025,3.215-.446,1.652-2.945,2.767-4.33,3.482-2.009,1.071-4.375,1.7-6.339,2.813.939.178,2.768.357,3.215,1.384.445,1.071-1.473,1.7-2.231,1.919a18.234,18.234,0,0,1-7.9.8,1.383,1.383,0,0,1,1.115.848c.357.8-.112,1.244-.76,1.607C344.628,298.427,337.172,297.066,336.28,296.977Z" transform="translate(-310.981 -261.094)" fill="#0b9b77"/>
                    <path id="Trazado_901792" data-name="Trazado 901792" d="M329.833,278.327c-1.027-2.767-2.512-6.045-2.688-9.081-.045-.981.088-2.722,1.427-2.678a3.7,3.7,0,0,1,1.743.938c0-2.9-1.178-7.19.312-9.823,1.919-3.393,4.018-.18,4.018-.18,1.25-3.615,3.3-7.544,6.742-9.374,1.074-.573,2.948-1.518,4.2-1.116,3.171,1.028-2.857,9.779-4.107,11.073.8-.491,2.768-1.339,3.7-.715.982.626-.221,2.1-.67,2.724a21.7,21.7,0,0,1-6.7,6.207c1.162,0,2.992-.715,3.26.938.223,1.651-1.786,3.572-2.858,4.555C336.119,273.668,332.022,276.675,329.833,278.327Z" transform="translate(-307.024 -246.916)" fill="#5acfa5"/>
                    <path id="Trazado_901793" data-name="Trazado 901793" d="M309.913,288.443a52.637,52.637,0,0,0,1.122-11.926c.01-4.421-.977-7.5-3.838-3.171-.447-2.411-1.782-7.279-3.126-7.815-2.037-.812-1.829,1.521-1.829,2.725-1.607-2.678-6.7-3.393-9.332-2.1a1.85,1.85,0,0,0-.224,3.393c3.036,1.965,8.886,4.555,9.465,5.269-1.116.715-6.609,1.831-5.76,3.974.492,1.16,7.1.849,8.172,1.339-1.653.893-6.027,3.325-2.768,4.841C304.206,286.091,307.688,285.805,309.913,288.443Z" transform="translate(-291.676 -254.9)" fill="#0b9b77"/>
                    <g id="Grupo_1112717" data-name="Grupo 1112717" transform="translate(8.718 8.636)">
                      <g id="Grupo_1112714" data-name="Grupo 1112714" transform="translate(9.538 16.003)">
                        <path id="Trazado_901794" data-name="Trazado 901794" d="M324.762,312.036a30.81,30.81,0,0,1,9.483-13.61c4.346-3.762,9.823-6.632,15.607-7.158.577-.054.583-.963,0-.909-5.845.534-11.208,3.3-15.7,6.967a31.546,31.546,0,0,0-10.26,14.468c-.178.558.7.8.875.242Z" transform="translate(-323.863 -290.356)" fill="#058f44"/>
                      </g>
                      <g id="Grupo_1112715" data-name="Grupo 1112715" transform="translate(0 6.491)">
                        <path id="Trazado_901795" data-name="Trazado 901795" d="M315.782,303.074c3.522-10.12.129-22.369-7.944-29.372-.441-.381-1.084.257-.642.642a27.061,27.061,0,0,1,7.711,28.489c-.193.554.685.79.875.241Z" transform="translate(-307.047 -273.585)" fill="#058f44"/>
                      </g>
                      <g id="Grupo_1112716" data-name="Grupo 1112716" transform="translate(9.418)">
                        <path id="Trazado_901796" data-name="Trazado 901796" d="M324.556,296.76c2.015-5.569,3.984-11.155,6.021-16.714,2.109-5.756,4.065-11.693,6.753-17.212.255-.525-.528-.985-.783-.459a182.41,182.41,0,0,0-6.748,17.165c-2.073,5.646-4.074,11.32-6.12,16.979-.2.551.679.787.876.241Z" transform="translate(-323.652 -262.142)" fill="#058f44"/>
                      </g>
                    </g>
                  </g>
                </g>
                <g id="Grupo_1112720" data-name="Grupo 1112720" transform="translate(79.006 54.65)">
                  <path id="Trazado_901797" data-name="Trazado 901797" d="M271.9,356.334c-2.645-4.137-7.241-6.32-12.069-4.712a28.913,28.913,0,0,0-4.112,1.863c-2.329-3.87-8.12-6.558-11.978-5.77-7.241,1.609-10,9.884-10.113,16.32-.115,9.654,7.24,22.755,18.618,17.7,6.206,9.082,19.308-3.792,20.8-8.848C274.656,367.483,275,361.162,271.9,356.334Z" transform="translate(-233.626 -345.134)" fill="#17a55e"/>
                  <path id="Trazado_901798" data-name="Trazado 901798" d="M272.822,355.991c1.867.244.188,2.2-.5,2.575a9.485,9.485,0,0,1-5.21,1.13,5.711,5.711,0,0,1-4.708-2.764c-.5-.753-1.941-2.908.125-3.2,1.758-.251,4.172,3.577,5.037,3.7S271.379,355.8,272.822,355.991Z" transform="translate(-245.666 -347.792)" fill="#058f44"/>
                  <path id="Trazado_901799" data-name="Trazado 901799" d="M257.642,372.554c-1.569-2.7-2.95-7.219-1.066-10.045-1.822.252-3.266,1.005-5.212.5a10.258,10.258,0,0,1-6.529-4.206c-2.015-3.342-1.656-7.684.1-11.2a6.956,6.956,0,0,0-1.192.124c-7.241,1.609-10,9.884-10.113,16.32-.115,9.654,7.24,22.755,18.618,17.7,4.1,6,11.221,2.411,16-2.176-.539-.112-1.081-.25-1.63-.42A15.352,15.352,0,0,1,257.642,372.554Z" transform="translate(-233.626 -345.144)" fill="#058f44"/>
                  <path id="Trazado_901800" data-name="Trazado 901800" d="M269.548,353.98c1.57-2.513.88-6.782.378-9.481a5.026,5.026,0,0,1,4.77-.942,12.9,12.9,0,0,1-3.515,10.924Z" transform="translate(-249.173 -343.269)" fill="#7f3101"/>
                </g>
              </g>
              <g id="Grupo_1112723" data-name="Grupo 1112723" transform="translate(0 64.068)">
                <path id="Trazado_901801" data-name="Trazado 901801" d="M234.51,368.755s7.549,71.541-66.866,74.472S98.6,376.947,98.6,376.947,163.115,389.413,234.51,368.755Z" transform="translate(-92.717 -363.717)" fill="#7f3101"/>
                <path id="Trazado_901802" data-name="Trazado 901802" d="M238.543,413.3a100.09,100.09,0,0,0,5.507-35.665,297.05,297.05,0,0,0,42.21-8.876s7.549,71.541-66.866,74.472c-.446.018-.875.02-1.315.035A65.754,65.754,0,0,0,238.543,413.3Z" transform="translate(-144.467 -363.717)" fill="#e47b05" opacity="0.4"/>
                <path id="Trazado_901803" data-name="Trazado 901803" d="M103.936,380.167c-.948-.143-1.748-.272-2.366-.374a217.937,217.937,0,0,0,12.261,20.857c-2.9,3.065-5.958,5.975-9.134,8.748.237.623.486,1.242.748,1.866q4.956-4.278,9.481-9a151.981,151.981,0,0,0,17.783,21.633q1.495,1.5,3.039,2.941a89.188,89.188,0,0,1-10.347,8.945q.852.559,1.738,1.091a92.247,92.247,0,0,0,10.011-8.749,161.481,161.481,0,0,0,23.5,17.673c1.411.052,2.844.078,4.321.073a298.508,298.508,0,0,0,16.364-25.239c.142-.248.285-.5.429-.743q13.516,7.442,27.721,13.509c-.094.216-.2.428-.291.644,1.051-.711,2.059-1.449,3.03-2.206a198.289,198.289,0,0,0,9.066-26.818c2.9,1.078,5.822,2.079,8.757,3.042q.37-.887.711-1.773c-3.016-.988-6.02-2.014-9-3.126a211.482,211.482,0,0,0,4.528-23.843q4.753,1.721,9.555,3.278c.047-.686.082-1.338.112-1.975q-4.734-1.55-9.415-3.251c.067-.551.15-1.1.214-1.653a.961.961,0,0,0-1.905-.25c-.048.408-.109.815-.158,1.223-1.3-.483-2.6-.982-3.9-1.477q-1.694.391-3.372.759c2.331.908,4.669,1.8,7.016,2.666a210.35,210.35,0,0,1-4.484,23.833A231.578,231.578,0,0,1,196,391.714a111.771,111.771,0,0,0,4.168-12.5c-.695.109-1.382.214-2.072.318a110.455,110.455,0,0,1-3.78,11.288c-5.26-2.785-10.393-5.792-15.4-8.969-1.046.095-2.09.185-3.123.268q8.653,5.625,17.809,10.483a205.65,205.65,0,0,1-12.562,24.749q-6.334-3.548-12.47-7.438c-4.005-2.547-8.059-5.209-12.062-8.008a186.558,186.558,0,0,0,9.284-19.127c-.713.036-1.425.071-2.13.1a183.428,183.428,0,0,1-8.73,17.92,141.367,141.367,0,0,1-20.983-17.883c-.916-.04-1.813-.081-2.7-.126A139.843,139.843,0,0,0,153.967,402.5a119.987,119.987,0,0,1-16.906,22.973c-1.069-1.012-2.126-2.04-3.162-3.093a156.647,156.647,0,0,1-17.6-21.58,137.546,137.546,0,0,0,14.044-18.052c-.755-.041-1.5-.082-2.228-.127a135.06,135.06,0,0,1-12.906,16.564A215.326,215.326,0,0,1,103.936,380.167ZM182.7,418.274A212.953,212.953,0,0,0,195.286,393.5a234.121,234.121,0,0,0,24.2,10.828,196.142,196.142,0,0,1-9.255,27.334A304.994,304.994,0,0,1,182.7,418.274Zm-44.241,8.5a122.074,122.074,0,0,0,17.08-23.169c3.922,2.742,7.9,5.345,11.839,7.826q6.268,3.934,12.721,7.536-.267.459-.533.913a300.25,300.25,0,0,1-16.435,25.248A156.7,156.7,0,0,1,138.458,426.77Z" transform="translate(-94.041 -366.271)" fill="#661301"/>
                <g id="Grupo_1112722" data-name="Grupo 1112722">
                  <path id="Trazado_901804" data-name="Trazado 901804" d="M92.184,367.83c-2.268-.567-6.554,8.859-1.592,12.022s27.316,8.427,71.957,4.488,67.644-11.584,71.055-13.517,2.373-12.766-6.061-10.685-27.361,9.514-65.048,11.67S99.537,369.667,92.184,367.83Z" transform="translate(-88.295 -359.873)" fill="#661301"/>
                  <path id="Trazado_901805" data-name="Trazado 901805" d="M257.255,360.137c-8.435,2.081-27.361,9.514-65.048,11.67a342.5,342.5,0,0,1-35.264.247c2.146.618,4.3,1.19,6.46,1.672,12.18,2.4,23.914,2.958,36.425,2.771,15.236.37,30.345-1.594,45.807-1.353,1.422.021,2.816.054,4.189.1,7.673-1.98,12.136-3.652,13.492-4.421C266.727,368.887,265.689,358.057,257.255,360.137Z" transform="translate(-118.007 -359.873)" fill="#7f3101"/>
                </g>
              </g>
            </g>
            <g id="Grupo_1112736" data-name="Grupo 1112736" transform="translate(0 95.29)">
              <g id="Grupo_1112725" data-name="Grupo 1112725" transform="translate(0)">
                <path id="Trazado_901806" data-name="Trazado 901806" d="M49.731,209.949c-16.563-.331-69.537,68.179-68.3,101.592.245,6.61,39.722,13.707,47.4,3.671S86.45,210.684,49.731,209.949Z" transform="translate(26.237 -209.948)" fill="#e05b2e"/>
                <path id="Trazado_901807" data-name="Trazado 901807" d="M63.1,226.626q.408-.919.812-1.842a28.47,28.47,0,0,0-.375-3.349q-.669,1.537-1.344,3.069c-.167.378-.332.758-.5,1.137q-1.555-1.065-3.162-2.069,1.757-3.51,3.481-7.039a12.62,12.62,0,0,0-1.048-1.729q-1.932,3.947-3.9,7.879-3.533-2.136-7.2-4.036,2.866-3.942,5.9-7.777a13.132,13.132,0,0,0-1.712-.506q-2.912,3.713-5.679,7.527-1.809-.917-3.637-1.8c.831-.989,1.664-1.975,2.51-2.951.919-1.061,1.858-2.105,2.8-3.15a10.348,10.348,0,0,0-2.873.679q-2.036,2.308-4.025,4.659c-.77-.362-1.544-.714-2.316-1.069-.518.371-1.044.757-1.58,1.17.915.421,1.83.839,2.741,1.268C37.085,222.6,32.4,228.7,27.884,234.91q-3.271-.866-6.579-1.608-.614.724-1.227,1.463,3.39.745,6.743,1.616c-4.37,6.059-8.594,12.22-12.728,18.413q-1.442,2.161-2.855,4.341c-3.083.1-6.16.329-9.23.644q-.582.929-1.153,1.862c3.068-.336,6.144-.579,9.225-.71-4.413,6.877-8.61,13.9-12.478,21.085-2.652.157-5.3.39-7.947.67q-.4.9-.785,1.8c2.595-.29,5.192-.531,7.791-.7A220.082,220.082,0,0,0-16.485,313.53a9.615,9.615,0,0,0,1.514,1.08A220.56,220.56,0,0,1-1.345,283.664q6.874-.366,13.75-.164C7.927,294.066,3.816,304.792-.048,315.555c-.406,1.13-.8,2.265-1.2,3.4q.845.154,1.707.292c4.258-12,8.769-23.949,13.744-35.685q5.04.2,10.065.706c-6.575,11.853-13.2,23.674-19.793,35.516.618.066,1.236.129,1.855.182,6.586-11.835,13.212-23.65,19.78-35.5q4.256.481,8.489,1.183c-5.793,11.7-11.955,23.22-18.575,34.472.7-.044,1.4-.1,2.071-.175q9.748-16.653,18.262-34,4.252.756,8.472,1.744.375-.787.753-1.584-4.2-.989-8.44-1.761,2.86-5.834,5.609-11.72,1.785-3.823,3.5-7.677c2.546.663,5.079,1.379,7.611,2.107q.342-.868.678-1.737c-1.614-.481-3.23-.955-4.853-1.4q-1.325-.368-2.658-.707c2.472-5.574,4.876-11.174,7.3-16.768q2.871,1.4,5.677,2.944c.166-.564.33-1.127.487-1.686q-2.712-1.48-5.481-2.83,1.771-4.076,3.573-8.137c1.267-2.842,2.546-5.68,3.816-8.524.508.365,1,.747,1.5,1.122.039-.7.065-1.384.072-2.054C63.678,227.061,63.4,226.837,63.1,226.626Zm-14.263-6.561c2.433,1.259,4.837,2.574,7.2,3.976.09.053.178.11.268.164q-4.353,8.663-8.854,17.252c-3.344-1.383-6.743-2.628-10.183-3.763Q42.707,228.671,48.837,220.066Zm-2.188,22.913q-4.756,9.061-9.633,18.058-4.57-.818-9.19-1.324-1.267-.136-2.535-.241,5.186-10.337,11.068-20.284C39.836,240.329,43.271,241.585,46.649,242.979ZM43.6,217.463q1.888.907,3.754,1.85-6.2,8.694-11.685,17.86c-1.972-.628-3.954-1.229-5.952-1.782C34.169,229.281,38.765,223.28,43.6,217.463Zm-20.14,26.682q2.567-3.658,5.186-7.28,3.082.841,6.124,1.8-6,10.114-11.252,20.676-5.1-.35-10.214-.255C16.6,254.047,20,249.074,23.457,244.144ZM13.122,281.812q-6.761-.223-13.53.1,1.974-3.65,4.058-7.243c2.717-4.673,5.568-9.268,8.5-13.808q5.254-.139,10.525.158Q17.615,271.266,13.122,281.812Zm12.047.829q-5.11-.539-10.243-.767,4.5-10.507,9.543-20.744c.854.062,1.706.132,2.56.213,3.08.29,6.111.748,9.113,1.312Q30.707,272.675,25.169,282.641Zm10.215,1.4q-4.174-.71-8.372-1.2Q32.5,272.941,37.9,263c2.242.455,4.467.974,6.683,1.531Q40.136,274.356,35.384,284.045Zm11.129-23.779c-.376.847-.767,1.688-1.147,2.534-2.183-.531-4.377-1.016-6.583-1.44q4.777-8.829,9.444-17.712,2.354,1,4.67,2.1Q49.725,253.019,46.514,260.266Zm7.069-16.082q-2.262-1.069-4.559-2.053,4.437-8.482,8.739-17.034,1.645,1.028,3.237,2.126Q57.272,235.695,53.582,244.184Z" transform="translate(25.326 -209.968)" fill="#b6300d" opacity="0.3"/>
                <path id="Trazado_901808" data-name="Trazado 901808" d="M18.681,396.505s10.659-4.475,6.308-19.374-37.576-20.021-47.156-15.868-4.2,9.783-4.2,9.783-9.3,10.035-4.161,20.562S-.658,406.053,18.681,396.505Z" transform="translate(32.073 -274.838)" fill="#b6300d"/>
              </g>
              <g id="Grupo_1112735" data-name="Grupo 1112735" transform="translate(3.403 100.422)">
                <path id="Trazado_901809" data-name="Trazado 901809" d="M43.056,418.379a16.692,16.692,0,0,1,6.925-18.292c2.132-1.42,16.339-6.67,14.741-.355-.909,3.6-7.459,4.8-9.768,7.457-2.487,3.02-3.906,7.815-2.841,11.366,5.86-6.747,21.727-10.12,28.853-3.462,1.2,1.117,3.019,4.084,1.776,5.505-1.066,1.243-6.833.443-8.254.443-5.328,0-11.01-.178-14.739,4.084,10.209-1.315,25.04-.416,22.731,5.4-1.789,4.505-15.8,1.884-21.843,4.9,3.4,2.664,11.9,1.777,15.45,2.131,8.17.89,3.426,6.645-4.617,7.282-11.041.876-21.969.5-28.895-8.731-47.492,10.771-78.826-20.762-65.607-38.143S17.606,387.927,19,392.648C26.054,416.535,43.056,418.379,43.056,418.379Z" transform="translate(26.073 -387.001)" fill="#ffa17b"/>
                <g id="Grupo_1112726" data-name="Grupo 1112726" transform="translate(40.563 2.415)" opacity="0.4">
                  <path id="Trazado_901810" data-name="Trazado 901810" d="M55.518,415.82c5.216,4.425,14.223,9.482,21.335,9.323a26.532,26.532,0,0,1-2.844-4.921c-3.177-.471-17.672-4.112-24.057-25.732-.31-1.048-1.906-2.224-4.34-3.232C44.455,400.142,49.371,410.81,55.518,415.82Z" transform="translate(-45.442 -391.259)" fill="#cf6e4b"/>
                </g>
                <g id="Grupo_1112727" data-name="Grupo 1112727" transform="translate(93.725 39.958)">
                  <path id="Trazado_901811" data-name="Trazado 901811" d="M139.218,457.859a3.992,3.992,0,0,0,.68,3.078c.344.432.944-.177.6-.6a3.274,3.274,0,0,1-.43-2.474c.057-.548-.8-.542-.855,0Z" transform="translate(-139.173 -457.45)" fill="#cf6e4b"/>
                </g>
                <g id="Grupo_1112728" data-name="Grupo 1112728" transform="translate(95.216 40.392)">
                  <path id="Trazado_901812" data-name="Trazado 901812" d="M141.815,458.748c.124.516.209,1.04.333,1.555.129.536.953.309.824-.227-.124-.516-.209-1.039-.334-1.555-.129-.535-.953-.308-.824.227Z" transform="translate(-141.801 -458.215)" fill="#cf6e4b"/>
                </g>
                <g id="Grupo_1112729" data-name="Grupo 1112729" transform="translate(95.325 52.949)">
                  <path id="Trazado_901813" data-name="Trazado 901813" d="M141.994,480.767a16.623,16.623,0,0,0,.111,2.222c.072.537.927.544.854,0a16.813,16.813,0,0,1-.111-2.222.427.427,0,0,0-.854,0Z" transform="translate(-141.994 -480.354)" fill="#cf6e4b"/>
                </g>
                <g id="Grupo_1112730" data-name="Grupo 1112730" transform="translate(96.546 53.837)">
                  <path id="Trazado_901814" data-name="Trazado 901814" d="M144.257,482.333c-.013.3-.093.589-.111.889-.033.551.822.547.855,0,.018-.3.1-.589.111-.889.024-.551-.831-.549-.855,0Z" transform="translate(-144.145 -481.921)" fill="#cf6e4b"/>
                </g>
                <g id="Grupo_1112731" data-name="Grupo 1112731" transform="translate(92.571 26.408)">
                  <path id="Trazado_901815" data-name="Trazado 901815" d="M137.227,433.969a5.971,5.971,0,0,0,.28,3.214c.227.5.963.066.738-.43a5.322,5.322,0,0,1-.164-2.783c.06-.547-.795-.542-.854,0Z" transform="translate(-137.139 -433.561)" fill="#cf6e4b"/>
                </g>
                <g id="Grupo_1112732" data-name="Grupo 1112732" transform="translate(94.041 26.616)">
                  <path id="Trazado_901816" data-name="Trazado 901816" d="M139.808,434.236a3.89,3.89,0,0,0,.111,2c.188.513,1.015.291.824-.226a3.011,3.011,0,0,1-.111-1.55c.083-.539-.739-.771-.824-.227Z" transform="translate(-139.73 -433.926)" fill="#cf6e4b"/>
                </g>
                <g id="Grupo_1112733" data-name="Grupo 1112733" transform="translate(75.453 14.509)">
                  <path id="Trazado_901817" data-name="Trazado 901817" d="M106.964,413.118a2.329,2.329,0,0,0,1.409,1.966c.516.2.737-.631.227-.825a1.59,1.59,0,0,1-.812-1.369c-.086-.543-.91-.311-.824.227Z" transform="translate(-106.958 -412.581)" fill="#cf6e4b"/>
                </g>
                <g id="Grupo_1112734" data-name="Grupo 1112734" transform="translate(76.533 14.087)">
                  <path id="Trazado_901818" data-name="Trazado 901818" d="M108.941,412.453a4.9,4.9,0,0,1,.334.89c.221.5.957.069.738-.431a4.49,4.49,0,0,0-.334-.889c-.32-.441-1.062-.015-.738.43Z" transform="translate(-108.861 -411.837)" fill="#cf6e4b"/>
                </g>
              </g>
            </g>
            <g id="Grupo_1112744" data-name="Grupo 1112744" transform="translate(185.931 197.93)">
              <path id="Trazado_901819" data-name="Trazado 901819" d="M315.439,445.3c-2.62,2.058-14.726,6.18-13.641.3,1.079-5.718,14.032-5.092,17.424-8.935C319.223,436.669,322.049,440.113,315.439,445.3Z" transform="translate(-298.332 -410.716)" fill="#ffa17b"/>
              <path id="Trazado_901820" data-name="Trazado 901820" d="M321.922,396.935c-.651-6.7-8.157-6.967-14.029-4.848-3.261,1.124-14.62,7.306-11.669,12.579,1.772,3.13,11.192-1.023,13.723-2.061,7.036-2.885,9.691,2.663,9.82,3.311A14.728,14.728,0,0,0,321.922,396.935Z" transform="translate(-295.74 -390.911)" fill="#ffa17b"/>
              <path id="Trazado_901821" data-name="Trazado 901821" d="M319.16,428.008c-7.608,5.207-22.965,3.35-18.592-2.211,2.357-3,6.653-2.4,10.893-3.419,5.2-1.25,7.811-2.545,10.062-5.013C321.524,417.365,324.762,424.175,319.16,428.008Z" transform="translate(-297.496 -402.361)" fill="#ffa17b"/>
              <g id="Grupo_1112743" data-name="Grupo 1112743" transform="translate(15.974 1.419)">
                <g id="Grupo_1112737" data-name="Grupo 1112737" transform="translate(2.89 0.105)">
                  <path id="Trazado_901822" data-name="Trazado 901822" d="M329.015,394.129a4.028,4.028,0,0,1,.111,2.106.428.428,0,0,0,.824.227,4.929,4.929,0,0,0-.111-2.56.428.428,0,0,0-.825.227Z" transform="translate(-328.997 -393.599)" fill="#cf6e4b"/>
                </g>
                <g id="Grupo_1112738" data-name="Grupo 1112738" transform="translate(3.883)">
                  <path id="Trazado_901823" data-name="Trazado 901823" d="M330.772,393.937c.118.369.214.744.333,1.111.168.524.994.3.824-.227-.119-.368-.214-.742-.333-1.111-.17-.523-.994-.3-.824.226Z" transform="translate(-330.749 -393.414)" fill="#cf6e4b"/>
                </g>
                <g id="Grupo_1112739" data-name="Grupo 1112739" transform="translate(2.794 20.661)">
                  <path id="Trazado_901824" data-name="Trazado 901824" d="M328.942,430.362a1.553,1.553,0,0,1-.068,1.226c-.231.5.5.931.737.432a2.431,2.431,0,0,0,.155-1.884c-.18-.517-1.006-.3-.825.226Z" transform="translate(-328.83 -429.842)" fill="#cf6e4b"/>
                </g>
                <g id="Grupo_1112740" data-name="Grupo 1112740" transform="translate(3.907 20.543)">
                  <path id="Trazado_901825" data-name="Trazado 901825" d="M330.9,430.161a1.708,1.708,0,0,1-.07,1.116c-.223.5.514.932.738.432a2.622,2.622,0,0,0,.154-1.773.427.427,0,0,0-.822.226Z" transform="translate(-330.792 -429.633)" fill="#cf6e4b"/>
                </g>
                <g id="Grupo_1112741" data-name="Grupo 1112741" transform="translate(0 29.653)">
                  <path id="Trazado_901826" data-name="Trazado 901826" d="M324.017,446.106a3.123,3.123,0,0,1-.1.887.428.428,0,0,0,.824.228,4,4,0,0,0,.126-1.115.428.428,0,0,0-.855,0Z" transform="translate(-323.903 -445.694)" fill="#cf6e4b"/>
                </g>
                <g id="Grupo_1112742" data-name="Grupo 1112742" transform="translate(1.223 29.434)">
                  <path id="Trazado_901827" data-name="Trazado 901827" d="M326.172,445.718c-.018.187-.092.365-.111.555-.051.548.8.544.855,0,.018-.187.092-.365.111-.555.052-.548-.8-.543-.855,0Z" transform="translate(-326.059 -445.308)" fill="#cf6e4b"/>
                </g>
              </g>
            </g>
            <g id="Grupo_1112756" data-name="Grupo 1112756" transform="translate(42.342)">
              <g id="Grupo_1112746" data-name="Grupo 1112746">
                <path id="Trazado_901828" data-name="Trazado 901828" d="M126.706,66.411s.769-20.5,20.826-24.116,37.446,21.9,37.446,21.9Z" transform="translate(-78.991 -41.943)" fill="#ffa53e"/>
                <path id="Trazado_901829" data-name="Trazado 901829" d="M198.972,61.461c-5.145-6.456-19.3-21.888-35.162-19.189a31.008,31.008,0,0,0,4.153,8.7C174.928,60.957,187.534,63.706,198.972,61.461Z" transform="translate(-95.05 -41.95)" fill="#ffb448"/>
                <path id="Trazado_901830" data-name="Trazado 901830" d="M127.659,72.007a27.188,27.188,0,0,0-.953,5.478l58.272-2.211a66.56,66.56,0,0,0-5.488-6.74C162.279,66.761,144.267,67,127.659,72.007Z" transform="translate(-78.991 -53.017)" fill="#c33507"/>
                <path id="Trazado_901831" data-name="Trazado 901831" d="M47.4,116.1c-7.553-10.716,15.131-22,24.479-25.669,16.34-6.266,33.737-7.838,50.907-8.758,12.071-.588,70.763,1.663,71.641,8.715,1.318,10.589-9.992,17.065-26.658,23.027C140.927,123.022,65.039,141.127,47.4,116.1Z" transform="translate(-44.011 -59.101)" fill="#e47b05"/>
                <path id="Trazado_901832" data-name="Trazado 901832" d="M70.449,87.938c16.34-6.266,33.737-7.838,50.907-8.758,12.071-.588,70.763,1.663,71.641,8.715a12.64,12.64,0,0,1-.019,3.308,11.9,11.9,0,0,0,1.07-6.738c-.877-7.052-60.7-9.16-73.006-8.542-17.5.963-35.243,2.576-51.913,8.884-9.537,3.7-32.69,15.035-25.016,25.734.243.34.5.669.767.993C41.28,101.472,61.7,91.373,70.449,87.938Z" transform="translate(-42.58 -56.606)" fill="#ffb448"/>
                <g id="Grupo_1112745" data-name="Grupo 1112745" transform="translate(53.924 3.516)">
                  <path id="Trazado_901833" data-name="Trazado 901833" d="M190.007,51.744c-.476-.238-.949-.479-1.419-.728-.012-.18-.027-.36-.057-.541-.066-.407-.684-.234-.618.17v0q-.587-.33-1.153-.7a9.6,9.6,0,0,0,.16-1.5.321.321,0,0,0-.641,0,8.879,8.879,0,0,1-.111,1.137.33.33,0,0,0-.218.6c.03.022.061.038.091.06a9.972,9.972,0,0,1-.431,1.386,11.9,11.9,0,0,1-1.056-.813c-.311-.268-.767.183-.454.453a12.87,12.87,0,0,0,1.259.951,12.462,12.462,0,0,1-.985,1.744c-.231.344.324.665.554.324a12.772,12.772,0,0,0,.981-1.734,12.871,12.871,0,0,0,1.7.868,9.132,9.132,0,0,1-.8,1.678.321.321,0,0,0,.554.324,9.583,9.583,0,0,0,.85-1.782c.3.107.59.218.9.306a.32.32,0,0,0,.17-.617c-.3-.086-.592-.195-.883-.3a6.568,6.568,0,0,0,.2-1.291c.361.187.723.37,1.086.552S190.377,51.93,190.007,51.744Zm-2.21,1.065a12.067,12.067,0,0,1-1.632-.838,10.563,10.563,0,0,0,.446-1.352q.667.42,1.358.795A5.623,5.623,0,0,1,187.8,52.809Z" transform="translate(-157.711 -48.141)" fill="#e47b05"/>
                  <path id="Trazado_901834" data-name="Trazado 901834" d="M144.957,58.411a9.835,9.835,0,0,1-1.488-.811c.2-.345.408-.687.629-1.023s-.328-.668-.554-.323c-.212.324-.412.655-.606.989q-.724-.516-1.4-1.094a.332.332,0,0,0-.42-.362c-.158-.137-.317-.272-.474-.408-.31-.271-.765.181-.453.454.159.139.32.277.48.416a13.428,13.428,0,0,0-1.465,1.943c-.376-.108-.755-.21-1.138-.3-.4-.094-.573.524-.17.617.326.076.649.163.97.252a15.13,15.13,0,0,0-1.195,2.762c-.126.395.493.563.618.17a14.364,14.364,0,0,1,1.2-2.749c.753.229,1.5.481,2.247.734-.182.445-.348.9-.493,1.357-.124.4.5.564.619.171.156-.5.343-.985.543-1.463a.341.341,0,0,0,.1-.218c.2-.462.423-.914.661-1.358a10.25,10.25,0,0,0,1.472.8C145.01,59.124,145.336,58.572,144.957,58.411Zm-2.965.681c-.716-.242-1.432-.484-2.153-.708a12.705,12.705,0,0,1,1.312-1.717q.713.6,1.475,1.141Q142.285,58.438,141.993,59.092Z" transform="translate(-137.653 -51.238)" fill="#e47b05"/>
                </g>
              </g>
              <g id="Grupo_1112748" data-name="Grupo 1112748" transform="translate(31.788 29.046)">
                <path id="Trazado_901835" data-name="Trazado 901835" d="M170.88,94.4s26.2,30.352,32.6,44.364c6.268,13.722-1.149,34.644-13.381,43.411-9.86,6.985-23.964,11.171-35.749,10.25-8.958-.538-28.61-5.1-28.522-27.887-22.3,3.367-28.188-13.487-27.076-20.847,1.061-7.728,8.257-13.821,11.85-20.572,3.139-5.953,6.159-15.779,5.65-22.753C116.253,100.361,144.526,89.571,170.88,94.4Z" transform="translate(-98.625 -93.154)" fill="#7f3101"/>
                <g id="Grupo_1112747" data-name="Grupo 1112747" transform="translate(11.289 8.02)" opacity="0.4">
                  <path id="Trazado_901836" data-name="Trazado 901836" d="M131.344,107.679c-.119-.583-1.04-.471-.92.116,2.6,12.626-2.227,23.888-7.659,35.014-2.658,5.443-7.976,16.444-.107,20.093.544.252.906-.6.363-.852-8.031-3.728-.7-16.339,1.936-21.6C130.084,130.2,133.714,119.206,131.344,107.679Z" transform="translate(-118.529 -107.295)" fill="#c33507"/>
                  <path id="Trazado_901837" data-name="Trazado 901837" d="M147.012,130.441c-.1-.588-1.023-.474-.919.117,1.425,8.087.165,16.278-.128,24.409-.2,5.463.322,11.842,5.121,15.311.484.35,1.053-.382.568-.733-5.221-3.771-5-11.1-4.655-16.866C147.434,145.285,148.308,137.795,147.012,130.441Z" transform="translate(-130.388 -117.145)" fill="#c33507"/>
                  <path id="Trazado_901838" data-name="Trazado 901838" d="M172.3,156.255c-.185-.567-1.04-.21-.855.356,2.213,6.781.027,13.969-1.954,20.527-1.622,5.367-3.283,10.663-3.5,16.307-.292,7.528,1.268,18.33,10.4,19.551a.464.464,0,0,0,.132-.918c-9.9-1.323-10.252-14.608-9.326-22.249C168.541,178.722,176.014,167.645,172.3,156.255Z" transform="translate(-139.055 -128.361)" fill="#c33507"/>
                  <path id="Trazado_901839" data-name="Trazado 901839" d="M202.523,178.747c.05-.594-.866-.729-.917-.135-.712,8.393,1.328,16.431,3.415,24.487,1.635,6.309,3.686,14.8-.743,20.44a.464.464,0,0,0,.732.569c3.738-4.764,3.012-11.57,1.917-17.129C205.051,197.463,201.686,188.63,202.523,178.747Z" transform="translate(-154.423 -137.996)" fill="#c33507"/>
                  <path id="Trazado_901840" data-name="Trazado 901840" d="M218.642,174.955a.464.464,0,0,0-.921.117c.874,7.666,6.246,13.063,10.44,19.134,4.548,6.581,7.447,16.719,2.274,23.779-.354.48.379,1.049.732.568,4.376-5.972,3.241-14.3.259-20.627C227.631,189.875,219.7,184.269,218.642,174.955Z" transform="translate(-161.459 -136.409)" fill="#c33507"/>
                  <path id="Trazado_901841" data-name="Trazado 901841" d="M236.925,156.733c-.14-.572-1.061-.462-.919.117,1.91,7.856,8.963,12.693,13.864,18.637,5.986,7.259,8.416,19.428,2.512,27.4-.356.48.376,1.048.733.567,5.266-7.11,4.166-17.362.067-24.8C248.775,170.651,239.175,165.995,236.925,156.733Z" transform="translate(-169.368 -128.529)" fill="#c33507"/>
                  <path id="Trazado_901842" data-name="Trazado 901842" d="M261.2,159.035c-3.726-4.524-7.5-8.2-13.132-10.163-.563-.2-.93.655-.364.851,5.017,1.75,8.359,4.809,11.793,8.742,3.668,4.2,6.939,8.9,6.678,14.718-.027.592.891.729.919.131C267.34,167.735,264.638,163.212,261.2,159.035Z" transform="translate(-174.314 -125.277)" fill="#c33507"/>
                </g>
              </g>
              <path id="Trazado_901843" data-name="Trazado 901843" d="M159.521,121.4c11.252,12.319,45.688,6.056,51.11-7.158C202.414,103.62,194.454,94.4,194.454,94.4c-14.126-2.587-28.8-.685-39.377,1.635C152.844,101.473,150.658,111.7,159.521,121.4Z" transform="translate(-90.412 -64.108)" fill="#ffa17b"/>
              <g id="Grupo_1112754" data-name="Grupo 1112754" transform="translate(65.535 31.664)">
                <path id="Trazado_901844" data-name="Trazado 901844" d="M208.611,115.655c-2.117.725-2.324,15.823-.048,18.254s12.813,4.865,16.772-.02c5.146-6.347-9.488-5.055-12.394-8.475C209.676,121.567,210.074,115.153,208.611,115.655Z" transform="translate(-179.251 -105.498)" fill="#ed5639"/>
                <g id="Grupo_1112749" data-name="Grupo 1112749" transform="translate(12.407 11.755)">
                  <path id="Trazado_901845" data-name="Trazado 901845" d="M180.1,120.106c1.311,1.694,3.251,4.551,5.84,3.733,2.13-.673,1.856-3.379,1.279-5.059-.2-.567-1.05-.206-.857.356.5,1.466.757,4.007-1.474,3.855-1.859-.129-3.034-2.133-4.054-3.45a.464.464,0,0,0-.735.566Z" transform="translate(-179.999 -118.495)" fill="#120807"/>
                </g>
                <g id="Grupo_1112750" data-name="Grupo 1112750" transform="translate(33.958 7.988)">
                  <path id="Trazado_901846" data-name="Trazado 901846" d="M218.057,114.669c.819,1.44,2.435,3.253,4.275,2.585,1.994-.725,1.256-3.546.912-5.021-.136-.576-1.057-.465-.919.116.259,1.108.8,2.628.108,3.671-1.027,1.553-3.016-.82-3.519-1.707-.29-.513-1.153-.164-.857.356Z" transform="translate(-217.996 -111.853)" fill="#120807"/>
                </g>
                <g id="Grupo_1112751" data-name="Grupo 1112751" transform="translate(9.828 2.693)">
                  <path id="Trazado_901847" data-name="Trazado 901847" d="M181.388,102.649c-3.084-.888-5.456,2.865-5.921,5.484-.208,1.178,1.629,1.437,1.837.264.212-1.2,1.709-4.518,3.356-4.043,1.137.326,1.874-1.377.728-1.706Z" transform="translate(-175.451 -102.516)" fill="#7f3101"/>
                </g>
                <g id="Grupo_1112752" data-name="Grupo 1112752" transform="translate(32.807 0)">
                  <path id="Trazado_901848" data-name="Trazado 901848" d="M217.226,99.728c1.261-.545,2.115,1.683,2.488,2.548a.928.928,0,0,0,1.713-.712c-.827-1.922-2.412-4.629-4.914-3.547a.928.928,0,0,0,.713,1.712Z" transform="translate(-215.966 -97.769)" fill="#7f3101"/>
                </g>
                <path id="Trazado_901849" data-name="Trazado 901849" d="M167.029,137.033a5.513,5.513,0,0,0-6.191-4.737,5.578,5.578,0,0,0-2.713,1.121,26.509,26.509,0,0,0,3.574,4.9,16.23,16.23,0,0,0,3.919,3.083A5.424,5.424,0,0,0,167.029,137.033Z" transform="translate(-158.124 -112.694)" fill="#ed5639" opacity="0.5" style="mix-blend-mode: multiply;isolation: isolate"/>
                <path id="Trazado_901850" data-name="Trazado 901850" d="M248.926,125.058c-1.862-2.405-3.709-4.739-5.454-6.912a5.449,5.449,0,0,0-1.858,4.808,5.5,5.5,0,0,0,5.751,4.77A11.872,11.872,0,0,0,248.926,125.058Z" transform="translate(-194.241 -106.589)" fill="#ed5639" opacity="0.5" style="mix-blend-mode: multiply;isolation: isolate"/>
                <g id="Grupo_1112753" data-name="Grupo 1112753" transform="translate(22.669 35.105)">
                  <path id="Trazado_901851" data-name="Trazado 901851" d="M198.1,160.434c-.38,6.318,7.418,6.294,11.723,4.809,1.13-.391.415-2.1-.711-1.712-2.791.962-9.45,1.713-9.176-2.832.071-1.188-1.765-1.459-1.836-.265Z" transform="translate(-198.091 -159.662)" fill="#ffa17b"/>
                </g>
                <path id="Trazado_901852" data-name="Trazado 901852" d="M226.731,136.775c-.119,4.423,5.184,6.9,8.246,3.984C235.052,138.357,230.624,137.689,226.731,136.775Z" transform="translate(-187.817 -114.651)" fill="#ed5639" opacity="0.5" style="mix-blend-mode: multiply;isolation: isolate"/>
              </g>
              <g id="Grupo_1112755" data-name="Grupo 1112755" transform="translate(42.928 40.13)">
                <path id="Trazado_901853" data-name="Trazado 901853" d="M135.167,115.65s-14.181-8.33-16.6,2.983,10.313,11.83,17.647,9.512A43.105,43.105,0,0,1,135.167,115.65Z" transform="translate(-118.265 -112.696)" fill="#ffa17b"/>
                <path id="Trazado_901854" data-name="Trazado 901854" d="M135.35,126.073a3.774,3.774,0,0,1-4.6,2.464c-2.7-.573-4.611-3.317-3.73-5.856.787-2.265,4.123-2.784,6.21-1.53A4.355,4.355,0,0,1,135.35,126.073Z" transform="translate(-121.96 -116.067)" fill="#cf6e4b"/>
              </g>
            </g>
          </g>
        </g>
      </g>
    </g>
  </g>
</svg>
