<svg xmlns="http://www.w3.org/2000/svg" xmlns:xlink="http://www.w3.org/1999/xlink" width="117.999" height="118" viewBox="0 0 117.999 118">
  <defs>
    <filter id="Trazado_874925" x="0" y="0" width="117.999" height="118" filterUnits="userSpaceOnUse">
      <feOffset dy="3" input="SourceAlpha"/>
      <feGaussianBlur stdDeviation="3" result="blur"/>
      <feFlood flood-opacity="0.161"/>
      <feComposite operator="in" in2="blur"/>
      <feComposite in="SourceGraphic"/>
    </filter>
  </defs>
  <g id="Grupo_1123440" data-name="Grupo 1123440" transform="translate(-751.051 -3975.9)">
    <g id="Grupo_1111552" data-name="Grupo 1111552" transform="translate(-48.449 1464.743)">
      <g id="Grupo_1111316" data-name="Grupo 1111316" transform="translate(808.5 2517.157)">
        <g id="Grupo_1109835" data-name="Grupo 1109835" transform="translate(0 0)">
          <g id="Grupo_1107913" data-name="Grupo 1107913" transform="translate(0 0)">
            <g transform="matrix(1, 0, 0, 1, -9, -6)" filter="url(#Trazado_874925)">
              <g id="Trazado_874925-2" data-name="Trazado 874925" transform="translate(9 6)" fill="#bb965f" opacity="0.859">
                <path d="M 49.99972534179688 98.4998779296875 C 43.45164108276367 98.4998779296875 37.10022354125977 97.21776580810547 31.12189674377441 94.68914794921875 C 25.34676742553711 92.24647521972656 20.15985298156738 88.74925994873047 15.70523929595947 84.29464721679688 C 11.25062561035156 79.84004974365234 7.753411293029785 74.65313720703125 5.310725212097168 68.87800598144531 C 2.782111167907715 62.89969253540039 1.499996781349182 56.54829406738281 1.499996781349182 50.00022125244141 C 1.499996781349182 43.45157623291016 2.782111167907715 37.10017776489258 5.310725212097168 31.12186431884766 C 7.753411293029785 25.34673500061035 11.25062561035156 20.15983581542969 15.70523929595947 15.70522117614746 C 20.15985298156738 11.25062084197998 25.34676742553711 7.753406524658203 31.12189674377441 5.31073522567749 C 37.10022354125977 2.782120943069458 43.45164108276367 1.500006556510925 49.99972534179688 1.500006556510925 C 56.54780960083008 1.500006556510925 62.89922714233398 2.782120943069458 68.87755584716797 5.31073522567749 C 74.65267944335938 7.753406524658203 79.839599609375 11.25062084197998 84.29421234130859 15.70522117614746 C 88.74882507324219 20.15983581542969 92.24604034423828 25.34673500061035 94.68872833251953 31.12186431884766 C 97.21733856201172 37.10017776489258 98.49945068359375 43.45157623291016 98.49945068359375 49.99964904785156 C 98.49945068359375 56.54829406738281 97.21733856201172 62.89969253540039 94.68872833251953 68.87800598144531 C 92.24604034423828 74.65313720703125 88.74882507324219 79.84004974365234 84.29421234130859 84.29464721679688 C 79.839599609375 88.74925994873047 74.65267944335938 92.24647521972656 68.87755584716797 94.68914794921875 C 62.89922714233398 97.21776580810547 56.54780960083008 98.4998779296875 49.99972534179688 98.4998779296875 Z" stroke="none"/>
                <path d="M 49.99972534179688 3 C 43.65348052978516 3 37.49866485595703 4.242240905761719 31.70623016357422 6.692230224609375 C 26.10989379882812 9.059272766113281 21.08323669433594 12.44853210449219 16.76589202880859 16.76587677001953 C 12.44855499267578 21.08321380615234 9.059295654296875 26.10985565185547 6.692230224609375 31.70618438720703 C 4.24224853515625 37.49859619140625 3 43.65341186523438 3 50.00022888183594 C 3 56.34645843505859 4.24224853515625 62.50127410888672 6.692230224609375 68.29368591308594 C 9.059295654296875 73.8900146484375 12.44855499267578 78.91665649414062 16.76589202880859 83.23399353027344 C 21.08323669433594 87.55132293701172 26.10989379882812 90.94059753417969 31.70623016357422 93.30764007568359 C 37.49866485595703 95.75762939453125 43.65348052978516 96.99987030029297 49.99972534179688 96.99987030029297 C 56.34597015380859 96.99987030029297 62.50078582763672 95.75762939453125 68.293212890625 93.30764007568359 C 73.88955688476562 90.94059753417969 78.91621398925781 87.55132293701172 83.23355865478516 83.23399353027344 C 87.55089569091797 78.91665649414062 90.94015502929688 73.8900146484375 93.30722045898438 68.29368591308594 C 95.7572021484375 62.50127410888672 96.99945068359375 56.34645843505859 96.99945068359375 49.99964141845703 C 96.99945068359375 43.65341186523438 95.7572021484375 37.49859619140625 93.30722045898438 31.70618438720703 C 90.94015502929688 26.10985565185547 87.55089569091797 21.08321380615234 83.23355865478516 16.76587677001953 C 78.91621398925781 12.44853210449219 73.88955688476562 9.059272766113281 68.293212890625 6.692230224609375 C 62.50078582763672 4.242240905761719 56.34597015380859 3 49.99972534179688 3 M 49.99972534179688 0 C 77.61381530761719 0 99.99945068359375 22.38559722900391 99.99945068359375 49.99964141845703 L 99.99945068359375 50.00022888183594 C 99.99945068359375 77.6142578125 77.61381530761719 99.99987030029297 49.99972534179688 99.99987030029297 C 22.38563537597656 99.99987030029297 0 77.6142578125 0 50.00022888183594 L 0 49.99964141845703 C 0 22.38559722900391 22.38563537597656 0 49.99972534179688 0 Z" stroke="none" fill="#fff"/>
              </g>
            </g>
            <g id="Trazado_874923" data-name="Trazado 874923" transform="translate(0 0)" fill="none">
              <path d="M50,0a50,50,0,0,1,50,50h0A50,50,0,0,1,0,50H0A50,50,0,0,1,50,0Z" stroke="none"/>
              <path d="M 49.99972534179688 3 C 43.65348052978516 3 37.49866485595703 4.242240905761719 31.70623016357422 6.692230224609375 C 26.10989379882812 9.059272766113281 21.08323669433594 12.44853210449219 16.76589202880859 16.76587677001953 C 12.44855499267578 21.08321380615234 9.059295654296875 26.10985565185547 6.692230224609375 31.70618438720703 C 4.24224853515625 37.49859619140625 3 43.65341186523438 3 50.00022888183594 C 3 56.34645843505859 4.24224853515625 62.50127410888672 6.692230224609375 68.29368591308594 C 9.059295654296875 73.8900146484375 12.44855499267578 78.91665649414062 16.76589202880859 83.23399353027344 C 21.08323669433594 87.55132293701172 26.10989379882812 90.94059753417969 31.70623016357422 93.30764007568359 C 37.49866485595703 95.75762939453125 43.65348052978516 96.99987030029297 49.99972534179688 96.99987030029297 C 56.34597015380859 96.99987030029297 62.50078582763672 95.75762939453125 68.293212890625 93.30764007568359 C 73.88955688476562 90.94059753417969 78.91621398925781 87.55132293701172 83.23355865478516 83.23399353027344 C 87.55089569091797 78.91665649414062 90.94015502929688 73.8900146484375 93.30722045898438 68.29368591308594 C 95.7572021484375 62.50127410888672 96.99945068359375 56.34645843505859 96.99945068359375 49.99964141845703 C 96.99945068359375 43.65341186523438 95.7572021484375 37.49859619140625 93.30722045898438 31.70618438720703 C 90.94015502929688 26.10985565185547 87.55089569091797 21.08321380615234 83.23355865478516 16.76587677001953 C 78.91621398925781 12.44853210449219 73.88955688476562 9.059272766113281 68.293212890625 6.692230224609375 C 62.50078582763672 4.242240905761719 56.34597015380859 3 49.99972534179688 3 M 49.99972534179688 0 C 77.61381530761719 0 99.99945068359375 22.38559722900391 99.99945068359375 49.99964141845703 L 99.99945068359375 50.00022888183594 C 99.99945068359375 77.6142578125 77.61381530761719 99.99987030029297 49.99972534179688 99.99987030029297 C 22.38563537597656 99.99987030029297 0 77.6142578125 0 50.00022888183594 L 0 49.99964141845703 C 0 22.38559722900391 22.38563537597656 0 49.99972534179688 0 Z" stroke="none" fill="#fff"/>
            </g>
          </g>
        </g>
      </g>
    </g>
    <g id="Grupo_1123439" data-name="Grupo 1123439" transform="translate(776.058 3988.576)">
      <path id="Trazado_920191" data-name="Trazado 920191" d="M64.242,253.046a1.615,1.615,0,0,0-.574-.128,1.426,1.426,0,0,1-.83-.294A2.337,2.337,0,0,0,61.5,252c-.064-.013-.128-.026-.217-.038a4.491,4.491,0,0,0-.638-.064c-.421-.026-1.136-.077-3.038-.294a9.779,9.779,0,0,1-1.289-.217l-.013-3.791.472-.4a6.548,6.548,0,0,0,2.694.574,7.061,7.061,0,0,0,3.983-1.251,6.839,6.839,0,0,0,3-6.472.748.748,0,0,0-.294-.485.674.674,0,0,0-.562-.089,8.246,8.246,0,0,1-2.068.345,8.657,8.657,0,0,1-1.43-.089,4.529,4.529,0,0,0-1.519-.038,5.659,5.659,0,0,0-3.191,1.838,5.509,5.509,0,0,0-1.277,2.438,3.679,3.679,0,0,0-.83-1.366,6.07,6.07,0,0,0-1.43-4.634,5.594,5.594,0,0,0-3.191-1.851,3.889,3.889,0,0,0-.638-.051,6.1,6.1,0,0,0-.868.077,7.448,7.448,0,0,1-1.43.089,8.344,8.344,0,0,1-2.068-.345.67.67,0,0,0-.562.077.638.638,0,0,0-.294.485,6.84,6.84,0,0,0,2.974,6.485,6.987,6.987,0,0,0,4.021,1.277,6.635,6.635,0,0,0,2.617-.549,2.25,2.25,0,0,1,.536,1.455V247.3l.013,3.332c-.013-.013-.013-.013-.026-.013a3.052,3.052,0,0,0-2.119.1c-.23.077-.511.166-.881.268-.562.153-.983.306-1.366.434a5.175,5.175,0,0,1-2.017.421,10.246,10.246,0,0,1-2.834-.332,8.208,8.208,0,0,0-2.477-.038c-.536.026-1.174.064-1.915.089a9.34,9.34,0,0,0-2.03.281,2.553,2.553,0,0,1-1.672-.077c-1.034-.306-1.353-.332-1.813-.14a1.992,1.992,0,0,1-.868.115h-.46l-.013-3.294.472-.4a6.606,6.606,0,0,0,2.694.587,6.979,6.979,0,0,0,3.983-1.264,6.814,6.814,0,0,0,3-6.472.675.675,0,0,0-.294-.485.627.627,0,0,0-.562-.077,8.226,8.226,0,0,1-2.068.332,7.448,7.448,0,0,1-1.43-.089,4.529,4.529,0,0,0-1.519-.038,5.811,5.811,0,0,0-4.289,3.664l-.013-8.259a7,7,0,0,0,1.468-11.936.735.735,0,0,0-.562-.115.7.7,0,0,0-.447.357,8.55,8.55,0,0,1-1.174,1.723,7.406,7.406,0,0,1-1.047.97,4.477,4.477,0,0,0-1.072,1.072,5.375,5.375,0,0,0-.881,3.064c0,.179.013.357.026.536a6.065,6.065,0,0,0,2.349,4.225l.013,3.23a5.834,5.834,0,0,0-1.072-1.774,5.6,5.6,0,0,0-3.179-1.851,4.563,4.563,0,0,0-1.519.026,7.372,7.372,0,0,1-1.43.089,8.442,8.442,0,0,1-2.068-.345.727.727,0,0,0-.562.077.675.675,0,0,0-.294.485,6.877,6.877,0,0,0,2.974,6.485,7.112,7.112,0,0,0,4.021,1.277,6.671,6.671,0,0,0,2.668-.562l.485.4.013,4.685v.077l.013,3.562-.421-.038a5.058,5.058,0,0,1-1.366-.383,3.719,3.719,0,0,0-1.264-.332c-.587,0-2.157.613-5.042,1.813l-.46.191a5.821,5.821,0,0,1-3.268-.051c-.485-.089-1-.191-1.545-.255a4.623,4.623,0,0,1-1.021-.2,1.251,1.251,0,0,0-.894-.5,3.072,3.072,0,0,0-1.915.332,6.38,6.38,0,0,1-.791.294,2.351,2.351,0,0,1-1.634-.166c-.14-.051-.319-.1-.485-.153l-.013-3.842.472-.4a6.561,6.561,0,0,0,2.694.587,7.076,7.076,0,0,0,3.983-1.264,6.814,6.814,0,0,0,3-6.472.652.652,0,0,0-.294-.485.627.627,0,0,0-.562-.077,8.226,8.226,0,0,1-2.068.332,7.372,7.372,0,0,1-1.43-.089,4.891,4.891,0,0,0-1.519-.038,5.531,5.531,0,0,0-3.191,1.838,5.47,5.47,0,0,0-1.277,2.425,3.679,3.679,0,0,0-.83-1.366,6.04,6.04,0,0,0-1.43-4.634,5.664,5.664,0,0,0-3.191-1.851,4.954,4.954,0,0,0-1.519.026,6.477,6.477,0,0,1-1.43.089,8.149,8.149,0,0,1-2.055-.345.75.75,0,0,0-.574.077.638.638,0,0,0-.294.485,6.84,6.84,0,0,0,2.974,6.485,7.112,7.112,0,0,0,4.021,1.277,6.635,6.635,0,0,0,2.617-.549,2.25,2.25,0,0,1,.536,1.455v2.183l.013,3.919a1.98,1.98,0,0,0-.536.153l-.089.051a1.246,1.246,0,0,1-.179.077l-.166.051a1.919,1.919,0,0,1-1.672-.128c-.511-.191-1.366-.243-3.689,1.149a36.6,36.6,0,0,0-3.2,2.183.69.69,0,0,0-.268.536v1.749a1.2,1.2,0,0,0,1.187,1.2H64.65a1.2,1.2,0,0,0,1.187-1.2v-3.217a.745.745,0,0,0-.191-.485,15.965,15.965,0,0,0-1.4-1.1Zm-5.821-10.608a4.3,4.3,0,0,1,2.387-1.4,2.212,2.212,0,0,1,.408-.038c.23,0,.447.038.7.064a8.137,8.137,0,0,0,1.672.115,9.394,9.394,0,0,0,1.57-.179,5.685,5.685,0,0,1-7.4,5.132,7.255,7.255,0,0,1,2.54-1.864,6.912,6.912,0,0,1,2.03-.536.687.687,0,0,0-.153-1.366,8.272,8.272,0,0,0-4.8,2.234,4.336,4.336,0,0,1,1.047-2.157Zm-9.383-2.579a7.822,7.822,0,0,1,2.591,1.06,7.629,7.629,0,0,1,1.864,1.634,5.468,5.468,0,0,1-4.94-.74A5.577,5.577,0,0,1,46.1,237.4a9.421,9.421,0,0,0,1.57.191,7.461,7.461,0,0,0,1.672-.1,4.035,4.035,0,0,1,1.111-.038,4.31,4.31,0,0,1,2.387,1.417,4.457,4.457,0,0,1,1.021,2.081,9.073,9.073,0,0,0-1.506-1.187,9.588,9.588,0,0,0-3.038-1.238.694.694,0,0,0-.817.523.686.686,0,0,0,.536.817Zm-12.459,3.459a4.22,4.22,0,0,1,2.387-1.4,2.129,2.129,0,0,1,.4-.026,4.942,4.942,0,0,1,.715.064,8.137,8.137,0,0,0,1.672.115,10.956,10.956,0,0,0,1.57-.179,5.685,5.685,0,0,1-7.4,5.132,7.416,7.416,0,0,1,2.54-1.864,7.331,7.331,0,0,1,2.03-.536.679.679,0,0,0,.6-.753.67.67,0,0,0-.753-.6,8.3,8.3,0,0,0-2.425.638,8.51,8.51,0,0,0-2.374,1.557,4.471,4.471,0,0,1,1.047-2.145Zm-9.383-4.1a7.994,7.994,0,0,1,4.455,2.694,5.507,5.507,0,0,1-4.94-.74,5.577,5.577,0,0,1-2.451-4.417,9.419,9.419,0,0,0,1.57.191,7.461,7.461,0,0,0,1.672-.1,3.593,3.593,0,0,1,1.111-.038,4.464,4.464,0,0,1,3.408,3.5,8.933,8.933,0,0,0-1.506-1.187,9.588,9.588,0,0,0-3.038-1.238.694.694,0,0,0-.817.523.706.706,0,0,0,.536.817Zm-12.1,4.047a4.3,4.3,0,0,1,2.387-1.4,3.251,3.251,0,0,1,1.111.038,8.138,8.138,0,0,0,1.672.115,10.954,10.954,0,0,0,1.57-.179,5.685,5.685,0,0,1-7.4,5.132,7.416,7.416,0,0,1,2.54-1.864,7.331,7.331,0,0,1,2.03-.536.679.679,0,0,0,.6-.753.67.67,0,0,0-.753-.6,8.309,8.309,0,0,0-4.8,2.2,4.526,4.526,0,0,1,1.047-2.145Zm-9.383-2.579a7.822,7.822,0,0,1,2.591,1.06,7.933,7.933,0,0,1,1.877,1.634,5.578,5.578,0,0,1-4.953-.74,5.554,5.554,0,0,1-2.451-4.4,10.983,10.983,0,0,0,1.57.191,8.137,8.137,0,0,0,1.672-.115,3.584,3.584,0,0,1,1.111-.026,4.218,4.218,0,0,1,2.387,1.417,4.393,4.393,0,0,1,1.021,2.081A9.074,9.074,0,0,0,9.031,240.6a9.3,9.3,0,0,0-3.038-1.238.694.694,0,0,0-.817.523.683.683,0,0,0,.536.8Zm27.216-6.932a4.43,4.43,0,0,1-.83-2.221,4.267,4.267,0,0,1,.626-2.706,3.522,3.522,0,0,1,.791-.779,8.788,8.788,0,0,0,1.238-1.136,9.3,9.3,0,0,0,.945-1.264,5.682,5.682,0,0,1-1.379,8.9,7.065,7.065,0,0,1,.409-3.115,7.47,7.47,0,0,1,1-1.851.684.684,0,1,0-1.1-.817,8.934,8.934,0,0,0-1.187,2.183,9.24,9.24,0,0,0-.511,2.808Zm31.48,23.974H3.184V256.48c.511-.37,1.647-1.213,2.808-1.889,1.94-1.174,2.477-1.06,2.477-1.06a3.234,3.234,0,0,0,2.642.153l.128-.051a2.723,2.723,0,0,0,.37-.153l.064-.026c.115-.051.217-.1.843.1.191.051.37.115.536.166a3.609,3.609,0,0,0,2.425.179,7.752,7.752,0,0,0,.983-.357,1.7,1.7,0,0,1,1.111-.243.578.578,0,0,1,.1.026c.268.345.638.536,1.9.689.523.064,1.008.166,1.468.255a6.994,6.994,0,0,0,4.034-.026l.46-.191a38.779,38.779,0,0,1,4.519-1.711,3.374,3.374,0,0,1,.779.243,6.7,6.7,0,0,0,1.736.472l.485.038a14.23,14.23,0,0,0,1.877.051,3.215,3.215,0,0,0,1.417-.243,4.53,4.53,0,0,1,.868.217,3.828,3.828,0,0,0,2.374.089,8.691,8.691,0,0,1,1.762-.243c.753-.026,1.391-.064,1.94-.1a8.56,8.56,0,0,1,2.017-.013,11.614,11.614,0,0,0,3.217.383,6.431,6.431,0,0,0,2.464-.5c.357-.128.766-.268,1.277-.421.409-.115.7-.2.945-.281a1.731,1.731,0,0,1,1.379-.064,1.411,1.411,0,0,1,.166.051c.319.485.766.728,2.668.945,1.928.23,2.668.268,3.1.294.217.013.332.026.511.051.089.013.179.026.255.038.23.026.243.038.689.37a2.743,2.743,0,0,0,1.532.562c.051.013.089.013.089,0a7.41,7.41,0,0,1,.779.689v2.757Z" transform="translate(0 -184.633)" fill="#231f20"/>
      <path id="Trazado_920192" data-name="Trazado 920192" d="M76.023,446.114v2.77H14.8v-1.251c.511-.37,1.647-1.213,2.808-1.889,1.94-1.174,2.477-1.06,2.477-1.06a3.234,3.234,0,0,0,2.642.153l.128-.051a2.723,2.723,0,0,0,.37-.153l.064-.026c.115-.051.217-.1.843.1.191.051.37.115.536.166a3.609,3.609,0,0,0,2.425.179,7.748,7.748,0,0,0,.983-.357,1.7,1.7,0,0,1,1.111-.243.582.582,0,0,1,.1.026c.268.345.638.536,1.9.689.523.064,1.008.166,1.468.255a6.994,6.994,0,0,0,4.034-.026l.46-.191a38.779,38.779,0,0,1,4.519-1.711,3.376,3.376,0,0,1,.779.243,6.7,6.7,0,0,0,1.736.472l.485.038a14.23,14.23,0,0,0,1.877.051,3.215,3.215,0,0,0,1.417-.243,4.527,4.527,0,0,1,.868.217,3.828,3.828,0,0,0,2.374.089,8.693,8.693,0,0,1,1.762-.243c.753-.026,1.391-.064,1.94-.1a8.562,8.562,0,0,1,2.017-.013,11.614,11.614,0,0,0,3.217.383,6.43,6.43,0,0,0,2.464-.5c.357-.128.766-.268,1.277-.421.409-.115.7-.2.945-.281a1.731,1.731,0,0,1,1.379-.064,1.415,1.415,0,0,1,.166.051c.319.485.766.728,2.668.945,1.928.23,2.668.268,3.1.294.217.013.332.026.511.051.089.013.179.026.255.038.23.026.243.038.689.37a2.743,2.743,0,0,0,1.532.562c.051.013.089.013.089,0a3.671,3.671,0,0,1,.8.677Z" transform="translate(-11.616 -375.786)" fill="#e0e0e2"/>
      <g id="Grupo_1123438" data-name="Grupo 1123438" transform="translate(2.776 40.993)">
        <path id="Trazado_920193" data-name="Trazado 920193" d="M358.391,334.857a5.468,5.468,0,0,1-4.94-.74A5.577,5.577,0,0,1,351,329.7a9.423,9.423,0,0,0,1.57.191,7.462,7.462,0,0,0,1.672-.1,4.034,4.034,0,0,1,1.111-.038,4.31,4.31,0,0,1,2.387,1.417,4.457,4.457,0,0,1,1.021,2.081,9.074,9.074,0,0,0-1.506-1.187,9.589,9.589,0,0,0-3.038-1.238.694.694,0,0,0-.817.523.684.684,0,0,0,.523.817,7.821,7.821,0,0,1,2.591,1.06A7.461,7.461,0,0,1,358.391,334.857Z" transform="translate(-307.674 -317.93)" fill="#ccfc5c"/>
        <path id="Trazado_920194" data-name="Trazado 920194" d="M447.087,357.9a5.685,5.685,0,0,1-7.4,5.132,7.255,7.255,0,0,1,2.54-1.864,6.913,6.913,0,0,1,2.03-.536.687.687,0,0,0-.153-1.366,8.271,8.271,0,0,0-4.8,2.234,4.464,4.464,0,0,1,3.434-3.562,2.214,2.214,0,0,1,.409-.038c.23,0,.447.038.7.064a8.14,8.14,0,0,0,1.672.115A9.243,9.243,0,0,0,447.087,357.9Z" transform="translate(-384.702 -342.53)" fill="#ccfc5c"/>
        <path id="Trazado_920195" data-name="Trazado 920195" d="M275.987,364.8a5.685,5.685,0,0,1-7.4,5.132,7.416,7.416,0,0,1,2.54-1.864,7.331,7.331,0,0,1,2.03-.536.679.679,0,0,0,.6-.753.67.67,0,0,0-.753-.6,8.3,8.3,0,0,0-2.425.638,8.51,8.51,0,0,0-2.374,1.557,4.409,4.409,0,0,1,1.047-2.145,4.22,4.22,0,0,1,2.387-1.4,2.128,2.128,0,0,1,.4-.026,4.939,4.939,0,0,1,.715.064,8.138,8.138,0,0,0,1.672.115A9.1,9.1,0,0,0,275.987,364.8Z" transform="translate(-235.444 -348.549)" fill="#ccfc5c"/>
        <path id="Trazado_920196" data-name="Trazado 920196" d="M246.377,242.338a5.5,5.5,0,0,1-2.872,4.072,7.065,7.065,0,0,1,.408-3.115,7.47,7.47,0,0,1,1-1.851.684.684,0,0,0-1.1-.817,8.933,8.933,0,0,0-1.187,2.183,8.4,8.4,0,0,0-.511,2.8,4.43,4.43,0,0,1-.83-2.221,4.267,4.267,0,0,1,.626-2.706,3.522,3.522,0,0,1,.791-.779,8.787,8.787,0,0,0,1.238-1.136,9.306,9.306,0,0,0,.945-1.264A5.663,5.663,0,0,1,246.377,242.338Z" transform="translate(-211.948 -237.5)" fill="#ccfc5c"/>
        <path id="Trazado_920197" data-name="Trazado 920197" d="M187.391,329.857a5.507,5.507,0,0,1-4.94-.74A5.577,5.577,0,0,1,180,324.7a9.422,9.422,0,0,0,1.57.191,7.461,7.461,0,0,0,1.672-.1,3.592,3.592,0,0,1,1.111-.038,4.464,4.464,0,0,1,3.408,3.5,8.934,8.934,0,0,0-1.506-1.187,9.588,9.588,0,0,0-3.038-1.238.686.686,0,0,0-.294,1.34,8.09,8.09,0,0,1,4.468,2.694Z" transform="translate(-158.503 -313.568)" fill="#ccfc5c"/>
        <path id="Trazado_920198" data-name="Trazado 920198" d="M107.687,364.45a5.685,5.685,0,0,1-7.4,5.132,7.416,7.416,0,0,1,2.54-1.864,7.331,7.331,0,0,1,2.03-.536.679.679,0,0,0,.6-.753.67.67,0,0,0-.753-.6,8.31,8.31,0,0,0-4.8,2.2,4.41,4.41,0,0,1,1.047-2.145,4.3,4.3,0,0,1,2.387-1.4,3.25,3.25,0,0,1,1.111.038,8.138,8.138,0,0,0,1.672.115,10.749,10.749,0,0,0,1.57-.179Z" transform="translate(-88.628 -348.238)" fill="#ccfc5c"/>
        <path id="Trazado_920199" data-name="Trazado 920199" d="M19,341.545a5.69,5.69,0,0,1-7.4-5.145,10.983,10.983,0,0,0,1.57.191,8.138,8.138,0,0,0,1.672-.115,3.584,3.584,0,0,1,1.111-.026,4.218,4.218,0,0,1,2.387,1.417,4.393,4.393,0,0,1,1.021,2.081,9.075,9.075,0,0,0-1.506-1.187,9.3,9.3,0,0,0-3.038-1.238.686.686,0,0,0-.294,1.34,7.821,7.821,0,0,1,2.591,1.06A7.193,7.193,0,0,1,19,341.545Z" transform="translate(-11.6 -323.775)" fill="#ccfc5c"/>
      </g>
      <path id="Trazado_920200" data-name="Trazado 920200" d="M186.382,23.2l-.689-.536a4.224,4.224,0,0,1-1.481-4.57l.255-.83a.684.684,0,0,0-.638-.881l-.868-.026a4.237,4.237,0,0,1-3.893-2.834l-.281-.83a.679.679,0,0,0-.434-.421.7.7,0,0,0-.613.089l-.715.5a4.206,4.206,0,0,1-4.813,0l-.715-.5a.683.683,0,0,0-1.034.332l-.281.83a4.224,4.224,0,0,1-3.893,2.834l-.868.026a.632.632,0,0,0-.536.281.669.669,0,0,0-.1.6l.255.83a4.217,4.217,0,0,1-1.481,4.57l-.689.536a.683.683,0,0,0,0,1.085l.689.523a4.224,4.224,0,0,1,1.481,4.57l-.255.843a.676.676,0,0,0,.1.6.722.722,0,0,0,.536.281l.868.013a4.224,4.224,0,0,1,3.893,2.834l.281.83a.7.7,0,0,0,.434.434.6.6,0,0,0,.217.038.688.688,0,0,0,.383-.128l.715-.5a4.25,4.25,0,0,1,4.813,0l.715.5a.665.665,0,0,0,.6.089.729.729,0,0,0,.434-.434l.281-.83a4.224,4.224,0,0,1,3.893-2.834l.868-.013a.722.722,0,0,0,.536-.281.676.676,0,0,0,.1-.6l-.255-.843a4.224,4.224,0,0,1,1.481-4.57l.689-.523a.7.7,0,0,0,.268-.549.581.581,0,0,0-.255-.536ZM182.9,29.759a5.59,5.59,0,0,0-5.119,3.715,5.569,5.569,0,0,0-6.319,0,5.617,5.617,0,0,0-5.106-3.728,5.612,5.612,0,0,0-1.953-6.013,5.576,5.576,0,0,0,1.953-6.013,5.56,5.56,0,0,0,5.106-3.715,5.554,5.554,0,0,0,6.319,0,5.59,5.59,0,0,0,5.119,3.715,5.576,5.576,0,0,0,1.953,6.013,5.6,5.6,0,0,0-1.953,6.025Z" transform="translate(-140.548)" fill="#231f20"/>
      <path id="Trazado_920201" data-name="Trazado 920201" d="M197.15,35.827a5.576,5.576,0,0,1-1.953-6.013,5.59,5.59,0,0,1-5.119-3.715,5.554,5.554,0,0,1-6.319,0,5.587,5.587,0,0,1-5.106,3.715,5.6,5.6,0,0,1-1.953,6.013,5.576,5.576,0,0,1,1.953,6.013,5.572,5.572,0,0,1,5.106,3.728,5.569,5.569,0,0,1,6.319,0,5.59,5.59,0,0,1,5.119-3.715,5.6,5.6,0,0,1,1.953-6.025Zm-10.225,7.647a7.647,7.647,0,1,1,7.647-7.647A7.652,7.652,0,0,1,186.925,43.474Z" transform="translate(-152.849 -12.094)" fill="#ffd15b"/>
      <path id="Trazado_920202" data-name="Trazado 920202" d="M204.547,42.5a7.647,7.647,0,1,0,7.647,7.647A7.652,7.652,0,0,0,204.547,42.5Zm0,13.927a6.281,6.281,0,1,1,6.281-6.281A6.292,6.292,0,0,1,204.547,56.427Z" transform="translate(-170.47 -26.4)" fill="#231f20"/>
      <path id="Trazado_920203" data-name="Trazado 920203" d="M220.061,59.381a6.281,6.281,0,1,1-6.281-6.281A6.293,6.293,0,0,1,220.061,59.381Z" transform="translate(-179.717 -35.647)" fill="#ffe177"/>
      <path id="Trazado_920204" data-name="Trazado 920204" d="M33.094,155.077l-2.387-4.136a.7.7,0,0,0-1.174,0l-2.387,4.136a.645.645,0,0,0,0,.677.7.7,0,0,0,.587.345h1.289a2.542,2.542,0,0,0,.434,1.877l1.174,1.647a1.19,1.19,0,0,1,.013,1.366l-1.187,1.66a2.551,2.551,0,0,0,0,2.949l1.187,1.66a1.268,1.268,0,0,1,.217.587.683.683,0,0,0,.677.638h.038a.686.686,0,0,0,.638-.728,2.564,2.564,0,0,0-.472-1.3l-1.187-1.66a1.213,1.213,0,0,1,0-1.366l1.187-1.66a2.551,2.551,0,0,0,0-2.949l-1.174-1.634a1.178,1.178,0,0,1-.14-1.085h2.081a.661.661,0,0,0,.587-.345.645.645,0,0,0,0-.677Zm-4.187-.345,1.213-2.094,1.213,2.094Z" transform="translate(-22.302 -120.722)" fill="#231f20"/>
      <path id="Trazado_920205" data-name="Trazado 920205" d="M44.013,168.581H41.6l1.213-2.081Z" transform="translate(-34.995 -134.571)" fill="#ffd15b"/>
      <path id="Trazado_920206" data-name="Trazado 920206" d="M103.607,155.077l-2.387-4.136a.716.716,0,0,0-1.187,0l-2.387,4.136a.645.645,0,0,0,0,.677.676.676,0,0,0,.587.345H99.51a2.481,2.481,0,0,0,.447,1.877l1.174,1.647a1.19,1.19,0,0,1,.013,1.366l-1.187,1.66a2.552,2.552,0,0,0,0,2.949l1.187,1.647a1.315,1.315,0,0,1,.217.6.683.683,0,0,0,.677.638h.038a.686.686,0,0,0,.638-.728,2.474,2.474,0,0,0-.46-1.3l-1.187-1.66a1.169,1.169,0,0,1,0-1.366l1.187-1.66a2.531,2.531,0,0,0-.013-2.949l-1.187-1.647a1.178,1.178,0,0,1-.14-1.085h2.081a.661.661,0,0,0,.587-.345A.622.622,0,0,0,103.607,155.077Zm-4.187-.345,1.213-2.094,1.213,2.094Z" transform="translate(-83.802 -120.722)" fill="#231f20"/>
      <path id="Trazado_920207" data-name="Trazado 920207" d="M114.613,168.581H112.2l1.2-2.081Z" transform="translate(-96.582 -134.571)" fill="#ffd15b"/>
      <path id="Trazado_920208" data-name="Trazado 920208" d="M391.82,54.8V34.862a4.162,4.162,0,0,0-8.323,0V54.789a6.144,6.144,0,0,0,3.447,10.634,6.237,6.237,0,0,0,.689.038,6.173,6.173,0,0,0,4.111-1.557,6.143,6.143,0,0,0,.077-9.1Zm-.97,8.093a4.727,4.727,0,0,1-3.753,1.174,4.79,4.79,0,0,1-2.489-8.451.68.68,0,0,0,.243-.523V34.862a2.8,2.8,0,0,1,5.591,0v.868h-.562a.673.673,0,0,0-.677.677.681.681,0,0,0,.677.677h.562v1.749h-.562a.681.681,0,0,0-.677.677.673.673,0,0,0,.677.677h.562v1.749h-.562a.673.673,0,0,0-.677.677.681.681,0,0,0,.677.677h.562v1.749h-.562a.677.677,0,0,0,0,1.353h.562v1.749h-.562a.673.673,0,0,0-.677.677.681.681,0,0,0,.677.677h.562v1.8h-.562a.677.677,0,1,0,0,1.353h.562v2.451a.68.68,0,0,0,.243.523,4.809,4.809,0,0,1,.166,7.276Z" transform="translate(-331.51 -16.107)" fill="#231f20"/>
      <path id="Trazado_920209" data-name="Trazado 920209" d="M400.089,65.052a.68.68,0,0,1-.243-.523V62.078h-.562a.677.677,0,1,1,0-1.353h.562V58.976h-.562a.681.681,0,0,1-.677-.677.673.673,0,0,1,.677-.677h.562V55.874h-.562a.677.677,0,1,1,0-1.353h.562V52.772h-.562a.681.681,0,0,1-.677-.677.673.673,0,0,1,.677-.677h.562V49.67h-.562a.673.673,0,0,1-.677-.677.681.681,0,0,1,.677-.677h.562v-1.8h-.562a.681.681,0,0,1-.677-.677.673.673,0,0,1,.677-.677h.562V44.3a2.8,2.8,0,0,0-5.591,0V64.529a.68.68,0,0,1-.243.523A4.79,4.79,0,0,0,396.5,73.5a4.77,4.77,0,0,0,5.349-4.749A4.815,4.815,0,0,0,400.089,65.052Zm-3.038,5.821a2.1,2.1,0,0,1-.677-4.085V44.283a.673.673,0,0,1,.677-.677.665.665,0,0,1,.677.677V66.788a2.1,2.1,0,0,1-.677,4.085Z" transform="translate(-340.902 -25.528)" fill="#e0e0e2"/>
      <path id="Trazado_920210" data-name="Trazado 920210" d="M416.07,81.182V58.677a.665.665,0,0,0-.677-.677.673.673,0,0,0-.677.677V81.182a2.083,2.083,0,0,0-1.417,1.979,2.1,2.1,0,1,0,2.77-1.979Zm-.677,2.732a.74.74,0,1,1,.74-.74A.741.741,0,0,1,415.394,83.914Z" transform="translate(-359.245 -39.922)" fill="#231f20"/>
    </g>
  </g>
</svg>
