<svg xmlns="http://www.w3.org/2000/svg" xmlns:xlink="http://www.w3.org/1999/xlink" width="118" height="118" viewBox="0 0 118 118">
  <defs>
    <filter id="Trazado_874925" x="0" y="0" width="117.999" height="118" filterUnits="userSpaceOnUse">
      <feOffset dy="3" input="SourceAlpha"/>
      <feGaussianBlur stdDeviation="3" result="blur"/>
      <feFlood flood-opacity="0.161"/>
      <feComposite operator="in" in2="blur"/>
      <feComposite in="SourceGraphic"/>
    </filter>
  </defs>
  <g id="Grupo_1123445" data-name="Grupo 1123445" transform="translate(-1065.051 -3976)">
    <g id="Grupo_1111553" data-name="Grupo 1111553" transform="translate(265.551 1464.843)">
      <g id="Grupo_1111316" data-name="Grupo 1111316" transform="translate(808.5 2517.157)">
        <g id="Grupo_1109835" data-name="Grupo 1109835" transform="translate(0 0)">
          <g id="Grupo_1107913" data-name="Grupo 1107913" transform="translate(0 0)">
            <g transform="matrix(1, 0, 0, 1, -9, -6)" filter="url(#Trazado_874925)">
              <g id="Trazado_874925-2" data-name="Trazado 874925" transform="translate(9 6)" fill="#bb965f" opacity="0.859">
                <path d="M 49.99972534179688 98.4998779296875 C 43.45164108276367 98.4998779296875 37.10022354125977 97.21776580810547 31.12189674377441 94.68914794921875 C 25.34676742553711 92.24647521972656 20.15985298156738 88.74925994873047 15.70523929595947 84.29464721679688 C 11.25062561035156 79.84004974365234 7.753411293029785 74.65313720703125 5.310725212097168 68.87800598144531 C 2.782111167907715 62.89969253540039 1.499996781349182 56.54829406738281 1.499996781349182 50.00022125244141 C 1.499996781349182 43.45157623291016 2.782111167907715 37.10017776489258 5.310725212097168 31.12186431884766 C 7.753411293029785 25.34673500061035 11.25062561035156 20.15983581542969 15.70523929595947 15.70522117614746 C 20.15985298156738 11.25062084197998 25.34676742553711 7.753406524658203 31.12189674377441 5.31073522567749 C 37.10022354125977 2.782120943069458 43.45164108276367 1.500006556510925 49.99972534179688 1.500006556510925 C 56.54780960083008 1.500006556510925 62.89922714233398 2.782120943069458 68.87755584716797 5.31073522567749 C 74.65267944335938 7.753406524658203 79.839599609375 11.25062084197998 84.29421234130859 15.70522117614746 C 88.74882507324219 20.15983581542969 92.24604034423828 25.34673500061035 94.68872833251953 31.12186431884766 C 97.21733856201172 37.10017776489258 98.49945068359375 43.45157623291016 98.49945068359375 49.99964904785156 C 98.49945068359375 56.54829406738281 97.21733856201172 62.89969253540039 94.68872833251953 68.87800598144531 C 92.24604034423828 74.65313720703125 88.74882507324219 79.84004974365234 84.29421234130859 84.29464721679688 C 79.839599609375 88.74925994873047 74.65267944335938 92.24647521972656 68.87755584716797 94.68914794921875 C 62.89922714233398 97.21776580810547 56.54780960083008 98.4998779296875 49.99972534179688 98.4998779296875 Z" stroke="none"/>
                <path d="M 49.99972534179688 3 C 43.65348052978516 3 37.49866485595703 4.242240905761719 31.70623016357422 6.692230224609375 C 26.10989379882812 9.059272766113281 21.08323669433594 12.44853210449219 16.76589202880859 16.76587677001953 C 12.44855499267578 21.08321380615234 9.059295654296875 26.10985565185547 6.692230224609375 31.70618438720703 C 4.24224853515625 37.49859619140625 3 43.65341186523438 3 50.00022888183594 C 3 56.34645843505859 4.24224853515625 62.50127410888672 6.692230224609375 68.29368591308594 C 9.059295654296875 73.8900146484375 12.44855499267578 78.91665649414062 16.76589202880859 83.23399353027344 C 21.08323669433594 87.55132293701172 26.10989379882812 90.94059753417969 31.70623016357422 93.30764007568359 C 37.49866485595703 95.75762939453125 43.65348052978516 96.99987030029297 49.99972534179688 96.99987030029297 C 56.34597015380859 96.99987030029297 62.50078582763672 95.75762939453125 68.293212890625 93.30764007568359 C 73.88955688476562 90.94059753417969 78.91621398925781 87.55132293701172 83.23355865478516 83.23399353027344 C 87.55089569091797 78.91665649414062 90.94015502929688 73.8900146484375 93.30722045898438 68.29368591308594 C 95.7572021484375 62.50127410888672 96.99945068359375 56.34645843505859 96.99945068359375 49.99964141845703 C 96.99945068359375 43.65341186523438 95.7572021484375 37.49859619140625 93.30722045898438 31.70618438720703 C 90.94015502929688 26.10985565185547 87.55089569091797 21.08321380615234 83.23355865478516 16.76587677001953 C 78.91621398925781 12.44853210449219 73.88955688476562 9.059272766113281 68.293212890625 6.692230224609375 C 62.50078582763672 4.242240905761719 56.34597015380859 3 49.99972534179688 3 M 49.99972534179688 0 C 77.61381530761719 0 99.99945068359375 22.38559722900391 99.99945068359375 49.99964141845703 L 99.99945068359375 50.00022888183594 C 99.99945068359375 77.6142578125 77.61381530761719 99.99987030029297 49.99972534179688 99.99987030029297 C 22.38563537597656 99.99987030029297 0 77.6142578125 0 50.00022888183594 L 0 49.99964141845703 C 0 22.38559722900391 22.38563537597656 0 49.99972534179688 0 Z" stroke="none" fill="#fff"/>
              </g>
            </g>
            <g id="Trazado_874923" data-name="Trazado 874923" transform="translate(0 0)" fill="none">
              <path d="M50,0a50,50,0,0,1,50,50h0A50,50,0,0,1,0,50H0A50,50,0,0,1,50,0Z" stroke="none"/>
              <path d="M 49.99972534179688 3 C 43.65348052978516 3 37.49866485595703 4.242240905761719 31.70623016357422 6.692230224609375 C 26.10989379882812 9.059272766113281 21.08323669433594 12.44853210449219 16.76589202880859 16.76587677001953 C 12.44855499267578 21.08321380615234 9.059295654296875 26.10985565185547 6.692230224609375 31.70618438720703 C 4.24224853515625 37.49859619140625 3 43.65341186523438 3 50.00022888183594 C 3 56.34645843505859 4.24224853515625 62.50127410888672 6.692230224609375 68.29368591308594 C 9.059295654296875 73.8900146484375 12.44855499267578 78.91665649414062 16.76589202880859 83.23399353027344 C 21.08323669433594 87.55132293701172 26.10989379882812 90.94059753417969 31.70623016357422 93.30764007568359 C 37.49866485595703 95.75762939453125 43.65348052978516 96.99987030029297 49.99972534179688 96.99987030029297 C 56.34597015380859 96.99987030029297 62.50078582763672 95.75762939453125 68.293212890625 93.30764007568359 C 73.88955688476562 90.94059753417969 78.91621398925781 87.55132293701172 83.23355865478516 83.23399353027344 C 87.55089569091797 78.91665649414062 90.94015502929688 73.8900146484375 93.30722045898438 68.29368591308594 C 95.7572021484375 62.50127410888672 96.99945068359375 56.34645843505859 96.99945068359375 49.99964141845703 C 96.99945068359375 43.65341186523438 95.7572021484375 37.49859619140625 93.30722045898438 31.70618438720703 C 90.94015502929688 26.10985565185547 87.55089569091797 21.08321380615234 83.23355865478516 16.76587677001953 C 78.91621398925781 12.44853210449219 73.88955688476562 9.059272766113281 68.293212890625 6.692230224609375 C 62.50078582763672 4.242240905761719 56.34597015380859 3 49.99972534179688 3 M 49.99972534179688 0 C 77.61381530761719 0 99.99945068359375 22.38559722900391 99.99945068359375 49.99964141845703 L 99.99945068359375 50.00022888183594 C 99.99945068359375 77.6142578125 77.61381530761719 99.99987030029297 49.99972534179688 99.99987030029297 C 22.38563537597656 99.99987030029297 0 77.6142578125 0 50.00022888183594 L 0 49.99964141845703 C 0 22.38559722900391 22.38563537597656 0 49.99972534179688 0 Z" stroke="none" fill="#fff"/>
            </g>
          </g>
        </g>
      </g>
    </g>
    <g id="Grupo_1123444" data-name="Grupo 1123444" transform="translate(1093.051 3961.473)">
      <g id="Grupo_1123441" data-name="Grupo 1123441" transform="translate(2.731 51.249)">
        <path id="Trazado_920211" data-name="Trazado 920211" d="M22.5,168.179a.344.344,0,0,0-.11.5c.919,1.293,4.394,5.647,7.44,2.325C29.827,171,29.3,165.172,22.5,168.179Z" transform="translate(-22.325 -159.017)" fill="#80d261"/>
        <path id="Trazado_920212" data-name="Trazado 920212" d="M94.214,107.243s-4.448-2.053-.514-7.482a.6.6,0,0,1,1.029,0C98.661,105.19,94.214,107.243,94.214,107.243Z" transform="translate(-83.542 -99.47)" fill="#80d261"/>
        <path id="Trazado_920213" data-name="Trazado 920213" d="M450.5,164.155a.344.344,0,0,1,.11.5c-.919,1.293-4.394,5.647-7.44,2.325C443.173,166.978,443.7,161.148,450.5,164.155Z" transform="translate(-391.688 -155.485)" fill="#80d261"/>
        <path id="Trazado_920214" data-name="Trazado 920214" d="M397.025,116.241s-4.448-2.053-.514-7.482a.6.6,0,0,1,1.029,0C401.472,114.188,397.025,116.241,397.025,116.241Z" transform="translate(-349.308 -107.367)" fill="#80d261"/>
      </g>
      <path id="Trazado_920215" data-name="Trazado 920215" d="M272.336,180.827a.336.336,0,0,1-.169.47c-1.435.593-6.584,2.39-7.377-1.95C264.79,179.347,268.264,174.789,272.336,180.827Z" transform="translate(-232.396 -116.879)" fill="#97da7b"/>
      <path id="Trazado_920216" data-name="Trazado 920216" d="M68.3,233.727v21.138a1.49,1.49,0,0,1-1.49,1.49H8.99a1.49,1.49,0,0,1-1.49-1.49V233.727a1.49,1.49,0,0,1,1.49-1.49h2.974c2.848,0,5.46-4.264,12.2-4.264s9.586,4.264,12.2,4.264h3.09c2.849,0,5.46-4.264,12.2-4.264s9.588,4.264,12.2,4.264h2.974A1.49,1.49,0,0,1,68.3,233.727Z" transform="translate(-6.582 -161.003)" fill="#bc7c63"/>
      <g id="Grupo_1123442" data-name="Grupo 1123442" transform="translate(15.745 66.97)">
        <path id="Trazado_920217" data-name="Trazado 920217" d="M363.7,232.238h3.67c-2.608,0-5.46-4.264-12.2-4.264a14.859,14.859,0,0,0-1.832.111C358.788,228.755,361.345,232.238,363.7,232.238Z" transform="translate(-325.863 -227.974)" fill="#aa6a51"/>
        <path id="Trazado_920218" data-name="Trazado 920218" d="M139.063,232.238h3.09a2.964,2.964,0,0,0,.3-.017c-2.538-.281-5.42-4.247-11.918-4.247a14.858,14.858,0,0,0-1.832.111C134.148,228.755,136.7,232.238,139.063,232.238Z" transform="translate(-128.705 -227.974)" fill="#aa6a51"/>
        <path id="Trazado_920219" data-name="Trazado 920219" d="M465.988,262.829H463.57c.353,0,.238.667.238,1.49v21.138a1.49,1.49,0,0,1-1.49,1.49h3.67a1.49,1.49,0,0,0,1.49-1.49V264.319A1.49,1.49,0,0,0,465.988,262.829Z" transform="translate(-421.505 -258.565)" fill="#aa6a51"/>
      </g>
      <path id="Trazado_920220" data-name="Trazado 920220" d="M443.133,398.253a2.17,2.17,0,0,0-2.821,3.3,2.169,2.169,0,1,0,2.821-3.3Z" transform="translate(-385.738 -309.943)" fill="#935b44"/>
      <path id="Trazado_920221" data-name="Trazado 920221" d="M60.974,379.953a2.17,2.17,0,0,0-2.821,3.3,2.169,2.169,0,1,0,2.821-3.3Z" transform="translate(-50.331 -293.881)" fill="#935b44"/>
      <path id="Trazado_920222" data-name="Trazado 920222" d="M406.6,298.157a2.17,2.17,0,0,0-2.821,3.3,2.169,2.169,0,1,0,2.821-3.3Z" transform="translate(-353.674 -222.092)" fill="#935b44"/>
      <path id="Trazado_920223" data-name="Trazado 920223" d="M241.906,345.023a1.926,1.926,0,0,0,0,1.521,2.379,2.379,0,0,1,.194.945,2.252,2.252,0,1,1-4.5,0,2.379,2.379,0,0,1,.194-.945,1.926,1.926,0,0,0,0-1.521,2.379,2.379,0,0,1-.194-.945,2.252,2.252,0,1,1,4.5,0A2.379,2.379,0,0,1,241.906,345.023Z" transform="translate(-208.531 -260.866)" fill="#ffd15b"/>
      <path id="Trazado_920224" data-name="Trazado 920224" d="M158.127,312.735a1.926,1.926,0,0,0-1.421.542,2.379,2.379,0,0,1-.814.518,2.252,2.252,0,1,1-1.6-4.207,2.378,2.378,0,0,1,.953-.155,1.926,1.926,0,0,0,1.421-.542,2.378,2.378,0,0,1,.814-.518,2.252,2.252,0,1,1,1.6,4.207A2.377,2.377,0,0,1,158.127,312.735Z" transform="translate(-134.086 -231.429)" fill="#ffd15b"/>
      <path id="Trazado_920225" data-name="Trazado 920225" d="M298.274,312.735a1.926,1.926,0,0,1,1.421.542,2.379,2.379,0,0,0,.814.518,2.252,2.252,0,1,0,1.6-4.207,2.378,2.378,0,0,0-.953-.155,1.926,1.926,0,0,1-1.421-.542,2.378,2.378,0,0,0-.814-.518,2.252,2.252,0,1,0-1.6,4.207A2.378,2.378,0,0,0,298.274,312.735Z" transform="translate(-259.621 -231.429)" fill="#ffd15b"/>
      <path id="Trazado_920226" data-name="Trazado 920226" d="M317.286,92.879a.384.384,0,0,1,.123.557c-1.027,1.445-4.91,6.31-8.314,2.6C309.095,96.034,309.682,89.519,317.286,92.879Z" transform="translate(-271.281 -41.591)" fill="#97da7b"/>
      <path id="Trazado_920227" data-name="Trazado 920227" d="M157.135,128.752a.384.384,0,0,0-.123.557c1.027,1.445,4.91,6.31,8.314,2.6C165.326,131.907,164.739,125.392,157.135,128.752Z" transform="translate(-137.743 -73.076)" fill="#97da7b"/>
      <path id="Trazado_920228" data-name="Trazado 920228" d="M238.857,60.66s-4.97-2.294-.575-8.36a.67.67,0,0,1,1.15,0C243.827,58.366,238.857,60.66,238.857,60.66Z" transform="translate(-207.539 -6.536)" fill="#97da7b"/>
      <g id="Grupo_1123443" data-name="Grupo 1123443" transform="translate(0 44.527)">
        <path id="Trazado_920229" data-name="Trazado 920229" d="M187.722,70.316h-2.974a6.723,6.723,0,0,1-2.839-1.268,27.949,27.949,0,0,0-2.848-1.564,4.44,4.44,0,0,1,2.48-3.629,3.931,3.931,0,0,0,2.873,1.021c2.542-.158,4.681-2.8,5.482-3.927a1.268,1.268,0,0,0,.186-1.076,1.208,1.208,0,0,0-.673-.793c-2.576-1.138-4.683-1.244-6.262-.314a5.155,5.155,0,0,0-2.266,3.374,7.2,7.2,0,0,0-2.024,1.483V60.643a4.839,4.839,0,0,0,1.989-2.735c.45-1.72-.1-3.673-1.649-5.8a1.522,1.522,0,0,0-2.515,0c-1.544,2.131-2.1,4.084-1.649,5.8a4.839,4.839,0,0,0,1.989,2.735V66.7a15.976,15.976,0,0,0-13.62,2.281,6.8,6.8,0,0,1-3.047,1.331h-.628V66.97q0-1.21.109-2.3a3.689,3.689,0,0,0,1.17,1c1.869,1.124,5.224.228,6.606-.4a1.261,1.261,0,0,0,.726-.807,1.2,1.2,0,0,0-.147-1.024h0c-1.546-2.292-3.242-3.48-5.041-3.532a4.49,4.49,0,0,0-2.362.624,9.528,9.528,0,0,1,4.337-4.978c3.549,3.209,7.7-.881,9.241-3.173a1.31,1.31,0,0,0,.191-1.111,1.242,1.242,0,0,0-.691-.816h0c-2.846-1.257-5.167-1.377-6.9-.357a5.658,5.658,0,0,0-2.486,3.718,11.164,11.164,0,0,0-4.754,4.618V54.649c3.111-2.041,3.069-5.921.4-9.423a1.593,1.593,0,0,0-2.636,0c-1.705,2.354-2.319,4.506-1.825,6.4a5.309,5.309,0,0,0,2.226,3.027v5.294a7.642,7.642,0,0,0-1.968-1.619,5.71,5.71,0,0,0-2.512-3.844c-1.732-1.02-4.053-.9-6.9.357h0a1.307,1.307,0,0,0-.5,1.928c.887,1.248,3.251,4.169,6.045,4.343a4.283,4.283,0,0,0,3.113-1.1c1.925,1.2,2.721,2.659,2.721,8.6v1.7h-.628a6.723,6.723,0,0,1-2.84-1.269,27.816,27.816,0,0,0-2.873-1.577.918.918,0,1,0-.765,1.668,26.285,26.285,0,0,1,2.687,1.479,7.788,7.788,0,0,0,3.79,1.534h.628V75.7l-3.637,1.387a3.139,3.139,0,0,0-1.243-.953,3.3,3.3,0,0,0-3.586.673,1.01,1.01,0,0,1-.741.283,3.3,3.3,0,0,0-1.319.215,3.258,3.258,0,0,0-1.8,1.671,3.112,3.112,0,0,0-.094,2.444,3.215,3.215,0,0,0,4.156,1.806,3.28,3.28,0,0,0,1.127-.718,1,1,0,0,1,.741-.283h0a3.292,3.292,0,0,0,1.319-.215,3.258,3.258,0,0,0,1.8-1.671,3.138,3.138,0,0,0,.293-1.538l2.983-1.138v2.45a3.285,3.285,0,0,0-1.982,4.41,1,1,0,0,1,0,.793,3.2,3.2,0,1,0,5.8,0,1,1,0,0,1,0-.793,3.28,3.28,0,0,0,.269-1.309,3.237,3.237,0,0,0-2.251-3.1V77.639l3.041,1.16a3.141,3.141,0,0,0,.293,1.538,3.3,3.3,0,0,0,3.123,1.886h0a1,1,0,0,1,.741.283,3.3,3.3,0,0,0,3.586.673,3.12,3.12,0,0,0,1.6-4.205,3.3,3.3,0,0,0-3.123-1.886.994.994,0,0,1-.741-.283,3.3,3.3,0,0,0-3.586-.673,3.139,3.139,0,0,0-1.243.953l-3.695-1.409V72.151h.628a7.988,7.988,0,0,0,4-1.6,14.089,14.089,0,0,1,12.664-1.918v.56c-.036.735-.037,1.543,0,2.443v3.787a4.136,4.136,0,0,0-.309.324,2.862,2.862,0,0,0,.288,4.31,3.087,3.087,0,1,0,4.015-4.689h0a3.006,3.006,0,0,0-2.158-.8v-5.15c1.947.919,3.911,2.709,5.89,2.728h2.974a.573.573,0,0,1,.573.573V93.862a.573.573,0,0,1-.573.573h-9.666a.918.918,0,0,0,0,1.835h9.666a2.41,2.41,0,0,0,2.408-2.408V72.724a2.41,2.41,0,0,0-2.408-2.408Zm-3.631-9.976c.9-.524,2.228-.477,3.87.13-1.027,1.28-2.416,2.5-3.659,2.574a2.17,2.17,0,0,1-1.6-.615A3.291,3.291,0,0,1,184.091,60.34Zm-20.991,1.4c1.011.029,2.08.75,3.12,2.1-1.509.519-3.274.8-4.333.219a2.1,2.1,0,0,1-1-1.323A3.217,3.217,0,0,1,163.1,61.737Zm4.813-10.072c1.075-.627,2.605-.564,4.556.188-.85,1.081-2.543,2.927-4.258,3.034a2.549,2.549,0,0,1-1.917-.757A3.822,3.822,0,0,1,167.913,51.666Zm-15.737,7.61c-1.715-.107-3.408-1.953-4.258-3.034,1.95-.751,3.48-.815,4.556-.188a3.823,3.823,0,0,1,1.62,2.465A2.546,2.546,0,0,1,152.175,59.276Zm6.637-12.737c1.786,2.484,2.1,5.046,0,6.513a3.457,3.457,0,0,1-1.373-1.916C157.116,49.864,157.577,48.32,158.812,46.539Zm-5.856,33.022a1.431,1.431,0,0,1-.795.732,1.45,1.45,0,0,1-.586.1,2.847,2.847,0,0,0-2.1.8,1.455,1.455,0,0,1-.5.318,1.372,1.372,0,0,1-1.788-.745,1.293,1.293,0,0,1,.042-1.015,1.431,1.431,0,0,1,.795-.732,1.453,1.453,0,0,1,.585-.1,2.842,2.842,0,0,0,2.1-.8,1.466,1.466,0,0,1,1.581-.3,1.285,1.285,0,0,1,.665,1.743Zm12.435-1.743a1.466,1.466,0,0,1,1.581.3,2.845,2.845,0,0,0,2.1.8,1.465,1.465,0,0,1,1.381.828,1.285,1.285,0,0,1-.665,1.743,1.432,1.432,0,0,1-1.08.017,1.456,1.456,0,0,1-.5-.318,2.846,2.846,0,0,0-2.1-.8,1.465,1.465,0,0,1-1.38-.828,1.285,1.285,0,0,1,.665-1.744Zm-5.245,5.394a1.456,1.456,0,0,1-.119.581h0a2.846,2.846,0,0,0,0,2.249,1.455,1.455,0,0,1,.119.581,1.372,1.372,0,0,1-1.334,1.4,1.412,1.412,0,0,1-1.215-1.986,2.846,2.846,0,0,0,0-2.249,1.411,1.411,0,0,1,1.215-1.986A1.372,1.372,0,0,1,160.146,83.212Zm19.677-6.45a1.252,1.252,0,1,1-1.628,1.9c-.419-.359-.808-.879-.087-1.722A1.057,1.057,0,0,1,179.823,76.762Zm-1.882-23.256c1.476,2.121,1.756,4.255,0,5.54a2.975,2.975,0,0,1-1.136-1.622C176.531,56.339,176.913,55.023,177.941,53.505Z" transform="translate(-127.494 -44.527)"/>
        <path id="Trazado_920230" data-name="Trazado 920230" d="M46.055,136.115H2.408a.573.573,0,0,1-.573-.573V114.4a.573.573,0,0,1,.573-.573H5.382a7.987,7.987,0,0,0,4-1.6,22.9,22.9,0,0,1,2.991-1.613c.075.835.112,1.835.112,3.051v2.393a.918.918,0,0,0,1.835,0v-6.1a13.973,13.973,0,0,1,5.128-.271.918.918,0,0,0,.244-1.819,15.925,15.925,0,0,0-5.372.2v-6.854c2.8-1.879,2.744-5.38.34-8.54a1.522,1.522,0,0,0-2.515,0c-2.4,3.158-2.456,6.666.34,8.54v4.435a6.848,6.848,0,0,0-1.382-1.134,5.242,5.242,0,0,0-2.308-3.585c-1.579-.93-3.685-.824-6.262.314h0a1.209,1.209,0,0,0-.672.793,1.269,1.269,0,0,0,.186,1.076c.8,1.128,2.94,3.769,5.482,3.928a3.886,3.886,0,0,0,2.722-.9,3.948,3.948,0,0,1,1.828,2.607,22.922,22.922,0,0,0-3.65,1.908A6.8,6.8,0,0,1,5.382,112H2.408A2.411,2.411,0,0,0,0,114.4v21.138a2.41,2.41,0,0,0,2.408,2.408H46.055a.918.918,0,0,0,0-1.835ZM13.4,94.085c1.028,1.517,1.41,2.834,1.136,3.918A2.974,2.974,0,0,1,13.4,99.625C11.646,98.338,11.926,96.208,13.4,94.085Zm-5.76,11.132c-1.243-.077-2.632-1.294-3.659-2.575,1.642-.607,2.97-.653,3.87-.13A3.293,3.293,0,0,1,9.246,104.6,2.17,2.17,0,0,1,7.642,105.217Z" transform="translate(0 -86.208)"/>
        <path id="Trazado_920231" data-name="Trazado 920231" d="M435.172,396.488a2.756,2.756,0,0,0,.315-.018,3.352,3.352,0,0,0,2.806-3.277,3.037,3.037,0,0,0-1.16-2.217,2.9,2.9,0,0,0-2.364-.772,3.526,3.526,0,0,0-2.778,3.245,2.9,2.9,0,0,0,1.127,2.217A3.119,3.119,0,0,0,435.172,396.488Zm-.948-3.939a1.451,1.451,0,0,1,.813-.53,1.151,1.151,0,0,1,.9.351h0a1.276,1.276,0,0,1,.52.894,1.54,1.54,0,0,1-1.184,1.383,1.275,1.275,0,0,1-.964-.376,1.158,1.158,0,0,1-.486-.837A1.452,1.452,0,0,1,434.223,392.549Z" transform="translate(-379.14 -347.89)"/>
        <path id="Trazado_920232" data-name="Trazado 920232" d="M54.977,372.673a2.9,2.9,0,0,0-2.364-.772,3.526,3.526,0,0,0-2.778,3.245,3.152,3.152,0,0,0,5.5,1.894,3.105,3.105,0,0,0,.806-2.15A3.036,3.036,0,0,0,54.977,372.673Zm-1.039,3.173a1.12,1.12,0,0,1-1.782.122,1.158,1.158,0,0,1-.486-.837,1.728,1.728,0,0,1,1.212-1.416,1.151,1.151,0,0,1,.9.351A1.135,1.135,0,0,1,53.938,375.847Z" transform="translate(-43.737 -331.826)"/>
      </g>
    </g>
  </g>
</svg>
