<svg xmlns="http://www.w3.org/2000/svg" xmlns:xlink="http://www.w3.org/1999/xlink" width="118" height="118" viewBox="0 0 118 118">
  <defs>
    <filter id="Trazado_874925" x="0" y="0" width="118" height="118" filterUnits="userSpaceOnUse">
      <feOffset dy="3" input="SourceAlpha"/>
      <feGaussianBlur stdDeviation="3" result="blur"/>
      <feFlood flood-opacity="0.161"/>
      <feComposite operator="in" in2="blur"/>
      <feComposite in="SourceGraphic"/>
    </filter>
  </defs>
  <g id="Grupo_1123451" data-name="Grupo 1123451" transform="translate(-3790 7632.1)">
    <g id="Grupo_1123450" data-name="Grupo 1123450">
      <g id="Grupo_1111552" data-name="Grupo 1111552" transform="translate(2990.5 -10143.257)">
        <g id="Grupo_1111316" data-name="Grupo 1111316" transform="translate(808.5 2517.157)">
          <g id="Grupo_1109835" data-name="Grupo 1109835" transform="translate(0 0)">
            <g id="Grupo_1107913" data-name="Grupo 1107913" transform="translate(0 0)">
              <g transform="matrix(1, 0, 0, 1, -9, -6)" filter="url(#Trazado_874925)">
                <g id="Trazado_874925-2" data-name="Trazado 874925" transform="translate(9 6)" fill="#bb965f" opacity="0.859">
                  <path d="M 49.99972534179688 98.4998779296875 C 43.45164108276367 98.4998779296875 37.10022354125977 97.21776580810547 31.12189674377441 94.68914794921875 C 25.34676742553711 92.24647521972656 20.15985298156738 88.74925994873047 15.70523929595947 84.29464721679688 C 11.25062561035156 79.84004974365234 7.753411293029785 74.65313720703125 5.310725212097168 68.87800598144531 C 2.782111167907715 62.89969253540039 1.499996781349182 56.54829406738281 1.499996781349182 50.00022125244141 C 1.499996781349182 43.45157623291016 2.782111167907715 37.10017776489258 5.310725212097168 31.12186431884766 C 7.753411293029785 25.34673500061035 11.25062561035156 20.15983581542969 15.70523929595947 15.70522117614746 C 20.15985298156738 11.25062084197998 25.34676742553711 7.753406524658203 31.12189674377441 5.31073522567749 C 37.10022354125977 2.782120943069458 43.45164108276367 1.500006556510925 49.99972534179688 1.500006556510925 C 56.54780960083008 1.500006556510925 62.89922714233398 2.782120943069458 68.87755584716797 5.31073522567749 C 74.65267944335938 7.753406524658203 79.839599609375 11.25062084197998 84.29421234130859 15.70522117614746 C 88.74882507324219 20.15983581542969 92.24604034423828 25.34673500061035 94.68872833251953 31.12186431884766 C 97.21733856201172 37.10017776489258 98.49945068359375 43.45157623291016 98.49945068359375 49.99964904785156 C 98.49945068359375 56.54829406738281 97.21733856201172 62.89969253540039 94.68872833251953 68.87800598144531 C 92.24604034423828 74.65313720703125 88.74882507324219 79.84004974365234 84.29421234130859 84.29464721679688 C 79.839599609375 88.74925994873047 74.65267944335938 92.24647521972656 68.87755584716797 94.68914794921875 C 62.89922714233398 97.21776580810547 56.54780960083008 98.4998779296875 49.99972534179688 98.4998779296875 Z" stroke="none"/>
                  <path d="M 49.99972534179688 3 C 43.65348052978516 3 37.49866485595703 4.242240905761719 31.70623016357422 6.692230224609375 C 26.10989379882812 9.059272766113281 21.08323669433594 12.44853210449219 16.76589202880859 16.76587677001953 C 12.44855499267578 21.08321380615234 9.059295654296875 26.10985565185547 6.692230224609375 31.70618438720703 C 4.24224853515625 37.49859619140625 3 43.65341186523438 3 50.00022888183594 C 3 56.34645843505859 4.24224853515625 62.50127410888672 6.692230224609375 68.29368591308594 C 9.059295654296875 73.8900146484375 12.44855499267578 78.91665649414062 16.76589202880859 83.23399353027344 C 21.08323669433594 87.55132293701172 26.10989379882812 90.94059753417969 31.70623016357422 93.30764007568359 C 37.49866485595703 95.75762939453125 43.65348052978516 96.99987030029297 49.99972534179688 96.99987030029297 C 56.34597015380859 96.99987030029297 62.50078582763672 95.75762939453125 68.293212890625 93.30764007568359 C 73.88955688476562 90.94059753417969 78.91621398925781 87.55132293701172 83.23355865478516 83.23399353027344 C 87.55089569091797 78.91665649414062 90.94015502929688 73.8900146484375 93.30722045898438 68.29368591308594 C 95.7572021484375 62.50127410888672 96.99945068359375 56.34645843505859 96.99945068359375 49.99964141845703 C 96.99945068359375 43.65341186523438 95.7572021484375 37.49859619140625 93.30722045898438 31.70618438720703 C 90.94015502929688 26.10985565185547 87.55089569091797 21.08321380615234 83.23355865478516 16.76587677001953 C 78.91621398925781 12.44853210449219 73.88955688476562 9.059272766113281 68.293212890625 6.692230224609375 C 62.50078582763672 4.242240905761719 56.34597015380859 3 49.99972534179688 3 M 49.99972534179688 0 C 77.61381530761719 0 99.99945068359375 22.38559722900391 99.99945068359375 49.99964141845703 L 99.99945068359375 50.00022888183594 C 99.99945068359375 77.6142578125 77.61381530761719 99.99987030029297 49.99972534179688 99.99987030029297 C 22.38563537597656 99.99987030029297 0 77.6142578125 0 50.00022888183594 L 0 49.99964141845703 C 0 22.38559722900391 22.38563537597656 0 49.99972534179688 0 Z" stroke="none" fill="#fff"/>
                </g>
              </g>
              <g id="Trazado_874923" data-name="Trazado 874923" transform="translate(0 0)" fill="none">
                <path d="M50,0a50,50,0,0,1,50,50h0A50,50,0,0,1,0,50H0A50,50,0,0,1,50,0Z" stroke="none"/>
                <path d="M 49.99972534179688 3 C 43.65348052978516 3 37.49866485595703 4.242240905761719 31.70623016357422 6.692230224609375 C 26.10989379882812 9.059272766113281 21.08323669433594 12.44853210449219 16.76589202880859 16.76587677001953 C 12.44855499267578 21.08321380615234 9.059295654296875 26.10985565185547 6.692230224609375 31.70618438720703 C 4.24224853515625 37.49859619140625 3 43.65341186523438 3 50.00022888183594 C 3 56.34645843505859 4.24224853515625 62.50127410888672 6.692230224609375 68.29368591308594 C 9.059295654296875 73.8900146484375 12.44855499267578 78.91665649414062 16.76589202880859 83.23399353027344 C 21.08323669433594 87.55132293701172 26.10989379882812 90.94059753417969 31.70623016357422 93.30764007568359 C 37.49866485595703 95.75762939453125 43.65348052978516 96.99987030029297 49.99972534179688 96.99987030029297 C 56.34597015380859 96.99987030029297 62.50078582763672 95.75762939453125 68.293212890625 93.30764007568359 C 73.88955688476562 90.94059753417969 78.91621398925781 87.55132293701172 83.23355865478516 83.23399353027344 C 87.55089569091797 78.91665649414062 90.94015502929688 73.8900146484375 93.30722045898438 68.29368591308594 C 95.7572021484375 62.50127410888672 96.99945068359375 56.34645843505859 96.99945068359375 49.99964141845703 C 96.99945068359375 43.65341186523438 95.7572021484375 37.49859619140625 93.30722045898438 31.70618438720703 C 90.94015502929688 26.10985565185547 87.55089569091797 21.08321380615234 83.23355865478516 16.76587677001953 C 78.91621398925781 12.44853210449219 73.88955688476562 9.059272766113281 68.293212890625 6.692230224609375 C 62.50078582763672 4.242240905761719 56.34597015380859 3 49.99972534179688 3 M 49.99972534179688 0 C 77.61381530761719 0 99.99945068359375 22.38559722900391 99.99945068359375 49.99964141845703 L 99.99945068359375 50.00022888183594 C 99.99945068359375 77.6142578125 77.61381530761719 99.99987030029297 49.99972534179688 99.99987030029297 C 22.38563537597656 99.99987030029297 0 77.6142578125 0 50.00022888183594 L 0 49.99964141845703 C 0 22.38559722900391 22.38563537597656 0 49.99972534179688 0 Z" stroke="none" fill="#fff"/>
              </g>
            </g>
          </g>
        </g>
      </g>
      <g id="Grupo_1123449" data-name="Grupo 1123449" transform="translate(3817 -7608)">
        <g id="Grupo_1123447" data-name="Grupo 1123447">
          <g id="Grupo_1123446" data-name="Grupo 1123446">
            <circle id="Elipse_11988" data-name="Elipse 11988" cx="2.5" cy="2.5" r="2.5" transform="translate(37 48)" fill="#9b7868"/>
            <circle id="Elipse_11989" data-name="Elipse 11989" cx="2.5" cy="2.5" r="2.5" transform="translate(19 53)" fill="#9b7868"/>
            <circle id="Elipse_11990" data-name="Elipse 11990" cx="2" cy="2" r="2" transform="translate(29 42)" fill="#9b7868"/>
          </g>
          <path id="Trazado_920233" data-name="Trazado 920233" d="M54.69,54.56A5.048,5.048,0,0,1,50.95,63H13.05a5.048,5.048,0,0,1-3.74-8.44L23.65,38.71a11.252,11.252,0,0,1,16.7,0ZM42,50.5A2.5,2.5,0,1,0,39.5,53,2.5,2.5,0,0,0,42,50.5ZM33,44a2,2,0,1,0-2,2A2.006,2.006,0,0,0,33,44ZM24,55.5A2.5,2.5,0,1,0,21.5,58,2.5,2.5,0,0,0,24,55.5Z" fill="#af9084"/>
          <path id="Trazado_920234" data-name="Trazado 920234" d="M42,18h5v6H42Z" fill="#ea9939"/>
          <path id="Trazado_920235" data-name="Trazado 920235" d="M42,18v6H37V11h5Z" fill="#7fc94f"/>
          <path id="Trazado_920236" data-name="Trazado 920236" d="M32,15h5v9H32Z" fill="#d74c4c"/>
          <path id="Trazado_920237" data-name="Trazado 920237" d="M25.2,20.4A9,9,0,1,0,18,24,8.964,8.964,0,0,0,25.2,20.4ZM60,10V29H4V10a9.014,9.014,0,0,1,9-9H51A9,9,0,0,1,60,10ZM47,24V18H42V11H37v4H32v9Z" fill="#e6e6e6"/>
          <path id="Trazado_920238" data-name="Trazado 920238" d="M27,15a8.964,8.964,0,0,1-1.8,5.4L18,15V6A9,9,0,0,1,27,15Z" fill="#d74c4c"/>
          <path id="Trazado_920239" data-name="Trazado 920239" d="M18,15l7.2,5.4A9,9,0,1,1,18,6Z" fill="#ea9939"/>
        </g>
        <g id="Grupo_1123448" data-name="Grupo 1123448">
          <circle id="Elipse_11991" data-name="Elipse 11991" cx="1" cy="1" r="1" transform="translate(51 44)" fill="#252525"/>
          <circle id="Elipse_11992" data-name="Elipse 11992" cx="1" cy="1" r="1" transform="translate(11 44)" fill="#252525"/>
          <circle id="Elipse_11993" data-name="Elipse 11993" cx="1.5" cy="1.5" r="1.5" transform="translate(31 5)" fill="#252525"/>
          <circle id="Elipse_11994" data-name="Elipse 11994" cx="1.5" cy="1.5" r="1.5" transform="translate(36 5)" fill="#252525"/>
          <circle id="Elipse_11995" data-name="Elipse 11995" cx="1.5" cy="1.5" r="1.5" transform="translate(29 52)" fill="#252525"/>
          <circle id="Elipse_11996" data-name="Elipse 11996" cx="1.5" cy="1.5" r="1.5" transform="translate(45 55)" fill="#252525"/>
          <path id="Trazado_920240" data-name="Trazado 920240" d="M41.092,38.04a12.253,12.253,0,0,0-18.184,0L8.568,53.89A6.053,6.053,0,0,0,7,57.951,6.053,6.053,0,0,0,13.05,64h37.9a6.049,6.049,0,0,0,4.482-10.112L41.093,38.039ZM50.95,62H13.05A4.053,4.053,0,0,1,9,57.951a4.057,4.057,0,0,1,1.052-2.72L24.391,39.382a10.252,10.252,0,0,1,15.218,0L53.948,55.23a4.049,4.049,0,0,1-3,6.771Z" fill="#252525"/>
          <path id="Trazado_920241" data-name="Trazado 920241" d="M51,0H13A10.014,10.014,0,0,0,3,10V37a1,1,0,0,0,.293.707l5,5a1.047,1.047,0,0,0,1.414,0,.993.993,0,0,0,0-1.414L5,36.586V30H59v6.586l-4.707,4.707a1,1,0,0,0,0,1.414.893.893,0,0,0,1.414,0l5-5A1,1,0,0,0,61,37V10A10.011,10.011,0,0,0,51,0ZM5,10a8.015,8.015,0,0,1,8-8H51a8.009,8.009,0,0,1,8,8V28H5Z" fill="#252525"/>
          <path id="Trazado_920242" data-name="Trazado 920242" d="M18,5A10,10,0,1,0,28,15,10.011,10.011,0,0,0,18,5ZM10,15a8.008,8.008,0,0,1,7-7.931V15a1,1,0,0,0,.4.8l6.348,4.761A8,8,0,0,1,10,15Zm14.936,3.952L19,14.5V7.069a7.965,7.965,0,0,1,5.936,11.883Z" fill="#252525"/>
          <path id="Trazado_920243" data-name="Trazado 920243" d="M47,17H43V11a1,1,0,0,0-1-1H37a1,1,0,0,0-1,1v3H32a1,1,0,0,0-1,1v9a1,1,0,0,0,1,1H47a1,1,0,0,0,1-1V18A1,1,0,0,0,47,17Zm-9-5h3V23H38Zm-5,4h3v7H33Zm13,7H43V19h3Z" fill="#252525"/>
          <path id="Trazado_920244" data-name="Trazado 920244" d="M45,8h8a1,1,0,0,0,0-2H45a1,1,0,0,0,0,2Z" fill="#252525"/>
          <path id="Trazado_920245" data-name="Trazado 920245" d="M55,11H51a1,1,0,0,0,0,2h4a1,1,0,0,0,0-2Z" fill="#252525"/>
          <path id="Trazado_920246" data-name="Trazado 920246" d="M55,15H51a1,1,0,0,0,0,2h4a1,1,0,0,0,0-2Z" fill="#252525"/>
          <path id="Trazado_920247" data-name="Trazado 920247" d="M55,19H51a1,1,0,0,0,0,2h4a1,1,0,0,0,0-2Z" fill="#252525"/>
          <path id="Trazado_920248" data-name="Trazado 920248" d="M21.5,52a3.5,3.5,0,0,0,0,7,1,1,0,0,0,0-2A1.5,1.5,0,1,1,23,55.5a1,1,0,0,0,2,0A3.5,3.5,0,0,0,21.5,52Z" fill="#252525"/>
          <path id="Trazado_920249" data-name="Trazado 920249" d="M39.5,47A3.5,3.5,0,0,0,36,50.5a1,1,0,0,0,2,0A1.5,1.5,0,1,1,39.5,52a1,1,0,0,0,0,2,3.5,3.5,0,0,0,0-7Z" fill="#252525"/>
          <path id="Trazado_920250" data-name="Trazado 920250" d="M31,41a3,3,0,0,0-3,3,1,1,0,0,0,2,0,1,1,0,0,1,2,0,1,1,0,0,0,2,0A3,3,0,0,0,31,41Z" fill="#252525"/>
        </g>
      </g>
    </g>
  </g>
</svg>
