<svg xmlns="http://www.w3.org/2000/svg" xmlns:xlink="http://www.w3.org/1999/xlink" width="118" height="118" viewBox="0 0 118 118">
  <defs>
    <filter id="Trazado_874925" x="0" y="0" width="118" height="118" filterUnits="userSpaceOnUse">
      <feOffset dy="3" input="SourceAlpha"/>
      <feGaussianBlur stdDeviation="3" result="blur"/>
      <feFlood flood-opacity="0.161"/>
      <feComposite operator="in" in2="blur"/>
      <feComposite in="SourceGraphic"/>
    </filter>
  </defs>
  <g id="Grupo_1123459" data-name="Grupo 1123459" transform="translate(-4741 7632.1)">
    <g id="Grupo_1111553" data-name="Grupo 1111553" transform="translate(3941.5 -10143.257)">
      <g id="Grupo_1111316" data-name="Grupo 1111316" transform="translate(808.5 2517.157)">
        <g id="Grupo_1109835" data-name="Grupo 1109835" transform="translate(0 0)">
          <g id="Grupo_1107913" data-name="Grupo 1107913" transform="translate(0 0)">
            <g transform="matrix(1, 0, 0, 1, -9, -6)" filter="url(#Trazado_874925)">
              <g id="Trazado_874925-2" data-name="Trazado 874925" transform="translate(9 6)" fill="#bb965f" opacity="0.859">
                <path d="M 49.99972534179688 98.4998779296875 C 43.45164108276367 98.4998779296875 37.10022354125977 97.21776580810547 31.12189674377441 94.68914794921875 C 25.34676742553711 92.24647521972656 20.15985298156738 88.74925994873047 15.70523929595947 84.29464721679688 C 11.25062561035156 79.84004974365234 7.753411293029785 74.65313720703125 5.310725212097168 68.87800598144531 C 2.782111167907715 62.89969253540039 1.499996781349182 56.54829406738281 1.499996781349182 50.00022125244141 C 1.499996781349182 43.45157623291016 2.782111167907715 37.10017776489258 5.310725212097168 31.12186431884766 C 7.753411293029785 25.34673500061035 11.25062561035156 20.15983581542969 15.70523929595947 15.70522117614746 C 20.15985298156738 11.25062084197998 25.34676742553711 7.753406524658203 31.12189674377441 5.31073522567749 C 37.10022354125977 2.782120943069458 43.45164108276367 1.500006556510925 49.99972534179688 1.500006556510925 C 56.54780960083008 1.500006556510925 62.89922714233398 2.782120943069458 68.87755584716797 5.31073522567749 C 74.65267944335938 7.753406524658203 79.839599609375 11.25062084197998 84.29421234130859 15.70522117614746 C 88.74882507324219 20.15983581542969 92.24604034423828 25.34673500061035 94.68872833251953 31.12186431884766 C 97.21733856201172 37.10017776489258 98.49945068359375 43.45157623291016 98.49945068359375 49.99964904785156 C 98.49945068359375 56.54829406738281 97.21733856201172 62.89969253540039 94.68872833251953 68.87800598144531 C 92.24604034423828 74.65313720703125 88.74882507324219 79.84004974365234 84.29421234130859 84.29464721679688 C 79.839599609375 88.74925994873047 74.65267944335938 92.24647521972656 68.87755584716797 94.68914794921875 C 62.89922714233398 97.21776580810547 56.54780960083008 98.4998779296875 49.99972534179688 98.4998779296875 Z" stroke="none"/>
                <path d="M 49.99972534179688 3 C 43.65348052978516 3 37.49866485595703 4.242240905761719 31.70623016357422 6.692230224609375 C 26.10989379882812 9.059272766113281 21.08323669433594 12.44853210449219 16.76589202880859 16.76587677001953 C 12.44855499267578 21.08321380615234 9.059295654296875 26.10985565185547 6.692230224609375 31.70618438720703 C 4.24224853515625 37.49859619140625 3 43.65341186523438 3 50.00022888183594 C 3 56.34645843505859 4.24224853515625 62.50127410888672 6.692230224609375 68.29368591308594 C 9.059295654296875 73.8900146484375 12.44855499267578 78.91665649414062 16.76589202880859 83.23399353027344 C 21.08323669433594 87.55132293701172 26.10989379882812 90.94059753417969 31.70623016357422 93.30764007568359 C 37.49866485595703 95.75762939453125 43.65348052978516 96.99987030029297 49.99972534179688 96.99987030029297 C 56.34597015380859 96.99987030029297 62.50078582763672 95.75762939453125 68.293212890625 93.30764007568359 C 73.88955688476562 90.94059753417969 78.91621398925781 87.55132293701172 83.23355865478516 83.23399353027344 C 87.55089569091797 78.91665649414062 90.94015502929688 73.8900146484375 93.30722045898438 68.29368591308594 C 95.7572021484375 62.50127410888672 96.99945068359375 56.34645843505859 96.99945068359375 49.99964141845703 C 96.99945068359375 43.65341186523438 95.7572021484375 37.49859619140625 93.30722045898438 31.70618438720703 C 90.94015502929688 26.10985565185547 87.55089569091797 21.08321380615234 83.23355865478516 16.76587677001953 C 78.91621398925781 12.44853210449219 73.88955688476562 9.059272766113281 68.293212890625 6.692230224609375 C 62.50078582763672 4.242240905761719 56.34597015380859 3 49.99972534179688 3 M 49.99972534179688 0 C 77.61381530761719 0 99.99945068359375 22.38559722900391 99.99945068359375 49.99964141845703 L 99.99945068359375 50.00022888183594 C 99.99945068359375 77.6142578125 77.61381530761719 99.99987030029297 49.99972534179688 99.99987030029297 C 22.38563537597656 99.99987030029297 0 77.6142578125 0 50.00022888183594 L 0 49.99964141845703 C 0 22.38559722900391 22.38563537597656 0 49.99972534179688 0 Z" stroke="none" fill="#fff"/>
              </g>
            </g>
            <g id="Trazado_874923" data-name="Trazado 874923" transform="translate(0 0)" fill="none">
              <path d="M50,0a50,50,0,0,1,50,50h0A50,50,0,0,1,0,50H0A50,50,0,0,1,50,0Z" stroke="none"/>
              <path d="M 49.99972534179688 3 C 43.65348052978516 3 37.49866485595703 4.242240905761719 31.70623016357422 6.692230224609375 C 26.10989379882812 9.059272766113281 21.08323669433594 12.44853210449219 16.76589202880859 16.76587677001953 C 12.44855499267578 21.08321380615234 9.059295654296875 26.10985565185547 6.692230224609375 31.70618438720703 C 4.24224853515625 37.49859619140625 3 43.65341186523438 3 50.00022888183594 C 3 56.34645843505859 4.24224853515625 62.50127410888672 6.692230224609375 68.29368591308594 C 9.059295654296875 73.8900146484375 12.44855499267578 78.91665649414062 16.76589202880859 83.23399353027344 C 21.08323669433594 87.55132293701172 26.10989379882812 90.94059753417969 31.70623016357422 93.30764007568359 C 37.49866485595703 95.75762939453125 43.65348052978516 96.99987030029297 49.99972534179688 96.99987030029297 C 56.34597015380859 96.99987030029297 62.50078582763672 95.75762939453125 68.293212890625 93.30764007568359 C 73.88955688476562 90.94059753417969 78.91621398925781 87.55132293701172 83.23355865478516 83.23399353027344 C 87.55089569091797 78.91665649414062 90.94015502929688 73.8900146484375 93.30722045898438 68.29368591308594 C 95.7572021484375 62.50127410888672 96.99945068359375 56.34645843505859 96.99945068359375 49.99964141845703 C 96.99945068359375 43.65341186523438 95.7572021484375 37.49859619140625 93.30722045898438 31.70618438720703 C 90.94015502929688 26.10985565185547 87.55089569091797 21.08321380615234 83.23355865478516 16.76587677001953 C 78.91621398925781 12.44853210449219 73.88955688476562 9.059272766113281 68.293212890625 6.692230224609375 C 62.50078582763672 4.242240905761719 56.34597015380859 3 49.99972534179688 3 M 49.99972534179688 0 C 77.61381530761719 0 99.99945068359375 22.38559722900391 99.99945068359375 49.99964141845703 L 99.99945068359375 50.00022888183594 C 99.99945068359375 77.6142578125 77.61381530761719 99.99987030029297 49.99972534179688 99.99987030029297 C 22.38563537597656 99.99987030029297 0 77.6142578125 0 50.00022888183594 L 0 49.99964141845703 C 0 22.38559722900391 22.38563537597656 0 49.99972534179688 0 Z" stroke="none" fill="#fff"/>
            </g>
          </g>
        </g>
      </g>
    </g>
    <g id="Layer_1" transform="translate(4758.988 -7621.344)">
      <g id="Grupo_1123458" data-name="Grupo 1123458" transform="translate(4.26 9.6)">
        <path id="Trazado_920272" data-name="Trazado 920272" d="M11.692,112.6H6.761a6.1,6.1,0,0,0,6.1,6.1H17.8a6.1,6.1,0,0,0-6.1-6.1Z" transform="translate(-6.008 -81.593)" fill="#13bf6d"/>
        <path id="Trazado_920273" data-name="Trazado 920273" d="M48.346,128.844H43.415a6.1,6.1,0,0,1,6.1-6.1h4.93A6.1,6.1,0,0,1,48.346,128.844Z" transform="translate(-31.627 -88.679)" fill="#13bf6d"/>
        <path id="Trazado_920274" data-name="Trazado 920274" d="M34,76.314a2.845,2.845,0,1,0-5.28,0,2.845,2.845,0,1,0,2.64,4.435A2.845,2.845,0,1,0,34,76.314Z" transform="translate(-19.571 -53.5)" fill="#fc5d3d"/>
        <path id="Trazado_920275" data-name="Trazado 920275" d="M183.69,86.243a17.92,17.92,0,0,0-3.215,7.213l-1.3-10.958a10.766,10.766,0,0,1,3.266-.545v0a10.827,10.827,0,0,0-.692-3.814l1.153-7.665a6.673,6.673,0,0,0-5.274,2.5c-.006,0-.009-.006-.012-.006a11.021,11.021,0,0,0-11.934.006,6.673,6.673,0,0,0-5.274-2.5l1.153,7.665a10.827,10.827,0,0,0-.692,3.814v0a10.786,10.786,0,0,1,3.269.545l-2.171,18.268a3.884,3.884,0,0,0,3.859,4.344h15.007C188.858,105.11,188.571,92.9,183.69,86.243Z" transform="translate(-113.399 -52.146)" fill="#f2bf22"/>
        <path id="Trazado_920276" data-name="Trazado 920276" d="M234.819,148.579a.753.753,0,0,1-.1-1.06,3.85,3.85,0,0,0,.6-1.027.753.753,0,1,1,1.4.564,5.352,5.352,0,0,1-.837,1.426A.752.752,0,0,1,234.819,148.579Zm1.736-4h-.019a.752.752,0,0,1-.734-.771,16.654,16.654,0,0,0-1.051-5.907.753.753,0,0,1,1.409-.531,17.974,17.974,0,0,1,1.148,6.475.753.753,0,0,1-.752.734Z" transform="translate(-165.219 -98.565)" fill="#f8e5b0"/>
        <path id="Trazado_920277" data-name="Trazado 920277" d="M213.684,87.744v0a10.766,10.766,0,0,0-3.266.545,10.916,10.916,0,0,0-4.91,3.3,1.6,1.6,0,0,0-.4-1.231c.975-5.22,2.288-9.242,3.763-11.6a11.09,11.09,0,0,1,4.121,5.169A10.827,10.827,0,0,1,213.684,87.744Z" transform="translate(-144.642 -57.94)" fill="#efefef"/>
        <path id="Trazado_920278" data-name="Trazado 920278" d="M170.114,91.592a10.913,10.913,0,0,0-8.177-3.844v0a10.811,10.811,0,0,1,4.814-8.983c1.478,2.354,2.788,6.379,3.763,11.6A1.619,1.619,0,0,0,170.114,91.592Z" transform="translate(-114.468 -57.94)" fill="#efefef"/>
        <path id="Trazado_920279" data-name="Trazado 920279" d="M191.693,119.675a2.611,2.611,0,0,1-2.61-2.52,1.6,1.6,0,0,1,.4-1.231,4.452,4.452,0,0,1,4.419,0C194.879,116.911,194.062,119.675,191.693,119.675Z" transform="translate(-133.437 -83.505)" fill="#fc5d3d"/>
        <g id="Grupo_1123454" data-name="Grupo 1123454" transform="translate(16.231 0.738)">
          <path id="Trazado_920280" data-name="Trazado 920280" d="M93.487,23.29l-1.774,1.774,8.5.509-.511-8.5-1.813,1.813a29.507,29.507,0,0,0-39.718,1.781l4.559,4.209A23.326,23.326,0,0,1,93.487,23.29Z" transform="translate(-58.173 -12.05)" fill="#72c1e8"/>
        </g>
        <g id="Grupo_1123455" data-name="Grupo 1123455" transform="translate(19.041 2.395)">
          <path id="Trazado_920281" data-name="Trazado 920281" d="M102.392,25.159a26.382,26.382,0,0,0-30.307-2.418.752.752,0,1,1-.77-1.293A27.888,27.888,0,0,1,103.356,24a.753.753,0,1,1-.964,1.156ZM67.681,25a.753.753,0,0,1,.1-1.06c.314-.26.64-.519.969-.769a.753.753,0,0,1,.909,1.2c-.312.236-.621.481-.918.728a.752.752,0,0,1-1.06-.1Z" transform="translate(-67.508 -17.556)" fill="#c5e5ff"/>
        </g>
        <g id="Grupo_1123456" data-name="Grupo 1123456" transform="translate(16.231 57.03)">
          <path id="Trazado_920282" data-name="Trazado 920282" d="M64.9,201.317l1.774-1.774-8.5-.509.511,8.5,1.813-1.813a29.507,29.507,0,0,0,39.718-1.781l-4.559-4.209A23.326,23.326,0,0,1,64.9,201.317Z" transform="translate(-58.173 -199.034)" fill="#72c1e8"/>
        </g>
        <g id="Grupo_1123457" data-name="Grupo 1123457" transform="translate(19.345 61.117)">
          <path id="Trazado_920283" data-name="Trazado 920283" d="M68.788,213.942a.753.753,0,1,1,.964-1.156,26.382,26.382,0,0,0,30.307,2.418.752.752,0,1,1,.77,1.293,27.886,27.886,0,0,1-32.041-2.555Zm33.553.682a.753.753,0,0,1,.145-1.055c.312-.236.621-.481.918-.728a.753.753,0,1,1,.961,1.158c-.314.26-.64.519-.969.769A.753.753,0,0,1,102.34,214.624Z" transform="translate(-68.517 -212.612)" fill="#c5e5ff"/>
        </g>
        <path id="Trazado_920284" data-name="Trazado 920284" d="M245.8,146.574a.753.753,0,1,0,.605-.873A.749.749,0,0,0,245.8,146.574Z" transform="translate(-173.075 -104.718)"/>
        <path id="Trazado_920285" data-name="Trazado 920285" d="M185.4,94.361h0a.753.753,0,0,0-.747.759c0,3.64-1.255,7.076-4.883,7.454-.58-6.023-.913-7.649-.3-10.718a16.342,16.342,0,0,1,2.478-6.018,17.415,17.415,0,0,1,1.7,3.613.769.769,0,0,0,.957.47.754.754,0,0,0,.467-.957,18.385,18.385,0,0,0-2.517-4.913.755.755,0,0,0-1.222.009,21.04,21.04,0,0,0-2.277,4l-.8-6.759a9.9,9.9,0,0,1,2.453-.337.758.758,0,0,0,.744-.756,11.581,11.581,0,0,0-.673-3.887l1.125-7.48a.754.754,0,0,0-.744-.864h0a7.434,7.434,0,0,0-5.425,2.28,11.8,11.8,0,0,0-11.649-.008,7.434,7.434,0,0,0-5.417-2.271.751.751,0,0,0-.744.864l1.123,7.483a11.534,11.534,0,0,0-.671,3.887.757.757,0,0,0,.744.753,10.055,10.055,0,0,1,2.454.338l-2.092,17.632a4.64,4.64,0,0,0,4.606,5.187h15.053c4.876,0,7.024-4.092,7.024-9.007a.756.756,0,0,0-.756-.746ZM172.944,82.525a39.181,39.181,0,0,1,3.171-10.2,10.058,10.058,0,0,1,3.8,7.161A11.743,11.743,0,0,0,172.944,82.525Zm-3.033.459a3.607,3.607,0,0,1,1.467.219.751.751,0,0,1,.39.82,1.859,1.859,0,0,1-3.715,0C167.976,83.084,168.823,82.971,169.91,82.984Zm10.362-13.445-.665,4.422A12.4,12.4,0,0,0,177,71.1,5.873,5.873,0,0,1,180.273,69.539Zm-5.413,1.942a38.426,38.426,0,0,0-3.284,10.191,7.3,7.3,0,0,0-3.33,0,38.2,38.2,0,0,0-3.29-10.2A10.35,10.35,0,0,1,174.86,71.481ZM162.821,71.1a12.432,12.432,0,0,0-2.61,2.857l-.665-4.422A5.872,5.872,0,0,1,162.821,71.1Zm.885,1.22a39.16,39.16,0,0,1,3.17,10.2,11.753,11.753,0,0,0-6.975-3.035,10.069,10.069,0,0,1,3.806-7.161Zm12.031,30.285.7-12.063a.754.754,0,0,0-.707-.8.746.746,0,0,0-.795.708l-.707,12.147h-1.854V90.5a.753.753,0,1,0-1.505,0V102.61H168.95V90.5a.753.753,0,1,0-1.505,0v12.1H165.59l-.707-12.147a.752.752,0,1,0-1.5.087l.7,12.063h0a3.14,3.14,0,0,1-3.113-3.5l2.056-17.306a9.744,9.744,0,0,1,3.547,2.56,3.363,3.363,0,0,0,6.676,0A9.931,9.931,0,0,1,176.8,81.8l1.173,9.876c-.636,3.261-.274,5.068.289,10.931Z" transform="translate(-111.654 -50.398)"/>
        <path id="Trazado_920286" data-name="Trazado 920286" d="M173.852,97.007a.755.755,0,0,0,.753-.753V96.1a.753.753,0,1,0-1.505,0v.151A.757.757,0,0,0,173.852,97.007Z" transform="translate(-122.27 -69.535)"/>
        <path id="Trazado_920287" data-name="Trazado 920287" d="M218.193,95.351a.753.753,0,0,0-.753.753v.151a.753.753,0,0,0,1.505,0V96.1A.755.755,0,0,0,218.193,95.351Z" transform="translate(-153.262 -69.535)"/>
        <path id="Trazado_920288" data-name="Trazado 920288" d="M118.956,11.287a.751.751,0,1,0-.8-.7A.749.749,0,0,0,118.956,11.287Z" transform="translate(-83.865 -9.73)"/>
        <path id="Trazado_920289" data-name="Trazado 920289" d="M71.043,22.621a.754.754,0,0,0-.012,1.066.771.771,0,0,0,1.063.012,22.558,22.558,0,0,1,29.091-2.044l-1.168,1.165A.753.753,0,0,0,100.5,24.1l8.5.509a.755.755,0,0,0,.795-.8l-.512-8.5a.753.753,0,0,0-1.282-.487l-1.334,1.334A30.127,30.127,0,0,0,88.851,9.6a.753.753,0,0,0-.048,1.505,28.473,28.473,0,0,1,17.443,6.642.771.771,0,0,0,1.015-.045l.632-.629.358,5.985-5.985-.358.59-.59a.753.753,0,0,0-.063-1.123,24.078,24.078,0,0,0-31.749,1.634Z" transform="translate(-50.78 -9.6)"/>
        <path id="Trazado_920290" data-name="Trazado 920290" d="M56.955,20.444a28.617,28.617,0,0,1,15.417-7.978.751.751,0,0,0-.25-1.481s0,0-.006,0a30.076,30.076,0,0,0-16.224,8.393.753.753,0,1,0,1.063,1.066Z" transform="translate(-40.193 -10.56)"/>
        <path id="Trazado_920291" data-name="Trazado 920291" d="M94.438,198.527a.755.755,0,0,0,.015-1.066.775.775,0,0,0-1.063-.015,0,0,0,0,0,0,0A22.566,22.566,0,0,1,64.3,199.493l1.168-1.165a.755.755,0,0,0-.488-1.283l-8.5-.508a.752.752,0,0,0-.795.795l.512,8.5a.754.754,0,0,0,1.282.488l1.334-1.334a30.2,30.2,0,0,0,17.849,6.557.753.753,0,0,0,.024-1.505A28.475,28.475,0,0,1,59.236,203.4a.767.767,0,0,0-1.015.045l-.632.629-.358-5.985,5.985.358-.59.59a.754.754,0,0,0,.063,1.123,24.084,24.084,0,0,0,31.749-1.634Z" transform="translate(-40.197 -140.258)"/>
        <path id="Trazado_920292" data-name="Trazado 920292" d="M158.821,213.075a28.613,28.613,0,0,1-15.414,7.975.753.753,0,0,0,.25,1.484h0a30.108,30.108,0,0,0,16.224-8.394.755.755,0,0,0,0-1.066A.773.773,0,0,0,158.821,213.075Z" transform="translate(-101.08 -151.67)"/>
        <path id="Trazado_920293" data-name="Trazado 920293" d="M133.555,241.217a.754.754,0,1,0,.8.7A.756.756,0,0,0,133.555,241.217Z" transform="translate(-94.141 -171.487)"/>
        <path id="Trazado_920294" data-name="Trazado 920294" d="M27.083,85.064H22.152a6.839,6.839,0,0,0-5.35,2.577V80.62a3.6,3.6,0,1,0,2.806-6.607,3.594,3.594,0,1,0-7.117,0A3.595,3.595,0,1,0,15.3,80.619v3.969a6.854,6.854,0,0,0-5.353-2.577H5.013a.753.753,0,0,0-.753.753,6.866,6.866,0,0,0,6.858,6.858H15.3v14.514a.753.753,0,1,0,1.505,0V92.675h4.176a6.868,6.868,0,0,0,6.858-6.858.753.753,0,0,0-.753-.753ZM10.167,86.476l2.965,1.641H11.118a5.358,5.358,0,0,1-5.3-4.6H9.944A5.357,5.357,0,0,1,15.11,87.49L10.9,85.157a.753.753,0,1,0-.729,1.319Zm8.926-11.052A2.093,2.093,0,1,1,16.325,77.1,3.617,3.617,0,0,0,19.093,75.424Zm-3.044-4.007a2.092,2.092,0,1,1-.217,4.173h0a2.092,2.092,0,0,1,.22-4.172ZM13.7,79.491a2.094,2.094,0,0,1-.7-4.067A3.643,3.643,0,0,0,14.83,76.9a3.622,3.622,0,0,0,.3,2.023,2.067,2.067,0,0,1-1.433.572Zm7.276,11.678H18.96l2.968-1.644A.752.752,0,1,0,21.2,88.21l-4.215,2.33a5.393,5.393,0,0,1,5.166-3.971h4.124A5.383,5.383,0,0,1,20.977,91.169Z" transform="translate(-4.26 -51.755)"/>
      </g>
    </g>
  </g>
</svg>
