<svg xmlns="http://www.w3.org/2000/svg" xmlns:xlink="http://www.w3.org/1999/xlink" width="117.999" height="118" viewBox="0 0 117.999 118">
  <defs>
    <filter id="Trazado_874925" x="0" y="0" width="117.999" height="118" filterUnits="userSpaceOnUse">
      <feOffset dy="3" input="SourceAlpha"/>
      <feGaussianBlur stdDeviation="3" result="blur"/>
      <feFlood flood-opacity="0.161"/>
      <feComposite operator="in" in2="blur"/>
      <feComposite in="SourceGraphic"/>
    </filter>
  </defs>
  <g id="Grupo_1123494" data-name="Grupo 1123494" transform="translate(-582.815 -10857.873)">
    <g id="Grupo_1111553" data-name="Grupo 1111553" transform="translate(-216.686 8346.716)">
      <g id="Grupo_1111316" data-name="Grupo 1111316" transform="translate(808.5 2517.157)">
        <g id="Grupo_1109835" data-name="Grupo 1109835" transform="translate(0 0)">
          <g id="Grupo_1107913" data-name="Grupo 1107913" transform="translate(0 0)">
            <g transform="matrix(1, 0, 0, 1, -9, -6)" filter="url(#Trazado_874925)">
              <g id="Trazado_874925-2" data-name="Trazado 874925" transform="translate(9 6)" fill="#bb965f" opacity="0.859">
                <path d="M 49.99972534179688 98.4998779296875 C 43.45164108276367 98.4998779296875 37.10022354125977 97.21776580810547 31.12189674377441 94.68914794921875 C 25.34676742553711 92.24647521972656 20.15985298156738 88.74925994873047 15.70523929595947 84.29464721679688 C 11.25062561035156 79.84004974365234 7.753411293029785 74.65313720703125 5.310725212097168 68.87800598144531 C 2.782111167907715 62.89969253540039 1.499996781349182 56.54829406738281 1.499996781349182 50.00022125244141 C 1.499996781349182 43.45157623291016 2.782111167907715 37.10017776489258 5.310725212097168 31.12186431884766 C 7.753411293029785 25.34673500061035 11.25062561035156 20.15983581542969 15.70523929595947 15.70522117614746 C 20.15985298156738 11.25062084197998 25.34676742553711 7.753406524658203 31.12189674377441 5.31073522567749 C 37.10022354125977 2.782120943069458 43.45164108276367 1.500006556510925 49.99972534179688 1.500006556510925 C 56.54780960083008 1.500006556510925 62.89922714233398 2.782120943069458 68.87755584716797 5.31073522567749 C 74.65267944335938 7.753406524658203 79.839599609375 11.25062084197998 84.29421234130859 15.70522117614746 C 88.74882507324219 20.15983581542969 92.24604034423828 25.34673500061035 94.68872833251953 31.12186431884766 C 97.21733856201172 37.10017776489258 98.49945068359375 43.45157623291016 98.49945068359375 49.99964904785156 C 98.49945068359375 56.54829406738281 97.21733856201172 62.89969253540039 94.68872833251953 68.87800598144531 C 92.24604034423828 74.65313720703125 88.74882507324219 79.84004974365234 84.29421234130859 84.29464721679688 C 79.839599609375 88.74925994873047 74.65267944335938 92.24647521972656 68.87755584716797 94.68914794921875 C 62.89922714233398 97.21776580810547 56.54780960083008 98.4998779296875 49.99972534179688 98.4998779296875 Z" stroke="none"/>
                <path d="M 49.99972534179688 3 C 43.65348052978516 3 37.49866485595703 4.242240905761719 31.70623016357422 6.692230224609375 C 26.10989379882812 9.059272766113281 21.08323669433594 12.44853210449219 16.76589202880859 16.76587677001953 C 12.44855499267578 21.08321380615234 9.059295654296875 26.10985565185547 6.692230224609375 31.70618438720703 C 4.24224853515625 37.49859619140625 3 43.65341186523438 3 50.00022888183594 C 3 56.34645843505859 4.24224853515625 62.50127410888672 6.692230224609375 68.29368591308594 C 9.059295654296875 73.8900146484375 12.44855499267578 78.91665649414062 16.76589202880859 83.23399353027344 C 21.08323669433594 87.55132293701172 26.10989379882812 90.94059753417969 31.70623016357422 93.30764007568359 C 37.49866485595703 95.75762939453125 43.65348052978516 96.99987030029297 49.99972534179688 96.99987030029297 C 56.34597015380859 96.99987030029297 62.50078582763672 95.75762939453125 68.293212890625 93.30764007568359 C 73.88955688476562 90.94059753417969 78.91621398925781 87.55132293701172 83.23355865478516 83.23399353027344 C 87.55089569091797 78.91665649414062 90.94015502929688 73.8900146484375 93.30722045898438 68.29368591308594 C 95.7572021484375 62.50127410888672 96.99945068359375 56.34645843505859 96.99945068359375 49.99964141845703 C 96.99945068359375 43.65341186523438 95.7572021484375 37.49859619140625 93.30722045898438 31.70618438720703 C 90.94015502929688 26.10985565185547 87.55089569091797 21.08321380615234 83.23355865478516 16.76587677001953 C 78.91621398925781 12.44853210449219 73.88955688476562 9.059272766113281 68.293212890625 6.692230224609375 C 62.50078582763672 4.242240905761719 56.34597015380859 3 49.99972534179688 3 M 49.99972534179688 0 C 77.61381530761719 0 99.99945068359375 22.38559722900391 99.99945068359375 49.99964141845703 L 99.99945068359375 50.00022888183594 C 99.99945068359375 77.6142578125 77.61381530761719 99.99987030029297 49.99972534179688 99.99987030029297 C 22.38563537597656 99.99987030029297 0 77.6142578125 0 50.00022888183594 L 0 49.99964141845703 C 0 22.38559722900391 22.38563537597656 0 49.99972534179688 0 Z" stroke="none" fill="#fff"/>
              </g>
            </g>
            <g id="Trazado_874923" data-name="Trazado 874923" transform="translate(0 0)" fill="none">
              <path d="M50,0a50,50,0,0,1,50,50h0A50,50,0,0,1,0,50H0A50,50,0,0,1,50,0Z" stroke="none"/>
              <path d="M 49.99972534179688 3 C 43.65348052978516 3 37.49866485595703 4.242240905761719 31.70623016357422 6.692230224609375 C 26.10989379882812 9.059272766113281 21.08323669433594 12.44853210449219 16.76589202880859 16.76587677001953 C 12.44855499267578 21.08321380615234 9.059295654296875 26.10985565185547 6.692230224609375 31.70618438720703 C 4.24224853515625 37.49859619140625 3 43.65341186523438 3 50.00022888183594 C 3 56.34645843505859 4.24224853515625 62.50127410888672 6.692230224609375 68.29368591308594 C 9.059295654296875 73.8900146484375 12.44855499267578 78.91665649414062 16.76589202880859 83.23399353027344 C 21.08323669433594 87.55132293701172 26.10989379882812 90.94059753417969 31.70623016357422 93.30764007568359 C 37.49866485595703 95.75762939453125 43.65348052978516 96.99987030029297 49.99972534179688 96.99987030029297 C 56.34597015380859 96.99987030029297 62.50078582763672 95.75762939453125 68.293212890625 93.30764007568359 C 73.88955688476562 90.94059753417969 78.91621398925781 87.55132293701172 83.23355865478516 83.23399353027344 C 87.55089569091797 78.91665649414062 90.94015502929688 73.8900146484375 93.30722045898438 68.29368591308594 C 95.7572021484375 62.50127410888672 96.99945068359375 56.34645843505859 96.99945068359375 49.99964141845703 C 96.99945068359375 43.65341186523438 95.7572021484375 37.49859619140625 93.30722045898438 31.70618438720703 C 90.94015502929688 26.10985565185547 87.55089569091797 21.08321380615234 83.23355865478516 16.76587677001953 C 78.91621398925781 12.44853210449219 73.88955688476562 9.059272766113281 68.293212890625 6.692230224609375 C 62.50078582763672 4.242240905761719 56.34597015380859 3 49.99972534179688 3 M 49.99972534179688 0 C 77.61381530761719 0 99.99945068359375 22.38559722900391 99.99945068359375 49.99964141845703 L 99.99945068359375 50.00022888183594 C 99.99945068359375 77.6142578125 77.61381530761719 99.99987030029297 49.99972534179688 99.99987030029297 C 22.38563537597656 99.99987030029297 0 77.6142578125 0 50.00022888183594 L 0 49.99964141845703 C 0 22.38559722900391 22.38563537597656 0 49.99972534179688 0 Z" stroke="none" fill="#fff"/>
            </g>
          </g>
        </g>
      </g>
    </g>
    <g id="Grupo_1123493" data-name="Grupo 1123493" transform="translate(599.624 10871.81)">
      <g id="Grupo_1123465" data-name="Grupo 1123465" transform="translate(1.23 1.23)">
        <circle id="Elipse_12005" data-name="Elipse 12005" cx="40.96" cy="40.96" r="40.96" fill="#fef1da"/>
      </g>
      <g id="Grupo_1123466" data-name="Grupo 1123466" transform="translate(31.157 1.963)">
        <path id="Trazado_920314" data-name="Trazado 920314" d="M241.047,52.136a40.992,40.992,0,0,1-51.994,39.456,40.969,40.969,0,0,0,18.786-79.684A40.972,40.972,0,0,1,241.047,52.136Z" transform="translate(-189.053 -11.909)" fill="#fddeb0"/>
      </g>
      <g id="Grupo_1123467" data-name="Grupo 1123467" transform="translate(6.902 6.902)">
        <circle id="Elipse_12006" data-name="Elipse 12006" cx="35.288" cy="35.288" r="35.288" fill="#e19974"/>
      </g>
      <g id="Grupo_1123468" data-name="Grupo 1123468" transform="translate(29.876 8.067)">
        <path id="Trazado_920315" data-name="Trazado 920315" d="M228.884,83.073a35.309,35.309,0,0,1-47.6,33.08,35.3,35.3,0,0,0,21.341-67.2A35.3,35.3,0,0,1,228.884,83.073Z" transform="translate(-181.281 -48.95)" fill="#dc8758"/>
      </g>
      <g id="Grupo_1123469" data-name="Grupo 1123469" transform="translate(20.529 51.507)">
        <circle id="Elipse_12007" data-name="Elipse 12007" cx="3.784" cy="3.784" r="3.784" fill="#fef1da"/>
      </g>
      <g id="Grupo_1123470" data-name="Grupo 1123470" transform="translate(54.29 57.85)">
        <circle id="Elipse_12008" data-name="Elipse 12008" cx="3.784" cy="3.784" r="3.784" fill="#fef1da"/>
      </g>
      <g id="Grupo_1123471" data-name="Grupo 1123471" transform="translate(40.032 33.472)">
        <circle id="Elipse_12009" data-name="Elipse 12009" cx="3.784" cy="3.784" r="3.784" fill="#fef1da"/>
      </g>
      <g id="Grupo_1123472" data-name="Grupo 1123472" transform="translate(20.886 51.623)">
        <path id="Trazado_920316" data-name="Trazado 920316" d="M133.944,316.9a3.784,3.784,0,0,1-7.21,1.606,3.7,3.7,0,0,0,.93.117,3.784,3.784,0,0,0,3.426-5.389A3.783,3.783,0,0,1,133.944,316.9Z" transform="translate(-126.734 -313.234)" fill="#fddeb0"/>
      </g>
      <g id="Grupo_1123473" data-name="Grupo 1123473" transform="translate(54.647 57.967)">
        <path id="Trazado_920317" data-name="Trazado 920317" d="M338.794,355.4a3.784,3.784,0,0,1-7.21,1.606,3.7,3.7,0,0,0,.93.117,3.784,3.784,0,0,0,3.426-5.389A3.783,3.783,0,0,1,338.794,355.4Z" transform="translate(-331.584 -351.728)" fill="#fddeb0"/>
      </g>
      <g id="Grupo_1123474" data-name="Grupo 1123474" transform="translate(40.389 33.588)">
        <path id="Trazado_920318" data-name="Trazado 920318" d="M252.282,207.47a3.784,3.784,0,0,1-7.21,1.606,3.7,3.7,0,0,0,.93.117,3.784,3.784,0,0,0,3.426-5.389A3.783,3.783,0,0,1,252.282,207.47Z" transform="translate(-245.072 -203.803)" fill="#fddeb0"/>
      </g>
      <g id="Grupo_1123476" data-name="Grupo 1123476" transform="translate(22.963 30.528)">
        <g id="Grupo_1123475" data-name="Grupo 1123475">
          <path id="Trazado_920319" data-name="Trazado 920319" d="M148.884,195.025a2.459,2.459,0,0,1-2.311.655,9.719,9.719,0,0,1-7.192-7.521,2.46,2.46,0,0,1,4.833-.923,4.856,4.856,0,0,0,3.5,3.658,2.46,2.46,0,0,1,1.172,4.132Z" transform="translate(-139.337 -185.237)" fill="#c86d36"/>
        </g>
      </g>
      <g id="Grupo_1123478" data-name="Grupo 1123478" transform="translate(49.996 21.489)">
        <g id="Grupo_1123477" data-name="Grupo 1123477">
          <path id="Trazado_920320" data-name="Trazado 920320" d="M312.914,140.178a2.459,2.459,0,0,1-2.311.655,9.719,9.719,0,0,1-7.192-7.521,2.46,2.46,0,0,1,4.833-.923,4.856,4.856,0,0,0,3.5,3.658,2.46,2.46,0,0,1,1.172,4.131Z" transform="translate(-303.367 -130.39)" fill="#c86d36"/>
        </g>
      </g>
      <g id="Grupo_1123480" data-name="Grupo 1123480" transform="translate(50.08 21.489)">
        <g id="Grupo_1123479" data-name="Grupo 1123479">
          <path id="Trazado_920321" data-name="Trazado 920321" d="M313.992,139.008a2.454,2.454,0,0,1-.651,1.168,2.5,2.5,0,0,1-1.1.638c.008-.025.015-.051.021-.075a2.461,2.461,0,0,0-1.824-2.962,4.859,4.859,0,0,1-3.5-3.659,2.462,2.462,0,0,0-2.878-1.955c-.062.011-.123.026-.184.043a2.461,2.461,0,0,1,4.793.182,4.855,4.855,0,0,0,3.5,3.658A2.461,2.461,0,0,1,313.992,139.008Z" transform="translate(-303.877 -130.388)" fill="#ac5e2e"/>
        </g>
      </g>
      <g id="Grupo_1123482" data-name="Grupo 1123482" transform="translate(22.963 30.528)">
        <g id="Grupo_1123481" data-name="Grupo 1123481">
          <path id="Trazado_920322" data-name="Trazado 920322" d="M149.45,193.856a2.454,2.454,0,0,1-.651,1.168,2.5,2.5,0,0,1-1.1.638c.008-.025.015-.051.021-.075a2.461,2.461,0,0,0-1.824-2.962,4.859,4.859,0,0,1-3.5-3.659,2.462,2.462,0,0,0-2.878-1.955c-.062.011-.123.026-.184.043a2.461,2.461,0,0,1,4.793.182,4.855,4.855,0,0,0,3.5,3.658,2.461,2.461,0,0,1,1.824,2.964Z" transform="translate(-139.335 -185.236)" fill="#ac5e2e"/>
        </g>
      </g>
      <g id="Grupo_1123484" data-name="Grupo 1123484" transform="translate(36.06 54.973)">
        <g id="Grupo_1123483" data-name="Grupo 1123483">
          <path id="Trazado_920323" data-name="Trazado 920323" d="M219.522,334.284a2.459,2.459,0,0,1,2.311-.655,9.719,9.719,0,0,1,7.192,7.521,2.46,2.46,0,0,1-4.833.923,4.856,4.856,0,0,0-3.5-3.658,2.46,2.46,0,0,1-1.172-4.132Z" transform="translate(-218.803 -333.562)" fill="#c86d36"/>
        </g>
      </g>
      <g id="Grupo_1123486" data-name="Grupo 1123486" transform="translate(36.146 54.973)">
        <g id="Grupo_1123485" data-name="Grupo 1123485">
          <path id="Trazado_920324" data-name="Trazado 920324" d="M227.683,343.991a2.443,2.443,0,0,0,.039-1.1,9.719,9.719,0,0,0-7.192-7.522,2.428,2.428,0,0,0-1.2.016,2.423,2.423,0,0,1,.633-1.1,2.459,2.459,0,0,1,2.311-.654,9.718,9.718,0,0,1,7.192,7.522A2.461,2.461,0,0,1,227.683,343.991Z" transform="translate(-219.327 -333.564)" fill="#ac5e2e"/>
        </g>
      </g>
      <g id="Grupo_1123491" data-name="Grupo 1123491" transform="translate(47.599 41.495)">
        <g id="Grupo_1123488" data-name="Grupo 1123488">
          <g id="Grupo_1123487" data-name="Grupo 1123487">
            <path id="Trazado_920325" data-name="Trazado 920325" d="M298.609,252.5a2.459,2.459,0,0,1,.655,2.311,9.719,9.719,0,0,1-7.521,7.192,2.46,2.46,0,0,1-.923-4.833,4.856,4.856,0,0,0,3.658-3.5,2.46,2.46,0,0,1,4.132-1.172Z" transform="translate(-288.82 -251.785)" fill="#c86d36"/>
          </g>
        </g>
        <g id="Grupo_1123490" data-name="Grupo 1123490" transform="translate(0.025 0.047)">
          <g id="Grupo_1123489" data-name="Grupo 1123489">
            <path id="Trazado_920326" data-name="Trazado 920326" d="M299.388,255.051a9.716,9.716,0,0,1-7.52,7.192,2.459,2.459,0,0,1-2.878-1.955l-.02-.115a2.439,2.439,0,0,0,.925,0,9.714,9.714,0,0,0,7.52-7.192,2.427,2.427,0,0,0,.043-.914c.036,0,.071.013.107.021a2.456,2.456,0,0,1,1.824,2.962Z" transform="translate(-288.97 -252.068)" fill="#ac5e2e"/>
          </g>
        </g>
      </g>
      <g id="Grupo_1123492" data-name="Grupo 1123492" transform="translate(0)">
        <path id="Trazado_920327" data-name="Trazado 920327" d="M72.023,12.357A42.19,42.19,0,1,0,12.357,72.023,42.19,42.19,0,0,0,72.023,12.357Zm-1.74,57.926A39.73,39.73,0,0,1,14.1,14.1,39.73,39.73,0,0,1,70.283,70.283Z" transform="translate(0)"/>
        <path id="Trazado_920328" data-name="Trazado 920328" d="M96.756,45.111a36.518,36.518,0,1,0-1.07,52.673,1.23,1.23,0,1,0-1.668-1.808,34.036,34.036,0,1,1,3.707-4.011,1.23,1.23,0,0,0,1.934,1.52,36.522,36.522,0,0,0-2.9-48.374Z" transform="translate(-28.743 -28.743)"/>
        <path id="Trazado_920329" data-name="Trazado 920329" d="M117.1,310.081a5.014,5.014,0,1,0,5.014-5.014A5.019,5.019,0,0,0,117.1,310.081Zm7.567,0a2.553,2.553,0,1,1-2.553-2.553A2.557,2.557,0,0,1,124.671,310.081Z" transform="translate(-97.805 -254.79)"/>
        <path id="Trazado_920330" data-name="Trazado 920330" d="M326.969,353.586a5.014,5.014,0,1,0-5.014-5.014A5.019,5.019,0,0,0,326.969,353.586Zm0-7.567a2.553,2.553,0,1,1-2.553,2.553A2.556,2.556,0,0,1,326.969,346.019Z" transform="translate(-268.895 -286.939)"/>
        <path id="Trazado_920331" data-name="Trazado 920331" d="M240.454,205.662a5.014,5.014,0,1,0-5.014-5.014A5.019,5.019,0,0,0,240.454,205.662Zm0-7.567a2.553,2.553,0,1,1-2.553,2.553A2.557,2.557,0,0,1,240.454,198.1Z" transform="translate(-196.638 -163.393)"/>
        <path id="Trazado_920332" data-name="Trazado 920332" d="M144.048,185.119a3.666,3.666,0,0,0-2.288-1.655,3.624,3.624,0,0,1-2.574-2.692,3.69,3.69,0,1,0-7.249,1.385,10.5,10.5,0,0,0,.615,2.048,1.23,1.23,0,0,0,2.272-.943,8.027,8.027,0,0,1-.471-1.567,1.23,1.23,0,0,1,2.416-.462,6.055,6.055,0,0,0,4.421,4.624,1.23,1.23,0,1,1-.569,2.393,8.143,8.143,0,0,1-2.74-1.226,1.23,1.23,0,1,0-1.395,2.027,10.6,10.6,0,0,0,3.565,1.593,3.736,3.736,0,0,0,.864.1,3.692,3.692,0,0,0,3.132-5.627Z" transform="translate(-110.136 -148.475)"/>
        <path id="Trazado_920333" data-name="Trazado 920333" d="M285.739,256.983a10.968,10.968,0,0,0,8.487-8.116,3.69,3.69,0,0,0-7.18-1.708,3.623,3.623,0,0,1-2.692,2.574,3.69,3.69,0,0,0,.685,7.314A3.611,3.611,0,0,0,285.739,256.983Zm-1.384-2.607a1.191,1.191,0,0,1-.379-1.623,1.238,1.238,0,0,1,.84-.6,6.055,6.055,0,0,0,4.624-4.421,1.232,1.232,0,0,1,1.2-.946,1.249,1.249,0,0,1,1.2,1.515,8.471,8.471,0,0,1-6.555,6.269A1.22,1.22,0,0,1,284.355,254.376Z" transform="translate(-234.987 -204.057)"/>
        <path id="Trazado_920334" data-name="Trazado 920334" d="M304.093,135.8a3.734,3.734,0,0,0,.864.1,3.667,3.667,0,0,0,2.6-1.084,3.829,3.829,0,0,0,.531-4.543,3.665,3.665,0,0,0-2.288-1.655,3.624,3.624,0,0,1-2.574-2.692,3.69,3.69,0,1,0-7.249,1.385A10.968,10.968,0,0,0,304.093,135.8Zm-5.505-9.868a1.263,1.263,0,0,1,2.223.458,6.055,6.055,0,0,0,4.421,4.624,1.221,1.221,0,0,1,.763.552,1.236,1.236,0,0,1-1.332,1.842,8.471,8.471,0,0,1-6.269-6.556A1.113,1.113,0,0,1,298.588,125.928Z" transform="translate(-247.145 -102.667)"/>
        <path id="Trazado_920335" data-name="Trazado 920335" d="M214.178,333.384a3.624,3.624,0,0,1,2.574,2.692A3.69,3.69,0,0,0,224,334.691a10.967,10.967,0,0,0-8.116-8.487,3.69,3.69,0,0,0-1.708,7.18Zm.209-4.631a1.234,1.234,0,0,1,.93-.156,8.47,8.47,0,0,1,6.268,6.556,1.241,1.241,0,0,1-1.9,1.248,1.222,1.222,0,0,1-.517-.787,6.055,6.055,0,0,0-4.421-4.624A1.235,1.235,0,0,1,214.387,328.753Z" transform="translate(-176.511 -272.36)"/>
        <circle id="Elipse_12010" data-name="Elipse 12010" cx="1.23" cy="1.23" r="1.23" transform="translate(39.963 45.399)"/>
        <circle id="Elipse_12011" data-name="Elipse 12011" cx="1.23" cy="1.23" r="1.23" transform="translate(39.602 25.927) rotate(-67.486)"/>
        <path id="Trazado_920336" data-name="Trazado 920336" d="M210.113,136.638a1.23,1.23,0,1,0-1.23-1.23A1.23,1.23,0,0,0,210.113,136.638Z" transform="translate(-174.458 -112.065)"/>
        <path id="Trazado_920337" data-name="Trazado 920337" d="M98.455,265.1a1.23,1.23,0,1,0,1.23-1.23A1.23,1.23,0,0,0,98.455,265.1Z" transform="translate(-82.229 -220.379)"/>
        <path id="Trazado_920338" data-name="Trazado 920338" d="M383.689,299.091a1.23,1.23,0,1,0,1.23-1.23A1.23,1.23,0,0,0,383.689,299.091Z" transform="translate(-320.455 -248.772)"/>
        <path id="Trazado_920339" data-name="Trazado 920339" d="M399.847,236.858a1.23,1.23,0,1,0,1.23,1.23A1.23,1.23,0,0,0,399.847,236.858Z" transform="translate(-332.923 -197.823)"/>
        <circle id="Elipse_12012" data-name="Elipse 12012" cx="1.23" cy="1.23" r="1.23" transform="translate(31.366 65.551)"/>
        <path id="Trazado_920340" data-name="Trazado 920340" d="M268.63,100.553a1.23,1.23,0,1,0-1.23,1.23A1.23,1.23,0,0,0,268.63,100.553Z" transform="translate(-222.304 -82.954)"/>
        <circle id="Elipse_12013" data-name="Elipse 12013" cx="1.23" cy="1.23" r="1.23" transform="translate(34.83 47.859)"/>
      </g>
    </g>
  </g>
</svg>
