<svg xmlns="http://www.w3.org/2000/svg" xmlns:xlink="http://www.w3.org/1999/xlink" width="117.999" height="118" viewBox="0 0 117.999 118">
  <defs>
    <filter id="Trazado_874925" x="0" y="0" width="117.999" height="118" filterUnits="userSpaceOnUse">
      <feOffset dy="3" input="SourceAlpha"/>
      <feGaussianBlur stdDeviation="3" result="blur"/>
      <feFlood flood-opacity="0.161"/>
      <feComposite operator="in" in2="blur"/>
      <feComposite in="SourceGraphic"/>
    </filter>
  </defs>
  <g id="Grupo_1123526" data-name="Grupo 1123526" transform="translate(-897.076 -4509)">
    <g id="Grupo_1111553" data-name="Grupo 1111553" transform="translate(97.575 1997.843)">
      <g id="Grupo_1111316" data-name="Grupo 1111316" transform="translate(808.5 2517.157)">
        <g id="Grupo_1109835" data-name="Grupo 1109835" transform="translate(0 0)">
          <g id="Grupo_1107913" data-name="Grupo 1107913" transform="translate(0 0)">
            <g transform="matrix(1, 0, 0, 1, -9, -6)" filter="url(#Trazado_874925)">
              <g id="Trazado_874925-2" data-name="Trazado 874925" transform="translate(9 6)" fill="#bb965f" opacity="0.859">
                <path d="M 49.99972534179688 98.4998779296875 C 43.45164108276367 98.4998779296875 37.10022354125977 97.21776580810547 31.12189674377441 94.68914794921875 C 25.34676742553711 92.24647521972656 20.15985298156738 88.74925994873047 15.70523929595947 84.29464721679688 C 11.25062561035156 79.84004974365234 7.753411293029785 74.65313720703125 5.310725212097168 68.87800598144531 C 2.782111167907715 62.89969253540039 1.499996781349182 56.54829406738281 1.499996781349182 50.00022125244141 C 1.499996781349182 43.45157623291016 2.782111167907715 37.10017776489258 5.310725212097168 31.12186431884766 C 7.753411293029785 25.34673500061035 11.25062561035156 20.15983581542969 15.70523929595947 15.70522117614746 C 20.15985298156738 11.25062084197998 25.34676742553711 7.753406524658203 31.12189674377441 5.31073522567749 C 37.10022354125977 2.782120943069458 43.45164108276367 1.500006556510925 49.99972534179688 1.500006556510925 C 56.54780960083008 1.500006556510925 62.89922714233398 2.782120943069458 68.87755584716797 5.31073522567749 C 74.65267944335938 7.753406524658203 79.839599609375 11.25062084197998 84.29421234130859 15.70522117614746 C 88.74882507324219 20.15983581542969 92.24604034423828 25.34673500061035 94.68872833251953 31.12186431884766 C 97.21733856201172 37.10017776489258 98.49945068359375 43.45157623291016 98.49945068359375 49.99964904785156 C 98.49945068359375 56.54829406738281 97.21733856201172 62.89969253540039 94.68872833251953 68.87800598144531 C 92.24604034423828 74.65313720703125 88.74882507324219 79.84004974365234 84.29421234130859 84.29464721679688 C 79.839599609375 88.74925994873047 74.65267944335938 92.24647521972656 68.87755584716797 94.68914794921875 C 62.89922714233398 97.21776580810547 56.54780960083008 98.4998779296875 49.99972534179688 98.4998779296875 Z" stroke="none"/>
                <path d="M 49.99972534179688 3 C 43.65348052978516 3 37.49866485595703 4.242240905761719 31.70623016357422 6.692230224609375 C 26.10989379882812 9.059272766113281 21.08323669433594 12.44853210449219 16.76589202880859 16.76587677001953 C 12.44855499267578 21.08321380615234 9.059295654296875 26.10985565185547 6.692230224609375 31.70618438720703 C 4.24224853515625 37.49859619140625 3 43.65341186523438 3 50.00022888183594 C 3 56.34645843505859 4.24224853515625 62.50127410888672 6.692230224609375 68.29368591308594 C 9.059295654296875 73.8900146484375 12.44855499267578 78.91665649414062 16.76589202880859 83.23399353027344 C 21.08323669433594 87.55132293701172 26.10989379882812 90.94059753417969 31.70623016357422 93.30764007568359 C 37.49866485595703 95.75762939453125 43.65348052978516 96.99987030029297 49.99972534179688 96.99987030029297 C 56.34597015380859 96.99987030029297 62.50078582763672 95.75762939453125 68.293212890625 93.30764007568359 C 73.88955688476562 90.94059753417969 78.91621398925781 87.55132293701172 83.23355865478516 83.23399353027344 C 87.55089569091797 78.91665649414062 90.94015502929688 73.8900146484375 93.30722045898438 68.29368591308594 C 95.7572021484375 62.50127410888672 96.99945068359375 56.34645843505859 96.99945068359375 49.99964141845703 C 96.99945068359375 43.65341186523438 95.7572021484375 37.49859619140625 93.30722045898438 31.70618438720703 C 90.94015502929688 26.10985565185547 87.55089569091797 21.08321380615234 83.23355865478516 16.76587677001953 C 78.91621398925781 12.44853210449219 73.88955688476562 9.059272766113281 68.293212890625 6.692230224609375 C 62.50078582763672 4.242240905761719 56.34597015380859 3 49.99972534179688 3 M 49.99972534179688 0 C 77.61381530761719 0 99.99945068359375 22.38559722900391 99.99945068359375 49.99964141845703 L 99.99945068359375 50.00022888183594 C 99.99945068359375 77.6142578125 77.61381530761719 99.99987030029297 49.99972534179688 99.99987030029297 C 22.38563537597656 99.99987030029297 0 77.6142578125 0 50.00022888183594 L 0 49.99964141845703 C 0 22.38559722900391 22.38563537597656 0 49.99972534179688 0 Z" stroke="none" fill="#fff"/>
              </g>
            </g>
            <g id="Trazado_874923" data-name="Trazado 874923" transform="translate(0 0)" fill="none">
              <path d="M50,0a50,50,0,0,1,50,50h0A50,50,0,0,1,0,50H0A50,50,0,0,1,50,0Z" stroke="none"/>
              <path d="M 49.99972534179688 3 C 43.65348052978516 3 37.49866485595703 4.242240905761719 31.70623016357422 6.692230224609375 C 26.10989379882812 9.059272766113281 21.08323669433594 12.44853210449219 16.76589202880859 16.76587677001953 C 12.44855499267578 21.08321380615234 9.059295654296875 26.10985565185547 6.692230224609375 31.70618438720703 C 4.24224853515625 37.49859619140625 3 43.65341186523438 3 50.00022888183594 C 3 56.34645843505859 4.24224853515625 62.50127410888672 6.692230224609375 68.29368591308594 C 9.059295654296875 73.8900146484375 12.44855499267578 78.91665649414062 16.76589202880859 83.23399353027344 C 21.08323669433594 87.55132293701172 26.10989379882812 90.94059753417969 31.70623016357422 93.30764007568359 C 37.49866485595703 95.75762939453125 43.65348052978516 96.99987030029297 49.99972534179688 96.99987030029297 C 56.34597015380859 96.99987030029297 62.50078582763672 95.75762939453125 68.293212890625 93.30764007568359 C 73.88955688476562 90.94059753417969 78.91621398925781 87.55132293701172 83.23355865478516 83.23399353027344 C 87.55089569091797 78.91665649414062 90.94015502929688 73.8900146484375 93.30722045898438 68.29368591308594 C 95.7572021484375 62.50127410888672 96.99945068359375 56.34645843505859 96.99945068359375 49.99964141845703 C 96.99945068359375 43.65341186523438 95.7572021484375 37.49859619140625 93.30722045898438 31.70618438720703 C 90.94015502929688 26.10985565185547 87.55089569091797 21.08321380615234 83.23355865478516 16.76587677001953 C 78.91621398925781 12.44853210449219 73.88955688476562 9.059272766113281 68.293212890625 6.692230224609375 C 62.50078582763672 4.242240905761719 56.34597015380859 3 49.99972534179688 3 M 49.99972534179688 0 C 77.61381530761719 0 99.99945068359375 22.38559722900391 99.99945068359375 49.99964141845703 L 99.99945068359375 50.00022888183594 C 99.99945068359375 77.6142578125 77.61381530761719 99.99987030029297 49.99972534179688 99.99987030029297 C 22.38563537597656 99.99987030029297 0 77.6142578125 0 50.00022888183594 L 0 49.99964141845703 C 0 22.38559722900391 22.38563537597656 0 49.99972534179688 0 Z" stroke="none" fill="#fff"/>
            </g>
          </g>
        </g>
      </g>
    </g>
    <g id="Layer_31" data-name="Layer 31" transform="translate(924.072 4533)">
      <path id="Trazado_920407" data-name="Trazado 920407" d="M45,10a3,3,0,0,0-3-3,32.12,32.12,0,0,0-3.98.248,49.306,49.306,0,0,0-24.982,10.66l-.674.547A45.6,45.6,0,0,0,4.627,26.5,13.127,13.127,0,0,0,8.618,45.778L9,46a17.073,17.073,0,0,0,12.071,5A13.866,13.866,0,0,0,33.7,42.871,179.6,179.6,0,0,0,43.878,14.265Z" fill="#c9c9c9"/>
      <path id="Trazado_920408" data-name="Trazado 920408" d="M45,10a3,3,0,0,0-3-3,32.12,32.12,0,0,0-3.98.248,49.32,49.32,0,0,0-9.7,2.228,49.3,49.3,0,0,0-10.284,6.432l-.674.547A45.6,45.6,0,0,0,9.627,24.5a13.134,13.134,0,0,0,3.991,19.284L14,44a17.073,17.073,0,0,0,12.071,5,13.791,13.791,0,0,0,2.564-.248,13.839,13.839,0,0,0,5.06-5.881A179.6,179.6,0,0,0,43.878,14.265Z" fill="#ddd"/>
      <path id="Trazado_920409" data-name="Trazado 920409" d="M19.77,26.2A44.293,44.293,0,0,0,9.485,46.388,43.143,43.143,0,0,0,30.428,33.225,54.117,54.117,0,0,0,38.1,21.79L44.67,8.66a2.976,2.976,0,0,0-.165-.3l-5.572,2.918A68.138,68.138,0,0,0,19.77,26.2Z" fill="#5a5b5d"/>
      <path id="Trazado_920410" data-name="Trazado 920410" d="M17,47.6A9.4,9.4,0,0,0,26.405,57a22.644,22.644,0,0,0,12.16-3.541l8.388-5.338a66.45,66.45,0,0,0,14.328-12.3A2.907,2.907,0,0,0,59.092,31a8.814,8.814,0,0,1-5.507-1.932A9.436,9.436,0,0,0,47.689,27,39.565,39.565,0,0,0,31.11,30.641l-1.654.764A33.179,33.179,0,0,0,23,35.337,15.528,15.528,0,0,0,17,47.6Z" fill="#f9cb6e"/>
      <path id="Trazado_920411" data-name="Trazado 920411" d="M48.953,44.121A66.425,66.425,0,0,0,61.936,33.3,2.909,2.909,0,0,0,59.092,31a8.814,8.814,0,0,1-5.507-1.932A9.436,9.436,0,0,0,47.689,27,39.565,39.565,0,0,0,31.11,30.641l-1.654.764A33.179,33.179,0,0,0,23,35.337a15.474,15.474,0,0,0-3.2,3.412A15.5,15.5,0,0,0,19,43.6,9.4,9.4,0,0,0,28.4,53a22.645,22.645,0,0,0,12.16-3.541Z" fill="#ffd997"/>
      <path id="Trazado_920412" data-name="Trazado 920412" d="M29.225,50.975l-.45-1.95,1.891-.436a51.029,51.029,0,0,0,19.72-9.378l1.228,1.578a53.026,53.026,0,0,1-20.5,9.749Z" fill="#ffecd2"/>
      <path id="Trazado_920413" data-name="Trazado 920413" d="M31.5,35.868l-1-1.736A31.409,31.409,0,0,1,46.062,30H48v2H46.062A29.416,29.416,0,0,0,31.5,35.868Z" fill="#ffecd2"/>
      <path id="Trazado_920414" data-name="Trazado 920414" d="M30.666,48.589l-1.891.436.45,1.95,1.89-.437a53.026,53.026,0,0,0,20.5-9.749l-1.228-1.578a51.029,51.029,0,0,1-19.721,9.378Z"/>
      <path id="Trazado_920415" data-name="Trazado 920415" d="M46.062,32H48V30H46.062A31.409,31.409,0,0,0,30.5,34.132l.992,1.736A29.416,29.416,0,0,1,46.062,32Z"/>
      <path id="Trazado_920416" data-name="Trazado 920416" d="M59.093,30a7.848,7.848,0,0,1-4.883-1.712A10.47,10.47,0,0,0,47.689,26a40.419,40.419,0,0,0-6.463.526c1.34-3.954,2.56-7.982,3.619-12.006l1.122-4.265A1,1,0,0,0,46,10a4.006,4.006,0,0,0-4-4,33.152,33.152,0,0,0-4.1.255,50.265,50.265,0,0,0-25.5,10.876l-.674.548a46.71,46.71,0,0,0-7.9,8.219A14.133,14.133,0,0,0,8.121,46.649l.268.154a18.013,18.013,0,0,0,8.369,4.663A10.345,10.345,0,0,0,26.405,58a23.61,23.61,0,0,0,12.7-3.7l8.389-5.339A67.322,67.322,0,0,0,62.033,36.48,3.907,3.907,0,0,0,59.093,30Zm-23.31-2.193A55.008,55.008,0,0,0,39,22.237L42.667,14.9c-1.088,4.048-2.328,8.094-3.7,12.054C37.894,27.193,36.834,27.486,35.783,27.807ZM16.817,42.494a42.023,42.023,0,0,1-5.938,2.426,43.361,43.361,0,0,1,9.637-18.055A66.925,66.925,0,0,1,39.4,12.159l3.26-1.707L37.21,21.343a53.161,53.161,0,0,1-4.624,7.579q-.959.382-1.9.811l-1.654.763a34.3,34.3,0,0,0-6.656,4.052,16.422,16.422,0,0,0-5.564,7.946ZM9.171,41.3a22.077,22.077,0,0,1,6.3-18.356,41.07,41.07,0,0,1,19.076-10.8l1.36-.341A68.883,68.883,0,0,0,19.027,25.53,45.37,45.37,0,0,0,9.366,42.868ZM3,34.378A12.212,12.212,0,0,1,5.427,27.1a44.7,44.7,0,0,1,7.567-7.867l.674-.547A48.251,48.251,0,0,1,38.141,8.24,31.33,31.33,0,0,1,42,8a1.98,1.98,0,0,1,.542.084L34.062,10.2A43.065,43.065,0,0,0,14.055,21.531,24.069,24.069,0,0,0,7.187,41.55l.274,2.2A12.15,12.15,0,0,1,3,34.378Zm8.483,12.448A44.1,44.1,0,0,0,16.227,45,16.7,16.7,0,0,0,16,47.6a10.278,10.278,0,0,0,.134,1.618,16.019,16.019,0,0,1-4.651-2.392ZM60.527,35.164A65.334,65.334,0,0,1,46.416,47.276l-8.39,5.339A21.6,21.6,0,0,1,26.4,56,8.4,8.4,0,0,1,18,47.6a14.439,14.439,0,0,1,5.609-11.469,32.274,32.274,0,0,1,6.266-3.814l1.654-.762A38.832,38.832,0,0,1,47.689,28a8.458,8.458,0,0,1,5.272,1.85A9.858,9.858,0,0,0,59.093,32a1.907,1.907,0,0,1,1.434,3.164Z"/>
    </g>
  </g>
</svg>
