<svg xmlns="http://www.w3.org/2000/svg" xmlns:xlink="http://www.w3.org/1999/xlink" width="118" height="118" viewBox="0 0 118 118">
  <defs>
    <filter id="Trazado_874925" x="0" y="0" width="118" height="118" filterUnits="userSpaceOnUse">
      <feOffset dy="3" input="SourceAlpha"/>
      <feGaussianBlur stdDeviation="3" result="blur"/>
      <feFlood flood-opacity="0.161"/>
      <feComposite operator="in" in2="blur"/>
      <feComposite in="SourceGraphic"/>
    </filter>
  </defs>
  <g id="Grupo_1123413" data-name="Grupo 1123413" transform="translate(-4137 10231.72)">
    <g id="Grupo_1111553" data-name="Grupo 1111553" transform="translate(3337.5 -12742.877)">
      <g id="Grupo_1111316" data-name="Grupo 1111316" transform="translate(808.5 2517.157)">
        <g id="Grupo_1109835" data-name="Grupo 1109835" transform="translate(0 0)">
          <g id="Grupo_1107913" data-name="Grupo 1107913" transform="translate(0 0)">
            <g transform="matrix(1, 0, 0, 1, -9, -6)" filter="url(#Trazado_874925)">
              <g id="Trazado_874925-2" data-name="Trazado 874925" transform="translate(9 6)" fill="#bb965f" opacity="0.859">
                <path d="M 49.99972534179688 98.4998779296875 C 43.45164108276367 98.4998779296875 37.10022354125977 97.21776580810547 31.12189674377441 94.68914794921875 C 25.34676742553711 92.24647521972656 20.15985298156738 88.74925994873047 15.70523929595947 84.29464721679688 C 11.25062561035156 79.84004974365234 7.753411293029785 74.65313720703125 5.310725212097168 68.87800598144531 C 2.782111167907715 62.89969253540039 1.499996781349182 56.54829406738281 1.499996781349182 50.00022125244141 C 1.499996781349182 43.45157623291016 2.782111167907715 37.10017776489258 5.310725212097168 31.12186431884766 C 7.753411293029785 25.34673500061035 11.25062561035156 20.15983581542969 15.70523929595947 15.70522117614746 C 20.15985298156738 11.25062084197998 25.34676742553711 7.753406524658203 31.12189674377441 5.31073522567749 C 37.10022354125977 2.782120943069458 43.45164108276367 1.500006556510925 49.99972534179688 1.500006556510925 C 56.54780960083008 1.500006556510925 62.89922714233398 2.782120943069458 68.87755584716797 5.31073522567749 C 74.65267944335938 7.753406524658203 79.839599609375 11.25062084197998 84.29421234130859 15.70522117614746 C 88.74882507324219 20.15983581542969 92.24604034423828 25.34673500061035 94.68872833251953 31.12186431884766 C 97.21733856201172 37.10017776489258 98.49945068359375 43.45157623291016 98.49945068359375 49.99964904785156 C 98.49945068359375 56.54829406738281 97.21733856201172 62.89969253540039 94.68872833251953 68.87800598144531 C 92.24604034423828 74.65313720703125 88.74882507324219 79.84004974365234 84.29421234130859 84.29464721679688 C 79.839599609375 88.74925994873047 74.65267944335938 92.24647521972656 68.87755584716797 94.68914794921875 C 62.89922714233398 97.21776580810547 56.54780960083008 98.4998779296875 49.99972534179688 98.4998779296875 Z" stroke="none"/>
                <path d="M 49.99972534179688 3 C 43.65348052978516 3 37.49866485595703 4.242240905761719 31.70623016357422 6.692230224609375 C 26.10989379882812 9.059272766113281 21.08323669433594 12.44853210449219 16.76589202880859 16.76587677001953 C 12.44855499267578 21.08321380615234 9.059295654296875 26.10985565185547 6.692230224609375 31.70618438720703 C 4.24224853515625 37.49859619140625 3 43.65341186523438 3 50.00022888183594 C 3 56.34645843505859 4.24224853515625 62.50127410888672 6.692230224609375 68.29368591308594 C 9.059295654296875 73.8900146484375 12.44855499267578 78.91665649414062 16.76589202880859 83.23399353027344 C 21.08323669433594 87.55132293701172 26.10989379882812 90.94059753417969 31.70623016357422 93.30764007568359 C 37.49866485595703 95.75762939453125 43.65348052978516 96.99987030029297 49.99972534179688 96.99987030029297 C 56.34597015380859 96.99987030029297 62.50078582763672 95.75762939453125 68.293212890625 93.30764007568359 C 73.88955688476562 90.94059753417969 78.91621398925781 87.55132293701172 83.23355865478516 83.23399353027344 C 87.55089569091797 78.91665649414062 90.94015502929688 73.8900146484375 93.30722045898438 68.29368591308594 C 95.7572021484375 62.50127410888672 96.99945068359375 56.34645843505859 96.99945068359375 49.99964141845703 C 96.99945068359375 43.65341186523438 95.7572021484375 37.49859619140625 93.30722045898438 31.70618438720703 C 90.94015502929688 26.10985565185547 87.55089569091797 21.08321380615234 83.23355865478516 16.76587677001953 C 78.91621398925781 12.44853210449219 73.88955688476562 9.059272766113281 68.293212890625 6.692230224609375 C 62.50078582763672 4.242240905761719 56.34597015380859 3 49.99972534179688 3 M 49.99972534179688 0 C 77.61381530761719 0 99.99945068359375 22.38559722900391 99.99945068359375 49.99964141845703 L 99.99945068359375 50.00022888183594 C 99.99945068359375 77.6142578125 77.61381530761719 99.99987030029297 49.99972534179688 99.99987030029297 C 22.38563537597656 99.99987030029297 0 77.6142578125 0 50.00022888183594 L 0 49.99964141845703 C 0 22.38559722900391 22.38563537597656 0 49.99972534179688 0 Z" stroke="none" fill="#fff"/>
              </g>
            </g>
            <g id="Trazado_874923" data-name="Trazado 874923" transform="translate(0 0)" fill="none">
              <path d="M50,0a50,50,0,0,1,50,50h0A50,50,0,0,1,0,50H0A50,50,0,0,1,50,0Z" stroke="none"/>
              <path d="M 49.99972534179688 3 C 43.65348052978516 3 37.49866485595703 4.242240905761719 31.70623016357422 6.692230224609375 C 26.10989379882812 9.059272766113281 21.08323669433594 12.44853210449219 16.76589202880859 16.76587677001953 C 12.44855499267578 21.08321380615234 9.059295654296875 26.10985565185547 6.692230224609375 31.70618438720703 C 4.24224853515625 37.49859619140625 3 43.65341186523438 3 50.00022888183594 C 3 56.34645843505859 4.24224853515625 62.50127410888672 6.692230224609375 68.29368591308594 C 9.059295654296875 73.8900146484375 12.44855499267578 78.91665649414062 16.76589202880859 83.23399353027344 C 21.08323669433594 87.55132293701172 26.10989379882812 90.94059753417969 31.70623016357422 93.30764007568359 C 37.49866485595703 95.75762939453125 43.65348052978516 96.99987030029297 49.99972534179688 96.99987030029297 C 56.34597015380859 96.99987030029297 62.50078582763672 95.75762939453125 68.293212890625 93.30764007568359 C 73.88955688476562 90.94059753417969 78.91621398925781 87.55132293701172 83.23355865478516 83.23399353027344 C 87.55089569091797 78.91665649414062 90.94015502929688 73.8900146484375 93.30722045898438 68.29368591308594 C 95.7572021484375 62.50127410888672 96.99945068359375 56.34645843505859 96.99945068359375 49.99964141845703 C 96.99945068359375 43.65341186523438 95.7572021484375 37.49859619140625 93.30722045898438 31.70618438720703 C 90.94015502929688 26.10985565185547 87.55089569091797 21.08321380615234 83.23355865478516 16.76587677001953 C 78.91621398925781 12.44853210449219 73.88955688476562 9.059272766113281 68.293212890625 6.692230224609375 C 62.50078582763672 4.242240905761719 56.34597015380859 3 49.99972534179688 3 M 49.99972534179688 0 C 77.61381530761719 0 99.99945068359375 22.38559722900391 99.99945068359375 49.99964141845703 L 99.99945068359375 50.00022888183594 C 99.99945068359375 77.6142578125 77.61381530761719 99.99987030029297 49.99972534179688 99.99987030029297 C 22.38563537597656 99.99987030029297 0 77.6142578125 0 50.00022888183594 L 0 49.99964141845703 C 0 22.38559722900391 22.38563537597656 0 49.99972534179688 0 Z" stroke="none" fill="#fff"/>
            </g>
          </g>
        </g>
      </g>
    </g>
    <g id="Grupo_1123412" data-name="Grupo 1123412" transform="translate(4159 -10265.574)">
      <g id="Grupo_1123407" data-name="Grupo 1123407" transform="translate(1.091 62.678)">
        <g id="Grupo_1123405" data-name="Grupo 1123405">
          <path id="Trazado_920059" data-name="Trazado 920059" d="M51.923,124.917l1.65-9.889,3.029-8.293a3.125,3.125,0,1,0-5.872-2.141l-3.447,9.473-1.635,9.8Z" transform="translate(-40.101 -97.674)" fill="#f9a08f"/>
          <path id="Trazado_920060" data-name="Trazado 920060" d="M44.438,91.492V81.466l1.623-8.679a3.125,3.125,0,1,0-6.144-1.145l-1.841,9.911v9.939h6.362Z" transform="translate(-33.63 -69.088)" fill="#fdb0a0"/>
          <path id="Trazado_920061" data-name="Trazado 920061" d="M19.8,135.93v-2.8a4.862,4.862,0,0,0-1.209-3.209L9.11,119.128a6.472,6.472,0,0,1-1.61-4.272V96.165l1.841-9.911A3.125,3.125,0,1,1,15.485,87.4l-1.623,8.679v12.393l12.355,12.355,9.1,3.4V135.93H19.8Z" transform="translate(-7.5 -81.575)" fill="#ffcec0"/>
          <path id="Trazado_920062" data-name="Trazado 920062" d="M44.161,178.906l1.341-6.867a3.466,3.466,0,0,0-6.727-1.64l-2.6,8.874a4.073,4.073,0,0,0,.523,3.514l10.3,15.085H59.656v-3.12c0-8.475-15.495-15.847-15.495-15.847Z" transform="translate(-31.843 -153.54)" fill="#ffcec0"/>
          <path id="Trazado_920063" data-name="Trazado 920063" d="M61.873,178.906l1.341-6.867a3.466,3.466,0,0,0-2.994-4.106,3.565,3.565,0,0,0-.41-.025,3.468,3.468,0,0,0-3.1,1.921,3.467,3.467,0,0,1,2.235,3.929l-1.076,5.511a1.834,1.834,0,0,0,.938,1.971c3.64,1.937,14.292,8.205,14.292,15.231v11.424h4.269V194.752C77.367,186.278,61.873,178.906,61.873,178.906Z" transform="translate(-49.555 -153.539)" fill="#fdb0a0"/>
        </g>
        <g id="Grupo_1123406" data-name="Grupo 1123406" transform="translate(44.452)">
          <path id="Trazado_920064" data-name="Trazado 920064" d="M394.569,124.917l-1.65-9.889-3.029-8.293a3.125,3.125,0,1,1,5.872-2.141l3.447,9.473,1.635,9.8Z" transform="translate(-378.578 -97.674)" fill="#f9a08f"/>
          <path id="Trazado_920065" data-name="Trazado 920065" d="M420.31,91.492V81.466l-1.623-8.679a3.125,3.125,0,1,1,6.144-1.145l1.841,9.911v9.939H420.31Z" transform="translate(-403.305 -69.088)" fill="#fdb0a0"/>
          <path id="Trazado_920066" data-name="Trazado 920066" d="M328.728,135.93v-2.8a4.862,4.862,0,0,1,1.209-3.209l9.482-10.792a6.473,6.473,0,0,0,1.61-4.272V96.165l-1.841-9.911a3.125,3.125,0,1,0-6.144,1.145l1.623,8.679v12.393l-12.355,12.355-9.1,3.4V135.93h15.512Z" transform="translate(-313.216 -81.575)" fill="#ffcec0"/>
          <path id="Trazado_920067" data-name="Trazado 920067" d="M409.776,96.163v18.69a6.481,6.481,0,0,1-1.61,4.273l-9.482,10.792a4.861,4.861,0,0,0-1.21,3.209v2.8H393.66v-2.8a4.861,4.861,0,0,1,1.21-3.209l9.482-10.792a6.473,6.473,0,0,0,1.61-4.273V96.163l-1.841-9.911a3.119,3.119,0,0,0-1.166-1.9,3.126,3.126,0,0,1,4.981,1.9Z" transform="translate(-381.963 -81.574)" fill="#fdb0a0"/>
          <path id="Trazado_920068" data-name="Trazado 920068" d="M328.711,178.906l-1.341-6.867a3.466,3.466,0,0,1,6.727-1.64l2.6,8.874a4.073,4.073,0,0,1-.523,3.514l-10.3,15.085H313.216v-3.12C313.216,186.278,328.711,178.906,328.711,178.906Z" transform="translate(-313.216 -153.54)" fill="#ffcec0"/>
        </g>
      </g>
      <g id="Grupo_1123411" data-name="Grupo 1123411" transform="translate(0 61.587)">
        <g id="Grupo_1123408" data-name="Grupo 1123408" transform="translate(21.01 3.22)">
          <path id="Trazado_920069" data-name="Trazado 920069" d="M179.177,121.79v2.226a1.877,1.877,0,0,1-.744,1.5l-2.278,1.726a1.857,1.857,0,0,1-.83.356l-3.084.506a10.775,10.775,0,0,0-8.933,9.2,1.405,1.405,0,0,1-1.765,1.166c-15.4-4.2-17.167-17.334-17.036-23.914a1.4,1.4,0,0,1,1.406-1.369l5.048.014,11.625-3.06,3.326.54a1.884,1.884,0,0,1,1.418,1.1l1.054,2.392,9.891,6.023A1.882,1.882,0,0,1,179.177,121.79Z" transform="translate(-144.501 -106.294)" fill="#fff2e3"/>
          <path id="Trazado_920070" data-name="Trazado 920070" d="M251.706,171.424v2.225a1.878,1.878,0,0,1-.745,1.5l-2.276,1.726a1.872,1.872,0,0,1-.83.356l-3.084.505a10.775,10.775,0,0,0-8.933,9.2,1.407,1.407,0,0,1-1.765,1.166,27.335,27.335,0,0,1-4.7-1.738c.163.048.33.095.5.14a1.471,1.471,0,0,0,1.849-1.222,11.293,11.293,0,0,1,9.361-9.639l3.233-.53a1.939,1.939,0,0,0,.869-.372l2.387-1.81a1.964,1.964,0,0,0,.779-1.567v-2.332a1.971,1.971,0,0,0-.176-.813l2.636,1.606A1.882,1.882,0,0,1,251.706,171.424Z" transform="translate(-217.03 -155.929)" fill="#fee7c9"/>
          <path id="Trazado_920071" data-name="Trazado 920071" d="M173.927,117.535c-3.037,10.218-11.339,2.3-16.59,7.164a11.609,11.609,0,0,1-10.166,2.637,27.635,27.635,0,0,1-2.665-12.791,1.4,1.4,0,0,1,1.407-1.368l5.047.014,11.625-3.06,3.324.54a1.886,1.886,0,0,1,1.418,1.1l1.054,2.392Z" transform="translate(-144.499 -106.292)" fill="#3f5959"/>
          <path id="Trazado_920072" data-name="Trazado 920072" d="M347.736,165.309v2.225a1.878,1.878,0,0,1-.745,1.5l-2.276,1.726c0-2.5-.656-2.915-2.227-4.85a4.3,4.3,0,0,1,0-4.85l4.346,2.647A1.883,1.883,0,0,1,347.736,165.309Z" transform="translate(-313.06 -149.813)" fill="#fcac8d"/>
          <path id="Trazado_920073" data-name="Trazado 920073" d="M357.348,171.433v2.225a1.878,1.878,0,0,1-.745,1.5l-2.276,1.726a4.813,4.813,0,0,0-1.34-3.779l.221-.168a1.964,1.964,0,0,0,.779-1.567v-2.333a1.962,1.962,0,0,0-.176-.812l2.636,1.6a1.882,1.882,0,0,1,.9,1.606Z" transform="translate(-322.672 -155.937)" fill="#f9a08f"/>
          <path id="Trazado_920074" data-name="Trazado 920074" d="M215.153,86.188a5.527,5.527,0,0,1,.492,5.249,1.847,1.847,0,0,1-1.672,1.119,5.534,5.534,0,0,1-5.157-7.7,1.847,1.847,0,0,1,1.672-1.119A5.527,5.527,0,0,1,215.153,86.188Z" transform="translate(-199.085 -83.732)" fill="#3f5959"/>
        </g>
        <g id="Grupo_1123410" data-name="Grupo 1123410" transform="translate(0 0)">
          <path id="Trazado_920075" data-name="Trazado 920075" d="M199.789,123.553h-2.242A1.555,1.555,0,0,1,195.993,122v-3.354a1.555,1.555,0,0,1,1.555-1.555h2.242a1.555,1.555,0,0,1,1.555,1.555V122A1.555,1.555,0,0,1,199.789,123.553Z" transform="translate(-167.495 -109.019)" fill="#fcc16d"/>
          <path id="Trazado_920076" data-name="Trazado 920076" d="M209.213,118.647V122a1.554,1.554,0,0,1-1.555,1.555h-2.241a1.413,1.413,0,0,1-.216-.016A1.556,1.556,0,0,0,206.538,122v-3.354a1.554,1.554,0,0,0-1.337-1.539,1.412,1.412,0,0,1,.216-.016h2.241A1.554,1.554,0,0,1,209.213,118.647Z" transform="translate(-175.364 -109.021)" fill="#fca62f"/>
          <g id="Grupo_1123409" data-name="Grupo 1123409">
            <path id="Trazado_920077" data-name="Trazado 920077" d="M173.154,301.276a1.091,1.091,0,0,0-.16,1.534,9.319,9.319,0,0,1,2.451,5.71v13.142a1.091,1.091,0,1,0,2.181,0V308.52a11.4,11.4,0,0,0-2.938-7.084A1.09,1.09,0,0,0,173.154,301.276Z" transform="translate(-147.632 -266.217)"/>
            <path id="Trazado_920078" data-name="Trazado 920078" d="M15.833,79.72l2.783-7.606a4.207,4.207,0,0,0-4-5.66,4.214,4.214,0,0,0-7.86-2.674,4.212,4.212,0,0,0-4.894,3.378L.018,77.069a1.074,1.074,0,0,0-.018.2v18.69a7.561,7.561,0,0,0,1.881,4.992l9.481,10.792a3.77,3.77,0,0,1,.938,2.489v2.8a1.091,1.091,0,0,0,2.181,0v-2.8A5.95,5.95,0,0,0,13,110.3L3.52,99.511a5.38,5.38,0,0,1-1.339-3.552V77.369L4,67.557A2.035,2.035,0,1,1,8,68.3L6.381,76.981a1.093,1.093,0,0,0-.019.2v3.959a1.1,1.1,0,0,0,.011.146l-2,6.809a5.134,5.134,0,0,0,.667,4.445l7.325,10.727a1.09,1.09,0,0,0,1.8-1.23L6.842,91.311a2.966,2.966,0,0,1-.383-2.573l.006-.019,2.6-8.874a2.375,2.375,0,0,1,4.61,1.124l-1.341,6.867a1.091,1.091,0,0,0,.6,1.193,49.771,49.771,0,0,1,8.852,5.644,1.09,1.09,0,1,0,1.383-1.686,51.126,51.126,0,0,0-8.537-5.546l1.182-6.054a4.55,4.55,0,0,0,.013-1.666Zm-7.21-2.862L10.148,68.7a4.213,4.213,0,0,0-1.417-3.99,2.035,2.035,0,0,1,3.719,1.464l-1.623,8.679a1.092,1.092,0,0,0-.019.2v.931A4.534,4.534,0,0,0,8.622,76.858Zm4.366-.594V75.158L14.2,68.685a2.034,2.034,0,0,1,2.367,2.681l-2.122,5.809a4.589,4.589,0,0,0-1.457-.91Z" transform="translate(0 -61.588)"/>
            <path id="Trazado_920079" data-name="Trazado 920079" d="M319.878,79.721a4.552,4.552,0,0,0,.013,1.665l1.182,6.053c-3.23,1.66-15.356,8.428-15.356,16.452v13.1a1.121,1.121,0,0,0,1.057,1.136,1.091,1.091,0,0,0,1.124-1.09V103.89c0-3.919,3.961-7.714,7.284-10.208a50.784,50.784,0,0,1,7.589-4.654,1.091,1.091,0,0,0,.6-1.193l-1.328-6.8a2.458,2.458,0,0,1,.4-1.922,2.351,2.351,0,0,1,1.645-.958,2.423,2.423,0,0,1,2.57,1.753l2.586,8.811.006.019a2.966,2.966,0,0,1-.383,2.574l-7.3,10.69a1.12,1.12,0,0,0,.233,1.533,1.091,1.091,0,0,0,1.543-.266L330.67,92.54a5.135,5.135,0,0,0,.667-4.445l-2.014-6.862a1.092,1.092,0,0,0,.027-.237V77.181a1.089,1.089,0,0,0-.019-.2l-1.614-8.628a2.1,2.1,0,0,1,.254-1.486,2.035,2.035,0,0,1,3.737.69l1.822,9.812v18.59a5.38,5.38,0,0,1-1.339,3.552L322.71,110.3a5.95,5.95,0,0,0-1.481,3.929v2.756a1.121,1.121,0,0,0,1.057,1.136,1.091,1.091,0,0,0,1.124-1.09v-2.8a3.77,3.77,0,0,1,.938-2.489l9.482-10.792a7.56,7.56,0,0,0,1.881-4.992V77.267a1.084,1.084,0,0,0-.018-.2l-1.841-9.911a4.212,4.212,0,0,0-4.894-3.378,4.214,4.214,0,0,0-7.86,2.674,4.214,4.214,0,0,0-4.259,4.192,1.087,1.087,0,0,0,1.46,1.032l.013,0a1.107,1.107,0,0,0,.707-1.039,2.035,2.035,0,0,1,2.491-1.95l1.211,6.473v1.106a4.581,4.581,0,0,0-1.457.91l-.321-.879a1.121,1.121,0,0,0-1.382-.7A1.091,1.091,0,0,0,318.88,77Zm5.025-3.734v-.931a1.092,1.092,0,0,0-.019-.2l-1.623-8.679a2.035,2.035,0,0,1,3.719-1.464,4.213,4.213,0,0,0-1.417,3.99l1.525,8.155A4.536,4.536,0,0,0,324.9,75.987Z" transform="translate(-261.265 -61.587)"/>
            <path id="Trazado_920080" data-name="Trazado 920080" d="M173.981,90.284c-1.531,2.917-3.722,2.925-7.169,2.7-2.718-.18-5.8-.383-8.317,1.949a10.568,10.568,0,0,1-9.239,2.363,1.091,1.091,0,0,0-.374,2.149,16.126,16.126,0,0,0,2.76.245,11.943,11.943,0,0,0,8.334-3.156c1.831-1.695,4.192-1.539,6.691-1.373,2.647.175,5.58.368,7.8-1.857a4.177,4.177,0,0,0,.507.8c.206.254.4.482.573.693.958,1.148,1.3,1.56,1.387,2.767l-2.977.488a11.857,11.857,0,0,0-3.239,1.025,1.091,1.091,0,1,0,.949,1.964,9.676,9.676,0,0,1,2.643-.836l3.078-.5a2.956,2.956,0,0,0,1.317-.564l2.277-1.725a2.982,2.982,0,0,0,1.176-2.366V92.82a2.991,2.991,0,0,0-1.425-2.537l-9.6-5.845-.917-2.082a2.966,2.966,0,0,0-2.239-1.729l-3.326-.54a1.093,1.093,0,0,0-.452.022l-.282.074a6.6,6.6,0,0,0-6.058-3.949h-.078a2.932,2.932,0,0,0-2.663,1.783,6.609,6.609,0,0,0-.5,3.2,2.653,2.653,0,0,0-1.745,1.875l-.157.041-4.905-.014h0a1.091,1.091,0,0,0,0,2.181l4.987.014v1.771a2.648,2.648,0,0,0,2.645,2.645h2.242a2.648,2.648,0,0,0,2.645-2.645V83.73a2.648,2.648,0,0,0-2.645-2.646h-.88a4.437,4.437,0,0,1,.331-2.213.76.76,0,0,1,.681-.456,4.442,4.442,0,0,1,4.377,5.465,1.09,1.09,0,1,0,2.122.5,6.611,6.611,0,0,0,.152-2.087l.073-.019,3.1.5a.789.789,0,0,1,.595.459l1.054,2.392a1.09,1.09,0,0,0,.431.492l4.692,2.857A7.824,7.824,0,0,0,173.981,90.284Zm-15.835-6.555v3.354a.465.465,0,0,1-.464.464H155.44a.465.465,0,0,1-.464-.464V83.729a.465.465,0,0,1,.464-.465h2.242A.465.465,0,0,1,158.146,83.729ZM179.6,92.144a.786.786,0,0,1,.38.675v2.226a.79.79,0,0,1-.312.627l-.743.563a6.908,6.908,0,0,0-1.7-2.835c-.17-.2-.354-.424-.553-.669a2.908,2.908,0,0,1-.363-2.591Z" transform="translate(-125.388 -74.104)"/>
            <path id="Trazado_920081" data-name="Trazado 920081" d="M270.068,255.777a1.09,1.09,0,0,0-1.524.236,11.887,11.887,0,0,0-2.185,5.425,1.091,1.091,0,0,0,.936,1.226,1.106,1.106,0,0,0,.146.01,1.091,1.091,0,0,0,1.079-.946A9.7,9.7,0,0,1,270.3,257.3,1.091,1.091,0,0,0,270.068,255.777Z" transform="translate(-227.621 -227.361)"/>
          </g>
        </g>
      </g>
    </g>
  </g>
</svg>
