<svg xmlns="http://www.w3.org/2000/svg" xmlns:xlink="http://www.w3.org/1999/xlink" width="117.999" height="118" viewBox="0 0 117.999 118">
  <defs>
    <filter id="Trazado_874925" x="0" y="0" width="117.999" height="118" filterUnits="userSpaceOnUse">
      <feOffset dy="3" input="SourceAlpha"/>
      <feGaussianBlur stdDeviation="3" result="blur"/>
      <feFlood flood-opacity="0.161"/>
      <feComposite operator="in" in2="blur"/>
      <feComposite in="SourceGraphic"/>
    </filter>
  </defs>
  <g id="Grupo_1123686" data-name="Grupo 1123686" transform="translate(-740.464 -12914.357)">
    <g id="Grupo_1111553" data-name="Grupo 1111553" transform="translate(749.463 12920.357)">
      <g id="Grupo_1111316" data-name="Grupo 1111316" transform="translate(0 0)">
        <g id="Grupo_1109835" data-name="Grupo 1109835" transform="translate(0 0)">
          <g id="Grupo_1107913" data-name="Grupo 1107913" transform="translate(0 0)">
            <g transform="matrix(1, 0, 0, 1, -9, -6)" filter="url(#Trazado_874925)">
              <g id="Trazado_874925-2" data-name="Trazado 874925" transform="translate(9 6)" fill="#bb965f" opacity="0.859">
                <path d="M 49.99972534179688 98.4998779296875 C 43.45164108276367 98.4998779296875 37.10022354125977 97.21776580810547 31.12189674377441 94.68914794921875 C 25.34676742553711 92.24647521972656 20.15985298156738 88.74925994873047 15.70523929595947 84.29464721679688 C 11.25062561035156 79.84004974365234 7.753411293029785 74.65313720703125 5.310725212097168 68.87800598144531 C 2.782111167907715 62.89969253540039 1.499996781349182 56.54829406738281 1.499996781349182 50.00022125244141 C 1.499996781349182 43.45157623291016 2.782111167907715 37.10017776489258 5.310725212097168 31.12186431884766 C 7.753411293029785 25.34673500061035 11.25062561035156 20.15983581542969 15.70523929595947 15.70522117614746 C 20.15985298156738 11.25062084197998 25.34676742553711 7.753406524658203 31.12189674377441 5.31073522567749 C 37.10022354125977 2.782120943069458 43.45164108276367 1.500006556510925 49.99972534179688 1.500006556510925 C 56.54780960083008 1.500006556510925 62.89922714233398 2.782120943069458 68.87755584716797 5.31073522567749 C 74.65267944335938 7.753406524658203 79.839599609375 11.25062084197998 84.29421234130859 15.70522117614746 C 88.74882507324219 20.15983581542969 92.24604034423828 25.34673500061035 94.68872833251953 31.12186431884766 C 97.21733856201172 37.10017776489258 98.49945068359375 43.45157623291016 98.49945068359375 49.99964904785156 C 98.49945068359375 56.54829406738281 97.21733856201172 62.89969253540039 94.68872833251953 68.87800598144531 C 92.24604034423828 74.65313720703125 88.74882507324219 79.84004974365234 84.29421234130859 84.29464721679688 C 79.839599609375 88.74925994873047 74.65267944335938 92.24647521972656 68.87755584716797 94.68914794921875 C 62.89922714233398 97.21776580810547 56.54780960083008 98.4998779296875 49.99972534179688 98.4998779296875 Z" stroke="none"/>
                <path d="M 49.99972534179688 3 C 43.65348052978516 3 37.49866485595703 4.242240905761719 31.70623016357422 6.692230224609375 C 26.10989379882812 9.059272766113281 21.08323669433594 12.44853210449219 16.76589202880859 16.76587677001953 C 12.44855499267578 21.08321380615234 9.059295654296875 26.10985565185547 6.692230224609375 31.70618438720703 C 4.24224853515625 37.49859619140625 3 43.65341186523438 3 50.00022888183594 C 3 56.34645843505859 4.24224853515625 62.50127410888672 6.692230224609375 68.29368591308594 C 9.059295654296875 73.8900146484375 12.44855499267578 78.91665649414062 16.76589202880859 83.23399353027344 C 21.08323669433594 87.55132293701172 26.10989379882812 90.94059753417969 31.70623016357422 93.30764007568359 C 37.49866485595703 95.75762939453125 43.65348052978516 96.99987030029297 49.99972534179688 96.99987030029297 C 56.34597015380859 96.99987030029297 62.50078582763672 95.75762939453125 68.293212890625 93.30764007568359 C 73.88955688476562 90.94059753417969 78.91621398925781 87.55132293701172 83.23355865478516 83.23399353027344 C 87.55089569091797 78.91665649414062 90.94015502929688 73.8900146484375 93.30722045898438 68.29368591308594 C 95.7572021484375 62.50127410888672 96.99945068359375 56.34645843505859 96.99945068359375 49.99964141845703 C 96.99945068359375 43.65341186523438 95.7572021484375 37.49859619140625 93.30722045898438 31.70618438720703 C 90.94015502929688 26.10985565185547 87.55089569091797 21.08321380615234 83.23355865478516 16.76587677001953 C 78.91621398925781 12.44853210449219 73.88955688476562 9.059272766113281 68.293212890625 6.692230224609375 C 62.50078582763672 4.242240905761719 56.34597015380859 3 49.99972534179688 3 M 49.99972534179688 0 C 77.61381530761719 0 99.99945068359375 22.38559722900391 99.99945068359375 49.99964141845703 L 99.99945068359375 50.00022888183594 C 99.99945068359375 77.6142578125 77.61381530761719 99.99987030029297 49.99972534179688 99.99987030029297 C 22.38563537597656 99.99987030029297 0 77.6142578125 0 50.00022888183594 L 0 49.99964141845703 C 0 22.38559722900391 22.38563537597656 0 49.99972534179688 0 Z" stroke="none" fill="#fff"/>
              </g>
            </g>
            <g id="Trazado_874923" data-name="Trazado 874923" fill="none">
              <path d="M50,0a50,50,0,0,1,50,50h0A50,50,0,0,1,0,50H0A50,50,0,0,1,50,0Z" stroke="none"/>
              <path d="M 49.99972534179688 3 C 43.65348052978516 3 37.49866485595703 4.242240905761719 31.70623016357422 6.692230224609375 C 26.10989379882812 9.059272766113281 21.08323669433594 12.44853210449219 16.76589202880859 16.76587677001953 C 12.44855499267578 21.08321380615234 9.059295654296875 26.10985565185547 6.692230224609375 31.70618438720703 C 4.24224853515625 37.49859619140625 3 43.65341186523438 3 50.00022888183594 C 3 56.34645843505859 4.24224853515625 62.50127410888672 6.692230224609375 68.29368591308594 C 9.059295654296875 73.8900146484375 12.44855499267578 78.91665649414062 16.76589202880859 83.23399353027344 C 21.08323669433594 87.55132293701172 26.10989379882812 90.94059753417969 31.70623016357422 93.30764007568359 C 37.49866485595703 95.75762939453125 43.65348052978516 96.99987030029297 49.99972534179688 96.99987030029297 C 56.34597015380859 96.99987030029297 62.50078582763672 95.75762939453125 68.293212890625 93.30764007568359 C 73.88955688476562 90.94059753417969 78.91621398925781 87.55132293701172 83.23355865478516 83.23399353027344 C 87.55089569091797 78.91665649414062 90.94015502929688 73.8900146484375 93.30722045898438 68.29368591308594 C 95.7572021484375 62.50127410888672 96.99945068359375 56.34645843505859 96.99945068359375 49.99964141845703 C 96.99945068359375 43.65341186523438 95.7572021484375 37.49859619140625 93.30722045898438 31.70618438720703 C 90.94015502929688 26.10985565185547 87.55089569091797 21.08321380615234 83.23355865478516 16.76587677001953 C 78.91621398925781 12.44853210449219 73.88955688476562 9.059272766113281 68.293212890625 6.692230224609375 C 62.50078582763672 4.242240905761719 56.34597015380859 3 49.99972534179688 3 M 49.99972534179688 0 C 77.61381530761719 0 99.99945068359375 22.38559722900391 99.99945068359375 49.99964141845703 L 99.99945068359375 50.00022888183594 C 99.99945068359375 77.6142578125 77.61381530761719 99.99987030029297 49.99972534179688 99.99987030029297 C 22.38563537597656 99.99987030029297 0 77.6142578125 0 50.00022888183594 L 0 49.99964141845703 C 0 22.38559722900391 22.38563537597656 0 49.99972534179688 0 Z" stroke="none" fill="#fff"/>
            </g>
          </g>
        </g>
      </g>
    </g>
    <g id="Grupo_1123685" data-name="Grupo 1123685" transform="translate(769.075 12939)">
      <g id="Grupo_1123683" data-name="Grupo 1123683">
        <g id="Grupo_1123664" data-name="Grupo 1123664">
          <path id="Trazado_921071" data-name="Trazado 921071" d="M41,51v3a7,7,0,0,1-7,7H31V58a7,7,0,0,1,7-7Z" fill="#b4dd7f"/>
        </g>
        <g id="Grupo_1123665" data-name="Grupo 1123665">
          <path id="Trazado_921072" data-name="Trazado 921072" d="M21,51v3a7,7,0,0,1-7,7H11V58a7,7,0,0,1,7-7Z" fill="#b4dd7f"/>
        </g>
        <g id="Grupo_1123666" data-name="Grupo 1123666">
          <path id="Trazado_921073" data-name="Trazado 921073" d="M51,58a7,7,0,0,1,7-7h3v3a7,7,0,0,1-7,7H51Z" fill="#b4dd7f"/>
        </g>
        <g id="Grupo_1123667" data-name="Grupo 1123667">
          <path id="Trazado_921074" data-name="Trazado 921074" d="M51,58v3H48a7,7,0,0,1-7-7V51h3A7,7,0,0,1,51,58Z" fill="#b4dd7f"/>
        </g>
        <g id="Grupo_1123668" data-name="Grupo 1123668">
          <path id="Trazado_921075" data-name="Trazado 921075" d="M11,58v3H8a7,7,0,0,1-7-7V51H4A7,7,0,0,1,11,58Z" fill="#b4dd7f"/>
        </g>
        <g id="Grupo_1123669" data-name="Grupo 1123669">
          <path id="Trazado_921076" data-name="Trazado 921076" d="M31,61H28a7,7,0,0,1-7-7V51h3a7,7,0,0,1,7,7Z" fill="#b4dd7f"/>
        </g>
        <g id="Grupo_1123670" data-name="Grupo 1123670">
          <path id="Trazado_921077" data-name="Trazado 921077" d="M57.46,48.83,58,51a7,7,0,0,0-7,7,7,7,0,0,0-7-7l.54-2.17a2.348,2.348,0,0,1,.46-.92A2.4,2.4,0,0,1,46.88,47H47a2.406,2.406,0,0,1,1.71.71L49,48l.29-.29a2.414,2.414,0,0,1,3.42,0L53,48l.29-.29A2.406,2.406,0,0,1,55,47h.12a2.415,2.415,0,0,1,2.34,1.83Z" fill="#a0d468"/>
        </g>
        <g id="Grupo_1123671" data-name="Grupo 1123671">
          <path id="Trazado_921078" data-name="Trazado 921078" d="M37.46,48.83,38,51a7,7,0,0,0-7,7,7,7,0,0,0-7-7l.54-2.17A2.415,2.415,0,0,1,26.88,47H27a2.406,2.406,0,0,1,1.71.71L29,48l.29-.29a2.414,2.414,0,0,1,3.42,0L33,48l.29-.29A2.406,2.406,0,0,1,35,47h.12a2.4,2.4,0,0,1,1.88.91,2.348,2.348,0,0,1,.46.92Z" fill="#a0d468"/>
        </g>
        <g id="Grupo_1123672" data-name="Grupo 1123672">
          <path id="Trazado_921079" data-name="Trazado 921079" d="M17.46,48.83,18,51a7,7,0,0,0-7,7,7,7,0,0,0-7-7l.54-2.17A2.415,2.415,0,0,1,6.88,47H7a2.406,2.406,0,0,1,1.71.71L9,48l.29-.29a2.414,2.414,0,0,1,3.42,0L13,48l.29-.29A2.406,2.406,0,0,1,15,47h.12A2.415,2.415,0,0,1,17.46,48.83Z" fill="#a0d468"/>
        </g>
        <g id="Grupo_1123673" data-name="Grupo 1123673">
          <path id="Trazado_921080" data-name="Trazado 921080" d="M37.28,2.67,38,7H26l.72-4.33A2.006,2.006,0,0,1,28.69,1h6.62A2.006,2.006,0,0,1,37.28,2.67Z" fill="#cf9e76"/>
        </g>
        <g id="Grupo_1123674" data-name="Grupo 1123674">
          <path id="Trazado_921081" data-name="Trazado 921081" d="M41,8v2a1,1,0,0,1-1,1H24a1,1,0,0,1-1-1V8a1,1,0,0,1,1-1H40A1,1,0,0,1,41,8Z" fill="#d3a06c"/>
        </g>
        <g id="Grupo_1123675" data-name="Grupo 1123675">
          <path id="Trazado_921082" data-name="Trazado 921082" d="M37,47.91A2.4,2.4,0,0,0,35.12,47H35a2.406,2.406,0,0,0-1.71.71L33,48l-.29-.29A2.406,2.406,0,0,0,31,47V44.47A18.874,18.874,0,0,1,33,36l11.2-2.8.22-.52.16.64A2.214,2.214,0,0,0,46.73,35a.974.974,0,0,0,.24-.02V35a16.823,16.823,0,0,1-1.76,6.58L45,42v5.91a2.348,2.348,0,0,0-.46.92L44,51H38l-.54-2.17a2.348,2.348,0,0,0-.46-.92Z" fill="#d3a06c"/>
        </g>
        <g id="Grupo_1123676" data-name="Grupo 1123676">
          <path id="Trazado_921083" data-name="Trazado 921083" d="M32.19,32.76A6.718,6.718,0,0,1,30.4,33H25V27h4l4-4,1.56-1.56a6.116,6.116,0,0,1,.96-.79,6.416,6.416,0,0,1,3.35-1.04.757.757,0,0,1,.15-.01,6.387,6.387,0,0,1,1.83.27l.4.12,3.17,12.69-.22.52L33,36l-.81-3.23Z" fill="#fcd770"/>
        </g>
        <g id="Grupo_1123677" data-name="Grupo 1123677">
          <path id="Trazado_921084" data-name="Trazado 921084" d="M25,27v6H22a3,3,0,0,1-2.12-5.12,2.911,2.911,0,0,1,.27-.24A2.984,2.984,0,0,1,22,27Z" fill="#f0d0b4"/>
        </g>
        <g id="Grupo_1123678" data-name="Grupo 1123678">
          <path id="Trazado_921085" data-name="Trazado 921085" d="M38.56,19.06l.31.54v.01a6.416,6.416,0,0,0-3.35,1.04,6.116,6.116,0,0,0-.96.79L33,23l-.88-4.38a3.472,3.472,0,0,1-1.58.38A3.534,3.534,0,0,1,27,15.46V15h2a2.006,2.006,0,0,0,2-2V11h6v.53a18.913,18.913,0,0,0,1.56,7.53Z" fill="#f0d0b4"/>
        </g>
        <g id="Grupo_1123679" data-name="Grupo 1123679">
          <path id="Trazado_921086" data-name="Trazado 921086" d="M31,11v2a2.006,2.006,0,0,1-2,2H27V11Z" fill="#69d6f4"/>
        </g>
        <g id="Grupo_1123680" data-name="Grupo 1123680">
          <path id="Trazado_921087" data-name="Trazado 921087" d="M48.4,13.61l.36,1.45v.01h-.02L43,16.5V14.53a2.117,2.117,0,0,1,1.45-2.01l1.22-.41a2.237,2.237,0,0,1,.67-.11A2.109,2.109,0,0,1,48.4,13.61Z" fill="#aab2bd"/>
        </g>
        <g id="Grupo_1123681" data-name="Grupo 1123681">
          <path id="Trazado_921088" data-name="Trazado 921088" d="M54.93,30.74l-.88-3.53L51.42,16.68A2.214,2.214,0,0,0,49.27,15a1.745,1.745,0,0,0-.51.07h-.02L43,16.5l-.32.08A2.214,2.214,0,0,0,41,18.73a1.882,1.882,0,0,0,.07.53l.18.73,3.17,12.69.16.64A2.214,2.214,0,0,0,46.73,35a.974.974,0,0,0,.24-.02.929.929,0,0,0,.29-.05l6.06-1.51A2.214,2.214,0,0,0,55,31.27a1.882,1.882,0,0,0-.07-.53Z" fill="#ccd1d9"/>
        </g>
        <g id="Grupo_1123682" data-name="Grupo 1123682">
          <path id="Trazado_921089" data-name="Trazado 921089" d="M47.95,28.57A1.987,1.987,0,0,1,46,31a2.063,2.063,0,0,1-.79-.16,2,2,0,1,1,2.74-2.27Z" fill="#aab2bd"/>
        </g>
      </g>
      <g id="Grupo_1123684" data-name="Grupo 1123684">
        <path id="Trazado_921090" data-name="Trazado 921090" d="M58.78,50l-.354-1.414A3.406,3.406,0,0,0,55.115,46H55a3.4,3.4,0,0,0-2,.646,3.49,3.49,0,0,0-4,0A3.394,3.394,0,0,0,47,46h-.115a3.379,3.379,0,0,0-.885.128V42.236l.1-.211a17.806,17.806,0,0,0,1.781-6.216l5.68-1.42A3.207,3.207,0,0,0,56,31.272a3.155,3.155,0,0,0-.1-.779l-3.515-14.06a3.2,3.2,0,0,0-2.852-2.411l-.164-.657a3.12,3.12,0,0,0-4.014-2.2l-1.224.408A3.115,3.115,0,0,0,42,14.528v1.231A3.2,3.2,0,0,0,40,18.673c-.182-.025-.364-.05-.547-.061A17.823,17.823,0,0,1,38.024,12H40a2,2,0,0,0,2-2V8a2,2,0,0,0-2-2H38.847l-.582-3.493A2.991,2.991,0,0,0,35.306,0H28.695a2.989,2.989,0,0,0-2.959,2.507L25.153,6H24a2,2,0,0,0-2,2v2a2,2,0,0,0,2,2h2v3.464a4.513,4.513,0,0,0,5.364,4.455l.551,2.752L28.586,26H22a3.955,3.955,0,0,0-1.25.22l-.34-1.078a3.066,3.066,0,0,0-4.293-1.819l-1.564.782.895,1.789,1.564-.782a1.088,1.088,0,0,1,1.49.631l.512,1.621a3.969,3.969,0,0,0,2.058,6.516l.6,1.892a11.721,11.721,0,0,0,8.355,7.875c-.011.275-.024.55-.024.825v1.691a3.262,3.262,0,0,0-1,.484A3.388,3.388,0,0,0,27,46h-.115a3.408,3.408,0,0,0-3.312,2.586L23.22,50H18.78l-.354-1.414A3.406,3.406,0,0,0,15.115,46H15a3.4,3.4,0,0,0-2,.646,3.49,3.49,0,0,0-4,0A3.394,3.394,0,0,0,7,46H6.885a3.408,3.408,0,0,0-3.312,2.586L3.22,50H0v4a8.009,8.009,0,0,0,8,8h6a8,8,0,0,0,7-4.136A8,8,0,0,0,28,62h6a8,8,0,0,0,7-4.136A8,8,0,0,0,48,62h6a8.009,8.009,0,0,0,8-8V50Zm-11.9-2H47a1.406,1.406,0,0,1,1,.414l1,1,1-1a1.447,1.447,0,0,1,2,0l1,1,1-1A1.406,1.406,0,0,1,55,48h.115a1.412,1.412,0,0,1,1.372,1.071l.259,1.037A8.012,8.012,0,0,0,51,54.136a8.013,8.013,0,0,0-5.747-4.027l.259-1.037A1.413,1.413,0,0,1,46.885,48Zm-8.1,2-.354-1.414A3.43,3.43,0,0,0,38,47.595v-4.76a11.758,11.758,0,0,0,5.718-5.971l.766-1.788a3.189,3.189,0,0,0,1.386.8,15.853,15.853,0,0,1-1.554,5.258L44,41.764V47.6a3.412,3.412,0,0,0-.427.99L43.22,50H38.78ZM35.447,37.1l-.9,1.789A2.605,2.605,0,0,1,36,41.236v.242A9.729,9.729,0,0,1,32.9,42c-.239,0-.476-.012-.711-.028a18.078,18.078,0,0,1,1.521-5.117l8.782-2.195-.607,1.417a9.742,9.742,0,0,1-3.928,4.494A4.6,4.6,0,0,0,35.447,37.1Zm2.74-11.686-2.906,4.069A6.016,6.016,0,0,1,30.4,32H26V28h2.586l1.707,1.707,1.414-1.414L30.414,27l4.851-4.851a5.391,5.391,0,0,1,.809-.664,5.272,5.272,0,0,1,4.345-.694l2.9,11.6-9.59,2.4-.345-1.377a8,8,0,0,0,3.524-2.76l2.906-4.069ZM45,29a1,1,0,1,1,1,1A1,1,0,0,1,45,29Zm8.082,3.449-6.06,1.515a1.235,1.235,0,0,1-1.472-.882l-.078-.312.338-.788c.065,0,.125.018.19.018a2.994,2.994,0,0,0,2.963-2.634l4.356-.968.645,2.581a1.263,1.263,0,0,1,.036.293,1.212,1.212,0,0,1-.918,1.177ZM44.767,13.465l1.225-.408a1.142,1.142,0,0,1,1.44.792l.12.482L44,15.219v-.691a1.119,1.119,0,0,1,.767-1.063Zm-1.849,4.086,6.06-1.515a1.214,1.214,0,0,1,1.471.882l2.384,9.539-4.3.955A2.972,2.972,0,0,0,43.98,26.8l-1.944-7.776A1.263,1.263,0,0,1,42,18.728a1.212,1.212,0,0,1,.918-1.177ZM27.708,2.835A1,1,0,0,1,28.694,2h6.611a1,1,0,0,1,.986.836L36.82,6H27.18ZM24,8H40v2H24Zm6,4v1a1,1,0,0,1-1,1H28V12Zm3.237,7.087a4.525,4.525,0,0,0,.505-.415l.965-.964-1.414-1.415-.965.965A2.534,2.534,0,0,1,28.059,16H29a3,3,0,0,0,3-3V12h4.024a19.775,19.775,0,0,0,1.369,6.785,7.309,7.309,0,0,0-2.43,1.037,7.394,7.394,0,0,0-1.111.912l-.238.238ZM20,30a2,2,0,0,1,2-2h2v4H22A2,2,0,0,1,20,30Zm3.575,5.169L23.206,34H30.4a8.005,8.005,0,0,0,1.053-.075l.494,1.975a20.023,20.023,0,0,0-1.729,5.722A9.726,9.726,0,0,1,23.575,35.169ZM32.9,44a11.772,11.772,0,0,0,3.1-.422v2.55A3.379,3.379,0,0,0,35.115,46H35a3.4,3.4,0,0,0-2,.646,3.262,3.262,0,0,0-1-.484v-1.69c0-.169.01-.338.015-.507C32.306,43.986,32.6,44,32.9,44Zm-6.011,4H27a1.406,1.406,0,0,1,1,.414l1,1,1-1a1.447,1.447,0,0,1,2,0l1,1,1-1A1.406,1.406,0,0,1,35,48h.115a1.412,1.412,0,0,1,1.372,1.071l.259,1.037A8.012,8.012,0,0,0,31,54.136a8.013,8.013,0,0,0-5.747-4.027l.259-1.037A1.413,1.413,0,0,1,26.885,48Zm-20,0H7a1.406,1.406,0,0,1,1,.414l1,1,1-1a1.447,1.447,0,0,1,2,0l1,1,1-1A1.406,1.406,0,0,1,15,48h.115a1.412,1.412,0,0,1,1.372,1.071l.259,1.037A8.012,8.012,0,0,0,11,54.136a8.013,8.013,0,0,0-5.747-4.027l.259-1.037A1.413,1.413,0,0,1,6.885,48ZM2,54V52H4a6.006,6.006,0,0,1,6,6v.586L5.707,54.293,4.293,55.707,8.586,60H8A6.006,6.006,0,0,1,2,54Zm12,6h-.586l4.293-4.293-1.414-1.414L12,58.586V58a6.006,6.006,0,0,1,6-6h2v2A6.006,6.006,0,0,1,14,60Zm8-6V52h2a6.006,6.006,0,0,1,6,6v.586l-4.293-4.293-1.414,1.414L28.586,60H28a6.006,6.006,0,0,1-6-6Zm12,6h-.586l4.293-4.293-1.414-1.414L32,58.586V58a6.006,6.006,0,0,1,6-6h2v2A6.006,6.006,0,0,1,34,60Zm8-6V52h2a6.006,6.006,0,0,1,6,6v.586l-4.293-4.293-1.414,1.414L48.586,60H48A6.006,6.006,0,0,1,42,54Zm18,0a6.006,6.006,0,0,1-6,6h-.586l4.293-4.293-1.414-1.414L52,58.586V58a6.006,6.006,0,0,1,6-6h2Z"/>
        <path id="Trazado_921091" data-name="Trazado 921091" d="M3.728,26.5h8.544v2H3.728Z" transform="translate(-9.154 4.566) rotate(-20.556)"/>
        <path id="Trazado_921092" data-name="Trazado 921092" d="M6.352,31.5h10.3v2H6.352Z" transform="translate(-22.494 26.761) rotate(-60.923)"/>
        <path id="Trazado_921093" data-name="Trazado 921093" d="M7,16.9H9V27.1H7Z" transform="matrix(0.196, -0.981, 0.981, 0.196, -15.142, 25.53)"/>
      </g>
    </g>
  </g>
</svg>
