<svg xmlns="http://www.w3.org/2000/svg" xmlns:xlink="http://www.w3.org/1999/xlink" width="118" height="118" viewBox="0 0 118 118">
  <defs>
    <filter id="Trazado_874925" x="0" y="0" width="118" height="118" filterUnits="userSpaceOnUse">
      <feOffset dy="3" input="SourceAlpha"/>
      <feGaussianBlur stdDeviation="3" result="blur"/>
      <feFlood flood-opacity="0.161"/>
      <feComposite operator="in" in2="blur"/>
      <feComposite in="SourceGraphic"/>
    </filter>
  </defs>
  <g id="Grupo_1123431" data-name="Grupo 1123431" transform="translate(-4798 10231.72)">
    <g id="Grupo_1111553" data-name="Grupo 1111553" transform="translate(3998.5 -12742.877)">
      <g id="Grupo_1111316" data-name="Grupo 1111316" transform="translate(808.5 2517.157)">
        <g id="Grupo_1109835" data-name="Grupo 1109835" transform="translate(0 0)">
          <g id="Grupo_1107913" data-name="Grupo 1107913" transform="translate(0 0)">
            <g transform="matrix(1, 0, 0, 1, -9, -6)" filter="url(#Trazado_874925)">
              <g id="Trazado_874925-2" data-name="Trazado 874925" transform="translate(9 6)" fill="#bb965f" opacity="0.859">
                <path d="M 49.99972534179688 98.4998779296875 C 43.45164108276367 98.4998779296875 37.10022354125977 97.21776580810547 31.12189674377441 94.68914794921875 C 25.34676742553711 92.24647521972656 20.15985298156738 88.74925994873047 15.70523929595947 84.29464721679688 C 11.25062561035156 79.84004974365234 7.753411293029785 74.65313720703125 5.310725212097168 68.87800598144531 C 2.782111167907715 62.89969253540039 1.499996781349182 56.54829406738281 1.499996781349182 50.00022125244141 C 1.499996781349182 43.45157623291016 2.782111167907715 37.10017776489258 5.310725212097168 31.12186431884766 C 7.753411293029785 25.34673500061035 11.25062561035156 20.15983581542969 15.70523929595947 15.70522117614746 C 20.15985298156738 11.25062084197998 25.34676742553711 7.753406524658203 31.12189674377441 5.31073522567749 C 37.10022354125977 2.782120943069458 43.45164108276367 1.500006556510925 49.99972534179688 1.500006556510925 C 56.54780960083008 1.500006556510925 62.89922714233398 2.782120943069458 68.87755584716797 5.31073522567749 C 74.65267944335938 7.753406524658203 79.839599609375 11.25062084197998 84.29421234130859 15.70522117614746 C 88.74882507324219 20.15983581542969 92.24604034423828 25.34673500061035 94.68872833251953 31.12186431884766 C 97.21733856201172 37.10017776489258 98.49945068359375 43.45157623291016 98.49945068359375 49.99964904785156 C 98.49945068359375 56.54829406738281 97.21733856201172 62.89969253540039 94.68872833251953 68.87800598144531 C 92.24604034423828 74.65313720703125 88.74882507324219 79.84004974365234 84.29421234130859 84.29464721679688 C 79.839599609375 88.74925994873047 74.65267944335938 92.24647521972656 68.87755584716797 94.68914794921875 C 62.89922714233398 97.21776580810547 56.54780960083008 98.4998779296875 49.99972534179688 98.4998779296875 Z" stroke="none"/>
                <path d="M 49.99972534179688 3 C 43.65348052978516 3 37.49866485595703 4.242240905761719 31.70623016357422 6.692230224609375 C 26.10989379882812 9.059272766113281 21.08323669433594 12.44853210449219 16.76589202880859 16.76587677001953 C 12.44855499267578 21.08321380615234 9.059295654296875 26.10985565185547 6.692230224609375 31.70618438720703 C 4.24224853515625 37.49859619140625 3 43.65341186523438 3 50.00022888183594 C 3 56.34645843505859 4.24224853515625 62.50127410888672 6.692230224609375 68.29368591308594 C 9.059295654296875 73.8900146484375 12.44855499267578 78.91665649414062 16.76589202880859 83.23399353027344 C 21.08323669433594 87.55132293701172 26.10989379882812 90.94059753417969 31.70623016357422 93.30764007568359 C 37.49866485595703 95.75762939453125 43.65348052978516 96.99987030029297 49.99972534179688 96.99987030029297 C 56.34597015380859 96.99987030029297 62.50078582763672 95.75762939453125 68.293212890625 93.30764007568359 C 73.88955688476562 90.94059753417969 78.91621398925781 87.55132293701172 83.23355865478516 83.23399353027344 C 87.55089569091797 78.91665649414062 90.94015502929688 73.8900146484375 93.30722045898438 68.29368591308594 C 95.7572021484375 62.50127410888672 96.99945068359375 56.34645843505859 96.99945068359375 49.99964141845703 C 96.99945068359375 43.65341186523438 95.7572021484375 37.49859619140625 93.30722045898438 31.70618438720703 C 90.94015502929688 26.10985565185547 87.55089569091797 21.08321380615234 83.23355865478516 16.76587677001953 C 78.91621398925781 12.44853210449219 73.88955688476562 9.059272766113281 68.293212890625 6.692230224609375 C 62.50078582763672 4.242240905761719 56.34597015380859 3 49.99972534179688 3 M 49.99972534179688 0 C 77.61381530761719 0 99.99945068359375 22.38559722900391 99.99945068359375 49.99964141845703 L 99.99945068359375 50.00022888183594 C 99.99945068359375 77.6142578125 77.61381530761719 99.99987030029297 49.99972534179688 99.99987030029297 C 22.38563537597656 99.99987030029297 0 77.6142578125 0 50.00022888183594 L 0 49.99964141845703 C 0 22.38559722900391 22.38563537597656 0 49.99972534179688 0 Z" stroke="none" fill="#fff"/>
              </g>
            </g>
            <g id="Trazado_874923" data-name="Trazado 874923" transform="translate(0 0)" fill="none">
              <path d="M50,0a50,50,0,0,1,50,50h0A50,50,0,0,1,0,50H0A50,50,0,0,1,50,0Z" stroke="none"/>
              <path d="M 49.99972534179688 3 C 43.65348052978516 3 37.49866485595703 4.242240905761719 31.70623016357422 6.692230224609375 C 26.10989379882812 9.059272766113281 21.08323669433594 12.44853210449219 16.76589202880859 16.76587677001953 C 12.44855499267578 21.08321380615234 9.059295654296875 26.10985565185547 6.692230224609375 31.70618438720703 C 4.24224853515625 37.49859619140625 3 43.65341186523438 3 50.00022888183594 C 3 56.34645843505859 4.24224853515625 62.50127410888672 6.692230224609375 68.29368591308594 C 9.059295654296875 73.8900146484375 12.44855499267578 78.91665649414062 16.76589202880859 83.23399353027344 C 21.08323669433594 87.55132293701172 26.10989379882812 90.94059753417969 31.70623016357422 93.30764007568359 C 37.49866485595703 95.75762939453125 43.65348052978516 96.99987030029297 49.99972534179688 96.99987030029297 C 56.34597015380859 96.99987030029297 62.50078582763672 95.75762939453125 68.293212890625 93.30764007568359 C 73.88955688476562 90.94059753417969 78.91621398925781 87.55132293701172 83.23355865478516 83.23399353027344 C 87.55089569091797 78.91665649414062 90.94015502929688 73.8900146484375 93.30722045898438 68.29368591308594 C 95.7572021484375 62.50127410888672 96.99945068359375 56.34645843505859 96.99945068359375 49.99964141845703 C 96.99945068359375 43.65341186523438 95.7572021484375 37.49859619140625 93.30722045898438 31.70618438720703 C 90.94015502929688 26.10985565185547 87.55089569091797 21.08321380615234 83.23355865478516 16.76587677001953 C 78.91621398925781 12.44853210449219 73.88955688476562 9.059272766113281 68.293212890625 6.692230224609375 C 62.50078582763672 4.242240905761719 56.34597015380859 3 49.99972534179688 3 M 49.99972534179688 0 C 77.61381530761719 0 99.99945068359375 22.38559722900391 99.99945068359375 49.99964141845703 L 99.99945068359375 50.00022888183594 C 99.99945068359375 77.6142578125 77.61381530761719 99.99987030029297 49.99972534179688 99.99987030029297 C 22.38563537597656 99.99987030029297 0 77.6142578125 0 50.00022888183594 L 0 49.99964141845703 C 0 22.38559722900391 22.38563537597656 0 49.99972534179688 0 Z" stroke="none" fill="#fff"/>
            </g>
          </g>
        </g>
      </g>
    </g>
    <g id="Grupo_1123430" data-name="Grupo 1123430" transform="translate(4827.333 -10205.887)">
      <g id="Grupo_1123429" data-name="Grupo 1123429" transform="translate(0.884 0.884)">
        <g id="Grupo_1123421" data-name="Grupo 1123421" transform="translate(1.099 5.753)">
          <path id="Trazado_920105" data-name="Trazado 920105" d="M71.711,59.295h-53.4a1.486,1.486,0,1,1,0-2.973h53.4a1.486,1.486,0,1,1,0,2.973Z" transform="translate(-16.829 -56.322)" fill="#ffd52b"/>
        </g>
        <g id="Grupo_1123425" data-name="Grupo 1123425" transform="translate(19.565)">
          <g id="Grupo_1123423" data-name="Grupo 1123423">
            <g id="Grupo_1123422" data-name="Grupo 1123422">
              <path id="Trazado_920106" data-name="Trazado 920106" d="M194.457,81.517H173.531v10.2a9.621,9.621,0,0,0,1.531,5.207,8.1,8.1,0,0,1,1.531,4.5v29.935h13.242v-30a6.811,6.811,0,0,1,2-4.82l1.839-1.837a10.4,10.4,0,0,0,3.052-7.36V83.783A2.267,2.267,0,0,0,194.457,81.517Z" transform="translate(-173.531 -72.795)" fill="#e68d35"/>
              <path id="Trazado_920107" data-name="Trazado 920107" d="M254.484,19.572a2.269,2.269,0,0,1-3.989-1.477V9.766a2.268,2.268,0,0,1,4.537,0v9.164" transform="translate(-241.425 -7.5)" fill="#e68d35"/>
              <path id="Trazado_920108" data-name="Trazado 920108" d="M260.923,7.5a2.256,2.256,0,0,0-1.178.332,2.262,2.262,0,0,1,1.09,1.934v8.321a2.289,2.289,0,0,1-1.088,1.943,2.264,2.264,0,0,0,2.9-.458l.548-.641V9.766A2.267,2.267,0,0,0,260.923,7.5Z" transform="translate(-249.585 -7.5)" fill="#d47619"/>
              <path id="Trazado_920109" data-name="Trazado 920109" d="M293.512,21.81h-4.536V16.1a2.268,2.268,0,1,1,4.537,0v5.706Z" transform="translate(-275.372 -13.088)" fill="#e68d35"/>
              <path id="Trazado_920110" data-name="Trazado 920110" d="M299.405,13.833a2.254,2.254,0,0,0-1.178.333,2.265,2.265,0,0,1,1.09,1.936v5.706h2.357V16.1A2.268,2.268,0,0,0,299.405,13.833Z" transform="translate(-283.533 -13.087)" fill="#d47619"/>
              <path id="Trazado_920111" data-name="Trazado 920111" d="M185.086,83.9a6.858,6.858,0,0,1,6.862-6.854V75.306h-2.3a3.8,3.8,0,0,1-3.8-3.794.738.738,0,0,1,.738-.737h7.868a2.267,2.267,0,0,1,2.268,2.266V76.6a10.4,10.4,0,0,1-3.052,7.36L191.834,85.8a6.812,6.812,0,0,0-2,4.82v30H176.593V90.685a8.1,8.1,0,0,0-1.531-4.5,9.621,9.621,0,0,1-1.531-5.207V69.34" transform="translate(-173.531 -62.053)" fill="none"/>
              <path id="Trazado_920112" data-name="Trazado 920112" d="M175.8,32.3a2.268,2.268,0,0,1-2.268-2.268v-4.8a2.268,2.268,0,0,1,4.537,0v4.8A2.268,2.268,0,0,1,175.8,32.3Z" transform="translate(-173.531 -21.143)" fill="#e68d35"/>
              <path id="Trazado_920113" data-name="Trazado 920113" d="M183.959,22.966a2.254,2.254,0,0,0-1.178.333,2.265,2.265,0,0,1,1.09,1.936v4.8a2.265,2.265,0,0,1-1.09,1.936,2.265,2.265,0,0,0,3.447-1.936v-4.8A2.268,2.268,0,0,0,183.959,22.966Z" transform="translate(-181.691 -21.143)" fill="#d47619"/>
              <path id="Trazado_920114" data-name="Trazado 920114" d="M214.281,25.322a2.268,2.268,0,0,1-2.268-2.268V16.1a2.268,2.268,0,1,1,4.537,0v6.951A2.268,2.268,0,0,1,214.281,25.322Z" transform="translate(-207.478 -13.088)" fill="#e68d35"/>
              <path id="Trazado_920115" data-name="Trazado 920115" d="M222.441,13.833a2.254,2.254,0,0,0-1.178.333,2.265,2.265,0,0,1,1.09,1.936v6.951a2.265,2.265,0,0,1-1.09,1.936,2.265,2.265,0,0,0,3.447-1.936V16.1a2.268,2.268,0,0,0-2.268-2.269Z" transform="translate(-215.638 -13.087)" fill="#d47619"/>
            </g>
          </g>
          <g id="Grupo_1123424" data-name="Grupo 1123424" transform="translate(1.473 29.956)">
            <path id="Trazado_920116" data-name="Trazado 920116" d="M186.032,287.16h16.49v25.612h-16.49Z" transform="translate(-186.032 -284.16)" fill="#6deba9"/>
            <path id="Trazado_920117" data-name="Trazado 920117" d="M285.969,287.16h4.714v25.612h-4.714Z" transform="translate(-274.192 -284.16)" fill="#49de90"/>
            <path id="Trazado_920118" data-name="Trazado 920118" d="M186.032,261.7h16.49v5.844h-16.49Z" transform="translate(-186.032 -261.705)" fill="#1caf6c"/>
            <path id="Trazado_920119" data-name="Trazado 920119" d="M285.969,261.7h4.714v5.844h-4.714Z" transform="translate(-274.192 -261.705)" fill="#0ea05e"/>
          </g>
          <path id="Trazado_920120" data-name="Trazado 920120" d="M278.079,82.254a.738.738,0,0,1,.738-.737h7.868l-2.509,4.531h-2.3A3.8,3.8,0,0,1,278.079,82.254Z" transform="translate(-265.759 -72.795)" fill="#e68d35"/>
        </g>
        <g id="Grupo_1123426" data-name="Grupo 1123426" transform="translate(0 24.613)">
          <ellipse id="Elipse_11985" data-name="Elipse 11985" cx="2.669" cy="2.666" rx="2.669" ry="2.666" transform="translate(9.122)" fill="#ffd52b"/>
          <path id="Trazado_920121" data-name="Trazado 920121" d="M26.067,382.767H12.517A5.016,5.016,0,0,1,7.5,377.75H31.083A5.016,5.016,0,0,1,26.067,382.767Z" transform="translate(-7.5 -358.732)" fill="#ffd52b"/>
          <path id="Trazado_920122" data-name="Trazado 920122" d="M130.072,377.75a5.016,5.016,0,0,1-5.017,5.017h4.714a5.017,5.017,0,0,0,5.017-5.016h-4.714Z" transform="translate(-111.202 -358.732)" fill="#fcca00"/>
        </g>
        <g id="Grupo_1123428" data-name="Grupo 1123428" transform="translate(34.984 24.613)">
          <g id="Grupo_1123427" data-name="Grupo 1123427" transform="translate(9.122)">
            <ellipse id="Elipse_11986" data-name="Elipse 11986" cx="2.669" cy="2.666" rx="2.669" ry="2.666" fill="#ffd52b"/>
          </g>
          <path id="Trazado_920123" data-name="Trazado 920123" d="M309.391,382.767h13.55a5.017,5.017,0,0,0,5.017-5.017H304.375A5.016,5.016,0,0,0,309.391,382.767Z" transform="translate(-304.375 -358.732)" fill="#ffd52b"/>
          <path id="Trazado_920124" data-name="Trazado 920124" d="M426.947,377.75a5.016,5.016,0,0,1-5.017,5.017h4.714a5.016,5.016,0,0,0,5.017-5.016h-4.714Z" transform="translate(-408.077 -358.732)" fill="#fcca00"/>
        </g>
      </g>
      <path id="Trazado_920125" data-name="Trazado 920125" d="M59.451,58.567H39.3V50.2a5.882,5.882,0,0,0,1.588.219h13.55a5.907,5.907,0,0,0,5.9-5.9.884.884,0,0,0-.884-.884H57.013L50.07,30.768a3.547,3.547,0,0,0-1.527-6.044V10.494h2.194v.494a.884.884,0,0,0,1.768,0v-.494h4.36c3.043,0,3.047-4.74,0-4.74h-4.36V4.864a.884.884,0,0,0-1.768,0v.889H48.543V4.864a.884.884,0,0,0-1.768,0v.889h-7.3V3.9a3.15,3.15,0,0,0-5.069-2.5,3.151,3.151,0,0,0-5.237,0,3.148,3.148,0,0,0-4.674.975,3.15,3.15,0,0,0-4.93,2.6v.778H13.559V4.864a.884.884,0,0,0-1.768,0v.889H9.6V4.864a.884.884,0,0,0-1.768,0v.889H3.47c-3.043,0-3.047,4.74,0,4.74H7.83v.494a.884.884,0,0,0,1.768,0v-.494h2.194v14.23a3.547,3.547,0,0,0-1.527,6.044L3.322,43.631H.884A.884.884,0,0,0,0,44.515a5.907,5.907,0,0,0,5.9,5.9H19.45a5.882,5.882,0,0,0,1.588-.219v8.371H.884a.884.884,0,1,0,0,1.768H59.451a.884.884,0,0,0,0-1.768ZM55,43.631H53.227a.884.884,0,0,0,0,1.768h5.245a4.14,4.14,0,0,1-4.037,3.249H40.884A4.14,4.14,0,0,1,36.847,45.4H48.522V43.631H40.315L46.8,31.608a3.546,3.546,0,0,0,1.711,0Zm-32.2-11.907H37.529V35.8H22.806Zm26.639-3.561A1.785,1.785,0,1,1,47.66,26.38,1.786,1.786,0,0,1,49.445,28.163Zm-2.669-3.439a3.547,3.547,0,0,0-1.527,6.044L39.3,41.8V30.84a.884.884,0,0,0-.884-.884h-.775a6.164,6.164,0,0,1,1.739-4.7c2.8-2.8,5.151-5.618,5.151-9.823V11.872a3.127,3.127,0,0,0-.318-1.378h2.566v14.23Zm10.09-17.2a.6.6,0,0,1,0,1.205h-4.36V7.521Zm-6.128,0V8.726H48.543V7.521Zm-3.962,0V8.726l-7.3,0v-1.2ZM36.322,2.514A1.386,1.386,0,0,1,37.707,3.9V8.722H34.939V3.854A1.385,1.385,0,0,1,36.322,2.514Zm-4.535-.746A1.385,1.385,0,0,1,33.172,3.15l0,5.608a1.623,1.623,0,0,0-1.284,1.585,4.644,4.644,0,0,0,.618,2.318,1.4,1.4,0,0,1-2.1-1.183V3.15a1.385,1.385,0,0,1,1.385-1.382Zm-4.535.746a1.385,1.385,0,0,1,1.382,1.34v7.039a1.384,1.384,0,0,1-2.767-.044V3.9A1.386,1.386,0,0,1,27.252,2.514ZM21.333,4.975A1.384,1.384,0,0,1,24.1,4.931V9.817a1.384,1.384,0,0,1-2.767-.044ZM19.565,7.521V8.726H13.559V7.521ZM3.47,8.726a.6.6,0,0,1,0-1.205H7.83V8.726Zm6.128,0V7.521h2.194V8.726H9.6Zm9.968,1.768v4.129a.884.884,0,1,0,1.768,0V12.6a3.145,3.145,0,0,0,3.162-.229,3.148,3.148,0,0,0,4.728.932,3.15,3.15,0,0,0,4.441.7,4.661,4.661,0,0,0,2.9,1.012h1.414v.019a7.752,7.752,0,0,0-6.862,7.687.884.884,0,0,0,1.768,0,5.981,5.981,0,0,1,5.978-5.97.884.884,0,0,0,.884-.884V14.137a.884.884,0,0,0-.884-.884h-2.3a2.917,2.917,0,0,1-2.912-2.764q3.9,0,7.793,0a1.384,1.384,0,0,1,1.311,1.378v3.561c0,3.724-2.175,6.118-4.632,8.572a8.084,8.084,0,0,0-2.258,5.951H24.4a9.21,9.21,0,0,0-1.675-5.427,8.72,8.72,0,0,1-1.387-4.724.884.884,0,1,0-1.768,0,10.484,10.484,0,0,0,1.672,5.686,7.571,7.571,0,0,1,1.391,4.465h-.706a.884.884,0,0,0-.884.884V41.8L15.086,30.768a3.547,3.547,0,0,0-1.527-6.044V10.494ZM12.675,26.38a1.783,1.783,0,1,1-1.785,1.783A1.786,1.786,0,0,1,12.675,26.38Zm-.855,5.228a3.548,3.548,0,0,0,1.711,0L20.02,43.631H5.331ZM5.9,48.647A4.14,4.14,0,0,1,1.863,45.4H23.488a4.14,4.14,0,0,1-4.037,3.249Zm16.906,9.92v-9.2a5.9,5.9,0,0,0,2.545-4.849.884.884,0,0,0-.884-.884H22.806V37.567H37.529v6.064H35.868a.884.884,0,0,0-.884.884,5.9,5.9,0,0,0,2.545,4.849v9.2Z" fill="#060606"/>
    </g>
  </g>
</svg>
