<svg xmlns="http://www.w3.org/2000/svg" xmlns:xlink="http://www.w3.org/1999/xlink" width="118" height="118" viewBox="0 0 118 118">
  <defs>
    <filter id="Trazado_896985" x="0" y="0" width="118" height="118" filterUnits="userSpaceOnUse">
      <feOffset dy="3" input="SourceAlpha"/>
      <feGaussianBlur stdDeviation="3" result="blur"/>
      <feFlood flood-opacity="0.161"/>
      <feComposite operator="in" in2="blur"/>
      <feComposite in="SourceGraphic"/>
    </filter>
  </defs>
  <g id="Grupo_1119682" data-name="Grupo 1119682" transform="translate(-583.051 -7797)">
    <g id="Grupo_1111318" data-name="Grupo 1111318" transform="translate(592.051 7803)">
      <g id="Grupo_1109826" data-name="Grupo 1109826" transform="translate(0 0)">
        <g id="Grupo_1098742" data-name="Grupo 1098742">
          <g transform="matrix(1, 0, 0, 1, -9, -6)" filter="url(#Trazado_896985)">
            <g id="Trazado_896985-2" data-name="Trazado 896985" transform="translate(9 6)" fill="#9ad354" opacity="0.859">
              <path d="M 49.99993515014648 98.5 C 43.45182037353516 98.5 37.10037612915039 97.21788024902344 31.12203598022461 94.68925476074219 C 25.34687805175781 92.24656677246094 20.15993499755859 88.74932098388672 15.70530700683594 84.29469299316406 C 11.25067806243896 79.84006500244141 7.753435134887695 74.65312194824219 5.310749530792236 68.87796783447266 C 2.782120943069458 62.89962387084961 1.500006556510925 56.54818344116211 1.500006556510925 50.00006866455078 C 1.500006556510925 43.45180892944336 2.782120943069458 37.10036849975586 5.310749530792236 31.12202453613281 C 7.753435134887695 25.34686851501465 11.25067806243896 20.15992546081543 15.70530700683594 15.70529651641846 C 20.15993499755859 11.25066757202148 25.34687805175781 7.753424644470215 31.12203598022461 5.310739040374756 C 37.10037612915039 2.782110452651978 43.45182037353516 1.499996185302734 49.99993515014648 1.499996185302734 C 56.54804992675781 1.499996185302734 62.89949417114258 2.782110452651978 68.87783813476562 5.310739040374756 C 74.65299224853516 7.753424644470215 79.83993530273438 11.25066757202148 84.29457855224609 15.70529651641846 C 88.74920654296875 20.15992546081543 92.24643707275391 25.34686851501465 94.68911743164062 31.12202453613281 C 97.21775054931641 37.10036849975586 98.4998779296875 43.45180892944336 98.4998779296875 49.99992370605469 C 98.4998779296875 56.54818344116211 97.21775054931641 62.89962387084961 94.68911743164062 68.87796783447266 C 92.24643707275391 74.65312194824219 88.74920654296875 79.84006500244141 84.29457855224609 84.29469299316406 C 79.83993530273438 88.74932098388672 74.65299224853516 92.24656677246094 68.87783813476562 94.68925476074219 C 62.89949417114258 97.21788024902344 56.54804992675781 98.5 49.99993515014648 98.5 Z" stroke="none"/>
              <path d="M 49.99993515014648 2.999992370605469 C 43.65365982055664 2.999992370605469 37.49881362915039 4.242256164550781 31.70636749267578 6.6922607421875 C 26.10999298095703 9.059318542480469 21.08332061767578 12.44859313964844 16.76596832275391 16.76596832275391 C 12.44859313964844 21.08332061767578 9.059318542480469 26.10999298095703 6.6922607421875 31.70636749267578 C 4.242256164550781 37.49880981445312 3 43.65365600585938 3 50.00005722045898 C 3 56.34633636474609 4.242256164550781 62.50118255615234 6.6922607421875 68.29362487792969 C 9.059318542480469 73.88999938964844 12.44859313964844 78.91667175292969 16.76596832275391 83.23402404785156 C 21.08332061767578 87.55139923095703 26.10999298095703 90.940673828125 31.70636749267578 93.30773162841797 C 37.49881362915039 95.75773620605469 43.65365982055664 97 49.99993515014648 97 C 56.34621047973633 97 62.50105667114258 95.75773620605469 68.29350280761719 93.30773162841797 C 73.88987731933594 90.940673828125 78.91654968261719 87.55139923095703 83.23390197753906 83.23402404785156 C 87.55126953125 78.91667175292969 90.9405517578125 73.88999938964844 93.30760955810547 68.29362487792969 C 95.75761413574219 62.50118255615234 96.99987030029297 56.34633636474609 96.99987030029297 49.99993515014648 C 96.99987030029297 43.65365600585938 95.75761413574219 37.49880981445312 93.30760955810547 31.70636749267578 C 90.9405517578125 26.10999298095703 87.55126953125 21.08332061767578 83.23390197753906 16.76596832275391 C 78.91654968261719 12.44859313964844 73.88987731933594 9.059318542480469 68.29350280761719 6.6922607421875 C 62.50105667114258 4.242256164550781 56.34621047973633 2.999992370605469 49.99993515014648 2.999992370605469 M 49.99993515014648 -7.62939453125e-06 C 77.6141357421875 -7.62939453125e-06 99.99987030029297 22.38573455810547 99.99987030029297 49.99993515014648 L 99.99987030029297 50.00005722045898 C 99.99987030029297 77.6142578125 77.6141357421875 100 49.99993515014648 100 C 22.38573455810547 100 0 77.6142578125 0 50.00005722045898 L 0 49.99993515014648 C 0 22.38573455810547 22.38573455810547 -7.62939453125e-06 49.99993515014648 -7.62939453125e-06 Z" stroke="none" fill="#fff"/>
            </g>
          </g>
          <g id="Rectángulo_400907" data-name="Rectángulo 400907" transform="translate(0)" fill="none" stroke="#fff" stroke-width="3">
            <rect width="100" height="100" rx="50" stroke="none"/>
            <rect x="1.5" y="1.5" width="97" height="97" rx="48.5" fill="none"/>
          </g>
        </g>
      </g>
    </g>
    <g id="Grupo_1119289" data-name="Grupo 1119289" transform="translate(614.051 7818.301)">
      <g id="Grupo_1119287" data-name="Grupo 1119287" transform="translate(0.821 8.52)">
        <g id="Grupo_1119286" data-name="Grupo 1119286" transform="translate(29.247 35.802)">
          <path id="Trazado_916691" data-name="Trazado 916691" d="M277.1,351.76a14.423,14.423,0,0,0,3.456-1.724l5.117-3.477a3.79,3.79,0,0,0,.876-.826v-3.5H277.41l-2.751,5.5v4.018Z" transform="translate(-274.659 -342.237)" fill="#ffbd86"/>
        </g>
        <path id="Trazado_916692" data-name="Trazado 916692" d="M126.4,359.726s6.052,5.587,6.932,11.971a2.68,2.68,0,0,1-2.662,3.035h-16.29a2.685,2.685,0,0,1-2.685-2.685V361.677Z" transform="translate(-100.293 -322.009)" fill="#f57a89"/>
        <path id="Trazado_916693" data-name="Trazado 916693" d="M11.928,74.029A19.132,19.132,0,0,1,31.039,54.918V74.029Z" transform="translate(-11.443 -50.57)" fill="#4c5694"/>
        <path id="Trazado_916694" data-name="Trazado 916694" d="M77.987,105.767c0,8.4-6.809,14.15-15.209,14.15s-15.209-5.75-15.209-14.15a15.209,15.209,0,1,1,30.418,0Z" transform="translate(-43.182 -82.308)" fill="#fed2a4"/>
        <path id="Trazado_916695" data-name="Trazado 916695" d="M25.608,122.872a18.32,18.32,0,0,1-1.861-28.927,15.236,15.236,0,0,0-11.171,10.3,4.382,4.382,0,1,0-.1,8.667c1.695,5.657,6.854,9.442,13.13,9.96Z" transform="translate(-7.5 -85.324)" fill="#ffbd86"/>
        <ellipse id="Elipse_11858" data-name="Elipse 11858" cx="3.277" cy="2.609" rx="3.277" ry="2.609" transform="translate(9.409 21.207)" fill="#fb8999"/>
        <ellipse id="Elipse_11859" data-name="Elipse 11859" cx="3.277" cy="2.609" rx="3.277" ry="2.609" transform="translate(27.17 21.207)" fill="#fb8999"/>
        <ellipse id="Elipse_11860" data-name="Elipse 11860" cx="1.739" cy="1.946" rx="1.739" ry="1.946" transform="translate(19.827 19.865)" fill="#303646"/>
        <path id="Trazado_916696" data-name="Trazado 916696" d="M281.1,176.041a8.01,8.01,0,0,0,0,15.132l14.023,4.872V171.169Z" transform="translate(-246.359 -154.094)" fill="#e4e3f5"/>
        <path id="Trazado_916697" data-name="Trazado 916697" d="M117.7,374.11a12.264,12.264,0,0,1,1.188-5.282l-7.193.954v10.371a2.685,2.685,0,0,0,2.685,2.685h6.949A12.273,12.273,0,0,1,117.7,374.11Z" transform="translate(-100.292 -330.115)" fill="#df5c70"/>
        <path id="Trazado_916698" data-name="Trazado 916698" d="M108.247,307.919a14.37,14.37,0,0,1-8.071-2.47l-2.069-1.4a3.793,3.793,0,0,1,4.245-6.288l2.069,1.4a6.8,6.8,0,0,0,7.669-.011l5.117-3.477a3.793,3.793,0,0,1,4.264,6.275l-5.117,3.477a14.37,14.37,0,0,1-8.085,2.493Z" transform="translate(-86.7 -264.384)" fill="#fbaf71"/>
        <path id="Trazado_916699" data-name="Trazado 916699" d="M84.807,22.87c0,4.237-3.435,5.5-7.671,5.5H68.31c-5.312,0-9.777-2.907-9.694-8.639a2.965,2.965,0,0,1,4.124-2.679C67.35,19,73.628,15.2,77.136,15.2A7.671,7.671,0,0,1,84.807,22.87Z" transform="translate(-53.019 -15.199)" fill="#5f66ad"/>
        <ellipse id="Elipse_11861" data-name="Elipse 11861" cx="5.641" cy="12.438" rx="5.641" ry="12.438" transform="translate(43.126 17.075)" fill="#c9c9f5"/>
      </g>
      <g id="Grupo_1119288" data-name="Grupo 1119288" transform="translate(0 7.699)">
        <path id="Trazado_916700" data-name="Trazado 916700" d="M183.674,194.691a2.776,2.776,0,1,0-2.56-2.767,2.673,2.673,0,0,0,2.56,2.767Zm0-3.893a1.149,1.149,0,1,1-.918,1.125A1.039,1.039,0,0,1,183.674,190.8Z" transform="translate(-161.287 -169.291)"/>
        <path id="Trazado_916701" data-name="Trazado 916701" d="M124.41,186.08a.821.821,0,0,0,.821-.821.637.637,0,1,1,1.274,0,.821.821,0,1,0,1.642,0,2.279,2.279,0,0,0-4.558,0A.821.821,0,0,0,124.41,186.08Z" transform="translate(-110.059 -163.791)"/>
        <path id="Trazado_916702" data-name="Trazado 916702" d="M243.454,186.08a.821.821,0,0,0,.821-.821.637.637,0,0,1,1.274,0,.821.821,0,0,0,1.642,0,2.279,2.279,0,0,0-4.558,0A.821.821,0,0,0,243.454,186.08Z" transform="translate(-216.071 -163.791)"/>
        <path id="Trazado_916703" data-name="Trazado 916703" d="M54.453,31.668a.821.821,0,0,0-.619.983,24.352,24.352,0,0,1,.575,5.382,21.075,21.075,0,0,1-1.579,8.456c-.911,2.009-2.093,3.161-3.241,3.161-1.475,0-2.634-1.823-3.241-3.161a21.492,21.492,0,0,1-1.579-8.456,21.493,21.493,0,0,1,1.579-8.456c.611-1.347,1.77-3.161,3.241-3.161,1.173,0,2.372,1.193,3.291,3.273a.821.821,0,1,0,1.5-.663c-1.211-2.742-2.913-4.252-4.793-4.252a3.74,3.74,0,0,0-2.122.689l-11.233,3.9a15.936,15.936,0,0,0-4.556-8.794,5.639,5.639,0,0,0,1.753-4.38A8.5,8.5,0,0,0,24.938,7.7a18.749,18.749,0,0,0-4.911,1.072c-3.044.926-6.494,1.977-9.166.849A3.788,3.788,0,0,0,5.6,13.044,9.4,9.4,0,0,0,6.625,17.6,19.929,19.929,0,0,0,.68,29.2,5.2,5.2,0,0,0,5.2,36.97h.013a14.191,14.191,0,0,0,4.771,6.573A4.614,4.614,0,0,0,11.407,48.6v9.961a3.51,3.51,0,0,0,3.506,3.506H31.2A3.5,3.5,0,0,0,34.678,58.1a15.288,15.288,0,0,0-1.064-3.791c2.381-.972,3.366-1.973,7.927-4.982a4.6,4.6,0,0,0,.661-.55L47.466,50.6a3.741,3.741,0,0,0,2.122.689c1.848,0,3.53-1.465,4.737-4.125a22.733,22.733,0,0,0,1.726-9.134,25.991,25.991,0,0,0-.615-5.746.821.821,0,0,0-.983-.619ZM37.39,45.363A4.613,4.613,0,0,0,31.072,39a7.191,7.191,0,0,1,4.75-7.752h0l.012,0,9.5-3.3q-.253.449-.483.957a22.979,22.979,0,0,0-1.726,9.134,22.965,22.965,0,0,0,1.726,9.134q.23.508.483.957ZM10.222,11.133c3.22,1.359,6.972.217,10.283-.791a17.907,17.907,0,0,1,4.433-1,6.858,6.858,0,0,1,6.85,6.85c0,3.739-3.129,4.683-6.85,4.683H16.112a10.92,10.92,0,0,1-5.165-1.194,6.955,6.955,0,0,1-3.708-6.612,2.142,2.142,0,0,1,2.983-1.935ZM7.548,19A8.659,8.659,0,0,0,9.2,20.526a16.053,16.053,0,0,0-3.878,6.04,5.263,5.263,0,0,0-2.552.6A18.327,18.327,0,0,1,7.548,19ZM1.642,31.767a3.563,3.563,0,0,1,3.186-3.54,16.407,16.407,0,0,0-.442,3.752A15.535,15.535,0,0,0,4.741,35.3a3.566,3.566,0,0,1-3.1-3.531Zm4.387.212a14.377,14.377,0,0,1,2.257-7.737l.007-.011a14.482,14.482,0,0,1,2.39-2.846,12.862,12.862,0,0,0,5.43,1.131h8.826a12.42,12.42,0,0,0,5.347-1.007,14.31,14.31,0,0,1,4.376,8.431h0A8.836,8.836,0,0,0,29.586,40L25.75,42.607a5.987,5.987,0,0,1-6.748.01l-2.069-1.4A4.609,4.609,0,0,0,10.8,42.1,12.642,12.642,0,0,1,6.029,31.979ZM31.2,60.422H14.913a1.866,1.866,0,0,1-1.863-1.863V49.733a18.149,18.149,0,0,0,3.384,1.94.821.821,0,1,0,.64-1.512,24.448,24.448,0,0,1-4.386-2.653,2.972,2.972,0,1,1,3.326-4.927l2.069,1.4a7.626,7.626,0,0,0,8.59-.013l4.317-2.933.8-.544a2.977,2.977,0,0,1,4.129.788h0a2.982,2.982,0,0,1-.788,4.129c-3.588,2.432-5.262,3.586-5.5,3.728A13.615,13.615,0,0,1,19.831,51a.821.821,0,0,0-.305,1.614,15.267,15.267,0,0,0,10.315-1.691,22.893,22.893,0,0,1,1.589,2.606,14.919,14.919,0,0,1,1.622,4.8,1.859,1.859,0,0,1-1.849,2.1Zm1.715-7.6a25.55,25.55,0,0,0-1.686-2.777c5.107-3.471,4.822-3.273,4.943-3.361l4.193,1.457C36.013,51.01,35.1,51.94,32.917,52.818Z" transform="translate(0 -7.699)"/>
      </g>
    </g>
  </g>
</svg>
