<svg xmlns="http://www.w3.org/2000/svg" width="78" height="79.409" viewBox="0 0 78 79.409">
  <g id="Grupo_1119689" data-name="Grupo 1119689" transform="translate(-207.051 -5049.591)">
    <path id="Trazado_916717" data-name="Trazado 916717" d="M39,0A39,39,0,1,1,0,39,39,39,0,0,1,39,0Z" transform="translate(207.051 5051)" fill="#e5d2b2"/>
    <g id="Grupo_1119688" data-name="Grupo 1119688" transform="translate(178.14 5049.591)">
      <g id="Grupo_1119686" data-name="Grupo 1119686" transform="translate(34.55 1.163)">
        <g id="Grupo_1119684" data-name="Grupo 1119684" transform="translate(0 27.174)">
          <path id="Trazado_916704" data-name="Trazado 916704" d="M83.261,213.787,80.947,219.8l-.833,2.168-8.183,3.145-2.624-5.051c-3.434.884-6.28,2.354-11.634-1.11a8.957,8.957,0,0,1-4.259-6.855,2.948,2.948,0,0,0-2.018-2.533,7.648,7.648,0,0,1-4.56-4.147,11.23,11.23,0,0,1-1.1-6.08,4.842,4.842,0,0,0-1.748-4.2c-8.336-6.95,2.075-17.89,9.293-9.262a4.793,4.793,0,0,0,4.166,1.712,11.21,11.21,0,0,1,6.119,1.1,7.648,7.648,0,0,1,4.147,4.56,2.948,2.948,0,0,0,2.533,2.018,9.277,9.277,0,0,1,1.689.316,9.018,9.018,0,0,1,5.166,3.943c3.465,5.354,1.995,8.2,1.11,11.634Z" transform="translate(-40.898 -182.705)" fill="#70d162"/>
        </g>
        <g id="Grupo_1119685" data-name="Grupo 1119685" transform="translate(4.138 27.174)">
          <path id="Trazado_916705" data-name="Trazado 916705" d="M105.8,213.786l-3.147,8.183-8.183,3.145-.774-1.49,4.3-1.655,3.147-8.183L96.1,211.162c.884-3.434,2.354-6.28-1.11-11.634a8.957,8.957,0,0,0-6.855-4.259,2.948,2.948,0,0,1-2.533-2.018,7.648,7.648,0,0,0-4.147-4.56,11.21,11.21,0,0,0-6.119-1.1,4.793,4.793,0,0,1-4.166-1.712,9.038,9.038,0,0,0-3.589-2.722c2.438-.988,5.56-.484,8.242,2.722a4.793,4.793,0,0,0,4.166,1.712,11.21,11.21,0,0,1,6.119,1.1,7.648,7.648,0,0,1,4.147,4.56,2.948,2.948,0,0,0,2.533,2.018,8.957,8.957,0,0,1,6.855,4.259c3.465,5.354,1.995,8.2,1.11,11.634Z" transform="translate(-67.577 -182.704)" fill="#58c945"/>
          <path id="Trazado_916706" data-name="Trazado 916706" d="M228.8,283.961l-2.314,6.015a5.357,5.357,0,0,1-3.9,1.8,5.718,5.718,0,0,1-5.154-3.305c-2.813-5.732-6.93-16.3-1.945-21.161a11.187,11.187,0,0,1,1.979-1.553,9.018,9.018,0,0,1,5.166,3.943c3.465,5.354,1.995,8.2,1.111,11.634Z" transform="translate(-190.579 -252.878)" fill="#58c945"/>
          <circle id="Elipse_11862" data-name="Elipse 11862" cx="10.996" cy="10.996" r="10.996" transform="translate(9.893 18.733)" fill="#58c945"/>
        </g>
        <circle id="Elipse_11863" data-name="Elipse 11863" cx="15.683" cy="15.683" r="15.683" transform="translate(19.075 0)" fill="#dcf5f8"/>
        <path id="Trazado_916707" data-name="Trazado 916707" d="M268.021,23.181a15.69,15.69,0,0,1-18.008,15.511,15.685,15.685,0,0,0,0-31.022,15.69,15.69,0,0,1,18.008,15.511Z" transform="translate(-217.58 -7.498)" fill="#c2eef2"/>
        <path id="Trazado_916708" data-name="Trazado 916708" d="M220.243,54.392h-4.1a.711.711,0,0,1-.711-.71V49.517a2.326,2.326,0,1,0-4.653,0v4.164a.71.71,0,0,1-.71.71h-4.1a2.37,2.37,0,0,0-2.389,2.214,2.327,2.327,0,0,0,2.324,2.439h4.164a.71.71,0,0,1,.71.71v4.164a2.326,2.326,0,1,0,4.653,0V59.755a.711.711,0,0,1,.711-.71h4.164a2.327,2.327,0,0,0,2.324-2.439A2.37,2.37,0,0,0,220.243,54.392Z" transform="translate(-178.349 -41.035)" fill="#fe646f"/>
        <path id="Trazado_916709" data-name="Trazado 916709" d="M269.343,258.373a8.3,8.3,0,0,0-10.581,2.791c-2.627-3.756-8.417-5.577-13.27-.846-4.984,4.86-.867,15.43,1.946,21.161a5.717,5.717,0,0,0,5.154,3.306c2.475,0,4.425-1.8,6.169-5.042,1.744,3.244,3.694,5.042,6.169,5.042a5.717,5.717,0,0,0,5.154-3.306c1.971-4.015,4.581-10.4,4.255-15.54Z" transform="translate(-211.787 -218.711)" fill="#fe646f"/>
        <path id="Trazado_916710" data-name="Trazado 916710" d="M376.553,281.48a5.718,5.718,0,0,1-5.154,3.305,4.791,4.791,0,0,1-2.232-.546,6.129,6.129,0,0,0,2.733-2.759c2.813-5.732,6.93-16.3,1.946-21.161a9.965,9.965,0,0,0-4.048-2.488c2.668-.811,5.847-.295,8.7,2.488C383.482,265.178,379.366,275.748,376.553,281.48Z" transform="translate(-318.254 -218.711)" fill="#fd4755"/>
        <path id="Trazado_916711" data-name="Trazado 916711" d="M293.041,212.253s1.947-9.4-6.92-12.555a1.792,1.792,0,0,0-2.379,1.907C284.167,205.1,285.944,211.055,293.041,212.253Z" transform="translate(-246.066 -169.799)" fill="#70d162"/>
        <circle id="Elipse_11864" data-name="Elipse 11864" cx="10.996" cy="10.996" r="10.996" transform="translate(18.684 45.907)" fill="#fea95c"/>
        <path id="Trazado_916712" data-name="Trazado 916712" d="M230.59,314.486a11.006,11.006,0,0,1-13.323,10.75,11,11,0,0,0,0-21.5,11.006,11.006,0,0,1,13.323,10.75Z" transform="translate(-189.913 -257.583)" fill="#fe9738"/>
        <path id="Trazado_916713" data-name="Trazado 916713" d="M103.806,397.307H77.916A19.382,19.382,0,0,1,58.98,382.056a3.646,3.646,0,0,1,4.286-4.351l4.515.914a116.3,116.3,0,0,0,46.162,0l4.515-.914a3.646,3.646,0,0,1,4.286,4.351A19.382,19.382,0,0,1,103.806,397.307Z" transform="translate(-56.103 -320.224)" fill="#d77f4a"/>
        <path id="Trazado_916714" data-name="Trazado 916714" d="M342.057,382.053a19.381,19.381,0,0,1-18.937,15.252h-4.653A19.381,19.381,0,0,0,337.4,382.053a3.637,3.637,0,0,0-1.725-3.927l2.092-.423a3.646,3.646,0,0,1,4.285,4.35Z" transform="translate(-275.417 -320.222)" fill="#c86d36"/>
      </g>
      <g id="Grupo_1119687" data-name="Grupo 1119687" transform="translate(33.385 0)">
        <path id="Trazado_916715" data-name="Trazado 916715" d="M210.26,57.582V53.871h3.711A3.506,3.506,0,0,0,216.5,52.79a3.462,3.462,0,0,0,.961-2.576,3.519,3.519,0,0,0-3.551-3.323H210.26V43.181a3.49,3.49,0,1,0-6.979,0v3.711h-3.646a3.519,3.519,0,0,0-3.551,3.323,3.462,3.462,0,0,0,.961,2.576,3.506,3.506,0,0,0,2.525,1.081h3.711v3.711a3.49,3.49,0,1,0,6.979,0Zm-4.653,0V53.418a1.876,1.876,0,0,0-1.874-1.874h-4.164a1.163,1.163,0,0,1-1.162-1.221,1.211,1.211,0,0,1,1.227-1.106h4.1a1.876,1.876,0,0,0,1.874-1.874V43.181a1.163,1.163,0,1,1,2.326,0v4.164a1.876,1.876,0,0,0,1.874,1.874h4.1a1.211,1.211,0,0,1,1.227,1.106,1.163,1.163,0,0,1-1.162,1.221h-4.164a1.876,1.876,0,0,0-1.874,1.874v4.164a1.163,1.163,0,1,1-2.326,0Z" transform="translate(-170.846 -33.535)"/>
        <path id="Trazado_916716" data-name="Trazado 916716" d="M101.054,58.842a4.791,4.791,0,0,0-4.285-1.355c1.827-5.545,2.019-9.944.565-13.093a1.163,1.163,0,0,0-2.112.975c1.284,2.781.9,7.147-1.1,12.651a120.408,120.408,0,0,1-17.981,2.493,12.158,12.158,0,0,0-8.673-14.166,6.229,6.229,0,0,1,1.6-2.744,8.108,8.108,0,0,1,5.279-2.5c.022,0,.043,0,.065-.006a11.557,11.557,0,0,0,6.92,3.666,1.183,1.183,0,0,0,1.147-.481,7.133,7.133,0,0,1,9.58-2.162,1.163,1.163,0,0,0,1.171-2.011,9.23,9.23,0,0,0-10.382.517,14.114,14.114,0,0,0-.323-2.363,10.973,10.973,0,0,0-4.678-6.893,16.85,16.85,0,1,0-8.538,2.321,17.055,17.055,0,0,0,1.829-.1,15.947,15.947,0,0,0,1.747,5.348,10.42,10.42,0,0,0-4.563,2.216A10.151,10.151,0,0,0,64,39.744a1.781,1.781,0,0,1-1.535-1.219,8.8,8.8,0,0,0-4.745-5.248,12.457,12.457,0,0,0-6.749-1.21,3.622,3.622,0,0,1-3.152-1.3c-2.4-2.87-5.5-4.107-8.5-3.4a7.817,7.817,0,0,0-5.735,5.8c-.718,3.053.486,6.152,3.3,8.5a3.674,3.674,0,0,1,1.336,3.184,12.462,12.462,0,0,0,1.215,6.705A8.8,8.8,0,0,0,44.69,56.3a2.008,2.008,0,0,1,1.277,2.015L41.944,57.5a4.81,4.81,0,0,0-5.653,5.739A20.545,20.545,0,0,0,56.364,79.409h14.21a1.163,1.163,0,0,0,0-2.326H56.364a18.219,18.219,0,0,1-17.8-14.336,2.483,2.483,0,0,1,2.919-2.963c20.23,4.528,36.91,4.169,55.653,0a2.483,2.483,0,0,1,2.919,2.963,18.219,18.219,0,0,1-17.8,14.336H76.207a1.163,1.163,0,0,0,0,2.326h6.046a20.545,20.545,0,0,0,20.073-16.167,4.794,4.794,0,0,0-1.273-4.4ZM80.528,42.206a8.9,8.9,0,0,1-5.187-3.7,13.317,13.317,0,0,1-1.961-5.68.609.609,0,0,1,.232-.569.661.661,0,0,1,.6-.1C80.317,34.327,80.686,39.784,80.528,42.206ZM54.789,16.846A14.52,14.52,0,1,1,75.294,30.078,3.049,3.049,0,0,0,71.487,31.2a14.69,14.69,0,0,1-2.178.164,14.537,14.537,0,0,1-14.52-14.52ZM48.425,58.8c-.136-1.767-.915-4.143-3.018-4.706a6.528,6.528,0,0,1-3.872-3.549,10,10,0,0,1-.993-5.453,6,6,0,0,0-2.161-5.207c-2.147-1.79-3.046-3.986-2.529-6.181a5.546,5.546,0,0,1,4.008-4.067c2.142-.508,4.336.424,6.177,2.625a5.941,5.941,0,0,0,5.181,2.123,10,10,0,0,1,5.488.989,6.528,6.528,0,0,1,3.548,3.872,4.106,4.106,0,0,0,3.531,2.818,7.786,7.786,0,0,1,2.838.815,8.9,8.9,0,0,0-1.461,3.071A12.362,12.362,0,0,0,56.5,48.69l-12.9-12.9a1.163,1.163,0,0,0-1.645,1.645l12.9,12.9a12.064,12.064,0,0,0-2.336,4.458,1.163,1.163,0,1,0,2.241.625,9.835,9.835,0,0,1,18.966,5.217,114.6,114.6,0,0,1-25.3-1.838Z" transform="translate(-33.385 0)"/>
        <circle id="Elipse_11865" data-name="Elipse 11865" cx="1.163" cy="1.163" r="1.163" transform="translate(28.059 54.946)"/>
        <circle id="Elipse_11866" data-name="Elipse 11866" cx="1.163" cy="1.163" r="1.163" transform="translate(30.154 51.976)"/>
      </g>
    </g>
  </g>
</svg>
