<svg xmlns="http://www.w3.org/2000/svg" xmlns:xlink="http://www.w3.org/1999/xlink" width="118" height="118" viewBox="0 0 118 118">
  <defs>
    <filter id="Trazado_874925" x="0" y="0" width="118" height="118" filterUnits="userSpaceOnUse">
      <feOffset dy="3" input="SourceAlpha"/>
      <feGaussianBlur stdDeviation="3" result="blur"/>
      <feFlood flood-opacity="0.161"/>
      <feComposite operator="in" in2="blur"/>
      <feComposite in="SourceGraphic"/>
    </filter>
  </defs>
  <g id="Grupo_1119984" data-name="Grupo 1119984" transform="translate(6627 3520.813)">
    <g id="Grupo_1119692" data-name="Grupo 1119692" transform="translate(-7421.834 -11583.093)">
      <g id="Grupo_1107913" data-name="Grupo 1107913" transform="translate(803.834 8068.28)">
        <g transform="matrix(1, 0, 0, 1, -9, -6)" filter="url(#Trazado_874925)">
          <g id="Trazado_874925-2" data-name="Trazado 874925" transform="translate(9 6)" fill="#bb965f">
            <path d="M 49.99972534179688 98.4998779296875 C 43.45164108276367 98.4998779296875 37.10022354125977 97.21776580810547 31.12189674377441 94.68914794921875 C 25.34676742553711 92.24647521972656 20.15985298156738 88.74925994873047 15.70523929595947 84.29464721679688 C 11.25062561035156 79.84004974365234 7.753411293029785 74.65313720703125 5.310725212097168 68.87800598144531 C 2.782111167907715 62.89969253540039 1.499996781349182 56.54829406738281 1.499996781349182 50.00022125244141 C 1.499996781349182 43.45157623291016 2.782111167907715 37.10017776489258 5.310725212097168 31.12186431884766 C 7.753411293029785 25.34673500061035 11.25062561035156 20.15983581542969 15.70523929595947 15.70522117614746 C 20.15985298156738 11.25062084197998 25.34676742553711 7.753406524658203 31.12189674377441 5.31073522567749 C 37.10022354125977 2.782120943069458 43.45164108276367 1.500006556510925 49.99972534179688 1.500006556510925 C 56.54780960083008 1.500006556510925 62.89922714233398 2.782120943069458 68.87755584716797 5.31073522567749 C 74.65267944335938 7.753406524658203 79.839599609375 11.25062084197998 84.29421234130859 15.70522117614746 C 88.74882507324219 20.15983581542969 92.24604034423828 25.34673500061035 94.68872833251953 31.12186431884766 C 97.21733856201172 37.10017776489258 98.49945068359375 43.45157623291016 98.49945068359375 49.99964904785156 C 98.49945068359375 56.54829406738281 97.21733856201172 62.89969253540039 94.68872833251953 68.87800598144531 C 92.24604034423828 74.65313720703125 88.74882507324219 79.84004974365234 84.29421234130859 84.29464721679688 C 79.839599609375 88.74925994873047 74.65267944335938 92.24647521972656 68.87755584716797 94.68914794921875 C 62.89922714233398 97.21776580810547 56.54780960083008 98.4998779296875 49.99972534179688 98.4998779296875 Z" stroke="none"/>
            <path d="M 49.99972534179688 3 C 43.65348052978516 3 37.49866485595703 4.242240905761719 31.70623016357422 6.692230224609375 C 26.10989379882812 9.059272766113281 21.08323669433594 12.44853210449219 16.76589202880859 16.76587677001953 C 12.44855499267578 21.08321380615234 9.059295654296875 26.10985565185547 6.692230224609375 31.70618438720703 C 4.24224853515625 37.49859619140625 3 43.65341186523438 3 50.00022888183594 C 3 56.34645843505859 4.24224853515625 62.50127410888672 6.692230224609375 68.29368591308594 C 9.059295654296875 73.8900146484375 12.44855499267578 78.91665649414062 16.76589202880859 83.23399353027344 C 21.08323669433594 87.55132293701172 26.10989379882812 90.94059753417969 31.70623016357422 93.30764007568359 C 37.49866485595703 95.75762939453125 43.65348052978516 96.99987030029297 49.99972534179688 96.99987030029297 C 56.34597015380859 96.99987030029297 62.50078582763672 95.75762939453125 68.293212890625 93.30764007568359 C 73.88955688476562 90.94059753417969 78.91621398925781 87.55132293701172 83.23355865478516 83.23399353027344 C 87.55089569091797 78.91665649414062 90.94015502929688 73.8900146484375 93.30722045898438 68.29368591308594 C 95.7572021484375 62.50127410888672 96.99945068359375 56.34645843505859 96.99945068359375 49.99964141845703 C 96.99945068359375 43.65341186523438 95.7572021484375 37.49859619140625 93.30722045898438 31.70618438720703 C 90.94015502929688 26.10985565185547 87.55089569091797 21.08321380615234 83.23355865478516 16.76587677001953 C 78.91621398925781 12.44853210449219 73.88955688476562 9.059272766113281 68.293212890625 6.692230224609375 C 62.50078582763672 4.242240905761719 56.34597015380859 3 49.99972534179688 3 M 49.99972534179688 0 C 77.61381530761719 0 99.99945068359375 22.38559722900391 99.99945068359375 49.99964141845703 L 99.99945068359375 50.00022888183594 C 99.99945068359375 77.6142578125 77.61381530761719 99.99987030029297 49.99972534179688 99.99987030029297 C 22.38563537597656 99.99987030029297 0 77.6142578125 0 50.00022888183594 L 0 49.99964141845703 C 0 22.38559722900391 22.38563537597656 0 49.99972534179688 0 Z" stroke="none" fill="#fff"/>
          </g>
        </g>
        <g id="Trazado_874923" data-name="Trazado 874923" transform="translate(0 0)" fill="none">
          <path d="M50,0a50,50,0,0,1,50,50h0A50,50,0,0,1,0,50H0A50,50,0,0,1,50,0Z" stroke="none"/>
          <path d="M 49.99972534179688 3 C 43.65348052978516 3 37.49866485595703 4.242240905761719 31.70623016357422 6.692230224609375 C 26.10989379882812 9.059272766113281 21.08323669433594 12.44853210449219 16.76589202880859 16.76587677001953 C 12.44855499267578 21.08321380615234 9.059295654296875 26.10985565185547 6.692230224609375 31.70618438720703 C 4.24224853515625 37.49859619140625 3 43.65341186523438 3 50.00022888183594 C 3 56.34645843505859 4.24224853515625 62.50127410888672 6.692230224609375 68.29368591308594 C 9.059295654296875 73.8900146484375 12.44855499267578 78.91665649414062 16.76589202880859 83.23399353027344 C 21.08323669433594 87.55132293701172 26.10989379882812 90.94059753417969 31.70623016357422 93.30764007568359 C 37.49866485595703 95.75762939453125 43.65348052978516 96.99987030029297 49.99972534179688 96.99987030029297 C 56.34597015380859 96.99987030029297 62.50078582763672 95.75762939453125 68.293212890625 93.30764007568359 C 73.88955688476562 90.94059753417969 78.91621398925781 87.55132293701172 83.23355865478516 83.23399353027344 C 87.55089569091797 78.91665649414062 90.94015502929688 73.8900146484375 93.30722045898438 68.29368591308594 C 95.7572021484375 62.50127410888672 96.99945068359375 56.34645843505859 96.99945068359375 49.99964141845703 C 96.99945068359375 43.65341186523438 95.7572021484375 37.49859619140625 93.30722045898438 31.70618438720703 C 90.94015502929688 26.10985565185547 87.55089569091797 21.08321380615234 83.23355865478516 16.76587677001953 C 78.91621398925781 12.44853210449219 73.88955688476562 9.059272766113281 68.293212890625 6.692230224609375 C 62.50078582763672 4.242240905761719 56.34597015380859 3 49.99972534179688 3 M 49.99972534179688 0 C 77.61381530761719 0 99.99945068359375 22.38559722900391 99.99945068359375 49.99964141845703 L 99.99945068359375 50.00022888183594 C 99.99945068359375 77.6142578125 77.61381530761719 99.99987030029297 49.99972534179688 99.99987030029297 C 22.38563537597656 99.99987030029297 0 77.6142578125 0 50.00022888183594 L 0 49.99964141845703 C 0 22.38559722900391 22.38563537597656 0 49.99972534179688 0 Z" stroke="none" fill="#fff"/>
        </g>
      </g>
    </g>
    <g id="Grupo_1119983" data-name="Grupo 1119983" transform="translate(-6603.956 -3497.1)">
      <path id="Trazado_917534" data-name="Trazado 917534" d="M305.037,190.022l-4.234,4.234-11.676,8.437-2.064-2.064.042-.053a5.822,5.822,0,1,0-6.4-6.32l-.011.011-3.715-3.716,14.291-14.291Z" transform="translate(-238.381 -154.03)" fill="#03aa6f"/>
      <path id="Trazado_917535" data-name="Trazado 917535" d="M66.656,323.183,44.425,342.238H38.073l-20.113-7.41H4.2V323.183H17.96l.741-.318,4.552-1.948,2.117-.91H42.308v6.352H29.6l13.762,6.352,7.378-5.325,11.676-8.437Z" transform="translate(0 -278.722)" fill="#f5d0c7"/>
      <path id="Trazado_917536" data-name="Trazado 917536" d="M318.079,282.56a5.815,5.815,0,0,1-5.23,5.791l-.042.053-5.844-5.844-.519-.519.011-.011a5.822,5.822,0,0,1,11.624.529Z" transform="translate(-264.127 -241.804)" fill="#79dca0"/>
      <path id="Trazado_917537" data-name="Trazado 917537" d="M226.78,331.053l-7.378,5.325-13.762-6.352h12.7v-6.352l.529-.529,5.844,5.844Z" transform="translate(-176.036 -282.389)" fill="#03aa6f"/>
      <path id="Trazado_917538" data-name="Trazado 917538" d="M215.167,56.256a3.512,3.512,0,0,0,2.244-.773,2.451,2.451,0,0,0,.932-1.874,1.587,1.587,0,0,0-1.175-1.45l-2-.667V46.729a3.512,3.512,0,0,0-2.244.773,2.451,2.451,0,0,0-.932,1.874,1.587,1.587,0,0,0,1.175,1.45l2,.667Zm0-14.291a9.527,9.527,0,1,1-9.527,9.527A9.527,9.527,0,0,1,215.167,41.965Z" transform="translate(-176.036 -36.672)" fill="#ffdb6f"/>
      <path id="Trazado_917539" data-name="Trazado 917539" d="M79.511,187.451l-.529.529H72.546a6.352,6.352,0,0,0-12.619.91l-4.552,1.948-9.21-9.21,13.762-13.762,15.35,15.35,3.716,3.716Z" transform="translate(-36.674 -146.695)" fill="#03aa6f"/>
      <g id="Grupo_1119980" data-name="Grupo 1119980" transform="translate(35.956 10.056)">
        <path id="Trazado_917540" data-name="Trazado 917540" d="M284.358,119.623a2.451,2.451,0,0,1-.932,1.874,3.511,3.511,0,0,1-2.244.773v-4.764l2,.667A1.587,1.587,0,0,1,284.358,119.623Z" transform="translate(-278.006 -112.742)" fill="#ffdb6f"/>
        <path id="Trazado_917541" data-name="Trazado 917541" d="M259.176,79.734V84.5l-2-.667A1.587,1.587,0,0,1,256,82.38a2.451,2.451,0,0,1,.932-1.874A3.514,3.514,0,0,1,259.176,79.734Z" transform="translate(-256 -79.734)" fill="#ffdb6f"/>
      </g>
      <path id="Trazado_917542" data-name="Trazado 917542" d="M167.9,290.447H157.4l-2.117.91a6.352,6.352,0,0,1,12.619-.91Z" transform="translate(-132.027 -249.162)" fill="#79dca0"/>
      <g id="Grupo_1119981" data-name="Grupo 1119981" transform="translate(24.312 0)">
        <path id="Trazado_917543" data-name="Trazado 917543" d="M232.707,4.119a12.878,12.878,0,0,0-13.675,0l-1.145-1.781a14.8,14.8,0,0,1,15.966,0Z" transform="translate(-211.049 0)" fill="#ffdb6f"/>
        <path id="Trazado_917544" data-name="Trazado 917544" d="M164.813,123.205a14.793,14.793,0,0,1-1.139-5.7h2.117a12.65,12.65,0,0,0,.978,4.887Z" transform="translate(-163.674 -102.686)" fill="#ffdb6f"/>
        <path id="Trazado_917545" data-name="Trazado 917545" d="M281.181,213.566v-2.117a12.65,12.65,0,0,0,4.887-.978l.813,1.956A14.791,14.791,0,0,1,281.181,213.566Z" transform="translate(-266.361 -183.926)" fill="#ffdb6f"/>
        <path id="Trazado_917546" data-name="Trazado 917546" d="M376.1,123.205l-1.956-.813a12.653,12.653,0,0,0,.978-4.887h2.117A14.8,14.8,0,0,1,376.1,123.205Z" transform="translate(-347.602 -102.686)" fill="#ffdb6f"/>
      </g>
      <g id="Grupo_1119982" data-name="Grupo 1119982" transform="translate(28.546 4.234)">
        <path id="Trazado_917547" data-name="Trazado 917547" d="M207.833,54.745a10.586,10.586,0,1,1,10.586-10.586A10.586,10.586,0,0,1,207.833,54.745Zm0-19.055a8.469,8.469,0,1,0,8.469,8.469A8.469,8.469,0,0,0,207.833,35.69Z" transform="translate(-197.247 -33.573)" fill="#ff8030"/>
        <path id="Trazado_917548" data-name="Trazado 917548" d="M251.842,82.934a4.559,4.559,0,0,1-2.923-1.018,3.517,3.517,0,0,1-1.312-2.687h2.117a1.393,1.393,0,0,0,.551,1.059,2.685,2.685,0,0,0,3.132,0,1.392,1.392,0,0,0,.552-1.059c0-.148-.153-.348-.447-.445l-4.006-1.336a2.646,2.646,0,0,1-1.9-2.454,3.517,3.517,0,0,1,1.313-2.687,4.556,4.556,0,0,1,2.922-1.018,4,4,0,0,1,4.234,3.705H253.96c0-.861-.97-1.588-2.117-1.588a2.467,2.467,0,0,0-1.566.529,1.392,1.392,0,0,0-.552,1.059c0,.148.154.348.447.445l4.006,1.336a2.646,2.646,0,0,1,1.9,2.454,3.517,3.517,0,0,1-1.313,2.687A4.555,4.555,0,0,1,251.842,82.934Z" transform="translate(-241.256 -66.526)" fill="#ff8030"/>
        <rect id="Rectángulo_405712" data-name="Rectángulo 405712" width="2.117" height="12.703" transform="translate(9.527 4.234)" fill="#ff8030"/>
      </g>
      <path id="Trazado_917549" data-name="Trazado 917549" d="M219.038,4.123a12.881,12.881,0,0,1,13.674,0l1.143-1.783a14.8,14.8,0,0,0-15.961,0Z" transform="translate(-186.745 -0.003)"/>
      <path id="Trazado_917550" data-name="Trazado 917550" d="M163.673,117.505a14.722,14.722,0,0,0,1.141,5.7l1.954-.817a12.619,12.619,0,0,1-.978-4.888h-2.117Z" transform="translate(-139.361 -102.685)"/>
      <path id="Trazado_917551" data-name="Trazado 917551" d="M281.18,213.574a14.686,14.686,0,0,0,5.7-1.14l-.819-1.954a12.567,12.567,0,0,1-4.882.977v2.117Z" transform="translate(-242.048 -183.934)"/>
      <path id="Trazado_917552" data-name="Trazado 917552" d="M376.11,123.208a14.706,14.706,0,0,0,1.14-5.7h-2.117a12.581,12.581,0,0,1-.977,4.884Z" transform="translate(-323.298 -102.686)"/>
      <path id="Trazado_917553" data-name="Trazado 917553" d="M218.42,44.158a10.586,10.586,0,1,0-10.586,10.586A10.586,10.586,0,0,0,218.42,44.158Zm-10.586,8.469a8.469,8.469,0,1,1,8.469-8.469A8.469,8.469,0,0,1,207.834,52.627Z" transform="translate(-168.702 -29.338)"/>
      <path id="Trazado_917554" data-name="Trazado 917554" d="M253.96,71.379h2.117a3.832,3.832,0,0,0-3.176-3.574v-.661h-2.117v.661a3.832,3.832,0,0,0-3.176,3.574,2.66,2.66,0,0,0,1.905,2.455l1.27.423v2.714a1.588,1.588,0,0,1-1.059-1.358h-2.117a3.832,3.832,0,0,0,3.176,3.574v.661H252.9v-.661a3.832,3.832,0,0,0,3.176-3.574,2.66,2.66,0,0,0-1.905-2.455l-1.27-.423V70.019A1.587,1.587,0,0,1,253.96,71.379Zm-.455,3.787c.268.09.455.274.455.448a1.588,1.588,0,0,1-1.059,1.36V74.963Zm-3.324-3.339c-.268-.09-.455-.274-.455-.448a1.588,1.588,0,0,1,1.059-1.36v2.011Z" transform="translate(-212.71 -58.677)"/>
      <path id="Trazado_917555" data-name="Trazado 917555" d="M53.642,160.846a1.059,1.059,0,0,0-1.5,0L38.6,174.389,24,159.788a1.059,1.059,0,0,0-1.5,0L8.743,173.55a1.059,1.059,0,0,0,0,1.5l7.72,7.72H4.2v2.117H17.96a1.044,1.044,0,0,0,.417-.086l7.21-3.09H41.249v4.234H29.6a1.059,1.059,0,0,0-.443,2.02l13.762,6.352a1.057,1.057,0,0,0,1.059-.106l18.334-13.23,2.787,2.787L44.033,201.822H38.263l-19.937-7.345a1.058,1.058,0,0,0-.366-.066H4.2v2.117H17.77l19.937,7.345a1.057,1.057,0,0,0,.366.066h6.352a1.052,1.052,0,0,0,.688-.255l22.231-19.055a1.059,1.059,0,0,0,.115-1.493c-.018-.02-.036-.04-.055-.059l-3.486-3.486,3.486-3.486a1.059,1.059,0,0,0,0-1.5Zm-30.389,1.187,17.558,17.558H36.7a7.379,7.379,0,0,0-7.1-5.293,7.457,7.457,0,0,0-7.356,6.538l-3.306,1.416L10.988,174.3ZM49,184.785l-5.532-5.532A4.752,4.752,0,1,1,49,184.785Zm2.955,1.059-1.1.794-.137-.137a6.84,6.84,0,0,0,1.237-.655v0ZM25.37,179.591a1.044,1.044,0,0,0-.417.086l-.257.106a5.263,5.263,0,0,1,9.745-.192Zm17.879,12.541-8.825-4.073h7.883A1.059,1.059,0,0,0,43.366,187v-4.855l5.748,5.748Zm18.485-13.351-9.328,6.738a6.881,6.881,0,1,0-10.658-7.983l-1.648-1.65,12.794-12.794,12.265,12.265Z" transform="translate(0 -139.365)"/>
    </g>
  </g>
</svg>
