<svg xmlns="http://www.w3.org/2000/svg" xmlns:xlink="http://www.w3.org/1999/xlink" width="118" height="118" viewBox="0 0 118 118">
  <defs>
    <filter id="Trazado_874925" x="0" y="0" width="118" height="118" filterUnits="userSpaceOnUse">
      <feOffset dy="3" input="SourceAlpha"/>
      <feGaussianBlur stdDeviation="3" result="blur"/>
      <feFlood flood-opacity="0.161"/>
      <feComposite operator="in" in2="blur"/>
      <feComposite in="SourceGraphic"/>
    </filter>
  </defs>
  <g id="Grupo_1119990" data-name="Grupo 1119990" transform="translate(6312 3520.813)">
    <g id="Grupo_1119695" data-name="Grupo 1119695" transform="translate(-7106.834 -11583.093)">
      <g id="Grupo_1107913" data-name="Grupo 1107913" transform="translate(803.834 8068.28)">
        <g transform="matrix(1, 0, 0, 1, -9, -6)" filter="url(#Trazado_874925)">
          <g id="Trazado_874925-2" data-name="Trazado 874925" transform="translate(9 6)" fill="#bb965f">
            <path d="M 49.99972534179688 98.4998779296875 C 43.45164108276367 98.4998779296875 37.10022354125977 97.21776580810547 31.12189674377441 94.68914794921875 C 25.34676742553711 92.24647521972656 20.15985298156738 88.74925994873047 15.70523929595947 84.29464721679688 C 11.25062561035156 79.84004974365234 7.753411293029785 74.65313720703125 5.310725212097168 68.87800598144531 C 2.782111167907715 62.89969253540039 1.499996781349182 56.54829406738281 1.499996781349182 50.00022125244141 C 1.499996781349182 43.45157623291016 2.782111167907715 37.10017776489258 5.310725212097168 31.12186431884766 C 7.753411293029785 25.34673500061035 11.25062561035156 20.15983581542969 15.70523929595947 15.70522117614746 C 20.15985298156738 11.25062084197998 25.34676742553711 7.753406524658203 31.12189674377441 5.31073522567749 C 37.10022354125977 2.782120943069458 43.45164108276367 1.500006556510925 49.99972534179688 1.500006556510925 C 56.54780960083008 1.500006556510925 62.89922714233398 2.782120943069458 68.87755584716797 5.31073522567749 C 74.65267944335938 7.753406524658203 79.839599609375 11.25062084197998 84.29421234130859 15.70522117614746 C 88.74882507324219 20.15983581542969 92.24604034423828 25.34673500061035 94.68872833251953 31.12186431884766 C 97.21733856201172 37.10017776489258 98.49945068359375 43.45157623291016 98.49945068359375 49.99964904785156 C 98.49945068359375 56.54829406738281 97.21733856201172 62.89969253540039 94.68872833251953 68.87800598144531 C 92.24604034423828 74.65313720703125 88.74882507324219 79.84004974365234 84.29421234130859 84.29464721679688 C 79.839599609375 88.74925994873047 74.65267944335938 92.24647521972656 68.87755584716797 94.68914794921875 C 62.89922714233398 97.21776580810547 56.54780960083008 98.4998779296875 49.99972534179688 98.4998779296875 Z" stroke="none"/>
            <path d="M 49.99972534179688 3 C 43.65348052978516 3 37.49866485595703 4.242240905761719 31.70623016357422 6.692230224609375 C 26.10989379882812 9.059272766113281 21.08323669433594 12.44853210449219 16.76589202880859 16.76587677001953 C 12.44855499267578 21.08321380615234 9.059295654296875 26.10985565185547 6.692230224609375 31.70618438720703 C 4.24224853515625 37.49859619140625 3 43.65341186523438 3 50.00022888183594 C 3 56.34645843505859 4.24224853515625 62.50127410888672 6.692230224609375 68.29368591308594 C 9.059295654296875 73.8900146484375 12.44855499267578 78.91665649414062 16.76589202880859 83.23399353027344 C 21.08323669433594 87.55132293701172 26.10989379882812 90.94059753417969 31.70623016357422 93.30764007568359 C 37.49866485595703 95.75762939453125 43.65348052978516 96.99987030029297 49.99972534179688 96.99987030029297 C 56.34597015380859 96.99987030029297 62.50078582763672 95.75762939453125 68.293212890625 93.30764007568359 C 73.88955688476562 90.94059753417969 78.91621398925781 87.55132293701172 83.23355865478516 83.23399353027344 C 87.55089569091797 78.91665649414062 90.94015502929688 73.8900146484375 93.30722045898438 68.29368591308594 C 95.7572021484375 62.50127410888672 96.99945068359375 56.34645843505859 96.99945068359375 49.99964141845703 C 96.99945068359375 43.65341186523438 95.7572021484375 37.49859619140625 93.30722045898438 31.70618438720703 C 90.94015502929688 26.10985565185547 87.55089569091797 21.08321380615234 83.23355865478516 16.76587677001953 C 78.91621398925781 12.44853210449219 73.88955688476562 9.059272766113281 68.293212890625 6.692230224609375 C 62.50078582763672 4.242240905761719 56.34597015380859 3 49.99972534179688 3 M 49.99972534179688 0 C 77.61381530761719 0 99.99945068359375 22.38559722900391 99.99945068359375 49.99964141845703 L 99.99945068359375 50.00022888183594 C 99.99945068359375 77.6142578125 77.61381530761719 99.99987030029297 49.99972534179688 99.99987030029297 C 22.38563537597656 99.99987030029297 0 77.6142578125 0 50.00022888183594 L 0 49.99964141845703 C 0 22.38559722900391 22.38563537597656 0 49.99972534179688 0 Z" stroke="none" fill="#fff"/>
          </g>
        </g>
        <g id="Trazado_874923" data-name="Trazado 874923" transform="translate(0 0)" fill="none">
          <path d="M50,0a50,50,0,0,1,50,50h0A50,50,0,0,1,0,50H0A50,50,0,0,1,50,0Z" stroke="none"/>
          <path d="M 49.99972534179688 3 C 43.65348052978516 3 37.49866485595703 4.242240905761719 31.70623016357422 6.692230224609375 C 26.10989379882812 9.059272766113281 21.08323669433594 12.44853210449219 16.76589202880859 16.76587677001953 C 12.44855499267578 21.08321380615234 9.059295654296875 26.10985565185547 6.692230224609375 31.70618438720703 C 4.24224853515625 37.49859619140625 3 43.65341186523438 3 50.00022888183594 C 3 56.34645843505859 4.24224853515625 62.50127410888672 6.692230224609375 68.29368591308594 C 9.059295654296875 73.8900146484375 12.44855499267578 78.91665649414062 16.76589202880859 83.23399353027344 C 21.08323669433594 87.55132293701172 26.10989379882812 90.94059753417969 31.70623016357422 93.30764007568359 C 37.49866485595703 95.75762939453125 43.65348052978516 96.99987030029297 49.99972534179688 96.99987030029297 C 56.34597015380859 96.99987030029297 62.50078582763672 95.75762939453125 68.293212890625 93.30764007568359 C 73.88955688476562 90.94059753417969 78.91621398925781 87.55132293701172 83.23355865478516 83.23399353027344 C 87.55089569091797 78.91665649414062 90.94015502929688 73.8900146484375 93.30722045898438 68.29368591308594 C 95.7572021484375 62.50127410888672 96.99945068359375 56.34645843505859 96.99945068359375 49.99964141845703 C 96.99945068359375 43.65341186523438 95.7572021484375 37.49859619140625 93.30722045898438 31.70618438720703 C 90.94015502929688 26.10985565185547 87.55089569091797 21.08321380615234 83.23355865478516 16.76587677001953 C 78.91621398925781 12.44853210449219 73.88955688476562 9.059272766113281 68.293212890625 6.692230224609375 C 62.50078582763672 4.242240905761719 56.34597015380859 3 49.99972534179688 3 M 49.99972534179688 0 C 77.61381530761719 0 99.99945068359375 22.38559722900391 99.99945068359375 49.99964141845703 L 99.99945068359375 50.00022888183594 C 99.99945068359375 77.6142578125 77.61381530761719 99.99987030029297 49.99972534179688 99.99987030029297 C 22.38563537597656 99.99987030029297 0 77.6142578125 0 50.00022888183594 L 0 49.99964141845703 C 0 22.38559722900391 22.38563537597656 0 49.99972534179688 0 Z" stroke="none" fill="#fff"/>
        </g>
      </g>
    </g>
    <g id="Grupo_1119989" data-name="Grupo 1119989" transform="translate(-6283.519 -3495.24)">
      <g id="Grupo_1119987" data-name="Grupo 1119987" transform="translate(0 1.768)">
        <path id="Trazado_917556" data-name="Trazado 917556" d="M311.1,95.512c-.355-1.356-3.414-3.533-5.514-3.854l0,.01a4.069,4.069,0,0,0-6.293,4.363l.28,1.054.749,2.81,1.15,3.465,7.468-2.737S311.456,96.869,311.1,95.512Z" transform="translate(-264.373 -81.451)" fill="#fff"/>
        <path id="Trazado_917557" data-name="Trazado 917557" d="M417.622,340.164l-7.294-6.7-3.316,3.475,6.425,5.9-.133,4.75h.93l3.737-4.983A1.744,1.744,0,0,0,417.622,340.164Z" transform="translate(-359.683 -295.797)" fill="#fde31d"/>
        <path id="Trazado_917558" data-name="Trazado 917558" d="M298.454,164.088l-5.407-20.608-7.66,2.866.448,1.679,2.087,7.833L282.245,165v3.241H286.9v-1.413l5.182-8.31,2.13,8.194,2.545,2.337,3.316-3.475Z" transform="translate(-249.424 -127.905)" fill="#ff6a47"/>
        <path id="Trazado_917559" data-name="Trazado 917559" d="M256.941,364.393l-3.321,2.326v1.163h6.228a1.744,1.744,0,0,0,1.744-1.744v-9.714h-4.651Z" transform="translate(-224.128 -316.086)" fill="#fde31d"/>
        <path id="Trazado_917560" data-name="Trazado 917560" d="M290.764,170.525l-2.928-10.453-2.514.941.448,1.679,2.087,7.833-5.677,9.139V182.9h2.907v-3.241Z" transform="translate(-249.367 -142.568)" fill="#fd3501"/>
        <path id="Trazado_917561" data-name="Trazado 917561" d="M259.848,365.556v-9.133h-2.907v7.97l-3.321,2.326v1.163h2.907Z" transform="translate(-224.128 -316.086)" fill="#e9ca1c"/>
        <path id="Trazado_917562" data-name="Trazado 917562" d="M363.757,249.307l-2.937-10.937-1.922.471,3.042,11.728,2.544,2.342,1.458-1.528Z" transform="translate(-317.165 -211.761)" fill="#fd3501"/>
        <path id="Trazado_917563" data-name="Trazado 917563" d="M408.4,350.289h0l-.006-.005-1.458,1.528,6.426,5.894-.133,4.75h.93l1.55-2.066.094-3.382Z" transform="translate(-359.618 -310.66)" fill="#e9ca1c"/>
        <path id="Trazado_917564" data-name="Trazado 917564" d="M302.486,96.271l-.28-1.054a4.07,4.07,0,0,1,1.46-4.281,4.071,4.071,0,0,0-4.367,5.095l.28,1.054.749,2.81,2.841-1.063Z" transform="translate(-264.373 -81.451)" fill="#e3e9ee"/>
        <path id="Trazado_917565" data-name="Trazado 917565" d="M267.116,58.133l-.62.165a2.906,2.906,0,0,1-3.557-2.061l-.8-3,5.618-1.5,1.288,4.832Z" transform="translate(-231.657 -46.836)" fill="#ffceb7"/>
        <path id="Trazado_917566" data-name="Trazado 917566" d="M265.613,60.632l-.658-2.469-2.815.75.8,3a2.906,2.906,0,0,0,3.557,2.061l.62-.165,1.259-1.016A2.907,2.907,0,0,1,265.613,60.632Z" transform="translate(-231.657 -52.509)" fill="#ffaa81"/>
        <path id="Trazado_917567" data-name="Trazado 917567" d="M262.346,14.3,255.6,16.1l-.224-5.356,4.495-1.2Z" transform="translate(-225.683 -9.543)" fill="#e6cc9f"/>
        <g id="Grupo_1119986" data-name="Grupo 1119986" transform="translate(0 47.848)">
          <path id="Trazado_917568" data-name="Trazado 917568" d="M7.743,424.965l-.568-1.6-2.028-.9-.5-1.451-2.093.93-.93,3.017H0v6.545H12.794v-.93l-2.761-4.693Z" transform="translate(0 -421.017)" fill="#e6cc9f"/>
          <path id="Trazado_917569" data-name="Trazado 917569" d="M132.833,429.383l-1.261-2.41-1.346-.956-2.263.9-1.064,2.463-3.56,2.436L122.161,435v.93h45.332v-6.545Z" transform="translate(-107.956 -425.436)" fill="#e6cc9f"/>
          <g id="Grupo_1119985" data-name="Grupo 1119985" transform="translate(0)">
            <path id="Trazado_917570" data-name="Trazado 917570" d="M127.923,431.975l3.425-2.343.73-1.691-.506-.968-1.346-.956-2.263.9-1.064,2.463-3.56,2.436L122.161,435v.93h4.628v-.895Z" transform="translate(-107.956 -425.436)" fill="#dfba7f"/>
            <path id="Trazado_917571" data-name="Trazado 917571" d="M4.528,427.29l.824-4.732-.2-.09-.5-1.451-2.093.93-.93,3.017H0v6.545H2.907v-4.22Z" transform="translate(0 -421.017)" fill="#dfba7f"/>
          </g>
        </g>
        <path id="Trazado_917572" data-name="Trazado 917572" d="M262.346,14.3,255.6,16.1l-.224-5.356,4.495-1.2Z" transform="translate(-225.683 -9.543)" fill="#e6cc9f"/>
        <path id="Trazado_917573" data-name="Trazado 917573" d="M258.148,13.5l-2.768.738.224,5.356,3.378-.9Z" transform="translate(-225.683 -13.039)" fill="#dfba7f"/>
        <path id="Trazado_917574" data-name="Trazado 917574" d="M260.24,118.732a1.744,1.744,0,0,0-2.419.482l-3.894,5.83-3.679,2.255,1.951,2.9,4.2-2.577,4.319-6.467A1.744,1.744,0,0,0,260.24,118.732Z" transform="translate(-221.147 -105.776)" fill="#fff"/>
        <path id="Trazado_917575" data-name="Trazado 917575" d="M215.091,197.149a3.488,3.488,0,0,0,4.8,1.151l1.242-.761-1.951-2.9Z" transform="translate(-190.079 -173.119)" fill="#ffceb7"/>
      </g>
      <g id="Grupo_1119988" data-name="Grupo 1119988" transform="translate(34.848 56.308)">
        <path id="Trazado_917576" data-name="Trazado 917576" d="M299.68,478.562h1.744v1.744H299.68Z" transform="translate(-299.68 -478.562)" fill="#fff"/>
        <path id="Trazado_917577" data-name="Trazado 917577" d="M329.68,478.562h1.744v1.744H329.68Z" transform="translate(-326.191 -478.562)" fill="#fff"/>
      </g>
      <path id="Trazado_917578" data-name="Trazado 917578" d="M56.289,52.691,58.979,49.1a2.62,2.62,0,0,0-.487-3.634l-3.408-3.135L53.9,43.619l3.437,3.162.067.056a.873.873,0,0,1,.175,1.221l-3.058,4.076.1-3.694-6.061-5.565,2.116-2.217,1.935,1.779L53.8,41.152l-3.991-3.67L45.5,21.118c.809-1.3,2.589-4.16,2.008-5.71l5.74-3.583-.924-1.48-5.8,3.622a10.783,10.783,0,0,0-4.989-2.82,4.927,4.927,0,0,0-3.528-.711l-.838-3.142L42.244,5.94,41.8,4.255,37.114,5.5,34.643.745,28.8,2.3l.224,5.356L24.338,8.906l.449,1.685,5.077-1.353.574,2.155a3.794,3.794,0,0,0,3.6,2.807,4.912,4.912,0,0,0,.044,2.372l.179.673-2.1,3.147L23.812,25.51a6.608,6.608,0,0,0,1.351,1.79L6.951,38.67,5.891,36.944,4.4,37.857l1.067,1.736-1.987,1.24.924,1.48,1.976-1.234,5,8.132,1.486-.913-5-8.143L26.985,28.219a4.331,4.331,0,0,0,3.28-.526l5.609-3.438.183-.274,1.493,5.6-5.609,9.03V49.621L28.62,51.947v.745H25.406l-1.114-2.128-1.9-1.352L19.35,50.424l-1.107,2.562-3.58,2.45L13.6,58.307h-.306l-2.658-4.519-2.2-.886-.563-1.585-2.024-.894-.689-1.99L1.835,49.91.977,52.691H0v1.744H2.265l1-3.254.863-.384.316.913,2.032.9.574,1.617,2.379.958,2.863,4.867h2.517l1.294-3.488,3.539-2.422,1.021-2.364,1.487-.594.787.56,1.409,2.693H41.774V52.692H38.186a2.6,2.6,0,0,0,.15-.872V40.942l3.979-6.38L44,41.045l8.867,8.142-.1,3.5H43.518v1.744H59.537V52.691ZM30.6,3.628l3.142-.837,1.647,3.171L30.746,7.2ZM45.885,16.05a6.41,6.41,0,0,1-1.009,2.7l-1.242-4.718c-.013-.05-.028-.1-.043-.148A5.789,5.789,0,0,1,45.885,16.05ZM33.071,12.182a2.021,2.021,0,0,1-.946-1.237L31.55,8.79l3.932-1.048.878,3.294a4.892,4.892,0,0,0-1.43,1.267l-.317.084a2.018,2.018,0,0,1-1.543-.205ZM36.091,13.7a3.2,3.2,0,0,1,5.857.777l.614,2.334-2.288.856a2.617,2.617,0,1,0-4.327-2.943l-.284.426a3.178,3.178,0,0,1,.428-1.449Zm-8.716,12.82a2.605,2.605,0,0,1-1.038-.511l2.506-1.536.976,1.448-.466.286A2.6,2.6,0,0,1,27.375,26.519Zm3.932-1.511-.976-1.448,3.066-1.88,4-5.99a.872.872,0,1,1,1.451.969l-4.213,6.308ZM30.6,52.691l3.088-2.162V42.977h2.907v8.842a.873.873,0,0,1-.872.872H30.6ZM42.579,28.629l-1.688.438.821,3.166-5.119,8.209v.79H33.685v-2.12l5.745-9.248-2.083-7.816,1.269-1.9L43.009,18.5,48.252,38.42,49.4,39.476l-2.117,2.218-1.727-1.586Z" transform="translate(0)"/>
    </g>
  </g>
</svg>
