<svg xmlns="http://www.w3.org/2000/svg" xmlns:xlink="http://www.w3.org/1999/xlink" width="118" height="118" viewBox="0 0 118 118">
  <defs>
    <filter id="Trazado_874925" x="0" y="0" width="118" height="118" filterUnits="userSpaceOnUse">
      <feOffset dy="3" input="SourceAlpha"/>
      <feGaussianBlur stdDeviation="3" result="blur"/>
      <feFlood flood-opacity="0.161"/>
      <feComposite operator="in" in2="blur"/>
      <feComposite in="SourceGraphic"/>
    </filter>
  </defs>
  <g id="Grupo_1120003" data-name="Grupo 1120003" transform="translate(5370 3520.813)">
    <g id="Grupo_1119696" data-name="Grupo 1119696" transform="translate(-6164.834 -11583.093)">
      <g id="Grupo_1107913" data-name="Grupo 1107913" transform="translate(803.834 8068.28)">
        <g transform="matrix(1, 0, 0, 1, -9, -6)" filter="url(#Trazado_874925)">
          <g id="Trazado_874925-2" data-name="Trazado 874925" transform="translate(9 6)" fill="#bb965f">
            <path d="M 49.99972534179688 98.4998779296875 C 43.45164108276367 98.4998779296875 37.10022354125977 97.21776580810547 31.12189674377441 94.68914794921875 C 25.34676742553711 92.24647521972656 20.15985298156738 88.74925994873047 15.70523929595947 84.29464721679688 C 11.25062561035156 79.84004974365234 7.753411293029785 74.65313720703125 5.310725212097168 68.87800598144531 C 2.782111167907715 62.89969253540039 1.499996781349182 56.54829406738281 1.499996781349182 50.00022125244141 C 1.499996781349182 43.45157623291016 2.782111167907715 37.10017776489258 5.310725212097168 31.12186431884766 C 7.753411293029785 25.34673500061035 11.25062561035156 20.15983581542969 15.70523929595947 15.70522117614746 C 20.15985298156738 11.25062084197998 25.34676742553711 7.753406524658203 31.12189674377441 5.31073522567749 C 37.10022354125977 2.782120943069458 43.45164108276367 1.500006556510925 49.99972534179688 1.500006556510925 C 56.54780960083008 1.500006556510925 62.89922714233398 2.782120943069458 68.87755584716797 5.31073522567749 C 74.65267944335938 7.753406524658203 79.839599609375 11.25062084197998 84.29421234130859 15.70522117614746 C 88.74882507324219 20.15983581542969 92.24604034423828 25.34673500061035 94.68872833251953 31.12186431884766 C 97.21733856201172 37.10017776489258 98.49945068359375 43.45157623291016 98.49945068359375 49.99964904785156 C 98.49945068359375 56.54829406738281 97.21733856201172 62.89969253540039 94.68872833251953 68.87800598144531 C 92.24604034423828 74.65313720703125 88.74882507324219 79.84004974365234 84.29421234130859 84.29464721679688 C 79.839599609375 88.74925994873047 74.65267944335938 92.24647521972656 68.87755584716797 94.68914794921875 C 62.89922714233398 97.21776580810547 56.54780960083008 98.4998779296875 49.99972534179688 98.4998779296875 Z" stroke="none"/>
            <path d="M 49.99972534179688 3 C 43.65348052978516 3 37.49866485595703 4.242240905761719 31.70623016357422 6.692230224609375 C 26.10989379882812 9.059272766113281 21.08323669433594 12.44853210449219 16.76589202880859 16.76587677001953 C 12.44855499267578 21.08321380615234 9.059295654296875 26.10985565185547 6.692230224609375 31.70618438720703 C 4.24224853515625 37.49859619140625 3 43.65341186523438 3 50.00022888183594 C 3 56.34645843505859 4.24224853515625 62.50127410888672 6.692230224609375 68.29368591308594 C 9.059295654296875 73.8900146484375 12.44855499267578 78.91665649414062 16.76589202880859 83.23399353027344 C 21.08323669433594 87.55132293701172 26.10989379882812 90.94059753417969 31.70623016357422 93.30764007568359 C 37.49866485595703 95.75762939453125 43.65348052978516 96.99987030029297 49.99972534179688 96.99987030029297 C 56.34597015380859 96.99987030029297 62.50078582763672 95.75762939453125 68.293212890625 93.30764007568359 C 73.88955688476562 90.94059753417969 78.91621398925781 87.55132293701172 83.23355865478516 83.23399353027344 C 87.55089569091797 78.91665649414062 90.94015502929688 73.8900146484375 93.30722045898438 68.29368591308594 C 95.7572021484375 62.50127410888672 96.99945068359375 56.34645843505859 96.99945068359375 49.99964141845703 C 96.99945068359375 43.65341186523438 95.7572021484375 37.49859619140625 93.30722045898438 31.70618438720703 C 90.94015502929688 26.10985565185547 87.55089569091797 21.08321380615234 83.23355865478516 16.76587677001953 C 78.91621398925781 12.44853210449219 73.88955688476562 9.059272766113281 68.293212890625 6.692230224609375 C 62.50078582763672 4.242240905761719 56.34597015380859 3 49.99972534179688 3 M 49.99972534179688 0 C 77.61381530761719 0 99.99945068359375 22.38559722900391 99.99945068359375 49.99964141845703 L 99.99945068359375 50.00022888183594 C 99.99945068359375 77.6142578125 77.61381530761719 99.99987030029297 49.99972534179688 99.99987030029297 C 22.38563537597656 99.99987030029297 0 77.6142578125 0 50.00022888183594 L 0 49.99964141845703 C 0 22.38559722900391 22.38563537597656 0 49.99972534179688 0 Z" stroke="none" fill="#fff"/>
          </g>
        </g>
        <g id="Trazado_874923" data-name="Trazado 874923" transform="translate(0 0)" fill="none">
          <path d="M50,0a50,50,0,0,1,50,50h0A50,50,0,0,1,0,50H0A50,50,0,0,1,50,0Z" stroke="none"/>
          <path d="M 49.99972534179688 3 C 43.65348052978516 3 37.49866485595703 4.242240905761719 31.70623016357422 6.692230224609375 C 26.10989379882812 9.059272766113281 21.08323669433594 12.44853210449219 16.76589202880859 16.76587677001953 C 12.44855499267578 21.08321380615234 9.059295654296875 26.10985565185547 6.692230224609375 31.70618438720703 C 4.24224853515625 37.49859619140625 3 43.65341186523438 3 50.00022888183594 C 3 56.34645843505859 4.24224853515625 62.50127410888672 6.692230224609375 68.29368591308594 C 9.059295654296875 73.8900146484375 12.44855499267578 78.91665649414062 16.76589202880859 83.23399353027344 C 21.08323669433594 87.55132293701172 26.10989379882812 90.94059753417969 31.70623016357422 93.30764007568359 C 37.49866485595703 95.75762939453125 43.65348052978516 96.99987030029297 49.99972534179688 96.99987030029297 C 56.34597015380859 96.99987030029297 62.50078582763672 95.75762939453125 68.293212890625 93.30764007568359 C 73.88955688476562 90.94059753417969 78.91621398925781 87.55132293701172 83.23355865478516 83.23399353027344 C 87.55089569091797 78.91665649414062 90.94015502929688 73.8900146484375 93.30722045898438 68.29368591308594 C 95.7572021484375 62.50127410888672 96.99945068359375 56.34645843505859 96.99945068359375 49.99964141845703 C 96.99945068359375 43.65341186523438 95.7572021484375 37.49859619140625 93.30722045898438 31.70618438720703 C 90.94015502929688 26.10985565185547 87.55089569091797 21.08321380615234 83.23355865478516 16.76587677001953 C 78.91621398925781 12.44853210449219 73.88955688476562 9.059272766113281 68.293212890625 6.692230224609375 C 62.50078582763672 4.242240905761719 56.34597015380859 3 49.99972534179688 3 M 49.99972534179688 0 C 77.61381530761719 0 99.99945068359375 22.38559722900391 99.99945068359375 49.99964141845703 L 99.99945068359375 50.00022888183594 C 99.99945068359375 77.6142578125 77.61381530761719 99.99987030029297 49.99972534179688 99.99987030029297 C 22.38563537597656 99.99987030029297 0 77.6142578125 0 50.00022888183594 L 0 49.99964141845703 C 0 22.38559722900391 22.38563537597656 0 49.99972534179688 0 Z" stroke="none" fill="#fff"/>
        </g>
      </g>
    </g>
    <g id="Grupo_1120002" data-name="Grupo 1120002" transform="translate(-5347.848 -3496.272)">
      <g id="Grupo_1120000" data-name="Grupo 1120000" transform="translate(7.347 0.922)">
        <path id="Trazado_917614" data-name="Trazado 917614" d="M183.18,24.12H155.208l2.213-11.748A5.978,5.978,0,0,1,163.3,7.5h11.8a5.978,5.978,0,0,1,5.875,4.872Z" transform="translate(-137.844 -7.5)" fill="#99e6fc"/>
        <path id="Trazado_917615" data-name="Trazado 917615" d="M300.081,12.372A5.978,5.978,0,0,0,294.206,7.5h-3.2a5.978,5.978,0,0,1,5.875,4.872L299.1,24.12h3.2Z" transform="translate(-256.959 -7.5)" fill="#62dbfb"/>
        <ellipse id="Elipse_11869" data-name="Elipse 11869" cx="21.84" cy="5.646" rx="21.84" ry="5.646" transform="translate(9.509 12.594)" fill="#766e6e"/>
        <path id="Trazado_917616" data-name="Trazado 917616" d="M192.177,116.967H181.789a6.177,6.177,0,0,1-6.177-6.177V96.2h22.742v14.589A6.176,6.176,0,0,1,192.177,116.967Z" transform="translate(-155.741 -85.301)" fill="#ffb09e"/>
        <path id="Trazado_917617" data-name="Trazado 917617" d="M290.586,96.2v14.589a6.177,6.177,0,0,1-6.177,6.177h3.2a6.177,6.177,0,0,0,6.177-6.177V96.2Z" transform="translate(-251.168 -85.301)" fill="#ffa78f"/>
        <g id="Grupo_1119997" data-name="Grupo 1119997" transform="translate(8.741 9.174)">
          <path id="Trazado_917618" data-name="Trazado 917618" d="M130.043,87.492c0,.569-.554,3.724-.554,3.724,0-3.118-9.778-5.647-21.84-5.647s-21.84,2.529-21.84,5.647c0,0-.769-3.063-.769-3.59,0-3.118,9.7-5.477,22.609-5.477S130.043,84.374,130.043,87.492Z" transform="translate(-85.04 -82.149)" fill="#c8effe"/>
          <path id="Trazado_917619" data-name="Trazado 917619" d="M130.043,87.492c0,.569-.554,3.724-.554,3.724,0-3.118-9.778-5.647-21.84-5.647s-21.84,2.529-21.84,5.647c0,0-.769-3.063-.769-3.59,0-3.118,9.7-5.477,22.609-5.477S130.043,84.374,130.043,87.492Z" transform="translate(-85.04 -82.149)" fill="#c8effe"/>
          <path id="Trazado_917620" data-name="Trazado 917620" d="M130.043,87.492c0,.569-.554,3.724-.554,3.724,0-3.118-9.778-5.647-21.84-5.647s-21.84,2.529-21.84,5.647c0,0-.769-3.063-.769-3.59,0-3.118,9.7-5.477,22.609-5.477S130.043,84.374,130.043,87.492Z" transform="translate(-85.04 -82.149)" fill="#c8effe"/>
        </g>
        <path id="Trazado_917621" data-name="Trazado 917621" d="M53.253,319.879a7.69,7.69,0,0,0-7.172,4.915l-7.873,17.773H48.26l4.993-10.748V340.6H79.676V319.879Z" transform="translate(-35.223 -281.491)" fill="#99e6fc"/>
        <g id="Grupo_1119998" data-name="Grupo 1119998" transform="translate(41.258 38.388)">
          <path id="Trazado_917622" data-name="Trazado 917622" d="M349.649,319.879h3.2V340.6h-3.2Z" transform="translate(-349.649 -319.879)" fill="#62dbfb"/>
        </g>
        <path id="Trazado_917623" data-name="Trazado 917623" d="M235.69,265.176h7.976V271.9H235.69Z" transform="translate(-208.436 -233.51)" fill="#ffa78f"/>
        <path id="Trazado_917624" data-name="Trazado 917624" d="M273.836,265.176h3.289V271.9h-3.289Z" transform="translate(-241.894 -233.51)" fill="#f89580"/>
        <path id="Trazado_917625" data-name="Trazado 917625" d="M202.349,319.879h4.1v11.014h-4.1Z" transform="translate(-179.192 -281.491)" fill="#4f66d0"/>
        <path id="Trazado_917626" data-name="Trazado 917626" d="M300.6,319.879h4.1v11.014h-4.1Z" transform="translate(-265.365 -281.491)" fill="#4f66d0"/>
        <path id="Trazado_917627" data-name="Trazado 917627" d="M375.652,331.819l4.993,10.748H390.7l-7.873-17.773a7.69,7.69,0,0,0-7.172-4.915Z" transform="translate(-331.198 -281.491)" fill="#99e6fc"/>
        <path id="Trazado_917628" data-name="Trazado 917628" d="M382.824,324.794a7.69,7.69,0,0,0-7.172-4.915v.7a7.686,7.686,0,0,1,3.976,4.218l7.873,17.773h3.2Z" transform="translate(-331.198 -281.491)" fill="#62dbfb"/>
        <path id="Trazado_917629" data-name="Trazado 917629" d="M143.855,163.832h-1.23a3.22,3.22,0,0,1,0-6.44h1.23Z" transform="translate(-123.984 -138.972)" fill="#ffa78f"/>
        <path id="Trazado_917630" data-name="Trazado 917630" d="M143.928,409.5H106.05a1.118,1.118,0,0,0-1.118,1.118v4.2l1.852,6.354h36.41l1.852-6.354v-4.2A1.118,1.118,0,0,0,143.928,409.5Z" transform="translate(-93.747 -360.098)" fill="#fcd18a"/>
        <path id="Trazado_917631" data-name="Trazado 917631" d="M387.172,409.5h-4.181a1.118,1.118,0,0,1,1.118,1.118v4.2l-1.852,6.354h4.181l1.852-6.354v-4.2A1.118,1.118,0,0,0,387.172,409.5Z" transform="translate(-336.991 -360.098)" fill="#fbc56d"/>
        <path id="Trazado_917632" data-name="Trazado 917632" d="M360.673,163.832h1.23a3.22,3.22,0,0,0,0-6.44h-1.23Z" transform="translate(-318.06 -138.972)" fill="#ffa78f"/>
        <path id="Trazado_917633" data-name="Trazado 917633" d="M194.435,162.8s-2.027-2.19-7.451-2.19-7.451,2.19-7.451,2.19l-3.92-5.41v9.326a5.571,5.571,0,0,0,5.571,5.571h11.6a5.571,5.571,0,0,0,5.571-5.571v-9.326Z" transform="translate(-155.742 -138.972)" fill="#b98080"/>
        <path id="Trazado_917634" data-name="Trazado 917634" d="M298.112,157.39v9.326a5.571,5.571,0,0,1-5.571,5.571h-3.2a5.57,5.57,0,0,0,5.569-5.571V161.8Z" transform="translate(-255.498 -138.97)" fill="#ae6c6c"/>
        <g id="Grupo_1119999" data-name="Grupo 1119999" transform="translate(0 21.593)">
          <path id="Trazado_917635" data-name="Trazado 917635" d="M59.465,294.527l1.616,3.223-5.918.467a1.67,1.67,0,1,1-.263-3.33Z" transform="translate(-48.513 -280.847)" fill="#fef48b"/>
          <path id="Trazado_917636" data-name="Trazado 917636" d="M46.316,268.3l1.616,3.223-5.918.467a1.67,1.67,0,1,1-.263-3.33Z" transform="translate(-36.98 -257.844)" fill="#fef056"/>
          <path id="Trazado_917637" data-name="Trazado 917637" d="M33.168,242.075l1.616,3.223-5.918.467a1.67,1.67,0,1,1-.263-3.33Z" transform="translate(-25.447 -234.841)" fill="#fef48b"/>
          <path id="Trazado_917638" data-name="Trazado 917638" d="M20.02,215.848l1.616,3.223-5.918.467a1.67,1.67,0,1,1-.263-3.33Z" transform="translate(-13.915 -211.837)" fill="#fef056"/>
          <path id="Trazado_917639" data-name="Trazado 917639" d="M85.762,346.981l1.616,3.223-5.918.467a1.67,1.67,0,1,1-.263-3.33Z" transform="translate(-71.578 -326.855)" fill="#fef48b"/>
          <path id="Trazado_917640" data-name="Trazado 917640" d="M72.614,320.754l1.616,3.223-5.918.467a1.67,1.67,0,1,1-.263-3.33Z" transform="translate(-60.046 -303.851)" fill="#fef056"/>
          <path id="Trazado_917641" data-name="Trazado 917641" d="M103.041,265.9l1.616,3.223,3.915-4.462a1.67,1.67,0,1,0-2.511-2.2Z" transform="translate(-92.088 -252.219)" fill="#fef056"/>
          <path id="Trazado_917642" data-name="Trazado 917642" d="M89.892,239.673l1.616,3.223,3.915-4.462a1.67,1.67,0,1,0-2.511-2.2Z" transform="translate(-80.555 -229.216)" fill="#fef48b"/>
          <path id="Trazado_917643" data-name="Trazado 917643" d="M76.744,213.447l1.616,3.223,3.915-4.462a1.67,1.67,0,1,0-2.511-2.2Z" transform="translate(-69.023 -206.213)" fill="#fef056"/>
          <path id="Trazado_917644" data-name="Trazado 917644" d="M63.6,187.22l1.616,3.223,3.915-4.462a1.67,1.67,0,1,0-2.511-2.2Z" transform="translate(-57.491 -183.209)" fill="#fef48b"/>
          <path id="Trazado_917645" data-name="Trazado 917645" d="M129.338,318.353l1.616,3.223,3.915-4.462a1.67,1.67,0,0,0-2.511-2.2Z" transform="translate(-115.154 -298.227)" fill="#fef056"/>
          <path id="Trazado_917646" data-name="Trazado 917646" d="M116.19,292.126l1.616,3.223,3.915-4.462a1.67,1.67,0,1,0-2.511-2.2Z" transform="translate(-103.621 -275.223)" fill="#fef48b"/>
        </g>
      </g>
      <g id="Grupo_1120001" data-name="Grupo 1120001" transform="translate(6.427 0)">
        <path id="Trazado_917647" data-name="Trazado 917647" d="M67.689,61.625,59.824,43.871A8.663,8.663,0,0,0,51.8,38.388H43.5V35.159h.891a6.5,6.5,0,0,0,6.492-6.492V26.7a4.246,4.246,0,0,0,4.247-2.863c4.124-1.172,6.251-2.711,6.326-4.576.144-.82.558-3.237.558-3.826,0-2.668-4.181-4.342-9.784-5.282l-.854-4.534A6.9,6.9,0,0,0,44.6,0H32.8a6.9,6.9,0,0,0-6.78,5.623l-.162.861a.922.922,0,1,0,1.811.341l.162-.861A5.059,5.059,0,0,1,32.8,1.843H44.6a5.06,5.06,0,0,1,4.969,4.12l.735,3.9a91.114,91.114,0,0,0-11.6-.695,73.222,73.222,0,0,0-16.363,1.595c-4.756,1.153-7.168,2.77-7.168,4.8a29.522,29.522,0,0,0,.774,3.722,3.231,3.231,0,0,0,1.4,2.33,2.587,2.587,0,0,0-1.557.852l-2.117,2.413-.424-.846.479-1.908a.922.922,0,1,0-1.788-.449l-.325,1.293-1.289-.4a.922.922,0,0,0-.551,1.759l1.847.578.4.8-3.2.253A2.592,2.592,0,0,0,8.163,31a2.592,2.592,0,0,0,1.616,3.223A2.592,2.592,0,0,0,11.4,37.444a2.592,2.592,0,0,0,1.616,3.223,2.592,2.592,0,0,0,1.616,3.223A2.591,2.591,0,0,0,15.969,47L9.49,61.625a.922.922,0,1,0,1.685.747L17.895,47.2l4.706-.372L23.89,49.4H19.65a2.042,2.042,0,0,0-2.039,2.039v4.184a1,1,0,0,0,.042.294L19.5,62.256a.922.922,0,0,0,1.77-.516l-1.508-5.175H49.05a.922.922,0,0,0,0-1.843h-29.6V51.441a.2.2,0,0,1,.2-.2H57.529a.2.2,0,0,1,.2.2v3.281H53.359a.922.922,0,0,0,0,1.843h4.059L55.909,61.74a.922.922,0,1,0,1.77.516l1.847-6.336a1.007,1.007,0,0,0,.042-.294V51.441A2.042,2.042,0,0,0,57.529,49.4H52.723V40.3a6.816,6.816,0,0,1,5.389,4.261q.008.021.017.041L66,62.371a.922.922,0,0,0,1.686-.747ZM41.656,38.388H35.523V35.16h6.133Zm7.383-9.721a4.654,4.654,0,0,1-4.649,4.649h-11.6a4.654,4.654,0,0,1-4.649-4.649V22.185l2.252,3.108a.914.914,0,0,0,1.415.093,5.254,5.254,0,0,1,1.526-.945,12.941,12.941,0,0,1,5.256-.957,12.941,12.941,0,0,1,5.256.957,5.286,5.286,0,0,1,1.525.945.922.922,0,0,0,1.416-.092l2.252-3.108v6.483Zm-31.26-9.5h0c0-.6,1.2-1.936,5.706-3.1.878-.227,1.819-.432,2.813-.613V18.42a4.226,4.226,0,0,0-4.38,3.388c-3.231-1.044-4.137-2.129-4.139-2.646Zm31.261-.12-3.186,4.4a12.512,12.512,0,0,0-6.342-1.778V19.725a.922.922,0,0,0-1.843,0v1.936a12.514,12.514,0,0,0-6.342,1.778l-3.185-4.4v-3.9a74.438,74.438,0,0,1,10.556-.71,74.845,74.845,0,0,1,10.342.679ZM23.691,22.562a2.38,2.38,0,0,1,2.606-2.3v4.6A2.383,2.383,0,0,1,23.691,22.562Zm27.5,2.3h-.308v-4.6a2.383,2.383,0,0,1,2.606,2.3,2.3,2.3,0,0,1-2.3,2.3Zm4.083-2.987a4.217,4.217,0,0,0-4.391-3.452V15.41c4.257.658,8.815,2.467,8.733,3.751C59.615,19.865,58.261,20.934,55.273,21.872Zm-37-7.679a17.187,17.187,0,0,1,4.493-1.633A71.378,71.378,0,0,1,38.7,11.017a72.669,72.669,0,0,1,15.825,1.477c4.168.99,5.647,2.2,5.647,2.944,0,.145-.063.614-.155,1.224-1.645-1.354-5.3-2.41-8-2.916A71.31,71.31,0,0,0,38.7,12.594a65.195,65.195,0,0,0-15.674,1.683,16.614,16.614,0,0,0-5.784,2.5,11.907,11.907,0,0,1-.229-1.2c0-.4.461-.9,1.266-1.379Zm3.752,9.577A4.24,4.24,0,0,0,26.3,26.7v1.964a6.5,6.5,0,0,0,6.492,6.492h.89v3.229H27.558a2.585,2.585,0,0,0-.894-.534,2.59,2.59,0,0,0-1.616-3.223,2.591,2.591,0,0,0-1.616-3.223,2.59,2.59,0,0,0-1.616-3.223A2.591,2.591,0,0,0,20.2,24.963a2.578,2.578,0,0,0-.114-1.849q.879.345,1.942.657ZM11.6,34.629a.737.737,0,0,1,.591-.378l3.948-.312.724,1.444-4.552.359a.748.748,0,0,1-.728-.411.738.738,0,0,1,.017-.7Zm-.9-2.109a.745.745,0,0,1-.728-.411.748.748,0,0,1,.61-1.081l3.947-.312.724,1.444Zm14.06,5.05L21.742,41l-.724-1.444,2.611-2.976a.749.749,0,0,1,1.231.158.745.745,0,0,1-.106.829Zm-1.616-3.223L20.126,37.78,19.4,36.336l2.611-2.977a.748.748,0,0,1,1.231.159A.746.746,0,0,1,23.138,34.347Zm-1.616-3.223L18.51,34.557l-.724-1.444L20.4,30.136a.748.748,0,0,1,1.23.159.745.745,0,0,1-.106.829ZM19.907,27.9l-3.012,3.433-.724-1.444,2.611-2.977a.748.748,0,0,1,1.231.159A.746.746,0,0,1,19.907,27.9Zm-6.692,9.951a.738.738,0,0,1,.593-.378l3.946-.312.724,1.444-4.552.359a.747.747,0,0,1-.728-.411.738.738,0,0,1,.017-.7Zm1.616,3.223a.738.738,0,0,1,.593-.378l3.946-.312.724,1.444-4.552.359a.747.747,0,0,1-.728-.411.738.738,0,0,1,.017-.7Zm8.527,3.151-.724-1.444,2.611-2.976a.748.748,0,0,1,1.231.159.746.746,0,0,1-.106.829ZM17.166,23.691a.748.748,0,0,1,1.232.158.746.746,0,0,1-.106.829L17.4,25.7h0l-2.117,2.413-.724-1.444Zm-8.8,4.492A.738.738,0,0,1,8.96,27.8l3.946-.312.724,1.444-4.553.36a.746.746,0,0,1-.728-.411.738.738,0,0,1,.017-.7Zm8.84,17.225h-.013l-.038,0A.746.746,0,0,1,16.429,45a.749.749,0,0,1,.61-1.082l3.946-.312.724,1.444Zm7.042.6,3.506-4a2.583,2.583,0,0,0,.644-1.777h1.183V49.4H25.952Zm7.177,3.4v-9.17H33.68v5.776a.922.922,0,1,0,1.843,0V40.232h6.133V49.4Zm12.073,0v-9.17h2.254V49.4Zm4.1,0v-9.17H50.88V49.4Z" transform="translate(-6.427 0)"/>
        <path id="Trazado_917648" data-name="Trazado 917648" d="M246.78,207.195a4.264,4.264,0,0,1-3.831.054.922.922,0,0,0-.971,1.567,5.529,5.529,0,0,0,2.763.689,6.738,6.738,0,0,0,2.8-.63.922.922,0,1,0-.761-1.679Z" transform="translate(-212.652 -181.66)"/>
        <path id="Trazado_917649" data-name="Trazado 917649" d="M409.143,266.212a.922.922,0,0,0,.922-.922v-.439h.439a.922.922,0,1,0,0-1.843h-.439v-.439a.922.922,0,1,0-1.843,0v.439h-.438a.922.922,0,1,0,0,1.843h.438v.439A.922.922,0,0,0,409.143,266.212Z" transform="translate(-357.652 -229.494)"/>
        <circle id="Elipse_11870" data-name="Elipse 11870" cx="0.922" cy="0.922" r="0.922" transform="translate(54.695 28.479)"/>
      </g>
    </g>
  </g>
</svg>
