<svg xmlns="http://www.w3.org/2000/svg" width="78" height="78" viewBox="0 0 78 78">
  <g id="Grupo_1119957" data-name="Grupo 1119957" transform="translate(-627.051 -8441)">
    <circle id="Elipse_11660" data-name="Elipse 11660" cx="39" cy="39" r="39" transform="translate(627.051 8441)" fill="#e2dacc"/>
    <g id="Layer_32" data-name="Layer 32" transform="translate(634.293 8447.5)">
      <path id="Trazado_917443" data-name="Trazado 917443" d="M32,36l-3.615-3.1a12.052,12.052,0,0,0-16.992,1.308L10.23,35.565A5.11,5.11,0,0,0,14.11,44a14.671,14.671,0,0,0,8.8-2.932A38.665,38.665,0,0,1,31.744,36.1Z" fill="#82ab00"/>
      <path id="Trazado_917444" data-name="Trazado 917444" d="M32,31l4.888-10.387A11.514,11.514,0,0,1,54,16.144l1.935,1.382a4.925,4.925,0,0,1,.1,7.952,24.888,24.888,0,0,1-13.552,4.94Z" fill="#82ab00"/>
      <path id="Trazado_917445" data-name="Trazado 917445" d="M32,23l-2.416-1.879a47.021,47.021,0,0,1-11-12.194,3.8,3.8,0,0,1,.941-5.071A9.28,9.28,0,0,1,25.094,2,9.906,9.906,0,0,1,35,11.906a19.947,19.947,0,0,1-1.613,7.856Z" fill="#82ab00"/>
      <path id="Trazado_917446" data-name="Trazado 917446" d="M30.039,34.319,28.385,32.9a12.051,12.051,0,0,0-16.992,1.307L10.23,35.565c-.086.1-.152.215-.23.322A5.11,5.11,0,0,0,15.11,41a14.671,14.671,0,0,0,8.8-2.932,38.689,38.689,0,0,1,6.131-3.749Z" fill="#8dbf00"/>
      <path id="Trazado_917447" data-name="Trazado 917447" d="M55.936,17.526,54,16.145a11.5,11.5,0,0,0-13.785.307,11.594,11.594,0,0,0-1.327,2.161l-.421.894a6.257,6.257,0,0,0,6.009,8.911,24.874,24.874,0,0,0,12.89-4.48,4.907,4.907,0,0,0-1.43-6.412Z" fill="#8dbf00"/>
      <path id="Trazado_917448" data-name="Trazado 917448" d="M25.094,2a9.28,9.28,0,0,0-4.728,1.3,3.761,3.761,0,0,0,.214,3.625,47.021,47.021,0,0,0,11,12.194l1.559,1.212.244-.57A19.948,19.948,0,0,0,35,11.906,9.906,9.906,0,0,0,25.094,2Z" fill="#8dbf00"/>
      <path id="Trazado_917449" data-name="Trazado 917449" d="M1,62H63V50.99a15.819,15.819,0,0,1-4.436-.8,23.132,23.132,0,0,0-13.682-.3A28.818,28.818,0,0,1,36.963,51H28.3a73.716,73.716,0,0,1-14.458-1.431,29.276,29.276,0,0,0-12.84.3Z" fill="#785349"/>
      <path id="Trazado_917450" data-name="Trazado 917450" d="M51.243,49a23.154,23.154,0,0,0-6.361.891A28.818,28.818,0,0,1,36.963,51H28.3a73.716,73.716,0,0,1-14.458-1.431,28.949,28.949,0,0,0-9.6-.306A12.128,12.128,0,0,0,16.126,59H63V50.99a15.819,15.819,0,0,1-4.436-.8A23.146,23.146,0,0,0,51.243,49Z" fill="#a37765"/>
      <g id="Grupo_1119956" data-name="Grupo 1119956">
        <path id="Trazado_917451" data-name="Trazado 917451" d="M5,52H7v2H5Z" fill="#bf9377"/>
        <path id="Trazado_917452" data-name="Trazado 917452" d="M12,57h2v2H12Z" fill="#bf9377"/>
        <path id="Trazado_917453" data-name="Trazado 917453" d="M43,57h2v2H43Z" fill="#bf9377"/>
        <path id="Trazado_917454" data-name="Trazado 917454" d="M54,53h2v2H54Z" fill="#bf9377"/>
      </g>
      <path id="Trazado_917455" data-name="Trazado 917455" d="M18,51c0,2.761,6.716,5,15,5s15-2.239,15-5a2.3,2.3,0,0,0-.814-1.628,23.023,23.023,0,0,0-2.3.519A28.818,28.818,0,0,1,36.963,51H28.3a73.712,73.712,0,0,1-10.135-.715l-.017.012A1.8,1.8,0,0,0,18,51Z" fill="#785349"/>
      <path id="Trazado_917456" data-name="Trazado 917456" d="M44.606,48.929A27.771,27.771,0,0,1,36.963,50H33V31.946l9.531-.529a25.822,25.822,0,0,0,14.1-5.139,5.929,5.929,0,0,0-.112-9.566l-1.933-1.38a12.518,12.518,0,0,0-18.6,4.856L33,26.525V23.2l1.307-3.049A20.823,20.823,0,0,0,36,11.906,10.919,10.919,0,0,0,25.094,1a10.346,10.346,0,0,0-6.169,2.056,4.815,4.815,0,0,0-1.194,6.4A47.885,47.885,0,0,0,28.97,21.91L31,23.489V33.826l-1.965-1.684a13.05,13.05,0,0,0-18.4,1.416L9.471,34.914A6.11,6.11,0,0,0,14.109,45a15.76,15.76,0,0,0,9.4-3.135A37.727,37.727,0,0,1,31,37.521V50H28.3a72.946,72.946,0,0,1-14.26-1.412A30.373,30.373,0,0,0,.758,48.9l.484,1.94a28.439,28.439,0,0,1,12.4-.3c1.118.223,2.243.415,3.372.588C17.206,54.985,25.144,57,33,57c7.951,0,16-2.061,16-6a2.755,2.755,0,0,0-.153-.855,22.219,22.219,0,0,1,9.4.993,16.815,16.815,0,0,0,4.716.851l.072-2a14.87,14.87,0,0,1-4.155-.751,24.276,24.276,0,0,0-14.274-.309Zm-6.813-27.89a10.518,10.518,0,0,1,15.63-4.08l1.932,1.38a3.929,3.929,0,0,1,.074,6.34,23.812,23.812,0,0,1-13.009,4.74l-7.505.418a45.887,45.887,0,0,1,14.4-7.888l-.632-1.9A47.855,47.855,0,0,0,34.8,27.386ZM19.428,8.4a2.813,2.813,0,0,1,.7-3.742A8.334,8.334,0,0,1,25.094,3,8.916,8.916,0,0,1,34,11.906a18.867,18.867,0,0,1-1.531,7.463l-.165.385-.242-1.09A24.015,24.015,0,0,0,27.8,9.4l-1.6,1.2a22.041,22.041,0,0,1,3.908,8.5l.313,1.406-.223-.173A45.882,45.882,0,0,1,19.428,8.4Zm2.884,31.868A13.754,13.754,0,0,1,14.109,43a4.11,4.11,0,0,1-3.119-6.785l1.161-1.356a11.052,11.052,0,0,1,15.583-1.2l.629.539A20.081,20.081,0,0,0,18.23,35.431l-1.6.64.742,1.858,1.6-.641a18.092,18.092,0,0,1,9.894-.993,39.652,39.652,0,0,0-6.554,3.971ZM47,51c0,1.631-5.454,4-14,4-7.854,0-13.084-2-13.881-3.59A74.826,74.826,0,0,0,28.3,52h8.664a29.82,29.82,0,0,0,8.2-1.148q.809-.232,1.637-.4A1,1,0,0,1,47,51Z"/>
      <path id="Trazado_917457" data-name="Trazado 917457" d="M1,61H63v2H1Z"/>
      <path id="Trazado_917458" data-name="Trazado 917458" d="M5,52H7v2H5Z"/>
      <path id="Trazado_917459" data-name="Trazado 917459" d="M12,57h2v2H12Z"/>
      <path id="Trazado_917460" data-name="Trazado 917460" d="M43,57h2v2H43Z"/>
      <path id="Trazado_917461" data-name="Trazado 917461" d="M54,53h2v2H54Z"/>
    </g>
  </g>
</svg>
