<svg xmlns="http://www.w3.org/2000/svg" width="71" height="71" viewBox="0 0 71 71">
  <g id="Grupo_1120039" data-name="Grupo 1120039" transform="translate(-1033.865 -8888.229)">
    <circle id="Elipse_11661" data-name="Elipse 11661" cx="35.5" cy="35.5" r="35.5" transform="translate(1033.865 8888.229)" fill="#fff"/>
    <g id="Artwork" transform="translate(1028.107 8890.114)">
      <path id="Trazado_917688" data-name="Trazado 917688" d="M77.631,233.164c-.231-1.688-2.551-2.17-2.733-4.528a15.84,15.84,0,0,1-.079-2.964.649.649,0,0,0-.6-.781l-28.881-1.645a.653.653,0,0,0-.325.066l-5.974,2.962a.652.652,0,0,0-.356.664,5.666,5.666,0,0,1-1.465,4.428c-2.185,2.023-1.58,4.906,1,4.906,2.92,0,6.049-3.7,13.356-.728l.034.013c3.363,1.147,4.174-.692,6.606-.642,2.485.053,1.955.846,4.688.846,2.834,0,3.494-1.726,7.336-.862,3.624.816,5.789,1.076,6.846.1a1.987,1.987,0,0,0,.55-1.84Z" transform="translate(-15.788 -176.547)" fill="#996052"/>
      <path id="Trazado_917689" data-name="Trazado 917689" d="M77.614,238.918c-22.6-1.178-31.371-5.935-34.77-9.561l-3.823,1.9a.652.652,0,0,0-.356.664,5.666,5.666,0,0,1-1.465,4.428c-2.654,2.458-1.2,6.11,2.88,4.52,3.231-1.259,6.283-2.448,11.472-.342l.034.013c3.363,1.147,4.174-.692,6.606-.642,2.485.053,1.955.846,4.688.846,2.834,0,3.494-1.726,7.336-.862,3.624.816,5.789,1.076,6.846.1A1.753,1.753,0,0,0,77.614,238.918Z" transform="translate(-15.77 -181.526)" fill="#8f5a4e"/>
      <path id="Trazado_917690" data-name="Trazado 917690" d="M38.751,49.683c-3.911,0-5.933,6.5-5.933,10.588a.649.649,0,0,0,.119.374l5.23,7.418a.649.649,0,0,0,.527.275h0a.649.649,0,0,0,.527-.27l5.338-7.418a.65.65,0,0,0,.122-.379C44.684,56.172,42.656,49.683,38.751,49.683Z" transform="translate(-13.293 -35.174)" fill="#f5c265"/>
      <rect id="Rectángulo_405713" data-name="Rectángulo 405713" width="4.652" height="7.666" rx="2.326" transform="translate(23.132 34.803)" fill="#298a6b"/>
      <path id="Trazado_917691" data-name="Trazado 917691" d="M56.919,166.128v-1.465c-2.9-.89-3.38-4.078-3.443-5.551h-.56a.649.649,0,0,0-.649.649v6.367a.649.649,0,0,0,.649.649H56.27a.649.649,0,0,0,.649-.649Z" transform="translate(-29.135 -124.309)" fill="#248062"/>
      <path id="Trazado_917692" data-name="Trazado 917692" d="M34.556,67.427a15.957,15.957,0,0,0-1.738,7.3.649.649,0,0,0,.119.374l5.23,7.418a.649.649,0,0,0,.527.275h0a.649.649,0,0,0,.527-.27l3.043-4.229C35.77,75.683,34.579,70.668,34.556,67.427Z" transform="translate(-13.293 -49.627)" fill="#e8b860"/>
      <path id="Trazado_917693" data-name="Trazado 917693" d="M70.446,102.89a.649.649,0,0,0-.6-.445,8.052,8.052,0,0,0-6.527,2.409c-2.974,3.266-2.343,8.6-2.315,8.825a.649.649,0,0,0,.644.568c1.66-.023,1.733.054,1.978-.074.144-.075,3.522-1.881,3.867-5.11a8.6,8.6,0,0,1,2.734-5.461A.649.649,0,0,0,70.446,102.89Z" transform="translate(-36.194 -78.146)" fill="#35a17d"/>
      <path id="Trazado_917694" data-name="Trazado 917694" d="M23.654,104.853a8.051,8.051,0,0,0-6.527-2.409.649.649,0,0,0-.383,1.158,8.513,8.513,0,0,1,2.734,5.461c.346,3.228,3.724,5.035,3.867,5.11.245.129.325.052,1.978.074a.649.649,0,0,0,.644-.568C26,113.453,26.628,108.119,23.654,104.853Z" transform="translate(0 -78.145)" fill="#2c9472"/>
      <g id="Grupo_1120038" data-name="Grupo 1120038" transform="translate(23.453 18.511)">
        <path id="Trazado_917695" data-name="Trazado 917695" d="M56.3,72.562H54.643a.649.649,0,1,1,0-1.3H56.3a.649.649,0,0,1,0,1.3Z" transform="translate(-53.994 -71.264)" fill="#e8b14d"/>
        <path id="Trazado_917696" data-name="Trazado 917696" d="M65.964,87.355H64.193a.649.649,0,1,1,0-1.3h1.771a.649.649,0,0,1,0,1.3Z" transform="translate(-61.773 -83.313)" fill="#e8b14d"/>
        <path id="Trazado_917697" data-name="Trazado 917697" d="M56.243,102.351H54.849a.649.649,0,1,1,0-1.3h1.394a.649.649,0,1,1,0,1.3Z" transform="translate(-54.162 -95.528)" fill="#e8b14d"/>
      </g>
      <path id="Trazado_917698" data-name="Trazado 917698" d="M209.851,49.683c-3.911,0-5.933,6.5-5.933,10.588a.649.649,0,0,0,.119.374l5.23,7.418a.649.649,0,0,0,.527.275h0a.649.649,0,0,0,.527-.27l5.337-7.418a.649.649,0,0,0,.122-.379c0-4.1-2.028-10.588-5.933-10.588Z" transform="translate(-152.661 -35.174)" fill="#f5c265"/>
      <path id="Trazado_917699" data-name="Trazado 917699" d="M205.656,67.427a15.964,15.964,0,0,0-1.738,7.3.649.649,0,0,0,.119.374l5.23,7.418a.649.649,0,0,0,1.057.005l3.042-4.229C206.87,75.683,205.679,70.668,205.656,67.427Z" transform="translate(-152.661 -49.627)" fill="#e8b860"/>
      <rect id="Rectángulo_405714" data-name="Rectángulo 405714" width="4.652" height="7.666" rx="2.326" transform="translate(54.864 34.803)" fill="#298a6b"/>
      <path id="Trazado_917700" data-name="Trazado 917700" d="M228.019,166.128v-1.465c-2.9-.89-3.38-4.078-3.442-5.551h-.561a.649.649,0,0,0-.649.649v6.367a.649.649,0,0,0,.649.649h3.354A.649.649,0,0,0,228.019,166.128Z" transform="translate(-168.503 -124.309)" fill="#248062"/>
      <path id="Trazado_917701" data-name="Trazado 917701" d="M241.546,102.89a.649.649,0,0,0-.6-.445,8.05,8.05,0,0,0-6.527,2.409c-2.974,3.266-2.343,8.6-2.315,8.825a.649.649,0,0,0,.644.568c1.66-.023,1.733.054,1.978-.074.144-.075,3.522-1.881,3.867-5.11a8.6,8.6,0,0,1,2.734-5.46A.649.649,0,0,0,241.546,102.89Z" transform="translate(-175.562 -78.145)" fill="#35a17d"/>
      <path id="Trazado_917702" data-name="Trazado 917702" d="M194.755,104.853a8.051,8.051,0,0,0-6.527-2.409.649.649,0,0,0-.382,1.158,8.513,8.513,0,0,1,2.734,5.461c.346,3.228,3.724,5.035,3.867,5.11.245.129.325.052,1.978.074a.649.649,0,0,0,.644-.568c.028-.225.659-5.559-2.315-8.825Z" transform="translate(-139.369 -78.145)" fill="#2c9472"/>
      <path id="Trazado_917703" data-name="Trazado 917703" d="M227.406,72.562h-1.657a.649.649,0,0,1,0-1.3h1.658a.649.649,0,1,1,0,1.3Z" transform="translate(-169.914 -52.753)" fill="#e8b14d"/>
      <path id="Trazado_917704" data-name="Trazado 917704" d="M237.064,87.355h-1.771a.649.649,0,0,1,0-1.3h1.771a.649.649,0,0,1,0,1.3Z" transform="translate(-177.688 -64.802)" fill="#e8b14d"/>
      <path id="Trazado_917705" data-name="Trazado 917705" d="M227.343,102.351h-1.394a.649.649,0,1,1,0-1.3h1.394a.649.649,0,1,1,0,1.3Z" transform="translate(-170.077 -77.017)" fill="#e8b14d"/>
      <path id="Trazado_917706" data-name="Trazado 917706" d="M124.3,6.5c-3.9,0-5.933,6.479-5.933,10.588a.649.649,0,0,0,.146.41l5.36,6.584a.649.649,0,0,0,.5.239h0a.649.649,0,0,0,.5-.246l5.209-6.584a.65.65,0,0,0,.14-.4C130.233,13,128.21,6.5,124.3,6.5Z" transform="translate(-82.976 0)" fill="#f5c265"/>
      <rect id="Rectángulo_405715" data-name="Rectángulo 405715" width="4.652" height="15.674" rx="2.326" transform="translate(38.998 26.794)" fill="#298a6b"/>
      <path id="Trazado_917707" data-name="Trazado 917707" d="M138.466,131.6h3.354a.649.649,0,0,0,.649-.649v-2.326c-2.913-2.3-3.428-9.48-3.509-12.7h-.494a.649.649,0,0,0-.649.649v14.376a.649.649,0,0,0,.649.649Z" transform="translate(-98.819 -89.133)" fill="#248062"/>
      <path id="Trazado_917708" data-name="Trazado 917708" d="M124.885,41.284l2.458-3.106a15.24,15.24,0,0,1-7.553-10.55,16.312,16.312,0,0,0-1.422,6.67c0,.422.009.16,5.505,6.993a.649.649,0,0,0,1.012-.007Z" transform="translate(-82.976 -17.21)" fill="#e8b860"/>
      <path id="Trazado_917709" data-name="Trazado 917709" d="M156,59.707a.649.649,0,0,0-.6-.445,8.054,8.054,0,0,0-6.527,2.409c-2.974,3.266-2.343,8.6-2.314,8.825a.649.649,0,0,0,.644.568c1.657-.022,1.734.054,1.978-.074.144-.075,3.522-1.881,3.868-5.11a8.6,8.6,0,0,1,2.734-5.46A.649.649,0,0,0,156,59.707Z" transform="translate(-105.878 -42.972)" fill="#35a17d"/>
      <path id="Trazado_917710" data-name="Trazado 917710" d="M109.205,61.67a8.047,8.047,0,0,0-6.527-2.409.649.649,0,0,0-.384,1.157,8.6,8.6,0,0,1,2.736,5.462c.346,3.229,3.724,5.034,3.868,5.11.245.128.328.052,1.978.074a.649.649,0,0,0,.644-.568C111.548,70.27,112.179,64.936,109.205,61.67Z" transform="translate(-69.685 -42.971)" fill="#2c9472"/>
      <path id="Trazado_917711" data-name="Trazado 917711" d="M141.851,29.379h-1.658a.649.649,0,0,1,0-1.3h1.658a.649.649,0,1,1,0,1.3Z" transform="translate(-100.225 -17.579)" fill="#e8b14d"/>
      <path id="Trazado_917712" data-name="Trazado 917712" d="M151.514,44.172h-1.771a.649.649,0,0,1,0-1.3h1.771a.649.649,0,1,1,0,1.3Z" transform="translate(-108.004 -29.628)" fill="#e8b14d"/>
      <path id="Trazado_917713" data-name="Trazado 917713" d="M141.791,59.168H140.4a.649.649,0,0,1,0-1.3h1.394a.649.649,0,1,1,0,1.3Z" transform="translate(-100.392 -41.843)" fill="#e8b14d"/>
      <path id="Trazado_917714" data-name="Trazado 917714" d="M75.028,196.023c-.53-.967-1.915-2.589-5.231-2.589l-34.307,0c-.434-.016-3.7-.074-4.917,1.6a2.639,2.639,0,0,0-.218,2.592c.716,1.85-1.214,3.555,1.619,5.255,2.867,1.72,8.636-3.57,14.527-.877,4.967,2.27,10.952,3.167,15.945,1.02,7.261-3.122,10.454.615,12.508-2.61A4.43,4.43,0,0,0,75.028,196.023Z" transform="translate(-11.101 -152.264)" fill="#bd7766"/>
      <path id="Trazado_917715" data-name="Trazado 917715" d="M46.5,202.06c4.967,2.27,10.952,3.167,15.945,1.02,6.985-3,10.043.31,12.215-2.216-26.946-.985-36.43-4.8-39.965-7.364-1.16.057-3.213.34-4.124,1.591a2.639,2.639,0,0,0-.218,2.592c.716,1.85-1.214,3.555,1.619,5.255C34.841,204.658,40.61,199.367,46.5,202.06Z" transform="translate(-11.101 -152.319)" fill="#a7695a"/>
      <path id="Trazado_917716" data-name="Trazado 917716" d="M54.643,72.56H56.3a.649.649,0,0,0,0-1.3H54.643a.649.649,0,1,0,0,1.3Z" transform="translate(-30.541 -52.751)"/>
      <path id="Trazado_917717" data-name="Trazado 917717" d="M63.544,86.7a.649.649,0,0,0,.649.649h1.771a.649.649,0,0,0,0-1.3H64.193A.649.649,0,0,0,63.544,86.7Z" transform="translate(-38.32 -64.801)"/>
      <path id="Trazado_917718" data-name="Trazado 917718" d="M56.243,101.049H54.849a.649.649,0,1,0,0,1.3h1.394a.649.649,0,1,0,0-1.3Z" transform="translate(-30.709 -77.014)"/>
      <path id="Trazado_917719" data-name="Trazado 917719" d="M65.987,24.744a.649.649,0,0,0-.6-.445,11.055,11.055,0,0,0-2.279.152c-.16-3.922-2.164-9.942-5.918-9.942-3.777,0-5.766,6.069-5.919,9.965a10.945,10.945,0,0,0-2.411-.175.649.649,0,0,0-.382,1.158,8.513,8.513,0,0,1,2.734,5.46c.3,2.8,2.879,4.529,3.653,4.989V41.17l-11.214,0V27.815c.9-.559,3.235-2.251,3.52-4.907a8.6,8.6,0,0,1,2.734-5.46.649.649,0,0,0-.382-1.158,11.068,11.068,0,0,0-2.279.152c-.16-3.923-2.165-9.942-5.919-9.942-3.778,0-5.766,6.071-5.919,9.965A10.961,10.961,0,0,0,33,16.29a.649.649,0,0,0-.384,1.157,8.6,8.6,0,0,1,2.736,5.462c.3,2.8,2.88,4.529,3.654,4.988V41.172H27.787V35.823c.9-.559,3.235-2.251,3.519-4.907a8.6,8.6,0,0,1,2.734-5.46.649.649,0,0,0-.382-1.158,11.057,11.057,0,0,0-2.279.152c-.16-3.927-2.165-9.943-5.918-9.943-3.777,0-5.766,6.069-5.919,9.965a10.942,10.942,0,0,0-2.411-.175.649.649,0,0,0-.383,1.158,8.513,8.513,0,0,1,2.734,5.46c.3,2.8,2.879,4.529,3.654,4.989v5.308c-2.786.255-4.822,1.567-3.878,4.15a3.467,3.467,0,0,1,.095,1.892,2.805,2.805,0,0,0,1.524,3.364,3.111,3.111,0,0,0,2.049.321,5.312,5.312,0,0,1-1.492,3.879c-2.646,2.45-1.216,6.117,2.88,4.52C27.546,58.08,30.6,56.89,35.787,59c3.085,1.224,4.294-.677,6.639-.629,2.485.053,1.955.846,4.688.846,2.834,0,3.494-1.725,7.336-.862,3.624.816,5.789,1.076,6.846.1a1.986,1.986,0,0,0,.55-1.84,3.316,3.316,0,0,0-1.2-1.834,4.034,4.034,0,0,1-1.531-2.694,24.476,24.476,0,0,1-.1-2.639c.674.028,1.378.074,2.136.123,2.77.184,4.188-3.256,2.785-5.814a5.211,5.211,0,0,0-4.411-2.553V35.823c.9-.559,3.235-2.251,3.52-4.907a8.6,8.6,0,0,1,2.734-5.46.649.649,0,0,0,.213-.713Zm-8.793-8.937c2.287,0,4.531,4.4,4.63,8.974a7.453,7.453,0,0,0-4.7,4.984,7.472,7.472,0,0,0-4.564-4.939c.085-4.593,2.337-9.019,4.631-9.019ZM56.165,36.1h2.056v5.069H56.165Zm-3.66-5.323a10.035,10.035,0,0,0-2.061-5.12c4.613.555,6.237,4.591,6.014,9.143h-.9c-.569-.337-2.812-1.8-3.049-4.023ZM40.3,28.091h2.055V41.168H40.3Zm5.582-5.323c-.238,2.221-2.482,3.687-3.049,4.024h-.9c-.227-4.533,1.4-8.588,6.015-9.143a10.032,10.032,0,0,0-2.062,5.12ZM41.327,7.8c2.287,0,4.53,4.4,4.63,8.974a7.453,7.453,0,0,0-4.7,4.984A7.479,7.479,0,0,0,36.7,16.817C36.782,12.224,39.033,7.8,41.327,7.8ZM36.639,22.77a10.032,10.032,0,0,0-2.061-5.12c4.608.555,6.237,4.581,6.014,9.143h-.9c-.569-.338-2.812-1.8-3.05-4.023ZM26.489,36.1v5.069H24.433V36.1Zm3.527-5.323C29.778,33,27.534,34.464,26.966,34.8h-.9c-.228-4.534,1.4-8.588,6.015-9.143a10.035,10.035,0,0,0-2.061,5.119ZM25.461,15.807c2.287,0,4.531,4.4,4.63,8.974a7.453,7.453,0,0,0-4.7,4.984,7.472,7.472,0,0,0-4.564-4.939c.085-4.593,2.337-9.019,4.631-9.019ZM20.773,30.778a10.033,10.033,0,0,0-2.061-5.12,6.2,6.2,0,0,1,3.982,1.919c1.664,1.824,2.154,4.74,2.033,7.225h-.9C23.253,34.464,21.011,33,20.773,30.778Zm38.961,24.93c.42.411.782.766.825,1.083.07.513-.089.659-.141.708-.758.695-4.085-.054-5.683-.414-4.184-.941-5.222.83-7.621.83s-1.876-.787-4.66-.846c-2.918-.065-3.3,1.7-6.2.717-5.656-2.291-9.091-.952-12.414.342-2.827,1.1-3.032-.964-1.527-2.357a6.685,6.685,0,0,0,1.9-5.1c.531-.144,1.1-.323,1.7-.516,2.724-.872,6.114-1.955,9.487-.414,4.967,2.27,10.952,3.167,15.945,1.02a15.14,15.14,0,0,1,6.361-1.339,26.185,26.185,0,0,0,.107,2.766A5.3,5.3,0,0,0,59.734,55.708Zm3.059-11.326c.9,1.636.159,4.009-1.561,3.895-3.72-.245-6.408-.422-10.394,1.291-1.966.845-7.352,2.438-14.892-1.009-3.491-1.595-6.864-.78-10.423.358-1.734.555-3.232,1.034-3.977.587-1.107-.664-1.045-1.1-.907-2.066a4.687,4.687,0,0,0-.165-2.532c-.315-.864-.039-1.244.052-1.369.626-.861,2.585-1.058,3.54-1.069H58.7C60.661,42.467,62.115,43.147,62.792,44.382Zm-1.044-13.6C61.51,33,59.267,34.465,58.7,34.8h-.9c-.227-4.525,1.391-8.587,6.016-9.143a10.033,10.033,0,0,0-2.062,5.119Z" transform="translate(-0.003)"/>
      <path id="Trazado_917720" data-name="Trazado 917720" d="M225.749,72.56h1.658a.649.649,0,1,0,0-1.3h-1.658a.649.649,0,0,0,0,1.3Z" transform="translate(-169.914 -52.751)"/>
      <path id="Trazado_917721" data-name="Trazado 917721" d="M234.644,86.7a.649.649,0,0,0,.649.649h1.771a.649.649,0,1,0,0-1.3h-1.771A.649.649,0,0,0,234.644,86.7Z" transform="translate(-177.688 -64.801)"/>
      <path id="Trazado_917722" data-name="Trazado 917722" d="M227.343,101.049h-1.394a.649.649,0,0,0,0,1.3h1.394a.649.649,0,1,0,0-1.3Z" transform="translate(-170.077 -77.014)"/>
      <path id="Trazado_917723" data-name="Trazado 917723" d="M140.193,29.379h1.658a.649.649,0,0,0,0-1.3h-1.658a.649.649,0,0,0,0,1.3Z" transform="translate(-100.225 -17.579)"/>
      <path id="Trazado_917724" data-name="Trazado 917724" d="M149.094,43.522a.649.649,0,0,0,.649.649h1.771a.649.649,0,1,0,0-1.3h-1.771A.649.649,0,0,0,149.094,43.522Z" transform="translate(-108.004 -29.627)"/>
      <path id="Trazado_917725" data-name="Trazado 917725" d="M141.791,57.868H140.4a.649.649,0,1,0,0,1.3h1.394a.649.649,0,1,0,0-1.3Z" transform="translate(-100.392 -41.841)"/>
    </g>
  </g>
</svg>
