<svg xmlns="http://www.w3.org/2000/svg" width="71" height="71" viewBox="0 0 71 71">
  <g id="Grupo_1120040" data-name="Grupo 1120040" transform="translate(-614.051 -9013)">
    <circle id="Elipse_11626" data-name="Elipse 11626" cx="35.5" cy="35.5" r="35.5" transform="translate(614.051 9013)" fill="#fff"/>
    <g id="Filled_outline" data-name="Filled outline" transform="translate(626.051 9026)">
      <path id="Trazado_917726" data-name="Trazado 917726" d="M42.985,11H29V24.985H42.985Z" transform="translate(-17.346 -4.008)" fill="#ffd782"/>
      <path id="Trazado_917727" data-name="Trazado 917727" d="M42.985,33H29V54.754H42.985Z" transform="translate(-17.346 -8.915)" fill="#7fcac9"/>
      <path id="Trazado_917728" data-name="Trazado 917728" d="M39,11V21.877l6.215-3.108a2.331,2.331,0,1,1,0-4.662V11Z" transform="translate(-27.346 -4.008)" fill="#394d5c"/>
      <path id="Trazado_917729" data-name="Trazado 917729" d="M32.539,42.323l-1.554,1.554H21.662V35.331a2.331,2.331,0,0,0-4.662,0v10.1a3.108,3.108,0,0,0,3.108,3.108H35.646V42.323Z" transform="translate(-0.685 -8.915)" fill="#ffd782"/>
      <path id="Trazado_917730" data-name="Trazado 917730" d="M33.662,37v9.323a3.108,3.108,0,0,0,3.108,3.108h1.554V38.554a3.885,3.885,0,0,0,3.885,3.885h.777V55.646H29V37Z" transform="translate(-17.346 -9.808)" fill="#5f79ba"/>
      <path id="Trazado_917731" data-name="Trazado 917731" d="M27.662,35.331v8.546h9.323v4.662H26.108A3.108,3.108,0,0,1,23,45.431v-10.1a2.331,2.331,0,0,1,4.662,0Z" transform="translate(-6.685 -8.915)" fill="#98ede8"/>
      <path id="Trazado_917732" data-name="Trazado 917732" d="M20.108,29A3.108,3.108,0,0,0,17,32.108v9.323h3.108Z" transform="translate(14.854 -8.023)" fill="#50b4f8"/>
      <path id="Trazado_917733" data-name="Trazado 917733" d="M16.108,29H13v3.108h3.108Z" transform="translate(21.962 -8.023)" fill="#2d75bb"/>
      <path id="Trazado_917734" data-name="Trazado 917734" d="M54.769,51H47v3.108a1.554,1.554,0,0,0,1.554,1.554h6.215Z" transform="translate(-43.115 -12.931)" fill="#fcf05a"/>
      <path id="Trazado_917735" data-name="Trazado 917735" d="M50.108,31.662l-2.331-2.331L50.108,27l4.662,4.662V45.646H47V34.769A3.108,3.108,0,0,1,50.108,31.662Z" transform="translate(-43.115 -7.577)" fill="#c8d952"/>
      <path id="Trazado_917736" data-name="Trazado 917736" d="M0,5.493H3.3V0H0Z" transform="translate(3.892 22.532) rotate(-135)" fill="#8ec13f"/>
      <path id="Trazado_917737" data-name="Trazado 917737" d="M24.769,44.554a1.554,1.554,0,0,1-1.554,1.554H20.108v6.215a1.554,1.554,0,0,0,1.554,1.554H44.969a3.108,3.108,0,0,0,3.108-3.108h3.108a6.215,6.215,0,0,1-6.215,6.215H21.662A4.662,4.662,0,0,1,17,52.323V46.108A3.108,3.108,0,0,1,20.108,43h3.108A1.554,1.554,0,0,1,24.769,44.554Z" transform="translate(-16.223 -11.146)" fill="#50b4f8"/>
      <rect id="Rectángulo_405716" data-name="Rectángulo 405716" width="21.754" height="3.108" rx="1.554" transform="translate(7.769 3.885)" fill="#ad6327"/>
      <path id="Trazado_917738" data-name="Trazado 917738" d="M41.431,3H30.554A1.554,1.554,0,0,0,29,4.554V6.108H42.985V4.554A1.554,1.554,0,0,0,41.431,3Z" transform="translate(-17.346 -2.223)" fill="#d3843d"/>
      <path id="Trazado_917739" data-name="Trazado 917739" d="M35.215,19H29v7.769h6.215Z" transform="translate(-9.577 -5.792)" fill="#7fcac9"/>
      <path id="Trazado_917740" data-name="Trazado 917740" d="M45.662,55H41v4.662h4.662Z" transform="translate(-29.346 -13.823)" fill="#c8d952"/>
      <ellipse id="Elipse_11875" data-name="Elipse 11875" cx="1.554" cy="1.554" rx="1.554" ry="1.554" transform="translate(5.438 31.854)" fill="#2d75bb"/>
      <path id="Trazado_917741" data-name="Trazado 917741" d="M33.554,14H32v1.554h1.554Z" transform="translate(-10.246 -4.677)"/>
      <path id="Trazado_917742" data-name="Trazado 917742" d="M51.554,36H50v3.108h1.554Z" transform="translate(-42.231 -9.585)"/>
      <path id="Trazado_917743" data-name="Trazado 917743" d="M15.108,37.617V33.655a3.888,3.888,0,0,1,2.331-3.561l-.777-.777-.228.228a.777.777,0,0,1-1.1,0L13,27.214a.777.777,0,0,1,0-1.1l3.885-3.885a.777.777,0,0,1,1.1,0l2.331,2.331a.777.777,0,0,1,0,1.1l-.228.228,3.885,3.885H37.639a.777.777,0,0,1,.777.777v10.1h3.563l1.1-1.1v-9a3.889,3.889,0,0,1,3.885-3.885h3.108a.777.777,0,0,1,.777.777v3.108a.777.777,0,0,1-.777.777H47.739V46.085a6.983,6.983,0,0,1-6.992,6.992H17.438A5.445,5.445,0,0,1,12,47.639V41.424A3.892,3.892,0,0,1,15.108,37.617ZM47.739,29.77h1.554V28.216H47.739ZM36.862,31.324h-3.54a3.076,3.076,0,0,1,.432,1.554v2.331a3.108,3.108,0,0,0,3.108,3.108Zm0,8.546a4.637,4.637,0,0,1-3.108-1.2v1.973h3.108ZM41.523,42.2H32.977a.777.777,0,0,1-.777-.777V32.878a1.554,1.554,0,0,0-3.108,0v10.1a2.331,2.331,0,0,0,2.331,2.331h10.1Zm-3.108,4.662v1.554h2.331a2.331,2.331,0,0,0,2.188-1.554Zm7.769-18.513a2.335,2.335,0,0,0-1.554,2.2v8.546h1.554Zm0,12.3H44.176l-1.1,1.1v3.563h3.108ZM29.092,51.524H40.746a5.431,5.431,0,0,0,5.384-4.662H44.553a3.891,3.891,0,0,1-3.807,3.108H29.092Zm-4.662,0h3.108V48.416H24.431Zm0-4.662h3.885a.777.777,0,0,1,.777.777v.777h7.769V46.862H31.423a3.889,3.889,0,0,1-3.885-3.885V34.431H24.431Zm0-13.985h3.108a3.076,3.076,0,0,1,.432-1.554h-3.54Zm-6.992-9-2.786,2.786,1.232,1.232,2.786-2.786Zm5.438,6.992-3.885-3.885L17.76,28.216,19.542,30a.777.777,0,0,1-.549,1.326,2.331,2.331,0,0,0-2.331,2.331v3.885h2.331a2.331,2.331,0,1,1,0,4.662H16.662v1.554h6.215Zm-4.662,9a.777.777,0,1,0,.777-.777A.777.777,0,0,0,18.215,39.87Zm4.662,5.438H16.662v2.331a.777.777,0,0,0,.777.777h5.438Zm-9.323,2.331a3.889,3.889,0,0,0,3.885,3.885h5.438V49.97H17.438a2.331,2.331,0,0,1-2.331-2.331V41.424a.777.777,0,0,1,.777-.777h.92a2.182,2.182,0,0,1,0-1.554h-.92a2.331,2.331,0,0,0-2.331,2.331Z" transform="translate(-12 -6.462)"/>
      <path id="Trazado_917744" data-name="Trazado 917744" d="M0,7.69H1.554V0H0Z" transform="translate(40.953 19.97) rotate(-135)"/>
      <path id="Trazado_917745" data-name="Trazado 917745" d="M7.662,30H3v1.554H7.662Z" transform="translate(38.177 -8.246)"/>
      <path id="Trazado_917746" data-name="Trazado 917746" d="M0,1.554H6.591V0H0Z" transform="translate(45.293 30.847) rotate(-135)"/>
      <path id="Trazado_917747" data-name="Trazado 917747" d="M43.977,9.769H42.423V22.977a.777.777,0,0,1-.777.777H27.662a.777.777,0,0,1-.777-.777V9.769H25.331a2.331,2.331,0,1,1,0-4.662h1.554V4.331A2.331,2.331,0,0,1,29.215,2H40.092a2.331,2.331,0,0,1,2.331,2.331v.777h1.554a2.331,2.331,0,1,1,0,4.662Zm-7.769,9.323h2.331v1.554H36.208V22.2h4.662V15.985H36.208Zm4.662-4.662V9.769H34.654v2.147l1.257,2.514ZM28.438,22.2h6.215V15.391l-1.221-2.442a1.55,1.55,0,0,0,.444,3.035.777.777,0,0,1,.347,1.472l-5.786,2.892Zm0-3.588,3.5-1.752A3.108,3.108,0,0,1,33.1,11.422V9.769H28.438ZM40.869,4.331a.777.777,0,0,0-.777-.777H29.215a.777.777,0,0,0-.777.777v.777H40.869Zm3.108,2.331H25.331a.777.777,0,1,0,0,1.554H43.977a.777.777,0,1,0,0-1.554Z" transform="translate(-16.008 -2)"/>
    </g>
  </g>
</svg>
