<svg xmlns="http://www.w3.org/2000/svg" width="71" height="71" viewBox="0 0 71 71">
  <g id="Grupo_1120047" data-name="Grupo 1120047" transform="translate(-1034.051 -9139)">
    <circle id="Elipse_11663" data-name="Elipse 11663" cx="35.5" cy="35.5" r="35.5" transform="translate(1034.051 9139)" fill="#fff"/>
    <g id="Grupo_1120046" data-name="Grupo 1120046" transform="translate(1003.74 9152)">
      <path id="Trazado_917802" data-name="Trazado 917802" d="M80.73,470.135h30.433v2.984H80.73Z" transform="translate(-30.518 -429.319)" fill="#86a0af"/>
      <path id="Trazado_917803" data-name="Trazado 917803" d="M401.766,470.135h2.562v2.984h-2.562Z" transform="translate(-323.682 -429.319)" fill="#738b95"/>
      <path id="Trazado_917804" data-name="Trazado 917804" d="M80.73,321.872h30.433V309.686c-2.536,0-2.536-1.91-5.072-1.91s-2.536,1.91-5.072,1.91-2.536-1.91-5.072-1.91-2.536,1.91-5.072,1.91-2.536-1.91-5.072-1.91-2.536,1.91-5.072,1.91Z" transform="translate(-30.518 -281.056)" fill="#90d8f9"/>
      <g id="Grupo_1120044" data-name="Grupo 1120044" transform="translate(74.293 26.72)">
        <path id="Trazado_917805" data-name="Trazado 917805" d="M359.38,307.776a3.675,3.675,0,0,0-1.281.208,9.274,9.274,0,0,1,1.841,1.163,4.131,4.131,0,0,1,1.95,3.492v9.232h2.562V309.686C361.916,309.686,361.916,307.776,359.38,307.776Z" transform="translate(-358.099 -307.776)" fill="#75cef9"/>
      </g>
      <path id="Trazado_917806" data-name="Trazado 917806" d="M88.861,164.727H55.7a.884.884,0,0,1-.884-.884V160.7a.884.884,0,0,1,.884-.884H88.861a.884.884,0,0,1,.884.884v3.144A.884.884,0,0,1,88.861,164.727Z" transform="translate(-6.849 -145.94)" fill="#86a0af"/>
      <path id="Trazado_917807" data-name="Trazado 917807" d="M423.633,159.814h-2.222a.884.884,0,0,1,.884.884v3.144a.884.884,0,0,1-.884.884h2.222a.884.884,0,0,0,.884-.884V160.7A.884.884,0,0,0,423.633,159.814Z" transform="translate(-341.622 -145.939)" fill="#738b95"/>
      <path id="Trazado_917808" data-name="Trazado 917808" d="M129.428,222.419H124.9a1.066,1.066,0,0,1-1.066-1.066V216.4h6.663v4.958A1.066,1.066,0,0,1,129.428,222.419Z" transform="translate(-69.877 -197.608)" fill="#f4fbff"/>
      <path id="Trazado_917809" data-name="Trazado 917809" d="M123.831,216.4h6.663v1.839h-6.663Z" transform="translate(-69.877 -197.608)" fill="#dfeaef"/>
      <path id="Trazado_917810" data-name="Trazado 917810" d="M131.347,27.6a3.678,3.678,0,0,1,2.068-1.961,3.417,3.417,0,0,0,2.336-2.366l.01-.04A1.491,1.491,0,0,1,137.2,22.1h.094a1.571,1.571,0,0,1,1.562,1.326,3.564,3.564,0,0,1-.107,1.443,3.4,3.4,0,0,1-1.018,1.614,6.291,6.291,0,0,0-1.13,1.722,2.884,2.884,0,0,0-.169,2.159c.087.3.264.526.362.812.416,1.206-.2,2.057-.9,2.881H130V27.817Z" transform="translate(-75.512 -20.181)" fill="#66b49d"/>
      <path id="Trazado_917811" data-name="Trazado 917811" d="M93.693,20.724a5.772,5.772,0,0,1-.229-2.62,3.333,3.333,0,0,0-.365-2.312,2.193,2.193,0,0,0-.442-.537,1.951,1.951,0,0,1-.594-1.929,2.846,2.846,0,0,1,.11-.348,5.3,5.3,0,0,0,.344-2.545,5.874,5.874,0,0,1-.035-.985A1.91,1.91,0,0,1,94.237,7.5h.1a1.92,1.92,0,0,1,1.752,1.935q.009.136.03.271a2.323,2.323,0,0,0,.8,1.424,3.091,3.091,0,0,1,.81,1.23,4.345,4.345,0,0,1,.185,2.6l-.015.068a3.592,3.592,0,0,0,1,3.314,3.4,3.4,0,0,1,.849,2.378H93.693Z" transform="translate(-40.814 -6.849)" fill="#78d0b1"/>
      <path id="Trazado_917812" data-name="Trazado 917812" d="M317.024,222.419h-4.531a1.066,1.066,0,0,1-1.066-1.066V216.4h6.663v4.958A1.066,1.066,0,0,1,317.024,222.419Z" transform="translate(-241.186 -197.608)" fill="#f4fbff"/>
      <path id="Trazado_917813" data-name="Trazado 917813" d="M311.427,216.4h6.663v1.839h-6.663Z" transform="translate(-241.186 -197.608)" fill="#dfeaef"/>
      <path id="Trazado_917814" data-name="Trazado 917814" d="M318.942,27.6a3.678,3.678,0,0,1,2.068-1.961,3.417,3.417,0,0,0,2.336-2.366l.01-.04A1.491,1.491,0,0,1,324.8,22.1h.094a1.571,1.571,0,0,1,1.562,1.326,3.564,3.564,0,0,1-.107,1.443,3.4,3.4,0,0,1-1.018,1.614A6.29,6.29,0,0,0,324.2,28.2a2.884,2.884,0,0,0-.169,2.159c.087.3.264.526.362.812.416,1.206-.2,2.057-.9,2.881h-5.9V27.817Z" transform="translate(-246.82 -20.181)" fill="#66b49d"/>
      <path id="Trazado_917815" data-name="Trazado 917815" d="M281.289,20.724a5.771,5.771,0,0,1-.229-2.62,3.333,3.333,0,0,0-.365-2.312,2.192,2.192,0,0,0-.442-.537,1.951,1.951,0,0,1-.594-1.929,2.849,2.849,0,0,1,.11-.348,5.3,5.3,0,0,0,.344-2.545,5.872,5.872,0,0,1-.035-.985A1.91,1.91,0,0,1,281.833,7.5h.1a1.92,1.92,0,0,1,1.752,1.935q.009.136.03.271a2.323,2.323,0,0,0,.8,1.424,3.091,3.091,0,0,1,.81,1.23,4.345,4.345,0,0,1,.185,2.6l-.015.068a3.592,3.592,0,0,0,1,3.314,3.4,3.4,0,0,1,.849,2.378h-6.055Z" transform="translate(-212.124 -6.849)" fill="#78d0b1"/>
      <g id="Grupo_1120045" data-name="Grupo 1120045" transform="translate(47.311)">
        <path id="Trazado_917816" data-name="Trazado 917816" d="M82.012,13.224h-4.06a2.887,2.887,0,0,0,.238-2.442c-.1-.318-.259-.493-.359-.8a2.218,2.218,0,0,1,.136-1.67,5.578,5.578,0,0,1,.984-1.527,4.05,4.05,0,0,0,1.207-1.926,4.226,4.226,0,0,0,.122-1.706,2.231,2.231,0,0,0-2.206-1.882h-.094A2.142,2.142,0,0,0,75.9,2.894l-.009.033A2.781,2.781,0,0,1,74,4.836a3.244,3.244,0,0,0-.331.122,3.4,3.4,0,0,0-.858-1.176,1.67,1.67,0,0,1-.578-1.025c-.011-.072-.019-.144-.024-.217A2.551,2.551,0,0,0,69.807,0h-.1a2.555,2.555,0,0,0-2.4,2.568,6.563,6.563,0,0,0,.039,1.093,4.655,4.655,0,0,1-.3,2.231,3.526,3.526,0,0,0-.136.427,2.592,2.592,0,0,0,.8,2.581,1.56,1.56,0,0,1,.308.38,2.683,2.683,0,0,1,.282,1.856,5.625,5.625,0,0,0,.044,2.088H61.665a2.887,2.887,0,0,0,.238-2.442c-.1-.317-.259-.492-.359-.8a2.219,2.219,0,0,1,.135-1.67,5.581,5.581,0,0,1,.984-1.527,4.05,4.05,0,0,0,1.207-1.926,4.227,4.227,0,0,0,.122-1.706,2.231,2.231,0,0,0-2.206-1.882h-.094a2.142,2.142,0,0,0-2.074,1.626l-.009.033a2.781,2.781,0,0,1-1.9,1.909,3.243,3.243,0,0,0-.331.122,3.4,3.4,0,0,0-.858-1.176,1.67,1.67,0,0,1-.578-1.025c-.011-.072-.019-.144-.024-.217A2.55,2.55,0,0,0,53.52,0h-.1a2.555,2.555,0,0,0-2.4,2.567,6.552,6.552,0,0,0,.039,1.094,4.6,4.6,0,0,1-.195,1.919.651.651,0,1,0,1.242.393,5.829,5.829,0,0,0,.246-2.467,5.255,5.255,0,0,1-.031-.876,1.268,1.268,0,0,1,1.1-1.328h.1a1.293,1.293,0,0,1,1.1,1.328c.007.108.02.218.036.325a2.972,2.972,0,0,0,1.027,1.824,2.481,2.481,0,0,1,.626.976,3.694,3.694,0,0,1,.155,2.209c-.006.027-.012.053-.018.08a4.217,4.217,0,0,0,1.187,3.923,2.237,2.237,0,0,1,.574,1.256H56.184a3.657,3.657,0,0,1-.246-2.017.651.651,0,1,0-1.282-.226,4.853,4.853,0,0,0,.146,2.243H53.383a4.6,4.6,0,0,1-.093-1.85,4,4,0,0,0-.448-2.768,2.841,2.841,0,0,0-.572-.692l-.03-.028a.651.651,0,1,0-.88.96l.008.007c.017.016.035.033.052.047a1.558,1.558,0,0,1,.308.38,2.683,2.683,0,0,1,.282,1.856,5.623,5.623,0,0,0,.044,2.088H48.846a1.537,1.537,0,0,0-1.535,1.535V17.9a1.537,1.537,0,0,0,1.535,1.535H53.3v4.307a1.714,1.714,0,0,0,.631,1.329,3.9,3.9,0,0,0-.127,1.232,5.271,5.271,0,0,0-1.45.849,3.089,3.089,0,0,1-2.145.824.651.651,0,0,0-.651.651V43.8a.651.651,0,0,0,.651.651h23.6a.651.651,0,0,0,0-1.3H50.864V41.467H79.995v1.682H76.411a.651.651,0,0,0,0,1.3h4.235A.651.651,0,0,0,81.3,43.8V28.63a.651.651,0,0,0-.651-.651,3.088,3.088,0,0,1-2.144-.824,7.168,7.168,0,0,0-.88-.593,4.215,4.215,0,0,0-.4-1.8,1.705,1.705,0,0,0,.335-1.014V19.438h4.457A1.537,1.537,0,0,0,83.547,17.9V14.759a1.537,1.537,0,0,0-1.535-1.535ZM77.155,3.26l.012-.047a.841.841,0,0,1,.811-.642h.094a.921.921,0,0,1,.917.769A2.9,2.9,0,0,1,78.9,4.52a2.756,2.756,0,0,1-.828,1.3A6.557,6.557,0,0,0,76.8,7.738a3.514,3.514,0,0,0-.2,2.647,8.578,8.578,0,0,0,.366.821c.251.727.018,1.259-.59,2.017h-.555a3.585,3.585,0,0,0-.992-2.2,2.945,2.945,0,0,1-.8-2.762A5.072,5.072,0,0,0,74.075,6.2a1.948,1.948,0,0,1,.3-.122A4.091,4.091,0,0,0,77.155,3.26Zm-7.579,8.114a4,4,0,0,0-.448-2.768,2.853,2.853,0,0,0-.576-.695,1.3,1.3,0,0,1-.385-1.277,2.215,2.215,0,0,1,.085-.268,5.96,5.96,0,0,0,.384-2.859,5.262,5.262,0,0,1-.031-.876,1.268,1.268,0,0,1,1.1-1.328h.1a1.293,1.293,0,0,1,1.1,1.328c.007.108.02.218.036.325a2.971,2.971,0,0,0,1.027,1.824,2.484,2.484,0,0,1,.626.976,3.716,3.716,0,0,1,.137,2.289,4.216,4.216,0,0,0,1.187,3.923,2.238,2.238,0,0,1,.574,1.256H72.471a3.657,3.657,0,0,1-.246-2.017.651.651,0,1,0-1.282-.226,4.853,4.853,0,0,0,.146,2.243H69.67a4.6,4.6,0,0,1-.093-1.85Zm-11.042-.348a2.946,2.946,0,0,1-.813-2.706l.013-.056A5.072,5.072,0,0,0,57.788,6.2a1.956,1.956,0,0,1,.3-.122A4.093,4.093,0,0,0,60.87,3.256l.011-.044a.841.841,0,0,1,.811-.642h.094a.921.921,0,0,1,.917.769,2.9,2.9,0,0,1-.092,1.181,2.756,2.756,0,0,1-.828,1.3,6.562,6.562,0,0,0-1.275,1.916,3.514,3.514,0,0,0-.2,2.647,8.538,8.538,0,0,0,.366.821c.251.727.018,1.259-.59,2.017h-.555A3.584,3.584,0,0,0,58.534,11.025Zm-3.929,8.413h5.361v3.929a4.524,4.524,0,0,0-.8-.657.651.651,0,0,0-.7,1.1,3.435,3.435,0,0,1,.438.351h-.975c.044-.142.075-.224.077-.229a.651.651,0,0,0-1.208-.487,5.928,5.928,0,0,0-.223.716h-.763a3.492,3.492,0,0,1,.37-.42.651.651,0,0,0-.879-.961,4.986,4.986,0,0,0-.7.846V19.438Zm3.607,7.717c-.174-.131-.355-.267-.553-.4a6.773,6.773,0,0,1,.014-1.3h1.877a1.718,1.718,0,0,0,.267-.023,2.922,2.922,0,0,1,.092,1.952,3.894,3.894,0,0,0-.113.547A3.3,3.3,0,0,1,58.213,27.155Zm-3.034-1.693h1.183c-.02.227-.033.467-.033.718a4.667,4.667,0,0,0-1.044-.111c-.062,0-.121,0-.181,0A2.669,2.669,0,0,1,55.179,25.462Zm24.816,3.779V40.165H50.864V29.241A4.466,4.466,0,0,0,53.14,28.2a4.82,4.82,0,0,1,.906-.584,3.416,3.416,0,0,1-1.533,3.109.651.651,0,1,0,.7,1.1,4.668,4.668,0,0,0,2.118-4.449,2.91,2.91,0,0,1,1.131.212A6.9,6.9,0,0,0,57,29.262a.651.651,0,0,0,1.182-.545,3.917,3.917,0,0,0,1.664.54,5.139,5.139,0,0,0,1.424,2.5.651.651,0,0,0,.877-.963,3.868,3.868,0,0,1-.967-1.576,4.56,4.56,0,0,0,2.1-1.018,4.226,4.226,0,0,1,1.068-.649.651.651,0,1,0-.454-1.221,5.393,5.393,0,0,0-1.4.83,3.531,3.531,0,0,1-1.378.742c.011-.049.023-.1.037-.149a4.206,4.206,0,0,0-.229-2.989,1.706,1.706,0,0,0,.335-1.014V19.438H69.59v4.307a1.714,1.714,0,0,0,.631,1.329,3.836,3.836,0,0,0,.015,2.066,3.124,3.124,0,0,1,.123.836,3.108,3.108,0,0,1-2-.821,5.4,5.4,0,0,0-1.4-.83.651.651,0,0,0-.453,1.221,4.221,4.221,0,0,1,1.069.65,4.406,4.406,0,0,0,2.494,1.067A3.883,3.883,0,0,1,68.8,30.721a.651.651,0,1,0,.7,1.1,4.979,4.979,0,0,0,1.987-2.637,4.045,4.045,0,0,0,1.506-.668,6.826,6.826,0,0,0,.3.745.651.651,0,0,0,1.177-.558,5.479,5.479,0,0,1-.353-.979,2.79,2.79,0,0,1,1.461-.354,3.529,3.529,0,0,1,.615.051,4.6,4.6,0,0,0,1.369,4.331.651.651,0,0,0,.877-.963A3.376,3.376,0,0,1,77.4,27.96c.1.074.209.153.318.235a4.465,4.465,0,0,0,2.277,1.046Zm-8.34-1.466a4.436,4.436,0,0,0-.166-.993,2.568,2.568,0,0,1-.022-1.32h1.183a7.871,7.871,0,0,0,.026,1.672l-.028.021a4.455,4.455,0,0,1-.992.62Zm3.92-1.706a4.245,4.245,0,0,0-1.649.3,6.911,6.911,0,0,1,.036-.909h1.877a1.719,1.719,0,0,0,.267-.023,2.915,2.915,0,0,1,.186.68A4.96,4.96,0,0,0,75.574,26.069Zm.679-2.7a4.528,4.528,0,0,0-.8-.657.651.651,0,0,0-.7,1.1,3.44,3.44,0,0,1,.438.351h-.975c.044-.142.075-.224.077-.229a.651.651,0,0,0-1.208-.487,5.927,5.927,0,0,0-.223.716h-.763a3.5,3.5,0,0,1,.37-.42.651.651,0,0,0-.878-.961,4.984,4.984,0,0,0-.705.846V19.438h5.361v3.929ZM82.245,17.9a.233.233,0,0,1-.233.233H48.846a.233.233,0,0,1-.233-.233V14.759a.233.233,0,0,1,.233-.233H82.012a.233.233,0,0,1,.233.233Z" transform="translate(-47.311)"/>
        <path id="Trazado_917817" data-name="Trazado 917817" d="M125.8,180.6H119.6a.651.651,0,1,0,0,1.3H125.8a.651.651,0,1,0,0-1.3Z" transform="translate(-112.725 -164.924)"/>
        <path id="Trazado_917818" data-name="Trazado 917818" d="M313.4,180.6h-6.209a.651.651,0,1,0,0,1.3H313.4a.651.651,0,0,0,0-1.3Z" transform="translate(-284.034 -164.924)"/>
        <path id="Trazado_917819" data-name="Trazado 917819" d="M128.016,389.252a.651.651,0,0,0-1.135.638l.3.541a.651.651,0,1,0,1.135-.638Z" transform="translate(-119.897 -355.155)"/>
        <path id="Trazado_917820" data-name="Trazado 917820" d="M359.467,418.4a.651.651,0,0,0-1.135.638l.3.542a.651.651,0,1,0,1.135-.638Z" transform="translate(-331.254 -381.775)"/>
        <path id="Trazado_917821" data-name="Trazado 917821" d="M246.645,386.532l-.428.45a.651.651,0,0,0,.944.9l.428-.45a.651.651,0,0,0-.944-.9Z" transform="translate(-228.784 -352.789)"/>
        <path id="Trazado_917822" data-name="Trazado 917822" d="M149.34,432.714l-.428.45a.651.651,0,0,0,.944.9l.428-.45a.651.651,0,1,0-.944-.9Z" transform="translate(-139.928 -394.962)"/>
        <path id="Trazado_917823" data-name="Trazado 917823" d="M356.906,369.417l.428-.45a.651.651,0,1,0-.944-.9l-.428.45a.651.651,0,0,0,.944.9Z" transform="translate(-329.002 -335.929)"/>
      </g>
    </g>
  </g>
</svg>
