<svg xmlns="http://www.w3.org/2000/svg" width="71" height="71" viewBox="0 0 71 71">
  <g id="Grupo_1120107" data-name="Grupo 1120107" transform="translate(-1034.051 -9878)">
    <circle id="Elipse_11667" data-name="Elipse 11667" cx="35.5" cy="35.5" r="35.5" transform="translate(1034.051 9878)" fill="#6b9339"/>
    <g id="Grupo_1120106" data-name="Grupo 1120106" transform="translate(1044.711 9863.704)">
      <g id="Grupo_1120104" data-name="Grupo 1120104" transform="translate(0.718 28.822)">
        <path id="Trazado_917879" data-name="Trazado 917879" d="M54.124,334.355H8.457A.957.957,0,0,1,7.5,333.4V319.317H55.081V333.4A.957.957,0,0,1,54.124,334.355Z" transform="translate(-7.5 -292.155)" fill="#fed2a4"/>
        <path id="Trazado_917880" data-name="Trazado 917880" d="M52.161,319.316v11.095a.957.957,0,0,1-.957.957H7.5V333.4a.957.957,0,0,0,.957.957H54.124a.957.957,0,0,0,.957-.957V319.316Z" transform="translate(-7.5 -292.154)" fill="#ffbd86"/>
        <g id="Grupo_1120101" data-name="Grupo 1120101" transform="translate(0 2.114)">
          <path id="Trazado_917881" data-name="Trazado 917881" d="M308.361,83.191a1.436,1.436,0,0,0-1.016.421L302.562,88.4a.967.967,0,0,0-.283.684v6.4a.967.967,0,0,1-.283.684l-4.8,4.8a.967.967,0,0,0-.283.684V105.8h19.874V84.148a.957.957,0,0,0-.957-.957Z" transform="translate(-269.204 -80.749)" fill="#ea9b58"/>
          <path id="Trazado_917882" data-name="Trazado 917882" d="M475.963,83.191H474V105.8h2.92V84.148A.957.957,0,0,0,475.963,83.191Z" transform="translate(-429.339 -80.749)" fill="#d88a55"/>
          <path id="Trazado_917883" data-name="Trazado 917883" d="M26.928,75.968l-4.475-2.863a.967.967,0,0,1-.446-.815V69.884a.967.967,0,0,0-.283-.684L16.8,64.279a.967.967,0,0,1-.283-.684V59.121a1.436,1.436,0,0,0-1.436-1.436H8.457a.957.957,0,0,0-.957.957v24.09H27.374v-5.95A.967.967,0,0,0,26.928,75.968Z" transform="translate(-7.5 -57.685)" fill="#ea9b58"/>
          <g id="Grupo_1120100" data-name="Grupo 1120100" transform="translate(6.042)">
            <path id="Trazado_917884" data-name="Trazado 917884" d="M83.995,75.967,79.52,73.1a.967.967,0,0,1-.446-.815V69.883a.967.967,0,0,0-.283-.684l-4.922-4.922a.968.968,0,0,1-.283-.684V59.12a1.436,1.436,0,0,0-1.436-1.436h-1.54v6.9a.967.967,0,0,0,.283.684l4.922,4.922a.967.967,0,0,1,.283.684v2.406a.967.967,0,0,0,.446.815l4.475,2.863a.967.967,0,0,1,.446.815v4.963h2.976v-5.95A.967.967,0,0,0,83.995,75.967Z" transform="translate(-70.609 -57.684)" fill="#d88a55"/>
          </g>
        </g>
        <circle id="Elipse_11884" data-name="Elipse 11884" cx="3.426" cy="3.426" r="3.426" transform="translate(18.485)" fill="#fedf30"/>
        <path id="Trazado_917885" data-name="Trazado 917885" d="M211.36,35.873a3.425,3.425,0,0,1-2.692,5.545,3.453,3.453,0,0,1-.414-.026,3.426,3.426,0,1,0,3.106-5.519Z" transform="translate(-189.034 -35.847)" fill="#fed402"/>
        <path id="Trazado_917886" data-name="Trazado 917886" d="M200.866,324.665l-7.175-5.349h-7.833l4.051,4.051a2.716,2.716,0,0,1,0,3.842l-7.146,7.146h12.81l5.59-5.59a2.716,2.716,0,0,0-.3-4.1Z" transform="translate(-165.984 -292.154)" fill="#f6a96c"/>
        <path id="Trazado_917887" data-name="Trazado 917887" d="M185.749,445.206l-2.986,2.986h12.81l2.986-2.986Z" transform="translate(-165.984 -405.992)" fill="#ea9b58"/>
        <g id="Grupo_1120102" data-name="Grupo 1120102" transform="translate(2.297 22.471)">
          <path id="Trazado_917888" data-name="Trazado 917888" d="M37.865,270.321H35.184c-2.573,0-3.686,2.086-3.686,4.659H41.552C41.552,272.407,40.438,270.321,37.865,270.321Z" transform="translate(-31.498 -270.321)" fill="#f6a96c"/>
          <path id="Trazado_917889" data-name="Trazado 917889" d="M356.367,270.321h-2.681c-2.573,0-3.686,2.086-3.686,4.659h10.054C360.054,272.407,358.94,270.321,356.367,270.321Z" transform="translate(-319.508 -270.321)" fill="#f6a96c"/>
          <path id="Trazado_917890" data-name="Trazado 917890" d="M182.209,288.985H179.72c-1.586,0-1.859,1.286-1.859,2.872H184.1C183.827,290.271,183.8,288.985,182.209,288.985Z" transform="translate(-163.849 -287.198)" fill="#f6a96c"/>
        </g>
        <path id="Trazado_917891" data-name="Trazado 917891" d="M73.179,397H70.69c-1.417,0-1.786,1.026-1.849,2.375a.477.477,0,0,0,.478.5H74.5a.479.479,0,0,0,.473-.554C74.767,398,74.576,397,73.179,397Z" transform="translate(-62.968 -362.401)" fill="#ea9b58"/>
        <path id="Trazado_917892" data-name="Trazado 917892" d="M409.339,415H406.85c-1.417,0-1.786,1.026-1.849,2.376a.477.477,0,0,0,.478.5h5.185a.479.479,0,0,0,.473-.554C410.927,416,410.736,415,409.339,415Z" transform="translate(-366.945 -378.678)" fill="#ea9b58"/>
        <g id="Grupo_1120103" data-name="Grupo 1120103" transform="translate(16.31 24.258)">
          <path id="Trazado_917893" data-name="Trazado 917893" d="M182.209,288.985H179.72c-1.586,0-1.859,1.286-1.859,2.872H184.1C183.827,290.271,183.8,288.985,182.209,288.985Z" transform="translate(-177.861 -288.985)" fill="#f6a96c"/>
        </g>
      </g>
      <g id="Grupo_1120105" data-name="Grupo 1120105" transform="translate(0 28.104)">
        <path id="Trazado_917894" data-name="Trazado 917894" d="M144.989,357.273h-1.837a.718.718,0,1,0,0,1.436h1.837a.718.718,0,0,0,0-1.436Z" transform="translate(-128.797 -325.759)"/>
        <path id="Trazado_917895" data-name="Trazado 917895" d="M411.854,353.659h1.837a.718.718,0,1,0,0-1.436h-1.837a.718.718,0,0,0,0,1.436Z" transform="translate(-371.775 -321.193)"/>
        <path id="Trazado_917896" data-name="Trazado 917896" d="M66.4,389.5H63.907a2.275,2.275,0,0,0-2.034,1.007,4.022,4.022,0,0,0-.532,2.053,1.2,1.2,0,0,0,1.2,1.248h5.185a1.2,1.2,0,0,0,1.182-1.385C68.707,391.19,68.438,389.5,66.4,389.5Zm-3.6,2.872c.112-1.323.572-1.436,1.115-1.436H66.4c.62,0,.817.139,1.043,1.436Z" transform="translate(-55.467 -354.901)"/>
        <path id="Trazado_917897" data-name="Trazado 917897" d="M398.7,411.808h5.185a1.2,1.2,0,0,0,1.182-1.385c-.2-1.234-.465-2.923-2.507-2.923h-2.489a2.275,2.275,0,0,0-2.034,1.007,4.023,4.023,0,0,0-.532,2.053,1.2,1.2,0,0,0,1.2,1.248Zm1.37-2.872h2.489c.62,0,.817.139,1.043,1.436h-4.647C399.065,409.049,399.525,408.936,400.068,408.936Z" transform="translate(-359.446 -371.178)"/>
        <path id="Trazado_917898" data-name="Trazado 917898" d="M47.342,52.627H39.876a2.141,2.141,0,0,0-1.523.631l-4.784,4.784a1.674,1.674,0,0,0-.494,1.192V60.7a.718.718,0,0,0,1.436,0V59.234a.25.25,0,0,1,.073-.176l4.784-4.784a.714.714,0,0,1,.508-.21h7.466a.24.24,0,0,1,.239.239v20.93H44.254c-.22-2.912-1.855-4.691-4.379-4.691H37.194c-2.524,0-4.158,1.779-4.378,4.691H29.143V71.806a.247.247,0,0,1,.073-.176l4.8-4.8a1.674,1.674,0,0,0,.494-1.192V64.049a.718.718,0,1,0-1.436,0v1.588a.247.247,0,0,1-.073.176l-4.8,4.8a1.675,1.675,0,0,0-.493,1.192v3.427H23.88c-.211-1.324-.519-2.9-2.5-2.9H21.31V70a1.678,1.678,0,0,0-.777-1.42l-4.475-2.863a.248.248,0,0,1-.115-.21V63.1a1.674,1.674,0,0,0-.494-1.192l-4.922-4.922a.25.25,0,0,1-.073-.176V52.339A2.157,2.157,0,0,0,8.3,50.185H6.414a.718.718,0,0,0,0,1.436H8.3a.719.719,0,0,1,.718.718v4.474A1.674,1.674,0,0,0,9.512,58l4.922,4.922a.25.25,0,0,1,.073.176v2.407a1.677,1.677,0,0,0,.777,1.419l4.475,2.863a.248.248,0,0,1,.115.21v2.328h-.987c-2.1,0-2.489,1.731-2.561,2.9H13.761c-.22-2.912-1.855-4.691-4.379-4.691H6.7c-2.524,0-4.158,1.779-4.378,4.691H1.436V51.86a.24.24,0,0,1,.239-.239H3.064a.718.718,0,0,0,0-1.436H1.675A1.677,1.677,0,0,0,0,51.86V90.032a1.677,1.677,0,0,0,1.675,1.675H47.342a1.677,1.677,0,0,0,1.675-1.675V54.3a1.677,1.677,0,0,0-1.675-1.675ZM37.194,71.978h2.681c2.225,0,2.8,1.9,2.934,3.223H34.261C34.393,73.878,34.97,71.978,37.194,71.978Zm-30.492,0H9.382c2.225,0,2.8,1.9,2.934,3.223H3.769c.132-1.323.709-3.223,2.933-3.223Zm12.185,1.787h2.489c.658,0,.825.184,1.043,1.436H17.773C17.884,73.883,18.329,73.765,18.887,73.765Zm.344,16.506,2.114-2.114a.718.718,0,1,0-1.015-1.015L17.2,90.271H1.675a.24.24,0,0,1-.239-.239V76.669H20.294l3.841,3.841a2,2,0,0,1,0,2.826L22.7,84.771a.718.718,0,0,0,1.015,1.015l1.435-1.435a3.435,3.435,0,0,0,0-4.857l-2.825-2.825h5.862l6.984,5.207a2,2,0,0,1,.219,3.015l-5.38,5.38H19.231Zm28.35-.239a.24.24,0,0,1-.239.239H32.04L36.4,85.906a3.435,3.435,0,0,0-.376-5.182l-5.44-4.056H47.581Z" transform="translate(0 -48.071)"/>
        <path id="Trazado_917899" data-name="Trazado 917899" d="M197.228,36.393a4.144,4.144,0,1,0-4.144-4.144A4.149,4.149,0,0,0,197.228,36.393Zm0-6.853a2.708,2.708,0,1,1-2.708,2.708A2.711,2.711,0,0,1,197.228,29.54Z" transform="translate(-174.599 -28.104)"/>
      </g>
    </g>
  </g>
</svg>
