<svg xmlns="http://www.w3.org/2000/svg" width="71" height="71" viewBox="0 0 71 71">
  <g id="Grupo_1120148" data-name="Grupo 1120148" transform="translate(-615.051 -13434)">
    <circle id="Elipse_11672" data-name="Elipse 11672" cx="35.5" cy="35.5" r="35.5" transform="translate(615.051 13434)" fill="#6b9339"/>
    <g id="Grupo_1120147" data-name="Grupo 1120147" transform="translate(619.051 13438.002)">
      <g id="Grupo_1120145" data-name="Grupo 1120145" transform="translate(0 -0.002)">
        <g id="Grupo_1120144" data-name="Grupo 1120144">
          <ellipse id="Elipse_11890" data-name="Elipse 11890" cx="7.569" cy="7.568" rx="7.569" ry="7.568" transform="translate(30.492 25.824) rotate(-19.141)" fill="#82b339"/>
          <g id="Grupo_1120133" data-name="Grupo 1120133" transform="translate(31.829 11.854)">
            <ellipse id="Elipse_11891" data-name="Elipse 11891" cx="7.454" cy="7.452" rx="7.454" ry="7.452" transform="translate(0 1.481)" fill="#fc435f"/>
            <path id="Trazado_918001" data-name="Trazado 918001" d="M311.947,115.864a7.457,7.457,0,0,0-9.835-6.111,7.452,7.452,0,0,1,0,14.085,7.454,7.454,0,0,0,9.834-7.974Z" transform="translate(-297.098 -107.862)" fill="#eb2f4b"/>
            <path id="Trazado_918002" data-name="Trazado 918002" d="M279.593,100.573l-1.986-3.243,3.444,1.3,3.863-1.424-1.806,2.927,1.825,2.224-3.438-.2-2.993,2.284Z" transform="translate(-275.581 -97.203)" fill="#aad667"/>
          </g>
          <g id="Grupo_1120135" data-name="Grupo 1120135" transform="translate(0.915 6.916)">
            <path id="Trazado_918003" data-name="Trazado 918003" d="M29.638,56.838a6.639,6.639,0,0,0-5.012,4.389A6.66,6.66,0,1,0,25.9,67.736a6.65,6.65,0,1,0,3.736-10.9Z" transform="translate(-12.295 -56.713)" fill="#82b339"/>
            <path id="Trazado_918004" data-name="Trazado 918004" d="M27.507,85.65a6.816,6.816,0,0,0-1.141.331A6.8,6.8,0,0,0,14.12,88.371a6.812,6.812,0,1,0,1.438,13.507l1.359,6.932a7.424,7.424,0,1,0,14.571-2.856l-1.358-6.93A6.814,6.814,0,0,0,27.507,85.65Z" transform="translate(-7.502 -79.816)" fill="#aad667"/>
            <g id="Grupo_1120134" data-name="Grupo 1120134" transform="translate(10.817 3.209)">
              <path id="Trazado_918005" data-name="Trazado 918005" d="M138.209,109.012a6.793,6.793,0,0,0-9.117-5.051,6.816,6.816,0,0,1-1.124,13.046l1.358,6.93a7.435,7.435,0,0,1-4.841,8.453,7.42,7.42,0,0,0,9.719-8.453l-1.358-6.93A6.808,6.808,0,0,0,138.209,109.012Z" transform="translate(-121.037 -101.007)" fill="#99c94f"/>
              <path id="Trazado_918006" data-name="Trazado 918006" d="M99.372,85.98a6.771,6.771,0,0,1,4.872-.009A6.795,6.795,0,0,0,96.2,83.478,6.84,6.84,0,0,1,99.372,85.98Z" transform="translate(-96.203 -83.023)" fill="#99c94f"/>
            </g>
          </g>
          <g id="Grupo_1120138" data-name="Grupo 1120138" transform="translate(43.397 0.916)">
            <path id="Trazado_918007" data-name="Trazado 918007" d="M398.626,12.8a2.367,2.367,0,0,0-.909-.161c.014-.034.03-.068.043-.1a3.689,3.689,0,0,0-5.888-4.094,2.373,2.373,0,0,0-3.9,2.7,3.688,3.688,0,0,0,2.007,7.06l-2.318,11.418,3.209.622L393.03,19.66A2.374,2.374,0,0,0,397,17.26a2.373,2.373,0,0,0,1.622-4.459Z" transform="translate(-382.013 -7.511)" fill="#aad667"/>
            <g id="Grupo_1120136" data-name="Grupo 1120136" transform="translate(5.653 0)">
              <path id="Trazado_918008" data-name="Trazado 918008" d="M421.6,7.994a3.681,3.681,0,0,1,1.036.614,2.367,2.367,0,0,0-1.891-.831A3.69,3.69,0,0,1,421.6,7.994Z" transform="translate(-418.482 -7.743)" fill="#aad667" stroke="#99c94f" stroke-miterlimit="10" stroke-width="1"/>
              <path id="Trazado_918009" data-name="Trazado 918009" d="M413.173,12.8a2.365,2.365,0,0,0-.909-.161c.015-.034.03-.068.043-.1a3.688,3.688,0,0,0-5.876-4.1,3.689,3.689,0,0,1,1,4.1c-.014.035-.029.069-.043.1a2.373,2.373,0,1,1-.713,4.62,2.371,2.371,0,0,1-2.585,3.122l-1.875,9.233,3.209.622,2.155-10.578a2.374,2.374,0,0,0,3.974-2.4,2.373,2.373,0,0,0,1.622-4.46Z" transform="translate(-402.213 -7.512)" fill="#99c94f"/>
            </g>
            <g id="Grupo_1120137" data-name="Grupo 1120137" transform="translate(0 19.17)">
              <path id="Trazado_918010" data-name="Trazado 918010" d="M368.449,170.473c.216,5.583-6.616,20.7-9.708,20.1s-3.871-17.2-1.488-22.274a5.822,5.822,0,0,1,11.2,2.17Z" transform="translate(-355.857 -164.708)" fill="#fd9e35"/>
              <path id="Trazado_918011" data-name="Trazado 918011" d="M376.8,170.473a5.731,5.731,0,0,0-4.713-5.647,5.614,5.614,0,0,0-3.554.408,5.786,5.786,0,0,1,3.389,5.239c.157,4.057-3.407,13.148-6.554,17.586.452,1.439,1.029,2.383,1.724,2.518C370.184,191.176,377.017,176.057,376.8,170.473Z" transform="translate(-364.208 -164.708)" fill="#fd8500"/>
              <path id="Trazado_918012" data-name="Trazado 918012" d="M356.388,278.4l3.642.706" transform="translate(-356.323 -264.539)" fill="#fd9e35"/>
            </g>
          </g>
          <g id="Grupo_1120139" data-name="Grupo 1120139" transform="translate(19.513 20.004)">
            <ellipse id="Elipse_11892" data-name="Elipse 11892" cx="7.569" cy="7.568" rx="7.569" ry="7.568" transform="translate(0 5.821) rotate(-19.141)" fill="#fc435f"/>
            <path id="Trazado_918013" data-name="Trazado 918013" d="M222.692,188.05a7.534,7.534,0,0,0-3.78.284,7.568,7.568,0,0,1,0,14.329,7.568,7.568,0,1,0,3.784-14.612Z" transform="translate(-211.725 -185.015)" fill="#eb2f4b"/>
            <path id="Trazado_918014" data-name="Trazado 918014" d="M213.04,167.842l-.954-3.807,2.991,2.34,4.243-.211-2.682,2.326,1.111,2.754-3.323-1.258-3.652,1.326Z" transform="translate(-204.583 -164.035)" fill="#aad667"/>
          </g>
          <g id="Grupo_1120143" data-name="Grupo 1120143">
            <path id="Trazado_918015" data-name="Trazado 918015" d="M7.5,233.146h10.06v33.093H7.5Z" transform="translate(-6.586 -204.714)" fill="#8f5a46"/>
            <path id="Trazado_918016" data-name="Trazado 918016" d="M422.005,233.146h10.06v33.093h-10.06Z" transform="translate(-370.541 -204.714)" fill="#8f5a46"/>
            <g id="Grupo_1120140" data-name="Grupo 1120140" transform="translate(0.915 33.235)">
              <path id="Trazado_918017" data-name="Trazado 918017" d="M7.5,272.528h60.61v8.106H7.5Z" transform="translate(-7.501 -272.528)" fill="#e8b266"/>
              <path id="Trazado_918018" data-name="Trazado 918018" d="M464.5,272.528h4.878v8.106H464.5Z" transform="translate(-408.769 -272.528)" fill="#d9a359"/>
              <path id="Trazado_918019" data-name="Trazado 918019" d="M7.5,339.032h60.61v8.107H7.5Z" transform="translate(-7.501 -330.922)" fill="#ffdeb0"/>
              <path id="Trazado_918020" data-name="Trazado 918020" d="M464.5,339.032h4.878v8.107H464.5Z" transform="translate(-408.769 -330.922)" fill="#f7c783"/>
              <path id="Trazado_918021" data-name="Trazado 918021" d="M7.5,405.505h60.61v8.106H7.5Z" transform="translate(-7.501 -389.288)" fill="#e8b266"/>
              <path id="Trazado_918022" data-name="Trazado 918022" d="M464.5,405.505h4.878v8.106H464.5Z" transform="translate(-408.769 -389.288)" fill="#d9a359"/>
            </g>
            <g id="Grupo_1120142" data-name="Grupo 1120142">
              <g id="Grupo_1120141" data-name="Grupo 1120141">
                <path id="Trazado_918023" data-name="Trazado 918023" fill="#8f5a46"/>
              </g>
            </g>
          </g>
        </g>
      </g>
      <g id="Grupo_1120146" data-name="Grupo 1120146" transform="translate(0 -0.002)">
        <path id="Trazado_918024" data-name="Trazado 918024" d="M61.526,27.516H56.814a10.674,10.674,0,0,0,.091-1.7,6.746,6.746,0,0,0-3.024-5.546l1.168-5.73a3.287,3.287,0,0,0,4.376-2.843,3.289,3.289,0,0,0,.918-6.344l-.086-.032A4.605,4.605,0,0,0,53.332.66a3.29,3.29,0,0,0-5.126,3.455,4.6,4.6,0,0,0,2.038,8.432l-1.365,6.725a6.12,6.12,0,0,0-1.3.394,8.417,8.417,0,0,0-5.9-6.9l.268-.434a.921.921,0,0,0-1.095-1.338L37.3,12.3l-3.125-1.177a.921.921,0,0,0-1.1,1.334l1.061,1.733a8.431,8.431,0,0,0-3.2,7.191l-.635.031-.517-.4A7.734,7.734,0,0,0,27.1,13.442a7.639,7.639,0,0,0-.139-1.322A7.556,7.556,0,0,0,13.327,9.257a7.216,7.216,0,0,0-1,.177A7.559,7.559,0,0,0,.81,17.246,7.658,7.658,0,0,0,1.1,18.311a7.728,7.728,0,0,0,.946,9.205H.916A.915.915,0,0,0,0,28.431V61.524a.915.915,0,0,0,.915.915h10.06a.915.915,0,0,0,.915-.915V58.471H50.55v3.053a.915.915,0,0,0,.915.915h10.06a.915.915,0,0,0,.915-.915V28.431a.915.915,0,0,0-.915-.915Zm-.915,29.126H1.83V50.365H60.611ZM1.83,34.148H60.611v6.277H1.83Zm20.759-4.842a6.644,6.644,0,0,1,3.924-4.936l-1.574,2.409a.932.932,0,0,0,1.078,1.36l3.333-1.21,3.006,1.138q1.369.168,1.172-1.2l-.8-1.99a6.693,6.693,0,0,1,2.807,7.439H22.74A6.647,6.647,0,0,1,22.589,29.306ZM42.5,32.319H37.42a8.811,8.811,0,0,0,.07-3.361,8.49,8.49,0,0,0,5.263-.558c-.138,1.2-.225,2.515-.256,3.919ZM60.611,48.536H1.83V42.258H60.611Zm0-16.217H52.38V29.345h8.231Zm-5.534-6.434a9.34,9.34,0,0,1-.107,1.631h-3.5a.915.915,0,0,0-.915.915v3.888H44.327c.028-1.2.1-2.33.205-3.367l2.735.53a.916.916,0,0,0,.348-1.8l-2.84-.551a12.435,12.435,0,0,1,.847-3.068A4.923,4.923,0,0,1,51.1,21.1,4.83,4.83,0,0,1,55.077,25.885ZM49.716,10.554A2.8,2.8,0,0,1,49.7,5.391a.915.915,0,0,0,.447-1.32,1.464,1.464,0,0,1,2.394-1.657.915.915,0,0,0,1.324.117,2.791,2.791,0,0,1,4.428,3.081.922.922,0,0,0,.83,1.346,1.532,1.532,0,0,1,1.39,1.987,1.455,1.455,0,0,1-1.828.853q-1.306-.14-1.158,1.165a1.473,1.473,0,0,1-2.443,1.475q-1.051-.73-1.563.443l-1.346,6.6a7.411,7.411,0,0,0-1.414-.282l1.506-7.421A.915.915,0,0,0,51.208,10.7a2.772,2.772,0,0,1-1.492-.146ZM36.977,14.132a.914.914,0,0,0,.639,0l1.377-.508-.415.673a.915.915,0,0,0,.071,1.06l.5.609L37.8,15.89a.913.913,0,0,0-.608.186l-.814.621.346-1.226a.915.915,0,0,0-.1-.726l-.594-.971ZM34.614,16.2l-.743,2.635a.921.921,0,0,0,1.435.975l2.723-2.078,3.1.181a.924.924,0,0,0,.76-1.493L40.478,14.7l.19-.308a6.533,6.533,0,0,1,5.154,6.39,7.787,7.787,0,0,0-1.855,2.505,12.7,12.7,0,0,0-.854,2.793,6.538,6.538,0,0,1-6.3.753,8.43,8.43,0,0,0-2.788-3.293l.832-.721a.921.921,0,0,0-.645-1.6l-1.442.072A6.478,6.478,0,0,1,34.614,16.2Zm-2.963,6.973-.68.59a.915.915,0,0,0-.249,1.033l.33.817-1.37-.519a.914.914,0,0,0-.636,0l-1.075.39.767-1.174a.915.915,0,0,0,.121-.723l-.306-1.223.893.7a.924.924,0,0,0,.609.193ZM18.434,7.937a5.736,5.736,0,0,1,6.685,4.332,7.649,7.649,0,0,0-4.374-.418c-.211.041-.422.092-.632.153a7.721,7.721,0,0,0-4.46-2.65,5.73,5.73,0,0,1,2.781-1.417ZM3.471,12.584a5.723,5.723,0,0,1,6.641-2.217A7.722,7.722,0,0,0,6.82,14.6q-.3.034-.588.091a7.658,7.658,0,0,0-3.683,1.847,5.707,5.707,0,0,1,.923-3.959Zm1.4,14.855A5.894,5.894,0,0,1,7.559,16.384a.915.915,0,0,0,.868-.718,5.881,5.881,0,0,1,10.6-2.069.915.915,0,0,0,1.082.335,5.954,5.954,0,0,1,.988-.287A5.893,5.893,0,0,1,28.008,18.3a5.919,5.919,0,0,1,.1,1.395l-.532-.416a.921.921,0,0,0-1.451.943l.537,2.144a8.488,8.488,0,0,0-5.813,9.95h-2.7l-.526-2.682a5.487,5.487,0,0,0,2.643-2.1.915.915,0,0,0-1.519-1.019,3.68,3.68,0,0,1-1.483,1.282l-.764-3.9A7.9,7.9,0,0,0,20.7,20.758a.915.915,0,0,0-1.519-1.019A6.092,6.092,0,0,1,16.151,22.1l-.87-4.441a.915.915,0,0,0-1.8.352l.87,4.44a6.093,6.093,0,0,1-3.695-1.044.915.915,0,0,0-1.022,1.517,7.911,7.911,0,0,0,4.435,1.363c.212,0,.424-.011.637-.028l.764,3.9a3.679,3.679,0,0,1-1.857-.628A.915.915,0,0,0,12.6,29.047a5.521,5.521,0,0,0,3.238.942l.457,2.33h-4.4V28.431a.914.914,0,0,0-.915-.915H4.983a.948.948,0,0,0-.114-.076Zm5.193,1.906v2.974H1.83V29.345Zm0,31.264H1.83V58.471h8.231Zm42.318,0V58.471h8.231V60.61Z" transform="translate(-0.001 0.002)" fill="#060606"/>
        <path id="Trazado_918025" data-name="Trazado 918025" d="M42.388,298.265a.915.915,0,0,0,0,1.829A.915.915,0,0,0,42.388,298.265Z" transform="translate(-36.443 -261.891)" fill="#060606"/>
        <path id="Trazado_918026" data-name="Trazado 918026" d="M42.388,366.6a.915.915,0,0,0,0-1.829A.915.915,0,0,0,42.388,366.6Z" transform="translate(-36.443 -320.284)" fill="#060606"/>
        <path id="Trazado_918027" data-name="Trazado 918027" d="M42.388,433.159a.915.915,0,0,0,0-1.829A.915.915,0,0,0,42.388,433.159Z" transform="translate(-36.443 -378.728)" fill="#060606"/>
        <path id="Trazado_918028" data-name="Trazado 918028" d="M455.119,298.265a.915.915,0,0,0,0,1.829A.915.915,0,0,0,455.119,298.265Z" transform="translate(-398.841 -261.891)" fill="#060606"/>
        <path id="Trazado_918029" data-name="Trazado 918029" d="M455.119,366.6a.915.915,0,0,0,0-1.829A.915.915,0,0,0,455.119,366.6Z" transform="translate(-398.841 -320.284)" fill="#060606"/>
        <path id="Trazado_918030" data-name="Trazado 918030" d="M455.119,433.159a.915.915,0,0,0,0-1.829A.915.915,0,0,0,455.119,433.159Z" transform="translate(-398.841 -378.728)" fill="#060606"/>
      </g>
    </g>
  </g>
</svg>
