<svg xmlns="http://www.w3.org/2000/svg" width="400.475" height="231.898" viewBox="0 0 400.475 231.898">
  <g id="Grupo_1120191" data-name="Grupo 1120191" transform="translate(-180.051 -5776.806)">
    <rect id="person-is-holding-tablet-with-word-weather-it" width="400.475" height="219.531" rx="8" transform="translate(180.051 5789)" fill="#f8f5ef"/>
    <g id="Grupo_1120179" data-name="Grupo 1120179" transform="translate(180.051 5521.65)">
      <rect id="Rectángulo_405720" data-name="Rectángulo 405720" width="400.475" height="41.249" transform="translate(0 445.805)" fill="#9bc44d"/>
      <g id="Grupo_1120178" data-name="Grupo 1120178" transform="translate(0 434.96)">
        <path id="Trazado_918208" data-name="Trazado 918208" d="M450.448,434.96v52.094H251.06a19.908,19.908,0,0,1,6.824-7.593,20.273,20.273,0,0,1,19.111-1.346,14.461,14.461,0,0,1,27.441-4.886c-.857-1.794,5.054-7.056,6.344-7.969a12.8,12.8,0,0,1,10.637-2.01c5.206,1.241,13.656,5.334,13.536,11.686.08-4.093,3.909-7.161,7.777-8.5a22.525,22.525,0,0,1,26.039,9.748c1.065-6.319,7.929-10.669,14.3-9.988s11.8,5.543,14.353,11.422a15.739,15.739,0,0,1,27.024-9.115,11.753,11.753,0,0,1,15.17-15.562,15.369,15.369,0,0,1,5.487-15.442A14.557,14.557,0,0,1,450.448,434.96Z" transform="translate(-49.974 -434.96)" fill="#6dab50"/>
        <path id="Trazado_918209" data-name="Trazado 918209" d="M0,434.96v52.094H199.388a19.908,19.908,0,0,0-6.824-7.593,20.273,20.273,0,0,0-19.111-1.346,14.461,14.461,0,0,0-27.441-4.886c.857-1.794-5.054-7.056-6.344-7.969a12.8,12.8,0,0,0-10.637-2.01c-5.206,1.241-13.656,5.334-13.536,11.686-.08-4.093-3.909-7.161-7.777-8.5a22.525,22.525,0,0,0-26.039,9.748c-1.065-6.319-7.929-10.669-14.3-9.988s-11.8,5.543-14.353,11.422a16.116,16.116,0,0,0-10.613-13.16A16.112,16.112,0,0,0,26,468.5a12.048,12.048,0,0,0-2.371-12.855,12.044,12.044,0,0,0-12.8-2.707A15.369,15.369,0,0,0,5.342,437.5,14.557,14.557,0,0,0,0,434.96Z" transform="translate(0 -434.96)" fill="#6dab50"/>
      </g>
    </g>
    <g id="Grupo_1120177" data-name="Grupo 1120177" transform="translate(245.131 5746.135)">
      <g id="Grupo_1120169" data-name="Grupo 1120169" transform="translate(24.92 48.125)">
        <line id="Línea_613" data-name="Línea 613" x2="29.147" y2="94.325" transform="translate(34.151 38.708)" fill="none" stroke="#691e0f" stroke-linecap="round" stroke-linejoin="round" stroke-width="1"/>
        <line id="Línea_614" data-name="Línea 614" y2="116.503" transform="translate(33.065 16.53)" fill="none" stroke="#691e0f" stroke-linecap="round" stroke-linejoin="round" stroke-width="1"/>
        <line id="Línea_615" data-name="Línea 615" x1="26.751" y2="94.325" transform="translate(5.138 38.708)" fill="none" stroke="#691e0f" stroke-linecap="round" stroke-linejoin="round" stroke-width="1"/>
        <g id="Grupo_1120165" data-name="Grupo 1120165" transform="translate(29.978 34.87)">
          <path id="Trazado_918143" data-name="Trazado 918143" d="M91.884,139.961a3.15,3.15,0,0,1-2.737,3.16,2.64,2.64,0,0,1-.35.02,3.185,3.185,0,0,1,0-6.366h.015A3.14,3.14,0,0,1,91.884,139.961Z" transform="translate(-85.71 -136.775)" fill="#a46f60"/>
          <path id="Trazado_918144" data-name="Trazado 918144" d="M89.147,143.121a2.64,2.64,0,0,1-.35.02,3.185,3.185,0,0,1,0-6.366h.015a4.237,4.237,0,0,0-.459.621A4.7,4.7,0,0,0,88,141.238,5.039,5.039,0,0,0,89.147,143.121Z" transform="translate(-85.71 -136.775)" fill="#060006" opacity="0.5" style="mix-blend-mode: soft-light;isolation: isolate"/>
        </g>
        <g id="Grupo_1120168" data-name="Grupo 1120168">
          <g id="Grupo_1120166" data-name="Grupo 1120166" transform="translate(28.089)">
            <path id="Trazado_918145" data-name="Trazado 918145" d="M162.488,66.157c-.01-.031-.025-.061-.035-.092-8.457,7-19.76,9.338-30.614,9.048-.3,0-.592-.015-.888-.025-10.09-.4-20.13-2.646-29.973-4.824a37.184,37.184,0,0,0-8.536-1.231,11.854,11.854,0,0,0-7.979,2.88,8.606,8.606,0,0,0-2.535,5A5.628,5.628,0,0,0,82.61,80.5c1.208,2.02,4.66,3.232,5.858.549a3.03,3.03,0,0,0-.611-3.236,5.632,5.632,0,0,1,2.836-1.776c2.55-.743,5.281-.193,7.846.143,13.975,1.817,28.212,5.079,42.291,2.386a52.115,52.115,0,0,0,22.423-10.295C163,67.566,162.745,66.864,162.488,66.157Zm-76.663,14.8a1.064,1.064,0,1,1,1.031-1.063A1.047,1.047,0,0,1,85.826,80.955Z" transform="translate(-81.881 -66.065)" fill="#4a82c7"/>
            <path id="Trazado_918146" data-name="Trazado 918146" d="M131.89,78.161a100.452,100.452,0,0,1-27.764.158,89.873,89.873,0,0,0-11.288-1.236,18.917,18.917,0,0,0-10.844,2.865s-.01,0-.015.01a8.606,8.606,0,0,1,2.535-5,11.854,11.854,0,0,1,7.979-2.88,37.184,37.184,0,0,1,8.536,1.231c9.843,2.178,19.883,4.427,29.973,4.824C131.3,78.145,131.594,78.156,131.89,78.161Z" transform="translate(-81.931 -69.112)" fill="#060006" opacity="0.5" style="mix-blend-mode: soft-light;isolation: isolate"/>
          </g>
          <g id="Grupo_1120167" data-name="Grupo 1120167" transform="translate(0 130.603)">
            <path id="Trazado_918147" data-name="Trazado 918147" d="M95.162,330.908l-.6,1.023a7.643,7.643,0,0,1-6.588,3.837H31.784a7.674,7.674,0,0,1-6.855-4.326l-.01-.03,30.022-.214Z" transform="translate(-24.92 -330.908)" fill="#df8e2f"/>
            <path id="Trazado_918148" data-name="Trazado 918148" d="M61.984,336.066h-30.2a7.674,7.674,0,0,1-6.855-4.326l-.01-.03,30.022-.214A58.917,58.917,0,0,0,61.984,336.066Z" transform="translate(-24.92 -331.206)" fill="#060006" opacity="0.5" style="mix-blend-mode: soft-light;isolation: isolate"/>
          </g>
        </g>
      </g>
      <g id="Grupo_1120173" data-name="Grupo 1120173" transform="translate(135.215 48.125)">
        <g id="Grupo_1120170" data-name="Grupo 1120170">
          <path id="Trazado_918149" data-name="Trazado 918149" d="M248.58,68.274A52.115,52.115,0,0,0,271,78.568c14.079,2.693,28.316-.57,42.291-2.386,2.564-.336,5.3-.886,7.846-.143a5.632,5.632,0,0,1,2.835,1.776,3.031,3.031,0,0,0-.611,3.236c1.2,2.682,4.65,1.471,5.858-.549a5.627,5.627,0,0,0,.681-3.593,8.606,8.606,0,0,0-2.535-5,11.854,11.854,0,0,0-7.979-2.88,37.184,37.184,0,0,0-8.536,1.231c-9.843,2.178-19.883,4.427-29.973,4.824-.3.01-.592.02-.888.025-10.854.29-22.157-2.046-30.614-9.048-.01.031-.025.061-.035.092C249.088,66.864,248.836,67.566,248.58,68.274Zm76.4,11.618a1.031,1.031,0,1,1,1.031,1.063A1.047,1.047,0,0,1,324.977,79.892Z" transform="translate(-248.58 -66.065)" fill="#4a82c7"/>
          <path id="Trazado_918150" data-name="Trazado 918150" d="M312.28,78.161a100.452,100.452,0,0,0,27.764.158,89.873,89.873,0,0,1,11.288-1.236,18.917,18.917,0,0,1,10.844,2.865s.01,0,.015.01a8.606,8.606,0,0,0-2.535-5,11.854,11.854,0,0,0-7.979-2.88,37.184,37.184,0,0,0-8.536,1.231c-9.843,2.178-19.883,4.427-29.973,4.824C312.872,78.145,312.576,78.156,312.28,78.161Z" transform="translate(-280.867 -69.112)" fill="#060006" opacity="0.5" style="mix-blend-mode: soft-light;isolation: isolate"/>
        </g>
        <line id="Línea_616" data-name="Línea 616" y2="116.503" transform="translate(76.397 16.53)" fill="none" stroke="#691e0f" stroke-linecap="round" stroke-linejoin="round" stroke-width="1"/>
        <line id="Línea_617" data-name="Línea 617" x1="29.147" y2="94.325" transform="translate(46.164 38.708)" fill="none" stroke="#691e0f" stroke-linecap="round" stroke-linejoin="round" stroke-width="1"/>
        <line id="Línea_618" data-name="Línea 618" x2="26.751" y2="94.325" transform="translate(77.573 38.708)" fill="none" stroke="#691e0f" stroke-linecap="round" stroke-linejoin="round" stroke-width="1"/>
        <g id="Grupo_1120171" data-name="Grupo 1120171" transform="translate(39.219 130.603)">
          <path id="Trazado_918151" data-name="Trazado 918151" d="M328.11,330.908l.6,1.023a7.643,7.643,0,0,0,6.588,3.837h56.188a7.674,7.674,0,0,0,6.855-4.326l.01-.03L368.33,331.2Z" transform="translate(-328.11 -330.908)" fill="#df8e2f"/>
          <path id="Trazado_918152" data-name="Trazado 918152" d="M395.39,336.066h30.2a7.674,7.674,0,0,0,6.855-4.326l.01-.03-30.022-.214A58.917,58.917,0,0,1,395.39,336.066Z" transform="translate(-362.212 -331.206)" fill="#060006" opacity="0.5" style="mix-blend-mode: soft-light;isolation: isolate"/>
        </g>
        <g id="Grupo_1120172" data-name="Grupo 1120172" transform="translate(73.309 34.87)">
          <path id="Trazado_918153" data-name="Trazado 918153" d="M397.24,139.961a3.15,3.15,0,0,0,2.737,3.16,2.64,2.64,0,0,0,.35.02,3.185,3.185,0,0,0,0-6.366h-.015A3.14,3.14,0,0,0,397.24,139.961Z" transform="translate(-397.24 -136.775)" fill="#a46f60"/>
          <path id="Trazado_918154" data-name="Trazado 918154" d="M402.79,143.121a2.639,2.639,0,0,0,.35.02,3.185,3.185,0,0,0,0-6.366h-.015a4.238,4.238,0,0,1,.459.621,4.7,4.7,0,0,1,.355,3.842A5.04,5.04,0,0,1,402.79,143.121Z" transform="translate(-400.053 -136.775)" fill="#060006" opacity="0.5" style="mix-blend-mode: soft-light;isolation: isolate"/>
        </g>
      </g>
      <g id="Grupo_1120176" data-name="Grupo 1120176" transform="translate(80.146 30.67)">
        <g id="Grupo_1120174" data-name="Grupo 1120174" transform="translate(0 35.734)">
          <path id="Trazado_918155" data-name="Trazado 918155" d="M246.5,123.418c-2.022,11.333-5.084,22.737-5.942,34.34q-.118,1.5-.178,2.992h-1.657l-.025-2.422-.02,2.422h-1.662c-.015-.4-.035-.8-.054-1.206-.035-.56-.069-1.124-.113-1.689-.853-11.633-3.925-23.073-5.947-34.437-.449-2.524-1.282-6.091.256-8.331.824-1.206,2.16-1.908,2.983-3.1a8.861,8.861,0,0,0,1.253-4.26c.035-.422.1-4.59.044-4.59h6.524c-.059,0,0,4.168.039,4.59a8.915,8.915,0,0,0,1.253,4.26c.824,1.2,2.16,1.9,2.988,3.1C247.776,117.326,246.947,120.894,246.5,123.418Z" transform="translate(-184.23 -103.133)" fill="#4a82c7"/>
          <path id="Trazado_918156" data-name="Trazado 918156" d="M247.13,319.5a52.74,52.74,0,0,1-2.663,15.135,36.189,36.189,0,0,0-1.81,6.387c-.133.941-.222,1.888-.281,2.839-.025.351-.044.708-.064,1.059-.02.392-.035.788-.049,1.181-.02.565-.039,1.125-.059,1.689-.015.377-.316,5.857.015,5.934l-1.45-.341-1.445.341c.059-.936.089-1.873.089-2.814,0-1.522-.054-3.043-.138-4.55,0-.086-.01-.168-.015-.254-.02-.392-.044-.789-.069-1.185-.02-.357-.044-.718-.069-1.074a41.4,41.4,0,0,0-.523-4.437,55.513,55.513,0,0,0-1.968-6.168,52.226,52.226,0,0,1-1.376-5.628,50.006,50.006,0,0,1-.794-11.761c.33-6.275,2.9-11.776,4.059-17.862q.444-2.343.676-4.717c.015-.138,0-.779.025-1.237a.869.869,0,0,1,.1-.473l.35-.275.128-.1.927-.733v-.066l.039.036.044-.036v.066l1.055.834.35.275c0,.157.015.315.025.468.242,4.631,1.479,9.038,2.653,13.45C246.11,310.047,247.249,314.632,247.13,319.5Z" transform="translate(-186.322 -198.043)" fill="#4a82c7"/>
          <path id="Trazado_918157" data-name="Trazado 918157" d="M244.34,250.576c-.705.326-1.474.468-2.2.723-2.579.885-2.545,3.989-2.53,6.519,0,.535,0,1.044-.025,1.5h-2.337c-.025-.458-.025-.972-.025-1.506.01-2.529.049-5.629-2.535-6.514-.73-.254-1.5-.4-2.2-.723-2.949-1.374-3.57-5.353-1.6-7.857,1.687-2.143,4.778-2.871,5.8-5.588.893-2.377.5-5.15.222-7.74-.074-.708-.138-1.4-.168-2.072h3.353c-.03.672-.094,1.364-.168,2.072-.276,2.59-.671,5.363.222,7.74,1.016,2.717,4.113,3.445,5.794,5.588C247.905,245.222,247.284,249.2,244.34,250.576Z" transform="translate(-183.965 -166.078)" fill="#4a82c7"/>
          <path id="Trazado_918158" data-name="Trazado 918158" d="M245.8,420.591c-.049.626-.118,1.262-.2,1.908-6.2.275-42.267.051-48.88,0l.123.962-3.1-.6-3.1.6.123-.962c-2.8.021-10.908.072-19.79.1-12.047.046-25.515.051-29.09-.107-.079-.647-.148-1.282-.2-1.908-.271-3.537.192-6.687,3.694-8.717,7.619-4.412,17.664-3.089,26.082-3.725,5.8-.438,12.121-.728,17.156-4.107a25.583,25.583,0,0,0,1.706-1.944c.493-.611.858-1.13.71-1.13h5.415c-.153,0,.222.529.725,1.15a24.692,24.692,0,0,0,1.691,1.924c5.03,3.379,11.352,3.669,17.151,4.107,8.423.636,18.468-.687,26.087,3.725C245.607,413.9,246.071,417.049,245.8,420.591Z" transform="translate(-139.302 -254.095)" fill="#4a82c7"/>
          <path id="Trazado_918159" data-name="Trazado 918159" d="M245.8,442.668a1.936,1.936,0,0,1-.542,1.349,1.817,1.817,0,0,1-1.307.56H138.759a1.88,1.88,0,0,1-1.849-1.908,1.936,1.936,0,0,1,.542-1.349,1.81,1.81,0,0,1,1.307-.56H243.95A1.88,1.88,0,0,1,245.8,442.668Z" transform="translate(-136.91 -274.264)" fill="#a46f60"/>
          <path id="Trazado_918160" data-name="Trazado 918160" d="M247.2,399.9a1.1,1.1,0,0,1-.838,1.089,1,1,0,0,1-.247.031h-4.517c-.054,0-.113,0-.178,0a6.909,6.909,0,0,1-1.908-.056,1.017,1.017,0,0,1-.858-1.069c0-1.333,1.622-1.181,2.628-1.135.118,0,.227.005.325.005.429,0,.863,0,1.292,0,.542,0,1.09,0,1.637,0,.148,0,.3.005.449.005C245.825,398.79,247.2,398.612,247.2,399.9Z" transform="translate(-188.478 -252.961)" fill="#a46f60"/>
          <path id="Trazado_918161" data-name="Trazado 918161" d="M247.2,290.241a1.1,1.1,0,0,1-1.085,1.125h-4.517c-.069,0-.138,0-.217,0-.986.041-2.727.27-2.727-1.124,0-1.5,2.022-1.125,2.954-1.13h.128c.326,0,.656-.005.981-.005.468,0,.937.005,1.405.01.286,0,.577,0,.863,0C245.825,289.137,247.2,288.959,247.2,290.241Z" transform="translate(-188.478 -197.383)" fill="#a46f60"/>
          <path id="Trazado_918162" data-name="Trazado 918162" d="M247.039,225.1a2.329,2.329,0,0,1-2.52,2.072H234.045c-2.125,0-6.825.718-6.825-2.072,0-1.318,1.075-1.852,2.431-2.05a31.557,31.557,0,0,1,4.418-.036h.685q3.573-.015,7.141.026c.685,0,1.524-.031,2.323.02C245.7,223.166,247.039,223.563,247.039,225.1Z" transform="translate(-182.685 -163.864)" fill="#a46f60"/>
          <path id="Trazado_918163" data-name="Trazado 918163" d="M246.12,219.186a11.014,11.014,0,0,1-2.308.275l-4.492.229-.237.01c-.059,0-.123.01-.187.01-.128,0-.286.015-.5.025l-.276.015-.325.015c-.173.01-.37.02-.587.031l-1.765.092-5.134-.3c.232,0,.676-.87.907-1.308.054-.1.094-.173.118-.214A10.565,10.565,0,0,1,232.978,216a9,9,0,0,1,3.891-2.193,7.92,7.92,0,0,1,1.617-.264,7.194,7.194,0,0,1,1.839.112c.084.015.168.036.251.056a7.685,7.685,0,0,1,5.207,4.575A8.093,8.093,0,0,1,246.12,219.186Z" transform="translate(-184.251 -159.09)" fill="#4a82c7"/>
          <path id="Trazado_918164" data-name="Trazado 918164" d="M191.081,249.1a1.187,1.187,0,0,0-.38.911,1.412,1.412,0,0,0,.587,1.181.335.335,0,0,0,.069.046c1.317.713-.459,3.934-1.041,4.483-.1.1-.207.194-.316.28a16.338,16.338,0,0,1-4.877,2.9c-4.517,1.761-9.912,1.664-13.5,5a9.4,9.4,0,0,0-2.836,5.73c-.1.662-.163,1.333-.2,2.015-.03.6-.044,1.2-.049,1.8h-29.78a1.88,1.88,0,0,1-1.849-1.908,1.936,1.936,0,0,1,.542-1.349,1.81,1.81,0,0,1,1.307-.56h.542c-.271-3.537.192-6.687,3.694-8.717,7.619-4.412,17.664-3.089,26.082-3.725,5.8-.438,12.121-.728,17.156-4.107a25.582,25.582,0,0,0,1.706-1.944,1.017,1.017,0,0,1-.858-1.069c0-1.333,1.622-1.181,2.628-1.135a41.39,41.39,0,0,0-.523-4.437,55.5,55.5,0,0,0-1.968-6.168,52.22,52.22,0,0,1-1.376-5.628,50.005,50.005,0,0,1-.794-11.761c.33-6.275,2.9-11.776,4.058-17.862q.444-2.343.676-4.717c.015-.138,0-.779.025-1.237-.986.041-2.727.27-2.727-1.124,0-1.5,2.022-1.125,2.954-1.13h.128c.01-2.529.049-5.629-2.535-6.514-.73-.254-1.5-.4-2.2-.723-2.949-1.374-3.57-5.353-1.6-7.857,1.687-2.143,4.778-2.871,5.8-5.588.893-2.377.5-5.15.222-7.74H188.27c-2.125,0-6.825.718-6.825-2.072,0-1.318,1.075-1.852,2.431-2.05.054-.1.094-.173.118-.214a10.565,10.565,0,0,1,1.642-2.061,9,9,0,0,1,3.891-2.193c-.853-11.633-3.925-23.073-5.947-34.437-.449-2.524-1.282-6.091.256-8.331.824-1.206,2.16-1.908,2.983-3.1a8.861,8.861,0,0,0,1.253-4.26c.035-.422.1-4.59.044-4.59h3.028V157.59a6.034,6.034,0,0,0-1.5,1.954,6.288,6.288,0,0,0-.661,2.743,7.365,7.365,0,0,0,.163,1.588c.266-.015.508-.025.725-.036s.414-.02.587-.031l.325-.015.276-.015c.212-.01.37-.02.5-.025.064,0,.128-.005.187-.01l.237-.01a2.5,2.5,0,0,0-1.45.641c-.335.4-.345,1.048.616,2.072.182,10.809.182,10.814.182,10.814a13.436,13.436,0,0,1-2.244,1.11c-1.973,1.124-3.26,2.819-2.426,5.282.715,2.112,2.673,2.723,4.488,3.5v7.715s-.976.606-.755,1.41a.494.494,0,0,0,.035.1,1.7,1.7,0,0,0,.666.743.393.393,0,0,0,.054.041c-.03.351-.054.7-.079,1.053-.163,2.224-.3,4.448-.429,6.672q-.311,5.381-.493,10.768c-.143,4.158-.222,8.31-.2,12.468.025,3.924.123,7.858.454,11.766a38.24,38.24,0,0,0,1.568,8.992.978.978,0,0,0-.636.066A.827.827,0,0,0,191.081,249.1Z" transform="translate(-136.91 -103.133)" fill="#060006" opacity="0.5" style="mix-blend-mode: soft-light;isolation: isolate"/>
        </g>
        <g id="Grupo_1120175" data-name="Grupo 1120175" transform="translate(46.342)">
          <path id="Trazado_918165" data-name="Trazado 918165" d="M247.064,77.544a2.8,2.8,0,0,1-1.445,1.623,6.684,6.684,0,0,1-2.125.6c-1.09.148-2.185.239-3.284.321l.01.173c-.36-.036-.725-.061-1.085-.086-.355.026-.72.051-1.075.086h-.01l.01-.173c-1.1-.082-2.2-.173-3.284-.321a6.531,6.531,0,0,1-2.194-.641,2.759,2.759,0,0,1-1.381-1.582c-.607-1.863.661-3.089,2.071-3.929a6.245,6.245,0,0,0,3.289-4.9,48.128,48.128,0,0,0,.207-6.59c-.01-.387-.025-.768-.039-1.15l.971-.239,1.391-.346.044.758.044-.758,2.362.585c-.015.356-.03.713-.035,1.069a47.788,47.788,0,0,0,.2,6.672,6.245,6.245,0,0,0,3.289,4.9C246.408,74.455,247.676,75.682,247.064,77.544Z" transform="translate(-230.966 -45.734)" fill="#4a82c7"/>
          <path id="Trazado_918166" data-name="Trazado 918166" d="M247.1,100.008a2.043,2.043,0,0,1-1.963,2.117c-1.9,0-3.807,0-5.711,0h-2.476c-1.662,0-5.331.733-5.331-2.117a1.88,1.88,0,0,1,1.253-1.919c1.218-.483,3.043-.214,4.1-.219q3.055-.015,6.115.026a8.726,8.726,0,0,1,2.826.234A1.776,1.776,0,0,1,247.1,100.008Z" transform="translate(-231.258 -64.696)" fill="#a46f60"/>
          <path id="Trazado_918167" data-name="Trazado 918167" d="M247.205,39.02a8.156,8.156,0,0,1-.991,3.954,8.708,8.708,0,0,1-4.788,4,8.019,8.019,0,0,1-1.336.331,7,7,0,0,1-1.036.086,7.172,7.172,0,0,1-2.367-.336l-.271-.091a8.282,8.282,0,0,1-.789-.336,6.724,6.724,0,0,1-.592-.321,8.772,8.772,0,0,1-3.965-9.17,8.371,8.371,0,0,1,3.787-5.353,7.173,7.173,0,0,1,1.716-.758,8.237,8.237,0,0,1,9.276,3.323A8.741,8.741,0,0,1,247.205,39.02Z" transform="translate(-230.885 -30.67)" fill="#a46f60"/>
          <path id="Trazado_918168" data-name="Trazado 918168" d="M239.054,68.469h-2.476c-1.662,0-5.331.733-5.331-2.117a1.88,1.88,0,0,1,1.253-1.919,2.759,2.759,0,0,1-1.381-1.582c-.607-1.863.661-3.089,2.071-3.929a6.245,6.245,0,0,0,3.289-4.9,48.121,48.121,0,0,0,.207-6.59l-.271-.091a8.283,8.283,0,0,1-.789-.336,6.724,6.724,0,0,1-.592-.321,8.772,8.772,0,0,1-3.965-9.17,8.371,8.371,0,0,1,3.787-5.353,7.173,7.173,0,0,1,1.716-.758c-1.317,3.746-2.421,9.674,1.045,14.641a13.369,13.369,0,0,0,1.435,1.725l.178,9.11s-3.1,1.8-2.633,7.338H239a3.993,3.993,0,0,0-1.021,1.354C237.634,66.388,237.634,67.462,239.054,68.469Z" transform="translate(-230.885 -31.041)" fill="#060006" opacity="0.5" style="mix-blend-mode: soft-light;isolation: isolate"/>
        </g>
      </g>
      <path id="Trazado_918169" data-name="Trazado 918169" d="M211.547,163.69s-9.762,14.234,1.12,26.5C220.691,176.581,211.547,163.69,211.547,163.69Z" transform="translate(-92.554 -67.423)" fill="#9bc44d"/>
      <path id="Trazado_918170" data-name="Trazado 918170" d="M216.082,216.046s10.987,6.511,22.826-2.841C227.479,209.244,218.319,214,216.082,216.046Z" transform="translate(-96.893 -91.746)" fill="#9bc44d"/>
      <path id="Trazado_918171" data-name="Trazado 918171" d="M185.38,207.428s-.717,14.227,12.929,18.278C195.667,210.882,185.38,207.428,185.38,207.428Z" transform="translate(-81.328 -89.592)" fill="#6dab50"/>
      <path id="Trazado_918172" data-name="Trazado 918172" d="M175.559,268.133c-.052.616,15.064-.843,19.843-10.87C185.914,254.043,175.866,264.491,175.559,268.133Z" transform="translate(-76.353 -114.543)" fill="#9bc44d"/>
      <path id="Trazado_918173" data-name="Trazado 918173" d="M235.969,267.641s4.877-14.072-9.016-22.383C224.872,259.111,235.969,267.641,235.969,267.641Z" transform="translate(-102.272 -108.767)" fill="#9bc44d"/>
      <path id="Trazado_918174" data-name="Trazado 918174" d="M273.27,287.106s11.877-18.214.58-36.711C263.955,266.226,273.27,287.106,273.27,287.106Z" transform="translate(-123.866 -111.371)" fill="#9bc44d"/>
      <path id="Trazado_918175" data-name="Trazado 918175" d="M278.856,310.259c.607.079,17.328-1.434,16.638-16.509C284.985,292.607,278.856,310.259,278.856,310.259Z" transform="translate(-128.711 -133.319)" fill="#6dab50"/>
      <path id="Trazado_918176" data-name="Trazado 918176" d="M264.077,338.577c-.43-.334-6.675,10.748.353,24.135C269.977,353.385,268.418,341.953,264.077,338.577Z" transform="translate(-119.716 -156.063)" fill="#6dab50"/>
      <path id="Trazado_918177" data-name="Trazado 918177" d="M240.495,337.105s-3.21,18.962,12.678,25.587C254.858,347.787,247.636,339.507,240.495,337.105Z" transform="translate(-109.133 -155.321)" fill="#9bc44d"/>
      <path id="Trazado_918178" data-name="Trazado 918178" d="M231.623,291.342c5.071-3.492,9.824-7.889,11.887-12.12a28.312,28.312,0,0,0,.653-23.573c-2.686-5.973-7.525-10.6-12.5-14.719s-10.268-7.95-14.364-13-6.927-11.65-5.914-18.151a22.6,22.6,0,0,1,6.406-11.924,55.493,55.493,0,0,1,6.979-5.923c2.436-1.807,4.867-3.835,7.636-5.071" transform="translate(-94.407 -79.168)" fill="none" stroke="#691e0f" stroke-miterlimit="10" stroke-width="0.2"/>
      <path id="Trazado_918179" data-name="Trazado 918179" d="M185.374,398.53c.049-.168,12.814,5.644,25.429-7.631C193.8,383.165,185.374,398.53,185.374,398.53Z" transform="translate(-81.328 -181.484)" fill="#9bc44d"/>
      <path id="Trazado_918180" data-name="Trazado 918180" d="M173.481,380.809c-.267.4,12.2,10.027,29.656,3.964C195.936,370.9,174.864,378.71,173.481,380.809Z" transform="translate(-75.298 -175.401)" fill="#9bc44d"/>
      <path id="Trazado_918181" data-name="Trazado 918181" d="M218.424,386.163q2.053.577,4.1,1.182a19.68,19.68,0,0,1,3.383,1.235,20.76,20.76,0,0,1,4.434,3.379c.179.163.2.177.374.343" transform="translate(-98.08 -180.187)" fill="none" stroke="#691e0f" stroke-miterlimit="10" stroke-width="0.25"/>
      <path id="Trazado_918182" data-name="Trazado 918182" d="M264.457,176.858c1.458.439,16.234,6.84,29.674-6.652A36.181,36.181,0,0,0,264.457,176.858Z" transform="translate(-121.413 -70.289)" fill="#6dab50"/>
      <path id="Trazado_918183" data-name="Trazado 918183" d="M256.789,118.026s-13.378,15.375-5.655,31.628C264.938,141.5,256.789,118.026,256.789,118.026Z" transform="translate(-113.443 -44.277)" fill="#9bc44d"/>
      <g id="Trazado_918184" data-name="Trazado 918184" transform="translate(-81.724 -134.053)" fill="#9bc44d" stroke-linecap="round" stroke-linejoin="round">
        <path d="M 197.4609527587891 306.1201477050781 C 197.4606018066406 306.1201477050781 197.4604644775391 306.1201477050781 197.4601135253906 306.1201477050781 C 193.3170623779297 306.1200256347656 189.6833343505859 305.2167663574219 186.6598510742188 303.4354858398438 C 186.6578216552734 303.4332275390625 186.6528167724609 303.42138671875 186.6544494628906 303.4047546386719 C 186.6551055908203 303.3981018066406 186.6573638916016 303.3859558105469 186.6650695800781 303.3796691894531 C 190.0801849365234 300.5993347167969 193.7620239257812 298.5392456054688 197.6082916259766 297.2567138671875 C 200.8166809082031 296.1868896484375 204.1752014160156 295.6444396972656 207.5905914306641 295.6444396972656 C 211.853271484375 295.6444396972656 215.4590606689453 296.5001220703125 217.7333221435547 297.2179565429688 C 219.2127532958984 297.6849365234375 220.3363952636719 298.15576171875 221.002685546875 298.4599304199219 C 219.41748046875 299.6371459960938 216.3557739257812 301.3709411621094 212.5555725097656 302.8903503417969 C 208.8703002929688 304.36376953125 203.2599487304688 306.1201477050781 197.4609527587891 306.1201477050781 Z" stroke="none"/>
        <path d="M 207.5887908935547 296.1444396972656 C 204.2277984619141 296.1444396972656 200.9227294921875 296.6783142089844 197.7654113769531 297.7312927246094 C 194.1759033203125 298.9284057617188 190.7297821044922 300.8146057128906 187.5131378173828 303.3416137695312 C 190.3366546630859 304.8541259765625 193.6788177490234 305.6201477050781 197.4600830078125 305.6201477050781 C 203.1799621582031 305.6201477050781 208.7252502441406 303.8831176757812 212.3699493408203 302.4259338378906 C 215.499267578125 301.1748352050781 218.2620544433594 299.7025146484375 219.9820709228516 298.5626220703125 C 219.3504486083984 298.3023376464844 218.5314483642578 297.993408203125 217.5553894042969 297.6863098144531 C 215.3202514648438 296.9830322265625 211.7770690917969 296.1446533203125 207.5889129638672 296.1444396972656 L 207.5887908935547 296.1444396972656 M 207.5906066894531 295.1444396972656 C 215.9904022216797 295.1448669433594 221.9330139160156 298.3555297851562 221.9330139160156 298.3555297851562 C 218.3547973632812 301.4972534179688 199.1446685791016 311.3713073730469 186.4060516357422 303.8662719726562 C 186.0943908691406 303.682861328125 186.0677642822266 303.2212829589844 186.3493499755859 302.9919738769531 C 193.8364410400391 296.896484375 201.3839111328125 295.1441040039062 207.5906066894531 295.1444396972656 Z" stroke="none" fill="#691e0f"/>
      </g>
      <g id="Trazado_918185" data-name="Trazado 918185" transform="translate(-121.418 -173.54)" fill="#6dab50" stroke-linecap="round" stroke-linejoin="round">
        <path d="M 276.7183227539062 382.5988464355469 C 276.7174987792969 382.5988464355469 276.7168884277344 382.5988464355469 276.7160339355469 382.5988464355469 C 271.7618103027344 382.5985107421875 267.4040222167969 381.5074157714844 265.5635070800781 380.9718017578125 C 266.6175537109375 380.231201171875 268.6792907714844 378.8792724609375 271.4272155761719 377.5399475097656 C 273.8072814941406 376.3799438476562 276.2293090820312 375.4560546875 278.6259765625 374.7939758300781 C 281.6136169433594 373.9685974121094 284.5700073242188 373.5501403808594 287.4130249023438 373.5501403808594 C 289.6293334960938 373.5501403808594 291.8124694824219 373.8058776855469 293.9017944335938 374.3103332519531 C 294.0903930664062 374.3557739257812 294.1656188964844 374.513671875 294.1892395019531 374.5794677734375 C 294.2140197753906 374.6485900878906 294.258056640625 374.8274841308594 294.1315612792969 374.9955444335938 C 292.0563049316406 377.7526550292969 289.3171081542969 379.7896118164062 285.9900817871094 381.0498352050781 C 283.276611328125 382.0776672363281 280.1570129394531 382.5988464355469 276.7183227539062 382.5988464355469 Z" stroke="none"/>
        <path d="M 276.7183227539062 382.0988464355469 C 280.0966796875 382.0988464355469 283.1569213867188 381.5884094238281 285.8140869140625 380.5817260742188 C 289.0205078125 379.3669128417969 291.664794921875 377.4119262695312 293.675048828125 374.7702026367188 C 291.6573486328125 374.2923583984375 289.5512390136719 374.0501403808594 287.4130249023438 374.0501403808594 C 284.6199340820312 374.0501403808594 281.7135925292969 374.4610900878906 278.7746887207031 375.2716064453125 C 276.4104309082031 375.9236755371094 274.0200500488281 376.8341674804688 271.669921875 377.9779052734375 C 269.57666015625 378.9966125488281 267.88525390625 380.0232543945312 266.7413330078125 380.7760620117188 C 268.8909301757812 381.3323669433594 272.5991821289062 382.0985717773438 276.7175598144531 382.0988464355469 C 276.7175903320312 382.0988464355469 276.7183227539062 382.0988464355469 276.7183227539062 382.0988464355469 M 276.7160034179688 383.0988464355469 C 270.0226745605469 383.098388671875 264.4679870605469 381.1542358398438 264.4679870605469 381.1542358398438 C 264.4679870605469 381.1542358398438 278.4956359863281 370.0763854980469 294.0191345214844 373.8242797851562 C 294.6533203125 373.9771118164062 294.9304504394531 374.7656555175781 294.531005859375 375.2962646484375 C 289.8749389648438 381.482177734375 282.8218994140625 383.0992431640625 276.7160034179688 383.0988464355469 Z" stroke="none" fill="#691e0f"/>
      </g>
      <path id="Trazado_918186" data-name="Trazado 918186" d="M186.943,348.338c-.39-.12,7.2,21.991,22.555,21.239C202.076,353.543,191.581,349.765,186.943,348.338Z" transform="translate(-82.117 -161.014)" fill="#6dab50"/>
      <g id="Trazado_918187" data-name="Trazado 918187" transform="translate(-93.408 -157.171)" fill="#9bc44d" stroke-linecap="round" stroke-linejoin="round">
        <path d="M 220.7960968017578 364.8049621582031 C 218.2340698242188 363.5314636230469 216.0632781982422 361.6461181640625 214.3364868164062 359.1927185058594 C 212.8049011230469 357.0166625976562 211.6221160888672 354.4027709960938 210.8210144042969 351.4236450195312 C 210.0605773925781 348.5958251953125 209.8112487792969 346.0574645996094 209.7360076904297 344.4259643554688 C 209.6759643554688 343.1242980957031 209.7150421142578 342.1226806640625 209.7728576660156 341.5419006347656 C 214.0442504882812 344.2506103515625 216.8592529296875 347.1209411621094 218.6030883789062 350.536376953125 C 219.5996551513672 352.4881896972656 220.2576446533203 354.6195068359375 220.6146545410156 357.0520629882812 C 220.9551391601562 359.3721313476562 221.0149993896484 361.9149169921875 220.7960968017578 364.8049621582031 Z" stroke="none"/>
        <path d="M 210.2150115966797 342.4248962402344 C 210.1524047851562 344.2196044921875 210.2982788085938 347.6498107910156 211.3546905517578 351.4796142578125 C 212.1504364013672 354.3644409179688 213.3116149902344 356.891357421875 214.8059387207031 358.9901733398438 C 216.3202667236328 361.1170959472656 218.1804809570312 362.7990112304688 220.3492126464844 364.0049438476562 C 220.5008239746094 361.4648742675781 220.4248504638672 359.2022705078125 220.1199493408203 357.1246643066406 C 219.7709808349609 354.7469177246094 219.1291656494141 352.6662292480469 218.1577758789062 350.7637329101562 C 216.5541534423828 347.6229553222656 214.0119934082031 344.9480590820312 210.2150115966797 342.4248962402344 M 209.4502716064453 340.755615234375 C 209.4542846679688 340.7556457519531 209.4583435058594 340.7568359375 209.4622802734375 340.7592468261719 C 218.1676177978516 346.0915222167969 222.3957366943359 352.6245727539062 221.2349090576172 365.564453125 C 207.9727478027344 359.6454467773438 208.9453277587891 340.753662109375 209.4502716064453 340.755615234375 Z" stroke="none" fill="#691e0f"/>
      </g>
      <path id="Trazado_918188" data-name="Trazado 918188" d="M276.05,195.92s-12.9,9.04-30.977-5.207A29.408,29.408,0,0,1,276.05,195.92Z" transform="translate(-111.588 -79.963)" fill="#9bc44d"/>
      <g id="Trazado_918189" data-name="Trazado 918189" transform="translate(-111.588 -58.49)" fill="#9bc44d" stroke-linecap="round" stroke-linejoin="round">
        <path d="M 245.83935546875 168.4034271240234 C 249.5809478759766 159.9110717773438 254.5552673339844 153.7660827636719 260.6325378417969 150.1312866210938 C 265.81884765625 147.0293579101562 270.5625 146.5661926269531 272.9285278320312 146.5661926269531 C 273.3254699707031 146.5661926269531 273.71044921875 146.5787048339844 274.0727844238281 146.6033935546875 C 274.1813659667969 146.6108703613281 274.2472229003906 146.6770477294922 274.2767639160156 146.7158203125 C 274.3339538574219 146.7908325195312 274.3556213378906 146.8891143798828 274.3361511230469 146.9854736328125 C 273.8651123046875 149.3232269287109 272.8917846679688 151.7893371582031 271.5213928222656 154.1174011230469 C 269.9981384277344 156.7050933837891 268.0553283691406 159.0364990234375 265.7469482421875 161.0468597412109 C 263.1676635742188 163.2931213378906 260.2105407714844 165.0596160888672 256.9577026367188 166.2972717285156 C 253.5362701416016 167.5990600585938 249.799560546875 168.3065795898438 245.83935546875 168.4034271240234 Z" stroke="none"/>
        <path d="M 272.928466796875 147.0661926269531 L 272.928466796875 147.0661926269531 C 272.9283752441406 147.0661926269531 272.9282836914062 147.0661926269531 272.9281921386719 147.0661926269531 C 270.61376953125 147.0661926269531 265.9720458984375 147.5202026367188 260.8885498046875 150.5608520507812 C 255.0769958496094 154.0369873046875 250.2831420898438 159.8575439453125 246.6240234375 167.8755950927734 C 250.2319946289062 167.7101898193359 253.6417846679688 167.0239562988281 256.7799072265625 165.8299407958984 C 259.9774475097656 164.6133422851562 262.8839111328125 162.8772125244141 265.4185791015625 160.6698150634766 C 267.686279296875 158.6948699951172 269.5946044921875 156.4049835205078 271.0904846191406 153.86376953125 C 272.3935546875 151.6500549316406 273.3294982910156 149.3122711181641 273.80419921875 147.0881805419922 C 273.5229797363281 147.0735778808594 273.2294311523438 147.0661926269531 272.928466796875 147.0661926269531 M 272.9284973144531 146.0661926269531 C 273.3942260742188 146.0661926269531 273.7904968261719 146.0830078125 274.1067810058594 146.1045532226562 C 274.5866394042969 146.1376190185547 274.9244384765625 146.5981903076172 274.8262634277344 147.0844268798828 C 272.9696350097656 156.2986450195312 263.2647705078125 168.8321685791016 245.072998046875 168.9145355224609 C 253.9224548339844 148.1460571289062 267.7460327148438 146.0661010742188 272.9284973144531 146.0661926269531 Z" stroke="none" fill="#691e0f"/>
      </g>
      <path id="Trazado_918190" data-name="Trazado 918190" d="M275.38,146.98s-25.09,15.011-29.04,21.95" transform="translate(-112.23 -58.953)" fill="#9bc44d" stroke="#691e0f" stroke-linecap="round" stroke-linejoin="round" stroke-width="1"/>
      <path id="Trazado_918191" data-name="Trazado 918191" d="M186.929,306.588s13.3-4.646,35.018-5.317" transform="translate(-82.117 -137.158)" fill="#9bc44d" stroke="#691e0f" stroke-linecap="round" stroke-linejoin="round" stroke-width="1"/>
      <path id="Trazado_918192" data-name="Trazado 918192" d="M209.813,341.748A93.631,93.631,0,0,1,221.1,365.617" transform="translate(-93.716 -157.674)" fill="#9bc44d" stroke="#691e0f" stroke-linecap="round" stroke-linejoin="round" stroke-width="1"/>
      <path id="Trazado_918193" data-name="Trazado 918193" d="M294.952,376.184s-17.209,3.022-29.128,6.217" transform="translate(-122.106 -175.129)" fill="#9bc44d" stroke="#691e0f" stroke-linecap="round" stroke-linejoin="round" stroke-width="1"/>
      <path id="Trazado_918194" data-name="Trazado 918194" d="M276.889,250.934S273.257,275.3,276,286.649" transform="translate(-126.744 -111.644)" fill="none" stroke="#691e0f" stroke-linecap="round" stroke-linejoin="round" stroke-width="1"/>
      <path id="Trazado_918195" data-name="Trazado 918195" d="M295.247,294.307s-12.137,12.162-16.391,16.716" transform="translate(-128.711 -133.628)" fill="none" stroke="#691e0f" stroke-linecap="round" stroke-linejoin="round" stroke-width="1"/>
      <path id="Trazado_918196" data-name="Trazado 918196" d="M227.5,245.74s8.3,14.248,8.348,21.7" transform="translate(-102.679 -109.011)" fill="none" stroke="#691e0f" stroke-linecap="round" stroke-linejoin="round" stroke-width="1"/>
      <path id="Trazado_918197" data-name="Trazado 918197" d="M185.949,400.007s16.953-4.32,23.89-8.512" transform="translate(-81.62 -182.889)" fill="none" stroke="#691e0f" stroke-linecap="round" stroke-linejoin="round" stroke-width="1"/>
      <path id="Trazado_918198" data-name="Trazado 918198" d="M174.121,384.938s17.943,4.125,29.331,3.021" transform="translate(-75.625 -179.566)" fill="none" stroke="#691e0f" stroke-linecap="round" stroke-linejoin="round" stroke-width="1"/>
      <path id="Trazado_918199" data-name="Trazado 918199" d="M187.559,348.526s11.817,17.194,22.259,20.764" transform="translate(-82.436 -161.11)" fill="none" stroke="#691e0f" stroke-linecap="round" stroke-linejoin="round" stroke-width="1"/>
      <path id="Trazado_918200" data-name="Trazado 918200" d="M253.535,362.688c-3.089-3.191-12.358-24.813-12.358-24.813" transform="translate(-109.613 -155.711)" fill="#9bc44d" stroke="#691e0f" stroke-linecap="round" stroke-linejoin="round" stroke-width="1"/>
      <path id="Trazado_918201" data-name="Trazado 918201" d="M266.6,339.6s2.055,14.6-.365,23.962" transform="translate(-122.315 -156.585)" fill="#9bc44d" stroke="#691e0f" stroke-linecap="round" stroke-linejoin="round" stroke-width="1"/>
      <path id="Trazado_918202" data-name="Trazado 918202" d="M302.045,171.448a82.706,82.706,0,0,0-21.625,5.284" transform="translate(-129.504 -71.355)" fill="none" stroke="#691e0f" stroke-linecap="round" stroke-linejoin="round" stroke-width="1"/>
      <path id="Trazado_918203" data-name="Trazado 918203" d="M275.707,198s-23.065-6.9-30.634-5.215" transform="translate(-111.588 -82.035)" fill="none" stroke="#691e0f" stroke-linecap="round" stroke-linejoin="round" stroke-width="1"/>
      <path id="Trazado_918204" data-name="Trazado 918204" d="M238.908,214.774s-19.287,1.276-22.826,2.841" transform="translate(-96.893 -93.316)" fill="none" stroke="#691e0f" stroke-linecap="round" stroke-linejoin="round" stroke-width="1"/>
      <path id="Trazado_918205" data-name="Trazado 918205" d="M215.013,164.43s-1.085,20.891,1.922,25.11" transform="translate(-96.255 -67.798)" fill="none" stroke="#691e0f" stroke-linecap="round" stroke-linejoin="round" stroke-width="1"/>
      <path id="Trazado_918206" data-name="Trazado 918206" d="M185.387,207.428s10.26,11.2,12.852,17.865" transform="translate(-81.335 -89.592)" fill="none" stroke="#691e0f" stroke-linecap="round" stroke-linejoin="round" stroke-width="1"/>
      <path id="Trazado_918207" data-name="Trazado 918207" d="M175.559,269s11.855-11.917,19.682-10.525" transform="translate(-76.354 -115.407)" fill="none" stroke="#691e0f" stroke-linecap="round" stroke-linejoin="round" stroke-width="1"/>
      <line id="Línea_619" data-name="Línea 619" x2="15.81" transform="translate(126.205 126.902)" fill="none" stroke="#691e0f" stroke-linecap="round" stroke-linejoin="round" stroke-width="1"/>
      <line id="Línea_620" data-name="Línea 620" x2="13.488" transform="translate(127.654 63.774)" fill="none" stroke="#691e0f" stroke-linecap="round" stroke-linejoin="round" stroke-width="1"/>
      <line id="Línea_621" data-name="Línea 621" x2="15.48" transform="translate(126.851 65.982)" fill="none" stroke="#691e0f" stroke-linecap="round" stroke-linejoin="round" stroke-width="1"/>
      <line id="Línea_622" data-name="Línea 622" x2="16.256" transform="translate(126.489 39.035)" fill="none" stroke="#691e0f" stroke-linecap="round" stroke-linejoin="round" stroke-width="1"/>
      <line id="Línea_623" data-name="Línea 623" x2="7.237" transform="translate(131.096 212.298)" fill="none" stroke="#691e0f" stroke-linecap="round" stroke-linejoin="round" stroke-width="1"/>
      <line id="Línea_624" data-name="Línea 624" x2="105.605" transform="translate(81.995 232.9)" fill="none" stroke="#691e0f" stroke-linecap="round" stroke-linejoin="round" stroke-width="1"/>
      <line id="Línea_625" data-name="Línea 625" x2="104.216" transform="translate(82.473 230.66)" fill="none" stroke="#691e0f" stroke-linecap="round" stroke-linejoin="round" stroke-width="1"/>
      <line id="Línea_626" data-name="Línea 626" x2="70.232" y2="0.534" transform="translate(174.434 178.728)" fill="none" stroke="#691e0f" stroke-linecap="round" stroke-linejoin="round" stroke-width="1"/>
      <line id="Línea_627" data-name="Línea 627" y1="0.534" x2="70.232" transform="translate(24.93 178.728)" fill="none" stroke="#691e0f" stroke-linecap="round" stroke-linejoin="round" stroke-width="1"/>
    </g>
    <g id="Grupo_1120190" data-name="Grupo 1120190" transform="translate(151.477 5538.039)">
      <g id="Grupo_1120186" data-name="Grupo 1120186" transform="translate(305.921 371.245)">
        <g id="Grupo_1120181" data-name="Grupo 1120181" transform="translate(47.377 27.625)">
          <g id="Grupo_1120180" data-name="Grupo 1120180" transform="translate(0)">
            <path id="Trazado_918210" data-name="Trazado 918210" d="M423.73,431.435a12.309,12.309,0,0,0,7.563-4.993c2.886-4.207,2.572-9.451.727-14.011-3.236-8-13.8-10.906-20.43-5.306a14.854,14.854,0,0,0-4.912,10.1c-.651,7.591,7.208,14.327,14.425,14.459A11.729,11.729,0,0,0,423.73,431.435Z" transform="translate(-406.64 -404.223)" fill="#6dab50"/>
            <path id="Trazado_918211" data-name="Trazado 918211" d="M422.841,415.157l-.753,31.481h3.136Z" transform="translate(-409.148 -405.998)" fill="#a46f60"/>
            <path id="Trazado_918212" data-name="Trazado 918212" d="M428.789,420.548,423.96,426.8v3.779Z" transform="translate(-409.451 -406.873)" fill="#a46f60"/>
            <path id="Trazado_918213" data-name="Trazado 918213" d="M417.447,423.842l4.264,8.466.08-3.331Z" transform="translate(-408.394 -407.408)" fill="#a46f60"/>
          </g>
          <path id="Trazado_918214" data-name="Trazado 918214" d="M432.02,412.431c-3.236-8-13.8-10.906-20.43-5.306a14.854,14.854,0,0,0-4.912,10.1c-.615,7.17,6.362,13.574,13.22,14.374l-.318,13.261h3.135l-1-13.2a11.777,11.777,0,0,0,2.013-.229,12.309,12.309,0,0,0,7.563-4.993C434.178,422.235,433.864,416.991,432.02,412.431Z" transform="translate(-406.64 -404.223)" fill="#060006" opacity="0.5" style="mix-blend-mode: soft-light;isolation: isolate"/>
        </g>
        <g id="Grupo_1120183" data-name="Grupo 1120183" transform="translate(0)">
          <g id="Grupo_1120182" data-name="Grupo 1120182">
            <path id="Trazado_918215" data-name="Trazado 918215" d="M399.444,398.649a5.51,5.51,0,0,1-1.173,2.571,7.522,7.522,0,0,1-8.1,2.17,5.56,5.56,0,0,1,1.03,6.886,7.05,7.05,0,0,1-6.425,3.243,8.094,8.094,0,0,1-3.711-1.14,5.5,5.5,0,0,1-7.388,7.07.82.82,0,0,1-.092-.042,12.318,12.318,0,0,1-1.332-.7c-.335-.2-.7-.427-1.039-.662-1.131-.787-2.144-1.726-1.885-2.371-.712,1.759-2.555,2.789-4.356,3.376-2.186.712-4.909.829-6.45-.88a6.035,6.035,0,0,1-1.131-4.532,4.924,4.924,0,0,1,1.458-3.568,9.221,9.221,0,0,1-5.671-.586,5.273,5.273,0,0,1-2.036-1.474,4.583,4.583,0,0,1-.075-5.076,8.059,8.059,0,0,1,4.247-3.175,6.414,6.414,0,0,1-4.683-3.451,5.708,5.708,0,0,1,.486-5.738,5.157,5.157,0,0,1,5.353-1.927,8.225,8.225,0,0,1-3.032-6.375,5.692,5.692,0,0,1,4.2-5.328c2.471-.519,4.875.955,6.969,2.354a5.661,5.661,0,0,1,6.827-7.8,6.863,6.863,0,0,1,.687.268,5.835,5.835,0,0,1,3.233,4.523,5.394,5.394,0,0,1,4.356-4.482,5.908,5.908,0,0,1,5.772,2.714,6.268,6.268,0,0,1-.042,6.425,6.894,6.894,0,0,1,7.9-.436,6.024,6.024,0,0,1,2.036,7.464,13,13,0,0,1-2.605,3.065,12.839,12.839,0,0,1,4.758,2.672A5.923,5.923,0,0,1,399.444,398.649Z" transform="translate(-350.081 -371.245)" fill="#9bc44d"/>
            <path id="Trazado_918216" data-name="Trazado 918216" d="M378.434,447.88H374.12l1-26.772.142-3.795.126-3.443.218-5.83v-.008l.159-4.155.318-8.544.193-5.194.771,20.6v.008l.151,3.9v.008l.293,7.815Z" transform="translate(-353.983 -374.312)" fill="#a46f60"/>
            <path id="Trazado_918217" data-name="Trazado 918217" d="M384.2,401.3l-7.525,12.542s-.251,5.206,0,4.7S384.2,401.3,384.2,401.3Z" transform="translate(-354.38 -376.123)" fill="#a46f60"/>
            <path id="Trazado_918218" data-name="Trazado 918218" d="M366.812,395.095l7.658,13.834.359-3.936Z" transform="translate(-352.797 -375.117)" fill="#a46f60"/>
            <path id="Trazado_918219" data-name="Trazado 918219" d="M361.93,406.911l12.256,14.173-.508-4.264Z" transform="translate(-352.005 -377.035)" fill="#a46f60"/>
          </g>
          <path id="Trazado_918220" data-name="Trazado 918220" d="M370.218,444.813l1-26.772c-1.131-.787-2.144-1.726-1.885-2.371-.712,1.759-2.555,2.789-4.356,3.376-2.186.712-4.909.829-6.45-.88a6.035,6.035,0,0,1-1.131-4.532,4.924,4.924,0,0,1,1.458-3.568,9.221,9.221,0,0,1-5.671-.586,5.273,5.273,0,0,1-2.036-1.474,4.583,4.583,0,0,1-.075-5.076,8.059,8.059,0,0,1,4.247-3.175,6.414,6.414,0,0,1-4.683-3.451,5.708,5.708,0,0,1,.486-5.738,5.157,5.157,0,0,1,5.353-1.927,8.225,8.225,0,0,1-3.032-6.375,5.692,5.692,0,0,1,4.2-5.328c2.471-.519,4.875.955,6.969,2.354a5.661,5.661,0,0,1,6.827-7.8,6.863,6.863,0,0,1,.687.268l.059,20.506.067,22.86v.142l.008,3.434.075,26.11Z" transform="translate(-350.081 -371.245)" fill="#060006" opacity="0.5" style="mix-blend-mode: soft-light;isolation: isolate"/>
        </g>
        <g id="Grupo_1120185" data-name="Grupo 1120185" transform="translate(69.435 5.338)">
          <g id="Grupo_1120184" data-name="Grupo 1120184">
            <path id="Trazado_918221" data-name="Trazado 918221" d="M455.428,417.484a12.684,12.684,0,0,1-5.78,3.048,9.821,9.821,0,0,1-1.985.226c-.218,0-.436,0-.653-.017a9.958,9.958,0,0,1-1.491-.193,11.723,11.723,0,0,1-3.284-1.164,16.1,16.1,0,0,1-6.609-6.458,23.912,23.912,0,0,1-2.513-9.224c-.913-10.111,2.471-25.189,13.9-26.052a15.732,15.732,0,0,1,3.9.235,12.1,12.1,0,0,1,8.075,4.675,18.744,18.744,0,0,1,2.655,6.055C464.2,398.125,463.118,410.539,455.428,417.484Z" transform="translate(-432.971 -377.618)" fill="#9bc44d"/>
            <path id="Trazado_918222" data-name="Trazado 918222" d="M451.346,448.549h-4l.5-25.3.2-10.194.092-4.406.285-14.391.452,8.36v.008l.176,3.3v.008l.285,5.294.268,4.976v.008l.276,5.235v.008l.109,2Z" transform="translate(-435.305 -380.32)" fill="#a46f60"/>
            <path id="Trazado_918223" data-name="Trazado 918223" d="M456.479,404.133l-6.71,14.17.515,4.762Z" transform="translate(-435.698 -381.922)" fill="#a46f60"/>
            <path id="Trazado_918224" data-name="Trazado 918224" d="M455.048,390.953l-6.368,11.915v4.013Z" transform="translate(-435.521 -379.783)" fill="#a46f60"/>
            <path id="Trazado_918225" data-name="Trazado 918225" d="M440.411,401.434l6.518,12.791.088-4.409Z" transform="translate(-434.179 -381.484)" fill="#a46f60"/>
          </g>
          <path id="Trazado_918226" data-name="Trazado 918226" d="M447.01,377.659v68.195h-1.994l.5-25.3a11.723,11.723,0,0,1-3.284-1.164,16.1,16.1,0,0,1-6.609-6.458,23.912,23.912,0,0,1-2.513-9.224C432.2,393.6,435.584,378.522,447.01,377.659Z" transform="translate(-432.971 -377.625)" fill="#060006" opacity="0.5" style="mix-blend-mode: soft-light;isolation: isolate"/>
        </g>
      </g>
      <g id="Grupo_1120189" data-name="Grupo 1120189" transform="translate(78.04 376.996)">
        <g id="Grupo_1120188" data-name="Grupo 1120188">
          <rect id="Rectángulo_405721" data-name="Rectángulo 405721" width="31.622" height="37.41" transform="translate(4.255 11.811)" fill="#df8e2f"/>
          <path id="Trazado_918227" data-name="Trazado 918227" d="M114.744,389.93H83.13l.008-.008L98.3,378.587l.637-.477,15.8,11.811Z" transform="translate(-78.866 -378.11)" fill="#68b5b9"/>
          <rect id="Rectángulo_405722" data-name="Rectángulo 405722" width="31.622" height="5.361" transform="translate(4.255 24.401)" fill="#f4d759"/>
          <path id="Trazado_918228" data-name="Trazado 918228" d="M99.848,434.9v-7.472H83.12v-37.41h.017L98.3,378.68l.477,11.334v.008q.276,6.3.536,12.582c.075,1.784.151,3.577.226,5.361q.415,9.725.821,19.459c.109,2.488.218,4.984.318,7.472Z" transform="translate(-78.865 -378.203)" fill="#060006" opacity="0.5" style="mix-blend-mode: soft-light;isolation: isolate"/>
          <g id="Grupo_1120187" data-name="Grupo 1120187" transform="translate(0 49.221)">
            <path id="Trazado_918229" data-name="Trazado 918229" d="M78.04,455.466l2.547-11.124L82.3,436.87h31.622l2.446,7.472,3.652,11.124" transform="translate(-78.04 -436.87)" fill="none" stroke="#691e0f" stroke-linecap="round" stroke-linejoin="round" stroke-width="1"/>
            <path id="Trazado_918230" data-name="Trazado 918230" d="M81.08,445.79h35.777" transform="translate(-78.533 -438.318)" fill="none" stroke="#691e0f" stroke-linecap="round" stroke-linejoin="round" stroke-width="1"/>
            <path id="Trazado_918231" data-name="Trazado 918231" d="M103.09,454.168v-17.3" transform="translate(-82.106 -436.87)" fill="none" stroke="#691e0f" stroke-linecap="round" stroke-linejoin="round" stroke-width="1"/>
          </g>
          <line id="Línea_628" data-name="Línea 628" x2="31.622" transform="translate(4.258 24.404)" fill="none" stroke="#691e0f" stroke-linecap="round" stroke-linejoin="round" stroke-width="1"/>
          <line id="Línea_629" data-name="Línea 629" x2="31.622" transform="translate(4.258 29.765)" fill="none" stroke="#691e0f" stroke-linecap="round" stroke-linejoin="round" stroke-width="1"/>
          <line id="Línea_630" data-name="Línea 630" x2="31.619" transform="translate(4.261 11.816)" fill="none" stroke="#691e0f" stroke-linecap="round" stroke-linejoin="round" stroke-width="1"/>
        </g>
      </g>
    </g>
  </g>
</svg>
