<svg xmlns="http://www.w3.org/2000/svg" xmlns:xlink="http://www.w3.org/1999/xlink" width="117.999" height="118" viewBox="0 0 117.999 118">
  <defs>
    <filter id="Trazado_874925" x="0" y="0" width="117.999" height="118" filterUnits="userSpaceOnUse">
      <feOffset dy="3" input="SourceAlpha"/>
      <feGaussianBlur stdDeviation="3" result="blur"/>
      <feFlood flood-opacity="0.161"/>
      <feComposite operator="in" in2="blur"/>
      <feComposite in="SourceGraphic"/>
    </filter>
  </defs>
  <g id="Grupo_1120254" data-name="Grupo 1120254" transform="translate(-743.051 -9293)">
    <g id="Grupo_1111553" data-name="Grupo 1111553" transform="translate(-56.449 6781.843)">
      <g id="Grupo_1111316" data-name="Grupo 1111316" transform="translate(808.5 2517.157)">
        <g id="Grupo_1109835" data-name="Grupo 1109835" transform="translate(0 0)">
          <g id="Grupo_1107913" data-name="Grupo 1107913" transform="translate(0 0)">
            <g transform="matrix(1, 0, 0, 1, -9, -6)" filter="url(#Trazado_874925)">
              <g id="Trazado_874925-2" data-name="Trazado 874925" transform="translate(9 6)" fill="#bb965f" opacity="0.859">
                <path d="M 49.99972534179688 98.4998779296875 C 43.45164108276367 98.4998779296875 37.10022354125977 97.21776580810547 31.12189674377441 94.68914794921875 C 25.34676742553711 92.24647521972656 20.15985298156738 88.74925994873047 15.70523929595947 84.29464721679688 C 11.25062561035156 79.84004974365234 7.753411293029785 74.65313720703125 5.310725212097168 68.87800598144531 C 2.782111167907715 62.89969253540039 1.499996781349182 56.54829406738281 1.499996781349182 50.00022125244141 C 1.499996781349182 43.45157623291016 2.782111167907715 37.10017776489258 5.310725212097168 31.12186431884766 C 7.753411293029785 25.34673500061035 11.25062561035156 20.15983581542969 15.70523929595947 15.70522117614746 C 20.15985298156738 11.25062084197998 25.34676742553711 7.753406524658203 31.12189674377441 5.31073522567749 C 37.10022354125977 2.782120943069458 43.45164108276367 1.500006556510925 49.99972534179688 1.500006556510925 C 56.54780960083008 1.500006556510925 62.89922714233398 2.782120943069458 68.87755584716797 5.31073522567749 C 74.65267944335938 7.753406524658203 79.839599609375 11.25062084197998 84.29421234130859 15.70522117614746 C 88.74882507324219 20.15983581542969 92.24604034423828 25.34673500061035 94.68872833251953 31.12186431884766 C 97.21733856201172 37.10017776489258 98.49945068359375 43.45157623291016 98.49945068359375 49.99964904785156 C 98.49945068359375 56.54829406738281 97.21733856201172 62.89969253540039 94.68872833251953 68.87800598144531 C 92.24604034423828 74.65313720703125 88.74882507324219 79.84004974365234 84.29421234130859 84.29464721679688 C 79.839599609375 88.74925994873047 74.65267944335938 92.24647521972656 68.87755584716797 94.68914794921875 C 62.89922714233398 97.21776580810547 56.54780960083008 98.4998779296875 49.99972534179688 98.4998779296875 Z" stroke="none"/>
                <path d="M 49.99972534179688 3 C 43.65348052978516 3 37.49866485595703 4.242240905761719 31.70623016357422 6.692230224609375 C 26.10989379882812 9.059272766113281 21.08323669433594 12.44853210449219 16.76589202880859 16.76587677001953 C 12.44855499267578 21.08321380615234 9.059295654296875 26.10985565185547 6.692230224609375 31.70618438720703 C 4.24224853515625 37.49859619140625 3 43.65341186523438 3 50.00022888183594 C 3 56.34645843505859 4.24224853515625 62.50127410888672 6.692230224609375 68.29368591308594 C 9.059295654296875 73.8900146484375 12.44855499267578 78.91665649414062 16.76589202880859 83.23399353027344 C 21.08323669433594 87.55132293701172 26.10989379882812 90.94059753417969 31.70623016357422 93.30764007568359 C 37.49866485595703 95.75762939453125 43.65348052978516 96.99987030029297 49.99972534179688 96.99987030029297 C 56.34597015380859 96.99987030029297 62.50078582763672 95.75762939453125 68.293212890625 93.30764007568359 C 73.88955688476562 90.94059753417969 78.91621398925781 87.55132293701172 83.23355865478516 83.23399353027344 C 87.55089569091797 78.91665649414062 90.94015502929688 73.8900146484375 93.30722045898438 68.29368591308594 C 95.7572021484375 62.50127410888672 96.99945068359375 56.34645843505859 96.99945068359375 49.99964141845703 C 96.99945068359375 43.65341186523438 95.7572021484375 37.49859619140625 93.30722045898438 31.70618438720703 C 90.94015502929688 26.10985565185547 87.55089569091797 21.08321380615234 83.23355865478516 16.76587677001953 C 78.91621398925781 12.44853210449219 73.88955688476562 9.059272766113281 68.293212890625 6.692230224609375 C 62.50078582763672 4.242240905761719 56.34597015380859 3 49.99972534179688 3 M 49.99972534179688 0 C 77.61381530761719 0 99.99945068359375 22.38559722900391 99.99945068359375 49.99964141845703 L 99.99945068359375 50.00022888183594 C 99.99945068359375 77.6142578125 77.61381530761719 99.99987030029297 49.99972534179688 99.99987030029297 C 22.38563537597656 99.99987030029297 0 77.6142578125 0 50.00022888183594 L 0 49.99964141845703 C 0 22.38559722900391 22.38563537597656 0 49.99972534179688 0 Z" stroke="none" fill="#fff"/>
              </g>
            </g>
            <g id="Trazado_874923" data-name="Trazado 874923" transform="translate(0 0)" fill="none">
              <path d="M50,0a50,50,0,0,1,50,50h0A50,50,0,0,1,0,50H0A50,50,0,0,1,50,0Z" stroke="none"/>
              <path d="M 49.99972534179688 3 C 43.65348052978516 3 37.49866485595703 4.242240905761719 31.70623016357422 6.692230224609375 C 26.10989379882812 9.059272766113281 21.08323669433594 12.44853210449219 16.76589202880859 16.76587677001953 C 12.44855499267578 21.08321380615234 9.059295654296875 26.10985565185547 6.692230224609375 31.70618438720703 C 4.24224853515625 37.49859619140625 3 43.65341186523438 3 50.00022888183594 C 3 56.34645843505859 4.24224853515625 62.50127410888672 6.692230224609375 68.29368591308594 C 9.059295654296875 73.8900146484375 12.44855499267578 78.91665649414062 16.76589202880859 83.23399353027344 C 21.08323669433594 87.55132293701172 26.10989379882812 90.94059753417969 31.70623016357422 93.30764007568359 C 37.49866485595703 95.75762939453125 43.65348052978516 96.99987030029297 49.99972534179688 96.99987030029297 C 56.34597015380859 96.99987030029297 62.50078582763672 95.75762939453125 68.293212890625 93.30764007568359 C 73.88955688476562 90.94059753417969 78.91621398925781 87.55132293701172 83.23355865478516 83.23399353027344 C 87.55089569091797 78.91665649414062 90.94015502929688 73.8900146484375 93.30722045898438 68.29368591308594 C 95.7572021484375 62.50127410888672 96.99945068359375 56.34645843505859 96.99945068359375 49.99964141845703 C 96.99945068359375 43.65341186523438 95.7572021484375 37.49859619140625 93.30722045898438 31.70618438720703 C 90.94015502929688 26.10985565185547 87.55089569091797 21.08321380615234 83.23355865478516 16.76587677001953 C 78.91621398925781 12.44853210449219 73.88955688476562 9.059272766113281 68.293212890625 6.692230224609375 C 62.50078582763672 4.242240905761719 56.34597015380859 3 49.99972534179688 3 M 49.99972534179688 0 C 77.61381530761719 0 99.99945068359375 22.38559722900391 99.99945068359375 49.99964141845703 L 99.99945068359375 50.00022888183594 C 99.99945068359375 77.6142578125 77.61381530761719 99.99987030029297 49.99972534179688 99.99987030029297 C 22.38563537597656 99.99987030029297 0 77.6142578125 0 50.00022888183594 L 0 49.99964141845703 C 0 22.38559722900391 22.38563537597656 0 49.99972534179688 0 Z" stroke="none" fill="#fff"/>
            </g>
          </g>
        </g>
      </g>
    </g>
    <g id="Grupo_1120253" data-name="Grupo 1120253" transform="translate(771.051 9318)">
      <g id="Grupo_1120251" data-name="Grupo 1120251">
        <g id="Grupo_1120234" data-name="Grupo 1120234">
          <circle id="Elipse_11904" data-name="Elipse 11904" cx="10" cy="10" r="10" transform="translate(41 1)" fill="#fcd770"/>
        </g>
        <g id="Grupo_1120235" data-name="Grupo 1120235">
          <circle id="Elipse_11905" data-name="Elipse 11905" cx="10" cy="10" r="10" transform="translate(41 41)" fill="#fcd770"/>
        </g>
        <g id="Grupo_1120236" data-name="Grupo 1120236">
          <circle id="Elipse_11906" data-name="Elipse 11906" cx="4" cy="4" r="4" transform="translate(50 27)" fill="#fcd770"/>
        </g>
        <g id="Grupo_1120237" data-name="Grupo 1120237">
          <path id="Trazado_918360" data-name="Trazado 918360" d="M31,2a3,3,0,0,1,0,6,2.944,2.944,0,0,1-1.26-.28A3,3,0,0,1,31,2Z" fill="#fcd770"/>
        </g>
        <g id="Grupo_1120238" data-name="Grupo 1120238">
          <path id="Trazado_918361" data-name="Trazado 918361" d="M56,18v1.65a9.934,9.934,0,0,1-10,0V18a5,5,0,0,1,10,0Z" fill="#b4dd7f"/>
        </g>
        <g id="Grupo_1120239" data-name="Grupo 1120239">
          <path id="Trazado_918362" data-name="Trazado 918362" d="M56,58v1.65a9.934,9.934,0,0,1-10,0V58a5,5,0,0,1,10,0Z" fill="#e6e9ed"/>
        </g>
        <g id="Grupo_1120240" data-name="Grupo 1120240">
          <circle id="Elipse_11907" data-name="Elipse 11907" cx="4" cy="4" r="4" transform="translate(47 45)" fill="#f0d0b4"/>
        </g>
        <g id="Grupo_1120241" data-name="Grupo 1120241">
          <circle id="Elipse_11908" data-name="Elipse 11908" cx="4" cy="4" r="4" transform="translate(47 5)" fill="#f0d0b4"/>
        </g>
        <g id="Grupo_1120242" data-name="Grupo 1120242">
          <path id="Trazado_918363" data-name="Trazado 918363" d="M31,28.1a11.119,11.119,0,0,1-1.38,5.37A3.071,3.071,0,0,0,28,33H27V29H13a3.98,3.98,0,0,1-3.46-2l-.05.03A4.993,4.993,0,0,0,5,32v1H4a3.071,3.071,0,0,0-1.62.47A11.1,11.1,0,0,1,12.1,17h7.8A11.1,11.1,0,0,1,31,28.1Z" fill="#b27946"/>
        </g>
        <g id="Grupo_1120243" data-name="Grupo 1120243">
          <path id="Trazado_918364" data-name="Trazado 918364" d="M19.14,47.42v.01L17,51H15l-2.14-3.57v-.01a11.948,11.948,0,0,1,6.28,0Z" fill="#f0d0b4"/>
        </g>
        <g id="Grupo_1120244" data-name="Grupo 1120244">
          <path id="Trazado_918365" data-name="Trazado 918365" d="M30.12,38.12A2.993,2.993,0,0,1,28,39H27l-.06-.01A8.1,8.1,0,0,0,27,38V33h1a3.071,3.071,0,0,1,1.62.47,3,3,0,0,1,.5,4.65Z" fill="#f0d0b4"/>
        </g>
        <g id="Grupo_1120245" data-name="Grupo 1120245">
          <path id="Trazado_918366" data-name="Trazado 918366" d="M27,33v5a8.1,8.1,0,0,1-.06.99A8.994,8.994,0,0,1,18,47H14a8.994,8.994,0,0,1-8.94-8.01A8.1,8.1,0,0,1,5,38V32a4.993,4.993,0,0,1,4.49-4.97L9.54,27A3.98,3.98,0,0,0,13,29H27Z" fill="#f0d0b4"/>
        </g>
        <g id="Grupo_1120246" data-name="Grupo 1120246">
          <path id="Trazado_918367" data-name="Trazado 918367" d="M5,38a8.1,8.1,0,0,0,.06.99L5,39H4a3,3,0,0,1-1.62-5.53A3.071,3.071,0,0,1,4,33H5Z" fill="#f0d0b4"/>
        </g>
        <g id="Grupo_1120247" data-name="Grupo 1120247">
          <path id="Trazado_918368" data-name="Trazado 918368" d="M17,51l3,3,1.7-5.56a11.828,11.828,0,0,1,2.79,2.07A12.019,12.019,0,0,1,28,59v2H4V59a11.98,11.98,0,0,1,6.3-10.56L12,54l3-3h2Z" fill="#ef7385"/>
        </g>
        <g id="Grupo_1120248" data-name="Grupo 1120248">
          <path id="Trazado_918369" data-name="Trazado 918369" d="M21.7,48.44,20,54l-3-3,2.14-3.57v-.01a11.4,11.4,0,0,1,2.56,1.02Z" fill="#ed5565"/>
        </g>
        <g id="Grupo_1120249" data-name="Grupo 1120249">
          <path id="Trazado_918370" data-name="Trazado 918370" d="M12.86,47.42v.01L15,51l-3,3-1.7-5.56a11.594,11.594,0,0,1,2.56-1.02Z" fill="#ed5565"/>
        </g>
        <g id="Grupo_1120250" data-name="Grupo 1120250">
          <path id="Trazado_918371" data-name="Trazado 918371" d="M12,39h8a4,4,0,0,1-8,0Z" fill="#ef7385"/>
        </g>
      </g>
      <g id="Grupo_1120252" data-name="Grupo 1120252">
        <path id="Trazado_918372" data-name="Trazado 918372" d="M51,40a10.93,10.93,0,0,0-5.872,1.714l-4.263-4.263c.08-.81.135-1.626.135-2.451a25.169,25.169,0,0,0-.186-3H49.1a5,5,0,1,0,0-2H40.5a24.771,24.771,0,0,0-2.4-6.68l4.852-4.852a11,11,0,1,0-1.232-1.6l-4.666,4.666a25.2,25.2,0,0,0-8.753-8.292l1.993-4.318a4.05,4.05,0,1,0-1.81-.849l-1.961,4.249A24.843,24.843,0,0,0,16,10v2A23,23,0,0,1,28.181,54.5a13.051,13.051,0,0,0-6.543-7.2A10.029,10.029,0,0,0,27.8,40H28a4,4,0,0,0,2.849-6.8A12.058,12.058,0,0,0,19.9,16H12.1A12.058,12.058,0,0,0,1.151,33.2,4,4,0,0,0,4,40h.2a10.03,10.03,0,0,0,6.16,7.305A13,13,0,0,0,3,59v3H29V59a13.04,13.04,0,0,0-.248-2.509A25.032,25.032,0,0,0,40.508,39.922l3.025,3.025A10.981,10.981,0,1,0,51,40Zm3-12a3,3,0,1,1-3,3A3,3,0,0,1,54,28Zm-7-8.95V18a4,4,0,0,1,8,0v1.05a8.9,8.9,0,0,1-8,0ZM48,9a3,3,0,1,1,3,3A3,3,0,0,1,48,9Zm3-7a8.987,8.987,0,0,1,5.985,15.7,6,6,0,0,0-2.871-4.822,5,5,0,1,0-6.227,0A5.993,5.993,0,0,0,45.016,17.7,8.987,8.987,0,0,1,51,2ZM31,3a2,2,0,1,1-2,2A2,2,0,0,1,31,3ZM12.4,48.616l1.337,2.229-1.27,1.27-.959-3.147C11.8,48.837,12.1,48.721,12.4,48.616ZM16,48a10.966,10.966,0,0,1,1.559.124L16.434,50h-.867l-1.126-1.876A10.966,10.966,0,0,1,16,48Zm3.6.616c.3.1.6.221.892.351l-.959,3.147-1.27-1.27ZM28,38V34a2,2,0,0,1,0,4ZM2,36a2,2,0,0,1,2-2v4A2,2,0,0,1,2,36Zm2-4a3.944,3.944,0,0,0-1.123.18A10.07,10.07,0,0,1,12.1,18H19.9a10.07,10.07,0,0,1,9.228,14.18A3.944,3.944,0,0,0,28,32V28.829a7.777,7.777,0,0,0-2.293-5.536l-1.414,1.414A5.785,5.785,0,0,1,25.942,28H21a3,3,0,0,1-3-3V24H16v1a4.948,4.948,0,0,0,1.026,3H13a3,3,0,0,1-3-3V24H8v1a4.949,4.949,0,0,0,.188,1.284A5.975,5.975,0,0,0,4,32ZM14,46a8.009,8.009,0,0,1-8-8V32a3.971,3.971,0,0,1,3.119-3.886A4.974,4.974,0,0,0,13,30H26v8a8.009,8.009,0,0,1-8,8ZM27,60H5V59a10.992,10.992,0,0,1,4.728-9.025l1.8,5.91L15,52.414V58h2V52.414l3.471,3.471,1.8-5.91A10.992,10.992,0,0,1,27,59Zm20-.95V58a4,4,0,0,1,8,0v1.05a8.9,8.9,0,0,1-8,0ZM48,49a3,3,0,1,1,3,3A3,3,0,0,1,48,49Zm8.985,8.7a6,6,0,0,0-2.871-4.822,5,5,0,1,0-6.227,0A5.993,5.993,0,0,0,45.016,57.7a9,9,0,1,1,11.969,0Z"/>
        <path id="Trazado_918373" data-name="Trazado 918373" d="M21,39V38H11v1a5,5,0,0,0,10,0Zm-5,3a3.006,3.006,0,0,1-2.829-2h5.657A3,3,0,0,1,16,42Z"/>
        <path id="Trazado_918374" data-name="Trazado 918374" d="M13,36h2a4,4,0,0,0-8,0H9a2,2,0,0,1,4,0Z"/>
        <path id="Trazado_918375" data-name="Trazado 918375" d="M21,34a2,2,0,0,1,2,2h2a4,4,0,0,0-8,0h2A2,2,0,0,1,21,34Z"/>
      </g>
    </g>
  </g>
</svg>
