<svg xmlns="http://www.w3.org/2000/svg" xmlns:xlink="http://www.w3.org/1999/xlink" width="118" height="118" viewBox="0 0 118 118">
  <defs>
    <filter id="Trazado_874925" x="0" y="0" width="117.999" height="118" filterUnits="userSpaceOnUse">
      <feOffset dy="3" input="SourceAlpha"/>
      <feGaussianBlur stdDeviation="3" result="blur"/>
      <feFlood flood-opacity="0.161"/>
      <feComposite operator="in" in2="blur"/>
      <feComposite in="SourceGraphic"/>
    </filter>
  </defs>
  <g id="Grupo_1120257" data-name="Grupo 1120257" transform="translate(-1058.051 -9293)">
    <g id="Grupo_1111553" data-name="Grupo 1111553" transform="translate(258.551 6781.843)">
      <g id="Grupo_1111316" data-name="Grupo 1111316" transform="translate(808.5 2517.157)">
        <g id="Grupo_1109835" data-name="Grupo 1109835" transform="translate(0 0)">
          <g id="Grupo_1107913" data-name="Grupo 1107913" transform="translate(0 0)">
            <g transform="matrix(1, 0, 0, 1, -9, -6)" filter="url(#Trazado_874925)">
              <g id="Trazado_874925-2" data-name="Trazado 874925" transform="translate(9 6)" fill="#bb965f" opacity="0.859">
                <path d="M 49.99972534179688 98.4998779296875 C 43.45164108276367 98.4998779296875 37.10022354125977 97.21776580810547 31.12189674377441 94.68914794921875 C 25.34676742553711 92.24647521972656 20.15985298156738 88.74925994873047 15.70523929595947 84.29464721679688 C 11.25062561035156 79.84004974365234 7.753411293029785 74.65313720703125 5.310725212097168 68.87800598144531 C 2.782111167907715 62.89969253540039 1.499996781349182 56.54829406738281 1.499996781349182 50.00022125244141 C 1.499996781349182 43.45157623291016 2.782111167907715 37.10017776489258 5.310725212097168 31.12186431884766 C 7.753411293029785 25.34673500061035 11.25062561035156 20.15983581542969 15.70523929595947 15.70522117614746 C 20.15985298156738 11.25062084197998 25.34676742553711 7.753406524658203 31.12189674377441 5.31073522567749 C 37.10022354125977 2.782120943069458 43.45164108276367 1.500006556510925 49.99972534179688 1.500006556510925 C 56.54780960083008 1.500006556510925 62.89922714233398 2.782120943069458 68.87755584716797 5.31073522567749 C 74.65267944335938 7.753406524658203 79.839599609375 11.25062084197998 84.29421234130859 15.70522117614746 C 88.74882507324219 20.15983581542969 92.24604034423828 25.34673500061035 94.68872833251953 31.12186431884766 C 97.21733856201172 37.10017776489258 98.49945068359375 43.45157623291016 98.49945068359375 49.99964904785156 C 98.49945068359375 56.54829406738281 97.21733856201172 62.89969253540039 94.68872833251953 68.87800598144531 C 92.24604034423828 74.65313720703125 88.74882507324219 79.84004974365234 84.29421234130859 84.29464721679688 C 79.839599609375 88.74925994873047 74.65267944335938 92.24647521972656 68.87755584716797 94.68914794921875 C 62.89922714233398 97.21776580810547 56.54780960083008 98.4998779296875 49.99972534179688 98.4998779296875 Z" stroke="none"/>
                <path d="M 49.99972534179688 3 C 43.65348052978516 3 37.49866485595703 4.242240905761719 31.70623016357422 6.692230224609375 C 26.10989379882812 9.059272766113281 21.08323669433594 12.44853210449219 16.76589202880859 16.76587677001953 C 12.44855499267578 21.08321380615234 9.059295654296875 26.10985565185547 6.692230224609375 31.70618438720703 C 4.24224853515625 37.49859619140625 3 43.65341186523438 3 50.00022888183594 C 3 56.34645843505859 4.24224853515625 62.50127410888672 6.692230224609375 68.29368591308594 C 9.059295654296875 73.8900146484375 12.44855499267578 78.91665649414062 16.76589202880859 83.23399353027344 C 21.08323669433594 87.55132293701172 26.10989379882812 90.94059753417969 31.70623016357422 93.30764007568359 C 37.49866485595703 95.75762939453125 43.65348052978516 96.99987030029297 49.99972534179688 96.99987030029297 C 56.34597015380859 96.99987030029297 62.50078582763672 95.75762939453125 68.293212890625 93.30764007568359 C 73.88955688476562 90.94059753417969 78.91621398925781 87.55132293701172 83.23355865478516 83.23399353027344 C 87.55089569091797 78.91665649414062 90.94015502929688 73.8900146484375 93.30722045898438 68.29368591308594 C 95.7572021484375 62.50127410888672 96.99945068359375 56.34645843505859 96.99945068359375 49.99964141845703 C 96.99945068359375 43.65341186523438 95.7572021484375 37.49859619140625 93.30722045898438 31.70618438720703 C 90.94015502929688 26.10985565185547 87.55089569091797 21.08321380615234 83.23355865478516 16.76587677001953 C 78.91621398925781 12.44853210449219 73.88955688476562 9.059272766113281 68.293212890625 6.692230224609375 C 62.50078582763672 4.242240905761719 56.34597015380859 3 49.99972534179688 3 M 49.99972534179688 0 C 77.61381530761719 0 99.99945068359375 22.38559722900391 99.99945068359375 49.99964141845703 L 99.99945068359375 50.00022888183594 C 99.99945068359375 77.6142578125 77.61381530761719 99.99987030029297 49.99972534179688 99.99987030029297 C 22.38563537597656 99.99987030029297 0 77.6142578125 0 50.00022888183594 L 0 49.99964141845703 C 0 22.38559722900391 22.38563537597656 0 49.99972534179688 0 Z" stroke="none" fill="#fff"/>
              </g>
            </g>
            <g id="Trazado_874923" data-name="Trazado 874923" transform="translate(0 0)" fill="none">
              <path d="M50,0a50,50,0,0,1,50,50h0A50,50,0,0,1,0,50H0A50,50,0,0,1,50,0Z" stroke="none"/>
              <path d="M 49.99972534179688 3 C 43.65348052978516 3 37.49866485595703 4.242240905761719 31.70623016357422 6.692230224609375 C 26.10989379882812 9.059272766113281 21.08323669433594 12.44853210449219 16.76589202880859 16.76587677001953 C 12.44855499267578 21.08321380615234 9.059295654296875 26.10985565185547 6.692230224609375 31.70618438720703 C 4.24224853515625 37.49859619140625 3 43.65341186523438 3 50.00022888183594 C 3 56.34645843505859 4.24224853515625 62.50127410888672 6.692230224609375 68.29368591308594 C 9.059295654296875 73.8900146484375 12.44855499267578 78.91665649414062 16.76589202880859 83.23399353027344 C 21.08323669433594 87.55132293701172 26.10989379882812 90.94059753417969 31.70623016357422 93.30764007568359 C 37.49866485595703 95.75762939453125 43.65348052978516 96.99987030029297 49.99972534179688 96.99987030029297 C 56.34597015380859 96.99987030029297 62.50078582763672 95.75762939453125 68.293212890625 93.30764007568359 C 73.88955688476562 90.94059753417969 78.91621398925781 87.55132293701172 83.23355865478516 83.23399353027344 C 87.55089569091797 78.91665649414062 90.94015502929688 73.8900146484375 93.30722045898438 68.29368591308594 C 95.7572021484375 62.50127410888672 96.99945068359375 56.34645843505859 96.99945068359375 49.99964141845703 C 96.99945068359375 43.65341186523438 95.7572021484375 37.49859619140625 93.30722045898438 31.70618438720703 C 90.94015502929688 26.10985565185547 87.55089569091797 21.08321380615234 83.23355865478516 16.76587677001953 C 78.91621398925781 12.44853210449219 73.88955688476562 9.059272766113281 68.293212890625 6.692230224609375 C 62.50078582763672 4.242240905761719 56.34597015380859 3 49.99972534179688 3 M 49.99972534179688 0 C 77.61381530761719 0 99.99945068359375 22.38559722900391 99.99945068359375 49.99964141845703 L 99.99945068359375 50.00022888183594 C 99.99945068359375 77.6142578125 77.61381530761719 99.99987030029297 49.99972534179688 99.99987030029297 C 22.38563537597656 99.99987030029297 0 77.6142578125 0 50.00022888183594 L 0 49.99964141845703 C 0 22.38559722900391 22.38563537597656 0 49.99972534179688 0 Z" stroke="none" fill="#fff"/>
            </g>
          </g>
        </g>
      </g>
    </g>
    <g id="Grupo_1120256" data-name="Grupo 1120256" transform="translate(1043.981 9305)">
      <g id="Grupo_1120255" data-name="Grupo 1120255" transform="translate(51.07 16)">
        <path id="Trazado_918376" data-name="Trazado 918376" d="M83.975,69.775H53.805A2.741,2.741,0,0,1,51.07,67.04v-48.3A2.741,2.741,0,0,1,53.805,16H91.158a2.741,2.741,0,0,1,2.735,2.735V45.81a1.788,1.788,0,0,1,.194.082,2.586,2.586,0,0,1,1.059,1.161,2.229,2.229,0,0,0,.378.537,2.2,2.2,0,0,0,.6.251,2.125,2.125,0,0,1,1.82,2.266,2.267,2.267,0,0,0,.116.655,2.356,2.356,0,0,0,.445.494,2.645,2.645,0,0,1,.907,1.314,2.706,2.706,0,0,1-.219,1.58,1.453,1.453,0,0,0,0,1.413,2.708,2.708,0,0,1,.219,1.58,2.644,2.644,0,0,1-.907,1.314,2.359,2.359,0,0,0-.445.494,2.267,2.267,0,0,0-.116.655,2.125,2.125,0,0,1-1.82,2.265,2.2,2.2,0,0,0-.6.251.677.677,0,0,0-.1.1v9.7a.754.754,0,0,1-1.191.615L89.7,69.922l-4.6,2.651a.751.751,0,0,1-1.125-.651h0Z" transform="translate(-51.07 -16)" fill="#121209" fill-rule="evenodd"/>
        <path id="Trazado_918377" data-name="Trazado 918377" d="M320.082,274.141c-.023,0-.046,0-.07,0H320c-.125.007-.27.025-.415.043a3.335,3.335,0,0,1-1.214,0,3.408,3.408,0,0,1-1.074-.524.913.913,0,0,0-1.434,0,3.418,3.418,0,0,1-1.074.524,3.335,3.335,0,0,1-1.214,0,1.811,1.811,0,0,0-.721-.015,1.749,1.749,0,0,0-.423.571,2.544,2.544,0,0,1-1.825,1.46,1.688,1.688,0,0,0-.638.283,1.708,1.708,0,0,0-.138.686,2.6,2.6,0,0,1-1.021,2.1,1.748,1.748,0,0,0-.476.566.943.943,0,0,0,.065.421.77.77,0,0,1,.027.085c.025.075.052.153.08.231a2.82,2.82,0,0,1,0,2.415,1.885,1.885,0,0,0-.173.731c0,.014.009.028.013.042a2.113,2.113,0,0,0,.465.53,2.6,2.6,0,0,1,1.021,2.1.761.761,0,0,0,.776.969,3.216,3.216,0,0,1,1.093.51,2.434,2.434,0,0,1,.511.586.761.761,0,0,1,.07.11c.051.083.1.168.151.253a1.736,1.736,0,0,0,.423.571,1.8,1.8,0,0,0,.721-.015,3.336,3.336,0,0,1,1.214,0,3.411,3.411,0,0,1,1.074.524.913.913,0,0,0,1.434,0,3.421,3.421,0,0,1,1.074-.524,3.336,3.336,0,0,1,1.214,0,1.81,1.81,0,0,0,.721.015,1.749,1.749,0,0,0,.423-.571c.05-.085.1-.169.151-.253a.752.752,0,0,1,.07-.111,2.432,2.432,0,0,1,.511-.586,3.214,3.214,0,0,1,1.093-.51.761.761,0,0,0,.777-.969,2.6,2.6,0,0,1,1.021-2.1,1.749,1.749,0,0,0,.476-.566,1.82,1.82,0,0,0-.172-.737,2.819,2.819,0,0,1,0-2.415,1.824,1.824,0,0,0,.172-.737,1.748,1.748,0,0,0-.476-.566,2.6,2.6,0,0,1-1.021-2.1.761.761,0,0,0-.777-.969,2.544,2.544,0,0,1-1.825-1.46,1.735,1.735,0,0,0-.423-.571.526.526,0,0,0-.219-.031Zm-.527,4.664a4.217,4.217,0,1,1-2.982-1.235A4.217,4.217,0,0,1,319.555,278.8Zm-6.1,3.685a.753.753,0,1,1,.931-1.184l1.6,1.261,2.672-3.086a.752.752,0,1,1,1.137.984l-3.114,3.6,0,.006a.753.753,0,0,1-1.058.127Zm3.12-6.429a5.726,5.726,0,1,1-4.048,1.677,5.725,5.725,0,0,1,4.048-1.677Z" transform="translate(-277.943 -242.931)" fill="#f8ae22" fill-rule="evenodd"/>
        <path id="Trazado_918378" data-name="Trazado 918378" d="M125.9,81.981V60.107a3.073,3.073,0,0,1-2.207-2.207H95.178a3.073,3.073,0,0,1-2.207,2.207V99.573a3.073,3.073,0,0,1,2.207,2.207h25.75v-2.6a.67.67,0,0,0-.1-.1,2.2,2.2,0,0,0-.6-.251,2.125,2.125,0,0,1-1.82-2.265,2.267,2.267,0,0,0-.116-.655,2.359,2.359,0,0,0-.445-.494,4.422,4.422,0,0,1-.613-.666H98.094a.754.754,0,0,1,0-1.509h18.844a5.575,5.575,0,0,1,.218-.719,2.514,2.514,0,0,0,.183-.706,1.732,1.732,0,0,0-.111-.5H98.094a.754.754,0,1,1,0-1.508h18.8a1.809,1.809,0,0,1,.043-.281,2.646,2.646,0,0,1,.907-1.314,2.356,2.356,0,0,0,.445-.494,2.267,2.267,0,0,0,.116-.655,2.125,2.125,0,0,1,1.82-2.266,2.2,2.2,0,0,0,.6-.251,2.226,2.226,0,0,0,.378-.537,2.153,2.153,0,0,1,2.623-1.293,2.384,2.384,0,0,0,.69.028,2.443,2.443,0,0,0,.6-.324,4.837,4.837,0,0,1,.776-.435ZM98.652,64.331a.754.754,0,0,1,.664-.4h9.366V62.91a.754.754,0,1,1,1.509,0v1.026h9.366a.754.754,0,0,1,.664.4l3.456,5.536a.751.751,0,0,1,.14.437,4.259,4.259,0,1,1-8.518,0,.751.751,0,0,1,.14-.437l2.761-4.423H110.19V71.89h.711a.754.754,0,0,1,.754.754v5.982H113.6a.754.754,0,0,1,.754.754v2.176h1.208a.754.754,0,0,1,.754.754v2.931a.754.754,0,0,1-.754.754H103.31a.754.754,0,0,1-.754-.754V82.311a.754.754,0,0,1,.754-.754h1.208V79.381a.754.754,0,0,1,.754-.754h1.944V72.644a.754.754,0,0,1,.754-.754h.711V65.444h-8.008l2.761,4.423a.751.751,0,0,1,.139.437,4.259,4.259,0,1,1-8.518,0,.751.751,0,0,1,.14-.437Z" transform="translate(-88.023 -52.953)" fill="#e6e4e5" fill-rule="evenodd"/>
        <path id="Trazado_918379" data-name="Trazado 918379" d="M168.014,81.981V60.107a3.073,3.073,0,0,1-2.207-2.207H141.654a37.879,37.879,0,0,0-.93,6.5l.042-.068a.754.754,0,0,1,.664-.4H150.8V62.91a.754.754,0,0,1,1.509,0v1.026h9.366a.754.754,0,0,1,.664.4l3.456,5.536a.751.751,0,0,1,.14.437,4.259,4.259,0,1,1-8.518,0,.751.751,0,0,1,.139-.437l2.761-4.423H152.3V71.89h.711a.754.754,0,0,1,.754.754v5.982h1.944a.754.754,0,0,1,.754.754v2.176h1.208a.754.754,0,0,1,.754.754v2.931a.754.754,0,0,1-.754.754H146.037a37.953,37.953,0,0,0,2.611,3.807h10.361a1.808,1.808,0,0,1,.043-.281,2.646,2.646,0,0,1,.907-1.314,2.356,2.356,0,0,0,.445-.494,2.267,2.267,0,0,0,.116-.655,2.125,2.125,0,0,1,1.82-2.266,2.2,2.2,0,0,0,.6-.251,2.226,2.226,0,0,0,.378-.537,2.153,2.153,0,0,1,2.623-1.293,2.385,2.385,0,0,0,.69.028,2.444,2.444,0,0,0,.6-.324,4.837,4.837,0,0,1,.776-.435Zm-4.971,19.128V99.177a.67.67,0,0,0-.1-.1,2.2,2.2,0,0,0-.6-.251,2.125,2.125,0,0,1-1.82-2.265,2.267,2.267,0,0,0-.116-.655,2.359,2.359,0,0,0-.445-.494,4.423,4.423,0,0,1-.613-.666h-6.087a37.914,37.914,0,0,0,9.785,6.367Zm-11.374-7.876h7.383a5.571,5.571,0,0,1,.218-.719,2.514,2.514,0,0,0,.183-.706,1.732,1.732,0,0,0-.111-.5h-9.459q.858.992,1.784,1.922Zm-7-9.722a37.611,37.611,0,0,1-3.154-8.948,4.259,4.259,0,0,0,4.172-4.258.751.751,0,0,0-.139-.437l-2.762-4.424H150.8V71.89h-.71a.754.754,0,0,0-.754.754v5.982h-1.944a.754.754,0,0,0-.754.754v2.176h-1.208a.754.754,0,0,0-.754.754Z" transform="translate(-130.138 -52.953)" fill="#fff" fill-rule="evenodd"/>
        <path id="Trazado_918380" data-name="Trazado 918380" d="M95.242,77.6H68.832a.754.754,0,0,1-.754-.754A1.554,1.554,0,0,0,66.531,75.3a.754.754,0,0,1-.754-.754V33.762a.754.754,0,0,1,.754-.754,1.554,1.554,0,0,0,1.548-1.547.754.754,0,0,1,.754-.754H98.666a.754.754,0,0,1,.754.754,1.554,1.554,0,0,0,1.547,1.547.754.754,0,0,1,.754.754V56.3a4.841,4.841,0,0,1,.776.435,2.443,2.443,0,0,0,.6.324,1.841,1.841,0,0,0,.551-.012V30a1.232,1.232,0,0,0-1.227-1.227H65.073A1.232,1.232,0,0,0,63.846,30v48.3a1.232,1.232,0,0,0,1.227,1.227h30.17Z" transform="translate(-62.337 -27.267)" fill="#6ca5da" fill-rule="evenodd"/>
        <path id="Trazado_918381" data-name="Trazado 918381" d="M151.871,30.706H176.3a.754.754,0,0,1,.754.754,1.554,1.554,0,0,0,1.547,1.547.754.754,0,0,1,.754.754V56.3a4.841,4.841,0,0,1,.776.435,2.444,2.444,0,0,0,.6.324,1.841,1.841,0,0,0,.551-.012V30a1.232,1.232,0,0,0-1.227-1.227H152.462q-.321.954-.591,1.93Z" transform="translate(-139.969 -27.267)" fill="#80b6e3" fill-rule="evenodd"/>
        <path id="Trazado_918382" data-name="Trazado 918382" d="M342.517,423.287v5.042l3.833-2.211a.751.751,0,0,1,.759-.006l3.843,2.217V421.6a2.85,2.85,0,0,1-1.393.059,2.383,2.383,0,0,0-.69-.029,2.442,2.442,0,0,0-.6.324,2.279,2.279,0,0,1-3.061,0,2.442,2.442,0,0,0-.6-.324,2.385,2.385,0,0,0-.69.028,2.852,2.852,0,0,1-1.393-.059Z" transform="translate(-308.103 -373.708)" fill="#4276ba" fill-rule="evenodd"/>
        <path id="Trazado_918383" data-name="Trazado 918383" d="M350.95,424.763V421.6a2.851,2.851,0,0,1-1.393.059,2.383,2.383,0,0,0-.69-.028,2.441,2.441,0,0,0-.6.324,2.279,2.279,0,0,1-3.061,0,2.441,2.441,0,0,0-.6-.324,2.383,2.383,0,0,0-.69.028,2.854,2.854,0,0,1-1.393-.059v.9A37.61,37.61,0,0,0,350.95,424.763Z" transform="translate(-308.103 -373.708)" fill="#5284c3" fill-rule="evenodd"/>
        <path id="Trazado_918384" data-name="Trazado 918384" d="M304.233,130.886l-2.146-3.438-2.146,3.438Z" transform="translate(-270.555 -114.289)" fill="#fff" fill-rule="evenodd"/>
        <path id="Trazado_918385" data-name="Trazado 918385" d="M132.815,130.886l-2.146-3.438-2.146,3.438Z" transform="translate(-119.378 -114.289)" fill="#fff" fill-rule="evenodd"/>
        <path id="Trazado_918386" data-name="Trazado 918386" d="M298.356,169.342H295.71a2.751,2.751,0,0,0,5.292,0Z" transform="translate(-266.824 -151.236)" fill="#f4b664" fill-rule="evenodd"/>
        <path id="Trazado_918387" data-name="Trazado 918387" d="M126.939,169.342h-2.646a2.751,2.751,0,0,0,5.291,0Z" transform="translate(-115.647 -151.236)" fill="#e3a244" fill-rule="evenodd"/>
        <path id="Trazado_918388" data-name="Trazado 918388" d="M142.979,169.342h-.5q.119,1,.289,1.988.1.008.209.008a2.752,2.752,0,0,0,2.646-2Z" transform="translate(-131.688 -151.236)" fill="#f4b664" fill-rule="evenodd"/>
        <path id="Trazado_918389" data-name="Trazado 918389" d="M203.534,247.633h6.819v-1.422h-6.819Z" transform="translate(-185.532 -219.028)" fill="#f4b664" fill-rule="evenodd"/>
        <path id="Trazado_918390" data-name="Trazado 918390" d="M197.661,272.452V271.03H186.918v1.422Z" transform="translate(-170.878 -240.917)" fill="#f4b664" fill-rule="evenodd"/>
      </g>
      <path id="Trazado_918391" data-name="Trazado 918391" d="M226.387,189.157h1.422v5.228h-1.422Z" transform="translate(-154.616 -152.711)" fill="#f4b664"/>
    </g>
  </g>
</svg>
