<svg xmlns="http://www.w3.org/2000/svg" xmlns:xlink="http://www.w3.org/1999/xlink" width="118" height="118" viewBox="0 0 118 118">
  <defs>
    <filter id="Trazado_874925" x="0" y="0" width="117.999" height="118" filterUnits="userSpaceOnUse">
      <feOffset dy="3" input="SourceAlpha"/>
      <feGaussianBlur stdDeviation="3" result="blur"/>
      <feFlood flood-opacity="0.161"/>
      <feComposite operator="in" in2="blur"/>
      <feComposite in="SourceGraphic"/>
    </filter>
  </defs>
  <g id="Grupo_1120260" data-name="Grupo 1120260" transform="translate(1578.217 2410.72)">
    <g id="Grupo_1111552" data-name="Grupo 1111552" transform="translate(-2377.717 -4921.877)">
      <g id="Grupo_1111316" data-name="Grupo 1111316" transform="translate(808.5 2517.157)">
        <g id="Grupo_1109835" data-name="Grupo 1109835" transform="translate(0 0)">
          <g id="Grupo_1107913" data-name="Grupo 1107913" transform="translate(0 0)">
            <g transform="matrix(1, 0, 0, 1, -9, -6)" filter="url(#Trazado_874925)">
              <g id="Trazado_874925-2" data-name="Trazado 874925" transform="translate(9 6)" fill="#bb965f" opacity="0.859">
                <path d="M 49.99972534179688 98.4998779296875 C 43.45164108276367 98.4998779296875 37.10022354125977 97.21776580810547 31.12189674377441 94.68914794921875 C 25.34676742553711 92.24647521972656 20.15985298156738 88.74925994873047 15.70523929595947 84.29464721679688 C 11.25062561035156 79.84004974365234 7.753411293029785 74.65313720703125 5.310725212097168 68.87800598144531 C 2.782111167907715 62.89969253540039 1.499996781349182 56.54829406738281 1.499996781349182 50.00022125244141 C 1.499996781349182 43.45157623291016 2.782111167907715 37.10017776489258 5.310725212097168 31.12186431884766 C 7.753411293029785 25.34673500061035 11.25062561035156 20.15983581542969 15.70523929595947 15.70522117614746 C 20.15985298156738 11.25062084197998 25.34676742553711 7.753406524658203 31.12189674377441 5.31073522567749 C 37.10022354125977 2.782120943069458 43.45164108276367 1.500006556510925 49.99972534179688 1.500006556510925 C 56.54780960083008 1.500006556510925 62.89922714233398 2.782120943069458 68.87755584716797 5.31073522567749 C 74.65267944335938 7.753406524658203 79.839599609375 11.25062084197998 84.29421234130859 15.70522117614746 C 88.74882507324219 20.15983581542969 92.24604034423828 25.34673500061035 94.68872833251953 31.12186431884766 C 97.21733856201172 37.10017776489258 98.49945068359375 43.45157623291016 98.49945068359375 49.99964904785156 C 98.49945068359375 56.54829406738281 97.21733856201172 62.89969253540039 94.68872833251953 68.87800598144531 C 92.24604034423828 74.65313720703125 88.74882507324219 79.84004974365234 84.29421234130859 84.29464721679688 C 79.839599609375 88.74925994873047 74.65267944335938 92.24647521972656 68.87755584716797 94.68914794921875 C 62.89922714233398 97.21776580810547 56.54780960083008 98.4998779296875 49.99972534179688 98.4998779296875 Z" stroke="none"/>
                <path d="M 49.99972534179688 3 C 43.65348052978516 3 37.49866485595703 4.242240905761719 31.70623016357422 6.692230224609375 C 26.10989379882812 9.059272766113281 21.08323669433594 12.44853210449219 16.76589202880859 16.76587677001953 C 12.44855499267578 21.08321380615234 9.059295654296875 26.10985565185547 6.692230224609375 31.70618438720703 C 4.24224853515625 37.49859619140625 3 43.65341186523438 3 50.00022888183594 C 3 56.34645843505859 4.24224853515625 62.50127410888672 6.692230224609375 68.29368591308594 C 9.059295654296875 73.8900146484375 12.44855499267578 78.91665649414062 16.76589202880859 83.23399353027344 C 21.08323669433594 87.55132293701172 26.10989379882812 90.94059753417969 31.70623016357422 93.30764007568359 C 37.49866485595703 95.75762939453125 43.65348052978516 96.99987030029297 49.99972534179688 96.99987030029297 C 56.34597015380859 96.99987030029297 62.50078582763672 95.75762939453125 68.293212890625 93.30764007568359 C 73.88955688476562 90.94059753417969 78.91621398925781 87.55132293701172 83.23355865478516 83.23399353027344 C 87.55089569091797 78.91665649414062 90.94015502929688 73.8900146484375 93.30722045898438 68.29368591308594 C 95.7572021484375 62.50127410888672 96.99945068359375 56.34645843505859 96.99945068359375 49.99964141845703 C 96.99945068359375 43.65341186523438 95.7572021484375 37.49859619140625 93.30722045898438 31.70618438720703 C 90.94015502929688 26.10985565185547 87.55089569091797 21.08321380615234 83.23355865478516 16.76587677001953 C 78.91621398925781 12.44853210449219 73.88955688476562 9.059272766113281 68.293212890625 6.692230224609375 C 62.50078582763672 4.242240905761719 56.34597015380859 3 49.99972534179688 3 M 49.99972534179688 0 C 77.61381530761719 0 99.99945068359375 22.38559722900391 99.99945068359375 49.99964141845703 L 99.99945068359375 50.00022888183594 C 99.99945068359375 77.6142578125 77.61381530761719 99.99987030029297 49.99972534179688 99.99987030029297 C 22.38563537597656 99.99987030029297 0 77.6142578125 0 50.00022888183594 L 0 49.99964141845703 C 0 22.38559722900391 22.38563537597656 0 49.99972534179688 0 Z" stroke="none" fill="#fff"/>
              </g>
            </g>
            <g id="Trazado_874923" data-name="Trazado 874923" transform="translate(0 0)" fill="none">
              <path d="M50,0a50,50,0,0,1,50,50h0A50,50,0,0,1,0,50H0A50,50,0,0,1,50,0Z" stroke="none"/>
              <path d="M 49.99972534179688 3 C 43.65348052978516 3 37.49866485595703 4.242240905761719 31.70623016357422 6.692230224609375 C 26.10989379882812 9.059272766113281 21.08323669433594 12.44853210449219 16.76589202880859 16.76587677001953 C 12.44855499267578 21.08321380615234 9.059295654296875 26.10985565185547 6.692230224609375 31.70618438720703 C 4.24224853515625 37.49859619140625 3 43.65341186523438 3 50.00022888183594 C 3 56.34645843505859 4.24224853515625 62.50127410888672 6.692230224609375 68.29368591308594 C 9.059295654296875 73.8900146484375 12.44855499267578 78.91665649414062 16.76589202880859 83.23399353027344 C 21.08323669433594 87.55132293701172 26.10989379882812 90.94059753417969 31.70623016357422 93.30764007568359 C 37.49866485595703 95.75762939453125 43.65348052978516 96.99987030029297 49.99972534179688 96.99987030029297 C 56.34597015380859 96.99987030029297 62.50078582763672 95.75762939453125 68.293212890625 93.30764007568359 C 73.88955688476562 90.94059753417969 78.91621398925781 87.55132293701172 83.23355865478516 83.23399353027344 C 87.55089569091797 78.91665649414062 90.94015502929688 73.8900146484375 93.30722045898438 68.29368591308594 C 95.7572021484375 62.50127410888672 96.99945068359375 56.34645843505859 96.99945068359375 49.99964141845703 C 96.99945068359375 43.65341186523438 95.7572021484375 37.49859619140625 93.30722045898438 31.70618438720703 C 90.94015502929688 26.10985565185547 87.55089569091797 21.08321380615234 83.23355865478516 16.76587677001953 C 78.91621398925781 12.44853210449219 73.88955688476562 9.059272766113281 68.293212890625 6.692230224609375 C 62.50078582763672 4.242240905761719 56.34597015380859 3 49.99972534179688 3 M 49.99972534179688 0 C 77.61381530761719 0 99.99945068359375 22.38559722900391 99.99945068359375 49.99964141845703 L 99.99945068359375 50.00022888183594 C 99.99945068359375 77.6142578125 77.61381530761719 99.99987030029297 49.99972534179688 99.99987030029297 C 22.38563537597656 99.99987030029297 0 77.6142578125 0 50.00022888183594 L 0 49.99964141845703 C 0 22.38559722900391 22.38563537597656 0 49.99972534179688 0 Z" stroke="none" fill="#fff"/>
            </g>
          </g>
        </g>
      </g>
    </g>
    <g id="Grupo_1120259" data-name="Grupo 1120259" transform="translate(-1546.592 -2382.293)">
      <path id="Trazado_918392" data-name="Trazado 918392" d="M96.016,40.008V89.627H132.77V40.008Zm0,0" transform="translate(-84.996 -35.406)" fill="#348fd9"/>
      <path id="Trazado_918393" data-name="Trazado 918393" d="M130.933,46.44,124.5,40.008H96.016V87.789h34.917Zm0,0" transform="translate(-84.996 -35.406)" fill="#3086cd"/>
      <path id="Trazado_918394" data-name="Trazado 918394" d="M64.016,57.627H100.77V16.278L92.5,8.008H64.016Zm0,0" transform="translate(-56.672 -7.081)" fill="#60d1e0"/>
      <path id="Trazado_918395" data-name="Trazado 918395" d="M320.285,16.278h-8.27V8.008Zm0,0" transform="translate(-276.187 -7.081)" fill="#9fe4ed"/>
      <path id="Trazado_918396" data-name="Trazado 918396" d="M150.338,176.008,120.016,206.33h30.323Zm0,0" transform="translate(-106.24 -155.785)" fill="#5ac6d4"/>
      <path id="Trazado_918397" data-name="Trazado 918397" d="M203.312,337.2H184.934a.919.919,0,0,1-.919-.919v-7.351a.919.919,0,0,1,.919-.919h18.377a.919.919,0,0,1,.919.919v7.351A.919.919,0,0,1,203.312,337.2Zm-17.458-1.838h16.54v-5.513h-16.54Zm0,0" transform="translate(-162.889 -290.326)" fill="#348fd9"/>
      <path id="Trazado_918398" data-name="Trazado 918398" d="M216.016,360.008h3.675v1.838h-3.675Zm0,0" transform="translate(-191.213 -318.651)" fill="#348fd9"/>
      <path id="Trazado_918399" data-name="Trazado 918399" d="M264.016,360.008h7.351v1.838h-7.351Zm0,0" transform="translate(-233.7 -318.651)" fill="#348fd9"/>
      <path id="Trazado_918400" data-name="Trazado 918400" d="M248.016,221.524l5.513-5.513,12.864,12.864-5.513,5.513Zm0,0" transform="translate(-219.538 -191.194)" fill="#e0e0de"/>
      <path id="Trazado_918401" data-name="Trazado 918401" d="M317.8,144.008a5.513,5.513,0,0,0-5.513,5.513v.459l-8.27,8.729,4.594,4.594,8.729-8.27h.459a5.513,5.513,0,1,0,0-11.026Zm0,0" transform="translate(-269.106 -127.46)" fill="#95573a"/>
      <path id="Trazado_918402" data-name="Trazado 918402" d="M224.02,266.76,226.776,264l12.864,12.864-2.757,2.757Zm0,0" transform="translate(-198.298 -233.674)" fill="#ebebe9"/>
      <path id="Trazado_918403" data-name="Trazado 918403" d="M337.84,148.246c-3.807,9.627-9.755,14.223-13.734,16.523l2.287,2.287,8.729-8.27h.459a5.513,5.513,0,0,0,2.259-10.54Zm0,0" transform="translate(-286.888 -131.212)" fill="#8f4d2e"/>
      <path id="Trazado_918404" data-name="Trazado 918404" d="M192.144,59.111a1.562,1.562,0,0,0-2.085-2.085,1.562,1.562,0,0,0-2.946,0,1.562,1.562,0,0,0-2.08,2.085,1.562,1.562,0,0,0,0,2.946,1.562,1.562,0,0,0,2.085,2.08,1.562,1.562,0,0,0,2.946,0,1.562,1.562,0,0,0,2.08-2.085,1.562,1.562,0,0,0,0-2.941Zm0,0" transform="translate(-162.868 -49.547)" fill="#ffb531"/>
      <path id="Trazado_918405" data-name="Trazado 918405" d="M79.636,66.114a10.1,10.1,0,0,0-15.621-8.465V74.58a10.1,10.1,0,0,0,15.621-8.465Zm0,0" transform="translate(-56.672 -49.567)" fill="#5ac6d4"/>
      <path id="Trazado_918406" data-name="Trazado 918406" d="M328.016,80.008h6.432v1.838h-6.432Zm0,0" transform="translate(-290.349 -70.811)" fill="#5ac6d4"/>
      <g id="Grupo_1120258" data-name="Grupo 1120258" transform="translate(11.938 18.385)">
        <path id="Trazado_918407" data-name="Trazado 918407" d="M152.016,232.008H161.2v1.838h-9.189Zm0,0" transform="translate(-146.502 -223.738)" fill="#3fb7c7"/>
        <path id="Trazado_918408" data-name="Trazado 918408" d="M104.016,264.008h11.026v1.838H104.016Zm0,0" transform="translate(-104.016 -252.063)" fill="#3fb7c7"/>
        <path id="Trazado_918409" data-name="Trazado 918409" d="M104.016,200.008h19.3v1.838h-19.3Zm0,0" transform="translate(-104.016 -195.413)" fill="#3fb7c7"/>
        <path id="Trazado_918410" data-name="Trazado 918410" d="M104.016,296.008h5.513v1.838h-5.513Zm0,0" transform="translate(-104.016 -280.387)" fill="#3fb7c7"/>
        <path id="Trazado_918411" data-name="Trazado 918411" d="M104.016,328.008h7.351v1.838h-7.351Zm0,0" transform="translate(-104.016 -308.712)" fill="#3fb7c7"/>
        <path id="Trazado_918412" data-name="Trazado 918412" d="M104.016,360.008h7.351v1.838h-7.351Zm0,0" transform="translate(-104.016 -337.036)" fill="#3fb7c7"/>
        <path id="Trazado_918413" data-name="Trazado 918413" d="M104.016,392.008h7.351v1.838h-7.351Zm0,0" transform="translate(-104.016 -365.361)" fill="#3fb7c7"/>
        <path id="Trazado_918414" data-name="Trazado 918414" d="M104.016,232.008h3.675v1.838h-3.675Zm0,0" transform="translate(-104.016 -223.738)" fill="#3fb7c7"/>
        <path id="Trazado_918415" data-name="Trazado 918415" d="M168.016,296.008h3.675v1.838h-3.675Zm0,0" transform="translate(-160.665 -280.387)" fill="#3fb7c7"/>
        <path id="Trazado_918416" data-name="Trazado 918416" d="M168.016,160.008h3.675v1.838h-3.675Zm0,0" transform="translate(-160.665 -160.008)" fill="#3fb7c7"/>
        <path id="Trazado_918417" data-name="Trazado 918417" d="M216.016,160.008h7.351v1.838h-7.351Zm0,0" transform="translate(-203.151 -160.008)" fill="#3fb7c7"/>
      </g>
      <path id="Trazado_918418" data-name="Trazado 918418" d="M28.231,50.115A10.108,10.108,0,1,1,18.123,40.008,10.107,10.107,0,0,1,28.231,50.115Zm0,0" transform="translate(-7.104 -35.406)" fill="#7eb457"/>
      <path id="Trazado_918419" data-name="Trazado 918419" d="M37.766,93.109a.919.919,0,0,1-.65-.269l-2.757-2.757,1.3-1.3,2.107,2.107L46.3,82.352l1.3,1.3L38.415,92.84A.919.919,0,0,1,37.766,93.109Zm0,0" transform="translate(-30.422 -72.886)" fill="#ffb531"/>
      <path id="Trazado_918420" data-name="Trazado 918420" d="M192.52,111.266a9.987,9.987,0,0,0-.607-1.93A1.539,1.539,0,0,0,192.52,111.266Zm0,0" transform="translate(-169.765 -96.771)" fill="#f98500"/>
      <path id="Trazado_918421" data-name="Trazado 918421" d="M185.091,95.589a10.149,10.149,0,0,0-.941-1.679A1.529,1.529,0,0,0,185.091,95.589Zm0,0" transform="translate(-162.988 -83.117)" fill="#f98500"/>
      <path id="Trazado_918422" data-name="Trazado 918422" d="M388.61,42.115V32.927a.919.919,0,0,0-.919-.919h-3.675v1.838h2.757v8.27Zm0,0" transform="translate(-339.917 -28.325)"/>
      <path id="Trazado_918423" data-name="Trazado 918423" d="M56.016,240.008V262.98a.919.919,0,0,0,.919.919H93.689a.919.919,0,0,0,.919-.919v-6.432H92.77v5.513H57.853V240.008Zm0,0" transform="translate(-49.591 -212.434)"/>
      <path id="Trazado_918424" data-name="Trazado 918424" d="M85.8.1c-.029-.013-.056-.02-.086-.031a.913.913,0,0,0-.238-.048.351.351,0,0,0-.057-.014H56.934a.919.919,0,0,0-.919.919V2.764h1.838V1.846H84.5V9.2a.919.919,0,0,0,.919.919H92.77V14.71h1.838V9.2c0-.019-.01-.037-.011-.057a.9.9,0,0,0-.048-.238c-.01-.03-.018-.057-.031-.086a.913.913,0,0,0-.184-.269L86.065.277A.921.921,0,0,0,85.8.1Zm5.671,8.178H86.338V3.145Zm0,0" transform="translate(-49.591)"/>
      <path id="Trazado_918425" data-name="Trazado 918425" d="M184.016,328.927v7.351a.919.919,0,0,0,.919.919H196.88v-1.838H185.853v-5.513h4.594v-1.838h-5.513A.919.919,0,0,0,184.016,328.927Zm0,0" transform="translate(-162.889 -290.326)"/>
      <path id="Trazado_918426" data-name="Trazado 918426" d="M216.016,360.008h5.513v1.838h-5.513Zm0,0" transform="translate(-191.213 -318.651)"/>
      <path id="Trazado_918427" data-name="Trazado 918427" d="M133.689,136.008a6.44,6.44,0,0,0-6.432,6.432v.092l-4.686,4.947-2.934-2.934a.919.919,0,0,0-1.3,0l-8.27,8.27a.919.919,0,0,0,0,1.3l12.864,12.864a.919.919,0,0,0,1.3,0l2.757-2.757,4.864-4.862v14.321H96.016v1.838H132.77a.919.919,0,0,0,.919-.919V152.547h-1.838v4.214l-3.2-3.2,4.949-4.686h.092a6.432,6.432,0,0,0,0-12.864Zm-10.108,29.023-11.565-11.565,1.457-1.457,11.565,11.565Zm6.97-6.97-4.214,4.214L114.773,150.71l4.214-4.214,2.319,2.319L119.239,151a.919.919,0,0,0,.018,1.286l4.594,4.594a.919.919,0,0,0,1.281.017l2.182-2.067Zm3.137-11.026h-.459a.921.921,0,0,0-.632.252l-8.08,7.651-3.326-3.326,7.654-8.08a.919.919,0,0,0,.248-.632v-.459a4.594,4.594,0,1,1,4.594,4.594Zm0,0" transform="translate(-84.996 -120.379)"/>
      <path id="Trazado_918428" data-name="Trazado 918428" d="M152.016,232.008H161.2v1.838h-9.189Zm0,0" transform="translate(-134.564 -205.353)"/>
      <path id="Trazado_918429" data-name="Trazado 918429" d="M104.016,264.008h11.026v1.838H104.016Zm0,0" transform="translate(-92.078 -233.677)"/>
      <path id="Trazado_918430" data-name="Trazado 918430" d="M176.016,200.008h11.026v1.838H176.016Zm0,0" transform="translate(-155.808 -177.028)"/>
      <path id="Trazado_918431" data-name="Trazado 918431" d="M104.016,296.008h5.513v1.838h-5.513Zm0,0" transform="translate(-92.078 -262.002)"/>
      <path id="Trazado_918432" data-name="Trazado 918432" d="M104.016,328.008h7.351v1.838h-7.351Zm0,0" transform="translate(-92.078 -290.326)"/>
      <path id="Trazado_918433" data-name="Trazado 918433" d="M104.016,360.008h7.351v1.838h-7.351Zm0,0" transform="translate(-92.078 -318.651)"/>
      <path id="Trazado_918434" data-name="Trazado 918434" d="M104.016,392.008h7.351v1.838h-7.351Zm0,0" transform="translate(-92.078 -346.975)"/>
      <path id="Trazado_918435" data-name="Trazado 918435" d="M104.016,232.008h3.675v1.838h-3.675Zm0,0" transform="translate(-92.078 -205.353)"/>
      <path id="Trazado_918436" data-name="Trazado 918436" d="M168.016,296.008h3.675v1.838h-3.675Zm0,0" transform="translate(-148.727 -262.002)"/>
      <path id="Trazado_918437" data-name="Trazado 918437" d="M200.016,160.008H209.2v1.838h-9.189Zm0,0" transform="translate(-177.051 -141.623)"/>
      <path id="Trazado_918438" data-name="Trazado 918438" d="M11.019,54.048A11.027,11.027,0,0,0,22.026,43.408a2.429,2.429,0,0,0,1.782.557,2.492,2.492,0,0,0,3.826,0,2.493,2.493,0,0,0,2.705-2.705,2.492,2.492,0,0,0,0-3.826,2.493,2.493,0,0,0-2.705-2.705,2.492,2.492,0,0,0-3.826,0A2.493,2.493,0,0,0,21.1,37.433a2.386,2.386,0,0,0-.367.379,11.027,11.027,0,1,0-9.716,16.236ZM22.474,38.74A.918.918,0,0,0,23,37.48a.643.643,0,0,1,.859-.859.918.918,0,0,0,1.259-.522.643.643,0,0,1,1.213,0,.919.919,0,0,0,1.26.522.643.643,0,0,1,.859.859.918.918,0,0,0,.522,1.259.643.643,0,0,1,0,1.213.919.919,0,0,0-.522,1.26.618.618,0,0,1-.127.735.626.626,0,0,1-.735.127.918.918,0,0,0-1.259.522.643.643,0,0,1-1.213,0,.917.917,0,0,0-.515-.541.937.937,0,0,0-.352-.07.9.9,0,0,0-.393.092.643.643,0,0,1-.859-.859.919.919,0,0,0-.522-1.26.643.643,0,0,1,0-1.213ZM11.019,33.833a9.189,9.189,0,1,1-9.189,9.189A9.189,9.189,0,0,1,11.019,33.833Zm0,0" transform="translate(0 -28.312)"/>
      <path id="Trazado_918439" data-name="Trazado 918439" d="M37.116,92.84a.919.919,0,0,0,1.3,0L47.6,83.651l-1.3-1.3-8.539,8.539-2.107-2.107-1.3,1.3Zm0,0" transform="translate(-30.422 -72.886)"/>
    </g>
  </g>
</svg>
