<svg xmlns="http://www.w3.org/2000/svg" xmlns:xlink="http://www.w3.org/1999/xlink" width="118" height="118" viewBox="0 0 118 118">
  <defs>
    <filter id="Trazado_874925" x="0" y="0" width="117.999" height="118" filterUnits="userSpaceOnUse">
      <feOffset dy="3" input="SourceAlpha"/>
      <feGaussianBlur stdDeviation="3" result="blur"/>
      <feFlood flood-opacity="0.161"/>
      <feComposite operator="in" in2="blur"/>
      <feComposite in="SourceGraphic"/>
    </filter>
  </defs>
  <g id="Grupo_1120261" data-name="Grupo 1120261" transform="translate(1264 2411)">
    <g id="Grupo_1111553" data-name="Grupo 1111553" transform="translate(-2063.5 -4922.157)">
      <g id="Grupo_1111316" data-name="Grupo 1111316" transform="translate(808.5 2517.157)">
        <g id="Grupo_1109835" data-name="Grupo 1109835" transform="translate(0 0)">
          <g id="Grupo_1107913" data-name="Grupo 1107913" transform="translate(0 0)">
            <g transform="matrix(1, 0, 0, 1, -9, -6)" filter="url(#Trazado_874925)">
              <g id="Trazado_874925-2" data-name="Trazado 874925" transform="translate(9 6)" fill="#bb965f" opacity="0.859">
                <path d="M 49.99972534179688 98.4998779296875 C 43.45164108276367 98.4998779296875 37.10022354125977 97.21776580810547 31.12189674377441 94.68914794921875 C 25.34676742553711 92.24647521972656 20.15985298156738 88.74925994873047 15.70523929595947 84.29464721679688 C 11.25062561035156 79.84004974365234 7.753411293029785 74.65313720703125 5.310725212097168 68.87800598144531 C 2.782111167907715 62.89969253540039 1.499996781349182 56.54829406738281 1.499996781349182 50.00022125244141 C 1.499996781349182 43.45157623291016 2.782111167907715 37.10017776489258 5.310725212097168 31.12186431884766 C 7.753411293029785 25.34673500061035 11.25062561035156 20.15983581542969 15.70523929595947 15.70522117614746 C 20.15985298156738 11.25062084197998 25.34676742553711 7.753406524658203 31.12189674377441 5.31073522567749 C 37.10022354125977 2.782120943069458 43.45164108276367 1.500006556510925 49.99972534179688 1.500006556510925 C 56.54780960083008 1.500006556510925 62.89922714233398 2.782120943069458 68.87755584716797 5.31073522567749 C 74.65267944335938 7.753406524658203 79.839599609375 11.25062084197998 84.29421234130859 15.70522117614746 C 88.74882507324219 20.15983581542969 92.24604034423828 25.34673500061035 94.68872833251953 31.12186431884766 C 97.21733856201172 37.10017776489258 98.49945068359375 43.45157623291016 98.49945068359375 49.99964904785156 C 98.49945068359375 56.54829406738281 97.21733856201172 62.89969253540039 94.68872833251953 68.87800598144531 C 92.24604034423828 74.65313720703125 88.74882507324219 79.84004974365234 84.29421234130859 84.29464721679688 C 79.839599609375 88.74925994873047 74.65267944335938 92.24647521972656 68.87755584716797 94.68914794921875 C 62.89922714233398 97.21776580810547 56.54780960083008 98.4998779296875 49.99972534179688 98.4998779296875 Z" stroke="none"/>
                <path d="M 49.99972534179688 3 C 43.65348052978516 3 37.49866485595703 4.242240905761719 31.70623016357422 6.692230224609375 C 26.10989379882812 9.059272766113281 21.08323669433594 12.44853210449219 16.76589202880859 16.76587677001953 C 12.44855499267578 21.08321380615234 9.059295654296875 26.10985565185547 6.692230224609375 31.70618438720703 C 4.24224853515625 37.49859619140625 3 43.65341186523438 3 50.00022888183594 C 3 56.34645843505859 4.24224853515625 62.50127410888672 6.692230224609375 68.29368591308594 C 9.059295654296875 73.8900146484375 12.44855499267578 78.91665649414062 16.76589202880859 83.23399353027344 C 21.08323669433594 87.55132293701172 26.10989379882812 90.94059753417969 31.70623016357422 93.30764007568359 C 37.49866485595703 95.75762939453125 43.65348052978516 96.99987030029297 49.99972534179688 96.99987030029297 C 56.34597015380859 96.99987030029297 62.50078582763672 95.75762939453125 68.293212890625 93.30764007568359 C 73.88955688476562 90.94059753417969 78.91621398925781 87.55132293701172 83.23355865478516 83.23399353027344 C 87.55089569091797 78.91665649414062 90.94015502929688 73.8900146484375 93.30722045898438 68.29368591308594 C 95.7572021484375 62.50127410888672 96.99945068359375 56.34645843505859 96.99945068359375 49.99964141845703 C 96.99945068359375 43.65341186523438 95.7572021484375 37.49859619140625 93.30722045898438 31.70618438720703 C 90.94015502929688 26.10985565185547 87.55089569091797 21.08321380615234 83.23355865478516 16.76587677001953 C 78.91621398925781 12.44853210449219 73.88955688476562 9.059272766113281 68.293212890625 6.692230224609375 C 62.50078582763672 4.242240905761719 56.34597015380859 3 49.99972534179688 3 M 49.99972534179688 0 C 77.61381530761719 0 99.99945068359375 22.38559722900391 99.99945068359375 49.99964141845703 L 99.99945068359375 50.00022888183594 C 99.99945068359375 77.6142578125 77.61381530761719 99.99987030029297 49.99972534179688 99.99987030029297 C 22.38563537597656 99.99987030029297 0 77.6142578125 0 50.00022888183594 L 0 49.99964141845703 C 0 22.38559722900391 22.38563537597656 0 49.99972534179688 0 Z" stroke="none" fill="#fff"/>
              </g>
            </g>
            <g id="Trazado_874923" data-name="Trazado 874923" transform="translate(0 0)" fill="none">
              <path d="M50,0a50,50,0,0,1,50,50h0A50,50,0,0,1,0,50H0A50,50,0,0,1,50,0Z" stroke="none"/>
              <path d="M 49.99972534179688 3 C 43.65348052978516 3 37.49866485595703 4.242240905761719 31.70623016357422 6.692230224609375 C 26.10989379882812 9.059272766113281 21.08323669433594 12.44853210449219 16.76589202880859 16.76587677001953 C 12.44855499267578 21.08321380615234 9.059295654296875 26.10985565185547 6.692230224609375 31.70618438720703 C 4.24224853515625 37.49859619140625 3 43.65341186523438 3 50.00022888183594 C 3 56.34645843505859 4.24224853515625 62.50127410888672 6.692230224609375 68.29368591308594 C 9.059295654296875 73.8900146484375 12.44855499267578 78.91665649414062 16.76589202880859 83.23399353027344 C 21.08323669433594 87.55132293701172 26.10989379882812 90.94059753417969 31.70623016357422 93.30764007568359 C 37.49866485595703 95.75762939453125 43.65348052978516 96.99987030029297 49.99972534179688 96.99987030029297 C 56.34597015380859 96.99987030029297 62.50078582763672 95.75762939453125 68.293212890625 93.30764007568359 C 73.88955688476562 90.94059753417969 78.91621398925781 87.55132293701172 83.23355865478516 83.23399353027344 C 87.55089569091797 78.91665649414062 90.94015502929688 73.8900146484375 93.30722045898438 68.29368591308594 C 95.7572021484375 62.50127410888672 96.99945068359375 56.34645843505859 96.99945068359375 49.99964141845703 C 96.99945068359375 43.65341186523438 95.7572021484375 37.49859619140625 93.30722045898438 31.70618438720703 C 90.94015502929688 26.10985565185547 87.55089569091797 21.08321380615234 83.23355865478516 16.76587677001953 C 78.91621398925781 12.44853210449219 73.88955688476562 9.059272766113281 68.293212890625 6.692230224609375 C 62.50078582763672 4.242240905761719 56.34597015380859 3 49.99972534179688 3 M 49.99972534179688 0 C 77.61381530761719 0 99.99945068359375 22.38559722900391 99.99945068359375 49.99964141845703 L 99.99945068359375 50.00022888183594 C 99.99945068359375 77.6142578125 77.61381530761719 99.99987030029297 49.99972534179688 99.99987030029297 C 22.38563537597656 99.99987030029297 0 77.6142578125 0 50.00022888183594 L 0 49.99964141845703 C 0 22.38559722900391 22.38563537597656 0 49.99972534179688 0 Z" stroke="none" fill="#fff"/>
            </g>
          </g>
        </g>
      </g>
    </g>
    <g id="filled_outline" data-name="filled outline" transform="translate(-1244.188 -2401)">
      <path id="Trazado_918440" data-name="Trazado 918440" d="M421.513,127.88a3.952,3.952,0,0,0,.728-.037,1.646,1.646,0,1,0,2.741,1.819,1.435,1.435,0,0,1,.719-.58A2.5,2.5,0,0,0,427.287,127v-.009a1.4,1.4,0,0,1,.777-1.146,2.966,2.966,0,1,0-3.528-4.609,3.939,3.939,0,1,0-3.023,6.646Z" transform="translate(-355.951 -92.962)" fill="#435b2c"/>
      <path id="Trazado_918441" data-name="Trazado 918441" d="M137.2,33.08a3.212,3.212,0,0,0-1.292-.011.728.728,0,0,1-.817-.462,2.811,2.811,0,0,0-4.814-.8.736.736,0,0,1-.875.211,2.813,2.813,0,0,0-3.92,2.052l0,.024a.724.724,0,0,1-.508.581,2.007,2.007,0,0,0,.959,3.9.722.722,0,0,1,.817.45,2.811,2.811,0,0,0,4.1,1.361.755.755,0,0,1,.629-.076,2.412,2.412,0,0,0,2.724-.943.729.729,0,0,1,.919-.26A3.213,3.213,0,1,0,137.2,33.08Z" transform="translate(-102.691 -16.16)" fill="#435b2c"/>
      <path id="Trazado_918442" data-name="Trazado 918442" d="M66.935,256H77.081a34.745,34.745,0,0,1-16.067,28.973,33.987,33.987,0,0,1-18.474,5.568c-12.711,0-25.136-7.451-30.7-18.39A35.512,35.512,0,0,1,8,256Z" transform="translate(-3.281 -210.016)" fill="#4492b9"/>
      <path id="Trazado_918443" data-name="Trazado 918443" d="M341.11,257.559a1.366,1.366,0,0,1-.237,1.524,1.221,1.221,0,0,1-1.784,0,1.233,1.233,0,0,0-.893-.386,1.207,1.207,0,0,0-.564.139,3.362,3.362,0,0,1-1.564.387,3.424,3.424,0,0,1-2.476-1.074,1.944,1.944,0,0,1-.532-1.347,1.974,1.974,0,0,1,.169-.8h7.1a4.269,4.269,0,0,1,.269.482Z" transform="translate(-283.067 -210.016)" fill="#b9c759"/>
      <path id="Trazado_918444" data-name="Trazado 918444" d="M371.8,256h10.146a34.745,34.745,0,0,1-16.067,28.973c-.024-.751-.033-1.721-.033-1.964a6.684,6.684,0,0,1,.057-.879,1.093,1.093,0,0,0-1.171-1.26l-1.2.138a1.086,1.086,0,0,1-.135.008,1.17,1.17,0,0,1-.753-.279,1.3,1.3,0,0,1,.1-2.043l.946-.638a4.024,4.024,0,0,0,.933-.88,1.65,1.65,0,0,0,.338-1,1.632,1.632,0,0,0-.575-1.254,1.623,1.623,0,0,1-.564-1.078l-.337-3.224a2.317,2.317,0,0,1-.013-.24A2.275,2.275,0,0,1,363.94,269a2.052,2.052,0,0,1,2.085-.773l2.109.476a3.97,3.97,0,0,0,.886.1,4.042,4.042,0,0,0,1.749-.4,2.29,2.29,0,0,0,.446-3.776,2.224,2.224,0,0,1-.535-.669,2.3,2.3,0,0,1-.251-.831,3.942,3.942,0,0,1-.021-.4,3.743,3.743,0,0,1,1.62-3.109,1.547,1.547,0,0,0,.528-1.894Z" transform="translate(-308.147 -210.016)" fill="#b9c759"/>
      <path id="Trazado_918445" data-name="Trazado 918445" d="M45.233,260.827a3.368,3.368,0,0,1,.141.958,3.2,3.2,0,0,1-2.157,3.066A3.924,3.924,0,0,0,40.609,269l.359,3.567a2.67,2.67,0,0,0,.416,1.188,2.515,2.515,0,0,0,.9.843,5.166,5.166,0,0,1,1.329,1.043,5.561,5.561,0,0,1,1.448,3.761,5.726,5.726,0,0,1-.067.87,2.138,2.138,0,0,1-.818,1.383l-1.6,1.206a1.411,1.411,0,0,1-.857.291,1.48,1.48,0,0,1-1.409-1.082,2.7,2.7,0,0,1,.171-1.979,1.226,1.226,0,0,0,.131-.553A1.207,1.207,0,0,0,40,278.479a5.749,5.749,0,0,1-2.124-2.031,6.091,6.091,0,0,1-.893-2.864,4.221,4.221,0,0,0-.2-1.092,3.96,3.96,0,0,0-3.067-2.706l-1.448-.247c-.056-.01-.111-.018-.167-.024A3.821,3.821,0,0,0,28.6,271l-1.538,1.989a2.792,2.792,0,0,1-.588.565,2.665,2.665,0,0,1-.719.363,2.75,2.75,0,0,1-3.536-2.721v-.123a3.473,3.473,0,0,0-.607-1.969,16.251,16.251,0,0,0-5.559-5.046,1.185,1.185,0,0,0-1.117-.013,4.307,4.307,0,0,0-1.518,1.32,4.58,4.58,0,0,0-.851,2.589,16.014,16.014,0,0,1-.728,4.191A35.512,35.512,0,0,1,8,256H42.623a3.264,3.264,0,0,0,.836,1.862l.252.274a6.84,6.84,0,0,1,.911,1.252A7.026,7.026,0,0,1,45.233,260.827Z" transform="translate(-3.281 -210.016)" fill="#b9c759"/>
      <path id="Trazado_918446" data-name="Trazado 918446" d="M297.342,334.634h0a1.845,1.845,0,0,0,0-2.526h0a1.787,1.787,0,0,1-.32-.464l-.907-1.9a1.249,1.249,0,0,1,.216-1.393h0a1.117,1.117,0,0,1,1.63,0l.007.007a1.94,1.94,0,0,0,1.4.608h0a2.031,2.031,0,0,1,1.984,2.076v.085a1.261,1.261,0,0,0,.662,1.121h0a1.281,1.281,0,0,1,0,2.242l-.305.16a1.227,1.227,0,0,0-.536.561l-.251.526a2.465,2.465,0,0,1-3.036,1.316h0A1.491,1.491,0,0,1,297.342,334.634Z" transform="translate(-251.162 -271.987)" fill="#b9c759"/>
      <rect id="Rectángulo_405726" data-name="Rectángulo 405726" width="69.082" height="2.228" transform="translate(4.719 43.756)" fill="#7d5020"/>
      <path id="Trazado_918447" data-name="Trazado 918447" d="M194.7,57.616q-.12-.007-.238,0a1.518,1.518,0,0,1-1.434-.965,4.211,4.211,0,0,0-6.618-1.66,2.028,2.028,0,0,1-1.951.389,3.311,3.311,0,0,0-4.335,2.689l0,.032a.869.869,0,0,1-.995.76,3.309,3.309,0,0,0-1.292,6.487.585.585,0,0,1,.458.588c0,.015,0,.031,0,.046a3.008,3.008,0,0,0,4.946,2.357,1.238,1.238,0,0,1,1.269-.212,4.214,4.214,0,0,0,3.972-.41,1.233,1.233,0,0,1,1.6.167,3.611,3.611,0,0,0,6.109-3.492,1.545,1.545,0,0,1,.409-1.578,3.008,3.008,0,0,0-1.894-5.2Z" transform="translate(-147.266 -36.152)" fill="#b9c759"/>
      <path id="Trazado_918448" data-name="Trazado 918448" d="M37.293,50.537a5.048,5.048,0,0,0-2.012.283A1.144,1.144,0,0,1,33.9,50.29a4.42,4.42,0,0,0-7.67-.128,1.157,1.157,0,0,1-1.312.531,4.422,4.422,0,0,0-5.62,4.1c0,.013,0,.026,0,.039a1.138,1.138,0,0,1-.655,1.022,3.156,3.156,0,0,0,2.392,5.838,1.135,1.135,0,0,1,1.375.511A4.419,4.419,0,0,0,29.1,63.37a1.187,1.187,0,0,1,.961-.265,3.792,3.792,0,0,0,4.017-2.1,1.145,1.145,0,0,1,1.37-.617,5.051,5.051,0,1,0,1.846-9.855Z" transform="translate(-10.837 -30.988)" fill="#678b3d"/>
      <path id="Trazado_918449" data-name="Trazado 918449" d="M307.264,39.192a6.305,6.305,0,0,0-.917.714,2.624,2.624,0,1,0-5.242.129,2.287,2.287,0,0,1-.409,1.415,3.982,3.982,0,0,0-.167,4.17l.007.013a2.239,2.239,0,0,1,.033,2.206,4.727,4.727,0,1,0,8.819,2.8,6.279,6.279,0,1,0-2.124-11.442Z" transform="translate(-254.575 -21.722)" fill="#b9c759"/>
      <path id="Trazado_918450" data-name="Trazado 918450" d="M376.1,64.082a4.263,4.263,0,0,1-1.5-.838.966.966,0,0,0-1.247,0,3.733,3.733,0,0,1-6.077-2.248.977.977,0,0,0-.87-.82,3.735,3.735,0,0,1-3.169-4.947l.011-.031a.961.961,0,0,0-.2-1,2.666,2.666,0,0,1,3.67-3.863.959.959,0,0,0,1.239.019,3.733,3.733,0,0,1,5.621,1.127,1,1,0,0,0,.675.5,3.2,3.2,0,0,1,2.521,2.88.968.968,0,0,0,.89.905,4.266,4.266,0,1,1-1.564,8.323Z" transform="translate(-308.218 -32.293)" fill="#678b3d"/>
      <path id="Trazado_918451" data-name="Trazado 918451" d="M275.964,91.224c0-.016,0-.032,0-.047a3.119,3.119,0,0,0-5.129-2.444,1.284,1.284,0,0,1-1.316.22,4.37,4.37,0,0,0-4.12.425,1.279,1.279,0,0,1-1.659-.174,3.744,3.744,0,0,0-6.336,3.621,1.6,1.6,0,0,1-.424,1.636,3.12,3.12,0,0,0,1.964,5.388q.125.007.247,0a1.575,1.575,0,0,1,1.487,1,4.367,4.367,0,0,0,6.863,1.721,2.1,2.1,0,0,1,2.024-.4,3.433,3.433,0,0,0,4.5-2.789l0-.033a.9.9,0,0,1,1.032-.788,3.432,3.432,0,0,0,1.341-6.728A.607.607,0,0,1,275.964,91.224Z" transform="translate(-216.739 -65.414)" fill="#435b2c"/>
      <path id="Trazado_918452" data-name="Trazado 918452" d="M377.524,133.8a3.129,3.129,0,0,0-1.811.764,2.2,2.2,0,0,1-1.834.492,3.143,3.143,0,0,0-3.119,1.3,2.285,2.285,0,0,1-1.71.977,2.331,2.331,0,0,0-.321.047,2.284,2.284,0,1,0,1.572,4.245,3.766,3.766,0,0,1,2.469-.386,3.148,3.148,0,0,0,2.406-.543,3.5,3.5,0,0,1,2.339-.636,3.141,3.141,0,1,0,.009-6.262Z" transform="translate(-312.23 -104.823)" fill="#b9c759"/>
      <path id="Trazado_918453" data-name="Trazado 918453" d="M38.569,25.323l-1.787.139a3.911,3.911,0,0,0-3.362,2.543l-.2.537.567.076a3.91,3.91,0,0,0,3.82-1.781Z" transform="translate(-24.989 -11.467)" fill="#b9c759"/>
      <path id="Trazado_918454" data-name="Trazado 918454" d="M149.672,102.69a6.1,6.1,0,0,0-3.814.4,4.288,4.288,0,0,1-3.7-.118,6.133,6.133,0,0,0-6.56.665,4.459,4.459,0,0,1-3.746.857,4.547,4.547,0,0,0-.627-.093,4.457,4.457,0,1,0,.534,8.815,7.346,7.346,0,0,1,4.828.677,6.14,6.14,0,0,0,4.8.348,6.82,6.82,0,0,1,4.727.135,6.129,6.129,0,1,0,3.56-11.687Z" transform="translate(-105.214 -77.739)" fill="#678b3d"/>
      <path id="Trazado_918455" data-name="Trazado 918455" d="M233.574,16l.962,1.512a3.911,3.911,0,0,0,3.823,1.776l.567-.077-.2-.536a3.911,3.911,0,0,0-3.366-2.538Z" transform="translate(-197.438 -3.443)" fill="#b9c759"/>
      <path id="Trazado_918456" data-name="Trazado 918456" d="M91.446,126.95a3.684,3.684,0,0,0,1.161-.345.762.762,0,0,1,.856.108,2.98,2.98,0,0,0,4.526-.74.769.769,0,0,1,.727-.39,3.241,3.241,0,0,0,.8-.062,2.452,2.452,0,0,0,2.159-2.479l0-.019a.557.557,0,0,1,.3-.556,1.532,1.532,0,0,0,.842-1.647,1.733,1.733,0,0,0-1.951-1.12,2.293,2.293,0,0,0-.793.234.759.759,0,0,1-.853-.1,2.8,2.8,0,0,0-2.442-.656,3.022,3.022,0,0,0-1.592.8.832.832,0,0,1-.543.226,2.813,2.813,0,0,0-.359.04,2.355,2.355,0,0,0-1.828,1.379.747.747,0,0,1-.754.437,3.67,3.67,0,0,0-.92.047c-1.711.3-2.877,1.717-2.509,3.1A2.8,2.8,0,0,0,91.446,126.95Z" transform="translate(-72.313 -92.208)" fill="#b9c759"/>
      <path id="Trazado_918457" data-name="Trazado 918457" d="M64,83.2l1.131,1.391a3.911,3.911,0,0,0,4,1.322l.554-.142-.26-.51a3.911,3.911,0,0,0-3.637-2.131Z" transform="translate(-51.482 -61.219)" fill="#b9c759"/>
      <path id="Trazado_918458" data-name="Trazado 918458" d="M222.953,120.1l-1.787.139a3.91,3.91,0,0,0-3.362,2.542l-.2.537.567.076a3.91,3.91,0,0,0,3.82-1.781Z" transform="translate(-183.694 -93.044)" fill="#b9c759"/>
      <path id="Trazado_918459" data-name="Trazado 918459" d="M453.918,40l-1.395,1.126a3.91,3.91,0,0,0-1.336,4l.139.555.511-.258a3.911,3.911,0,0,0,2.144-3.629Z" transform="translate(-384.64 -24.1)" fill="#b9c759"/>
      <path id="Trazado_918460" data-name="Trazado 918460" d="M299.026,328.319a.708.708,0,0,1-.363-.628v-.085a2.591,2.591,0,0,0-2.541-2.632,1.381,1.381,0,0,1-1.007-.443,1.674,1.674,0,0,0-2.436,0,1.807,1.807,0,0,0-.316,2.018l.907,1.9a2.339,2.339,0,0,0,.42.609,1.284,1.284,0,0,1,0,1.756,2.051,2.051,0,0,0-.506,1.907,1.986,1.986,0,0,0,1.271,1.425,2.935,2.935,0,0,0,.968.164,3.069,3.069,0,0,0,2.754-1.766l.251-.526a.674.674,0,0,1,.291-.306l.3-.16a1.837,1.837,0,0,0,0-3.23Zm-.517,2.242-.305.16a1.794,1.794,0,0,0-.78.814l-.251.526a1.9,1.9,0,0,1-2.35,1.031.865.865,0,0,1-.555-.634.942.942,0,0,1,.228-.876,2.411,2.411,0,0,0,0-3.3,1.218,1.218,0,0,1-.22-.32l-.907-1.9a.7.7,0,0,1,.116-.767.568.568,0,0,1,.412-.181.574.574,0,0,1,.419.188,2.513,2.513,0,0,0,1.805.78,1.476,1.476,0,0,1,1.426,1.518v.085a1.809,1.809,0,0,0,.961,1.616.724.724,0,0,1,0,1.255Z" transform="translate(-247.887 -268.55)"/>
      <path id="Trazado_918461" data-name="Trazado 918461" d="M73.827,55.914H66.585V50.491a2.161,2.161,0,0,0,.636.235,2.213,2.213,0,0,0,2.312-1.02.891.891,0,0,1,.446-.35,3.043,3.043,0,0,0,1.937-2.536c0-.007,0-.015,0-.022h0a.848.848,0,0,1,.463-.7,3.515,3.515,0,0,0,1.581-4.845,4.827,4.827,0,0,0-4.449-5.629.415.415,0,0,1-.37-.393,3.748,3.748,0,0,0-.485-1.573,4.478,4.478,0,0,0,1.267-3.273L69.861,28.6a.557.557,0,0,0-.907-.414L67.56,29.308a4.471,4.471,0,0,0-1.542,2.47.436.436,0,0,1-.137-.15,4.284,4.284,0,0,0-5.819-1.719,6.834,6.834,0,0,0-7.648-.193q-.109.07-.216.144a3.182,3.182,0,0,0-6.2,1.2,1.689,1.689,0,0,1-.237.941,4.768,4.768,0,0,0-6.947-.88,1.462,1.462,0,0,1-1.415.288l-.035-.011a3.767,3.767,0,0,0-4.235-2.324.172.172,0,0,1-.188-.11,3.367,3.367,0,0,0-5.766-.957.177.177,0,0,1-.217.054,3.416,3.416,0,0,0-.991-.273,3.38,3.38,0,0,0-3.643,2.469A4.972,4.972,0,0,0,14.947,31.6a.6.6,0,0,1-.682.281,4.982,4.982,0,0,0-6.329,4.6c0,.02,0,.041,0,.061a.587.587,0,0,1-.324.524,3.712,3.712,0,0,0,2.813,6.868.555.555,0,0,1,.451.035,7.738,7.738,0,0,0,1.689,4.777l2.813,3.516v3.646H4.745a.557.557,0,0,0-.557.557V58.7a36.3,36.3,0,0,0,3.9,16.4A33.752,33.752,0,0,0,20.97,88.625,35.7,35.7,0,0,0,39.286,93.8a33.83,33.83,0,0,0,13.342-2.759,36.052,36.052,0,0,0,11.187-7.518A34.681,34.681,0,0,0,74.384,58.7V56.471A.557.557,0,0,0,73.827,55.914Zm-18.385,0v-6l.05-.022a2.836,2.836,0,0,0,2.868.11,3.186,3.186,0,0,1,2.1-.329A3.676,3.676,0,0,0,62.43,49.5c.088.124.179.246.273.364l2.767,3.458v2.591ZM16.49,47.347a3.817,3.817,0,0,0,2.739.663c.1-.013.206-.031.308-.052a6.6,6.6,0,0,1-1.2,2.325L16.49,52.6Zm4.185-.873a1.365,1.365,0,0,0-.6.138,3.111,3.111,0,0,1-.985.292h0a2.269,2.269,0,0,1-2.568-1.332,1.577,1.577,0,0,1,.227-1.265,2.755,2.755,0,0,1,1.842-1.146,3.107,3.107,0,0,1,.78-.04,1.309,1.309,0,0,0,1.318-.8,1.81,1.81,0,0,1,1.4-1.027,2.237,2.237,0,0,1,.289-.032,1.38,1.38,0,0,0,.908-.386,2.477,2.477,0,0,1,1.3-.646,2.252,2.252,0,0,1,1.954.5,1.308,1.308,0,0,0,1.5.2,1.73,1.73,0,0,1,.6-.177,1.2,1.2,0,0,1,1.349.7.985.985,0,0,1-.579,1.033,1.112,1.112,0,0,0-.573,1.11l0,.02c.108.811-.662,1.645-1.717,1.859a2.7,2.7,0,0,1-.665.052,1.326,1.326,0,0,0-1.254.7,2.269,2.269,0,0,1-1.651,1.125,2.235,2.235,0,0,1-1.977-.527A1.256,1.256,0,0,0,20.676,46.474Zm5.526.253a.228.228,0,0,1,.2-.081,3.8,3.8,0,0,0,.942-.073,2.994,2.994,0,0,0,2.6-3.1.118.118,0,0,1,.022-.016,1.965,1.965,0,0,0-.386-3.713,5.054,5.054,0,0,0,1.173-.693,5.512,5.512,0,0,1,4.287-1.138,5.587,5.587,0,0,1,1.676.533,4.833,4.833,0,0,0,4.183.129,5.553,5.553,0,0,1,3.468-.364,5.572,5.572,0,1,1-3.237,10.625,7.365,7.365,0,0,0-5.114-.144,5.575,5.575,0,0,1-4.363-.317,7.961,7.961,0,0,0-5.2-.728,3.829,3.829,0,0,1-1.053.064A2.97,2.97,0,0,0,26.2,46.728ZM46.62,36.884A1.848,1.848,0,0,0,49,37.14a3.807,3.807,0,0,1,3.593-.37,1.837,1.837,0,0,0,1.887-.309,2.569,2.569,0,0,1,4.214,2c0,.021,0,.042,0,.062a1.166,1.166,0,0,0,.9,1.16A3.1,3.1,0,0,1,61.811,42.4l-.04,0A3.7,3.7,0,0,0,58.1,43.928a1.73,1.73,0,0,1-1.294.74,2.883,2.883,0,0,0-.4.058,2.84,2.84,0,0,0-1.791,4.291,2.811,2.811,0,0,1-.536.076,2.881,2.881,0,0,1-1.049-.148,2.648,2.648,0,0,0-2.56.506,3.807,3.807,0,0,1-2.45.892,3.766,3.766,0,0,1-2.058-.6,6.763,6.763,0,0,0,1.293-.78A6.686,6.686,0,0,0,41.74,37.128a3.176,3.176,0,0,1,4.879-.244Zm18.851,12V51.54l-1.9-2.371c-.054-.068-.105-.139-.157-.209a2.949,2.949,0,0,1,1.848-.455c.061.005.122.008.184.01,0,.038,0,.075,0,.113a2.133,2.133,0,0,0,.025.259Zm.474-1.511a2.6,2.6,0,0,1-.587.018,4.047,4.047,0,0,0-2.712.74,2.592,2.592,0,0,1-1.979.446,4.35,4.35,0,0,0-2.833.442,1.727,1.727,0,1,1-1.19-3.209,1.763,1.763,0,0,1,.245-.036,2.84,2.84,0,0,0,2.125-1.215,2.558,2.558,0,0,1,1.75-1.082,2.592,2.592,0,0,1,.374-.027,2.565,2.565,0,0,1,.442.038,2.75,2.75,0,0,0,2.3-.622,2.568,2.568,0,0,1,1.49-.628,2.584,2.584,0,0,1,.578,5.133ZM38.729,49.995l-.375-.577q.187,0,.375.011ZM28.8,48.65v1.776l-1.431-1.788a6.726,6.726,0,0,1,1.431.012Zm1.114.226a6.9,6.9,0,0,1,1.223.489,6.689,6.689,0,0,0,5.237.38,5.968,5.968,0,0,1,.73-.2l1.621,2.494v3.874h-8.81Zm9.924.718a6.485,6.485,0,0,1,.876.277,6.748,6.748,0,0,0,1.464.395,6.819,6.819,0,0,0,1.02.077,6.614,6.614,0,0,0,1.5-.174,4.862,4.862,0,0,0,3.315,1.287,4.923,4.923,0,0,0,2.964-.994v5.451H39.844Zm12.256.332a1.478,1.478,0,0,1,.575.073,3.971,3.971,0,0,0,1.452.206c.068,0,.135-.008.2-.014v5.722H52.1Zm19.8-4.833a1.954,1.954,0,0,0-1.089,1.582c0,.007,0,.014,0,.021a1.934,1.934,0,0,1-1.232,1.619,1.979,1.979,0,0,0-1,.811,1.089,1.089,0,0,1-2-.328v-.422a3.7,3.7,0,0,0,2.663-3.118,4.9,4.9,0,0,0,4.018-2.218A2.4,2.4,0,0,1,71.9,45.094Zm-3.64-14.918.528-.426.024.677a3.364,3.364,0,0,1-1.726,3.053,3.364,3.364,0,0,1,1.174-3.3Zm-5,.539A3.169,3.169,0,0,1,64.9,32.16a1.569,1.569,0,0,0,1,.767,4.442,4.442,0,0,0,.132.949l.139.555a.557.557,0,0,0,.792.361l.511-.258c.1-.051.2-.107.3-.165a2.641,2.641,0,0,1,.26.951,1.534,1.534,0,0,0,1.411,1.418,3.71,3.71,0,0,1,3.119,5.284,3.749,3.749,0,0,1-3.351,2.121h0a3.728,3.728,0,0,0-3.935-3.008,3.675,3.675,0,0,0-2.131.9,1.54,1.54,0,0,1-.229.163,4.205,4.205,0,0,0-3.063-3.6.049.049,0,0,1-.042-.047c0-.005,0-.018,0-.025s0-.02,0-.03a3.7,3.7,0,0,0-3.644-3.746,3.607,3.607,0,0,0-.567.041,1.453,1.453,0,0,0-.343-.566,2.108,2.108,0,0,1,2.9-3.055,1.511,1.511,0,0,0,1.96.038,3.187,3.187,0,0,1,3.143-.486Zm-16.151.276a2.067,2.067,0,1,1,4.129-.1.557.557,0,0,0,.939.416,5.7,5.7,0,0,1,3.269-1.514A3.218,3.218,0,0,0,54.466,35a.338.338,0,0,1,.07.108,3.69,3.69,0,0,0-.772.5.727.727,0,0,1-.743.131,4.922,4.922,0,0,0-4.646.479.727.727,0,0,1-.937-.091,4.294,4.294,0,0,0-1.378-1,3.454,3.454,0,0,1,.549-2.377A2.813,2.813,0,0,0,47.112,30.991Zm-7.58.987a3.653,3.653,0,0,1,5.634,1.2,4.584,4.584,0,0,0-.25,1.618,4.281,4.281,0,0,0-4.705,2.86,3.745,3.745,0,0,1-3-.2,6.673,6.673,0,0,0-5.445-.252c0-.1-.005-.191-.012-.286a5.561,5.561,0,0,0-.152-.965c.072.005.132.012.191.022a1.424,1.424,0,0,0,.23.019,1.4,1.4,0,0,0,.84-.281,1.452,1.452,0,0,0,.567-.976l0-.028a2.754,2.754,0,0,1,3.606-2.236,2.569,2.569,0,0,0,2.487-.491Zm-16.178-1.22.005-.029a2.26,2.26,0,0,1,2.479-1.83,2.291,2.291,0,0,1,.664.182,1.3,1.3,0,0,0,1.537-.365,2.253,2.253,0,0,1,3.86.641,1.279,1.279,0,0,0,1.448.814A2.653,2.653,0,0,1,36,31.215h-.01a3.86,3.86,0,0,0-3.658,3.337l-.005.04a.327.327,0,0,1-.129.224.288.288,0,0,1-.224.056,4.751,4.751,0,0,0-.783-.047,5.609,5.609,0,0,0-6.912-2.8.587.587,0,0,1-.7-.274,4.979,4.979,0,0,0-.373-.578A1.286,1.286,0,0,0,23.354,30.759Zm-.543-.129-.087-.011,0,0ZM10.031,42.9a2.6,2.6,0,0,1-1.968-4.807,1.707,1.707,0,0,0,.984-1.515V36.56c0-.008,0-.015,0-.022a3.867,3.867,0,0,1,3.74-3.724,3.81,3.81,0,0,1,1.17.142,1.722,1.722,0,0,0,1.945-.781,3.861,3.861,0,0,1,6.7.113,1.711,1.711,0,0,0,2.052.785,4.493,4.493,0,0,1,5.977,4.7,6.623,6.623,0,0,0-.572.4,3.906,3.906,0,0,1-3.278.752,5.154,5.154,0,0,0-.706-.107,4.994,4.994,0,0,0-3.8,1.334,3.427,3.427,0,0,0-.384.044,2.9,2.9,0,0,0-2.252,1.73.209.209,0,0,1-.191.079,4.214,4.214,0,0,0-1.06.054,3.827,3.827,0,0,0-2.586,1.643,2.716,2.716,0,0,0-.421,1.876,3.874,3.874,0,0,1-3.3-1.935A1.687,1.687,0,0,0,10.031,42.9Zm3.4,5.158a6.614,6.614,0,0,1-1.259-2.573,4.988,4.988,0,0,0,3.2,1.216v3.784ZM16.49,54.38l2.72-3.4A7.717,7.717,0,0,0,20.765,47.6l.013.006a3.227,3.227,0,0,0,2.31.9,3.774,3.774,0,0,0,.658-.058l.023,0a4.982,4.982,0,0,0,2.325.37L28.8,52.21v3.7H16.49ZM5.3,57.028H73.27v1.114H5.3Zm51.749,2.394.515,1.076a.814.814,0,0,1-.136.9.664.664,0,0,1-.979,0,1.778,1.778,0,0,0-2.118-.355,2.787,2.787,0,0,1-1.305.324,2.853,2.853,0,0,1-2.074-.9,1.384,1.384,0,0,1-.378-.962,1.443,1.443,0,0,1,.023-.245h6.367c.029.055.059.11.085.166ZM38.9,59.256a3.828,3.828,0,0,0,.89,1.682l.252.274a6.291,6.291,0,0,1,.836,1.148,6.49,6.49,0,0,1,.563,1.324,2.813,2.813,0,0,1,.118.8,2.63,2.63,0,0,1-1.773,2.536A4.5,4.5,0,0,0,36.8,71.76l.359,3.566a3.237,3.237,0,0,0,.5,1.435,3.084,3.084,0,0,0,1.1,1.029,4.6,4.6,0,0,1,1.186.931,4.979,4.979,0,0,1,1.3,3.384,5.179,5.179,0,0,1-.06.785,1.591,1.591,0,0,1-.6,1.024l-1.6,1.207a.857.857,0,0,1-.52.178.923.923,0,0,1-.875-.684,2.147,2.147,0,0,1,.135-1.57,1.794,1.794,0,0,0,.19-.8,1.759,1.759,0,0,0-.9-1.551A5.211,5.211,0,0,1,35.1,78.856a5.546,5.546,0,0,1-.81-2.6,4.776,4.776,0,0,0-.232-1.235,4.508,4.508,0,0,0-3.5-3.082l-1.447-.246c-.07-.012-.138-.022-.194-.028a4.351,4.351,0,0,0-4,1.7l-1.538,1.989a2.223,2.223,0,0,1-.469.451,2.105,2.105,0,0,1-.569.288,2.055,2.055,0,0,1-1.862-.3,2.336,2.336,0,0,1-.944-1.893v-.123a4.007,4.007,0,0,0-.706-2.285,16.888,16.888,0,0,0-5.749-5.218,1.772,1.772,0,0,0-1.642-.019,4.891,4.891,0,0,0-1.715,1.49,5.116,5.116,0,0,0-.955,2.905,14.984,14.984,0,0,1-.323,2.594,35.266,35.266,0,0,1-3.13-13.987Zm.382,33.427c-12.485,0-24.547-7.178-30.1-17.883a16.663,16.663,0,0,0,.684-4.131A4.006,4.006,0,0,1,10.62,68.4a3.77,3.77,0,0,1,1.322-1.151.638.638,0,0,1,.592.007A15.768,15.768,0,0,1,17.9,72.126a2.9,2.9,0,0,1,.509,1.653V73.9a3.452,3.452,0,0,0,1.4,2.793,3.156,3.156,0,0,0,2.861.457,3.226,3.226,0,0,0,.871-.44,3.342,3.342,0,0,0,.7-.678l1.538-1.989a3.253,3.253,0,0,1,3-1.274c.042,0,.085.011.129.019l1.448.247A3.4,3.4,0,0,1,33,75.367a3.662,3.662,0,0,1,.178.947,6.663,6.663,0,0,0,.975,3.126,6.326,6.326,0,0,0,2.331,2.227.646.646,0,0,1,.324.574.669.669,0,0,1-.072.3,3.262,3.262,0,0,0-.207,2.387,2.031,2.031,0,0,0,1.943,1.48,1.962,1.962,0,0,0,1.192-.4l1.6-1.206a2.714,2.714,0,0,0,1.033-1.744,6.306,6.306,0,0,0,.073-.955,6.091,6.091,0,0,0-1.6-4.137A5.711,5.711,0,0,0,39.3,76.812a1.969,1.969,0,0,1-.7-.658,2.121,2.121,0,0,1-.329-.94l-.359-3.567a3.375,3.375,0,0,1,2.226-3.568,3.741,3.741,0,0,0,2.542-3.6,3.926,3.926,0,0,0-.164-1.117,7.618,7.618,0,0,0-.661-1.555,7.409,7.409,0,0,0-.985-1.354l-.252-.274a2.685,2.685,0,0,1-.553-.927h9.413c-.008.081-.013.163-.013.245a2.493,2.493,0,0,0,.687,1.732,3.935,3.935,0,0,0,4.7.794.675.675,0,0,1,.794.139,1.778,1.778,0,0,0,2.589,0,1.924,1.924,0,0,0,.337-2.149l-.364-.761h5.109l.608,1.385A.992.992,0,0,1,63.6,61.85a4.284,4.284,0,0,0-1.865,3.571,4.547,4.547,0,0,0,.024.461,2.841,2.841,0,0,0,.311,1.033,2.764,2.764,0,0,0,.67.836,1.705,1.705,0,0,1,.6,1.312,1.675,1.675,0,0,1-.929,1.535,3.517,3.517,0,0,1-2.271.26l-2.108-.476a2.624,2.624,0,0,0-2.651.978,2.842,2.842,0,0,0-.577,1.715,2.9,2.9,0,0,0,.016.3l.337,3.223a2.168,2.168,0,0,0,.761,1.448,1.071,1.071,0,0,1,.376.826,1.1,1.1,0,0,1-.223.664,3.476,3.476,0,0,1-.8.758l-.945.638a1.853,1.853,0,0,0-.148,2.932,1.736,1.736,0,0,0,1.111.409,1.588,1.588,0,0,0,.2-.012l1.2-.138a.474.474,0,0,1,.4.147.581.581,0,0,1,.158.487,7.317,7.317,0,0,0-.062.952c0,.235.016,1.105.059,1.677A33.337,33.337,0,0,1,39.286,92.683Zm19.02-6.016c-.014-.362-.022-.739-.022-.959a6.185,6.185,0,0,1,.052-.806,1.689,1.689,0,0,0-.467-1.414,1.589,1.589,0,0,0-1.32-.474l-1.2.139a.609.609,0,0,1-.461-.144.722.722,0,0,1-.251-.6.706.706,0,0,1,.305-.557l.947-.639a4.586,4.586,0,0,0,1.063-1A2.221,2.221,0,0,0,57.4,78.87a2.181,2.181,0,0,0-.774-1.68,1.075,1.075,0,0,1-.369-.71l-.337-3.224a1.754,1.754,0,0,1-.01-.181,1.722,1.722,0,0,1,.348-1.039,1.489,1.489,0,0,1,1.52-.568l2.107.476a4.645,4.645,0,0,0,3-.342,2.78,2.78,0,0,0,1.561-2.54,2.816,2.816,0,0,0-1-2.165,1.651,1.651,0,0,1-.4-.5,1.734,1.734,0,0,1-.19-.63,3.378,3.378,0,0,1-.018-.347,3.172,3.172,0,0,1,1.375-2.647,2.094,2.094,0,0,0,.726-2.58l-.413-.937h8.731A34.3,34.3,0,0,1,58.306,86.667Z" transform="translate(0 -12.715)"/>
      <path id="Trazado_918462" data-name="Trazado 918462" d="M61.443,81.5a4.483,4.483,0,0,0,3.473,1.648,4.435,4.435,0,0,0,1.1-.138l.554-.142a.557.557,0,0,0,.358-.793l-.26-.51a4.478,4.478,0,0,0-4.155-2.435l-1.791.07a.557.557,0,0,0-.41.908Zm1.114-1.255a3.358,3.358,0,0,1,3.059,1.715A3.364,3.364,0,0,1,62.308,80.8l-.428-.526Z" transform="translate(-48.201 -57.777)"/>
      <path id="Trazado_918463" data-name="Trazado 918463" d="M29.892,25.651l.567.076a4.417,4.417,0,0,0,.587.039,4.484,4.484,0,0,0,3.777-2.074l.96-1.514a.557.557,0,0,0-.514-.854l-1.787.14a4.48,4.48,0,0,0-3.841,2.9l-.2.537a.557.557,0,0,0,.449.745Zm3.678-3.076.676-.053-.363.573a3.364,3.364,0,0,1-3.149,1.542,3.364,3.364,0,0,1,2.837-2.062Z" transform="translate(-21.708 -8.024)"/>
      <path id="Trazado_918464" data-name="Trazado 918464" d="M214.276,120.421l.567.076a4.473,4.473,0,0,0,4.365-2.036l.96-1.513a.557.557,0,0,0-.514-.854l-1.787.139a4.481,4.481,0,0,0-3.841,2.9l-.2.536a.557.557,0,0,0,.449.746Zm3.678-3.076.676-.053-.363.573a3.363,3.363,0,0,1-3.15,1.542A3.364,3.364,0,0,1,217.954,117.345Z" transform="translate(-180.411 -89.594)"/>
      <path id="Trazado_918465" data-name="Trazado 918465" d="M230.812,14.368a4.483,4.483,0,0,0,3.774,2.069,4.419,4.419,0,0,0,.594-.04l.566-.077a.557.557,0,0,0,.448-.746l-.2-.537a4.481,4.481,0,0,0-3.846-2.9L230.363,12a.557.557,0,0,0-.513.854Zm1.252-1.118a3.364,3.364,0,0,1,2.84,2.058,3.362,3.362,0,0,1-3.152-1.538l-.364-.572Z" transform="translate(-194.158 0)"/>
    </g>
  </g>
</svg>
