<svg xmlns="http://www.w3.org/2000/svg" xmlns:xlink="http://www.w3.org/1999/xlink" width="117.999" height="118" viewBox="0 0 117.999 118">
  <defs>
    <filter id="Trazado_874925" x="0" y="0" width="117.999" height="118" filterUnits="userSpaceOnUse">
      <feOffset dy="3" input="SourceAlpha"/>
      <feGaussianBlur stdDeviation="3" result="blur"/>
      <feFlood flood-opacity="0.161"/>
      <feComposite operator="in" in2="blur"/>
      <feComposite in="SourceGraphic"/>
    </filter>
  </defs>
  <g id="Grupo_1120280" data-name="Grupo 1120280" transform="translate(612.999 2410.72)">
    <g id="Grupo_1111552" data-name="Grupo 1111552" transform="translate(-1412.5 -4921.877)">
      <g id="Grupo_1111316" data-name="Grupo 1111316" transform="translate(808.5 2517.157)">
        <g id="Grupo_1109835" data-name="Grupo 1109835" transform="translate(0 0)">
          <g id="Grupo_1107913" data-name="Grupo 1107913" transform="translate(0 0)">
            <g transform="matrix(1, 0, 0, 1, -9, -6)" filter="url(#Trazado_874925)">
              <g id="Trazado_874925-2" data-name="Trazado 874925" transform="translate(9 6)" fill="#bb965f" opacity="0.859">
                <path d="M 49.99972534179688 98.4998779296875 C 43.45164108276367 98.4998779296875 37.10022354125977 97.21776580810547 31.12189674377441 94.68914794921875 C 25.34676742553711 92.24647521972656 20.15985298156738 88.74925994873047 15.70523929595947 84.29464721679688 C 11.25062561035156 79.84004974365234 7.753411293029785 74.65313720703125 5.310725212097168 68.87800598144531 C 2.782111167907715 62.89969253540039 1.499996781349182 56.54829406738281 1.499996781349182 50.00022125244141 C 1.499996781349182 43.45157623291016 2.782111167907715 37.10017776489258 5.310725212097168 31.12186431884766 C 7.753411293029785 25.34673500061035 11.25062561035156 20.15983581542969 15.70523929595947 15.70522117614746 C 20.15985298156738 11.25062084197998 25.34676742553711 7.753406524658203 31.12189674377441 5.31073522567749 C 37.10022354125977 2.782120943069458 43.45164108276367 1.500006556510925 49.99972534179688 1.500006556510925 C 56.54780960083008 1.500006556510925 62.89922714233398 2.782120943069458 68.87755584716797 5.31073522567749 C 74.65267944335938 7.753406524658203 79.839599609375 11.25062084197998 84.29421234130859 15.70522117614746 C 88.74882507324219 20.15983581542969 92.24604034423828 25.34673500061035 94.68872833251953 31.12186431884766 C 97.21733856201172 37.10017776489258 98.49945068359375 43.45157623291016 98.49945068359375 49.99964904785156 C 98.49945068359375 56.54829406738281 97.21733856201172 62.89969253540039 94.68872833251953 68.87800598144531 C 92.24604034423828 74.65313720703125 88.74882507324219 79.84004974365234 84.29421234130859 84.29464721679688 C 79.839599609375 88.74925994873047 74.65267944335938 92.24647521972656 68.87755584716797 94.68914794921875 C 62.89922714233398 97.21776580810547 56.54780960083008 98.4998779296875 49.99972534179688 98.4998779296875 Z" stroke="none"/>
                <path d="M 49.99972534179688 3 C 43.65348052978516 3 37.49866485595703 4.242240905761719 31.70623016357422 6.692230224609375 C 26.10989379882812 9.059272766113281 21.08323669433594 12.44853210449219 16.76589202880859 16.76587677001953 C 12.44855499267578 21.08321380615234 9.059295654296875 26.10985565185547 6.692230224609375 31.70618438720703 C 4.24224853515625 37.49859619140625 3 43.65341186523438 3 50.00022888183594 C 3 56.34645843505859 4.24224853515625 62.50127410888672 6.692230224609375 68.29368591308594 C 9.059295654296875 73.8900146484375 12.44855499267578 78.91665649414062 16.76589202880859 83.23399353027344 C 21.08323669433594 87.55132293701172 26.10989379882812 90.94059753417969 31.70623016357422 93.30764007568359 C 37.49866485595703 95.75762939453125 43.65348052978516 96.99987030029297 49.99972534179688 96.99987030029297 C 56.34597015380859 96.99987030029297 62.50078582763672 95.75762939453125 68.293212890625 93.30764007568359 C 73.88955688476562 90.94059753417969 78.91621398925781 87.55132293701172 83.23355865478516 83.23399353027344 C 87.55089569091797 78.91665649414062 90.94015502929688 73.8900146484375 93.30722045898438 68.29368591308594 C 95.7572021484375 62.50127410888672 96.99945068359375 56.34645843505859 96.99945068359375 49.99964141845703 C 96.99945068359375 43.65341186523438 95.7572021484375 37.49859619140625 93.30722045898438 31.70618438720703 C 90.94015502929688 26.10985565185547 87.55089569091797 21.08321380615234 83.23355865478516 16.76587677001953 C 78.91621398925781 12.44853210449219 73.88955688476562 9.059272766113281 68.293212890625 6.692230224609375 C 62.50078582763672 4.242240905761719 56.34597015380859 3 49.99972534179688 3 M 49.99972534179688 0 C 77.61381530761719 0 99.99945068359375 22.38559722900391 99.99945068359375 49.99964141845703 L 99.99945068359375 50.00022888183594 C 99.99945068359375 77.6142578125 77.61381530761719 99.99987030029297 49.99972534179688 99.99987030029297 C 22.38563537597656 99.99987030029297 0 77.6142578125 0 50.00022888183594 L 0 49.99964141845703 C 0 22.38559722900391 22.38563537597656 0 49.99972534179688 0 Z" stroke="none" fill="#fff"/>
              </g>
            </g>
            <g id="Trazado_874923" data-name="Trazado 874923" transform="translate(0 0)" fill="none">
              <path d="M50,0a50,50,0,0,1,50,50h0A50,50,0,0,1,0,50H0A50,50,0,0,1,50,0Z" stroke="none"/>
              <path d="M 49.99972534179688 3 C 43.65348052978516 3 37.49866485595703 4.242240905761719 31.70623016357422 6.692230224609375 C 26.10989379882812 9.059272766113281 21.08323669433594 12.44853210449219 16.76589202880859 16.76587677001953 C 12.44855499267578 21.08321380615234 9.059295654296875 26.10985565185547 6.692230224609375 31.70618438720703 C 4.24224853515625 37.49859619140625 3 43.65341186523438 3 50.00022888183594 C 3 56.34645843505859 4.24224853515625 62.50127410888672 6.692230224609375 68.29368591308594 C 9.059295654296875 73.8900146484375 12.44855499267578 78.91665649414062 16.76589202880859 83.23399353027344 C 21.08323669433594 87.55132293701172 26.10989379882812 90.94059753417969 31.70623016357422 93.30764007568359 C 37.49866485595703 95.75762939453125 43.65348052978516 96.99987030029297 49.99972534179688 96.99987030029297 C 56.34597015380859 96.99987030029297 62.50078582763672 95.75762939453125 68.293212890625 93.30764007568359 C 73.88955688476562 90.94059753417969 78.91621398925781 87.55132293701172 83.23355865478516 83.23399353027344 C 87.55089569091797 78.91665649414062 90.94015502929688 73.8900146484375 93.30722045898438 68.29368591308594 C 95.7572021484375 62.50127410888672 96.99945068359375 56.34645843505859 96.99945068359375 49.99964141845703 C 96.99945068359375 43.65341186523438 95.7572021484375 37.49859619140625 93.30722045898438 31.70618438720703 C 90.94015502929688 26.10985565185547 87.55089569091797 21.08321380615234 83.23355865478516 16.76587677001953 C 78.91621398925781 12.44853210449219 73.88955688476562 9.059272766113281 68.293212890625 6.692230224609375 C 62.50078582763672 4.242240905761719 56.34597015380859 3 49.99972534179688 3 M 49.99972534179688 0 C 77.61381530761719 0 99.99945068359375 22.38559722900391 99.99945068359375 49.99964141845703 L 99.99945068359375 50.00022888183594 C 99.99945068359375 77.6142578125 77.61381530761719 99.99987030029297 49.99972534179688 99.99987030029297 C 22.38563537597656 99.99987030029297 0 77.6142578125 0 50.00022888183594 L 0 49.99964141845703 C 0 22.38559722900391 22.38563537597656 0 49.99972534179688 0 Z" stroke="none" fill="#fff"/>
            </g>
          </g>
        </g>
      </g>
    </g>
    <g id="Grupo_1120279" data-name="Grupo 1120279" transform="translate(-586 -2387)">
      <g id="Grupo_1120277" data-name="Grupo 1120277">
        <g id="Grupo_1120263" data-name="Grupo 1120263">
          <path id="Trazado_918485" data-name="Trazado 918485" d="M24,12V26H2V12Z" fill="#b4dd7f"/>
        </g>
        <g id="Grupo_1120264" data-name="Grupo 1120264">
          <path id="Trazado_918486" data-name="Trazado 918486" d="M62,51V61a1,1,0,0,1-1,1H19a1,1,0,0,1-1-1V58H49.46a2.1,2.1,0,0,0,.56-.08,1.791,1.791,0,0,0,.45-.19Z" fill="#ffeaa7"/>
        </g>
        <g id="Grupo_1120265" data-name="Grupo 1120265">
          <path id="Trazado_918487" data-name="Trazado 918487" d="M39,12a3,3,0,0,0,3-3,1,1,0,0,0-1-1l.18-.18A2.793,2.793,0,0,0,42,5.84a2.738,2.738,0,0,0-.47-1.54l-.94-1.41A1.981,1.981,0,0,0,38.93,2H62V51H58.24A9.474,9.474,0,0,1,54,50l-3.98,7.92a2.1,2.1,0,0,1-.56.08H18V26h6l.42.21A16.931,16.931,0,0,0,32,28H30a4,4,0,0,0-4,4v1a1,1,0,0,0,1,1H45a1,1,0,0,0,1-1V32a4,4,0,0,0-4-4h4a2.006,2.006,0,0,0,2-2,2.015,2.015,0,0,0-2-2h2a2.015,2.015,0,0,0,2-2,2.006,2.006,0,0,0-2-2,2.015,2.015,0,0,0,2-2,2.006,2.006,0,0,0-2-2,2.015,2.015,0,0,0,2-2,2.006,2.006,0,0,0-2-2H42a1.955,1.955,0,0,0-1.41.59,2.258,2.258,0,0,0-.25.29Z" fill="#e6e9ed"/>
        </g>
        <g id="Grupo_1120266" data-name="Grupo 1120266">
          <path id="Trazado_918488" data-name="Trazado 918488" d="M62,51,50.47,57.73a1.79,1.79,0,0,1-.45.19L54,50a9.474,9.474,0,0,0,4.24,1Z" fill="#b4dd7f"/>
        </g>
        <g id="Grupo_1120267" data-name="Grupo 1120267">
          <path id="Trazado_918489" data-name="Trazado 918489" d="M47.2,38.07a4.093,4.093,0,0,1,1.16,7.16l-1.3.98A2.629,2.629,0,0,0,46,48.32,3.687,3.687,0,0,1,42.32,52H41.1a2.64,2.64,0,0,0-1.87.77,4.184,4.184,0,0,1-5.28.53l-1.12-.75a3.319,3.319,0,0,0-3.66,0l-1.2.81A3.837,3.837,0,0,1,22,50.16V50.1a3.576,3.576,0,0,1,.61-2.01l.92-1.39A2.738,2.738,0,0,0,24,45.16a2.793,2.793,0,0,0-.82-1.98l-.35-.35A2.837,2.837,0,0,1,22,40.82v-.04A2.774,2.774,0,0,1,24.78,38h3.99A6.312,6.312,0,0,0,28,41c0,3.87,3.58,7,8,7s8-3.13,8-7a6.312,6.312,0,0,0-.77-3H47Z" fill="#ffc729"/>
        </g>
        <g id="Grupo_1120268" data-name="Grupo 1120268">
          <path id="Trazado_918490" data-name="Trazado 918490" d="M29.43,37H42.57a6.65,6.65,0,0,1,.66,1A6.312,6.312,0,0,1,44,41c0,3.87-3.58,7-8,7s-8-3.13-8-7a6.312,6.312,0,0,1,.77-3A6.65,6.65,0,0,1,29.43,37Z" fill="#fcd770"/>
        </g>
        <g id="Grupo_1120269" data-name="Grupo 1120269">
          <path id="Trazado_918491" data-name="Trazado 918491" d="M41.53,4.3A2.738,2.738,0,0,1,42,5.84a2.793,2.793,0,0,1-.82,1.98L41,8H33.66a13.183,13.183,0,0,0-2.44.22l-.4-.4A2.793,2.793,0,0,1,30,5.84a2.738,2.738,0,0,1,.47-1.54l.94-1.41A1.981,1.981,0,0,1,33.07,2h5.86a1.981,1.981,0,0,1,1.66.89Z" fill="#b27946"/>
        </g>
        <g id="Grupo_1120270" data-name="Grupo 1120270">
          <path id="Trazado_918492" data-name="Trazado 918492" d="M40,14a2.006,2.006,0,0,0,2,2,2.015,2.015,0,0,0-2,2,2.006,2.006,0,0,0,2,2,2.015,2.015,0,0,0-2,2,2.006,2.006,0,0,0,2,2,2.015,2.015,0,0,0-2,2,2.006,2.006,0,0,0,2,2H32V14.96a4.887,4.887,0,0,0,1.34-1.64A2.389,2.389,0,0,1,35.47,12H39l1.34.88A1.974,1.974,0,0,0,40,14Z" fill="#cf9e76"/>
        </g>
        <g id="Grupo_1120271" data-name="Grupo 1120271">
          <path id="Trazado_918493" data-name="Trazado 918493" d="M46,32v1a1,1,0,0,1-1,1H27a1,1,0,0,1-1-1V32a4,4,0,0,1,4-4H42A4,4,0,0,1,46,32Z" fill="#aab2bd"/>
        </g>
        <g id="Grupo_1120272" data-name="Grupo 1120272">
          <path id="Trazado_918494" data-name="Trazado 918494" d="M48,16a2.006,2.006,0,0,1,2,2,2.015,2.015,0,0,1-2,2H42a2.006,2.006,0,0,1-2-2,2.015,2.015,0,0,1,2-2Z" fill="#f0d0b4"/>
        </g>
        <g id="Grupo_1120273" data-name="Grupo 1120273">
          <path id="Trazado_918495" data-name="Trazado 918495" d="M47.41,24.59A1.955,1.955,0,0,1,48,26a2.006,2.006,0,0,1-2,2H42a2.006,2.006,0,0,1-2-2,2.015,2.015,0,0,1,2-2h4A1.955,1.955,0,0,1,47.41,24.59Z" fill="#f0d0b4"/>
        </g>
        <g id="Grupo_1120274" data-name="Grupo 1120274">
          <path id="Trazado_918496" data-name="Trazado 918496" d="M48,20a2.006,2.006,0,0,1,2,2,2.015,2.015,0,0,1-2,2H42a2.006,2.006,0,0,1-2-2,2.015,2.015,0,0,1,2-2Z" fill="#f0d0b4"/>
        </g>
        <g id="Grupo_1120275" data-name="Grupo 1120275">
          <path id="Trazado_918497" data-name="Trazado 918497" d="M42,12h6a2.006,2.006,0,0,1,2,2,2.015,2.015,0,0,1-2,2H42a2.006,2.006,0,0,1-2-2,1.974,1.974,0,0,1,.34-1.12,2.258,2.258,0,0,1,.25-.29A1.955,1.955,0,0,1,42,12Z" fill="#f0d0b4"/>
        </g>
        <g id="Grupo_1120276" data-name="Grupo 1120276">
          <path id="Trazado_918498" data-name="Trazado 918498" d="M32,14.96V28a16.931,16.931,0,0,1-7.58-1.79L24,26V12a13.622,13.622,0,0,1,7.22-3.78A13.183,13.183,0,0,1,33.66,8H41a1,1,0,0,1,1,1,3,3,0,0,1-3,3H35.47a2.389,2.389,0,0,0-2.13,1.32A4.887,4.887,0,0,1,32,14.96Z" fill="#f0d0b4"/>
        </g>
      </g>
      <g id="Grupo_1120278" data-name="Grupo 1120278">
        <path id="Trazado_918499" data-name="Trazado 918499" d="M61,1V50H58.236a8.508,8.508,0,0,1-3.789-.9l-.893-.446L49.367,57H19V27h4.764l.211.1a17.814,17.814,0,0,0,2.8,1.11A4.97,4.97,0,0,0,25,32v1a2,2,0,0,0,2,2H45a2,2,0,0,0,2-2V32a4.98,4.98,0,0,0-1-3h0a2.99,2.99,0,0,0,2.78-4.116A2.973,2.973,0,0,0,50.22,20a2.954,2.954,0,0,0,0-4A2.987,2.987,0,0,0,48,11H42.444A3.959,3.959,0,0,0,43,9a1.983,1.983,0,0,0-.5-1.308,3.733,3.733,0,0,0-.137-3.949l-.938-1.407A3,3,0,0,0,38.93,1H33.07a3,3,0,0,0-2.5,1.336l-.938,1.407a3.727,3.727,0,0,0-.18,3.869A14.543,14.543,0,0,0,23.594,11H1V27H17V61a2,2,0,0,0,2,2H61a2,2,0,0,0,2-2V1ZM33.657,9H41a2,2,0,0,1-2,2H35.472a3.361,3.361,0,0,0-3.025,1.87A3.832,3.832,0,0,1,29,15v2a5.863,5.863,0,0,0,2-.362v10.3a16,16,0,0,1-6-1.569V12.441A12.561,12.561,0,0,1,33.657,9ZM49,18a1,1,0,0,1-1,1H42a1,1,0,0,1,0-2h6A1,1,0,0,1,49,18Zm-9.22-2a2.954,2.954,0,0,0,0,4,2.954,2.954,0,0,0,0,4,2.908,2.908,0,0,0-.6,3H33V15.408a5.843,5.843,0,0,0,1.236-1.644A1.373,1.373,0,0,1,35.472,13H39c.065,0,.126-.016.19-.019A2.913,2.913,0,0,0,39.78,16ZM45,33H27V32a3,3,0,0,1,3-3H42a3,3,0,0,1,3,3Zm1-6H42a1,1,0,0,1,0-2h4a1,1,0,0,1,0,2Zm2-4H42a1,1,0,0,1,0-2h6a1,1,0,0,1,0,2Zm1-9a1,1,0,0,1-1,1H42a1,1,0,0,1,0-2h6A1,1,0,0,1,49,14ZM31.524,7.11A1.791,1.791,0,0,1,31.3,4.852l.938-1.407A1,1,0,0,1,33.07,3h5.859a1,1,0,0,1,.832.445L40.7,4.852a1.788,1.788,0,0,1,.3.993A1.765,1.765,0,0,1,40.566,7h-6.91a14.81,14.81,0,0,0-2.081.162ZM3,13H23V25H3ZM54.467,51.3a10.544,10.544,0,0,0,3.769.7H58.3l-5.92,3.454ZM19,61V59H49.459a3,3,0,0,0,1.512-.409L61,52.741V61Z"/>
        <path id="Trazado_918500" data-name="Trazado 918500" d="M28.652,36.376A7.369,7.369,0,0,0,27,41c0,4.411,4.038,8,9,8s9-3.589,9-8a7.369,7.369,0,0,0-1.652-4.624l-1.564,1.246A5.388,5.388,0,0,1,43,41c0,3.309-3.14,6-7,6s-7-2.691-7-6a5.383,5.383,0,0,1,1.216-3.377Z"/>
        <path id="Trazado_918501" data-name="Trazado 918501" d="M21.777,47.531A4.667,4.667,0,0,0,21,50.162,4.838,4.838,0,0,0,25.837,55h0a4.82,4.82,0,0,0,2.683-.813l1.2-.8a2.34,2.34,0,0,1,2.555,0l1.114.743a5.183,5.183,0,0,0,6.542-.648A1.655,1.655,0,0,1,41.095,53h1.227A4.684,4.684,0,0,0,47,48.322a1.653,1.653,0,0,1,.658-1.316l1.3-.978a5.1,5.1,0,0,0-1.446-8.91l-.2-.066-.633,1.9.2.066a3.1,3.1,0,0,1,.879,5.414l-1.3.978A3.663,3.663,0,0,0,45,48.322,2.681,2.681,0,0,1,42.322,51H41.095a3.673,3.673,0,0,0-2.577,1.067,3.266,3.266,0,0,1-4.018.4l-1.114-.743a4.372,4.372,0,0,0-4.773,0l-1.2.8A2.828,2.828,0,0,1,25.838,53h0a2.818,2.818,0,0,1-2.006-.831A2.862,2.862,0,0,1,23,50.1a2.61,2.61,0,0,1,.441-1.455l.923-1.384a3.789,3.789,0,0,0-.474-4.781l-.354-.354A1.856,1.856,0,0,1,23,40.775,1.775,1.775,0,0,1,24.776,39H26V37H24.776A3.777,3.777,0,0,0,21,40.82a3.811,3.811,0,0,0,1.122,2.716l.354.354a1.789,1.789,0,0,1,.224,2.257Z"/>
        <path id="Trazado_918502" data-name="Trazado 918502" d="M31,39h8v2H31Z"/>
        <path id="Trazado_918503" data-name="Trazado 918503" d="M35,43h4v2H35Z"/>
        <path id="Trazado_918504" data-name="Trazado 918504" d="M51,27h8v2H51Z"/>
        <path id="Trazado_918505" data-name="Trazado 918505" d="M53,23h6v2H53Z"/>
        <path id="Trazado_918506" data-name="Trazado 918506" d="M53,19h6v2H53Z"/>
        <path id="Trazado_918507" data-name="Trazado 918507" d="M53,15h6v2H53Z"/>
        <path id="Trazado_918508" data-name="Trazado 918508" d="M53,11h6v2H53Z"/>
        <path id="Trazado_918509" data-name="Trazado 918509" d="M51,7h8V9H51Z"/>
      </g>
    </g>
  </g>
</svg>
