<svg xmlns="http://www.w3.org/2000/svg" xmlns:xlink="http://www.w3.org/1999/xlink" width="71" height="71" viewBox="0 0 71 71">
  <defs>
    <clipPath id="clip-path">
      <circle id="Elipse_11901" data-name="Elipse 11901" cx="35.5" cy="35.5" r="35.5" transform="translate(720.386 1890)" fill="#6b9339"/>
    </clipPath>
  </defs>
  <g id="Grupo_1120158" data-name="Grupo 1120158" transform="translate(-720.386 -1890)">
    <g id="Enmascarar_grupo_1098793" data-name="Enmascarar grupo 1098793" clip-path="url(#clip-path)">
      <circle id="Elipse_11674" data-name="Elipse 11674" cx="35.5" cy="35.5" r="35.5" transform="translate(720.386 1890)" fill="#6b9339"/>
      <g id="Grupo_1120157" data-name="Grupo 1120157" transform="translate(722.101 1897.354)">
        <g id="Grupo_1120155" data-name="Grupo 1120155" transform="translate(0 7.061)">
          <path id="Trazado_918053" data-name="Trazado 918053" d="M63.656,45.591a5.634,5.634,0,0,0-1.337-.912A6.43,6.43,0,0,0,59.412,44a6.3,6.3,0,0,0-4.244,1.591,6.454,6.454,0,0,1-8.487,0,6.454,6.454,0,0,0-8.487,0,6.454,6.454,0,0,1-8.487,0,6.454,6.454,0,0,0-8.487,0,6.454,6.454,0,0,1-8.487,0A6.3,6.3,0,0,0,8.487,44a6.4,6.4,0,0,0-2.8.637,5.591,5.591,0,0,0-1.443.955A6.3,6.3,0,0,1,0,47.183v5.3a6.32,6.32,0,0,1,4.267,1.591,6.454,6.454,0,0,0,8.487,0,6.454,6.454,0,0,1,8.487,0,6.454,6.454,0,0,0,8.487,0,6.454,6.454,0,0,1,8.487,0,6.454,6.454,0,0,0,8.487,0,6.454,6.454,0,0,1,8.487,0,6.454,6.454,0,0,0,8.487,0A6.313,6.313,0,0,1,67.9,52.49V47.183A6.3,6.3,0,0,1,63.656,45.591Z" transform="translate(0 -4.746)" fill="#6bcddd"/>
          <path id="Trazado_918054" data-name="Trazado 918054" d="M64.449,18V48.767a6.3,6.3,0,0,1-4.244-1.591,5.634,5.634,0,0,0-1.337-.912L56.63,18Z" transform="translate(3.45 -6.33)" fill="#b3b3b3"/>
          <path id="Trazado_918055" data-name="Trazado 918055" d="M57.156,18.487l2.239,28.263a6.43,6.43,0,0,0-2.907-.679,6.3,6.3,0,0,0-4.244,1.591A6.3,6.3,0,0,1,48,49.254V10h8.487Z" transform="translate(2.925 -6.817)" fill="#e6e6e6"/>
          <path id="Trazado_918056" data-name="Trazado 918056" d="M48.487,22V48.523a6.3,6.3,0,0,1-4.244-1.591A6.3,6.3,0,0,0,40,45.34V22a4.6,4.6,0,0,0,4.244,2.122A4.6,4.6,0,0,0,48.487,22Z" transform="translate(2.437 -6.086)" fill="#3fa1c4"/>
          <path id="Trazado_918057" data-name="Trazado 918057" d="M48.487,18v4.244a4.6,4.6,0,0,1-4.244,2.122A4.6,4.6,0,0,1,40,22.244V18Z" transform="translate(2.437 -6.33)" fill="#b3b3b3"/>
          <path id="Trazado_918058" data-name="Trazado 918058" d="M36.487,18v4.244a4.6,4.6,0,0,1-4.244,2.122A4.6,4.6,0,0,1,28,22.244V18Z" transform="translate(1.706 -6.33)" fill="#b3b3b3"/>
          <path id="Trazado_918059" data-name="Trazado 918059" d="M35,7h8.487v6.366H35Z" transform="translate(2.133 -7)" fill="#999"/>
          <path id="Trazado_918060" data-name="Trazado 918060" d="M21,7h8.487v6.366H21Z" transform="translate(1.28 -7)" fill="#999"/>
          <path id="Trazado_918061" data-name="Trazado 918061" d="M8.657,18,5.687,46.221a5.591,5.591,0,0,0-1.443.955A6.3,6.3,0,0,1,0,48.767V18Z" transform="translate(0 -6.33)" fill="#b3b3b3"/>
          <path id="Trazado_918062" data-name="Trazado 918062" d="M24.487,18v4.244a4.6,4.6,0,0,1-4.244,2.122A4.6,4.6,0,0,1,16,22.244V18Z" transform="translate(0.975 -6.33)" fill="#b3b3b3"/>
          <path id="Trazado_918063" data-name="Trazado 918063" d="M4.3,18,1,48.675a6.165,6.165,0,0,0,3.182-1.5,5.591,5.591,0,0,1,1.443-.955L8.6,18Z" transform="translate(0.061 -6.33)" fill="#999"/>
          <path id="Trazado_918064" data-name="Trazado 918064" d="M60.091,18H56.63l2.239,28.263a5.634,5.634,0,0,1,1.337.912,6.165,6.165,0,0,0,3.182,1.5Z" transform="translate(3.45 -6.33)" fill="#999"/>
          <path id="Trazado_918065" data-name="Trazado 918065" d="M8.331,18.487,9.222,10h7.427V49.254A6.3,6.3,0,0,1,12.4,47.663a6.3,6.3,0,0,0-4.244-1.591,6.4,6.4,0,0,0-2.8.637Z" transform="translate(0.327 -6.817)" fill="#e6e6e6"/>
          <path id="Trazado_918066" data-name="Trazado 918066" d="M52.244,45.8a6.3,6.3,0,0,1,4.244-1.591,6.43,6.43,0,0,1,2.907.679l-.321-4.053a10.316,10.316,0,0,0-2.585-.339,9.97,9.97,0,0,0-6.741,2.558A2.616,2.616,0,0,1,48,43.683V47.4A6.3,6.3,0,0,0,52.244,45.8Z" transform="translate(2.925 -4.959)" fill="#ccc"/>
          <path id="Trazado_918067" data-name="Trazado 918067" d="M8.161,40.5a10.244,10.244,0,0,0-2.373.285L5.36,44.85a6.4,6.4,0,0,1,2.8-.637A6.3,6.3,0,0,1,12.4,45.8,6.3,6.3,0,0,0,16.648,47.4V43.683a2.616,2.616,0,0,1-1.746-.625A9.97,9.97,0,0,0,8.161,40.5Z" transform="translate(0.327 -4.959)" fill="#ccc"/>
          <path id="Trazado_918068" data-name="Trazado 918068" d="M49.95,13v5.3H41.462V45.889a6.3,6.3,0,0,0-4.244,1.591V18.3H28.731V47.48a6.3,6.3,0,0,0-4.244-1.591V18.3H16V13H49.95Z" transform="translate(0.975 -6.634)" fill="#ccc"/>
          <g id="Grupo_1120154" data-name="Grupo 1120154" transform="translate(0 15.914)">
            <path id="Trazado_918069" data-name="Trazado 918069" d="M24.487,22V45.34a6.3,6.3,0,0,0-4.244,1.591A6.3,6.3,0,0,1,16,48.523V22a4.6,4.6,0,0,0,4.244,2.122A4.6,4.6,0,0,0,24.487,22Z" transform="translate(0.975 -22)" fill="#3fa1c4"/>
            <path id="Trazado_918070" data-name="Trazado 918070" d="M36.487,22V46.932a6.454,6.454,0,0,1-8.487,0V22a4.6,4.6,0,0,0,4.244,2.122A4.6,4.6,0,0,0,36.487,22Z" transform="translate(1.706 -22)" fill="#3fa1c4"/>
            <path id="Trazado_918071" data-name="Trazado 918071" d="M59.435,55.183a6.317,6.317,0,0,1-4.244-1.591,6.454,6.454,0,0,0-8.487,0,6.454,6.454,0,0,1-8.487,0,6.454,6.454,0,0,0-8.487,0,6.454,6.454,0,0,1-8.487,0,6.454,6.454,0,0,0-8.487,0,6.454,6.454,0,0,1-8.487,0A6.32,6.32,0,0,0,0,52v8.487H67.9V52a6.313,6.313,0,0,0-4.22,1.589A6.319,6.319,0,0,1,59.435,55.183Z" transform="translate(0 -20.172)" fill="#3fa1c4"/>
          </g>
        </g>
        <g id="Grupo_1120156" data-name="Grupo 1120156" transform="translate(0 6)">
          <path id="Trazado_918072" data-name="Trazado 918072" d="M67.007,48.366a5.093,5.093,0,0,1-2.632-1.239,6.537,6.537,0,0,0-1.042-.767l-2.1-26.568h5.607a1.061,1.061,0,0,0,0-2.122H61.064l-.594-7.51a1.061,1.061,0,0,0-1.058-.977H50.925a1.061,1.061,0,0,0-1.061,1.061v2.122H46.681v-5.3A1.061,1.061,0,0,0,45.62,6H37.133a1.061,1.061,0,0,0-1.061,1.061v5.3H31.828v-5.3A1.061,1.061,0,0,0,30.767,6H22.28a1.061,1.061,0,0,0-1.061,1.061v5.3H18.036V10.244a1.061,1.061,0,0,0-1.061-1.061H9.548a1.06,1.06,0,0,0-1.055.951L7.7,17.67H1.061a1.061,1.061,0,1,0,0,2.122H7.477l-2.788,26.5a6.814,6.814,0,0,0-1.16.828A5.1,5.1,0,0,1,.892,48.365a1.061,1.061,0,1,0,.337,2.094,7.216,7.216,0,0,0,3.725-1.766,4.569,4.569,0,0,1,1.2-.789,5.371,5.371,0,0,1,2.335-.527,5.211,5.211,0,0,1,3.53,1.316,7.515,7.515,0,0,0,9.915,0,5.393,5.393,0,0,1,7.059,0,7.515,7.515,0,0,0,9.915,0,5.393,5.393,0,0,1,7.059,0,7.515,7.515,0,0,0,9.915,0,5.211,5.211,0,0,1,3.53-1.316,5.412,5.412,0,0,1,2.442.572,4.566,4.566,0,0,1,1.087.744A7.216,7.216,0,0,0,66.67,50.46a1.061,1.061,0,1,0,.337-2.094Zm-17.144-25.7a3.74,3.74,0,0,1-3.183,1.373A3.741,3.741,0,0,1,43.5,22.665V19.792h6.366ZM38.193,8.122h6.366v4.244H38.193Zm-14.853,0h6.366v4.244H23.34ZM24.4,22.663a3.74,3.74,0,0,1-3.183,1.373,3.739,3.739,0,0,1-3.183-1.373V19.792H24.4ZM8.487,45.254a7.626,7.626,0,0,0-1.573.17L10.5,11.3h5.411V48.331a5.069,5.069,0,0,1-2.469-1.209A7.331,7.331,0,0,0,8.487,45.254ZM20.5,47.122a5.078,5.078,0,0,1-2.469,1.209V25.39a6.467,6.467,0,0,0,3.183.768,6.487,6.487,0,0,0,3.183-.764v19.94A7.234,7.234,0,0,0,20.5,47.122ZM37.133,22.663a3.74,3.74,0,0,1-3.183,1.373,3.741,3.741,0,0,1-3.183-1.371V19.792h6.366Zm5.3,22.591a7.553,7.553,0,0,0-3.183.7V18.731a1.061,1.061,0,0,0-1.061-1.061H29.706a1.061,1.061,0,0,0-1.061,1.061v24.4a1.061,1.061,0,0,0,2.122,0V25.394a7.013,7.013,0,0,0,6.366,0V47.381a5.359,5.359,0,0,1-6.713-.259,7.218,7.218,0,0,0-3.9-1.788v-26.6a1.061,1.061,0,0,0-1.061-1.061H18.036V14.487H49.864V17.67H42.437a1.061,1.061,0,0,0-1.061,1.061v23.34a1.061,1.061,0,0,0,2.122,0V25.394a7,7,0,0,0,6.366,0V48.331a5.069,5.069,0,0,1-2.469-1.209,7.331,7.331,0,0,0-4.958-1.867Zm12.017,1.867a5.078,5.078,0,0,1-2.469,1.209V11.3h6.445l2.7,34.146a7.7,7.7,0,0,0-1.721-.2,7.331,7.331,0,0,0-4.958,1.867Z" transform="translate(0 -6)" fill="#252525"/>
          <path id="Trazado_918073" data-name="Trazado 918073" d="M32.061,36.548a1.061,1.061,0,0,0,1.061-1.061V28.061a1.061,1.061,0,0,0-2.122,0v7.427A1.061,1.061,0,0,0,32.061,36.548Z" transform="translate(1.889 -4.72)" fill="#252525"/>
          <path id="Trazado_918074" data-name="Trazado 918074" d="M20.061,31A1.061,1.061,0,0,0,19,32.061v7.427a1.061,1.061,0,0,0,2.122,0V32.061A1.061,1.061,0,0,0,20.061,31Z" transform="translate(1.158 -4.477)" fill="#252525"/>
          <path id="Trazado_918075" data-name="Trazado 918075" d="M44.061,31A1.061,1.061,0,0,0,43,32.061v7.427a1.061,1.061,0,0,0,2.122,0V32.061A1.061,1.061,0,0,0,44.061,31Z" transform="translate(2.62 -4.477)" fill="#252525"/>
          <ellipse id="Elipse_11893" data-name="Elipse 11893" cx="2" cy="1.5" rx="2" ry="1.5" transform="translate(31.95 33.645)" fill="#252525"/>
          <ellipse id="Elipse_11894" data-name="Elipse 11894" cx="1.5" cy="0.5" rx="1.5" ry="0.5" transform="translate(18.95 22.645)" fill="#252525"/>
          <ellipse id="Elipse_11895" data-name="Elipse 11895" cx="1" cy="0.5" rx="1" ry="0.5" transform="translate(45.95 22.645)" fill="#252525"/>
          <path id="Trazado_918076" data-name="Trazado 918076" d="M66.666,51.1a7.242,7.242,0,0,0-3.7,1.763,5.4,5.4,0,0,1-7.065,0,7.545,7.545,0,0,0-9.911,0,5.377,5.377,0,0,1-7.064,0,7.545,7.545,0,0,0-9.911,0,5.377,5.377,0,0,1-7.064,0,7.545,7.545,0,0,0-9.911,0,5.379,5.379,0,0,1-7.064,0,7.248,7.248,0,0,0-3.751-1.772,1.061,1.061,0,0,0-.331,2.1,5.137,5.137,0,0,1,2.66,1.249,7.545,7.545,0,0,0,9.911,0,5.377,5.377,0,0,1,7.064,0,7.545,7.545,0,0,0,9.911,0,5.377,5.377,0,0,1,7.064,0,7.545,7.545,0,0,0,9.911,0,5.377,5.377,0,0,1,7.064,0,7.511,7.511,0,0,0,9.91,0A5.13,5.13,0,0,1,67.011,53.2a1.061,1.061,0,0,0-.346-2.094Z" transform="translate(0 -3.258)" fill="#252525"/>
          <ellipse id="Elipse_11896" data-name="Elipse 11896" cx="2.5" cy="1.5" rx="2.5" ry="1.5" transform="translate(13.95 54.645)" fill="#252525"/>
          <ellipse id="Elipse_11897" data-name="Elipse 11897" cx="1" cy="1.5" rx="1" ry="1.5" transform="translate(7.95 45.645)" fill="#252525"/>
          <ellipse id="Elipse_11898" data-name="Elipse 11898" cx="2.5" cy="1.5" rx="2.5" ry="1.5" transform="translate(48.95 54.645)" fill="#252525"/>
          <ellipse id="Elipse_11899" data-name="Elipse 11899" cx="0.5" cy="1.5" rx="0.5" ry="1.5" transform="translate(41.95 45.645)" fill="#252525"/>
          <ellipse id="Elipse_11900" data-name="Elipse 11900" cx="2" cy="0.5" rx="2" ry="0.5" transform="translate(31.95 54.645)" fill="#252525"/>
        </g>
      </g>
    </g>
  </g>
</svg>
