<svg xmlns="http://www.w3.org/2000/svg" width="71" height="71" viewBox="0 0 71 71">
  <g id="Grupo_1120386" data-name="Grupo 1120386" transform="translate(-194.865 -13635.573)">
    <circle id="Elipse_11626" data-name="Elipse 11626" cx="35.5" cy="35.5" r="35.5" transform="translate(194.865 13635.573)" fill="#fff"/>
    <g id="Grupo_1120385" data-name="Grupo 1120385" transform="translate(153.9 13644.861)">
      <g id="Grupo_1120383" data-name="Grupo 1120383" transform="translate(56.177 1.066)">
        <g id="Grupo_1120381" data-name="Grupo 1120381" transform="translate(0)">
          <path id="Trazado_918589" data-name="Trazado 918589" d="M102.4,40.518a18.768,18.768,0,1,1-33.628-8.091v0L83.878,10l9.68,14.37" transform="translate(-65.111 -10)" fill="#a3e0fb"/>
        </g>
        <g id="Grupo_1120382" data-name="Grupo 1120382" transform="translate(23.778 8.834)">
          <path id="Trazado_918590" data-name="Trazado 918590" d="M288.068,107.852a8.36,8.36,0,0,1,1.638-4.984h0l6.76-10.036,6.76,10.036h0a8.4,8.4,0,1,1-15.16,4.984Z" transform="translate(-288.068 -92.831)" fill="#4696e6"/>
        </g>
      </g>
      <g id="Grupo_1120384" data-name="Grupo 1120384" transform="translate(55.111 0)">
        <path id="Trazado_918591" data-name="Trazado 918591" d="M107.806,263.126a12.5,12.5,0,0,1-6.346-19.353,1.086,1.086,0,0,0,.1-.158,1.066,1.066,0,0,0-1.824-1.094,14.635,14.635,0,0,0,.065,17.422,14.754,14.754,0,0,0,7.374,5.219,1.066,1.066,0,0,0,.633-2.037Z" transform="translate(-92.435 -216.256)"/>
        <path id="Trazado_918592" data-name="Trazado 918592" d="M97.819,24.921a9.39,9.39,0,0,0-1.83-5.6L89.238,9.3a1.067,1.067,0,0,0-1.769,0l-2.845,4.223L75.829.471a1.066,1.066,0,0,0-1.769,0l-15.1,22.413A19.834,19.834,0,1,0,94.778,34.629a20.018,20.018,0,0,0-.172-2.609A9.445,9.445,0,0,0,97.819,24.921ZM88.354,11.809l5.866,8.708q.018.027.037.053a7.332,7.332,0,1,1-11.806,0c.012-.017.024-.034.036-.051l3.021-4.484.017-.025Zm4.291,22.82a17.7,17.7,0,1,1-31.95-10.5c.013-.017.025-.036.037-.054l14.212-21.1,8.394,12.461-2.62,3.89A9.464,9.464,0,0,0,92.6,33.378q.044.624.045,1.251Z" transform="translate(-55.111 0)"/>
        <path id="Trazado_918593" data-name="Trazado 918593" d="M313.694,206.26a3.625,3.625,0,0,1,.313-1.482,1.066,1.066,0,0,0-1.949-.867,5.792,5.792,0,0,0,2.075,7.161,1.066,1.066,0,0,0,1.186-1.773,3.652,3.652,0,0,1-1.625-3.039Z" transform="translate(-284.212 -181.599)"/>
        <path id="Trazado_918594" data-name="Trazado 918594" d="M219.183,447.867a1.066,1.066,0,1,0-1.193,1.454A1.075,1.075,0,0,0,219.183,447.867Z" transform="translate(-199.855 -399.52)"/>
        <path id="Trazado_918595" data-name="Trazado 918595" d="M357.631,269.113a1.066,1.066,0,1,0,0-1.774A1.071,1.071,0,0,0,357.631,269.113Z" transform="translate(-324.951 -238.668)"/>
      </g>
    </g>
  </g>
</svg>
