<svg xmlns="http://www.w3.org/2000/svg" width="71" height="71" viewBox="0 0 71 71">
  <g id="Grupo_1120397" data-name="Grupo 1120397" transform="translate(-194.865 -13902.822)">
    <circle id="Elipse_11677" data-name="Elipse 11677" cx="35.5" cy="35.5" r="35.5" transform="translate(194.865 13902.822)" fill="#fff"/>
    <g id="Grupo_1120396" data-name="Grupo 1120396" transform="translate(137.814 13879.74)">
      <path id="Trazado_918630" data-name="Trazado 918630" d="M181.417,203.694l3.353,12.38a2.065,2.065,0,0,0,2.016,1.542h4.345a2.065,2.065,0,0,0,2.016-1.542l3.353-12.38Z" transform="translate(-97.005 -150.972)" fill="#19cfba" fill-rule="evenodd"/>
      <path id="Trazado_918631" data-name="Trazado 918631" d="M183.577,132.273l-2.16,6.48H196.5l-2.16-6.48a3.2,3.2,0,0,0-3.082-2.221C188.905,130.233,184.452,129.13,183.577,132.273Z" transform="translate(-97.005 -86.032)" fill="#60b7fe" fill-rule="evenodd"/>
      <path id="Trazado_918632" data-name="Trazado 918632" d="M228.835,130.389c-.069-.009-4.9-.009-4.97,0,.017,4.11-.587,4.177,3.806,4.056a1.167,1.167,0,0,0,1.164-1.164Z" transform="translate(-134.396 -86.364)" fill="#fa6e85" fill-rule="evenodd"/>
      <path id="Trazado_918633" data-name="Trazado 918633" d="M172.276,189.034h15.917a.745.745,0,0,1,.743.743c-.078.624.317,2.18-.743,2.157H172.276c-1.046.024-.685-1.535-.743-2.158A.745.745,0,0,1,172.276,189.034Z" transform="translate(-88.281 -138.053)" fill="#ffbf31" fill-rule="evenodd"/>
      <path id="Trazado_918634" data-name="Trazado 918634" d="M121.945,342.154c1.9.215,12.266-4.24,14.2-4.813a2,2,0,0,1,2.342.437,1.775,1.775,0,0,1-.07,2.63c-4.9,2.773-13.054,9.936-18.765,10.578-2.2.179-4.378-.626-6.582-.944a84.279,84.279,0,0,0-12.159-.363v-8.727c1.94-.512,3.79-.881,5.628-1.382,2.64-.72,4.477-2.833,7.4-1.951l6.647,2A2.037,2.037,0,0,1,121.945,342.154Z" transform="translate(-26.055 -268.589)" fill="#f0b16e" fill-rule="evenodd"/>
      <path id="Trazado_918635" data-name="Trazado 918635" d="M79.025,350.76H82.3a1.094,1.094,0,0,1,1.091,1.091v10.911a1.094,1.094,0,0,1-1.091,1.091H79.025a1.094,1.094,0,0,1-1.091-1.091V351.851A1.094,1.094,0,0,1,79.025,350.76Z" transform="translate(-5.807 -280.579)" fill="#60b7fe" fill-rule="evenodd"/>
      <path id="Trazado_918636" data-name="Trazado 918636" d="M112.186,70.726a.6.6,0,0,1-.255.436l-10.762,7.094c-2.2,1.454-5.064,3.148-7.636,3.358-2.075.168-4.284-.64-6.406-.938a57.718,57.718,0,0,0-8.761-.406V72.314a18.024,18.024,0,0,0,4.934-1.67c1.458-.731,2.718-1.363,4.36-.867l6.646,2a1.26,1.26,0,0,1,.834,1.555c-.438,1.233-1.748.809-2.727.571a13.465,13.465,0,0,0-4.976-.576.783.783,0,0,0,.224,1.55A5.574,5.574,0,0,1,89,74.842c2.227.092,5.921,2.21,7.421-.534,1.64.122,12.223-4.3,13.944-4.825A1.244,1.244,0,0,1,112.186,70.726ZM76.8,82.179a.312.312,0,0,1-.308.308H73.219a.313.313,0,0,1-.309-.308V71.269a.313.313,0,0,1,.309-.308h3.273a.312.312,0,0,1,.308.308Zm36.322-13.388a2.736,2.736,0,0,0-3.307-.777c-.861.256-12.521,4.87-13.069,4.68a2.833,2.833,0,0,0-1.987-2.414l-6.647-2c-3.922-1.064-6.22,2.082-9.828,2.446-.462-1.965-3.665-1.185-5.065-1.329a1.876,1.876,0,0,0-1.874,1.874V82.179c.05,2.614,3.508,1.734,5.148,1.874a1.931,1.931,0,0,0,1.874-2.218,44.172,44.172,0,0,1,10.674.8c4.588,1.52,9.152-.346,12.991-3.076l10.762-7.094a2.528,2.528,0,0,0,.33-3.677ZM72.239,62.41a3.985,3.985,0,0,1,0-4.557l4.4-6.712a.784.784,0,0,1,1.31.859l-4.4,6.71a2.453,2.453,0,0,0,0,2.835c1.122,2.1,4.941,1.383,6.9,1.5a.807.807,0,1,1,.6-1.482l2.449,1.6a.909.909,0,0,1,.093.069h0a.777.777,0,0,1,.271.585h0v.01a.781.781,0,0,1-.364.657c-.282.129-2.579,1.837-2.877,1.731a.819.819,0,0,1-.167-1.61C77.817,64.6,73.721,65.1,72.239,62.41Zm29.647-13.559c0-.006.367-2.663.369-2.668h0a.743.743,0,0,1,.02-.095.784.784,0,0,1,.31-.437h0l.014-.011h0a.772.772,0,0,1,.536-.119.748.748,0,0,1,.173.045l2.818,1.05c1.081.544.353,2.094-1.108,1.258l6.646,9.975a4.013,4.013,0,0,1,0,4.562c-1.708,3.246-7.889,1.961-10.829,2.2a.783.783,0,0,1,0-1.566h6.508a3.511,3.511,0,0,0,3.016-1.5,2.431,2.431,0,0,0,0-2.831l-6.842-10.269c.035,1.741-1.679,1.592-1.637.405Zm-22.97-4.02c.008.055.364,2.647.374,2.7,0,0,0,0,0,.006s0,.018.006.027v0a0,0,0,0,1,0,0v0a.776.776,0,0,0,.307.454h0a.784.784,0,0,0,.592.134s0,0,0,0h.009s0,0,0,0,0,0,.006,0a.661.661,0,0,0,.123-.037l2.817-1.05c1.077-.537.361-2.1-1.112-1.256L88.937,35.45c1.19-1.979,4.854-1.982,6.031-.005l4.638,7.1a.783.783,0,0,0,1.311-.857l-4.64-7.1a5.347,5.347,0,0,0-8.645-.005L80.552,45.233C80.587,43.494,78.873,43.645,78.916,44.831ZM95.388,64.894a1.277,1.277,0,0,1-1.261.964H89.781a1.276,1.276,0,0,1-1.26-.964L85.751,54.662H98.159ZM84.035,51.761H99.873V53.1H84.035Zm3.281-5.275a2.433,2.433,0,0,1,1.371-1.494c-.246,4.261.96,3.888,4.588,3.868,2.22-.1,1.976-2.262,1.948-3.868,1.572.435,2.037,3.977,2.606,5.2H86.079ZM90.252,44.8h3.405c.024,3.439.313,2.3-3.024,2.495a.386.386,0,0,1-.381-.381Zm9.66,5.4h-.432c-2.182-7.254-2.392-7.117-9.826-6.961-3.722-.144-4.252,4.34-5.226,6.961a1.623,1.623,0,0,0-1.959,1.526c-.05,1.313-.135,2.963,1.658,2.94L87.01,65.3c.68,3.015,4.953,1.942,7.117,2.121A2.841,2.841,0,0,0,96.9,65.3l2.883-10.642a1.54,1.54,0,0,0,1.658-1.526c.041-1.234.155-2.876-1.526-2.94Z" fill="#1e2f3f" fill-rule="evenodd"/>
    </g>
  </g>
</svg>
