<svg xmlns="http://www.w3.org/2000/svg" xmlns:xlink="http://www.w3.org/1999/xlink" width="117.999" height="118" viewBox="0 0 117.999 118">
  <defs>
    <filter id="Trazado_874925" x="0" y="0" width="117.999" height="118" filterUnits="userSpaceOnUse">
      <feOffset dy="3" input="SourceAlpha"/>
      <feGaussianBlur stdDeviation="3" result="blur"/>
      <feFlood flood-opacity="0.161"/>
      <feComposite operator="in" in2="blur"/>
      <feComposite in="SourceGraphic"/>
    </filter>
  </defs>
  <g id="Grupo_1123304" data-name="Grupo 1123304" transform="translate(-896.95 -14762.446)">
    <g id="Grupo_1111553" data-name="Grupo 1111553" transform="translate(97.449 12251.289)">
      <g id="Grupo_1111316" data-name="Grupo 1111316" transform="translate(808.5 2517.157)">
        <g id="Grupo_1109835" data-name="Grupo 1109835" transform="translate(0 0)">
          <g id="Grupo_1107913" data-name="Grupo 1107913" transform="translate(0 0)">
            <g transform="matrix(1, 0, 0, 1, -9, -6)" filter="url(#Trazado_874925)">
              <g id="Trazado_874925-2" data-name="Trazado 874925" transform="translate(9 6)" fill="#bb965f" opacity="0.859">
                <path d="M 49.99972534179688 98.4998779296875 C 43.45164108276367 98.4998779296875 37.10022354125977 97.21776580810547 31.12189674377441 94.68914794921875 C 25.34676742553711 92.24647521972656 20.15985298156738 88.74925994873047 15.70523929595947 84.29464721679688 C 11.25062561035156 79.84004974365234 7.753411293029785 74.65313720703125 5.310725212097168 68.87800598144531 C 2.782111167907715 62.89969253540039 1.499996781349182 56.54829406738281 1.499996781349182 50.00022125244141 C 1.499996781349182 43.45157623291016 2.782111167907715 37.10017776489258 5.310725212097168 31.12186431884766 C 7.753411293029785 25.34673500061035 11.25062561035156 20.15983581542969 15.70523929595947 15.70522117614746 C 20.15985298156738 11.25062084197998 25.34676742553711 7.753406524658203 31.12189674377441 5.31073522567749 C 37.10022354125977 2.782120943069458 43.45164108276367 1.500006556510925 49.99972534179688 1.500006556510925 C 56.54780960083008 1.500006556510925 62.89922714233398 2.782120943069458 68.87755584716797 5.31073522567749 C 74.65267944335938 7.753406524658203 79.839599609375 11.25062084197998 84.29421234130859 15.70522117614746 C 88.74882507324219 20.15983581542969 92.24604034423828 25.34673500061035 94.68872833251953 31.12186431884766 C 97.21733856201172 37.10017776489258 98.49945068359375 43.45157623291016 98.49945068359375 49.99964904785156 C 98.49945068359375 56.54829406738281 97.21733856201172 62.89969253540039 94.68872833251953 68.87800598144531 C 92.24604034423828 74.65313720703125 88.74882507324219 79.84004974365234 84.29421234130859 84.29464721679688 C 79.839599609375 88.74925994873047 74.65267944335938 92.24647521972656 68.87755584716797 94.68914794921875 C 62.89922714233398 97.21776580810547 56.54780960083008 98.4998779296875 49.99972534179688 98.4998779296875 Z" stroke="none"/>
                <path d="M 49.99972534179688 3 C 43.65348052978516 3 37.49866485595703 4.242240905761719 31.70623016357422 6.692230224609375 C 26.10989379882812 9.059272766113281 21.08323669433594 12.44853210449219 16.76589202880859 16.76587677001953 C 12.44855499267578 21.08321380615234 9.059295654296875 26.10985565185547 6.692230224609375 31.70618438720703 C 4.24224853515625 37.49859619140625 3 43.65341186523438 3 50.00022888183594 C 3 56.34645843505859 4.24224853515625 62.50127410888672 6.692230224609375 68.29368591308594 C 9.059295654296875 73.8900146484375 12.44855499267578 78.91665649414062 16.76589202880859 83.23399353027344 C 21.08323669433594 87.55132293701172 26.10989379882812 90.94059753417969 31.70623016357422 93.30764007568359 C 37.49866485595703 95.75762939453125 43.65348052978516 96.99987030029297 49.99972534179688 96.99987030029297 C 56.34597015380859 96.99987030029297 62.50078582763672 95.75762939453125 68.293212890625 93.30764007568359 C 73.88955688476562 90.94059753417969 78.91621398925781 87.55132293701172 83.23355865478516 83.23399353027344 C 87.55089569091797 78.91665649414062 90.94015502929688 73.8900146484375 93.30722045898438 68.29368591308594 C 95.7572021484375 62.50127410888672 96.99945068359375 56.34645843505859 96.99945068359375 49.99964141845703 C 96.99945068359375 43.65341186523438 95.7572021484375 37.49859619140625 93.30722045898438 31.70618438720703 C 90.94015502929688 26.10985565185547 87.55089569091797 21.08321380615234 83.23355865478516 16.76587677001953 C 78.91621398925781 12.44853210449219 73.88955688476562 9.059272766113281 68.293212890625 6.692230224609375 C 62.50078582763672 4.242240905761719 56.34597015380859 3 49.99972534179688 3 M 49.99972534179688 0 C 77.61381530761719 0 99.99945068359375 22.38559722900391 99.99945068359375 49.99964141845703 L 99.99945068359375 50.00022888183594 C 99.99945068359375 77.6142578125 77.61381530761719 99.99987030029297 49.99972534179688 99.99987030029297 C 22.38563537597656 99.99987030029297 0 77.6142578125 0 50.00022888183594 L 0 49.99964141845703 C 0 22.38559722900391 22.38563537597656 0 49.99972534179688 0 Z" stroke="none" fill="#fff"/>
              </g>
            </g>
            <g id="Trazado_874923" data-name="Trazado 874923" transform="translate(0 0)" fill="none">
              <path d="M50,0a50,50,0,0,1,50,50h0A50,50,0,0,1,0,50H0A50,50,0,0,1,50,0Z" stroke="none"/>
              <path d="M 49.99972534179688 3 C 43.65348052978516 3 37.49866485595703 4.242240905761719 31.70623016357422 6.692230224609375 C 26.10989379882812 9.059272766113281 21.08323669433594 12.44853210449219 16.76589202880859 16.76587677001953 C 12.44855499267578 21.08321380615234 9.059295654296875 26.10985565185547 6.692230224609375 31.70618438720703 C 4.24224853515625 37.49859619140625 3 43.65341186523438 3 50.00022888183594 C 3 56.34645843505859 4.24224853515625 62.50127410888672 6.692230224609375 68.29368591308594 C 9.059295654296875 73.8900146484375 12.44855499267578 78.91665649414062 16.76589202880859 83.23399353027344 C 21.08323669433594 87.55132293701172 26.10989379882812 90.94059753417969 31.70623016357422 93.30764007568359 C 37.49866485595703 95.75762939453125 43.65348052978516 96.99987030029297 49.99972534179688 96.99987030029297 C 56.34597015380859 96.99987030029297 62.50078582763672 95.75762939453125 68.293212890625 93.30764007568359 C 73.88955688476562 90.94059753417969 78.91621398925781 87.55132293701172 83.23355865478516 83.23399353027344 C 87.55089569091797 78.91665649414062 90.94015502929688 73.8900146484375 93.30722045898438 68.29368591308594 C 95.7572021484375 62.50127410888672 96.99945068359375 56.34645843505859 96.99945068359375 49.99964141845703 C 96.99945068359375 43.65341186523438 95.7572021484375 37.49859619140625 93.30722045898438 31.70618438720703 C 90.94015502929688 26.10985565185547 87.55089569091797 21.08321380615234 83.23355865478516 16.76587677001953 C 78.91621398925781 12.44853210449219 73.88955688476562 9.059272766113281 68.293212890625 6.692230224609375 C 62.50078582763672 4.242240905761719 56.34597015380859 3 49.99972534179688 3 M 49.99972534179688 0 C 77.61381530761719 0 99.99945068359375 22.38559722900391 99.99945068359375 49.99964141845703 L 99.99945068359375 50.00022888183594 C 99.99945068359375 77.6142578125 77.61381530761719 99.99987030029297 49.99972534179688 99.99987030029297 C 22.38563537597656 99.99987030029297 0 77.6142578125 0 50.00022888183594 L 0 49.99964141845703 C 0 22.38559722900391 22.38563537597656 0 49.99972534179688 0 Z" stroke="none" fill="#fff"/>
            </g>
          </g>
        </g>
      </g>
    </g>
    <g id="Grupo_1123303" data-name="Grupo 1123303" transform="translate(921.052 14788.447)">
      <g id="Grupo_1123302" data-name="Grupo 1123302">
        <path id="Trazado_919812" data-name="Trazado 919812" d="M27.163,43.686a.643.643,0,0,1-1.076.044c-1.851-2.821-7.164-12.073-4.212-21.758A11.579,11.579,0,0,1,35.89,14.386a10.582,10.582,0,0,1,7.65,13.306C40.137,38.843,31.145,36.966,27.163,43.686Z" fill="#9cc824"/>
        <path id="Trazado_919813" data-name="Trazado 919813" d="M44.148,53.5a7.777,7.777,0,1,1-14.705-5.038c2.756-8.142,8.884-6.413,11.879-11.248a.437.437,0,0,1,.754.01c1.16,2.152,4.472,9.2,2.072,16.276Z" fill="#9cc824"/>
        <path id="Trazado_919814" data-name="Trazado 919814" d="M21.691,14.91c.01.13-.137.2-.206.12-1.506-1.58-3.768-1.58-4.8-3.61-.837-1.65-.591-3.06,1.16-3.95s3.08-.11,3.828,1.39c1.16,2.33-.365,3.78.018,6.05Z" fill="#9cc824"/>
        <path id="Trazado_919815" data-name="Trazado 919815" d="M47.822,7.17c-.806,3.1-3.354,3.19-4.84,5.59a.151.151,0,0,1-.285-.07c-.109-2.7-2.165-4.59-1.466-7.32.56-2.22,1.918-3.31,4.23-2.68S48.344,5.16,47.822,7.17Z" fill="#9cc824"/>
        <path id="Trazado_919816" data-name="Trazado 919816" d="M17.963,20.41c.049.1-.04.2-.119.17-1.643-.63-3.305.18-4.752-.95a2.112,2.112,0,0,1-.511-3.3,2.1,2.1,0,0,1,3.276-.34c1.653,1.3,1.043,2.89,2.106,4.42Z" fill="#9cc824"/>
        <path id="Trazado_919817" data-name="Trazado 919817" d="M29.267,5.22c.256,2.6-1.673,3.4-2.115,5.65a.133.133,0,0,1-.246.04c-.837-2.02-2.952-2.85-3.188-5.12-.2-1.84.531-3.07,2.47-3.26,1.948-.21,2.912,1.01,3.079,2.69Z" fill="#9cc824"/>
        <path id="Trazado_919818" data-name="Trazado 919818" d="M38.24,4.17c-.01,2.76-2.116,3.39-2.834,5.72a.136.136,0,0,1-.256,0c-.669-2.22-2.794-3.32-2.8-5.73C32.337,2.2,33.242.99,35.3,1s2.94,1.39,2.94,3.17Z" fill="#9cc824"/>
      </g>
      <path id="Trazado_919819" data-name="Trazado 919819" d="M22.147,18.943a1,1,0,0,0,1.706,1.045,10.674,10.674,0,0,1,11.782-4.635,40.266,40.266,0,0,0-2.72,4.42c-.008.015-.022.024-.029.04s0,.018-.007.027c-.78,1.459-1.614,3.2-2.454,5.224a14.105,14.105,0,0,0-4.872,1.041A1,1,0,0,0,26,28a.986.986,0,0,0,.436-.1,11.441,11.441,0,0,1,3.166-.753c-.529,1.4-1.055,2.912-1.563,4.561a1,1,0,1,0,1.912.59,66.687,66.687,0,0,1,4.209-10.6A9,9,0,0,1,36.1,24.445a1,1,0,0,0,1.792-.89,10.18,10.18,0,0,0-2.77-3.655,34.57,34.57,0,0,1,2.459-3.822,9.711,9.711,0,0,1,4.231,4,9.322,9.322,0,0,1,.771,7.317c-1.876,6.147-5.566,8.08-9.136,9.951-2.485,1.3-5.051,2.646-6.839,5.338-1.834-2.934-6.127-11.013-4.046-19.45a1,1,0,1,0-1.941-.478c-2.341,9.487,2.458,18.209,4.638,21.53A1.614,1.614,0,0,0,26.605,45h.061a1.623,1.623,0,0,0,1.357-.8c1.5-2.53,3.857-3.765,6.353-5.073,3.75-1.965,8-4.191,10.119-11.138a11.3,11.3,0,0,0-.935-8.875,11.849,11.849,0,0,0-7.415-5.69,12.7,12.7,0,0,0-14,5.519Z" fill="#262626"/>
      <path id="Trazado_919820" data-name="Trazado 919820" d="M41.729,36a1.458,1.458,0,0,0-1.257.685c-1.086,1.753-2.644,2.525-4.448,3.419-2.708,1.341-5.778,2.862-7.529,8.034a9.071,9.071,0,0,0,2.7,9.875H31.2A8.467,8.467,0,0,0,36.646,60a8.694,8.694,0,0,0,3.847-.907,9.065,9.065,0,0,0,4.6-5.276c2.46-7.252-.677-14.353-2.153-17.092A1.425,1.425,0,0,0,41.729,36ZM43.2,53.176A7.074,7.074,0,0,1,39.609,57.3a6.5,6.5,0,0,1-6.176-.153,31.277,31.277,0,0,0,1.977-2.433c.012-.016.028-.029.039-.046s0-.014.008-.02c.7-.954,1.462-2.091,2.255-3.421.353.023.69.038.993.038a8.787,8.787,0,0,0,2.611-.316,1,1,0,1,0-.624-1.9,7.431,7.431,0,0,1-1.867.211c.466-.866.937-1.79,1.409-2.794a1,1,0,0,0-1.808-.852,49.1,49.1,0,0,1-3.94,6.949,7.108,7.108,0,0,1-.87-1.837,1,1,0,1,0-1.9.628,8.079,8.079,0,0,0,1.545,2.884c-.521.668-.993,1.22-1.4,1.667a7.109,7.109,0,0,1-1.471-7.126c1.486-4.388,3.932-5.6,6.522-6.883a12.551,12.551,0,0,0,4.707-3.367c1.281,2.646,3.6,8.709,1.581,14.647Z" fill="#262626"/>
      <path id="Trazado_919821" data-name="Trazado 919821" d="M20.266,6.249a3.7,3.7,0,0,0-2.874.329c-2.164,1.1-2.747,3.03-1.6,5.3a6.014,6.014,0,0,0,3.067,2.616,6.546,6.546,0,0,1,1.87,1.2,1.093,1.093,0,0,0,.832.379,1.117,1.117,0,0,0,.429-.086,1.141,1.141,0,0,0,.7-1.143.719.719,0,0,0-.01-.092,5.525,5.525,0,0,1,.177-2.175,5.663,5.663,0,0,0-.289-4.154,4.044,4.044,0,0,0-2.3-2.169Zm.635,5.894c-.072.331-.148.679-.2,1.05-.322-.184-.644-.343-.95-.5a4.188,4.188,0,0,1-2.174-1.729c-.793-1.565-.121-2.178.729-2.61a1.7,1.7,0,0,1,2.472.949,3.746,3.746,0,0,1,.122,2.84Z" fill="#262626"/>
      <path id="Trazado_919822" data-name="Trazado 919822" d="M48.79,7.421c.726-2.8-.448-4.98-3.066-5.7-2.7-.74-4.8.783-5.462,3.4a7.424,7.424,0,0,0,.676,4.816,8.511,8.511,0,0,1,.76,2.814,1.154,1.154,0,0,0,.865,1.055,1.183,1.183,0,0,0,.282.035,1.166,1.166,0,0,0,.987-.556A6.972,6.972,0,0,1,45.8,11.374a6.737,6.737,0,0,0,2.99-3.953Zm-1.936-.5a4.812,4.812,0,0,1-2.25,2.85,14.785,14.785,0,0,0-1.243.995C43.2,10.207,42.99,9.688,42.8,9.2a5.6,5.6,0,0,1-.6-3.586c.384-1.518,1.414-2.39,3-1.96,1.548.425,2.106,1.523,1.654,3.264Z" fill="#262626"/>
      <path id="Trazado_919823" data-name="Trazado 919823" d="M13.944,14.421a3.192,3.192,0,0,0-2.156,1.3,3.09,3.09,0,0,0,.69,4.7,4.918,4.918,0,0,0,3.265.88,4.98,4.98,0,0,1,1.74.215,1.077,1.077,0,0,0,.393.073,1.094,1.094,0,0,0,.806-.358,1.118,1.118,0,0,0,.178-1.258.849.849,0,0,0-.076-.13,4.325,4.325,0,0,1-.593-1.589,4.792,4.792,0,0,0-1.71-3.042,3.4,3.4,0,0,0-2.537-.791Zm2.3,4.282c.046.2.093.4.15.608-.216-.009-.426-.011-.629-.013a3.117,3.117,0,0,1-2.061-.46c-.934-.721-.818-1.261-.326-1.9a1.2,1.2,0,0,1,1.862-.16,2.893,2.893,0,0,1,1,1.922Z" fill="#262626"/>
      <path id="Trazado_919824" data-name="Trazado 919824" d="M28.88,2.261a3.682,3.682,0,0,0-2.79-.726,3.685,3.685,0,0,0-3.367,4.359,6.062,6.062,0,0,0,1.925,3.555,6.617,6.617,0,0,1,1.361,1.9,1.115,1.115,0,0,0,1,.627H27.1a1.171,1.171,0,0,0,1.025-.911,5.415,5.415,0,0,1,.929-1.956,5.676,5.676,0,0,0,1.2-3.986A4.085,4.085,0,0,0,28.88,2.261Zm-1.5,5.757c-.182.28-.373.574-.551.891-.235-.289-.478-.555-.708-.807a4.239,4.239,0,0,1-1.414-2.418c-.125-1.191.3-2.035,1.583-2.16.109-.011.215-.017.315-.017,1.077,0,1.565.834,1.661,1.811a3.756,3.756,0,0,1-.886,2.7Z" fill="#262626"/>
      <path id="Trazado_919825" data-name="Trazado 919825" d="M35.233,10.979h.041a1.178,1.178,0,0,0,1.088-.794,5.934,5.934,0,0,1,1.2-1.987A5.942,5.942,0,0,0,39.239,4.17C39.239,1.6,37.729,0,35.3,0h-.029a3.825,3.825,0,0,0-3.927,4.164,6.392,6.392,0,0,0,1.63,3.908A7.07,7.07,0,0,1,34.2,10.2a1.137,1.137,0,0,0,1.033.779ZM33.889,2.486A1.9,1.9,0,0,1,35.3,2c.48,0,1.941,0,1.941,2.169a4.072,4.072,0,0,1-1.232,2.776c-.236.292-.484.6-.717.94-.229-.36-.474-.69-.7-1a4.546,4.546,0,0,1-1.238-2.728,2.271,2.271,0,0,1,.535-1.671Z" fill="#262626"/>
    </g>
  </g>
</svg>
