<svg xmlns="http://www.w3.org/2000/svg" xmlns:xlink="http://www.w3.org/1999/xlink" width="118" height="118" viewBox="0 0 118 118">
  <defs>
    <filter id="Trazado_874925" x="0" y="0" width="117.999" height="118" filterUnits="userSpaceOnUse">
      <feOffset dy="3" input="SourceAlpha"/>
      <feGaussianBlur stdDeviation="3" result="blur"/>
      <feFlood flood-opacity="0.161"/>
      <feComposite operator="in" in2="blur"/>
      <feComposite in="SourceGraphic"/>
    </filter>
  </defs>
  <g id="Grupo_1123329" data-name="Grupo 1123329" transform="translate(-1109.483 -15271.451)">
    <g id="Grupo_1111553" data-name="Grupo 1111553" transform="translate(309.982 12760.294)">
      <g id="Grupo_1111316" data-name="Grupo 1111316" transform="translate(808.5 2517.157)">
        <g id="Grupo_1109835" data-name="Grupo 1109835" transform="translate(0 0)">
          <g id="Grupo_1107913" data-name="Grupo 1107913" transform="translate(0 0)">
            <g transform="matrix(1, 0, 0, 1, -9, -6)" filter="url(#Trazado_874925)">
              <g id="Trazado_874925-2" data-name="Trazado 874925" transform="translate(9 6)" fill="#bb965f" opacity="0.859">
                <path d="M 49.99972534179688 98.4998779296875 C 43.45164108276367 98.4998779296875 37.10022354125977 97.21776580810547 31.12189674377441 94.68914794921875 C 25.34676742553711 92.24647521972656 20.15985298156738 88.74925994873047 15.70523929595947 84.29464721679688 C 11.25062561035156 79.84004974365234 7.753411293029785 74.65313720703125 5.310725212097168 68.87800598144531 C 2.782111167907715 62.89969253540039 1.499996781349182 56.54829406738281 1.499996781349182 50.00022125244141 C 1.499996781349182 43.45157623291016 2.782111167907715 37.10017776489258 5.310725212097168 31.12186431884766 C 7.753411293029785 25.34673500061035 11.25062561035156 20.15983581542969 15.70523929595947 15.70522117614746 C 20.15985298156738 11.25062084197998 25.34676742553711 7.753406524658203 31.12189674377441 5.31073522567749 C 37.10022354125977 2.782120943069458 43.45164108276367 1.500006556510925 49.99972534179688 1.500006556510925 C 56.54780960083008 1.500006556510925 62.89922714233398 2.782120943069458 68.87755584716797 5.31073522567749 C 74.65267944335938 7.753406524658203 79.839599609375 11.25062084197998 84.29421234130859 15.70522117614746 C 88.74882507324219 20.15983581542969 92.24604034423828 25.34673500061035 94.68872833251953 31.12186431884766 C 97.21733856201172 37.10017776489258 98.49945068359375 43.45157623291016 98.49945068359375 49.99964904785156 C 98.49945068359375 56.54829406738281 97.21733856201172 62.89969253540039 94.68872833251953 68.87800598144531 C 92.24604034423828 74.65313720703125 88.74882507324219 79.84004974365234 84.29421234130859 84.29464721679688 C 79.839599609375 88.74925994873047 74.65267944335938 92.24647521972656 68.87755584716797 94.68914794921875 C 62.89922714233398 97.21776580810547 56.54780960083008 98.4998779296875 49.99972534179688 98.4998779296875 Z" stroke="none"/>
                <path d="M 49.99972534179688 3 C 43.65348052978516 3 37.49866485595703 4.242240905761719 31.70623016357422 6.692230224609375 C 26.10989379882812 9.059272766113281 21.08323669433594 12.44853210449219 16.76589202880859 16.76587677001953 C 12.44855499267578 21.08321380615234 9.059295654296875 26.10985565185547 6.692230224609375 31.70618438720703 C 4.24224853515625 37.49859619140625 3 43.65341186523438 3 50.00022888183594 C 3 56.34645843505859 4.24224853515625 62.50127410888672 6.692230224609375 68.29368591308594 C 9.059295654296875 73.8900146484375 12.44855499267578 78.91665649414062 16.76589202880859 83.23399353027344 C 21.08323669433594 87.55132293701172 26.10989379882812 90.94059753417969 31.70623016357422 93.30764007568359 C 37.49866485595703 95.75762939453125 43.65348052978516 96.99987030029297 49.99972534179688 96.99987030029297 C 56.34597015380859 96.99987030029297 62.50078582763672 95.75762939453125 68.293212890625 93.30764007568359 C 73.88955688476562 90.94059753417969 78.91621398925781 87.55132293701172 83.23355865478516 83.23399353027344 C 87.55089569091797 78.91665649414062 90.94015502929688 73.8900146484375 93.30722045898438 68.29368591308594 C 95.7572021484375 62.50127410888672 96.99945068359375 56.34645843505859 96.99945068359375 49.99964141845703 C 96.99945068359375 43.65341186523438 95.7572021484375 37.49859619140625 93.30722045898438 31.70618438720703 C 90.94015502929688 26.10985565185547 87.55089569091797 21.08321380615234 83.23355865478516 16.76587677001953 C 78.91621398925781 12.44853210449219 73.88955688476562 9.059272766113281 68.293212890625 6.692230224609375 C 62.50078582763672 4.242240905761719 56.34597015380859 3 49.99972534179688 3 M 49.99972534179688 0 C 77.61381530761719 0 99.99945068359375 22.38559722900391 99.99945068359375 49.99964141845703 L 99.99945068359375 50.00022888183594 C 99.99945068359375 77.6142578125 77.61381530761719 99.99987030029297 49.99972534179688 99.99987030029297 C 22.38563537597656 99.99987030029297 0 77.6142578125 0 50.00022888183594 L 0 49.99964141845703 C 0 22.38559722900391 22.38563537597656 0 49.99972534179688 0 Z" stroke="none" fill="#fff"/>
              </g>
            </g>
            <g id="Trazado_874923" data-name="Trazado 874923" transform="translate(0 0)" fill="none">
              <path d="M50,0a50,50,0,0,1,50,50h0A50,50,0,0,1,0,50H0A50,50,0,0,1,50,0Z" stroke="none"/>
              <path d="M 49.99972534179688 3 C 43.65348052978516 3 37.49866485595703 4.242240905761719 31.70623016357422 6.692230224609375 C 26.10989379882812 9.059272766113281 21.08323669433594 12.44853210449219 16.76589202880859 16.76587677001953 C 12.44855499267578 21.08321380615234 9.059295654296875 26.10985565185547 6.692230224609375 31.70618438720703 C 4.24224853515625 37.49859619140625 3 43.65341186523438 3 50.00022888183594 C 3 56.34645843505859 4.24224853515625 62.50127410888672 6.692230224609375 68.29368591308594 C 9.059295654296875 73.8900146484375 12.44855499267578 78.91665649414062 16.76589202880859 83.23399353027344 C 21.08323669433594 87.55132293701172 26.10989379882812 90.94059753417969 31.70623016357422 93.30764007568359 C 37.49866485595703 95.75762939453125 43.65348052978516 96.99987030029297 49.99972534179688 96.99987030029297 C 56.34597015380859 96.99987030029297 62.50078582763672 95.75762939453125 68.293212890625 93.30764007568359 C 73.88955688476562 90.94059753417969 78.91621398925781 87.55132293701172 83.23355865478516 83.23399353027344 C 87.55089569091797 78.91665649414062 90.94015502929688 73.8900146484375 93.30722045898438 68.29368591308594 C 95.7572021484375 62.50127410888672 96.99945068359375 56.34645843505859 96.99945068359375 49.99964141845703 C 96.99945068359375 43.65341186523438 95.7572021484375 37.49859619140625 93.30722045898438 31.70618438720703 C 90.94015502929688 26.10985565185547 87.55089569091797 21.08321380615234 83.23355865478516 16.76587677001953 C 78.91621398925781 12.44853210449219 73.88955688476562 9.059272766113281 68.293212890625 6.692230224609375 C 62.50078582763672 4.242240905761719 56.34597015380859 3 49.99972534179688 3 M 49.99972534179688 0 C 77.61381530761719 0 99.99945068359375 22.38559722900391 99.99945068359375 49.99964141845703 L 99.99945068359375 50.00022888183594 C 99.99945068359375 77.6142578125 77.61381530761719 99.99987030029297 49.99972534179688 99.99987030029297 C 22.38563537597656 99.99987030029297 0 77.6142578125 0 50.00022888183594 L 0 49.99964141845703 C 0 22.38559722900391 22.38563537597656 0 49.99972534179688 0 Z" stroke="none" fill="#fff"/>
            </g>
          </g>
        </g>
      </g>
    </g>
    <g id="Grupo_1123328" data-name="Grupo 1123328" transform="translate(1125.767 15283.819)">
      <g id="Grupo_1123327" data-name="Grupo 1123327" transform="translate(8.182 8.186)">
        <g id="Grupo_1123321" data-name="Grupo 1123321" transform="translate(0 31.857)">
          <path id="Trazado_919859" data-name="Trazado 919859" d="M27.53,239.309c-7.721,1.945-8.217-6.011-12.425-7.695a.151.151,0,0,1,.02-.287C18.139,230.586,27.53,228.936,27.53,239.309Zm1.22,2.315c-2.686-10.02,6.812-10.854,9.916-10.919a.151.151,0,0,1,.093.272C35.13,233.692,36.712,241.5,28.75,241.623Z" transform="translate(-15.01 -230.705)" fill="#6cf5c2" fill-rule="evenodd"/>
          <path id="Trazado_919860" data-name="Trazado 919860" d="M16.53,232.508a5.012,5.012,0,0,0-1.425-.894.151.151,0,0,1,.02-.287c3.014-.741,12.405-2.391,12.405,7.982l-.068.017C26.724,231.731,20.132,231.877,16.53,232.508Zm11.776,6.611c-.573-7.66,7.538-8.355,10.36-8.414a.151.151,0,0,1,.093.272,5.029,5.029,0,0,0-1.16,1.253c-3.127.219-8.839,1.332-9.294,6.888Z" transform="translate(-15.01 -230.705)" fill="#00e499" fill-rule="evenodd"/>
        </g>
        <g id="Grupo_1123322" data-name="Grupo 1123322" transform="translate(22.977 0)">
          <path id="Trazado_919861" data-name="Trazado 919861" d="M194.831,63.385V75.746H191.1V63.385Zm6.907,0V75.746h-3.726V63.385Zm6.907,0V75.746h-3.726V63.385Z" transform="translate(-188.071 -56.242)" fill="#eceff1" fill-rule="evenodd"/>
          <path id="Trazado_919862" data-name="Trazado 919862" d="M206.329,63.385h1.477V75.746h-1.477Zm6.907,0h1.477V75.746h-1.477Zm6.907,0h1.477V75.746h-1.477Z" transform="translate(-201.047 -56.242)" fill="#d1d1d6" fill-rule="evenodd"/>
          <path id="Trazado_919863" data-name="Trazado 919863" d="M197.8,140.533a.043.043,0,0,0-.043-.043h-22a.043.043,0,0,0-.043.043v2.851a.043.043,0,0,0,.043.043h22a.043.043,0,0,0,.043-.043Z" transform="translate(-174.95 -121.958)" fill="#8d9ca8" fill-rule="evenodd"/>
          <path id="Trazado_919864" data-name="Trazado 919864" d="M175.71,143.115h21.669a.043.043,0,0,0,.043-.043V140.49h.333a.043.043,0,0,1,.043.043v2.851a.043.043,0,0,1-.043.043h-22a.043.043,0,0,1-.043-.043Z" transform="translate(-174.95 -121.958)" fill="#8192a5" fill-rule="evenodd"/>
          <path id="Trazado_919865" data-name="Trazado 919865" d="M182.347,15.035a.042.042,0,0,1,.047,0l11.761,7.639a.043.043,0,0,1-.023.079H170.61a.043.043,0,0,1-.023-.079Z" transform="translate(-170.567 -15.028)" fill="#9facba" fill-rule="evenodd"/>
          <path id="Trazado_919866" data-name="Trazado 919866" d="M245.477,15.5l.715-.465a.042.042,0,0,1,.047,0L258,22.674a.043.043,0,0,1-.023.079H256.5a.043.043,0,0,0,.023-.079Z" transform="translate(-234.412 -15.028)" fill="#8d9ca8" fill-rule="evenodd"/>
        </g>
        <g id="Grupo_1123323" data-name="Grupo 1123323" transform="translate(19.782 52.728)">
          <path id="Trazado_919867" data-name="Trazado 919867" d="M282.611,432.659c-.015,1.919,3.122,3.322,5.127,3.319s5.072-1.326,5.124-3.319Z" transform="translate(-262.866 -423.699)" fill="#ffe177" fill-rule="evenodd"/>
          <path id="Trazado_919868" data-name="Trazado 919868" d="M238.389,376.193a2.1,2.1,0,1,0-2.095-2.1A2.1,2.1,0,0,0,238.389,376.193Z" transform="translate(-223.391 -372)" fill="#8ac9fe" fill-rule="evenodd"/>
          <path id="Trazado_919869" data-name="Trazado 919869" d="M248.69,376.176a2.1,2.1,0,0,0,0-4.159,2.076,2.076,0,0,1,.264-.017,2.1,2.1,0,1,1,0,4.193A2.076,2.076,0,0,1,248.69,376.176Z" transform="translate(-233.956 -372)" fill="#60b7ff" fill-rule="evenodd"/>
          <path id="Trazado_919870" data-name="Trazado 919870" d="M216.409,469.428a6.679,6.679,0,0,1,5.89,3.524.17.17,0,0,1-.151.248H210.672a.171.171,0,0,1-.151-.249A6.68,6.68,0,0,1,216.409,469.428Z" transform="translate(-201.408 -455.037)" fill="#837683" fill-rule="evenodd"/>
          <path id="Trazado_919871" data-name="Trazado 919871" d="M242.481,469.533a6.692,6.692,0,0,1,7.074,3.419.17.17,0,0,1-.151.248h-.517a.17.17,0,0,0,0-.164,6.678,6.678,0,0,0-5.89-3.524Q242.739,469.513,242.481,469.533Z" transform="translate(-228.664 -455.037)" fill="#685e68" fill-rule="evenodd"/>
          <path id="Trazado_919872" data-name="Trazado 919872" d="M148.939,432.659c.149,2.161,3.134,3.345,5.127,3.319,1.977,0,5.011-1.4,5.124-3.319Z" transform="translate(-148.939 -423.699)" fill="#ffe177" fill-rule="evenodd"/>
        </g>
        <g id="Grupo_1123324" data-name="Grupo 1123324" transform="translate(54.206 32.58)">
          <path id="Trazado_919873" data-name="Trazado 919873" d="M382,300.536a.346.346,0,0,0,.342.4h16a.347.347,0,0,0,.343-.4,8.444,8.444,0,0,0-16.684,0Z" transform="translate(-381.992 -284.862)" fill="#ffe177" fill-rule="evenodd"/>
          <path id="Trazado_919874" data-name="Trazado 919874" d="M442.076,300.933a.347.347,0,0,0,.343-.4,8.446,8.446,0,0,0-7.774-7.117q.281-.019.568-.019a8.445,8.445,0,0,1,8.342,7.136.347.347,0,0,1-.343.4Z" transform="translate(-426.868 -284.862)" fill="#ffd064" fill-rule="evenodd"/>
          <path id="Trazado_919875" data-name="Trazado 919875" d="M413.87,244.138a4.269,4.269,0,1,0-4.267-4.269A4.276,4.276,0,0,0,413.87,244.138Z" transform="translate(-405.525 -235.6)" fill="#f6dccd" fill-rule="evenodd"/>
          <path id="Trazado_919876" data-name="Trazado 919876" d="M436.567,244.128a4.269,4.269,0,0,0,0-8.519q.141-.01.284-.009a4.269,4.269,0,0,1,0,8.538Q436.708,244.138,436.567,244.128Z" transform="translate(-428.506 -235.6)" fill="#f1cbbc" fill-rule="evenodd"/>
        </g>
        <g id="Grupo_1123325" data-name="Grupo 1123325" transform="translate(47.969 28.335)">
          <path id="Trazado_919877" data-name="Trazado 919877" d="M339.765,271.792a.346.346,0,0,0,.342.4h16a.347.347,0,0,0,.343-.4,8.444,8.444,0,0,0-16.684,0Z" transform="translate(-339.761 -256.118)" fill="#8ac9fe" fill-rule="evenodd"/>
          <path id="Trazado_919878" data-name="Trazado 919878" d="M399.845,272.189a.347.347,0,0,0,.343-.4,8.446,8.446,0,0,0-7.774-7.117q.281-.019.568-.019a8.445,8.445,0,0,1,8.342,7.136.347.347,0,0,1-.343.4Z" transform="translate(-384.637 -256.118)" fill="#60b7ff" fill-rule="evenodd"/>
          <path id="Trazado_919879" data-name="Trazado 919879" d="M371.639,215.394a4.269,4.269,0,1,0-4.267-4.269A4.276,4.276,0,0,0,371.639,215.394Z" transform="translate(-363.294 -206.856)" fill="#f6dccd" fill-rule="evenodd"/>
          <path id="Trazado_919880" data-name="Trazado 919880" d="M394.336,215.384a4.269,4.269,0,0,0,0-8.519q.141-.009.284-.009a4.269,4.269,0,1,1,0,8.538Q394.477,215.394,394.336,215.384Z" transform="translate(-386.275 -206.856)" fill="#f1cbbc" fill-rule="evenodd"/>
        </g>
        <g id="Grupo_1123326" data-name="Grupo 1123326" transform="translate(25.704 29.416)">
          <path id="Trazado_919881" data-name="Trazado 919881" d="M198.1,214.179a9.077,9.077,0,1,1-9.077,9.077A9.077,9.077,0,0,1,198.1,214.179Z" transform="translate(-189.027 -214.179)" fill="#ffc338" fill-rule="evenodd"/>
          <path id="Trazado_919882" data-name="Trazado 919882" d="M245.992,214.179a9.077,9.077,0,1,1,0,18.153c-.262,0-.521-.012-.777-.034a9.076,9.076,0,0,0,0-18.086C245.471,214.191,245.73,214.179,245.992,214.179Z" transform="translate(-236.916 -214.179)" fill="#f5b829" fill-rule="evenodd"/>
        </g>
      </g>
      <path id="Trazado_919883" data-name="Trazado 919883" d="M33.01,17.1H31.056a1.182,1.182,0,0,1-.644-2.173L42.318,7.191a1.182,1.182,0,0,1,1.287,0L55.51,14.924a1.182,1.182,0,0,1-.644,2.173H52.913V25.54h1.092a1.182,1.182,0,0,1,1.182,1.182v2.937a1.182,1.182,0,0,1-1.182,1.182H31.918a1.182,1.182,0,0,1-1.182-1.182V26.722a1.182,1.182,0,0,1,1.182-1.182H33.01Zm17.539,0H49.187V25.54h1.362Zm-15.5-2.363H50.878L42.962,9.591ZM36.736,17.1H35.373V25.54h1.362ZM52.824,27.9H33.1v.574H52.824Zm-6-2.363V17.1h-.818V25.54ZM39.917,17.1H39.1V25.54h.818Zm3.726,0H42.28V25.54h1.362ZM62.014,53.734H56.147a1.182,1.182,0,0,1-1.175-1.308,9.592,9.592,0,0,1,5.709-7.758,5.425,5.425,0,1,1,9.128-4.957,5.424,5.424,0,0,1,4.739,9.2,9.586,9.586,0,0,1,5.708,7.758,1.182,1.182,0,0,1-1.175,1.307h-16.7a1.182,1.182,0,0,1-1.175-1.308,9.529,9.529,0,0,1,.8-2.938ZM64.5,46.241a7.219,7.219,0,0,0-6.908,5.129H71.4A7.217,7.217,0,0,0,64.5,46.241Zm3.816-1.573a9.611,9.611,0,0,1,3.88,3.085A3.063,3.063,0,0,0,70.733,42a3.036,3.036,0,0,0-.979.161A5.434,5.434,0,0,1,68.311,44.668Zm5.487,6.5a9.55,9.55,0,0,1,.22,1.259,1.182,1.182,0,0,1-1.175,1.307H64.707a7.186,7.186,0,0,0-.883,1.882H77.642A7.231,7.231,0,0,0,73.8,51.168Zm-9.3-7.29a3.064,3.064,0,1,0-3.062-3.064A3.07,3.07,0,0,0,64.5,43.878ZM38.05,69.276a1.182,1.182,0,0,1,.148.8,5.185,5.185,0,0,1-10.217,0,1.182,1.182,0,0,1,.148-.8l3.945-6.655a1.182,1.182,0,0,1,1.017-.579,1.91,1.91,0,0,1,.315.043h0a4.686,4.686,0,0,0,3.733-.2,6.365,6.365,0,0,1,2.884-.317,3.276,3.276,0,0,1,5.879,0,6.37,6.37,0,0,1,2.884.317,4.687,4.687,0,0,0,3.733.2,2.953,2.953,0,0,1,.316-.043,1.182,1.182,0,0,1,1.016.579l3.943,6.655a1.181,1.181,0,0,1,.148.8,5.185,5.185,0,0,1-10.217,0,1.182,1.182,0,0,1,.148-.8l2.679-4.518a5.647,5.647,0,0,1-2.027-.452,4.7,4.7,0,0,0-2.413-.381,3.3,3.3,0,0,1-1.967,2.147q0,3.029,0,8.145a7.868,7.868,0,0,1,5.9,4.352,1.182,1.182,0,0,1-1.064,1.7H36.95a1.182,1.182,0,0,1-1.064-1.7,7.868,7.868,0,0,1,5.9-4.352q0-5.116,0-8.144a3.3,3.3,0,0,1-1.967-2.147A4.693,4.693,0,0,0,37.4,64.3a5.646,5.646,0,0,1-2.028.452Zm-7.077,1.784a2.821,2.821,0,0,0,4.233,0ZM34.96,68.7,33.09,65.54,31.219,68.7Zm8-4.767a.915.915,0,1,0-.914-.916.918.918,0,0,0,.914.916ZM54.7,68.7,52.835,65.54,50.964,68.7Zm-3.986,2.363a2.823,2.823,0,0,0,4.234,0Zm-7.754,5.431a5.476,5.476,0,0,0-3.675,1.41h7.353A5.48,5.48,0,0,0,42.964,76.491ZM34.923,40.315l-14.89-14.89A1.182,1.182,0,1,1,21.7,23.754l14.89,14.89a10.227,10.227,0,0,1,12.736,0l14.89-14.89a1.182,1.182,0,1,1,1.671,1.671L51,40.316a10.232,10.232,0,0,1,0,12.735L65.891,67.941a1.182,1.182,0,1,1-1.671,1.671l-14.89-14.89a10.227,10.227,0,0,1-12.736,0L21.7,69.612a1.182,1.182,0,0,1-1.671-1.671l14.89-14.891a10.233,10.233,0,0,1,0-12.735Zm8.036,14.268a7.9,7.9,0,1,0-7.9-7.9A7.915,7.915,0,0,0,42.959,54.583Zm-1.18-13.475v-.3a1.182,1.182,0,0,1,2.363,0V41.1a3.912,3.912,0,0,1,2.641,2.312,1.182,1.182,0,0,1-2.179.914,1.8,1.8,0,0,0-2.367-.878,1.042,1.042,0,0,0-.761,1v0a.843.843,0,0,0,.565.715,4.079,4.079,0,0,0,1.119.321h0c1.768.291,3.678,1.129,3.931,3.23.241,1.994-1.275,3.2-2.951,3.581v.26a1.182,1.182,0,0,1-2.363,0v-.278a3.876,3.876,0,0,1-2.94-2.811,1.182,1.182,0,0,1,2.293-.571,1.776,1.776,0,0,0,1.919,1.165h0a2.828,2.828,0,0,0,1.156-.262.784.784,0,0,0,.536-.8h0a1.072,1.072,0,0,0-.727-.842,4.985,4.985,0,0,0-1.24-.339c-1.741-.284-3.567-1.193-3.664-3.258a3.33,3.33,0,0,1,2.256-3.311,4.239,4.239,0,0,1,.407-.137ZM20.072,49.994c-3.892.682-6.072-.969-7.812-3.077-.812-.983-1.514-2.08-2.277-3.038a5.493,5.493,0,0,0-2.146-1.826,1.333,1.333,0,0,1,.175-2.531h0a17.988,17.988,0,0,1,6.449-.479,8.4,8.4,0,0,1,4.975,2.345,7.788,7.788,0,0,1,1.648,2.57q.084-.171.176-.334a8.4,8.4,0,0,1,4.2-3.552,17.987,17.987,0,0,1,6.353-1.205h0a1.333,1.333,0,0,1,.825,2.4,5.488,5.488,0,0,0-1.6,2.318c-.489,1.122-.883,2.363-1.413,3.523-1.068,2.34-2.618,4.391-6.08,4.913a18.557,18.557,0,0,1,.591,3.462,1.182,1.182,0,0,1-2.355.195,12.289,12.289,0,0,0-1.709-5.683Zm-.983-4.6a5.728,5.728,0,0,0-1.343-2.353,6.059,6.059,0,0,0-3.608-1.654,12.845,12.845,0,0,0-3.229,0A24.629,24.629,0,0,1,13.2,44.259a8.2,8.2,0,0,0,3.463,3.2,4.8,4.8,0,0,0,1.54.307,19.662,19.662,0,0,0-3.543-2.517A1.182,1.182,0,1,1,15.841,43.2,25.067,25.067,0,0,1,19.088,45.391Zm5,4.082a4.812,4.812,0,0,0,1.425-.7,8.2,8.2,0,0,0,2.515-3.989,24.731,24.731,0,0,1,1.47-3.366,12.834,12.834,0,0,0-3.12.831,6.057,6.057,0,0,0-3.056,2.531,5.734,5.734,0,0,0-.689,2.634,24.5,24.5,0,0,1,2.571-2.966,1.182,1.182,0,1,1,1.671,1.672,20.029,20.029,0,0,0-2.787,3.354Z" transform="translate(0)" fill-rule="evenodd"/>
    </g>
  </g>
</svg>
