<svg xmlns="http://www.w3.org/2000/svg" xmlns:xlink="http://www.w3.org/1999/xlink" width="118" height="118" viewBox="0 0 118 118">
  <defs>
    <filter id="Trazado_874925" x="0" y="0" width="118" height="118" filterUnits="userSpaceOnUse">
      <feOffset dy="3" input="SourceAlpha"/>
      <feGaussianBlur stdDeviation="3" result="blur"/>
      <feFlood flood-opacity="0.161"/>
      <feComposite operator="in" in2="blur"/>
      <feComposite in="SourceGraphic"/>
    </filter>
  </defs>
  <g id="Grupo_1123339" data-name="Grupo 1123339" transform="translate(1277.568 -3671.878)">
    <g id="Grupo_1111553" data-name="Grupo 1111553" transform="translate(-2077.068 1160.721)">
      <g id="Grupo_1111316" data-name="Grupo 1111316" transform="translate(808.5 2517.157)">
        <g id="Grupo_1109835" data-name="Grupo 1109835" transform="translate(0 0)">
          <g id="Grupo_1107913" data-name="Grupo 1107913" transform="translate(0 0)">
            <g transform="matrix(1, 0, 0, 1, -9, -6)" filter="url(#Trazado_874925)">
              <g id="Trazado_874925-2" data-name="Trazado 874925" transform="translate(9 6)" fill="#bb965f" opacity="0.859">
                <path d="M 49.99972534179688 98.4998779296875 C 43.45164108276367 98.4998779296875 37.10022354125977 97.21776580810547 31.12189674377441 94.68914794921875 C 25.34676742553711 92.24647521972656 20.15985298156738 88.74925994873047 15.70523929595947 84.29464721679688 C 11.25062561035156 79.84004974365234 7.753411293029785 74.65313720703125 5.310725212097168 68.87800598144531 C 2.782111167907715 62.89969253540039 1.499996781349182 56.54829406738281 1.499996781349182 50.00022125244141 C 1.499996781349182 43.45157623291016 2.782111167907715 37.10017776489258 5.310725212097168 31.12186431884766 C 7.753411293029785 25.34673500061035 11.25062561035156 20.15983581542969 15.70523929595947 15.70522117614746 C 20.15985298156738 11.25062084197998 25.34676742553711 7.753406524658203 31.12189674377441 5.31073522567749 C 37.10022354125977 2.782120943069458 43.45164108276367 1.500006556510925 49.99972534179688 1.500006556510925 C 56.54780960083008 1.500006556510925 62.89922714233398 2.782120943069458 68.87755584716797 5.31073522567749 C 74.65267944335938 7.753406524658203 79.839599609375 11.25062084197998 84.29421234130859 15.70522117614746 C 88.74882507324219 20.15983581542969 92.24604034423828 25.34673500061035 94.68872833251953 31.12186431884766 C 97.21733856201172 37.10017776489258 98.49945068359375 43.45157623291016 98.49945068359375 49.99964904785156 C 98.49945068359375 56.54829406738281 97.21733856201172 62.89969253540039 94.68872833251953 68.87800598144531 C 92.24604034423828 74.65313720703125 88.74882507324219 79.84004974365234 84.29421234130859 84.29464721679688 C 79.839599609375 88.74925994873047 74.65267944335938 92.24647521972656 68.87755584716797 94.68914794921875 C 62.89922714233398 97.21776580810547 56.54780960083008 98.4998779296875 49.99972534179688 98.4998779296875 Z" stroke="none"/>
                <path d="M 49.99972534179688 3 C 43.65348052978516 3 37.49866485595703 4.242240905761719 31.70623016357422 6.692230224609375 C 26.10989379882812 9.059272766113281 21.08323669433594 12.44853210449219 16.76589202880859 16.76587677001953 C 12.44855499267578 21.08321380615234 9.059295654296875 26.10985565185547 6.692230224609375 31.70618438720703 C 4.24224853515625 37.49859619140625 3 43.65341186523438 3 50.00022888183594 C 3 56.34645843505859 4.24224853515625 62.50127410888672 6.692230224609375 68.29368591308594 C 9.059295654296875 73.8900146484375 12.44855499267578 78.91665649414062 16.76589202880859 83.23399353027344 C 21.08323669433594 87.55132293701172 26.10989379882812 90.94059753417969 31.70623016357422 93.30764007568359 C 37.49866485595703 95.75762939453125 43.65348052978516 96.99987030029297 49.99972534179688 96.99987030029297 C 56.34597015380859 96.99987030029297 62.50078582763672 95.75762939453125 68.293212890625 93.30764007568359 C 73.88955688476562 90.94059753417969 78.91621398925781 87.55132293701172 83.23355865478516 83.23399353027344 C 87.55089569091797 78.91665649414062 90.94015502929688 73.8900146484375 93.30722045898438 68.29368591308594 C 95.7572021484375 62.50127410888672 96.99945068359375 56.34645843505859 96.99945068359375 49.99964141845703 C 96.99945068359375 43.65341186523438 95.7572021484375 37.49859619140625 93.30722045898438 31.70618438720703 C 90.94015502929688 26.10985565185547 87.55089569091797 21.08321380615234 83.23355865478516 16.76587677001953 C 78.91621398925781 12.44853210449219 73.88955688476562 9.059272766113281 68.293212890625 6.692230224609375 C 62.50078582763672 4.242240905761719 56.34597015380859 3 49.99972534179688 3 M 49.99972534179688 0 C 77.61381530761719 0 99.99945068359375 22.38559722900391 99.99945068359375 49.99964141845703 L 99.99945068359375 50.00022888183594 C 99.99945068359375 77.6142578125 77.61381530761719 99.99987030029297 49.99972534179688 99.99987030029297 C 22.38563537597656 99.99987030029297 0 77.6142578125 0 50.00022888183594 L 0 49.99964141845703 C 0 22.38559722900391 22.38563537597656 0 49.99972534179688 0 Z" stroke="none" fill="#fff"/>
              </g>
            </g>
            <g id="Trazado_874923" data-name="Trazado 874923" transform="translate(0 0)" fill="none">
              <path d="M50,0a50,50,0,0,1,50,50h0A50,50,0,0,1,0,50H0A50,50,0,0,1,50,0Z" stroke="none"/>
              <path d="M 49.99972534179688 3 C 43.65348052978516 3 37.49866485595703 4.242240905761719 31.70623016357422 6.692230224609375 C 26.10989379882812 9.059272766113281 21.08323669433594 12.44853210449219 16.76589202880859 16.76587677001953 C 12.44855499267578 21.08321380615234 9.059295654296875 26.10985565185547 6.692230224609375 31.70618438720703 C 4.24224853515625 37.49859619140625 3 43.65341186523438 3 50.00022888183594 C 3 56.34645843505859 4.24224853515625 62.50127410888672 6.692230224609375 68.29368591308594 C 9.059295654296875 73.8900146484375 12.44855499267578 78.91665649414062 16.76589202880859 83.23399353027344 C 21.08323669433594 87.55132293701172 26.10989379882812 90.94059753417969 31.70623016357422 93.30764007568359 C 37.49866485595703 95.75762939453125 43.65348052978516 96.99987030029297 49.99972534179688 96.99987030029297 C 56.34597015380859 96.99987030029297 62.50078582763672 95.75762939453125 68.293212890625 93.30764007568359 C 73.88955688476562 90.94059753417969 78.91621398925781 87.55132293701172 83.23355865478516 83.23399353027344 C 87.55089569091797 78.91665649414062 90.94015502929688 73.8900146484375 93.30722045898438 68.29368591308594 C 95.7572021484375 62.50127410888672 96.99945068359375 56.34645843505859 96.99945068359375 49.99964141845703 C 96.99945068359375 43.65341186523438 95.7572021484375 37.49859619140625 93.30722045898438 31.70618438720703 C 90.94015502929688 26.10985565185547 87.55089569091797 21.08321380615234 83.23355865478516 16.76587677001953 C 78.91621398925781 12.44853210449219 73.88955688476562 9.059272766113281 68.293212890625 6.692230224609375 C 62.50078582763672 4.242240905761719 56.34597015380859 3 49.99972534179688 3 M 49.99972534179688 0 C 77.61381530761719 0 99.99945068359375 22.38559722900391 99.99945068359375 49.99964141845703 L 99.99945068359375 50.00022888183594 C 99.99945068359375 77.6142578125 77.61381530761719 99.99987030029297 49.99972534179688 99.99987030029297 C 22.38563537597656 99.99987030029297 0 77.6142578125 0 50.00022888183594 L 0 49.99964141845703 C 0 22.38559722900391 22.38563537597656 0 49.99972534179688 0 Z" stroke="none" fill="#fff"/>
            </g>
          </g>
        </g>
      </g>
    </g>
    <g id="Grupo_1123338" data-name="Grupo 1123338" transform="translate(-1253.81 3692.526)">
      <g id="Grupo_1123335" data-name="Grupo 1123335" transform="translate(1.244 1.301)">
        <circle id="Elipse_11978" data-name="Elipse 11978" cx="25.455" cy="25.455" r="25.455" transform="translate(8.669 0)" fill="#b6e6fa"/>
        <path id="Trazado_919904" data-name="Trazado 919904" d="M75.479,33.223a25.455,25.455,0,0,1,23.735-25.4c-.569-.038-1.142-.059-1.72-.059a25.455,25.455,0,0,0,0,50.911c.578,0,1.151-.021,1.72-.059A25.455,25.455,0,0,1,75.479,33.223Z" transform="translate(-63.37 -7.768)" fill="#54c9f3"/>
        <g id="Grupo_1123333" data-name="Grupo 1123333" transform="translate(8.669 0)">
          <path id="Trazado_919905" data-name="Trazado 919905" d="M230.683,14.419l3.135,6.449h5.249l4.449-4.438A25.49,25.49,0,0,0,219.179,8.3l5.209,6.116Z" transform="translate(-198.933 -7.768)" fill="#b6efbb"/>
          <path id="Trazado_919906" data-name="Trazado 919906" d="M79.663,86.111l6.7-5.207L84.44,74.377H77.935A25.5,25.5,0,0,0,72.686,96.4l6.977-4.735Z" transform="translate(-72.039 -65.212)" fill="#b6efbb"/>
          <path id="Trazado_919907" data-name="Trazado 919907" d="M389.662,129.612l-6.591,2.489v2.981l3.19,3.219-1.4,5.278,4.592,3.977a25.549,25.549,0,0,0,.213-17.945Z" transform="translate(-340.274 -112.847)" fill="#b6efbb"/>
        </g>
        <path id="Trazado_919908" data-name="Trazado 919908" d="M77.035,415.3l-1.15-4.818-32.722,7.843-32.974-7.843L9.039,415.3l34.124,8.087Z" transform="translate(-9.039 -355.066)" fill="#ffaa81"/>
        <path id="Trazado_919909" data-name="Trazado 919909" d="M75.958,381.7a9.075,9.075,0,0,0-7.006-8.716L48.38,368.075l-1.313,6.76L75.958,381.7l28.88-6.925-1.313-6.76-20.814,4.969A8.85,8.85,0,0,0,75.958,381.7Z" transform="translate(-41.834 -318.448)" fill="#fff"/>
        <g id="Grupo_1123334" data-name="Grupo 1123334" transform="translate(27.244 20.117)">
          <path id="Trazado_919910" data-name="Trazado 919910" d="M213.918,158.768a5.617,5.617,0,0,1,1.4-3.4c1.859-1.86,5.413-1.322,5.413-1.322s.538,3.553-1.322,5.413-5.486,1.322-5.486,1.322-3.626.538-5.485-1.322-1.322-5.413-1.322-5.413,3.553-.538,5.413,1.322a5.607,5.607,0,0,1,1.394,3.4" transform="translate(-207.039 -153.973)" fill="#feef8f"/>
        </g>
        <path id="Trazado_919911" data-name="Trazado 919911" d="M178.6,221.128s-7.675-1.162-11.693,2.856c-2.007,2.007-2.712,4.927-2.916,7.347a12.55,12.55,0,0,0-3.107-7.347c-4.017-4.017-11.693-2.856-11.693-2.856s-1.162,7.675,2.856,11.693,12.04,2.856,12.04,2.856,7.64,1.162,11.657-2.856,2.856-11.693,2.856-11.693Z" transform="translate(-129.775 -191.636)" fill="#feef8f"/>
        <path id="Trazado_919912" data-name="Trazado 919912" d="M75.479,90.667a25.351,25.351,0,0,1,5.9-16.29h-3.44A25.5,25.5,0,0,0,72.686,96.4l3.054-2.072a25.663,25.663,0,0,1-.261-3.656Z" transform="translate(-63.37 -65.212)" fill="#54e072"/>
        <path id="Trazado_919913" data-name="Trazado 919913" d="M155.491,232.824c-4.017-4.017-2.856-11.693-2.856-11.693s.3-.045.8-.086a20.343,20.343,0,0,0-4.244.086s-1.162,7.675,2.856,11.693c3.194,3.194,8.92,3.114,11.133,2.947C160.644,235.578,157.544,234.878,155.491,232.824Z" transform="translate(-129.776 -191.639)" fill="#f7d700"/>
        <path id="Trazado_919914" data-name="Trazado 919914" d="M261.271,235.677l-.1-4.346c.2-2.42.909-5.34,2.916-7.347,2.035-2.035,5.009-2.741,7.448-2.942-2.072-.17-7.66-.286-10.888,2.942-2.007,2.007-2.712,4.927-2.916,7.347l.1,4.346a20.165,20.165,0,0,0,4.234.086C261.564,235.721,261.271,235.677,261.271,235.677Z" transform="translate(-223.515 -191.636)" fill="#f7d700"/>
        <path id="Trazado_919915" data-name="Trazado 919915" d="M51.7,369.227l-3.319-.792-1.313,6.76,3.569.848Z" transform="translate(-41.835 -318.808)" fill="#dededf"/>
        <path id="Trazado_919916" data-name="Trazado 919916" d="M13.783,411.333l-3.594-.855L9.039,415.3l3.6.854Z" transform="translate(-9.039 -355.066)" fill="#fe7732"/>
      </g>
      <g id="Grupo_1123336" data-name="Grupo 1123336" transform="translate(32.272 14.481)">
        <path id="Trazado_919917" data-name="Trazado 919917" d="M234.539,103.555H236.6v2.064h-2.064Z" transform="translate(-234.539 -103.555)"/>
        <path id="Trazado_919918" data-name="Trazado 919918" d="M264.539,103.555H266.6v2.064h-2.064Z" transform="translate(-260.411 -103.555)"/>
      </g>
      <g id="Grupo_1123337" data-name="Grupo 1123337" transform="translate(0 0.269)">
        <path id="Trazado_919919" data-name="Trazado 919919" d="M68.853,55.468l-3.8.91-1.313-6.762L41.882,54.836A9.727,9.727,0,0,0,36.4,58.4V53.222a26.487,26.487,0,1,0-2.064,0v5.353a10.239,10.239,0,0,0-5.735-3.74L15.5,51.709l-.479,2.008,13.1,3.126a8.132,8.132,0,0,1,6.094,6.378L7.679,56.909,8.6,52.182l4.415,1.054.479-2.008-6.51-1.555L5.669,56.431,1.63,55.47,0,62.3l35.368,8.381L61.67,64.4l-.479-2.008L36.4,68.31V65.369l30.926-7.413L68,60.767l-4.8,1.146.479,2.008,6.8-1.625ZM34.336,68.312,2.488,60.765l.671-2.81,31.177,7.416ZM59.791,26.756a24.33,24.33,0,0,1-1.174,7.482l-2.958-2.562,1.39-5.226-3.308-3.338V21.269l4.92-1.858a24.338,24.338,0,0,1,1.129,7.346ZM35.368,2.333a24.357,24.357,0,0,1,17.693,7.6L49.62,13.369H45.443L42.308,6.919H35.844l-3.722-4.37a24.53,24.53,0,0,1,3.246-.216ZM10.944,26.756A24.305,24.305,0,0,1,16.312,11.5h5.23l1.506,5.112L16.5,21.695V27.2l-5.231,3.55a24.5,24.5,0,0,1-.329-4Zm23.391,16-11.3-11.079c2.418-.018,6.255.369,8.592,2.706a11.1,11.1,0,0,1,2.709,6.029v2.344Zm-1.2,1.71c-2.52.024-6.532-.354-8.883-2.706s-2.73-6.241-2.705-8.655Zm1.2-17.2a5.411,5.411,0,0,1-3.724-1.092A5.362,5.362,0,0,1,29.52,22.45a5.365,5.365,0,0,1,3.724,1.092,4.633,4.633,0,0,1,1.092,2.734Zm1.7-5.183a5,5,0,0,0-.667.83,4.916,4.916,0,0,0-.663-.83c-2.2-2.2-6.131-1.638-6.3-1.613l-.752.114-.114.752c-.025.166-.591,4.093,1.613,6.3a7.294,7.294,0,0,0,5.183,1.7v5.134a9.793,9.793,0,0,0-1.25-1.543c-4.336-4.336-12.242-3.2-12.577-3.146l-.752.114-.114.752c-.051.334-1.19,8.241,3.146,12.577,3.328,3.328,8.955,3.43,11.546,3.276v4.665a24.472,24.472,0,0,1-22.6-18.224L18.568,28.3V22.7l6.856-5.329L23.085,9.434H18.167a24.413,24.413,0,0,1,11.61-6.455l5.114,6h6.126l3.135,6.449h6.322l3.948-3.938a24.446,24.446,0,0,1,3.535,5.976l-6.278,2.371v4.119l3.073,3.1-1.417,5.329,4.515,3.91A24.468,24.468,0,0,1,36.4,51.156V46.469c2.31.18,8.066.228,11.546-3.253,4.336-4.336,3.2-12.243,3.146-12.577l-.114-.752-.752-.114c-.334-.051-8.241-1.19-12.577,3.146A9.162,9.162,0,0,0,36.4,34.49V29.328a7.3,7.3,0,0,0,5.183-1.7c2.2-2.2,1.638-6.131,1.613-6.3l-.114-.752-.752-.114c-.166-.025-4.1-.591-6.3,1.613ZM36.4,43.038v-.862l.092-1.094c.171-2.035.764-4.85,2.617-6.7,2.348-2.349,6.211-2.728,8.628-2.705Zm12.8-9.9c.024,2.414-.354,6.268-2.708,8.623S40.3,44.482,37.9,44.461ZM36.4,27.266v-1a4.635,4.635,0,0,1,1.093-2.723,5.362,5.362,0,0,1,3.723-1.092,5.361,5.361,0,0,1-1.092,3.724A5.41,5.41,0,0,1,36.4,27.266Zm.108,35.954a7.792,7.792,0,0,1,5.853-6.378l19.766-4.719.92,4.736Z" transform="translate(0 -0.269)"/>
      </g>
    </g>
  </g>
</svg>
