<svg xmlns="http://www.w3.org/2000/svg" xmlns:xlink="http://www.w3.org/1999/xlink" width="71" height="71" viewBox="0 0 71 71">
  <defs>
    <clipPath id="clip-path">
      <circle id="Elipse_11903" data-name="Elipse 11903" cx="35.5" cy="35.5" r="35.5" transform="translate(720.386 2171)" fill="#6b9339"/>
    </clipPath>
  </defs>
  <g id="Grupo_1120163" data-name="Grupo 1120163" transform="translate(-720.386 -2171)">
    <circle id="Elipse_11676" data-name="Elipse 11676" cx="35.5" cy="35.5" r="35.5" transform="translate(720.386 2171)" fill="#6b9339"/>
    <g id="Enmascarar_grupo_1098795" data-name="Enmascarar grupo 1098795" clip-path="url(#clip-path)">
      <g id="Grupo_1120162" data-name="Grupo 1120162" transform="translate(698.294 2143.248)">
        <path id="Trazado_918112" data-name="Trazado 918112" d="M24,16H42.57V61.711H24Z" transform="translate(-6.573)" fill="#2993ce"/>
        <path id="Trazado_918113" data-name="Trazado 918113" d="M24,248h82.851v44.282H24Z" transform="translate(-6.573 -190.575)" fill="#4895aa"/>
        <g id="Grupo_1120161" data-name="Grupo 1120161" transform="translate(15.998 57.425)">
          <path id="Trazado_918114" data-name="Trazado 918114" d="M16,248h85.708v2.857H16Z" transform="translate(-16 -248)" fill="#96d6e4"/>
          <path id="Trazado_918115" data-name="Trazado 918115" d="M424,304h12.856v2.857H424Z" transform="translate(-351.148 -294.001)" fill="#96d6e4"/>
          <path id="Trazado_918116" data-name="Trazado 918116" d="M16,320H33.142v2.857H16Z" transform="translate(-16 -307.144)" fill="#96d6e4"/>
        </g>
        <path id="Trazado_918117" data-name="Trazado 918117" d="M181.711,272.894v-9.181a4.285,4.285,0,0,0-4.285-4.285h-7.142a2.857,2.857,0,0,1,0-5.714h4.285a2.857,2.857,0,1,0,0-5.714H141.714a2.857,2.857,0,1,0,0,5.714h2.857a2.857,2.857,0,0,1,0,5.714h-5.714a2.857,2.857,0,1,0,0,5.714h11.991a9.624,9.624,0,0,1,8.007,4.285l1.819,3.468Z" transform="translate(-98.575 -190.575)" fill="#79b53f"/>
        <path id="Trazado_918118" data-name="Trazado 918118" d="M328.674,270.62h4.165a2.857,2.857,0,0,0,2.737-2.039h-4.165A2.857,2.857,0,0,0,328.674,270.62Z" transform="translate(-256.846 -207.481)" fill="#64962f"/>
        <path id="Trazado_918119" data-name="Trazado 918119" d="M154.857,253.714h2.857a2.855,2.855,0,0,1,2.737,3.675h.12a2.857,2.857,0,1,0,0-5.714h-2.857A2.855,2.855,0,0,1,154.977,248h-.12a2.857,2.857,0,0,0,0,5.714Z" transform="translate(-111.718 -190.575)" fill="#64962f"/>
        <path id="Trazado_918120" data-name="Trazado 918120" d="M161.712,319.96a9.624,9.624,0,0,0-8.007-4.285H141.714A2.855,2.855,0,0,1,138.977,312h-.12a2.857,2.857,0,1,0,0,5.714h11.991A9.624,9.624,0,0,1,158.855,322l1.819,3.468h21.037v-2.039H167.446a6.475,6.475,0,0,1-5.734-3.467Z" transform="translate(-98.575 -243.147)" fill="#64962f"/>
        <path id="Trazado_918121" data-name="Trazado 918121" d="M26.857,374.8,24,367.657l5.714-1.428,2.857,5.714,4.285-1.428V364.8h4.285l1.428,10-1.294.647a3.493,3.493,0,0,1-3.125,0,3.494,3.494,0,0,0-2.667-.189l-1.948.649a3.5,3.5,0,0,1-1.952.075Z" transform="translate(-6.573 -286.519)" fill="#d1dee0"/>
        <path id="Trazado_918122" data-name="Trazado 918122" d="M37,260.838H27.46l-.978-2,.029-3.194L24,250.51,29.133,248l2.51,5.133,2.538,1.939Z" transform="translate(-6.573 -190.575)" fill="#ecb347"/>
        <path id="Trazado_918123" data-name="Trazado 918123" d="M204.65,384h-2.5A40.592,40.592,0,0,0,184,388.285l4.01.8a6.531,6.531,0,0,1,4.561,3.483l6.993-1.918Z" transform="translate(-138.004 -302.291)" fill="#b5bbea"/>
        <path id="Trazado_918124" data-name="Trazado 918124" d="M204.062,371.273l4.122-4.122A51.728,51.728,0,0,1,244.762,352l-3.683,6.138a1.5,1.5,0,0,0,1.65,2.227l4.89-1.223a8.008,8.008,0,0,1-3.566,6.662l-10.719,7.148-20.423.385a18.5,18.5,0,0,1-8.85-2.065Z" transform="translate(-154.484 -276.005)" fill="#4e52a8"/>
        <path id="Trazado_918125" data-name="Trazado 918125" d="M206.04,372.152l2.144-2.144a51.726,51.726,0,0,1,34.844-15.118l1.734-2.89a51.728,51.728,0,0,0-36.578,15.151l-4.122,4.122a18.464,18.464,0,0,0,1.978.879Z" transform="translate(-154.484 -276.005)" fill="#7b81c6"/>
        <path id="Trazado_918126" data-name="Trazado 918126" d="M326.03,355.585A51.718,51.718,0,0,1,344.952,352l-3.683,6.138a1.5,1.5,0,0,0,1.65,2.227l4.89-1.223a8.008,8.008,0,0,1-3.566,6.662l-5.005,3.337-2.806-.351a11.654,11.654,0,0,1-10.05-9.649Z" transform="translate(-254.674 -276.005)" fill="#7b81c6"/>
        <path id="Trazado_918127" data-name="Trazado 918127" d="M343.21,354.889,344.943,352a51.719,51.719,0,0,0-18.924,3.586l.274,2.753A51.711,51.711,0,0,1,343.21,354.889Z" transform="translate(-254.665 -276.005)" fill="#b5bbea"/>
        <path id="Trazado_918128" data-name="Trazado 918128" d="M36.589,451.136l5.91-1.97a8.019,8.019,0,0,1,6.66.731,7.736,7.736,0,0,0,7.96,0l1.325-.795a7.736,7.736,0,0,1,3.981-1.1H65.6a7.736,7.736,0,0,1,3.459.817l3.139,1.57a7.736,7.736,0,0,0,7.44-.286l1.664-1a7.736,7.736,0,0,1,7.96,0l.845.507a7.736,7.736,0,0,0,8.621-.445L100.279,448v8.615H16V452.2l4.285.085H23.2a3.3,3.3,0,0,0,2.336-.968,6.45,6.45,0,0,1,4.561-1.889H31a8.622,8.622,0,0,1,5.293,1.816Z" transform="translate(-0.002 -354.863)" fill="#96d6e4"/>
        <path id="Trazado_918129" data-name="Trazado 918129" d="M357.714,377.428h-1.428V376h-2.857v1.428H352v2.857h1.428v1.428h2.857v-1.428h1.428Z" transform="translate(-276.007 -295.719)" fill="#252364"/>
        <path id="Trazado_918130" data-name="Trazado 918130" d="M207.713,161.712h-8.571V146.078a4.364,4.364,0,0,0-4.364-4.364H192V136h4.373a11.34,11.34,0,0,1,11.34,11.34Z" transform="translate(-144.576 -98.573)" fill="#64962f"/>
        <path id="Trazado_918131" data-name="Trazado 918131" d="M196.373,136H192v2.939A11.34,11.34,0,0,1,202,150.2v11.515h5.714V147.34A11.34,11.34,0,0,0,196.373,136Z" transform="translate(-144.576 -98.573)" fill="#79b53f"/>
        <path id="Trazado_918132" data-name="Trazado 918132" d="M24,72H49.712V92H24Z" transform="translate(-6.573 -46.001)" fill="#0c5177"/>
        <rect id="Rectángulo_405719" data-name="Rectángulo 405719" width="6" height="26" rx="3" transform="translate(42.85 22.752)" fill="#045f9c"/>
        <path id="Trazado_918133" data-name="Trazado 918133" d="M48,72,62.285,86.285,66.57,82l-10-10Z" transform="translate(-26.288 -46.001)" fill="#e97867"/>
        <path id="Trazado_918134" data-name="Trazado 918134" d="M66.57,72,52.285,86.285,48,82,58,72Z" transform="translate(-26.288 -46.001)" fill="#af4f45"/>
        <path id="Trazado_918135" data-name="Trazado 918135" d="M40,424.371l4.727,1.182a3.5,3.5,0,0,0,1.952-.075l1.947-.649a3.5,3.5,0,0,1,2.667.189,3.493,3.493,0,0,0,3.125,0l1.295-.647V420.8l-1.294.647a3.493,3.493,0,0,1-3.125,0,3.494,3.494,0,0,0-2.667-.189l-1.948.649a3.5,3.5,0,0,1-1.952.075L40,420.8Z" transform="translate(-19.717 -332.52)" fill="#96d6e4"/>
        <path id="Trazado_918136" data-name="Trazado 918136" d="M17.428,47.426H34.57V56H28.856v2.857H39.1a4.284,4.284,0,0,0,4.04,5.714H46a1.428,1.428,0,1,1,0,2.857H40.284a4.285,4.285,0,0,0,0,8.571H52.275a8.178,8.178,0,0,1,6.819,3.649l2.377-1.585a11.03,11.03,0,0,0-9.2-4.921H40.284a1.428,1.428,0,0,1,0-2.857H46a4.285,4.285,0,1,0,0-8.571H43.141a1.428,1.428,0,1,1,0-2.857h10v4.285a1.428,1.428,0,0,0,1.428,1.428h2.641V61.711H56V47.5a5.8,5.8,0,0,0-5.714-5.791V38.855H51.8a9.923,9.923,0,0,1,9.912,9.912V61.711H60.282v2.857h2.857a1.428,1.428,0,0,0,1.428-1.428V58.854H76a1.428,1.428,0,1,1,0,2.857H71.71a4.285,4.285,0,0,0,0,8.571h7.142a2.86,2.86,0,0,1,2.857,2.857v2.123a52.985,52.985,0,0,0-11.772,3.352q-1.856.768-3.635,1.667H64.151a42.234,42.234,0,0,0-18.792,4.436,1.428,1.428,0,0,0,.359,2.678l4.01.8a5.064,5.064,0,0,1,3.03,1.875l-.066.064L49.33,93.5a9.431,9.431,0,0,0-7.282-.551l-5.524,1.841A9.979,9.979,0,0,0,31,93.137h-.9a7.826,7.826,0,0,0-5.571,2.307,1.864,1.864,0,0,1-1.326.549H20.285v2.857H23.2a4.7,4.7,0,0,0,3.346-1.386A4.989,4.989,0,0,1,30.1,95.994H31A7.146,7.146,0,0,1,36.085,98.1a12.235,12.235,0,0,0,8.708,3.607H46V98.851h-1.2a9.385,9.385,0,0,1-5.7-1.908l3.854-1.285a6.582,6.582,0,0,1,5.474.6,9.148,9.148,0,0,0,9.43,0l1.325-.795a6.311,6.311,0,0,1,3.245-.9H65.6a6.34,6.34,0,0,1,2.821.666l3.139,1.57a9.123,9.123,0,0,0,8.814-.339l1.663-1a6.308,6.308,0,0,1,6.49,0l.845.507a9.129,9.129,0,0,0,10.214-.527l1.553-1.164-1.714-2.286-1.553,1.165a6.283,6.283,0,0,1-7.029.362L90,93.014a9.154,9.154,0,0,0-1.556-.743l1.924-1.283a9.417,9.417,0,0,0,4.2-7.85,1.428,1.428,0,0,0-1.775-1.386L87.9,82.974a.071.071,0,0,1-.079-.106L91.5,76.73a1.428,1.428,0,0,0-1.225-2.163,53.454,53.454,0,0,0-5.714.309V73.138a5.72,5.72,0,0,0-5.714-5.714H71.71a1.428,1.428,0,1,1,0-2.857H76a4.284,4.284,0,0,0,4.04-5.714h8.816V56H64.568v-7.23A12.783,12.783,0,0,0,51.8,36H50.283V26a4.285,4.285,0,0,0-8.325-1.428H37.427V16H34.57v8.571H17.428A1.428,1.428,0,0,0,16,26V46A1.428,1.428,0,0,0,17.428,47.426ZM50.754,85.5a39.479,39.479,0,0,1,10.4-2.247A52.838,52.838,0,0,0,54.843,88.1a7.888,7.888,0,0,0-4.088-2.6Zm36.964-8.015L85.372,81.4a2.928,2.928,0,0,0,3.221,4.348l2.836-.709a6.566,6.566,0,0,1-2.651,3.575l-4.563,3.042-2.279-.284A10.289,10.289,0,0,1,73.119,82.9l-2.818.47a13.087,13.087,0,0,0,9.071,10.358l-.469.282a6.278,6.278,0,0,1-6.066.233L69.7,92.676a9.214,9.214,0,0,0-4.1-.968H62.425a9.166,9.166,0,0,0-4.715,1.306l-1.325.8a6.3,6.3,0,0,1-4.158.832l2.485-2.485A50.307,50.307,0,0,1,87.718,77.488ZM44.569,26a1.428,1.428,0,1,1,2.857,0V46a1.428,1.428,0,1,1-2.857,0ZM46,50.283A4.29,4.29,0,0,0,50.283,46V44.573A2.937,2.937,0,0,1,53.14,47.5V56H37.427V47.426h4.531A4.292,4.292,0,0,0,46,50.283ZM40.876,27.428h.837V36a1.424,1.424,0,0,0-.418-1.009L37.3,31ZM38.264,36,36,38.264l-2.979-2.98,2.265-2.265Zm-1.428-8.571L26,38.264,23.734,36,32.3,27.428Zm-8.571,0-1.551,1.551-1.551-1.551Zm-9.408,0h2.265L24.693,31l-3.99,3.99a1.428,1.428,0,0,0,0,2.02l4.285,4.285a1.428,1.428,0,0,0,2.02,0L31,37.3l3.99,3.99a1.428,1.428,0,0,0,2.02,0l4.285-4.285A1.424,1.424,0,0,0,41.712,36V44.57H18.857Z" transform="translate(-0.002 0)"/>
        <path id="Trazado_918137" data-name="Trazado 918137" d="M440,240h2.857v2.857H440Z" transform="translate(-348.293 -184.003)"/>
        <path id="Trazado_918138" data-name="Trazado 918138" d="M424,312h7.142v2.857H424Z" transform="translate(-335.15 -243.147)"/>
        <path id="Trazado_918139" data-name="Trazado 918139" d="M480,312h2.857v2.857H480Z" transform="translate(-381.151 -243.147)"/>
        <path id="Trazado_918140" data-name="Trazado 918140" d="M18.957,368.758a1.428,1.428,0,0,0,.98.855l4.727,1.182a4.913,4.913,0,0,0,2.75-.106l1.946-.649a2.054,2.054,0,0,1,1.577.112,4.946,4.946,0,0,0,4.4,0l1.294-.647a1.428,1.428,0,0,0,.775-1.48l-1.428-10a1.428,1.428,0,0,0-1.413-1.226H30.283a1.428,1.428,0,0,0-1.428,1.428v4.684l-2.133.711-2.3-4.606a1.429,1.429,0,0,0-1.624-.747L17.08,359.7a1.428,1.428,0,0,0-.98,1.916Zm3.418-7.438,2.344,4.689a1.428,1.428,0,0,0,1.729.716l4.285-1.428a1.428,1.428,0,0,0,.977-1.355v-4.285h1.618l1.107,7.754-.374.187a2.076,2.076,0,0,1-1.847,0,4.891,4.891,0,0,0-3.758-.268l-1.946.649a2.062,2.062,0,0,1-1.154.044l-4.018-1-1.979-4.944Z" transform="translate(0 -279.948)"/>
        <path id="Trazado_918141" data-name="Trazado 918141" d="M18.624,252.892l.978,2a1.428,1.428,0,0,0,1.283.8h9.539a1.428,1.428,0,0,0,1.283-2.056l-2.818-5.765a1.429,1.429,0,0,0-.416-.508L26.2,245.63l-2.361-4.83a1.428,1.428,0,0,0-1.911-.656l-5.134,2.51a1.428,1.428,0,0,0-.656,1.911l2.362,4.83-.026,2.857a1.428,1.428,0,0,0,.145.64Zm3.279-9.553,1.882,3.85a1.429,1.429,0,0,0,.416.508l2.27,1.735,1.666,3.407h-6.36l-.439-.9.026-2.857a1.432,1.432,0,0,0-.145-.64l-1.882-3.851Z" transform="translate(0 -184.002)"/>
        <path id="Trazado_918142" data-name="Trazado 918142" d="M353.428,381.714h2.857v-1.428h1.428v-2.857h-1.428V376h-2.857v1.428H352v2.857h1.428Z" transform="translate(-276.007 -295.719)"/>
      </g>
    </g>
  </g>
</svg>
