<svg xmlns="http://www.w3.org/2000/svg" width="79" height="79" viewBox="0 0 79 79">
  <g id="Grupo_1118202" data-name="Grupo 1118202" transform="translate(-458.051 -1087)">
    <rect id="Rectángulo_404833" data-name="Rectángulo 404833" width="79" height="79" transform="translate(458.051 1087)" fill="none"/>
    <g id="Grupo_1118201" data-name="Grupo 1118201" transform="translate(462.051 1081.375)">
      <g id="Grupo_1118199" data-name="Grupo 1118199" transform="translate(0 10.625)">
        <path id="Trazado_909982" data-name="Trazado 909982" d="M41.152,10.958a1.49,1.49,0,0,0-1.263-.3L1.156,19.6A1.49,1.49,0,0,0,0,21.065V71.716a1.49,1.49,0,0,0,1.263,1.472L40,79.147a1.49,1.49,0,0,0,1.716-1.472V12.126A1.489,1.489,0,0,0,41.152,10.958Z" transform="translate(0 -10.625)" fill="#1565c0"/>
        <path id="Trazado_909983" data-name="Trazado 909983" d="M308.618,109.986H278.823a1.49,1.49,0,0,1,0-2.98h28.305V56.355H278.823a1.49,1.49,0,1,1,0-2.979h29.795a1.49,1.49,0,0,1,1.49,1.49V108.5A1.49,1.49,0,0,1,308.618,109.986Z" transform="translate(-238.6 -47.405)" fill="#1565c0"/>
      </g>
      <path id="Trazado_909984" data-name="Trazado 909984" d="M61.948,204.96a1.49,1.49,0,0,1-1.43-1.079l-4.529-15.845L51.46,203.881a1.549,1.549,0,0,1-2.863,0l-5.959-20.857a1.49,1.49,0,0,1,2.839-.9c.009.028.017.056.024.084l4.529,15.842L54.559,182.2a1.549,1.549,0,0,1,2.863,0l4.526,15.845,4.529-15.842a1.472,1.472,0,0,1,1.808-1.032l.033.009a1.49,1.49,0,0,1,1.022,1.841l-5.959,20.857A1.49,1.49,0,0,1,61.948,204.96Z" transform="translate(-36.623 -146.652)" fill="#fafafa"/>
      <g id="Grupo_1118200" data-name="Grupo 1118200" transform="translate(38.733 25.534)">
        <path id="Trazado_909985" data-name="Trazado 909985" d="M302.659,120.355H278.823a1.49,1.49,0,0,1,0-2.98h23.836a1.49,1.49,0,0,1,0,2.98Z" transform="translate(-277.333 -117.375)" fill="#1565c0"/>
        <path id="Trazado_909986" data-name="Trazado 909986" d="M302.659,184.355H278.823a1.49,1.49,0,0,1,0-2.98h23.836a1.49,1.49,0,0,1,0,2.98Z" transform="translate(-277.333 -172.437)" fill="#1565c0"/>
        <path id="Trazado_909987" data-name="Trazado 909987" d="M302.659,248.355H278.823a1.49,1.49,0,0,1,0-2.98h23.836a1.49,1.49,0,0,1,0,2.98Z" transform="translate(-277.333 -227.498)" fill="#1565c0"/>
        <path id="Trazado_909988" data-name="Trazado 909988" d="M302.659,312.355H278.823a1.49,1.49,0,0,1,0-2.98h23.836a1.49,1.49,0,0,1,0,2.98Z" transform="translate(-277.333 -282.56)" fill="#1565c0"/>
        <path id="Trazado_909989" data-name="Trazado 909989" d="M302.659,376.355H278.823a1.49,1.49,0,1,1,0-2.98h23.836a1.49,1.49,0,0,1,0,2.98Z" transform="translate(-277.333 -337.621)" fill="#1565c0"/>
      </g>
      <path id="Trazado_909990" data-name="Trazado 909990" d="M40.224,79.241A1.481,1.481,0,0,1,40,79.223L1.264,73.264A1.49,1.49,0,0,1,0,71.792V21.141A1.49,1.49,0,0,1,1.157,19.69L39.89,10.752A1.49,1.49,0,0,1,41.714,12.2V77.751A1.49,1.49,0,0,1,40.224,79.241ZM2.98,70.514l35.754,5.5V14.077L2.98,22.333V70.514Z" transform="translate(-0.001 -0.076)"/>
      <path id="Trazado_909991" data-name="Trazado 909991" d="M308.618,109.986H278.823a1.49,1.49,0,0,1,0-2.98h28.305V56.355H278.823a1.49,1.49,0,1,1,0-2.979h29.795a1.49,1.49,0,0,1,1.49,1.49V108.5A1.49,1.49,0,0,1,308.618,109.986Z" transform="translate(-238.6 -36.78)"/>
      <path id="Trazado_909992" data-name="Trazado 909992" d="M61.948,204.96a1.49,1.49,0,0,1-1.43-1.079l-4.529-15.845L51.46,203.881a1.549,1.549,0,0,1-2.863,0l-5.959-20.857a1.49,1.49,0,0,1,2.839-.9c.009.028.017.056.024.084l4.529,15.842L54.559,182.2a1.549,1.549,0,0,1,2.863,0l4.526,15.845,4.529-15.842a1.472,1.472,0,0,1,1.808-1.032l.033.009a1.49,1.49,0,0,1,1.022,1.841l-5.959,20.857A1.49,1.49,0,0,1,61.948,204.96Z" transform="translate(-36.623 -146.652)"/>
      <path id="Trazado_909993" data-name="Trazado 909993" d="M302.659,120.355H278.823a1.49,1.49,0,0,1,0-2.98h23.836a1.49,1.49,0,0,1,0,2.98Z" transform="translate(-238.6 -91.841)"/>
      <path id="Trazado_909994" data-name="Trazado 909994" d="M302.659,184.355H278.823a1.49,1.49,0,0,1,0-2.98h23.836a1.49,1.49,0,0,1,0,2.98Z" transform="translate(-238.6 -146.903)"/>
      <path id="Trazado_909995" data-name="Trazado 909995" d="M302.659,248.355H278.823a1.49,1.49,0,0,1,0-2.98h23.836a1.49,1.49,0,0,1,0,2.98Z" transform="translate(-238.6 -201.964)"/>
      <path id="Trazado_909996" data-name="Trazado 909996" d="M302.659,312.355H278.823a1.49,1.49,0,0,1,0-2.98h23.836a1.49,1.49,0,0,1,0,2.98Z" transform="translate(-238.6 -257.026)"/>
      <path id="Trazado_909997" data-name="Trazado 909997" d="M302.659,376.355H278.823a1.49,1.49,0,1,1,0-2.98h23.836a1.49,1.49,0,0,1,0,2.98Z" transform="translate(-238.6 -312.087)"/>
    </g>
  </g>
</svg>
