<svg id="money-growth_3895923" xmlns="http://www.w3.org/2000/svg" width="67.027" height="67.027" viewBox="0 0 67.027 67.027">
  <g id="Grupo_1197915" data-name="Grupo 1197915" transform="translate(1.081 1.081)">
    <g id="Grupo_1197903" data-name="Grupo 1197903" transform="translate(0 40)">
      <path id="Trazado_909689" data-name="Trazado 909689" d="M45.325,38V50.973a11.892,11.892,0,1,1-23.784,0V38H1V63.946H65.865V38Z" transform="translate(-1 -38)" fill="#d3a06c"/>
    </g>
    <g id="Grupo_1197904" data-name="Grupo 1197904" transform="translate(44.325 35.676)">
      <path id="Trazado_909690" data-name="Trazado 909690" d="M42,34H62.541v4.324H42Z" transform="translate(-42 -34)" fill="#b27946"/>
    </g>
    <g id="Grupo_1197905" data-name="Grupo 1197905" transform="translate(0 35.676)">
      <path id="Trazado_909691" data-name="Trazado 909691" d="M1,34H21.541v4.324H1Z" transform="translate(-1 -34)" fill="#b27946"/>
    </g>
    <g id="Grupo_1197906" data-name="Grupo 1197906" transform="translate(35.049)">
      <path id="Trazado_909692" data-name="Trazado 909692" d="M43.777,1V5.324a14.741,14.741,0,0,1-.357,3.265,13.609,13.609,0,0,0-6.811,1.373H36.6A11.945,11.945,0,0,0,33.42,5.1,15.09,15.09,0,0,1,43.777,1Z" transform="translate(-33.42 -1)" fill="#a0d468"/>
    </g>
    <g id="Grupo_1197907" data-name="Grupo 1197907" transform="translate(19.46)">
      <path id="Trazado_909693" data-name="Trazado 909693" d="M29.357,5.1a11.731,11.731,0,0,0-2.443,3.157,11.3,11.3,0,0,0-.843,2.011,12.1,12.1,0,0,0-6.724-1.686A15.388,15.388,0,0,1,19,5.324V1A15.09,15.09,0,0,1,29.357,5.1Z" transform="translate(-19 -1)" fill="#a0d468"/>
    </g>
    <g id="Grupo_1197908" data-name="Grupo 1197908" transform="translate(32.887 7.565)">
      <path id="Trazado_909694" data-name="Trazado 909694" d="M46.934,9.773a11.593,11.593,0,0,1-3.524,10.908,13.428,13.428,0,0,1-11.632,3.3l-.357-.065.638-.422a12.092,12.092,0,0,0,3.968-4.368c.184-.357.357-.714.508-1.092a16.651,16.651,0,0,0,.919-4.627,11.848,11.848,0,0,0-.692-4.011h.011a13.609,13.609,0,0,1,6.811-1.373,15.05,15.05,0,0,1,1.708.216l1.373.249Z" transform="translate(-31.42 -7.998)" fill="#b4dd7f"/>
    </g>
    <g id="Grupo_1197909" data-name="Grupo 1197909" transform="translate(16.216 7.566)">
      <path id="Trazado_909695" data-name="Trazado 909695" d="M26.649,18.033a12.094,12.094,0,0,0,4.476,5.459l.411.27-1.092.216A12.065,12.065,0,0,1,16.238,9.773l.249-1.286,1.286-.249a13.028,13.028,0,0,1,1.816-.227A12.1,12.1,0,0,1,26.314,9.7l-.584,3.708a12.18,12.18,0,0,0,.919,4.627Z" transform="translate(-16 -7.998)" fill="#b4dd7f"/>
    </g>
    <g id="Grupo_1197910" data-name="Grupo 1197910" transform="translate(25.946 2.162)">
      <path id="Trazado_909696" data-name="Trazado 909696" d="M31.941,24.319l-.454.3-.681-.454-.411-.27A12.138,12.138,0,0,1,25,13.811l.584-3.708a11.3,11.3,0,0,1,.843-2.011A11.731,11.731,0,0,1,28.87,4.935a11.9,11.9,0,0,1,1.524-1.211L31.487,3l1.092.724a12.182,12.182,0,0,1,4.7,6.076,11.848,11.848,0,0,1,.692,4.011,16.651,16.651,0,0,1-.919,4.627c-.151.378-.324.735-.508,1.092A12.092,12.092,0,0,1,32.578,23.9Z" transform="translate(-25 -3)" fill="#a0d468"/>
    </g>
    <g id="Grupo_1197911" data-name="Grupo 1197911" transform="translate(48.649 18.378)">
      <path id="Trazado_909697" data-name="Trazado 909697" d="M52.487,18A6.487,6.487,0,1,1,46,24.487,6.492,6.492,0,0,1,52.487,18Z" transform="translate(-46 -18)" fill="#ffc729"/>
    </g>
    <g id="Grupo_1197912" data-name="Grupo 1197912" transform="translate(3.243 18.378)">
      <path id="Trazado_909698" data-name="Trazado 909698" d="M10.487,18A6.487,6.487,0,1,1,4,24.487,6.492,6.492,0,0,1,10.487,18Z" transform="translate(-4 -18)" fill="#ffc729"/>
    </g>
    <g id="Grupo_1197913" data-name="Grupo 1197913" transform="translate(52.973 22.703)">
      <circle id="Elipse_11628" data-name="Elipse 11628" cx="2" cy="2" r="2" transform="translate(-0.054 0.243)" fill="#fcd770"/>
    </g>
    <g id="Grupo_1197914" data-name="Grupo 1197914" transform="translate(7.568 22.703)">
      <circle id="Elipse_11629" data-name="Elipse 11629" cx="2" cy="2" r="2" transform="translate(0.352 0.243)" fill="#fcd770"/>
    </g>
  </g>
  <g id="Grupo_1197916" data-name="Grupo 1197916" transform="translate(0 0)">
    <path id="Trazado_909699" data-name="Trazado 909699" d="M30.405,38.324h2.162a3.247,3.247,0,0,1,3.243,3.243h2.162a5.412,5.412,0,0,0-5.405-5.405V34H30.405v2.162a5.405,5.405,0,0,0,0,10.811h2.162a3.243,3.243,0,1,1,0,6.487H30.405a3.247,3.247,0,0,1-3.243-3.243V49.135H25v1.081a5.412,5.412,0,0,0,5.405,5.405v2.162h2.162V55.622a5.405,5.405,0,0,0,0-10.811H30.405a3.243,3.243,0,1,1,0-6.487Z" transform="translate(2.027 2.757)"/>
    <path id="Trazado_909700" data-name="Trazado 909700" d="M44.325,33V51.378a10.811,10.811,0,1,1-21.622,0V33H0V64.352H2.162V39.487H20.541V51.378a12.973,12.973,0,1,0,25.946,0V39.487H64.865V64.352h2.162V33ZM2.162,37.324V35.162H20.541v2.162Zm44.325,0V35.162H64.865v2.162Z" transform="translate(0 2.676)"/>
    <circle id="Elipse_11630" data-name="Elipse 11630" cx="1" cy="1" r="1" transform="translate(4 44.027)"/>
    <circle id="Elipse_11631" data-name="Elipse 11631" cx="1" cy="1" r="1" transform="translate(9 49.027)"/>
    <circle id="Elipse_11632" data-name="Elipse 11632" cx="1" cy="1" r="1" transform="translate(14 48.027)"/>
    <ellipse id="Elipse_11633" data-name="Elipse 11633" cx="1.5" cy="1" rx="1.5" ry="1" transform="translate(6 54.027)"/>
    <circle id="Elipse_11634" data-name="Elipse 11634" cx="1" cy="1" r="1" transform="translate(10 61.027)"/>
    <circle id="Elipse_11635" data-name="Elipse 11635" cx="1" cy="1" r="1" transform="translate(15 57.027)"/>
    <circle id="Elipse_11636" data-name="Elipse 11636" cx="1" cy="1" r="1" transform="translate(12 53.027)"/>
    <circle id="Elipse_11637" data-name="Elipse 11637" cx="1" cy="1" r="1" transform="translate(61 44.027)"/>
    <circle id="Elipse_11638" data-name="Elipse 11638" cx="1" cy="1" r="1" transform="translate(56 49.027)"/>
    <circle id="Elipse_11639" data-name="Elipse 11639" cx="1" cy="1" r="1" transform="translate(51 48.027)"/>
    <ellipse id="Elipse_11640" data-name="Elipse 11640" cx="1.5" cy="1" rx="1.5" ry="1" transform="translate(58 54.027)"/>
    <circle id="Elipse_11641" data-name="Elipse 11641" cx="1" cy="1" r="1" transform="translate(55 61.027)"/>
    <circle id="Elipse_11642" data-name="Elipse 11642" cx="1" cy="1" r="1" transform="translate(50 57.027)"/>
    <circle id="Elipse_11643" data-name="Elipse 11643" cx="1" cy="1" r="1" transform="translate(53 53.027)"/>
    <path id="Trazado_909701" data-name="Trazado 909701" d="M28.148,25.948a13.255,13.255,0,0,0,2.591-.257l.477-.1v9h2.162V25.759a14.8,14.8,0,0,0,2.262.188,14.388,14.388,0,0,0,9.84-3.831,12.642,12.642,0,0,0,3.841-11.923L48.9,8.211l-2.072-.39c-.218-.041-.439-.065-.658-.1a16.438,16.438,0,0,0,.185-2.319V0H45.27A16.138,16.138,0,0,0,34.9,3.768c-.3-.239-.6-.482-.918-.7L32.3,1.944,30.609,3.07c-.322.215-.618.458-.918.7A16.138,16.138,0,0,0,19.324,0H18.243V5.405a16.305,16.305,0,0,0,.183,2.3c-.263.037-.525.068-.787.12l-1.986.4-.4,1.985A13.164,13.164,0,0,0,28.148,25.948Zm18.935-15.88.122.575A10.5,10.5,0,0,1,44,20.537a12.213,12.213,0,0,1-8.419,3.226,13.128,13.128,0,0,0,3.155-4.416l.951-.872,4.265.958.474-2.109-2.8-.628L46,12.689l-1.462-1.595L39.777,15.46a13.182,13.182,0,0,0,.088-1.405,13.211,13.211,0,0,0-.457-3.414,12.671,12.671,0,0,1,7.018-.7ZM44.189,5.405A14.054,14.054,0,0,1,44,7.581a14.763,14.763,0,0,0-5.336,1.026,13.14,13.14,0,0,0-2.172-3.362,13.98,13.98,0,0,1,7.7-3.041v3.2ZM31.808,4.869l.49-.326.49.326a11.013,11.013,0,0,1,.591,17.92V19.818l3.027-4.036-1.73-1.3-1.3,1.73V8.649H31.216v4.958l-1.4-1.4L28.29,13.737l2.926,2.926v6.125a11.013,11.013,0,0,1,.591-17.92ZM20.406,2.2a13.972,13.972,0,0,1,7.7,3.041,13.126,13.126,0,0,0-2.272,3.582,13.086,13.086,0,0,0-5.235-1.24,14.27,14.27,0,0,1-.188-2.181ZM17.376,10.63l.115-.572.572-.115a10.974,10.974,0,0,1,7.054.945,12.531,12.531,0,0,0-.3,4.572L20.055,11.1,18.594,12.69l3.6,3.3-1.918.24.268,2.145L24.28,17.9l1.578,1.448A13.126,13.126,0,0,0,29,23.75,10.992,10.992,0,0,1,17.376,10.63Z" transform="translate(1.216 0)"/>
    <path id="Trazado_909702" data-name="Trazado 909702" d="M52.568,32.135A7.568,7.568,0,1,0,45,24.568,7.577,7.577,0,0,0,52.568,32.135Zm0-12.973a5.405,5.405,0,1,1-5.405,5.405A5.412,5.412,0,0,1,52.568,19.162Z" transform="translate(3.649 1.378)"/>
    <path id="Trazado_909703" data-name="Trazado 909703" d="M52.243,27.487A3.243,3.243,0,1,0,49,24.243,3.247,3.247,0,0,0,52.243,27.487Zm0-4.324a1.081,1.081,0,1,1-1.081,1.081A1.082,1.082,0,0,1,52.243,23.162Z" transform="translate(3.973 1.703)"/>
    <path id="Trazado_909704" data-name="Trazado 909704" d="M51.162,10.243v5.405h2.162V10.243A3.247,3.247,0,0,0,50.081,7H49V9.162h1.081A1.082,1.082,0,0,1,51.162,10.243Z" transform="translate(3.973 0.568)"/>
    <path id="Trazado_909705" data-name="Trazado 909705" d="M10.568,32.135A7.568,7.568,0,1,0,3,24.568,7.577,7.577,0,0,0,10.568,32.135Zm0-12.973a5.405,5.405,0,1,1-5.405,5.405A5.412,5.412,0,0,1,10.568,19.162Z" transform="translate(0.243 1.378)"/>
    <path id="Trazado_909706" data-name="Trazado 909706" d="M10.243,27.487A3.243,3.243,0,1,0,7,24.243,3.247,3.247,0,0,0,10.243,27.487Zm0-4.324a1.081,1.081,0,1,1-1.081,1.081A1.082,1.082,0,0,1,10.243,23.162Z" transform="translate(0.568 1.703)"/>
    <path id="Trazado_909707" data-name="Trazado 909707" d="M11.162,10.243a1.082,1.082,0,0,1,1.081-1.081h1.081V7H12.243A3.247,3.247,0,0,0,9,10.243v5.405h2.162Z" transform="translate(0.73 0.568)"/>
  </g>
</svg>
