<svg xmlns="http://www.w3.org/2000/svg" width="65.882" height="67.211" viewBox="0 0 65.882 67.211">
  <g id="social-equality_18241613_2_" data-name="social-equality_18241613 (2)" transform="translate(-29.565 -29.82)">
    <g id="Grupo_1197901" data-name="Grupo 1197901" transform="translate(30.577 30.835)">
      <path id="Trazado_909645" data-name="Trazado 909645" d="M94.42,246.65h13v16.506h-13Z" transform="translate(-86.038 -216.257)" fill="#80d8ff" fill-rule="evenodd"/>
      <path id="Trazado_909646" data-name="Trazado 909646" d="M83.606,131.941V117.163c0-2.558-2.858-4.653-6.347-4.653H67.317c-3.49,0-6.347,2.095-6.347,4.653v14.778Z" transform="translate(-57.433 -101.548)" fill="#00d391" fill-rule="evenodd"/>
      <path id="Trazado_909647" data-name="Trazado 909647" d="M106.191,131.941V117.163c0-2.558-2.858-4.653-6.347-4.653h-9.67a5.666,5.666,0,0,0-2.793,4.783v14.646h18.811Z" transform="translate(-80.018 -101.548)" fill="#00f4a8" fill-rule="evenodd"/>
      <path id="Trazado_909648" data-name="Trazado 909648" d="M102.438,36.83a6.211,6.211,0,1,1-6.208,6.213A6.21,6.21,0,0,1,102.438,36.83Z" transform="translate(-87.586 -36.83)" fill="#ffb1a0" fill-rule="evenodd"/>
      <path id="Trazado_909649" data-name="Trazado 909649" d="M119.088,36.83a6.211,6.211,0,0,1,4.151,10.832,6.209,6.209,0,0,1-5.474-10.689A6.145,6.145,0,0,1,119.088,36.83Z" transform="translate(-104.235 -36.83)" fill="#ffcebf" fill-rule="evenodd"/>
      <path id="Trazado_909650" data-name="Trazado 909650" d="M327.74,246.65h13v16.506h-13Z" transform="translate(-285.561 -216.257)" fill="#c9f0fe" fill-rule="evenodd"/>
      <path id="Trazado_909651" data-name="Trazado 909651" d="M294.69,131.941V117.163c0-2.558,2.858-4.653,6.347-4.653h9.941c3.49,0,6.347,2.095,6.347,4.653v14.778Z" transform="translate(-257.298 -101.548)" fill="#bd50b6" fill-rule="evenodd"/>
      <path id="Trazado_909652" data-name="Trazado 909652" d="M294.69,131.941V117.163c0-2.558,2.858-4.653,6.347-4.653h9.67a5.666,5.666,0,0,1,2.793,4.783v14.646H294.69Z" transform="translate(-257.298 -101.548)" fill="#e56ab9" fill-rule="evenodd"/>
      <path id="Trazado_909653" data-name="Trazado 909653" d="M336.158,36.83a6.211,6.211,0,1,0,6.213,6.213A6.209,6.209,0,0,0,336.158,36.83Z" transform="translate(-287.451 -36.83)" fill="#ffb1a0" fill-rule="evenodd"/>
      <path id="Trazado_909654" data-name="Trazado 909654" d="M336.158,36.83a6.211,6.211,0,0,0-4.147,10.832,6.209,6.209,0,0,0,5.474-10.689A6.156,6.156,0,0,0,336.158,36.83Z" transform="translate(-287.451 -36.83)" fill="#ffcebf" fill-rule="evenodd"/>
      <path id="Trazado_909655" data-name="Trazado 909655" d="M210.41,246.65h13v16.506h-13Z" transform="translate(-185.227 -216.257)" fill="#8c9eff" fill-rule="evenodd"/>
      <path id="Trazado_909656" data-name="Trazado 909656" d="M199.606,131.941V117.163c0-2.558-2.854-4.653-6.347-4.653h-9.941c-3.49,0-6.347,2.095-6.347,4.653v14.778Z" transform="translate(-156.63 -101.548)" fill="#fbc700" fill-rule="evenodd"/>
      <path id="Trazado_909657" data-name="Trazado 909657" d="M222.191,131.941V117.163c0-2.558-2.854-4.653-6.347-4.653h-9.67a5.676,5.676,0,0,0-2.793,4.783v14.646h18.811Z" transform="translate(-179.215 -101.548)" fill="#ffe559" fill-rule="evenodd"/>
      <path id="Trazado_909658" data-name="Trazado 909658" d="M218.433,36.83a6.211,6.211,0,1,1-6.213,6.213A6.209,6.209,0,0,1,218.433,36.83Z" transform="translate(-186.774 -36.83)" fill="#ffb1a0" fill-rule="evenodd"/>
      <path id="Trazado_909659" data-name="Trazado 909659" d="M235.108,36.83a6.211,6.211,0,0,1,4.147,10.832,6.211,6.211,0,0,1-5.474-10.689A6.176,6.176,0,0,1,235.108,36.83Z" transform="translate(-203.45 -36.83)" fill="#ffcebf" fill-rule="evenodd"/>
      <path id="Trazado_909660" data-name="Trazado 909660" d="M345.476,266.062l.152-4.644,8.032-7.009a6.923,6.923,0,0,0,2.316-5.806l-.682-12.9c-.152-2.878-4.582-2.809-4.7.074l-.345,8.433a2.655,2.655,0,0,0-2.833-1.081l-10.167,9.821a5.816,5.816,0,0,0-1.831,4.315v8.8h10.056Z" transform="translate(-292.128 -205.079)" fill="#ffcebe" fill-rule="evenodd"/>
      <path id="Trazado_909661" data-name="Trazado 909661" d="M390.414,266.063l.152-4.644,8.032-7.009a6.923,6.923,0,0,0,2.316-5.806l-.682-12.9a2.2,2.2,0,0,0-2.321-2.124c-.074,0-.152,0-.226.012a2.8,2.8,0,0,1,.058.423l.682,12.9a6.923,6.923,0,0,1-2.316,5.806l-8.032,7.009-.107,6.331h2.444Z" transform="translate(-337.066 -205.08)" fill="#ffb1a0" fill-rule="evenodd"/>
      <path id="Trazado_909662" data-name="Trazado 909662" d="M47.071,266.062l-.156-4.644-8.028-7.009a6.926,6.926,0,0,1-2.321-5.806l.682-12.9c.156-2.878,4.582-2.809,4.7.074l.345,8.433a2.646,2.646,0,0,1,2.829-1.081l10.167,9.821a5.8,5.8,0,0,1,1.831,4.315v8.8H47.071Z" transform="translate(-36.554 -205.079)" fill="#ffcebe" fill-rule="evenodd"/>
      <path id="Trazado_909663" data-name="Trazado 909663" d="M47.071,266.063l-.156-4.644-8.028-7.009a6.926,6.926,0,0,1-2.321-5.806l.682-12.9a2.205,2.205,0,0,1,2.321-2.124c.078,0,.152,0,.23.012a2.012,2.012,0,0,0-.058.423l-.685,12.9a6.926,6.926,0,0,0,2.321,5.806L49.4,259.73l.112,6.331H47.071Z" transform="translate(-36.554 -205.08)" fill="#ffb1a0" fill-rule="evenodd"/>
      <path id="Trazado_909664" data-name="Trazado 909664" d="M176.351,302.63a13.341,13.341,0,1,1-13.341,13.341A13.343,13.343,0,0,1,176.351,302.63Z" transform="translate(-144.693 -264.128)" fill="#fbc700" fill-rule="evenodd"/>
      <path id="Trazado_909665" data-name="Trazado 909665" d="M192.83,302.63a13.341,13.341,0,0,1,10.228,21.906,13.342,13.342,0,0,1-17.665-19.643A13.28,13.28,0,0,1,192.83,302.63Z" transform="translate(-161.171 -264.128)" fill="#ffe559" fill-rule="evenodd"/>
    </g>
    <path id="Trazado_909666" data-name="Trazado 909666" d="M56.356,79.993a1.014,1.014,0,0,1,0-2.028H68.112a1.014,1.014,0,0,1,0,2.028Zm0,7.4a1.014,1.014,0,1,1,0-2.028H68.112a1.014,1.014,0,0,1,0,2.028Zm6.923-19.031a14.259,14.259,0,0,1,4.472,1.063V62.242H56.775V69.4a14.26,14.26,0,0,1,4.476-1.039v-.969a1.014,1.014,0,1,1,2.028,0Zm6.5,2.1a14.69,14.69,0,0,1,1.963,1.462V62.242H69.78Zm3.991,3.671a14.4,14.4,0,0,1,1.824,3.277l2.652-2.567V67.392a1.014,1.014,0,1,1,2.028,0v5.494l4.472-4.324V62.244H73.77Zm2.484,5.452a14.457,14.457,0,0,1,.336,3.091,14.284,14.284,0,0,1-1.708,6.792V90.8h8.064l.119-3.663a1.026,1.026,0,0,1,.345-.727L91.442,79.4a5.921,5.921,0,0,0,1.971-5l-.682-12.9a1.349,1.349,0,0,0-2.681.062l-.329,8.118a3.463,3.463,0,0,1,.262,3.109,7.271,7.271,0,0,1-1.992,2.657l-4.024,4.131a1.01,1.01,0,0,1-1.449-1.408l4.028-4.134a.953.953,0,0,1,.065-.07,5.425,5.425,0,0,0,1.478-1.889,1.723,1.723,0,0,0-1-2.155,1.637,1.637,0,0,0-.743-.1L76.4,79.438C76.349,79.491,76.3,79.541,76.254,79.586Zm-3.31,12.647a14.357,14.357,0,0,1-21.118.333,1,1,0,0,1-.682.262H41.093a1.01,1.01,0,0,1-1.014-1.063l-.136-4.118-7.7-6.721a7.951,7.951,0,0,1-2.665-6.618l.682-12.9A3.153,3.153,0,0,1,33.1,58.359V46.452a5.129,5.129,0,0,1,2.279-4.1,8.413,8.413,0,0,1,3.917-1.491,7.225,7.225,0,1,1,12.273,0c.284.033.562.083.833.139a8.959,8.959,0,0,1,1.433.439,8.988,8.988,0,0,1,2.263-.579,7.226,7.226,0,1,1,12.278,0,8.739,8.739,0,0,1,2.386.633,9.064,9.064,0,0,1,2.39-.633,7.225,7.225,0,1,1,12.273,0,8.389,8.389,0,0,1,3.912,1.491,5.12,5.12,0,0,1,2.283,4.1V58.33a3.179,3.179,0,0,1,3.133,3.08l.682,12.9a7.938,7.938,0,0,1-2.661,6.618l-7.7,6.721-.139,4.118a1.007,1.007,0,0,1-1.01,1.063H73.869a1.013,1.013,0,0,1-.924-.6ZM50.132,90.4a14.378,14.378,0,0,1-1.815-11.246l-9.649-9.326a1.637,1.637,0,0,0-.743.1,1.724,1.724,0,0,0-1,2.155A5.514,5.514,0,0,0,38.4,73.973c.02.025.045.045.065.07L42.5,78.176a1.01,1.01,0,0,1-1.449,1.408l-4.028-4.131A7.37,7.37,0,0,1,35.029,72.8a3.464,3.464,0,0,1,.267-3.109l-.333-8.118a1.349,1.349,0,0,0-2.681-.062l-.682,12.9a5.933,5.933,0,0,0,1.974,5L41.6,86.412a.991.991,0,0,1,.345.727l.123,3.663h8.06V90.4Zm-1.1-13.366a14.168,14.168,0,0,1,1.914-3.219V62.242H39.973v6.032L44.445,72.6V67.392a1.014,1.014,0,1,1,2.028,0v7.164Zm3.937-5.32a14.713,14.713,0,0,1,1.774-1.28V62.244H52.972Zm21.59,10.967A12.327,12.327,0,1,0,62.236,95.005,12.327,12.327,0,0,0,74.563,82.678ZM35.128,58.662a3.128,3.128,0,0,1,1.564,1.553h1.2V50.4a1.014,1.014,0,1,1,2.028,0v9.814H49.9V46.451A4.891,4.891,0,0,1,51.528,42.9a7.116,7.116,0,0,0-1.126-.087h-.62a7.223,7.223,0,0,1-8.7,0h-.62a6.6,6.6,0,0,0-3.885,1.17,3.141,3.141,0,0,0-1.45,2.468V58.662Zm1.889,3.581.235,5.772a3.693,3.693,0,0,1,.694-.177v-5.6h-.929Zm49.757,5.564a3.7,3.7,0,0,1,.994.21L88,62.244H86.774Zm1.548-7.592a3.094,3.094,0,0,1,1.269-1.4V46.451a3.143,3.143,0,0,0-1.45-2.468,6.594,6.594,0,0,0-3.885-1.17h-.62a7.223,7.223,0,0,1-8.7,0h-.62a7.362,7.362,0,0,0-1.338.119,4.863,4.863,0,0,1,1.589,3.518V60.213H84.8V50.4a1.014,1.014,0,0,1,2.028,0v9.814Zm-21.738-17.4a7.223,7.223,0,0,1-8.7,0h-.62a6.649,6.649,0,0,0-3.885,1.17,3.141,3.141,0,0,0-1.45,2.468V60.214h2.764V50.4a1.014,1.014,0,1,1,2.028,0v9.814H67.749V50.4a1.014,1.014,0,1,1,2.028,0v9.814h2.759V46.451a3.561,3.561,0,0,0-2.18-2.919,7.389,7.389,0,0,0-3.772-.72Zm-.674-9.439a5.2,5.2,0,1,0,0,7.345A5.2,5.2,0,0,0,65.911,33.373Zm13.374-1.524a5.2,5.2,0,1,0,3.675,1.524,5.2,5.2,0,0,0-3.675-1.524ZM49.1,33.373a5.195,5.195,0,1,0,0,7.345A5.195,5.195,0,0,0,49.1,33.373Z"/>
  </g>
</svg>
