<svg xmlns="http://www.w3.org/2000/svg" width="66.344" height="67.212" viewBox="0 0 66.344 67.212">
  <g id="environment_18363950" transform="translate(-12.173 -8.983)">
    <g id="Grupo_1197917" data-name="Grupo 1197917" transform="translate(13.126 9.938)">
      <path id="Trazado_909708" data-name="Trazado 909708" d="M321.065,16a4.435,4.435,0,0,0,0,7.077,4.435,4.435,0,0,0,0-7.077Z" transform="translate(-278.472 -16)" fill="#50bc5d" fill-rule="evenodd"/>
      <path id="Trazado_909709" data-name="Trazado 909709" d="M339.328,56.836a4.435,4.435,0,0,0-7.077,0,4.435,4.435,0,0,0,7.077,0Z" transform="translate(-289.658 -49.759)" fill="#50bc5d" fill-rule="evenodd"/>
      <path id="Trazado_909710" data-name="Trazado 909710" d="M280.229,56.836a4.435,4.435,0,0,0,7.077,0,4.435,4.435,0,0,0-7.077,0Z" transform="translate(-244.713 -49.759)" fill="#50bc5d" fill-rule="evenodd"/>
      <path id="Trazado_909711" data-name="Trazado 909711" d="M332.153,215.034a10.326,10.326,0,0,1,10.878-10.878,10.326,10.326,0,0,1-10.878,10.878Z" transform="translate(-289.559 -178.544)" fill="#50bc5d" fill-rule="evenodd"/>
      <path id="Trazado_909712" data-name="Trazado 909712" d="M263.071,215.034a10.326,10.326,0,0,0-10.878-10.878,10.326,10.326,0,0,0,10.878,10.878Z" transform="translate(-220.477 -178.544)" fill="#50bc5d" fill-rule="evenodd"/>
      <path id="Trazado_909713" data-name="Trazado 909713" d="M332.113,96.382A14.509,14.509,0,0,1,347.4,81.1a14.509,14.509,0,0,1-15.286,15.286Z" transform="translate(-289.519 -72.221)" fill="#50bc5d" fill-rule="evenodd"/>
      <path id="Trazado_909714" data-name="Trazado 909714" d="M235.042,96.382A14.509,14.509,0,0,0,219.756,81.1a14.509,14.509,0,0,0,15.286,15.286Z" transform="translate(-192.448 -72.221)" fill="#50bc5d" fill-rule="evenodd"/>
      <path id="Trazado_909715" data-name="Trazado 909715" d="M259.613,111.92l-7.573-7.573a.816.816,0,0,1,1.154-1.154l6.419,6.419V99.484a.816.816,0,1,1,1.633,0v10.127l6.419-6.419a.816.816,0,1,1,1.154,1.154l-7.573,7.573v10.02l4.166-4.166a.816.816,0,0,1,1.154,1.154l-5.321,5.32v3.613a.816.816,0,1,1-1.633,0v-3.613l-5.32-5.32a.816.816,0,0,1,1.154-1.154l4.166,4.166Zm-5.715,4.306-.36-.36a.816.816,0,0,0-1.154,1.154l.36.36a.816.816,0,0,0,1.154-1.154Zm14.216,1.154.36-.36a.816.816,0,0,0-1.154-1.154l-.36.36a.816.816,0,0,0,1.154,1.154Zm2.88-15.209a.816.816,0,1,1-1.154-1.154l.505-.505a.816.816,0,1,1,1.154,1.154Zm-19.976-1.154a.816.816,0,1,1-1.154,1.154l-.505-.505a.816.816,0,0,1,1.154-1.154Z" transform="translate(-217.836 -87.421)" fill="#3ba452" fill-rule="evenodd"/>
      <path id="Trazado_909716" data-name="Trazado 909716" d="M143.4,215.548a9.376,9.376,0,0,0-9.878-9.877,9.376,9.376,0,0,0,9.877,9.877Z" transform="translate(-117.954 -179.854)" fill="#50bc5d" fill-rule="evenodd"/>
      <path id="Trazado_909717" data-name="Trazado 909717" d="M99.167,67.665a7.534,7.534,0,0,0-7.937-7.937,7.534,7.534,0,0,0,7.937,7.937Z" transform="translate(-81.417 -53.769)" fill="#50bc5d" fill-rule="evenodd"/>
      <path id="Trazado_909718" data-name="Trazado 909718" d="M27.271,150.723a7.674,7.674,0,0,0-8.085-8.085,7.674,7.674,0,0,0,8.085,8.085Z" transform="translate(-19.174 -125.399)" fill="#50bc5d" fill-rule="evenodd"/>
      <path id="Trazado_909719" data-name="Trazado 909719" d="M431.825,250.555a7.674,7.674,0,0,1-8.085,8.085,7.674,7.674,0,0,1,8.085-8.085Z" transform="translate(-368.69 -218.634)" fill="#50bc5d" fill-rule="evenodd"/>
      <path id="Trazado_909720" data-name="Trazado 909720" d="M321.065,75.1a4.435,4.435,0,0,0,0-7.077,4.435,4.435,0,0,0,0,7.077Z" transform="translate(-278.472 -60.944)" fill="#50bc5d" fill-rule="evenodd"/>
      <path id="Trazado_909721" data-name="Trazado 909721" d="M246.879,306.922A18.126,18.126,0,0,1,264.2,319.694a8.715,8.715,0,0,0-1.826.294l-10.338,2.394-3.056.729c-.018,0,1.8-3.768-1.844-4.976L239.49,314.5a11.83,11.83,0,0,0-3.617-3.856,18.038,18.038,0,0,1,11.006-3.726Z" transform="translate(-206.392 -267.343)" fill="#cc915d" fill-rule="evenodd"/>
      <path id="Trazado_909722" data-name="Trazado 909722" d="M273.347,326.775a18.892,18.892,0,0,1,2,4.361c-.583.029-.932,1.145-1.564,1.315L263.415,335l-3.338,1.189a2.792,2.792,0,0,0-1.347-2.353c-.191-.878.929-3.885-.5-4.358l-7.642-3.633a12.209,12.209,0,0,0-1.868-2.42,18.118,18.118,0,0,1,24.623,3.352Z" transform="translate(-217.494 -278.682)" fill="#d79b62" fill-rule="evenodd"/>
      <path id="Trazado_909723" data-name="Trazado 909723" d="M72.261,318.739v10.642l3.2.358c3.4.38,3.838.737,6.917,2.2l14.3,6.809c6.573,3.13,5.754,2.741,13.239.344l19.007-6.086a.794.794,0,0,0,.5-1.046c-1.082-2.761-4.184-4.692-8.2-3.612l-10.328,2.392-3.053.728c-.018,0,1.8-3.764-1.842-4.971l-7.635-3.629c-5.242-8.84-17.642-6.47-26.1-4.133Z" transform="translate(-65.039 -275.693)" fill="#e0c3b3" fill-rule="evenodd"/>
      <path id="Trazado_909724" data-name="Trazado 909724" d="M128.417,330.276a6.775,6.775,0,0,0-7.2-1.924l-10.328,2.392-3.053.728c-.065.016,1.93-3.719-1.842-4.971l-7.635-3.629c-5.242-8.84-17.642-6.47-26.1-4.133v8.9l3.2.358c3.4.38,3.838.737,6.917,2.2l14.3,6.809c6.573,3.13,5.754,2.741,13.239.344l18.134-5.806a.794.794,0,0,0,.366-1.267Z" transform="translate(-65.039 -275.694)" fill="#f2d3bd" fill-rule="evenodd"/>
      <path id="Trazado_909725" data-name="Trazado 909725" d="M231.016,395.094l-1.407.336s.09-.2.192-.527a.789.789,0,0,0-.187.25l-.006.013h0a2.535,2.535,0,0,1-1.491,1.291,2.7,2.7,0,0,1-1.979-.093l-.034-.017-.013-.006v0l-11.755-5.65a.791.791,0,0,0-.682,1.426l11.756,5.65h0v0l.013.006.047.02a4.275,4.275,0,0,0,3.151.158,4.12,4.12,0,0,0,2.415-2.111h0l.006-.013a.793.793,0,0,0-.031-.741Z" transform="translate(-186.808 -339.651)" fill="#f2d3bd" fill-rule="evenodd"/>
      <path id="Trazado_909726" data-name="Trazado 909726" d="M213.655,392.121a.791.791,0,0,1,.682-1.426l11.755,5.649v0l.013.006.034.017a2.7,2.7,0,0,0,1.979.093,2.568,2.568,0,0,0,1.329-1.007l1.562-.363a.793.793,0,0,1,.035.748l-.006.012h0a4.119,4.119,0,0,1-2.415,2.111,4.275,4.275,0,0,1-3.151-.158l-.047-.02-.013-.006v0h0l-11.756-5.65Z" transform="translate(-186.808 -339.651)" fill="#e0c3b3" fill-rule="evenodd"/>
    </g>
    <rect id="Rectángulo_408216" data-name="Rectángulo 408216" width="6.359" height="19.568" rx="3.179" transform="translate(13.989 49.022)" fill="#3bc7f5"/>
    <path id="Trazado_909727" data-name="Trazado 909727" d="M35.481,409.487V412.5a1.783,1.783,0,0,1-1.778,1.778H30.9a1.783,1.783,0,0,1-1.778-1.778v-3.009h6.359Z" transform="translate(-14.643 -346.016)" fill="#0dbaf3" fill-rule="evenodd"/>
    <g id="Grupo_1197918" data-name="Grupo 1197918" transform="translate(12.173 8.983)">
      <path id="Trazado_909728" data-name="Trazado 909728" d="M105.987,335.734c-1.681,0-3.246-.72-6.655-2.343l-14.315-6.818c-.318-.151-.61-.291-.878-.42a13.129,13.129,0,0,0-5.744-1.7l-2.191-.245.212-1.894,2.192.246a14.962,14.962,0,0,1,6.357,1.875c.267.128.555.267.871.416l14.311,6.816c2.824,1.344,4.238,2.018,5.451,2.135,1.183.114,2.42-.3,4.888-1.113.647-.215,1.38-.457,2.214-.724l18.862-6.039a5.18,5.18,0,0,0-2.093-2.382,6.249,6.249,0,0,0-4.918-.507.3.3,0,0,1-.033.008l-10.337,2.394-3.05.728a.954.954,0,0,1-1.088-1.326,3.556,3.556,0,0,0,.169-2.545,2.234,2.234,0,0,0-1.446-1.126.9.9,0,0,1-.109-.044l-7.643-3.633a.958.958,0,0,1-.41-.374c-2.095-3.535-5.543-5.42-10.538-5.767-4.805-.335-10.013.861-13.512,1.79l-.488-1.841c3.63-.963,9.044-2.2,14.132-1.85,5.471.379,9.469,2.548,11.891,6.445l7.335,3.485a4.053,4.053,0,0,1,2.521,2.121,4.421,4.421,0,0,1,.3,2.441l1.5-.356,10.329-2.393a8.2,8.2,0,0,1,6.369.714,7.074,7.074,0,0,1,3.249,4.412.954.954,0,0,1-.637,1.128l-19.774,6.332c-.826.264-1.554.5-2.2.719a17.29,17.29,0,0,1-5.1,1.234Z" transform="translate(-67.374 -268.522)" fill-rule="evenodd"/>
      <path id="Trazado_909729" data-name="Trazado 909729" d="M223.895,396.853a4.383,4.383,0,0,1-1.881-.422l-11.157-5.3a.952.952,0,1,1,.817-1.719l11.157,5.3a2.5,2.5,0,0,0,3.313-1.114.953.953,0,0,1,1.721.818,4.39,4.39,0,0,1-3.971,2.438Z" transform="translate(-183.357 -337.573)" fill-rule="evenodd"/>
      <path id="Trazado_909730" data-name="Trazado 909730" d="M20.952,297.682a.536.536,0,0,0-.53.528v16.441a.536.536,0,0,0,.529.528h4.159a.535.535,0,0,0,.528-.528V298.21a.535.535,0,0,0-.528-.528Zm4.159,19.4H20.952a2.436,2.436,0,0,1-2.434-2.432V298.21a2.436,2.436,0,0,1,2.434-2.433h4.159a2.435,2.435,0,0,1,2.432,2.433v16.441A2.435,2.435,0,0,1,25.111,317.083Z" transform="translate(-17.655 -256.759)" fill-rule="evenodd"/>
      <path id="Trazado_909731" data-name="Trazado 909731" d="M258.149,314.584a.951.951,0,0,1-.909-.672,17.172,17.172,0,0,0-26.834-8.571.952.952,0,0,1-1.158-1.511,19.073,19.073,0,0,1,23.014-.12,19.228,19.228,0,0,1,6.8,9.642.951.951,0,0,1-.91,1.232Z" transform="translate(-199.393 -260.327)" fill-rule="evenodd"/>
      <path id="Trazado_909732" data-name="Trazado 909732" d="M315.02,11.269a3.411,3.411,0,0,0,0,4.409,3.408,3.408,0,0,0,0-4.409Zm0,6.7a.955.955,0,0,1-.6-.211,5.389,5.389,0,0,1,0-8.561.954.954,0,0,1,1.195,0,5.387,5.387,0,0,1,0,8.561A.951.951,0,0,1,315.02,17.966Z" transform="translate(-271.474 -8.983)" fill-rule="evenodd"/>
      <path id="Trazado_909733" data-name="Trazado 909733" d="M327.539,50.772a3.406,3.406,0,0,0,4.409,0,3.407,3.407,0,0,0-4.409,0Zm2.2,2.714a5.51,5.51,0,0,1-4.28-2.117.954.954,0,0,1,0-1.194,5.387,5.387,0,0,1,8.561,0,.953.953,0,0,1,0,1.194A5.511,5.511,0,0,1,329.743,53.486Z" transform="translate(-282.659 -42.742)" fill-rule="evenodd"/>
      <path id="Trazado_909734" data-name="Trazado 909734" d="M315.02,63.29a3.413,3.413,0,0,0,0,4.411,3.409,3.409,0,0,0,0-4.411Zm0,6.7a.955.955,0,0,1-.6-.211,5.387,5.387,0,0,1,0-8.56.952.952,0,0,1,1.195,0,5.387,5.387,0,0,1,0,8.561A.951.951,0,0,1,315.02,69.987Z" transform="translate(-271.474 -53.927)" fill-rule="evenodd"/>
      <path id="Trazado_909735" data-name="Trazado 909735" d="M275.521,50.772a3.406,3.406,0,0,0,4.409,0,3.407,3.407,0,0,0-4.409,0Zm2.2,2.714a5.508,5.508,0,0,1-4.28-2.117.954.954,0,0,1,0-1.194,5.387,5.387,0,0,1,8.561,0,.953.953,0,0,1,0,1.194A5.511,5.511,0,0,1,277.725,53.486Z" transform="translate(-237.718 -42.742)" fill-rule="evenodd"/>
      <path id="Trazado_909736" data-name="Trazado 909736" d="M336.039,199.036a9.371,9.371,0,0,0-8.989,8.989,9.372,9.372,0,0,0,8.989-8.989Zm-9.371,10.9c-.206,0-.41-.005-.615-.016a.954.954,0,0,1-.9-.9,11.28,11.28,0,0,1,11.882-11.881.951.951,0,0,1,.9.9,11.277,11.277,0,0,1-11.266,11.9Z" transform="translate(-282.559 -171.528)" fill-rule="evenodd"/>
      <path id="Trazado_909737" data-name="Trazado 909737" d="M333.311,224.566a.952.952,0,0,1-.674-1.626l.36-.359a.952.952,0,0,1,1.346,1.347l-.359.359a.948.948,0,0,1-.673.279Zm-7.108,7.108a.952.952,0,0,0,.673-.279l5.56-5.56a.952.952,0,0,0-1.347-1.347l-5.56,5.56a.952.952,0,0,0,.674,1.626Z" transform="translate(-282.657 -193.28)" fill-rule="evenodd"/>
      <path id="Trazado_909738" data-name="Trazado 909738" d="M247.089,199.036a9.37,9.37,0,0,0,8.988,8.989,9.371,9.371,0,0,0-8.988-8.989Zm9.933,9.934h0Zm-.562.967a11.279,11.279,0,0,1-11.267-11.9.954.954,0,0,1,.9-.9,11.278,11.278,0,0,1,11.881,11.881.952.952,0,0,1-.9.9c-.2.011-.409.016-.613.016Z" transform="translate(-213.476 -171.528)" fill-rule="evenodd"/>
      <path id="Trazado_909739" data-name="Trazado 909739" d="M271.674,224.566a.944.944,0,0,1-.674-.279l-.361-.359a.952.952,0,0,1,1.347-1.347l.359.359a.952.952,0,0,1-.672,1.626Zm7.107,7.109a.952.952,0,0,0,.673-1.626l-5.559-5.56a.952.952,0,1,0-1.347,1.347l5.559,5.56a.955.955,0,0,0,.674.279Z" transform="translate(-235.236 -193.28)" fill-rule="evenodd"/>
      <path id="Trazado_909740" data-name="Trazado 909740" d="M340.419,75.965A13.557,13.557,0,0,0,327,89.388a13.555,13.555,0,0,0,13.423-13.423ZM326.856,91.294c-.282,0-.562-.008-.844-.023a.954.954,0,0,1-.9-.9A15.464,15.464,0,0,1,341.4,74.082a.953.953,0,0,1,.9.9,15.463,15.463,0,0,1-15.445,16.312Z" transform="translate(-282.519 -65.206)" fill-rule="evenodd"/>
      <path id="Trazado_909741" data-name="Trazado 909741" d="M336.191,111.853a.952.952,0,0,1-.674-1.626l.506-.5a.952.952,0,0,1,1.347,1.346l-.505.506a.951.951,0,0,1-.674.279h0Zm-9.989,9.988a.952.952,0,0,1-.674-1.626l7.813-7.812a.951.951,0,0,1,1.346,1.346l-7.812,7.813a.951.951,0,0,1-.673.279Z" transform="translate(-282.656 -95.775)" fill-rule="evenodd"/>
      <path id="Trazado_909742" data-name="Trazado 909742" d="M214.641,75.965a13.556,13.556,0,0,0,13.424,13.423,13.557,13.557,0,0,0-13.424-13.423ZM229,90.319h0Zm-.79.974A15.461,15.461,0,0,1,212.76,74.981a.952.952,0,0,1,.9-.9,15.462,15.462,0,0,1,16.289,16.289.952.952,0,0,1-.9.9c-.28.015-.562.023-.842.023Z" transform="translate(-185.45 -65.206)" fill-rule="evenodd"/>
      <path id="Trazado_909743" data-name="Trazado 909743" d="M249.579,111.853a.945.945,0,0,1-.674-.279l-.506-.506a.952.952,0,1,1,1.347-1.345l.507.5a.953.953,0,0,1,0,1.347.942.942,0,0,1-.672.279Zm9.987,9.989a.955.955,0,0,1-.674-.279l-7.811-7.813a.952.952,0,1,1,1.347-1.345l7.812,7.812a.952.952,0,0,1-.673,1.626Z" transform="translate(-216.02 -95.776)" fill-rule="evenodd"/>
      <path id="Trazado_909744" data-name="Trazado 909744" d="M326.2,140.478a.953.953,0,0,1-.953-.952V113.98a.952.952,0,0,1,1.9,0v25.546a.952.952,0,0,1-.953.952Z" transform="translate(-282.654 -98.873)" fill-rule="evenodd"/>
      <path id="Trazado_909745" data-name="Trazado 909745" d="M128.43,200.562a8.419,8.419,0,0,0,7.978,7.978,8.423,8.423,0,0,0-7.978-7.978Zm8.927,8.927h0Zm-.511.966a10.327,10.327,0,0,1-10.317-10.895.951.951,0,0,1,.9-.9,10.328,10.328,0,0,1,10.881,10.88.953.953,0,0,1-.9.9C137.221,210.45,137.033,210.455,136.846,210.455Z" transform="translate(-110.958 -172.843)" fill-rule="evenodd"/>
      <path id="Trazado_909746" data-name="Trazado 909746" d="M86.144,54.632a6.581,6.581,0,0,0,6.008,6.008,6.576,6.576,0,0,0-6.008-6.008ZM93.117,61.6h0Zm-.41.963a8.487,8.487,0,0,1-8.479-8.953.953.953,0,0,1,.9-.9,8.484,8.484,0,0,1,8.94,8.94.953.953,0,0,1-.9.9Q92.938,62.567,92.707,62.567Z" transform="translate(-74.415 -46.755)" fill-rule="evenodd"/>
      <path id="Trazado_909747" data-name="Trazado 909747" d="M14.1,137.538a6.721,6.721,0,0,0,6.159,6.159,6.718,6.718,0,0,0-6.159-6.159Zm7.122,7.121h0Zm-.419.965a8.627,8.627,0,0,1-8.618-9.1.952.952,0,0,1,.9-.9,8.626,8.626,0,0,1,9.088,9.088.953.953,0,0,1-.9.9c-.156.01-.314.014-.47.013Z" transform="translate(-12.173 -118.384)" fill-rule="evenodd"/>
      <path id="Trazado_909748" data-name="Trazado 909748" d="M424.818,245.451a6.721,6.721,0,0,0-6.159,6.159,6.722,6.722,0,0,0,6.159-6.159Zm-6.7,8.085q-.234,0-.471-.012a.951.951,0,0,1-.9-.9,8.626,8.626,0,0,1,9.087-9.088.953.953,0,0,1,.9.9,8.627,8.627,0,0,1-8.617,9.1Z" transform="translate(-361.694 -211.615)" fill-rule="evenodd"/>
    </g>
  </g>
</svg>
