<svg xmlns="http://www.w3.org/2000/svg" width="56.558" height="76.39" viewBox="0 0 56.558 76.39">
  <g id="reforestation_756403" transform="translate(-47.099)">
    <path id="Trazado_1030837" data-name="Trazado 1030837" d="M176.445,167.615a1.118,1.118,0,0,1-.013-1.582L194.764,147.4c-7.616.057-16.289,2.879-19.4,5.7a1.117,1.117,0,0,1-1.555-.056,16.886,16.886,0,0,0-2.213,2.728,13.728,13.728,0,0,1,1.742,9.786,17.4,17.4,0,0,1-.971,3.252,15.346,15.346,0,0,1-1.913,3.493,9.44,9.44,0,0,1-1.658,1.18l.1,10.242c.007.918,1.172,1.524,2.165,1.5,1.167-.009,2.147-.711,2.14-1.532l-.1-10.366a1.1,1.1,0,0,1,.1-1.292Z" transform="translate(-96.072 -116.371)" fill="#9aaf20"/>
    <path id="Trazado_1030838" data-name="Trazado 1030838" d="M241.12,225.094a10.358,10.358,0,0,0,3.643-3.58,1.119,1.119,0,0,1,1.888,1.2,12.559,12.559,0,0,1-4.44,4.333,1.119,1.119,0,0,1-1.092-1.953Z" transform="translate(-152.721 -174.469)"/>
    <path id="Trazado_1030839" data-name="Trazado 1030839" d="M54.722,309.858a1.119,1.119,0,0,0-1.119-1.119H49.868a1.119,1.119,0,0,0,0,2.237H53.6A1.119,1.119,0,0,0,54.722,309.858Z" transform="translate(-1.302 -243.739)"/>
    <path id="Trazado_1030840" data-name="Trazado 1030840" d="M289.115,308.739h-4.565a1.119,1.119,0,0,0,0,2.237h4.565a1.119,1.119,0,0,0,0-2.237Z" transform="translate(-186.577 -243.739)"/>
    <path id="Trazado_1030841" data-name="Trazado 1030841" d="M79.214,352.212H73.1a1.119,1.119,0,0,0,0,2.238h6.118a1.119,1.119,0,0,0,0-2.238Z" transform="translate(-19.641 -278.06)"/>
    <path id="Trazado_1030842" data-name="Trazado 1030842" d="M224.522,331.753h-2.875a1.119,1.119,0,0,0,0,2.237h2.875a1.119,1.119,0,0,0,0-2.237Z" transform="translate(-136.916 -261.908)"/>
    <path id="Trazado_1030843" data-name="Trazado 1030843" d="M277.266,349.866h-2.875a1.119,1.119,0,0,0,0,2.237h2.875a1.119,1.119,0,0,0,0-2.237Z" transform="translate(-178.556 -276.208)"/>
    <path id="Trazado_1030844" data-name="Trazado 1030844" d="M116.849,330.581h-2.875a1.119,1.119,0,0,0,0,2.237h2.875a1.119,1.119,0,0,0,0-2.237Z" transform="translate(-51.912 -260.983)"/>
    <path id="Trazado_1030845" data-name="Trazado 1030845" d="M102.387,137.894a1.128,1.128,0,0,0-1.023-1.008c-8.047-.649-19.285,2.3-23.577,6.184a1.119,1.119,0,0,0-.079,1.58c.008.009.017.015.025.023a1.117,1.117,0,0,0,1.555.056c3.115-2.82,11.788-5.642,19.4-5.7L80.361,157.66a1.119,1.119,0,1,0,1.595,1.569l18.323-18.621c.025,7.434-2.647,16.171-5.393,19.519-4.9,5.979-10.426,5.524-14.193,4.089l-2.317-.882a1.116,1.116,0,0,0-1.252.33,1.1,1.1,0,0,0-.1,1.292l.1,10.366c.007.821-.974,1.522-2.14,1.532-.993.025-2.158-.581-2.165-1.5l-.1-10.242a9.423,9.423,0,0,0,1.658-1.18,15.342,15.342,0,0,0,1.913-3.493,17.4,17.4,0,0,0,.971-3.252,13.729,13.729,0,0,0-1.742-9.786,18.121,18.121,0,0,0-3.652-4.283c-3.736-3.275-13.034-5.939-20.726-5.939-1.022,0-2.013.046-2.947.137a1.121,1.121,0,0,0-1.007,1.024c-.683,8.521,2.685,19.464,6.153,23.555,3.175,3.746,6.9,5.645,11.082,5.645h0a15.633,15.633,0,0,0,6.069-1.3V173H56.459a1.119,1.119,0,0,0,0,2.237H70.584a4.042,4.042,0,0,0,4.422,3.857,4.157,4.157,0,0,0,4.359-3.857h14.4a1.119,1.119,0,0,0,0-2.237H79.273V166.07a16.5,16.5,0,0,0,6.12,1.288c3.438,0,7.512-1.289,11.223-5.812C100.017,157.4,103.208,146.4,102.387,137.894ZM70.394,144.8c7.576,6.64,4.509,13.945,2.924,16.672L50.905,139.42C56.958,139.378,66.506,141.393,70.394,144.8Zm-5.969,20.5h0c-3.491,0-6.645-1.634-9.375-4.855-2.8-3.3-5.613-12-5.708-19.429l22.416,22.057A14.588,14.588,0,0,1,64.424,165.3Z" transform="translate(0 -107.997)"/>
    <path id="Trazado_1030846" data-name="Trazado 1030846" d="M84.665,154.634c-3.887-3.407-13.436-5.422-19.488-5.381l22.412,22.053C89.174,168.579,92.242,161.274,84.665,154.634Z" transform="translate(-14.272 -117.83)" fill="#cde041"/>
    <path id="Trazado_1030847" data-name="Trazado 1030847" d="M80.16,178.908,57.744,156.851c.095,7.433,2.908,16.126,5.708,19.429,2.73,3.221,5.884,4.854,9.375,4.855h0A14.589,14.589,0,0,0,80.16,178.908Z" transform="translate(-8.404 -123.829)" fill="#9aaf20"/>
    <path id="Trazado_1030848" data-name="Trazado 1030848" d="M194.538,173.52a1.119,1.119,0,0,1-1.582.013l-3.251,4.422a1.115,1.115,0,0,1,1.252-.33l2.317.882c3.768,1.435,9.288,1.891,14.193-4.089,2.746-3.348,5.419-12.086,5.393-19.519Zm11.975-2.987a12.559,12.559,0,0,1-4.44,4.333,1.119,1.119,0,0,1-1.092-1.953,10.358,10.358,0,0,0,3.643-3.58,1.119,1.119,0,1,1,1.888,1.2Z" transform="translate(-112.582 -122.288)" fill="#cde041"/>
    <path id="Trazado_1030849" data-name="Trazado 1030849" d="M123.585,74h.009a1.119,1.119,0,0,1,1.119,1.11l.033,4.153,3.4-.027-.034-4.153a1.119,1.119,0,0,1,1.11-1.128l4.153-.033-.027-3.4-4.153.033h-.009a1.119,1.119,0,0,1-1.119-1.11l-.034-4.153-3.4.027.033,4.153a1.119,1.119,0,0,1-1.11,1.128l-4.153.033.028,3.4Z" transform="translate(-57.082 -51.551)" fill="#52b5a2"/>
    <path id="Trazado_1030850" data-name="Trazado 1030850" d="M111.031,67.885l3.062-.025.025,3.062a2.215,2.215,0,0,0,2.209,2.191h.018l3.454-.028a2.208,2.208,0,0,0,2.191-2.227l-.025-3.062,3.063-.025a2.212,2.212,0,0,0,2.191-2.227l-.028-3.454a2.219,2.219,0,0,0-2.226-2.192l-3.063.025-.025-3.062a2.219,2.219,0,0,0-2.227-2.191L116.2,54.7A2.208,2.208,0,0,0,114,56.926l.025,3.062-3.062.025a2.212,2.212,0,0,0-2.192,2.227l.028,3.454A2.219,2.219,0,0,0,111.031,67.885Zm4.135-5.669a1.119,1.119,0,0,0,1.11-1.128l-.033-4.153,3.4-.027.034,4.153a1.119,1.119,0,0,0,1.119,1.11h.009l4.153-.033.027,3.4-4.153.033a1.119,1.119,0,0,0-1.11,1.128l.034,4.153-3.4.027-.033-4.153a1.119,1.119,0,0,0-1.119-1.11h-.009l-4.153.033-.028-3.4Z" transform="translate(-48.691 -43.161)"/>
    <path id="Trazado_1030851" data-name="Trazado 1030851" d="M201.907,19.1l-.068,3.509,2.71.052.068-3.509a1.127,1.127,0,0,1,1.14-1.1l3.509.067.052-2.71-3.509-.068a1.119,1.119,0,0,1-1.1-1.14l.068-3.509-2.71-.052L202,14.152a1.12,1.12,0,0,1-1.14,1.1l-3.509-.068-.052,2.71,3.51.068A1.12,1.12,0,0,1,201.907,19.1Z" transform="translate(-118.578 -8.402)" fill="#ffd731"/>
    <path id="Trazado_1030852" data-name="Trazado 1030852" d="M188.7,11.724l2.552.049-.049,2.552a2.075,2.075,0,0,0,2.036,2.116l3.032.058h.041a2.086,2.086,0,0,0,2.075-2.036l.049-2.552c3.068.059,2.524.049,2.592.049A2.087,2.087,0,0,0,203.1,9.924l.058-3.031a2.075,2.075,0,0,0-2.035-2.117l-2.552-.049.049-2.552A2.075,2.075,0,0,0,196.583.059L193.55,0h-.04a2.086,2.086,0,0,0-2.075,2.036l-.049,2.552-2.592-.049a2.087,2.087,0,0,0-2.075,2.036l-.058,3.032A2.075,2.075,0,0,0,188.7,11.724Zm.257-4.944,3.509.068a1.12,1.12,0,0,0,1.14-1.1l.068-3.509,2.71.052L196.311,5.8a1.119,1.119,0,0,0,1.1,1.14l3.509.068-.052,2.71-3.509-.067a1.128,1.128,0,0,0-1.14,1.1l-.068,3.509-2.71-.052.068-3.509a1.119,1.119,0,0,0-1.1-1.14L188.9,9.49Z" transform="translate(-110.178)"/>
  </g>
</svg>
