<svg xmlns="http://www.w3.org/2000/svg" width="59.659" height="68.211" viewBox="0 0 59.659 68.211">
  <g id="farmer_12088058" transform="translate(-38.619 -7)">
    <g id="Grupo_1111610" data-name="Grupo 1111610" transform="translate(39.119 7.5)">
      <g id="Grupo_1111609" data-name="Grupo 1111609" transform="translate(0 0)">
        <path id="Trazado_900669" data-name="Trazado 900669" d="M170.775,17.214a55.127,55.127,0,0,1,13.328,1.51A13.526,13.526,0,0,0,170.775,7.5h0a13.526,13.526,0,0,0-13.328,11.224A55.127,55.127,0,0,1,170.775,17.214Z" transform="translate(-141.445 -7.5)" fill="#ffd15b"/>
        <g id="Grupo_1111596" data-name="Grupo 1111596" transform="translate(26.426)">
          <path id="Trazado_900670" data-name="Trazado 900670" d="M244.719,17.63a46.678,46.678,0,0,1,6.043,1.093A13.526,13.526,0,0,0,237.434,7.5h0a13.564,13.564,0,0,0-2.9.315A13.541,13.541,0,0,1,244.719,17.63Z" transform="translate(-234.531 -7.5)" fill="#ffc344"/>
        </g>
        <ellipse id="Elipse_11625" data-name="Elipse 11625" cx="22.178" cy="7.534" rx="22.178" ry="7.534" transform="translate(7.151 9.579)" fill="#ffe177"/>
        <g id="Grupo_1111597" data-name="Grupo 1111597" transform="translate(42.772 12.413)">
          <path id="Trazado_900671" data-name="Trazado 900671" d="M359.292,99.289a3.172,3.172,0,0,1,.787,2c0,1.745-1.747,3.351-4.679,4.629a4.012,4.012,0,0,1,2.567,3.29c3.821-1.354,6.169-3.19,6.169-5.214C364.137,102.211,362.323,100.578,359.292,99.289Z" transform="translate(-355.401 -99.289)" fill="#ffd15b"/>
        </g>
        <g id="Grupo_1111600" data-name="Grupo 1111600" transform="translate(7.016 37.416)">
          <g id="Grupo_1111599" data-name="Grupo 1111599">
            <g id="Grupo_1111598" data-name="Grupo 1111598">
              <path id="Trazado_900672" data-name="Trazado 900672" d="M95.845,294.094a7.853,7.853,0,0,1,7.847,7.6l0,.131h1.766l0-.131a7.851,7.851,0,0,1,15.694,0l0,.131h1.766l0-.131a7.838,7.838,0,0,1,12.692-5.912V292.29a8.114,8.114,0,0,0-8.114-8.114h-28.4A8.114,8.114,0,0,0,91,292.29v3.491A7.833,7.833,0,0,1,95.845,294.094Z" transform="translate(-91 -284.176)" fill="#e2dee2"/>
            </g>
          </g>
        </g>
        <path id="Trazado_900673" data-name="Trazado 900673" d="M372.151,294.554l.1,0a4.217,4.217,0,0,1,4.119-3.314h.46a8.12,8.12,0,0,0-6.713-6.379v9.953A7.993,7.993,0,0,1,372.151,294.554Z" transform="translate(-325.352 -247.355)" fill="#cbc4cc"/>
        <g id="Grupo_1111601" data-name="Grupo 1111601" transform="translate(11.084 23.799)">
          <path id="Trazado_900674" data-name="Trazado 900674" d="M129.381,186.445l-.027-.1H127.3a3.88,3.88,0,0,1-3.739-2.863,5.433,5.433,0,1,0,7.878,6.855A10.248,10.248,0,0,1,129.381,186.445Z" transform="translate(-121.079 -183.482)" fill="#554e56"/>
          <path id="Trazado_900675" data-name="Trazado 900675" d="M322.211,183.482a3.88,3.88,0,0,1-3.739,2.863h-2.056l-.027.1a10.25,10.25,0,0,1-2.056,3.892,5.433,5.433,0,1,0,7.878-6.855Z" transform="translate(-288.199 -183.482)" fill="#554e56"/>
        </g>
        <path id="Trazado_900676" data-name="Trazado 900676" d="M228.532,255.345a10.252,10.252,0,0,1-4.3-.94v4.026l3.82,3.775a.676.676,0,0,0,.951,0l3.82-3.775v-4.026A10.251,10.251,0,0,1,228.532,255.345Z" transform="translate(-199.202 -221.015)" fill="#a44f3e"/>
        <g id="Grupo_1111605" data-name="Grupo 1111605" transform="translate(3.953 43.888)">
          <g id="Grupo_1111602" data-name="Grupo 1111602">
            <path id="Trazado_900677" data-name="Trazado 900677" d="M70.281,363.365a1.747,1.747,0,0,1,1.553.945l.037.074H84.244a7.99,7.99,0,0,0-15.9-1.019Z" transform="translate(-68.348 -353.208)" fill="#fe860a"/>
            <path id="Trazado_900678" data-name="Trazado 900678" d="M113.854,356.519a8,8,0,0,0-2.029.261,7.993,7.993,0,0,1,5.959,7.6h4.057A7.99,7.99,0,0,0,113.854,356.519Z" transform="translate(-105.945 -353.208)" fill="#f46700"/>
            <path id="Trazado_900679" data-name="Trazado 900679" d="M130.391,337.792h-3.159a.406.406,0,0,1-.406-.406v-1.138a4.217,4.217,0,0,1,4.217-4.217H134.2a.406.406,0,0,1,.406.406v1.138A4.217,4.217,0,0,1,130.391,337.792Z" transform="translate(-118.918 -332.032)" fill="#0ed290"/>
            <path id="Trazado_900680" data-name="Trazado 900680" d="M134.2,332.032h-1.3a4.217,4.217,0,0,1-4.211,4.009h-1.863c0,.069-.005.138-.005.207v1.138a.406.406,0,0,0,.406.406h3.159a4.217,4.217,0,0,0,4.217-4.217v-1.138A.406.406,0,0,0,134.2,332.032Z" transform="translate(-118.918 -332.032)" fill="#00c285"/>
          </g>
          <g id="Grupo_1111603" data-name="Grupo 1111603" transform="translate(17.389)">
            <path id="Trazado_900681" data-name="Trazado 900681" d="M212.909,364.384a7.989,7.989,0,0,0-15.976,0Z" transform="translate(-196.933 -353.208)" fill="#fe860a"/>
            <path id="Trazado_900682" data-name="Trazado 900682" d="M243.029,356.519a8,8,0,0,0-2.029.261,7.993,7.993,0,0,1,5.959,7.6h4.057A7.99,7.99,0,0,0,243.029,356.519Z" transform="translate(-235.041 -353.208)" fill="#f46700"/>
            <path id="Trazado_900683" data-name="Trazado 900683" d="M259.565,337.792h-3.159a.406.406,0,0,1-.406-.406v-1.138a4.217,4.217,0,0,1,4.217-4.217h3.159a.406.406,0,0,1,.406.406v1.138A4.216,4.216,0,0,1,259.565,337.792Z" transform="translate(-248.012 -332.032)" fill="#0ed290"/>
            <path id="Trazado_900684" data-name="Trazado 900684" d="M263.376,332.032h-1.3a4.217,4.217,0,0,1-4.211,4.009h-1.863c0,.069-.005.138-.005.207v1.138a.406.406,0,0,0,.406.406h3.159a4.217,4.217,0,0,0,4.217-4.217v-1.138A.406.406,0,0,0,263.376,332.032Z" transform="translate(-248.012 -332.032)" fill="#00c285"/>
          </g>
          <g id="Grupo_1111604" data-name="Grupo 1111604" transform="translate(34.858)">
            <path id="Trazado_900685" data-name="Trazado 900685" d="M338.479,364.384l.037-.074a1.748,1.748,0,0,1,1.553-.945H342a7.99,7.99,0,0,0-15.9,1.019Z" transform="translate(-326.107 -353.208)" fill="#fe860a"/>
            <path id="Trazado_900686" data-name="Trazado 900686" d="M338.479,364.384l.037-.074a1.748,1.748,0,0,1,1.553-.945H342a7.99,7.99,0,0,0-15.9,1.019Z" transform="translate(-326.107 -353.208)" fill="#fe860a"/>
            <path id="Trazado_900687" data-name="Trazado 900687" d="M377.921,363.365h1.933a7.991,7.991,0,0,0-9.977-6.574,7.993,7.993,0,0,1,5.92,7.593h.533l.037-.074A1.748,1.748,0,0,1,377.921,363.365Z" transform="translate(-363.959 -353.208)" fill="#f46700"/>
            <path id="Trazado_900688" data-name="Trazado 900688" d="M388.74,337.792h-3.159a.406.406,0,0,1-.406-.406v-1.138a4.217,4.217,0,0,1,4.217-4.217h3.159a.406.406,0,0,1,.406.406v1.138A4.217,4.217,0,0,1,388.74,337.792Z" transform="translate(-377.187 -332.032)" fill="#0ed290"/>
            <path id="Trazado_900689" data-name="Trazado 900689" d="M392.551,332.032h-1.3a4.217,4.217,0,0,1-4.211,4.009H385.18c0,.069-.005.138-.005.207v1.138a.406.406,0,0,0,.406.406h3.159a4.217,4.217,0,0,0,4.217-4.217v-1.138A.406.406,0,0,0,392.551,332.032Z" transform="translate(-377.187 -332.032)" fill="#00c285"/>
          </g>
        </g>
        <g id="Grupo_1111606" data-name="Grupo 1111606" transform="translate(13.293 18.779)">
          <path id="Trazado_900690" data-name="Trazado 900690" d="M331.541,146.364h-1.811a5.092,5.092,0,0,1,.1,1.006V151.6a10.283,10.283,0,0,1-.385,2.784h2.1a4.009,4.009,0,0,0,4.009-4.009h0A4.009,4.009,0,0,0,331.541,146.364Z" transform="translate(-303.477 -146.364)" fill="#a44f3e"/>
          <path id="Trazado_900691" data-name="Trazado 900691" d="M143.135,151.6V147.37a5.092,5.092,0,0,1,.1-1.006h-1.81a4.009,4.009,0,0,0-4.009,4.009h0a4.009,4.009,0,0,0,4.009,4.009h2.1A10.284,10.284,0,0,1,143.135,151.6Z" transform="translate(-137.416 -146.364)" fill="#bb5d4c"/>
        </g>
        <g id="Grupo_1111607" data-name="Grupo 1111607" transform="translate(18.877 14.561)">
          <path id="Trazado_900692" data-name="Trazado 900692" d="M178.709,124.623a10.452,10.452,0,0,0,10.452,10.452h0a10.452,10.452,0,0,0,10.452-10.452v-4.228a5.224,5.224,0,0,0-5.224-5.224H183.933a5.224,5.224,0,0,0-5.224,5.224v4.228Z" transform="translate(-178.709 -115.17)" fill="#c96e59"/>
        </g>
        <path id="Trazado_900693" data-name="Trazado 900693" d="M215.342,115.169h-.185v8.66a8.54,8.54,0,0,1-8.54,8.54H204.7a10.516,10.516,0,0,1-1.766-.152,10.413,10.413,0,0,0,7.176,2.856h0a10.452,10.452,0,0,0,10.452-10.452v-4.228A5.224,5.224,0,0,0,215.342,115.169Z" transform="translate(-180.784 -100.609)" fill="#bb5d4c"/>
        <path id="Trazado_900694" data-name="Trazado 900694" d="M129.531,425.827A1.713,1.713,0,0,1,127.8,424.2a1.68,1.68,0,0,1,.922-1.542l.24-.121-.24-.121a1.67,1.67,0,0,1,0-2.987l.24-.121-.24-.121a1.67,1.67,0,0,1,0-2.987l.24-.121-.24-.121a1.68,1.68,0,0,1-.922-1.542,1.6,1.6,0,0,1,.207-.74H84.163a1.6,1.6,0,0,1,.207.74,1.68,1.68,0,0,1-.922,1.542l-.24.121.24.121a1.67,1.67,0,0,1,0,2.987l-.24.121.24.121a1.67,1.67,0,0,1,0,2.987l-.24.121.24.121a1.681,1.681,0,0,1,.922,1.542,1.713,1.713,0,0,1-1.726,1.624v.135h46.887Z" transform="translate(-76.758 -358.751)" fill="#ffe177"/>
        <g id="Grupo_1111608" data-name="Grupo 1111608" transform="translate(0 53.91)">
          <path id="Trazado_900695" data-name="Trazado 900695" d="M46.867,411.177a1.848,1.848,0,0,1,0-3.281A1.844,1.844,0,0,0,45,406.141H42.366a3.247,3.247,0,0,0-3.247,3.247V416.2a3.247,3.247,0,0,0,3.247,3.247h2.639a1.844,1.844,0,0,0,1.862-1.755,1.848,1.848,0,0,1,0-3.281,1.805,1.805,0,0,1,0-3.228Z" transform="translate(-39.119 -406.141)" fill="#c96e59"/>
          <path id="Trazado_900696" data-name="Trazado 900696" d="M415.585,411.177a1.848,1.848,0,0,0,0-3.281,1.844,1.844,0,0,1,1.862-1.755h2.639a3.247,3.247,0,0,1,3.247,3.247V416.2a3.247,3.247,0,0,1-3.247,3.247h-2.639a1.844,1.844,0,0,1-1.862-1.755,1.848,1.848,0,0,0,0-3.281,1.805,1.805,0,0,0,0-3.228Z" transform="translate(-364.674 -406.141)" fill="#c96e59"/>
        </g>
      </g>
      <path id="Trazado_900697" data-name="Trazado 900697" d="M46.867,414.4a1.805,1.805,0,0,1,0-3.229,1.848,1.848,0,0,1,0-3.281A1.844,1.844,0,0,0,45,406.14H43.166v7.851a2.029,2.029,0,0,1-2.028,2.029H39.119v.175a3.247,3.247,0,0,0,3.247,3.247h2.639a1.844,1.844,0,0,0,1.862-1.756,1.848,1.848,0,0,1,0-3.281Z" transform="translate(-39.119 -352.231)" fill="#bb5d4c"/>
      <path id="Trazado_900698" data-name="Trazado 900698" d="M420.628,406.481v7.8a2.029,2.029,0,0,1-2.029,2.028h-2.018a1.806,1.806,0,0,0-1,1.667,1.844,1.844,0,0,0,1.862,1.755h2.639a3.247,3.247,0,0,0,3.247-3.247v-6.807A3.248,3.248,0,0,0,420.628,406.481Z" transform="translate(-364.674 -352.526)" fill="#bb5d4c"/>
    </g>
    <g id="Grupo_1111617" data-name="Grupo 1111617" transform="translate(39.119 7.5)">
      <path id="Trazado_900699" data-name="Trazado 900699" d="M184.249,18.583A13.525,13.525,0,0,0,170.949,7.5h0a13.525,13.525,0,0,0-13.3,11.083" transform="translate(-141.619 -7.5)" fill="none" stroke="#000" stroke-linecap="round" stroke-linejoin="round" stroke-miterlimit="10" stroke-width="1"/>
      <path id="Trazado_900700" data-name="Trazado 900700" d="M253.894,91.076c3.821-1.354,6.169-3.19,6.169-5.214,0-4.161-9.93-7.534-22.178-7.534q-1.44,0-2.833.061" transform="translate(-208.555 -68.75)" fill="none" stroke="#000" stroke-linecap="round" stroke-linejoin="round" stroke-miterlimit="10" stroke-width="1"/>
      <path id="Trazado_900701" data-name="Trazado 900701" d="M106.61,81.66C98.089,82.711,92,85.486,92,88.744c0,2.023,2.348,3.86,6.169,5.214" transform="translate(-84.85 -71.631)" fill="none" stroke="#000" stroke-linecap="round" stroke-linejoin="round" stroke-miterlimit="10" stroke-width="1"/>
      <line id="Línea_577" data-name="Línea 577" x1="3.851" transform="translate(21.183 37.416)" fill="none" stroke="#000" stroke-linecap="round" stroke-linejoin="round" stroke-miterlimit="10" stroke-width="1"/>
      <path id="Trazado_900702" data-name="Trazado 900702" d="M305.615,290.647a8.117,8.117,0,0,0-7.948-6.472h-9.9" transform="translate(-254.139 -246.759)" fill="none" stroke="#000" stroke-linecap="round" stroke-linejoin="round" stroke-miterlimit="10" stroke-width="1"/>
      <path id="Trazado_900703" data-name="Trazado 900703" d="M100.434,284.175h-1.32A8.114,8.114,0,0,0,91,292.289V295.6" transform="translate(-83.984 -246.759)" fill="none" stroke="#000" stroke-linecap="round" stroke-linejoin="round" stroke-miterlimit="10" stroke-width="1"/>
      <path id="Trazado_900704" data-name="Trazado 900704" d="M123.44,184.087a5.43,5.43,0,1,0,7.928,6.907" transform="translate(-109.995 -160.207)" fill="none" stroke="#000" stroke-linecap="round" stroke-linejoin="round" stroke-miterlimit="10" stroke-width="1"/>
      <path id="Trazado_900705" data-name="Trazado 900705" d="M314.839,190.993a5.431,5.431,0,1,0,7.928-6.907" transform="translate(-277.552 -160.206)" fill="none" stroke="#000" stroke-linecap="round" stroke-linejoin="round" stroke-miterlimit="10" stroke-width="1"/>
      <path id="Trazado_900706" data-name="Trazado 900706" d="M224.236,255.527V259.4l3.82,3.775a.676.676,0,0,0,.951,0l3.82-3.775v-3.874" transform="translate(-199.202 -221.985)" fill="none" stroke="#000" stroke-linecap="round" stroke-linejoin="round" stroke-miterlimit="10" stroke-width="1"/>
      <path id="Trazado_900707" data-name="Trazado 900707" d="M95.021,377.382H107.3a7.972,7.972,0,0,0-2.636-5.676" transform="translate(-87.461 -322.453)" fill="none" stroke="#000" stroke-linecap="round" stroke-linejoin="round" stroke-miterlimit="10" stroke-width="1"/>
      <path id="Trazado_900708" data-name="Trazado 900708" d="M76.5,356.521l-.1,0a7.99,7.99,0,0,0-7.885,6.711" transform="translate(-64.54 -309.32)" fill="none" stroke="#000" stroke-linecap="round" stroke-linejoin="round" stroke-miterlimit="10" stroke-width="1"/>
      <path id="Trazado_900709" data-name="Trazado 900709" d="M130.391,337.792h-3.159a.406.406,0,0,1-.406-.406v-1.138a4.217,4.217,0,0,1,4.217-4.217H134.2a.406.406,0,0,1,.406.406v1.138A4.217,4.217,0,0,1,130.391,337.792Z" transform="translate(-114.965 -288.145)" fill="none" stroke="#000" stroke-linecap="round" stroke-linejoin="round" stroke-miterlimit="10" stroke-width="1"/>
      <path id="Trazado_900710" data-name="Trazado 900710" d="M205.054,356.521l-.1,0a7.988,7.988,0,0,0-7.982,7.73h15.965a7.971,7.971,0,0,0-2.636-5.676" transform="translate(-175.627 -309.32)" fill="none" stroke="#000" stroke-linecap="round" stroke-linejoin="round" stroke-miterlimit="10" stroke-width="1"/>
      <path id="Trazado_900711" data-name="Trazado 900711" d="M259.565,337.792h-3.159a.406.406,0,0,1-.406-.406v-1.138a4.217,4.217,0,0,1,4.217-4.217h3.159a.406.406,0,0,1,.406.406v1.138A4.216,4.216,0,0,1,259.565,337.792Z" transform="translate(-226.67 -288.145)" fill="none" stroke="#000" stroke-linecap="round" stroke-linejoin="round" stroke-miterlimit="10" stroke-width="1"/>
      <path id="Trazado_900712" data-name="Trazado 900712" d="M334.228,356.521l-.1,0a7.988,7.988,0,0,0-7.982,7.73" transform="translate(-287.332 -309.32)" fill="none" stroke="#000" stroke-linecap="round" stroke-linejoin="round" stroke-miterlimit="10" stroke-width="1"/>
      <path id="Trazado_900713" data-name="Trazado 900713" d="M427.237,376.37a7.979,7.979,0,0,0-2.541-4.656" transform="translate(-372.553 -322.46)" fill="none" stroke="#000" stroke-linecap="round" stroke-linejoin="round" stroke-miterlimit="10" stroke-width="1"/>
      <path id="Trazado_900714" data-name="Trazado 900714" d="M388.74,337.792h-3.159a.406.406,0,0,1-.406-.406v-1.138a4.217,4.217,0,0,1,4.217-4.217h3.159a.406.406,0,0,1,.406.406v1.138A4.217,4.217,0,0,1,388.74,337.792Z" transform="translate(-338.377 -288.145)" fill="none" stroke="#000" stroke-linecap="round" stroke-linejoin="round" stroke-miterlimit="10" stroke-width="1"/>
      <path id="Trazado_900715" data-name="Trazado 900715" d="M330.5,154.382h1.953a4.009,4.009,0,0,0,4.009-4.009h0a4.009,4.009,0,0,0-4.009-4.009h-1.673" transform="translate(-291.093 -127.585)" fill="none" stroke="#000" stroke-linecap="round" stroke-linejoin="round" stroke-miterlimit="10" stroke-width="1"/>
      <path id="Trazado_900716" data-name="Trazado 900716" d="M143.1,146.364h-1.673a4.009,4.009,0,0,0-4.009,4.009h0a4.009,4.009,0,0,0,4.009,4.009h1.953" transform="translate(-124.123 -127.585)" fill="none" stroke="#000" stroke-linecap="round" stroke-linejoin="round" stroke-miterlimit="10" stroke-width="1"/>
      <g id="Grupo_1111611" data-name="Grupo 1111611" transform="translate(18.877 14.561)">
        <path id="Trazado_900717" data-name="Trazado 900717" d="M178.709,124.623a10.452,10.452,0,0,0,10.452,10.452h0a10.452,10.452,0,0,0,10.452-10.452v-4.228a5.224,5.224,0,0,0-5.224-5.224H183.933a5.224,5.224,0,0,0-5.224,5.224v4.228Z" transform="translate(-178.709 -115.17)" fill="none" stroke="#000" stroke-linecap="round" stroke-linejoin="round" stroke-miterlimit="10" stroke-width="1"/>
      </g>
      <g id="Grupo_1111613" data-name="Grupo 1111613" transform="translate(24.461 19.062)">
        <g id="Grupo_1111612" data-name="Grupo 1111612">
          <line id="Línea_578" data-name="Línea 578" y2="1.597" fill="none" stroke="#000" stroke-linecap="round" stroke-linejoin="round" stroke-miterlimit="10" stroke-width="1"/>
          <line id="Línea_579" data-name="Línea 579" y2="1.597" transform="translate(9.737)" fill="none" stroke="#000" stroke-linecap="round" stroke-linejoin="round" stroke-miterlimit="10" stroke-width="1"/>
        </g>
        <path id="Trazado_900718" data-name="Trazado 900718" d="M246.421,165.181l-1.122-.962a1.076,1.076,0,0,1-.061-1.578l.523-.523a2.253,2.253,0,0,0,.66-1.593" transform="translate(-241.553 -158.893)" fill="none" stroke="#000" stroke-linecap="round" stroke-linejoin="round" stroke-miterlimit="10" stroke-width="1"/>
        <path id="Trazado_900719" data-name="Trazado 900719" d="M232.271,216.221a4.535,4.535,0,0,0,6.418,0" transform="translate(-230.612 -207.057)" fill="none" stroke="#000" stroke-linecap="round" stroke-linejoin="round" stroke-miterlimit="10" stroke-width="1"/>
      </g>
      <line id="Línea_580" data-name="Línea 580" x2="46.887" transform="translate(5.886 67.211)" fill="none" stroke="#000" stroke-linecap="round" stroke-linejoin="round" stroke-miterlimit="10" stroke-width="1"/>
      <g id="Grupo_1111615" data-name="Grupo 1111615" transform="translate(12.078 58.921)">
        <line id="Línea_581" data-name="Línea 581" x2="4.948" transform="translate(0 4.298)" fill="none" stroke="#000" stroke-linecap="round" stroke-linejoin="round" stroke-miterlimit="10" stroke-width="1"/>
        <line id="Línea_582" data-name="Línea 582" x2="7.582" transform="translate(26.922 4.298)" fill="none" stroke="#000" stroke-linecap="round" stroke-linejoin="round" stroke-miterlimit="10" stroke-width="1"/>
        <g id="Grupo_1111614" data-name="Grupo 1111614" transform="translate(2.939)">
          <line id="Línea_583" data-name="Línea 583" x2="8.934" fill="none" stroke="#000" stroke-linecap="round" stroke-linejoin="round" stroke-miterlimit="10" stroke-width="1"/>
          <line id="Línea_584" data-name="Línea 584" x2="12.118" transform="translate(17.435)" fill="none" stroke="#000" stroke-linecap="round" stroke-linejoin="round" stroke-miterlimit="10" stroke-width="1"/>
        </g>
      </g>
      <g id="Grupo_1111616" data-name="Grupo 1111616" transform="translate(0 53.91)">
        <path id="Trazado_900720" data-name="Trazado 900720" d="M46.867,411.177a1.848,1.848,0,0,1,0-3.281A1.844,1.844,0,0,0,45,406.141H42.366a3.247,3.247,0,0,0-3.247,3.247V416.2a3.247,3.247,0,0,0,3.247,3.247h2.639a1.844,1.844,0,0,0,1.862-1.755,1.848,1.848,0,0,1,0-3.281,1.805,1.805,0,0,1,0-3.228Z" transform="translate(-39.119 -406.141)" fill="none" stroke="#000" stroke-linecap="round" stroke-linejoin="round" stroke-miterlimit="10" stroke-width="1"/>
        <path id="Trazado_900721" data-name="Trazado 900721" d="M415.585,411.177a1.848,1.848,0,0,0,0-3.281,1.844,1.844,0,0,1,1.862-1.755h2.639a3.247,3.247,0,0,1,3.247,3.247V416.2a3.247,3.247,0,0,1-3.247,3.247h-2.639a1.844,1.844,0,0,1-1.862-1.755,1.848,1.848,0,0,0,0-3.281,1.805,1.805,0,0,0,0-3.228Z" transform="translate(-364.674 -406.141)" fill="none" stroke="#000" stroke-linecap="round" stroke-linejoin="round" stroke-miterlimit="10" stroke-width="1"/>
      </g>
      <line id="Línea_585" data-name="Línea 585" x1="3.6" transform="translate(47.499 54.929)" fill="none" stroke="#000" stroke-linecap="round" stroke-linejoin="round" stroke-miterlimit="10" stroke-width="1"/>
      <line id="Línea_586" data-name="Línea 586" x1="35.206" transform="translate(7.56 54.929)" fill="none" stroke="#000" stroke-linecap="round" stroke-linejoin="round" stroke-miterlimit="10" stroke-width="1"/>
    </g>
  </g>
</svg>
