<svg xmlns="http://www.w3.org/2000/svg" width="60.439" height="66.915" viewBox="0 0 60.439 66.915">
  <g id="farmer_2399556" transform="translate(-4 -1)">
    <g id="Grupo_1198742" data-name="Grupo 1198742" transform="translate(50.409 49.567)">
      <path id="Trazado_1030881" data-name="Trazado 1030881" d="M50.238,62.189H49.159A2.158,2.158,0,0,1,47,60.031V46h2.159a2.158,2.158,0,0,1,2.159,2.159V62.189" transform="translate(-47 -46)" fill="#db9b7c"/>
    </g>
    <g id="Grupo_1198743" data-name="Grupo 1198743" transform="translate(53.647 45.25)">
      <path id="Trazado_1030882" data-name="Trazado 1030882" d="M50,42h6.476V52.793H50Z" transform="translate(-50 -42)" fill="#976947"/>
    </g>
    <g id="Grupo_1198744" data-name="Grupo 1198744" transform="translate(53.647 53.884)">
      <path id="Trazado_1030883" data-name="Trazado 1030883" d="M51.079,53.238A1.08,1.08,0,0,1,50,52.159V51.079A1.08,1.08,0,0,1,51.079,50h6.476a2.158,2.158,0,0,1,2.159,2.159v8.634a2.158,2.158,0,0,1-2.159,2.159H51.079A1.08,1.08,0,0,1,50,61.872V60.793a1.08,1.08,0,0,1,1.079-1.079A1.08,1.08,0,0,1,50,58.634V57.555a1.08,1.08,0,0,1,1.079-1.079A1.08,1.08,0,0,1,50,55.4V54.317A1.08,1.08,0,0,1,51.079,53.238Z" transform="translate(-50 -50)" fill="#efbe9a"/>
    </g>
    <g id="Grupo_1198745" data-name="Grupo 1198745" transform="translate(7.238 40.933)">
      <path id="Trazado_1030884" data-name="Trazado 1030884" d="M50.171,64.982V47.1A6.477,6.477,0,0,0,45.6,40.91L36.14,38H21.031l-9.46,2.911A6.474,6.474,0,0,0,7,47.1V64.982" transform="translate(-7 -38)" fill="#f9d18b"/>
    </g>
    <g id="Grupo_1198746" data-name="Grupo 1198746" transform="translate(42.854 64.677)">
      <path id="Trazado_1030885" data-name="Trazado 1030885" d="M40,60h7.555v3.238H40Z" transform="translate(-40 -60)" fill="#efbe9a"/>
    </g>
    <g id="Grupo_1198747" data-name="Grupo 1198747" transform="translate(7.238 64.677)">
      <path id="Trazado_1030886" data-name="Trazado 1030886" d="M7,60h7.555v3.238H7Z" transform="translate(-7 -60)" fill="#efbe9a"/>
    </g>
    <g id="Grupo_1198748" data-name="Grupo 1198748" transform="translate(19.11 42.012)">
      <path id="Trazado_1030887" data-name="Trazado 1030887" d="M37.427,39l-5.4,9.713L27.713,44.4,23.4,48.713,18,39" transform="translate(-18 -39)" fill="#f5b953"/>
    </g>
    <g id="Grupo_1198749" data-name="Grupo 1198749" transform="translate(23.427 42.012)">
      <path id="Trazado_1030888" data-name="Trazado 1030888" d="M22,39l5.4,5.4,5.4-5.4" transform="translate(-22 -39)" fill="#efbe9a"/>
    </g>
    <g id="Grupo_1198750" data-name="Grupo 1198750" transform="translate(42.854 60.36)">
      <path id="Trazado_1030889" data-name="Trazado 1030889" d="M40,56h7.555v4.317H40Z" transform="translate(-40 -56)" fill="#f5b953"/>
    </g>
    <g id="Grupo_1198751" data-name="Grupo 1198751" transform="translate(5.079 60.36)">
      <path id="Trazado_1030890" data-name="Trazado 1030890" d="M5,56h9.713v4.317H5Z" transform="translate(-5 -56)" fill="#f5b953"/>
    </g>
    <g id="Grupo_1198752" data-name="Grupo 1198752" transform="translate(14.793 41.597)">
      <path id="Trazado_1030891" data-name="Trazado 1030891" d="M42.061,39.944l-4.317-1.329v16.6H18.317v-16.6L14,39.944v23.91H42.061Z" transform="translate(-14 -38.615)" fill="#3d98f7"/>
    </g>
    <g id="Grupo_1198753" data-name="Grupo 1198753" transform="translate(38.537 49.567)">
      <path id="Trazado_1030892" data-name="Trazado 1030892" d="M36,46h4.317v4.317H36Z" transform="translate(-36 -46)" fill="#8bd2f5"/>
    </g>
    <g id="Grupo_1198754" data-name="Grupo 1198754" transform="translate(14.793 49.567)">
      <path id="Trazado_1030893" data-name="Trazado 1030893" d="M14,46h4.317v4.317H14Z" transform="translate(-14 -46)" fill="#8bd2f5"/>
    </g>
    <g id="Grupo_1198755" data-name="Grupo 1198755" transform="translate(54.726 39.854)">
      <path id="Trazado_1030894" data-name="Trazado 1030894" d="M51,37h4.317v5.4H51Z" transform="translate(-51 -37)" fill="#c1c8d1"/>
    </g>
    <g id="Grupo_1198756" data-name="Grupo 1198756" transform="translate(50.409 26.903)">
      <path id="Trazado_1030895" data-name="Trazado 1030895" d="M59.951,26.079v9.713a2.158,2.158,0,0,1-2.159,2.159H49.159A2.158,2.158,0,0,1,47,35.793V26.079A1.08,1.08,0,0,1,48.079,25h1.079a1.08,1.08,0,0,1,1.079,1.079v7.555h6.476V26.079A1.08,1.08,0,0,1,57.793,25h1.079A1.08,1.08,0,0,1,59.951,26.079Z" transform="translate(-47 -25)" fill="#8892a0"/>
    </g>
    <g id="Grupo_1198757" data-name="Grupo 1198757" transform="translate(12.634 2.079)">
      <path id="Trazado_1030896" data-name="Trazado 1030896" d="M44.378,12.793V8.476A6.475,6.475,0,0,0,37.9,2H18.476A6.475,6.475,0,0,0,12,8.476v4.317" transform="translate(-12 -2)" fill="#f9d18b"/>
    </g>
    <g id="Grupo_1198758" data-name="Grupo 1198758" transform="translate(7.238 12.872)">
      <path id="Trazado_1030897" data-name="Trazado 1030897" d="M48.012,12H9.159A2.158,2.158,0,0,0,7,14.159v2.159H50.171V14.159A2.158,2.158,0,0,0,48.012,12Z" transform="translate(-7 -12)" fill="#f5b953"/>
    </g>
    <g id="Grupo_1198759" data-name="Grupo 1198759" transform="translate(12.634 17.189)">
      <path id="Trazado_1030898" data-name="Trazado 1030898" d="M14.159,21.4H12V16h6.476v1.079A4.317,4.317,0,0,1,14.159,21.4Z" transform="translate(-12 -16)" fill="#976947"/>
    </g>
    <g id="Grupo_1198760" data-name="Grupo 1198760" transform="translate(38.537 17.189)">
      <path id="Trazado_1030899" data-name="Trazado 1030899" d="M40.317,21.4h2.159V16H36v1.079A4.317,4.317,0,0,0,40.317,21.4Z" transform="translate(-36 -16)" fill="#976947"/>
    </g>
    <g id="Grupo_1198761" data-name="Grupo 1198761" transform="translate(10.476 22.585)">
      <path id="Trazado_1030900" data-name="Trazado 1030900" d="M14.317,21a4.317,4.317,0,1,0,0,8.634" transform="translate(-10 -21)" fill="#db9b7c"/>
    </g>
    <g id="Grupo_1198762" data-name="Grupo 1198762" transform="translate(42.854 22.585)">
      <path id="Trazado_1030901" data-name="Trazado 1030901" d="M40,21a4.317,4.317,0,1,1,0,8.634" transform="translate(-40 -21)" fill="#db9b7c"/>
    </g>
    <g id="Grupo_1198763" data-name="Grupo 1198763" transform="translate(14.793 17.189)">
      <path id="Trazado_1030902" data-name="Trazado 1030902" d="M37.744,16v1.079A4.317,4.317,0,0,0,42.061,21.4v6.476a14.031,14.031,0,0,1-28.061,0V21.4a4.317,4.317,0,0,0,4.317-4.317V16" transform="translate(-14 -16)" fill="#efbe9a"/>
    </g>
    <g id="Grupo_1198764" data-name="Grupo 1198764" transform="translate(30.982 20.427)">
      <ellipse id="Elipse_12160" data-name="Elipse 12160" cx="4.5" cy="4" rx="4.5" ry="4" transform="translate(0.018 0.488)" fill="#ebf7fe"/>
    </g>
    <g id="Grupo_1198765" data-name="Grupo 1198765" transform="translate(18.031 20.427)">
      <ellipse id="Elipse_12161" data-name="Elipse 12161" cx="4.5" cy="4" rx="4.5" ry="4" transform="translate(-0.031 0.488)" fill="#ebf7fe"/>
    </g>
    <g id="Grupo_1198766" data-name="Grupo 1198766" transform="translate(13.713 17.189)">
      <path id="Trazado_1030903" data-name="Trazado 1030903" d="M28.11,42.982A15.126,15.126,0,0,1,13,27.872V21.4a1.079,1.079,0,0,1,1.079-1.079,3.242,3.242,0,0,0,3.238-3.238V16h2.159v1.079a5.4,5.4,0,0,1-4.317,5.287v5.505a12.951,12.951,0,0,0,25.9,0V22.367a5.406,5.406,0,0,1-4.317-5.287V16H38.9v1.079a3.242,3.242,0,0,0,3.238,3.238A1.079,1.079,0,0,1,43.22,21.4v6.476A15.126,15.126,0,0,1,28.11,42.982Z" transform="translate(-13 -16)"/>
    </g>
    <g id="Grupo_1198767" data-name="Grupo 1198767" transform="translate(43.933 17.189)">
      <path id="Trazado_1030904" data-name="Trazado 1030904" d="M41,16h2.159v6.476H41Z" transform="translate(-41 -16)"/>
    </g>
    <g id="Grupo_1198768" data-name="Grupo 1198768" transform="translate(11.555 17.189)">
      <path id="Trazado_1030905" data-name="Trazado 1030905" d="M11,16h2.159v6.476H11Z" transform="translate(-11 -16)"/>
    </g>
    <g id="Grupo_1198769" data-name="Grupo 1198769" transform="translate(9.396 21.506)">
      <path id="Trazado_1030906" data-name="Trazado 1030906" d="M14.4,30.793A5.4,5.4,0,1,1,14.4,20v2.159a3.238,3.238,0,1,0,0,6.476Z" transform="translate(-9 -20)"/>
    </g>
    <g id="Grupo_1198770" data-name="Grupo 1198770" transform="translate(42.854 21.506)">
      <path id="Trazado_1030907" data-name="Trazado 1030907" d="M40,30.793V28.634a3.238,3.238,0,0,0,0-6.476V20a5.4,5.4,0,1,1,0,10.793Z" transform="translate(-40 -20)"/>
    </g>
    <g id="Grupo_1198771" data-name="Grupo 1198771" transform="translate(27.744 26.903)">
      <path id="Trazado_1030908" data-name="Trazado 1030908" d="M26,25h2.159v4.317H26Z" transform="translate(-26 -25)"/>
    </g>
    <g id="Grupo_1198772" data-name="Grupo 1198772" transform="translate(29.903 19.348)">
      <path id="Trazado_1030909" data-name="Trazado 1030909" d="M33.4,28.793a5.4,5.4,0,1,1,5.4-5.4A5.4,5.4,0,0,1,33.4,28.793Zm0-8.634A3.238,3.238,0,1,0,36.634,23.4,3.242,3.242,0,0,0,33.4,20.159Z" transform="translate(-28 -18)"/>
    </g>
    <g id="Grupo_1198773" data-name="Grupo 1198773" transform="translate(16.951 19.348)">
      <path id="Trazado_1030910" data-name="Trazado 1030910" d="M21.4,28.793a5.4,5.4,0,1,1,5.4-5.4A5.4,5.4,0,0,1,21.4,28.793Zm0-8.634A3.238,3.238,0,1,0,24.634,23.4,3.242,3.242,0,0,0,21.4,20.159Z" transform="translate(-16 -18)"/>
    </g>
    <g id="Grupo_1198774" data-name="Grupo 1198774" transform="translate(26.665 23.665)">
      <path id="Trazado_1030911" data-name="Trazado 1030911" d="M25,22h4.317v2.159H25Z" transform="translate(-25 -22)"/>
    </g>
    <g id="Grupo_1198775" data-name="Grupo 1198775" transform="translate(20.189 23.665)">
      <path id="Trazado_1030912" data-name="Trazado 1030912" d="M19,22h4.317v2.159H19Z" transform="translate(-19 -22)"/>
    </g>
    <g id="Grupo_1198776" data-name="Grupo 1198776" transform="translate(33.14 23.665)">
      <path id="Trazado_1030913" data-name="Trazado 1030913" d="M31,22h4.317v2.159H31Z" transform="translate(-31 -22)"/>
    </g>
    <g id="Grupo_1198777" data-name="Grupo 1198777" transform="translate(21.268 32.299)">
      <path id="Trazado_1030914" data-name="Trazado 1030914" d="M27.555,37.555A7.564,7.564,0,0,1,20,30h2.159a5.4,5.4,0,0,0,10.793,0H35.11A7.564,7.564,0,0,1,27.555,37.555Z" transform="translate(-20 -30)"/>
    </g>
    <g id="Grupo_1198778" data-name="Grupo 1198778" transform="translate(6.159 11.793)">
      <path id="Trazado_1030915" data-name="Trazado 1030915" d="M50.25,17.476H7.079A1.079,1.079,0,0,1,6,16.4V14.238A3.242,3.242,0,0,1,9.238,11H48.092a3.242,3.242,0,0,1,3.238,3.238V16.4A1.079,1.079,0,0,1,50.25,17.476ZM8.159,15.317H49.171V14.238a1.08,1.08,0,0,0-1.079-1.079H9.238a1.08,1.08,0,0,0-1.079,1.079Z" transform="translate(-6 -11)"/>
    </g>
    <g id="Grupo_1198779" data-name="Grupo 1198779" transform="translate(11.555 1)">
      <path id="Trazado_1030916" data-name="Trazado 1030916" d="M45.537,12.872H43.378V8.555a5.4,5.4,0,0,0-5.4-5.4H18.555a5.4,5.4,0,0,0-5.4,5.4v4.317H11V8.555A7.564,7.564,0,0,1,18.555,1H37.982a7.564,7.564,0,0,1,7.555,7.555Z" transform="translate(-11 -1)"/>
    </g>
    <g id="Grupo_1198780" data-name="Grupo 1198780" transform="translate(18.167 41.488)">
      <path id="Trazado_1030917" data-name="Trazado 1030917" d="M32.1,49.831a1.076,1.076,0,0,1-.763-.316l-3.554-3.554-3.554,3.554a1.08,1.08,0,0,1-1.706-.239l-5.4-9.713,1.887-1.049,4.7,8.463,3.3-3.3a1.078,1.078,0,0,1,1.526,0l3.3,3.3,4.7-8.463,1.887,1.049-5.4,9.713a1.078,1.078,0,0,1-.793.544A.954.954,0,0,1,32.1,49.831Z" transform="translate(-17.126 -38.514)"/>
    </g>
    <g id="Grupo_1198781" data-name="Grupo 1198781" transform="translate(22.664 41.249)">
      <path id="Trazado_1030918" data-name="Trazado 1030918" d="M27.452,45.532a1.076,1.076,0,0,1-.763-.316l-5.4-5.4,1.526-1.526,4.633,4.633,4.633-4.633,1.526,1.526-5.4,5.4A1.076,1.076,0,0,1,27.452,45.532Z" transform="translate(-21.293 -38.293)"/>
    </g>
    <g id="Grupo_1198782" data-name="Grupo 1198782" transform="translate(18.031 42.012)">
      <path id="Trazado_1030919" data-name="Trazado 1030919" d="M37.506,56.268H18.079A1.079,1.079,0,0,1,17,55.189V39h2.159V54.11H36.427V39h2.159V55.189A1.079,1.079,0,0,1,37.506,56.268Z" transform="translate(-17 -39)"/>
    </g>
    <g id="Grupo_1198783" data-name="Grupo 1198783" transform="translate(38.537 52.805)">
      <path id="Trazado_1030920" data-name="Trazado 1030920" d="M36,49h4.317v2.159H36Z" transform="translate(-36 -49)"/>
    </g>
    <g id="Grupo_1198784" data-name="Grupo 1198784" transform="translate(38.537 48.488)">
      <path id="Trazado_1030921" data-name="Trazado 1030921" d="M36,45h4.317v2.159H36Z" transform="translate(-36 -45)"/>
    </g>
    <g id="Grupo_1198785" data-name="Grupo 1198785" transform="translate(14.793 52.805)">
      <path id="Trazado_1030922" data-name="Trazado 1030922" d="M14,49h4.317v2.159H14Z" transform="translate(-14 -49)"/>
    </g>
    <g id="Grupo_1198786" data-name="Grupo 1198786" transform="translate(14.793 48.488)">
      <path id="Trazado_1030923" data-name="Trazado 1030923" d="M14,45h4.317v2.159H14Z" transform="translate(-14 -45)"/>
    </g>
    <g id="Grupo_1198787" data-name="Grupo 1198787" transform="translate(6.159 39.902)">
      <path id="Trazado_1030924" data-name="Trazado 1030924" d="M8.159,57.5H6V47.176a7.513,7.513,0,0,1,5.333-7.22l9.46-2.911.635,2.062-9.46,2.911a5.368,5.368,0,0,0-3.809,5.158Z" transform="translate(-6 -37.045)"/>
    </g>
    <g id="Grupo_1198788" data-name="Grupo 1198788" transform="translate(13.713 43.092)">
      <path id="Trazado_1030925" data-name="Trazado 1030925" d="M42.14,64.823H14.079A1.079,1.079,0,0,1,13,63.744V40h2.159V62.665h25.9V40H43.22V63.744A1.079,1.079,0,0,1,42.14,64.823Z" transform="translate(-13 -40)"/>
    </g>
    <g id="Grupo_1198789" data-name="Grupo 1198789" transform="translate(4 59.281)">
      <path id="Trazado_1030926" data-name="Trazado 1030926" d="M14.793,61.476H5.079A1.079,1.079,0,0,1,4,60.4V56.079A1.079,1.079,0,0,1,5.079,55h9.713v2.159H6.159v2.159h8.634Z" transform="translate(-4 -55)"/>
    </g>
    <g id="Grupo_1198790" data-name="Grupo 1198790" transform="translate(42.854 63.598)">
      <path id="Trazado_1030927" data-name="Trazado 1030927" d="M40,59h7.555v2.159H40Z" transform="translate(-40 -59)"/>
    </g>
    <g id="Grupo_1198791" data-name="Grupo 1198791" transform="translate(42.854 59.281)">
      <path id="Trazado_1030928" data-name="Trazado 1030928" d="M40,55h7.555v2.159H40Z" transform="translate(-40 -55)"/>
    </g>
    <g id="Grupo_1198792" data-name="Grupo 1198792" transform="translate(18.031 61.439)">
      <path id="Trazado_1030929" data-name="Trazado 1030929" d="M17,57H38.585v2.159H17Z" transform="translate(-17 -57)"/>
    </g>
    <g id="Grupo_1198793" data-name="Grupo 1198793" transform="translate(6.159 64.677)">
      <path id="Trazado_1030930" data-name="Trazado 1030930" d="M6,60H8.159v3.238H6Z" transform="translate(-6 -60)"/>
    </g>
    <g id="Grupo_1198794" data-name="Grupo 1198794" transform="translate(36.061 39.902)">
      <path id="Trazado_1030931" data-name="Trazado 1030931" d="M49.133,65.058H46.975V47.176a5.368,5.368,0,0,0-3.809-5.158l-9.46-2.911.635-2.062,9.46,2.911a7.513,7.513,0,0,1,5.333,7.22Z" transform="translate(-33.706 -37.045)"/>
    </g>
    <g id="Grupo_1198795" data-name="Grupo 1198795" transform="translate(52.567 52.805)">
      <path id="Trazado_1030932" data-name="Trazado 1030932" d="M57.634,64.11H51.159A2.161,2.161,0,0,1,49,61.951V60.872a2.161,2.161,0,0,1,2.159-2.159h1.079v2.159H51.159v1.079h6.476a1.08,1.08,0,0,0,1.079-1.079V52.238a1.08,1.08,0,0,0-1.079-1.079H51.159v1.079h4.317V54.4H51.159A2.161,2.161,0,0,1,49,52.238V51.159A2.161,2.161,0,0,1,51.159,49h6.476a3.242,3.242,0,0,1,3.238,3.238v8.634A3.242,3.242,0,0,1,57.634,64.11Z" transform="translate(-49 -49)"/>
    </g>
    <g id="Grupo_1198796" data-name="Grupo 1198796" transform="translate(52.567 56.043)">
      <path id="Trazado_1030933" data-name="Trazado 1030933" d="M55.476,57.4H51.159A2.161,2.161,0,0,1,49,55.238V54.159A2.161,2.161,0,0,1,51.159,52h1.079v2.159H51.159v1.079h4.317Z" transform="translate(-49 -52)"/>
    </g>
    <g id="Grupo_1198797" data-name="Grupo 1198797" transform="translate(52.567 59.281)">
      <path id="Trazado_1030934" data-name="Trazado 1030934" d="M55.476,60.4H51.159A2.161,2.161,0,0,1,49,58.238V57.159A2.161,2.161,0,0,1,51.159,55h1.079v2.159H51.159v1.079h4.317Z" transform="translate(-49 -55)"/>
    </g>
    <g id="Grupo_1198798" data-name="Grupo 1198798" transform="translate(49.33 48.488)">
      <path id="Trazado_1030935" data-name="Trazado 1030935" d="M50.317,63.348H49.238A3.242,3.242,0,0,1,46,60.11V46.079A1.079,1.079,0,0,1,47.079,45h2.159a3.242,3.242,0,0,1,3.238,3.238V50.4H50.317V48.238a1.08,1.08,0,0,0-1.079-1.079H48.159V60.11a1.08,1.08,0,0,0,1.079,1.079h1.079Z" transform="translate(-46 -45)"/>
    </g>
    <g id="Grupo_1198799" data-name="Grupo 1198799" transform="translate(52.567 44.171)">
      <path id="Trazado_1030936" data-name="Trazado 1030936" d="M57.634,50.713H55.476V43.159H51.159V46.4H49V42.079A1.079,1.079,0,0,1,50.079,41h6.476a1.079,1.079,0,0,1,1.079,1.079Z" transform="translate(-49 -41)"/>
    </g>
    <g id="Grupo_1198800" data-name="Grupo 1198800" transform="translate(53.647 39.854)">
      <path id="Trazado_1030937" data-name="Trazado 1030937" d="M50,37h2.159v5.4H50Z" transform="translate(-50 -37)"/>
    </g>
    <g id="Grupo_1198801" data-name="Grupo 1198801" transform="translate(57.964 39.854)">
      <path id="Trazado_1030938" data-name="Trazado 1030938" d="M54,37h2.159v5.4H54Z" transform="translate(-54 -37)"/>
    </g>
    <g id="Grupo_1198802" data-name="Grupo 1198802" transform="translate(49.33 25.823)">
      <path id="Trazado_1030939" data-name="Trazado 1030939" d="M57.872,39.11H49.238A3.242,3.242,0,0,1,46,35.872V26.159A2.161,2.161,0,0,1,48.159,24h1.079A2.161,2.161,0,0,1,51.4,26.159v6.476h4.317V26.159A2.161,2.161,0,0,1,57.872,24h1.079a2.161,2.161,0,0,1,2.159,2.159v9.713A3.242,3.242,0,0,1,57.872,39.11ZM48.159,26.159v9.713a1.08,1.08,0,0,0,1.079,1.079h8.634a1.08,1.08,0,0,0,1.079-1.079V26.157H57.872v7.555a1.079,1.079,0,0,1-1.079,1.079H50.317a1.079,1.079,0,0,1-1.079-1.079V26.159Z" transform="translate(-46 -24)"/>
    </g>
    <g id="Grupo_1198803" data-name="Grupo 1198803" transform="translate(55.805 26.903)">
      <path id="Trazado_1030940" data-name="Trazado 1030940" d="M52,25h2.159v8.634H52Z" transform="translate(-52 -25)"/>
    </g>
  </g>
</svg>
