<svg xmlns="http://www.w3.org/2000/svg" width="79" height="79" viewBox="0 0 79 79">
  <g id="Grupo_1118203" data-name="Grupo 1118203" transform="translate(-458.051 -1087)">
    <rect id="Rectángulo_404833" data-name="Rectángulo 404833" width="79" height="79" transform="translate(458.051 1087)" fill="none"/>
    <g id="Grupo_1118204" data-name="Grupo 1118204" transform="translate(453.551 1083.843)">
      <g id="Grupo_1118204-2" data-name="Grupo 1118204" transform="translate(11.765 4.423)">
        <path id="Trazado_909998" data-name="Trazado 909998" d="M48,10H80.043a1.687,1.687,0,0,1,1.686,1.686V75.773a1.687,1.687,0,0,1-1.686,1.687H48Z" transform="translate(-17.643 -5.496)" fill="#daedf7"/>
        <path id="Trazado_909999" data-name="Trazado 909999" d="M48.635,81.059,13.218,70.821A1.687,1.687,0,0,1,12,69.2V16.585a1.686,1.686,0,0,1,1.218-1.62L48.635,4.726a1.686,1.686,0,0,1,2.155,1.62V79.439a1.686,1.686,0,0,1-2.155,1.62Z" transform="translate(-12 -4.659)" fill="#8ad64d"/>
      </g>
      <path id="Trazado_910000" data-name="Trazado 910000" d="M74.165,7.663H51.819V6.111a2.951,2.951,0,0,0-3.771-2.835L12.632,13.514A2.965,2.965,0,0,0,10.5,16.35V68.965A2.965,2.965,0,0,0,12.632,71.8L48.048,82.039a2.971,2.971,0,0,0,.828.118A2.956,2.956,0,0,0,51.819,79.2V77.652H74.165A2.955,2.955,0,0,0,77.117,74.7V10.614a2.955,2.955,0,0,0-2.951-2.951ZM49.289,79.2a.422.422,0,0,1-.539.405L13.334,69.371a.424.424,0,0,1-.3-.405V16.35a.424.424,0,0,1,.3-.405L48.75,5.706a.422.422,0,0,1,.539.405V79.2Zm25.3-4.5a.427.427,0,0,1-.422.422H51.819v-5.9H66.576a1.265,1.265,0,0,0,0-2.53H51.819V59.1H66.576a1.265,1.265,0,0,0,0-2.53H51.819V48.982H66.576a1.265,1.265,0,0,0,0-2.53H51.819V38.863H66.576a1.265,1.265,0,0,0,0-2.53H51.819V28.744H66.576a1.265,1.265,0,0,0,0-2.53H51.819V18.625H66.576a1.265,1.265,0,0,0,0-2.53H51.819v-5.9H74.165a.427.427,0,0,1,.422.422ZM37.6,47.279a1.265,1.265,0,1,1-1.784,1.793L31.222,44.5l-4.294,4.891a1.265,1.265,0,1,1-1.9-1.669l4.4-5.01-4.7-4.68a1.265,1.265,0,1,1,1.784-1.793l4.59,4.568,4.294-4.891a1.265,1.265,0,1,1,1.9,1.669l-4.4,5.01,4.7,4.68Z" transform="translate(0 0)" fill="#365566"/>
    </g>
  </g>
</svg>
