<svg xmlns="http://www.w3.org/2000/svg" xmlns:xlink="http://www.w3.org/1999/xlink" width="118" height="118" viewBox="0 0 118 118">
  <defs>
    <filter id="Trazado_874925" x="0" y="0" width="118" height="118" filterUnits="userSpaceOnUse">
      <feOffset dy="3" input="SourceAlpha"/>
      <feGaussianBlur stdDeviation="3" result="blur"/>
      <feFlood flood-opacity="0.161"/>
      <feComposite operator="in" in2="blur"/>
      <feComposite in="SourceGraphic"/>
    </filter>
  </defs>
  <g id="Grupo_1123433" data-name="Grupo 1123433" transform="translate(-5125 10231.72)">
    <g id="Grupo_1111553" data-name="Grupo 1111553" transform="translate(4325.5 -12742.877)">
      <g id="Grupo_1111316" data-name="Grupo 1111316" transform="translate(808.5 2517.157)">
        <g id="Grupo_1109835" data-name="Grupo 1109835" transform="translate(0 0)">
          <g id="Grupo_1107913" data-name="Grupo 1107913" transform="translate(0 0)">
            <g transform="matrix(1, 0, 0, 1, -9, -6)" filter="url(#Trazado_874925)">
              <g id="Trazado_874925-2" data-name="Trazado 874925" transform="translate(9 6)" fill="#bb965f" opacity="0.859">
                <path d="M 49.99972534179688 98.4998779296875 C 43.45164108276367 98.4998779296875 37.10022354125977 97.21776580810547 31.12189674377441 94.68914794921875 C 25.34676742553711 92.24647521972656 20.15985298156738 88.74925994873047 15.70523929595947 84.29464721679688 C 11.25062561035156 79.84004974365234 7.753411293029785 74.65313720703125 5.310725212097168 68.87800598144531 C 2.782111167907715 62.89969253540039 1.499996781349182 56.54829406738281 1.499996781349182 50.00022125244141 C 1.499996781349182 43.45157623291016 2.782111167907715 37.10017776489258 5.310725212097168 31.12186431884766 C 7.753411293029785 25.34673500061035 11.25062561035156 20.15983581542969 15.70523929595947 15.70522117614746 C 20.15985298156738 11.25062084197998 25.34676742553711 7.753406524658203 31.12189674377441 5.31073522567749 C 37.10022354125977 2.782120943069458 43.45164108276367 1.500006556510925 49.99972534179688 1.500006556510925 C 56.54780960083008 1.500006556510925 62.89922714233398 2.782120943069458 68.87755584716797 5.31073522567749 C 74.65267944335938 7.753406524658203 79.839599609375 11.25062084197998 84.29421234130859 15.70522117614746 C 88.74882507324219 20.15983581542969 92.24604034423828 25.34673500061035 94.68872833251953 31.12186431884766 C 97.21733856201172 37.10017776489258 98.49945068359375 43.45157623291016 98.49945068359375 49.99964904785156 C 98.49945068359375 56.54829406738281 97.21733856201172 62.89969253540039 94.68872833251953 68.87800598144531 C 92.24604034423828 74.65313720703125 88.74882507324219 79.84004974365234 84.29421234130859 84.29464721679688 C 79.839599609375 88.74925994873047 74.65267944335938 92.24647521972656 68.87755584716797 94.68914794921875 C 62.89922714233398 97.21776580810547 56.54780960083008 98.4998779296875 49.99972534179688 98.4998779296875 Z" stroke="none"/>
                <path d="M 49.99972534179688 3 C 43.65348052978516 3 37.49866485595703 4.242240905761719 31.70623016357422 6.692230224609375 C 26.10989379882812 9.059272766113281 21.08323669433594 12.44853210449219 16.76589202880859 16.76587677001953 C 12.44855499267578 21.08321380615234 9.059295654296875 26.10985565185547 6.692230224609375 31.70618438720703 C 4.24224853515625 37.49859619140625 3 43.65341186523438 3 50.00022888183594 C 3 56.34645843505859 4.24224853515625 62.50127410888672 6.692230224609375 68.29368591308594 C 9.059295654296875 73.8900146484375 12.44855499267578 78.91665649414062 16.76589202880859 83.23399353027344 C 21.08323669433594 87.55132293701172 26.10989379882812 90.94059753417969 31.70623016357422 93.30764007568359 C 37.49866485595703 95.75762939453125 43.65348052978516 96.99987030029297 49.99972534179688 96.99987030029297 C 56.34597015380859 96.99987030029297 62.50078582763672 95.75762939453125 68.293212890625 93.30764007568359 C 73.88955688476562 90.94059753417969 78.91621398925781 87.55132293701172 83.23355865478516 83.23399353027344 C 87.55089569091797 78.91665649414062 90.94015502929688 73.8900146484375 93.30722045898438 68.29368591308594 C 95.7572021484375 62.50127410888672 96.99945068359375 56.34645843505859 96.99945068359375 49.99964141845703 C 96.99945068359375 43.65341186523438 95.7572021484375 37.49859619140625 93.30722045898438 31.70618438720703 C 90.94015502929688 26.10985565185547 87.55089569091797 21.08321380615234 83.23355865478516 16.76587677001953 C 78.91621398925781 12.44853210449219 73.88955688476562 9.059272766113281 68.293212890625 6.692230224609375 C 62.50078582763672 4.242240905761719 56.34597015380859 3 49.99972534179688 3 M 49.99972534179688 0 C 77.61381530761719 0 99.99945068359375 22.38559722900391 99.99945068359375 49.99964141845703 L 99.99945068359375 50.00022888183594 C 99.99945068359375 77.6142578125 77.61381530761719 99.99987030029297 49.99972534179688 99.99987030029297 C 22.38563537597656 99.99987030029297 0 77.6142578125 0 50.00022888183594 L 0 49.99964141845703 C 0 22.38559722900391 22.38563537597656 0 49.99972534179688 0 Z" stroke="none" fill="#fff"/>
              </g>
            </g>
            <g id="Trazado_874923" data-name="Trazado 874923" transform="translate(0 0)" fill="none">
              <path d="M50,0a50,50,0,0,1,50,50h0A50,50,0,0,1,0,50H0A50,50,0,0,1,50,0Z" stroke="none"/>
              <path d="M 49.99972534179688 3 C 43.65348052978516 3 37.49866485595703 4.242240905761719 31.70623016357422 6.692230224609375 C 26.10989379882812 9.059272766113281 21.08323669433594 12.44853210449219 16.76589202880859 16.76587677001953 C 12.44855499267578 21.08321380615234 9.059295654296875 26.10985565185547 6.692230224609375 31.70618438720703 C 4.24224853515625 37.49859619140625 3 43.65341186523438 3 50.00022888183594 C 3 56.34645843505859 4.24224853515625 62.50127410888672 6.692230224609375 68.29368591308594 C 9.059295654296875 73.8900146484375 12.44855499267578 78.91665649414062 16.76589202880859 83.23399353027344 C 21.08323669433594 87.55132293701172 26.10989379882812 90.94059753417969 31.70623016357422 93.30764007568359 C 37.49866485595703 95.75762939453125 43.65348052978516 96.99987030029297 49.99972534179688 96.99987030029297 C 56.34597015380859 96.99987030029297 62.50078582763672 95.75762939453125 68.293212890625 93.30764007568359 C 73.88955688476562 90.94059753417969 78.91621398925781 87.55132293701172 83.23355865478516 83.23399353027344 C 87.55089569091797 78.91665649414062 90.94015502929688 73.8900146484375 93.30722045898438 68.29368591308594 C 95.7572021484375 62.50127410888672 96.99945068359375 56.34645843505859 96.99945068359375 49.99964141845703 C 96.99945068359375 43.65341186523438 95.7572021484375 37.49859619140625 93.30722045898438 31.70618438720703 C 90.94015502929688 26.10985565185547 87.55089569091797 21.08321380615234 83.23355865478516 16.76587677001953 C 78.91621398925781 12.44853210449219 73.88955688476562 9.059272766113281 68.293212890625 6.692230224609375 C 62.50078582763672 4.242240905761719 56.34597015380859 3 49.99972534179688 3 M 49.99972534179688 0 C 77.61381530761719 0 99.99945068359375 22.38559722900391 99.99945068359375 49.99964141845703 L 99.99945068359375 50.00022888183594 C 99.99945068359375 77.6142578125 77.61381530761719 99.99987030029297 49.99972534179688 99.99987030029297 C 22.38563537597656 99.99987030029297 0 77.6142578125 0 50.00022888183594 L 0 49.99964141845703 C 0 22.38559722900391 22.38563537597656 0 49.99972534179688 0 Z" stroke="none" fill="#fff"/>
            </g>
          </g>
        </g>
      </g>
    </g>
    <g id="Layer_9" data-name="Layer 9" transform="translate(5151 -10205)">
      <path id="Trazado_920126" data-name="Trazado 920126" d="M22,2H62V62H22Z" fill="#e2e7f6"/>
      <path id="Trazado_920127" data-name="Trazado 920127" d="M22,2H58V58H22Z" fill="#f2f2f2"/>
      <path id="Trazado_920128" data-name="Trazado 920128" d="M32,46h6V58H32Z" fill="#5e87ca"/>
      <path id="Trazado_920129" data-name="Trazado 920129" d="M35,54V46H32v9h2A1,1,0,0,0,35,54Z" fill="#78a0d4"/>
      <path id="Trazado_920130" data-name="Trazado 920130" d="M52,34h6V58H52Z" fill="#3b5892"/>
      <path id="Trazado_920131" data-name="Trazado 920131" d="M55,54V34H52V55h2A1,1,0,0,0,55,54Z" fill="#4c6cb5"/>
      <path id="Trazado_920132" data-name="Trazado 920132" d="M42,42h6V58H42Z" fill="#4c6cb5"/>
      <path id="Trazado_920133" data-name="Trazado 920133" d="M45,54V42H42V55h2A1,1,0,0,0,45,54Z" fill="#5e87ca"/>
      <path id="Trazado_920134" data-name="Trazado 920134" d="M23,26l5.172-5.172A9.656,9.656,0,0,0,31,14H5a9.656,9.656,0,0,0,2.828,6.828L13,26Z" fill="#f6b940"/>
      <path id="Trazado_920135" data-name="Trazado 920135" d="M23,26H13L8.188,30.812A21.128,21.128,0,0,0,6.45,58.721,8.494,8.494,0,0,0,13.153,62h9.694a8.494,8.494,0,0,0,6.7-3.278,21.123,21.123,0,0,0-1.735-27.91Z" fill="#f4a93c"/>
      <circle id="Elipse_11987" data-name="Elipse 11987" cx="11" cy="11" r="11" transform="translate(7 35)" fill="#f9d266"/>
      <path id="Trazado_920136" data-name="Trazado 920136" d="M27,45a10.982,10.982,0,0,0-5.107-9.277,10.989,10.989,0,0,0-9.785,19.555A10.977,10.977,0,0,0,27,45Z" fill="#fce797"/>
      <path id="Trazado_920137" data-name="Trazado 920137" d="M22,44V43a3,3,0,0,0-3-3V38H17v2a3,3,0,0,0-3,3v1a3,3,0,0,0,3,3v3a1,1,0,0,1-1-1V48H14v1a3,3,0,0,0,3,3v2h2V52a3,3,0,0,0,3-3V48a3,3,0,0,0-3-3V42a1,1,0,0,1,1,1v1Zm-2,4v1a1,1,0,0,1-1,1V47A1,1,0,0,1,20,48Zm-3-3a1,1,0,0,1-1-1V43a1,1,0,0,1,1-1Z" fill="#f4a93c"/>
      <path id="Trazado_920138" data-name="Trazado 920138" d="M32,29,42,19l4,4,6-6-2-2h8v8l-2-2-9,9-4-4-7,7Z" fill="#6bc13b"/>
      <g id="Grupo_1123432" data-name="Grupo 1123432">
        <path id="Trazado_920139" data-name="Trazado 920139" d="M25,5H37V7H25Z" fill="#c8cded"/>
        <path id="Trazado_920140" data-name="Trazado 920140" d="M39,5h2V7H39Z" fill="#c8cded"/>
        <path id="Trazado_920141" data-name="Trazado 920141" d="M25,9H37v2H25Z" fill="#c8cded"/>
        <path id="Trazado_920142" data-name="Trazado 920142" d="M39,9h2v2H39Z" fill="#c8cded"/>
      </g>
      <path id="Trazado_920143" data-name="Trazado 920143" d="M16.684,25.13A16.007,16.007,0,0,1,15,18H13a18.037,18.037,0,0,0,1.883,8h2.235Z" fill="#f9d266"/>
      <path id="Trazado_920144" data-name="Trazado 920144" d="M18.882,26h2.235A18.037,18.037,0,0,0,23,18H21a16.007,16.007,0,0,1-1.684,7.13Z" fill="#f9d266"/>
      <path id="Trazado_920145" data-name="Trazado 920145" d="M30,46A12,12,0,1,0,18,58,12,12,0,0,0,30,46ZM18,56A10,10,0,1,1,28,46,10,10,0,0,1,18,56Z"/>
      <path id="Trazado_920146" data-name="Trazado 920146" d="M19,40V38H17v2a3,3,0,0,0-3,3v1a3,3,0,0,0,3,3v3a1,1,0,0,1-1-1V48H14v1a3,3,0,0,0,3,3v2h2V52a3,3,0,0,0,3-3V48a3,3,0,0,0-3-3V42a1,1,0,0,1,1,1v1h2V43A3,3,0,0,0,19,40Zm1,8v1a1,1,0,0,1-1,1V47A1,1,0,0,1,20,48Zm-3-3a1,1,0,0,1-1-1V43a1,1,0,0,1,1-1Z"/>
      <path id="Trazado_920147" data-name="Trazado 920147" d="M62,1H22a1,1,0,0,0-1,1V13H5a1,1,0,0,0-1,1,10.583,10.583,0,0,0,3.122,7.536L11.586,26,7.481,30.1A21.983,21.983,0,0,0,1,45.751,22.23,22.23,0,0,0,5.661,59.335,9.427,9.427,0,0,0,13.153,63H62a1,1,0,0,0,1-1V2A1,1,0,0,0,62,1ZM8.536,20.122A8.593,8.593,0,0,1,6.057,15H29.943a8.593,8.593,0,0,1-2.479,5.122L22.586,25H21.575A18.047,18.047,0,0,0,23,18H21a16.028,16.028,0,0,1-1.627,7H16.628A16.009,16.009,0,0,1,15,18H13a18.047,18.047,0,0,0,1.425,7H13.414ZM22,61H13.153A7.442,7.442,0,0,1,7.24,58.108,20.224,20.224,0,0,1,3,45.751,20,20,0,0,1,8.9,31.519L13.414,27h9.172L27.1,31.519A20,20,0,0,1,33,45.751a20.224,20.224,0,0,1-4.24,12.357A7.442,7.442,0,0,1,22.847,61ZM34.948,47H37V57H33V54.906A22.251,22.251,0,0,0,34.948,47ZM61,61H28.668a9.538,9.538,0,0,0,1.671-1.665c.257-.329.489-.674.725-1.017A.991.991,0,0,0,32,59h6a1,1,0,0,0,1-1V46a1,1,0,0,0-1-1H34.963a21.953,21.953,0,0,0-6.444-14.895L24.414,26l4.464-4.464A10.583,10.583,0,0,0,32,14a1,1,0,0,0-1-1H23V3H61Z"/>
      <path id="Trazado_920148" data-name="Trazado 920148" d="M58,33H52a1,1,0,0,0-1,1V58a1,1,0,0,0,1,1h6a1,1,0,0,0,1-1V34A1,1,0,0,0,58,33ZM57,57H53V35h4Z"/>
      <path id="Trazado_920149" data-name="Trazado 920149" d="M48,41H42a1,1,0,0,0-1,1V58a1,1,0,0,0,1,1h6a1,1,0,0,0,1-1V42A1,1,0,0,0,48,41ZM47,57H43V43h4Z"/>
      <path id="Trazado_920150" data-name="Trazado 920150" d="M31.293,29.707l4,4a1,1,0,0,0,1.414,0L43,27.414l3.293,3.293a1,1,0,0,0,1.414,0L56,22.414l1.293,1.293A1,1,0,0,0,59,23V15a1,1,0,0,0-1-1H50a1,1,0,0,0-.707,1.707L50.586,17,46,21.586l-3.293-3.293a1,1,0,0,0-1.414,0l-10,10a1,1,0,0,0,0,1.414ZM42,20.414l3.293,3.293a1,1,0,0,0,1.414,0l6-6a1,1,0,0,0,0-1.414L52.414,16H57v4.586l-.293-.293a1,1,0,0,0-1.414,0L47,28.586l-3.293-3.293a1,1,0,0,0-1.414,0L36,31.586,33.414,29Z"/>
      <path id="Trazado_920151" data-name="Trazado 920151" d="M25,5H37V7H25Z"/>
      <path id="Trazado_920152" data-name="Trazado 920152" d="M39,5h2V7H39Z"/>
      <path id="Trazado_920153" data-name="Trazado 920153" d="M25,9H37v2H25Z"/>
      <path id="Trazado_920154" data-name="Trazado 920154" d="M39,9h2v2H39Z"/>
    </g>
  </g>
</svg>
