<svg xmlns="http://www.w3.org/2000/svg" width="71" height="71" viewBox="0 0 71 71">
  <g id="Grupo_1123695" data-name="Grupo 1123695" transform="translate(-202.075 -16904)">
    <circle id="Elipse_11680" data-name="Elipse 11680" cx="35.5" cy="35.5" r="35.5" transform="translate(202.075 16904)" fill="#4c6929"/>
    <g id="Grupo_1123694" data-name="Grupo 1123694" transform="translate(187.334 16908.027)">
      <g id="Grupo_1123692" data-name="Grupo 1123692" transform="translate(21.693 0.952)">
        <path id="Trazado_921109" data-name="Trazado 921109" d="M57.142,396.02c-17.17,0-28.9,3.571-28.9,8.214,0,2.551,2.01,5.552,2.01,5.552h6.274l20.674-2.17,20.563,2.17h6.274s2.01-3,2.01-5.552C86.045,399.591,74.313,396.02,57.142,396.02Z" transform="translate(-28.24 -346.717)" fill="#3b68b0"/>
        <path id="Trazado_921110" data-name="Trazado 921110" d="M370.12,446.674h3.441a28.941,28.941,0,0,0,.035-6.643l-6.564-1.762Z" transform="translate(-324.04 -383.605)" fill="#d97b7b"/>
        <path id="Trazado_921111" data-name="Trazado 921111" d="M335.2,415.96l5.179,11.236h1.949l-1.819-7.135c1.99.133,3.751.293,5.295.493a20.642,20.642,0,0,0-.471-2.67Z" transform="translate(-296.247 -364.127)" fill="#d16161"/>
        <path id="Trazado_921112" data-name="Trazado 921112" d="M109.487,427.2h-3.156c-.65-1.52-.841-5.583-.589-7.794l8.924-3.441Z" transform="translate(-95.814 -364.127)" fill="#d97b7b"/>
        <path id="Trazado_921113" data-name="Trazado 921113" d="M94.4,427.2H92.17a28.326,28.326,0,0,1,.436-9.313l10.132-1.923-3.393,3.926c-1.265.084-3.212.25-4.859.411A30.923,30.923,0,0,0,94.4,427.2Z" transform="translate(-83.886 -364.127)" fill="#d16161"/>
        <path id="Trazado_921114" data-name="Trazado 921114" d="M169.483,449.734l-11.166.9-1.473,6.046h27.812L183.269,451Z" transform="translate(-140.525 -393.615)" fill="#8c818f"/>
        <path id="Trazado_921115" data-name="Trazado 921115" d="M137.375,457.221l-1.388,5.681H139.9l1.473-6.046Z" transform="translate(-122.314 -399.833)" fill="#655e67"/>
        <path id="Trazado_921116" data-name="Trazado 921116" d="M195.242,437.762,171,436.38l.856,2.964h23.772Z" transform="translate(-152.884 -381.956)" fill="#e7afaf"/>
        <path id="Trazado_921117" data-name="Trazado 921117" d="M160.766,421.213c3.845,0,8.767-.032,13.455.159l-.919-3.764H148.23l-1.306,5.346h3.912a2.255,2.255,0,0,1,2.165-1.72C155.787,421.2,158.469,421.213,160.766,421.213Z" transform="translate(-131.863 -365.566)" fill="#d97b7b"/>
        <path id="Trazado_921118" data-name="Trazado 921118" d="M93.393,272.534c5.951-.539,14.541-.86,19.826-.86,1.675,0,25.4-.225,28.075,1.986-2.447-6.461-10.023-17.791-18.673-23.256H108.068c-7.406,7.463-13.833,14.674-15.554,19.736-.2.584.265,2.449.88,2.394Z" transform="translate(-84.317 -219.58)" fill="#80b6fc"/>
        <g id="Grupo_1123691" data-name="Grupo 1123691" transform="translate(0 28.82)">
          <path id="Trazado_921119" data-name="Trazado 921119" d="M65.737,270.817a.851.851,0,0,1-.836-.771l-.827-8.85-2.3-.018.9,9.612c-1.975-.009-3.855,0-5.529,0-5.285,0-12.606-.06-18.557.479a.851.851,0,0,1-.879-1.125c1.721-5.062,6.879-12.273,14.285-19.736h-4.25c-10.547,6.664-19.5,22.049-19.5,26.693,0-4.643,18.44-4.407,28.9-4.407s28.9-.236,28.9,4.407a10.647,10.647,0,0,0-.828-3.437c-2.676-2.211-11.4-2.727-19.48-2.843Z" transform="translate(-28.24 -248.401)" fill="#5a86cc"/>
          <path id="Trazado_921120" data-name="Trazado 921120" d="M122.555,289.233A47.249,47.249,0,0,0,128,300.118V285.4c-1.409.031-6.181,1.551-5.447,3.833Z" transform="translate(-110.52 -278.955)" fill="#5a86cc"/>
          <path id="Trazado_921121" data-name="Trazado 921121" d="M182.648,234.609,166.42,239a14.767,14.767,0,0,0-.42,3.516c0,6.595,4.261,10.672,9.517,10.672s9.517-4.077,9.517-10.672a13.755,13.755,0,0,0-2.387-7.908Z" transform="translate(-148.518 -234.609)" fill="#5a86cc"/>
        </g>
        <path id="Trazado_921122" data-name="Trazado 921122" d="M145.363,229.212c-3.563-4.919-7.923-7.776-9.456-7.658-1.219.094-2.107,1.1-2.107,4.368,0,4.511,2.447,8.588,5.99,13.977V229.212Z" transform="translate(-120.405 -194.388)" fill="#8c818f"/>
        <path id="Trazado_921123" data-name="Trazado 921123" d="M132.135,189.9c1.041-.08,2.438,1.628,3.437,2.508.445.393,5.426,3.75,5.426,3.75L134.587,183.7c-3.5,1.424-5.787,4.414-5.787,9.175,0,6.228,3.2,12.515,6.624,17.814v-3.837a27.483,27.483,0,0,1-4.721-13.977C130.7,190.648,131.307,189.967,132.135,189.9Z" transform="translate(-116.039 -161.337)" fill="#655e67"/>
        <path id="Trazado_921124" data-name="Trazado 921124" d="M197.648,219.609,181.42,224a14.767,14.767,0,0,0-.42,3.516c0,6.595,4.261,10.672,9.517,10.672s9.517-4.077,9.517-10.672A13.755,13.755,0,0,0,197.648,219.609Z" transform="translate(-161.615 -192.693)" fill="#c8c3ca"/>
        <path id="Trazado_921125" data-name="Trazado 921125" d="M200.534,191.861a8.811,8.811,0,0,0-7.13-4.033c-4.281,0-7.9,3.546-9.1,8.425a10.639,10.639,0,0,0,6.459,2.675C194.3,198.928,198.822,195.973,200.534,191.861Z" transform="translate(-164.501 -164.945)" fill="#a29aa5"/>
        <path id="Trazado_921126" data-name="Trazado 921126" d="M199.365,168.284l-2.138,8.964c-.221,5.36-2.684,8.514-5.693,8.514-2.093,0-3.921-1.527-4.916-4.259l-4.454-2.548c.793,6.511,4.686,10.614,9.37,10.614,5.256,0,9.517-5.169,9.517-13.111A19.763,19.763,0,0,0,199.365,168.284Z" transform="translate(-162.632 -147.881)" fill="#f3f1f4"/>
        <path id="Trazado_921127" data-name="Trazado 921127" d="M184.807,133.762c0-5.839,2.557-10.573,5.71-10.573s5.71,4.734,5.71,10.573c0,.269-.007.531-.018.79a9.61,9.61,0,0,0,2.138-5.853v-3.111c-1.718-3.749-4.584-6.206-7.83-6.206-5.256,0-9.517,6.438-9.517,14.38a20.654,20.654,0,0,0,.148,2.5,12.17,12.17,0,0,0,4.454,2.548A14.815,14.815,0,0,1,184.807,133.762Z" transform="translate(-161.615 -105.184)" fill="#c8c3ca"/>
        <path id="Trazado_921128" data-name="Trazado 921128" d="M147.307,127.032c-2.429-.595-3.807.822-3.807,3.116a3.7,3.7,0,0,0,3.814,3.956h20.925a3.7,3.7,0,0,0,3.814-3.956c0-2.294-1.378-3.71-3.807-3.116Z" transform="translate(-128.874 -111.745)" fill="#e3a76f"/>
        <path id="Trazado_921129" data-name="Trazado 921129" d="M190.184,47.979v6.7c0,5.782,4.294,10.469,8.352,10.469,4.455,0,10.469-4.687,10.469-10.469V42.319l-10.471-4.808C198.442,37.572,190.184,42.235,190.184,47.979Z" transform="translate(-169.633 -33.703)" fill="#f4c497"/>
        <path id="Trazado_921130" data-name="Trazado 921130" d="M176.886,54.669v-9.7c7.083,2.233,17.552,1.207,17.552-3.052L183.964,37.5,173.5,42.31v12.36c0,5.782,6.014,10.469,10.469,10.469C180.955,65.139,176.886,60.451,176.886,54.669Z" transform="translate(-155.067 -33.693)" fill="#e3a76f"/>
        <path id="Trazado_921131" data-name="Trazado 921131" d="M191.453,89.67,193,88.088,190.184,86.4Z" transform="translate(-169.633 -76.383)" fill="#8c818f"/>
        <path id="Trazado_921132" data-name="Trazado 921132" d="M167.689,72.341c-1.9,3.038,0,8.52,0,8.52l3.386-3.462V75.393c.5.158,1.018.3,1.547.424l2.139-2.187Z" transform="translate(-149.256 -64.113)" fill="#655e67"/>
        <path id="Trazado_921133" data-name="Trazado 921133" d="M306.066,72.341c1.9,3.038,0,8.52,0,8.52l-4.714-4.819Z" transform="translate(-266.694 -64.113)" fill="#8c818f"/>
        <path id="Trazado_921134" data-name="Trazado 921134" d="M289.839,72.341l-7.072,1.289,2.358,2.411C287.9,75.408,289.839,74.174,289.839,72.341Z" transform="translate(-250.468 -64.113)" fill="#655e67"/>
        <ellipse id="Elipse_12036" data-name="Elipse 12036" cx="13.959" cy="3.807" rx="13.959" ry="3.807" transform="translate(14.944 1.903)" fill="#faf0b0"/>
        <ellipse id="Elipse_12037" data-name="Elipse 12037" cx="10.469" cy="2.855" rx="10.469" ry="2.855" transform="translate(17.545 1.523)" fill="#f4c497"/>
        <ellipse id="Elipse_12038" data-name="Elipse 12038" cx="10.469" cy="2.855" rx="10.469" ry="2.855" transform="translate(18.433)" fill="#fefae3"/>
      </g>
      <g id="Grupo_1123693" data-name="Grupo 1123693" transform="translate(20.741 0)">
        <path id="Trazado_921135" data-name="Trazado 921135" d="M24.494,63.492a.952.952,0,0,1-1.582,1.058c-.089-.132-2.171-3.274-2.171-6.081,0-4.074,5.724-14.461,13.156-21.936a21.5,21.5,0,0,1-.395-4.047c0-3.855,1.456-6.914,4.152-8.84a4.881,4.881,0,0,1-2.287-4.292,4.306,4.306,0,0,1,1.3-3.341,3.421,3.421,0,0,1,1.875-.829,11.242,11.242,0,0,1,.267-5.456c-1.911-.755-3.124-1.77-3.124-3.065S36.87,4.273,39.21,3.445C39.764.737,46.529,0,50.6,0S61.426.737,61.98,3.445c2.341.829,3.526,1.91,3.526,3.218s-1.212,2.31-3.122,3.064a10.882,10.882,0,0,1,.243,5.454,3.438,3.438,0,0,1,1.841.785,4.326,4.326,0,0,1,1.355,3.389,4.646,4.646,0,0,1-4.1,4.871,10.662,10.662,0,0,1-.867,2.272c.005.024.009.048.013.073a22.664,22.664,0,0,1,.193,2.96q0,.9-.068,1.759a42.244,42.244,0,0,1,7.582,6.583.952.952,0,0,1-1.4,1.294,42.108,42.108,0,0,0-6.275-5.629,16,16,0,0,1,.157,2.239,12.1,12.1,0,0,1-3.044,8.458,9.92,9.92,0,0,1-1.562,1.357l.374,3.771c3.577.071,7.473.217,10.955.5a45.362,45.362,0,0,1,7.95,1.166,61.423,61.423,0,0,0-6.253-9.22A.952.952,0,1,1,70.957,40.6c5.323,6.5,9.493,14.346,9.493,17.867,0,2.808-2.082,5.949-2.171,6.081A.952.952,0,1,1,76.7,63.491c.038-.057,1.849-2.809,1.849-5.022h0c0-.358-.393-1.593-5.412-2.465q-.547-.1-1.147-.181a29.076,29.076,0,0,1,.172,8.316A.952.952,0,1,1,70.27,63.9,26.581,26.581,0,0,0,70,55.58c-1.563-.163-3.341-.289-5.352-.381l2.1,8.6a.938.938,0,1,1-1.828.419L63.69,59.292H48.4a.952.952,0,0,1,0-1.9H63.225l-.553-2.265q-1.289-.041-2.692-.066a.952.952,0,1,1,.034-1.9,92.523,92.523,0,0,1,13.446.974,19.261,19.261,0,0,1,4.3,1.166c-.19-.494-.412-1.021-.664-1.574l-.015-.028c-.078-.13-.995-1.254-9.562-1.941-3.337-.268-7.056-.41-10.494-.48l.268,2.7a.951.951,0,0,1-.243.735.941.941,0,0,1-.709.311c-1.5-.008-5.276,0-5.743,0s-8.428-.008-12.076.108l-.554,2.267H44.6a.952.952,0,1,1,0,1.9H37.5l-1.21,4.955a.952.952,0,1,1-1.849-.452l2.1-8.6c-1.734.079-5,.283-5.353.382a26.573,26.573,0,0,0-.268,8.323.952.952,0,1,1-1.889.236,29.067,29.067,0,0,1,.172-8.316c-6.041.864-6.559,2.215-6.559,2.646h0c0,2.225,1.831,4.995,1.849,5.023Zm-.372-9.815c-.263.573-.493,1.116-.689,1.625q.345-.152.734-.291a31.4,31.4,0,0,1,7.171-1.361C36.92,53.1,50.126,53.11,50.6,53.11s3.575,0,4.7,0l-.186-1.873c-1.628-.023-3.158-.031-4.511-.031-4.623,0-11.311.094-16.921.544C25.362,52.417,24.252,53.495,24.122,53.677Zm10.3-14.95a61.3,61.3,0,0,0-8.959,12.3A45.429,45.429,0,0,1,33.4,49.863c1.93-.157,3.988-.272,6.047-.355a43.354,43.354,0,0,1-5.031-10.78Zm7.61,4.045v6.646c3.122-.09,6.126-.116,8.566-.116,1.3,0,2.765.007,4.322.028l-.272-2.737a10.378,10.378,0,0,1-4.05.805,10.034,10.034,0,0,1-7.425-3.165,10.474,10.474,0,0,1-1.14-1.462ZM39.58,24.679c-2.737,1.515-4.174,4.191-4.174,7.807,0,4.261,1.51,8.907,4.721,14.446V35.776a15.921,15.921,0,0,1,.236-2.738.963.963,0,0,1,.027-.113,21.308,21.308,0,0,1-.263-3.4,22.634,22.634,0,0,1,.2-3.007A10.642,10.642,0,0,1,39.58,24.679ZM42.3,38.433C43.221,42.7,46.376,45.5,50.6,45.5s7.359-2.784,8.286-7.033a11.089,11.089,0,0,1-3.216,3.525.952.952,0,1,1-1.084-1.565c2.868-1.986,4.58-6.058,4.58-10.893q0-.27-.007-.54a13.822,13.822,0,0,1-1.938,1.827c-.353,5.381-2.987,8.97-6.621,8.97s-6.268-3.591-6.621-8.971q-.477-.368-.928-.783A13.919,13.919,0,0,1,42.036,29q-.006.263-.007.526c0,7.046,3.6,12.159,8.566,12.159a6.932,6.932,0,0,0,.927-.062.952.952,0,1,1,.255,1.886,8.86,8.86,0,0,1-1.182.079,9.31,9.31,0,0,1-7.49-3.956A12.665,12.665,0,0,1,42.3,38.433Zm3.731-6.3c.565,3.5,2.3,5.751,4.561,5.751s3.994-2.246,4.56-5.745a9.163,9.163,0,0,1-9.121-.005Zm4.561-.685a9.965,9.965,0,0,0,6.261-2.815,9.226,9.226,0,0,0,3.256-6.7v-3.84l-2.345-2.351c-.616-.616-3.049-.72-3.769,0a.952.952,0,0,1-1.346-1.346,4.44,4.44,0,0,1,2.816-1.051l-1.957-2a51.686,51.686,0,0,1-5.832,0l-1.957,2a4.441,4.441,0,0,1,2.816,1.051.952.952,0,1,1-1.346,1.346c-.72-.721-3.153-.616-3.769,0l-2.345,2.351v3.84a9.226,9.226,0,0,0,3.256,6.7A9.965,9.965,0,0,0,50.6,31.446ZM62.016,17.632v4.3q0,.152-.005.3a2.823,2.823,0,0,0,1.909-2.876,2.5,2.5,0,0,0-.683-1.938,1.639,1.639,0,0,0-1.042-.361c-.073.252-.136.448-.178.577Zm-23.074-.574a1.607,1.607,0,0,0-1.012.379,2.526,2.526,0,0,0-.659,1.917,2.823,2.823,0,0,0,1.908,2.876q0-.151,0-.3V17.853C39.122,17.691,39.038,17.417,38.942,17.058Zm1.678-6.743A10.515,10.515,0,0,0,40.6,15.85l4.612-4.715a31.588,31.588,0,0,1-4.6-.82Zm15.354.82,4.577,4.68a9.931,9.931,0,0,0,.021-5.5A31.578,31.578,0,0,1,55.974,11.135ZM39.832,5.244c-1.846.657-2.244,1.276-2.244,1.418,0,.18.575,1.007,3.387,1.774A38.265,38.265,0,0,0,50.6,9.517a38.264,38.264,0,0,0,9.62-1.081C63.027,7.669,63.6,6.842,63.6,6.662c0-.142-.4-.762-2.245-1.419-1.869,1.835-7.3,2.37-10.762,2.37a35.786,35.786,0,0,1-5.087-.349.952.952,0,1,1,.276-1.883A33.855,33.855,0,0,0,50.6,5.71,29.593,29.593,0,0,0,57.387,5c1.887-.465,2.571-.993,2.709-1.194-.138-.2-.822-.729-2.709-1.194A29.594,29.594,0,0,0,50.6,1.9a29.594,29.594,0,0,0-6.792.709c-1.88.464-2.566.989-2.708,1.192a2.716,2.716,0,0,0,1.174.716.952.952,0,0,1-.713,1.765,5.26,5.26,0,0,1-1.726-1.042ZM50.6,28.393A5.694,5.694,0,0,1,47.6,27.48a.952.952,0,0,1,1.073-1.572,3.453,3.453,0,0,0,3.835,0,.952.952,0,1,1,1.077,1.57A5.7,5.7,0,0,1,50.6,28.393Zm0-5.71a1.17,1.17,0,0,0,.525-.157A.952.952,0,0,1,52.2,24.1a2.861,2.861,0,0,1-3.2,0,.952.952,0,1,1,1.077-1.57,1.167,1.167,0,0,0,.525.157Zm4.528-1.38a.952.952,0,0,1-.952-.952V18.328a.952.952,0,0,1,1.9,0v2.023A.952.952,0,0,1,55.123,21.3Zm-8.883,0a.952.952,0,0,1-.952-.952V18.328a.952.952,0,1,1,1.9,0v2.023A.952.952,0,0,1,46.24,21.3Z" transform="translate(-20.741 0)"/>
      </g>
    </g>
  </g>
</svg>
