<svg xmlns="http://www.w3.org/2000/svg" xmlns:xlink="http://www.w3.org/1999/xlink" width="118" height="118" viewBox="0 0 118 118">
  <defs>
    <filter id="Trazado_874925" x="0" y="0" width="118" height="118" filterUnits="userSpaceOnUse">
      <feOffset dy="3" input="SourceAlpha"/>
      <feGaussianBlur stdDeviation="3" result="blur"/>
      <feFlood flood-opacity="0.161"/>
      <feComposite operator="in" in2="blur"/>
      <feComposite in="SourceGraphic"/>
    </filter>
  </defs>
  <g id="Grupo_1123452" data-name="Grupo 1123452" transform="translate(-4104 7632.1)">
    <g id="Grupo_1111553" data-name="Grupo 1111553" transform="translate(3304.5 -10143.257)">
      <g id="Grupo_1111316" data-name="Grupo 1111316" transform="translate(808.5 2517.157)">
        <g id="Grupo_1109835" data-name="Grupo 1109835" transform="translate(0 0)">
          <g id="Grupo_1107913" data-name="Grupo 1107913" transform="translate(0 0)">
            <g transform="matrix(1, 0, 0, 1, -9, -6)" filter="url(#Trazado_874925)">
              <g id="Trazado_874925-2" data-name="Trazado 874925" transform="translate(9 6)" fill="#bb965f" opacity="0.859">
                <path d="M 49.99972534179688 98.4998779296875 C 43.45164108276367 98.4998779296875 37.10022354125977 97.21776580810547 31.12189674377441 94.68914794921875 C 25.34676742553711 92.24647521972656 20.15985298156738 88.74925994873047 15.70523929595947 84.29464721679688 C 11.25062561035156 79.84004974365234 7.753411293029785 74.65313720703125 5.310725212097168 68.87800598144531 C 2.782111167907715 62.89969253540039 1.499996781349182 56.54829406738281 1.499996781349182 50.00022125244141 C 1.499996781349182 43.45157623291016 2.782111167907715 37.10017776489258 5.310725212097168 31.12186431884766 C 7.753411293029785 25.34673500061035 11.25062561035156 20.15983581542969 15.70523929595947 15.70522117614746 C 20.15985298156738 11.25062084197998 25.34676742553711 7.753406524658203 31.12189674377441 5.31073522567749 C 37.10022354125977 2.782120943069458 43.45164108276367 1.500006556510925 49.99972534179688 1.500006556510925 C 56.54780960083008 1.500006556510925 62.89922714233398 2.782120943069458 68.87755584716797 5.31073522567749 C 74.65267944335938 7.753406524658203 79.839599609375 11.25062084197998 84.29421234130859 15.70522117614746 C 88.74882507324219 20.15983581542969 92.24604034423828 25.34673500061035 94.68872833251953 31.12186431884766 C 97.21733856201172 37.10017776489258 98.49945068359375 43.45157623291016 98.49945068359375 49.99964904785156 C 98.49945068359375 56.54829406738281 97.21733856201172 62.89969253540039 94.68872833251953 68.87800598144531 C 92.24604034423828 74.65313720703125 88.74882507324219 79.84004974365234 84.29421234130859 84.29464721679688 C 79.839599609375 88.74925994873047 74.65267944335938 92.24647521972656 68.87755584716797 94.68914794921875 C 62.89922714233398 97.21776580810547 56.54780960083008 98.4998779296875 49.99972534179688 98.4998779296875 Z" stroke="none"/>
                <path d="M 49.99972534179688 3 C 43.65348052978516 3 37.49866485595703 4.242240905761719 31.70623016357422 6.692230224609375 C 26.10989379882812 9.059272766113281 21.08323669433594 12.44853210449219 16.76589202880859 16.76587677001953 C 12.44855499267578 21.08321380615234 9.059295654296875 26.10985565185547 6.692230224609375 31.70618438720703 C 4.24224853515625 37.49859619140625 3 43.65341186523438 3 50.00022888183594 C 3 56.34645843505859 4.24224853515625 62.50127410888672 6.692230224609375 68.29368591308594 C 9.059295654296875 73.8900146484375 12.44855499267578 78.91665649414062 16.76589202880859 83.23399353027344 C 21.08323669433594 87.55132293701172 26.10989379882812 90.94059753417969 31.70623016357422 93.30764007568359 C 37.49866485595703 95.75762939453125 43.65348052978516 96.99987030029297 49.99972534179688 96.99987030029297 C 56.34597015380859 96.99987030029297 62.50078582763672 95.75762939453125 68.293212890625 93.30764007568359 C 73.88955688476562 90.94059753417969 78.91621398925781 87.55132293701172 83.23355865478516 83.23399353027344 C 87.55089569091797 78.91665649414062 90.94015502929688 73.8900146484375 93.30722045898438 68.29368591308594 C 95.7572021484375 62.50127410888672 96.99945068359375 56.34645843505859 96.99945068359375 49.99964141845703 C 96.99945068359375 43.65341186523438 95.7572021484375 37.49859619140625 93.30722045898438 31.70618438720703 C 90.94015502929688 26.10985565185547 87.55089569091797 21.08321380615234 83.23355865478516 16.76587677001953 C 78.91621398925781 12.44853210449219 73.88955688476562 9.059272766113281 68.293212890625 6.692230224609375 C 62.50078582763672 4.242240905761719 56.34597015380859 3 49.99972534179688 3 M 49.99972534179688 0 C 77.61381530761719 0 99.99945068359375 22.38559722900391 99.99945068359375 49.99964141845703 L 99.99945068359375 50.00022888183594 C 99.99945068359375 77.6142578125 77.61381530761719 99.99987030029297 49.99972534179688 99.99987030029297 C 22.38563537597656 99.99987030029297 0 77.6142578125 0 50.00022888183594 L 0 49.99964141845703 C 0 22.38559722900391 22.38563537597656 0 49.99972534179688 0 Z" stroke="none" fill="#fff"/>
              </g>
            </g>
            <g id="Trazado_874923" data-name="Trazado 874923" transform="translate(0 0)" fill="none">
              <path d="M50,0a50,50,0,0,1,50,50h0A50,50,0,0,1,0,50H0A50,50,0,0,1,50,0Z" stroke="none"/>
              <path d="M 49.99972534179688 3 C 43.65348052978516 3 37.49866485595703 4.242240905761719 31.70623016357422 6.692230224609375 C 26.10989379882812 9.059272766113281 21.08323669433594 12.44853210449219 16.76589202880859 16.76587677001953 C 12.44855499267578 21.08321380615234 9.059295654296875 26.10985565185547 6.692230224609375 31.70618438720703 C 4.24224853515625 37.49859619140625 3 43.65341186523438 3 50.00022888183594 C 3 56.34645843505859 4.24224853515625 62.50127410888672 6.692230224609375 68.29368591308594 C 9.059295654296875 73.8900146484375 12.44855499267578 78.91665649414062 16.76589202880859 83.23399353027344 C 21.08323669433594 87.55132293701172 26.10989379882812 90.94059753417969 31.70623016357422 93.30764007568359 C 37.49866485595703 95.75762939453125 43.65348052978516 96.99987030029297 49.99972534179688 96.99987030029297 C 56.34597015380859 96.99987030029297 62.50078582763672 95.75762939453125 68.293212890625 93.30764007568359 C 73.88955688476562 90.94059753417969 78.91621398925781 87.55132293701172 83.23355865478516 83.23399353027344 C 87.55089569091797 78.91665649414062 90.94015502929688 73.8900146484375 93.30722045898438 68.29368591308594 C 95.7572021484375 62.50127410888672 96.99945068359375 56.34645843505859 96.99945068359375 49.99964141845703 C 96.99945068359375 43.65341186523438 95.7572021484375 37.49859619140625 93.30722045898438 31.70618438720703 C 90.94015502929688 26.10985565185547 87.55089569091797 21.08321380615234 83.23355865478516 16.76587677001953 C 78.91621398925781 12.44853210449219 73.88955688476562 9.059272766113281 68.293212890625 6.692230224609375 C 62.50078582763672 4.242240905761719 56.34597015380859 3 49.99972534179688 3 M 49.99972534179688 0 C 77.61381530761719 0 99.99945068359375 22.38559722900391 99.99945068359375 49.99964141845703 L 99.99945068359375 50.00022888183594 C 99.99945068359375 77.6142578125 77.61381530761719 99.99987030029297 49.99972534179688 99.99987030029297 C 22.38563537597656 99.99987030029297 0 77.6142578125 0 50.00022888183594 L 0 49.99964141845703 C 0 22.38559722900391 22.38563537597656 0 49.99972534179688 0 Z" stroke="none" fill="#fff"/>
            </g>
          </g>
        </g>
      </g>
    </g>
    <g id="Layer1" transform="translate(4127.403 -7608.938)">
      <path id="Trazado_920251" data-name="Trazado 920251" d="M56.139,62.563,62.5,62.5V59.375L55.373,48.437l-1.634,5.286Z" fill="#5d3d1a" fill-rule="evenodd"/>
      <path id="Trazado_920252" data-name="Trazado 920252" d="M57.783,52.135l-2.41-3.7-1.634,5.286,2.4,8.84,3.543-.035-2.39-8.805Z" fill="#6b4a26" fill-rule="evenodd"/>
      <path id="Trazado_920253" data-name="Trazado 920253" d="M19.546,62.5H36.132l3.1-7.171-1.346-7.912,1.55-4.466V37.874L41.8,32.292,40.313,23.9,35.5,31.247,31.5,37.874v6.892l-2.987.979Z" fill="#ad8860" fill-rule="evenodd"/>
      <path id="Trazado_920254" data-name="Trazado 920254" d="M41.208,28.961l-.9-5.056L35.5,31.247,31.5,37.874v6.892l-2.987.979L19.546,62.5h4.212l8.971-16.755,2.987-.979V37.874l3.992-6.627Z" fill="#c19a71" fill-rule="evenodd"/>
      <path id="Trazado_920255" data-name="Trazado 920255" d="M55.782,43.6,53.739,53.723,56.357,62.5H36.132l3.1-7.171-1.346-7.912,1.55-4.466V37.874L41.8,32.292,40.313,23.9h1.765L46.6,31.6l-.425,6.273Z" fill="#906537" fill-rule="evenodd"/>
      <path id="Trazado_920256" data-name="Trazado 920256" d="M45.319,29.416l.47,2.655-2.362,5.582V42.73L41.878,47.2l1.345,7.912-3.1,7.171H56.291l.066.221H36.132l3.1-7.171-1.346-7.912,1.55-4.466V37.874L41.8,32.292,40.313,23.9h1.765Z" fill="#a47b50" fill-rule="evenodd"/>
      <path id="Trazado_920257" data-name="Trazado 920257" d="M39.913,26.443l.691,5.488-2.316,5.7v5.134l-1.409,4.406,1.251,7.908L35.239,62.1l1.926.794,3.114-7.557-1.265-8,1.358-4.244V38.041l2.366-5.83-.8-6.361,3.537,5.825-.357,6.772,9.651,5.631v1.239l-1.974,8.564,2.58,8.9,2-.58-2.429-8.383.766-3.323,5.893,9.87L63.394,59.3,56.852,48.344V42.882l-9.587-5.594.324-6.145-5.955-9.809-1.849.133-1.662,3.9-3.752,5.483-3.906,6.734v6.282l-2.74.813-9.1,17.334,1.845.968L29.16,46.429l3.389-1.005V38.147l3.585-6.182ZM11.458,58.333V62.5h2.084V58.333Zm0-8.333v4.167h2.084V50Zm0-8.333v4.166h2.084V41.667ZM21.875,37.5v4.167h2.083V37.5ZM11.458,33.333V37.5h2.084V33.333Zm10.417-4.166v4.166h2.083V29.167Zm31.25,0v4.166h2.083V29.167ZM11.458,25v4.167h2.084V25Zm10.417-4.167V25h2.083V20.833Zm31.25,0V25h2.083V20.833Zm-33.638.737,3.43-3.43L26.4,21.618l1.473-1.473-4.951-4.951-4.9,4.9Zm-8.029-4.9v4.166h2.084V16.667ZM41.667,3.12h0L18.75,3.125V5.208L39.583,5.2V18.75h2.084V5.2l12.523.005V3.125ZM53.125,12.5v4.167h2.083V12.5Zm-2.388.737,3.43-3.431,3.478,3.479,1.473-1.473L54.167,6.86l-4.9,4.9Zm-39.279-4.9V12.5h2.084V8.333ZM9.07,9.07,12.5,5.64l3.479,3.478,1.473-1.473L12.5,2.694,7.6,7.6Z" fill-rule="evenodd"/>
    </g>
  </g>
</svg>
