<svg xmlns="http://www.w3.org/2000/svg" xmlns:xlink="http://www.w3.org/1999/xlink" width="118" height="118" viewBox="0 0 118 118">
  <defs>
    <filter id="Trazado_874925" x="0" y="0" width="118" height="118" filterUnits="userSpaceOnUse">
      <feOffset dy="3" input="SourceAlpha"/>
      <feGaussianBlur stdDeviation="3" result="blur"/>
      <feFlood flood-opacity="0.161"/>
      <feComposite operator="in" in2="blur"/>
      <feComposite in="SourceGraphic"/>
    </filter>
  </defs>
  <g id="Grupo_1123453" data-name="Grupo 1123453" transform="translate(-4427 7632.1)">
    <g id="Grupo_1111552" data-name="Grupo 1111552" transform="translate(3627.5 -10143.257)">
      <g id="Grupo_1111316" data-name="Grupo 1111316" transform="translate(808.5 2517.157)">
        <g id="Grupo_1109835" data-name="Grupo 1109835" transform="translate(0 0)">
          <g id="Grupo_1107913" data-name="Grupo 1107913" transform="translate(0 0)">
            <g transform="matrix(1, 0, 0, 1, -9, -6)" filter="url(#Trazado_874925)">
              <g id="Trazado_874925-2" data-name="Trazado 874925" transform="translate(9 6)" fill="#bb965f" opacity="0.859">
                <path d="M 49.99972534179688 98.4998779296875 C 43.45164108276367 98.4998779296875 37.10022354125977 97.21776580810547 31.12189674377441 94.68914794921875 C 25.34676742553711 92.24647521972656 20.15985298156738 88.74925994873047 15.70523929595947 84.29464721679688 C 11.25062561035156 79.84004974365234 7.753411293029785 74.65313720703125 5.310725212097168 68.87800598144531 C 2.782111167907715 62.89969253540039 1.499996781349182 56.54829406738281 1.499996781349182 50.00022125244141 C 1.499996781349182 43.45157623291016 2.782111167907715 37.10017776489258 5.310725212097168 31.12186431884766 C 7.753411293029785 25.34673500061035 11.25062561035156 20.15983581542969 15.70523929595947 15.70522117614746 C 20.15985298156738 11.25062084197998 25.34676742553711 7.753406524658203 31.12189674377441 5.31073522567749 C 37.10022354125977 2.782120943069458 43.45164108276367 1.500006556510925 49.99972534179688 1.500006556510925 C 56.54780960083008 1.500006556510925 62.89922714233398 2.782120943069458 68.87755584716797 5.31073522567749 C 74.65267944335938 7.753406524658203 79.839599609375 11.25062084197998 84.29421234130859 15.70522117614746 C 88.74882507324219 20.15983581542969 92.24604034423828 25.34673500061035 94.68872833251953 31.12186431884766 C 97.21733856201172 37.10017776489258 98.49945068359375 43.45157623291016 98.49945068359375 49.99964904785156 C 98.49945068359375 56.54829406738281 97.21733856201172 62.89969253540039 94.68872833251953 68.87800598144531 C 92.24604034423828 74.65313720703125 88.74882507324219 79.84004974365234 84.29421234130859 84.29464721679688 C 79.839599609375 88.74925994873047 74.65267944335938 92.24647521972656 68.87755584716797 94.68914794921875 C 62.89922714233398 97.21776580810547 56.54780960083008 98.4998779296875 49.99972534179688 98.4998779296875 Z" stroke="none"/>
                <path d="M 49.99972534179688 3 C 43.65348052978516 3 37.49866485595703 4.242240905761719 31.70623016357422 6.692230224609375 C 26.10989379882812 9.059272766113281 21.08323669433594 12.44853210449219 16.76589202880859 16.76587677001953 C 12.44855499267578 21.08321380615234 9.059295654296875 26.10985565185547 6.692230224609375 31.70618438720703 C 4.24224853515625 37.49859619140625 3 43.65341186523438 3 50.00022888183594 C 3 56.34645843505859 4.24224853515625 62.50127410888672 6.692230224609375 68.29368591308594 C 9.059295654296875 73.8900146484375 12.44855499267578 78.91665649414062 16.76589202880859 83.23399353027344 C 21.08323669433594 87.55132293701172 26.10989379882812 90.94059753417969 31.70623016357422 93.30764007568359 C 37.49866485595703 95.75762939453125 43.65348052978516 96.99987030029297 49.99972534179688 96.99987030029297 C 56.34597015380859 96.99987030029297 62.50078582763672 95.75762939453125 68.293212890625 93.30764007568359 C 73.88955688476562 90.94059753417969 78.91621398925781 87.55132293701172 83.23355865478516 83.23399353027344 C 87.55089569091797 78.91665649414062 90.94015502929688 73.8900146484375 93.30722045898438 68.29368591308594 C 95.7572021484375 62.50127410888672 96.99945068359375 56.34645843505859 96.99945068359375 49.99964141845703 C 96.99945068359375 43.65341186523438 95.7572021484375 37.49859619140625 93.30722045898438 31.70618438720703 C 90.94015502929688 26.10985565185547 87.55089569091797 21.08321380615234 83.23355865478516 16.76587677001953 C 78.91621398925781 12.44853210449219 73.88955688476562 9.059272766113281 68.293212890625 6.692230224609375 C 62.50078582763672 4.242240905761719 56.34597015380859 3 49.99972534179688 3 M 49.99972534179688 0 C 77.61381530761719 0 99.99945068359375 22.38559722900391 99.99945068359375 49.99964141845703 L 99.99945068359375 50.00022888183594 C 99.99945068359375 77.6142578125 77.61381530761719 99.99987030029297 49.99972534179688 99.99987030029297 C 22.38563537597656 99.99987030029297 0 77.6142578125 0 50.00022888183594 L 0 49.99964141845703 C 0 22.38559722900391 22.38563537597656 0 49.99972534179688 0 Z" stroke="none" fill="#fff"/>
              </g>
            </g>
            <g id="Trazado_874923" data-name="Trazado 874923" transform="translate(0 0)" fill="none">
              <path d="M50,0a50,50,0,0,1,50,50h0A50,50,0,0,1,0,50H0A50,50,0,0,1,50,0Z" stroke="none"/>
              <path d="M 49.99972534179688 3 C 43.65348052978516 3 37.49866485595703 4.242240905761719 31.70623016357422 6.692230224609375 C 26.10989379882812 9.059272766113281 21.08323669433594 12.44853210449219 16.76589202880859 16.76587677001953 C 12.44855499267578 21.08321380615234 9.059295654296875 26.10985565185547 6.692230224609375 31.70618438720703 C 4.24224853515625 37.49859619140625 3 43.65341186523438 3 50.00022888183594 C 3 56.34645843505859 4.24224853515625 62.50127410888672 6.692230224609375 68.29368591308594 C 9.059295654296875 73.8900146484375 12.44855499267578 78.91665649414062 16.76589202880859 83.23399353027344 C 21.08323669433594 87.55132293701172 26.10989379882812 90.94059753417969 31.70623016357422 93.30764007568359 C 37.49866485595703 95.75762939453125 43.65348052978516 96.99987030029297 49.99972534179688 96.99987030029297 C 56.34597015380859 96.99987030029297 62.50078582763672 95.75762939453125 68.293212890625 93.30764007568359 C 73.88955688476562 90.94059753417969 78.91621398925781 87.55132293701172 83.23355865478516 83.23399353027344 C 87.55089569091797 78.91665649414062 90.94015502929688 73.8900146484375 93.30722045898438 68.29368591308594 C 95.7572021484375 62.50127410888672 96.99945068359375 56.34645843505859 96.99945068359375 49.99964141845703 C 96.99945068359375 43.65341186523438 95.7572021484375 37.49859619140625 93.30722045898438 31.70618438720703 C 90.94015502929688 26.10985565185547 87.55089569091797 21.08321380615234 83.23355865478516 16.76587677001953 C 78.91621398925781 12.44853210449219 73.88955688476562 9.059272766113281 68.293212890625 6.692230224609375 C 62.50078582763672 4.242240905761719 56.34597015380859 3 49.99972534179688 3 M 49.99972534179688 0 C 77.61381530761719 0 99.99945068359375 22.38559722900391 99.99945068359375 49.99964141845703 L 99.99945068359375 50.00022888183594 C 99.99945068359375 77.6142578125 77.61381530761719 99.99987030029297 49.99972534179688 99.99987030029297 C 22.38563537597656 99.99987030029297 0 77.6142578125 0 50.00022888183594 L 0 49.99964141845703 C 0 22.38559722900391 22.38563537597656 0 49.99972534179688 0 Z" stroke="none" fill="#fff"/>
            </g>
          </g>
        </g>
      </g>
    </g>
    <g id="Layer_24" data-name="Layer 24" transform="translate(4454.474 -7608.09)">
      <path id="Trazado_920258" data-name="Trazado 920258" d="M21.951,16h3A19.91,19.91,0,0,1,37.02,20.051l5.926,7.212A19.92,19.92,0,0,1,44.951,36h0l.021,4a10.074,10.074,0,0,0,2.721,6.832l-18.809.1a7.912,7.912,0,0,0,3.089-6.313L31.951,36h0a6,6,0,0,0-6-6h-4Z" fill="#8adef9"/>
      <path id="Trazado_920259" data-name="Trazado 920259" d="M63,62H62a8.478,8.478,0,0,1-3.789-.894l-.422-.212A8.478,8.478,0,0,0,54,60h0a8.478,8.478,0,0,0-3.789.894l-.422.212A8.478,8.478,0,0,1,46,62h0a8.478,8.478,0,0,1-3.789-.894l-.422-.212A8.478,8.478,0,0,0,38,60h0a8.478,8.478,0,0,0-3.789.894l-.422.212A8.478,8.478,0,0,1,30,62h0a8.478,8.478,0,0,1-3.789-.894l-.422-.212A8.478,8.478,0,0,0,22,60h0a8.478,8.478,0,0,0-3.789.894l-.422.212A8.478,8.478,0,0,1,14,62h0a8.478,8.478,0,0,1-3.789-.894l-.422-.212A8.478,8.478,0,0,0,6,60H6a8.478,8.478,0,0,0-3.789.894L1,61.5v-15l1.211-.606A8.478,8.478,0,0,1,6,45H6a8.478,8.478,0,0,1,3.789.894l.422.212A8.478,8.478,0,0,0,14,47h0a8.478,8.478,0,0,0,3.789-.894l.422-.212A8.478,8.478,0,0,1,22,45h0a8.478,8.478,0,0,1,3.789.894l.422.212A8.478,8.478,0,0,0,30,47h0a8.478,8.478,0,0,0,3.789-.894l.422-.212A8.478,8.478,0,0,1,38,45h0a8.478,8.478,0,0,1,3.789.894l.422.212A8.478,8.478,0,0,0,46,47h0a8.478,8.478,0,0,0,3.789-.894l.422-.212A8.478,8.478,0,0,1,54,45h0a8.478,8.478,0,0,1,3.789.894l.422.212A8.478,8.478,0,0,0,62,47h1" fill="#8adef9"/>
      <path id="Trazado_920260" data-name="Trazado 920260" d="M63,55H62a9.527,9.527,0,0,1-4.236-1l-.422-.211a7.6,7.6,0,0,0-6.684,0L50.236,54a9.63,9.63,0,0,1-8.472,0l-.422-.211a7.6,7.6,0,0,0-6.684,0L34.236,54a9.63,9.63,0,0,1-8.472,0l-.422-.211a7.6,7.6,0,0,0-6.684,0L18.236,54a9.63,9.63,0,0,1-8.472,0l-.422-.211a7.6,7.6,0,0,0-6.684,0L1.447,54.4.553,52.61,1.764,52a9.63,9.63,0,0,1,8.472,0l.422.211a7.6,7.6,0,0,0,6.684,0L17.764,52a9.63,9.63,0,0,1,8.472,0l.422.211a7.6,7.6,0,0,0,6.684,0L33.764,52a9.63,9.63,0,0,1,8.472,0l.422.211a7.6,7.6,0,0,0,6.684,0L49.764,52a9.63,9.63,0,0,1,8.472,0l.422.211A7.5,7.5,0,0,0,62,53h1Z" fill="#43b6e5"/>
      <path id="Trazado_920261" data-name="Trazado 920261" d="M63,63H62a9.527,9.527,0,0,1-4.236-1l-.422-.211a7.6,7.6,0,0,0-6.684,0L50.236,62a9.63,9.63,0,0,1-8.472,0l-.422-.211a7.6,7.6,0,0,0-6.684,0L34.236,62a9.63,9.63,0,0,1-8.472,0l-.422-.211a7.6,7.6,0,0,0-6.684,0L18.236,62a9.63,9.63,0,0,1-8.472,0l-.422-.211a7.6,7.6,0,0,0-6.684,0L1.447,62.4.553,60.61,1.764,60a9.63,9.63,0,0,1,8.472,0l.422.211a7.6,7.6,0,0,0,6.684,0L17.764,60a9.63,9.63,0,0,1,8.472,0l.422.211a7.6,7.6,0,0,0,6.684,0L33.764,60a9.63,9.63,0,0,1,8.472,0l.422.211a7.6,7.6,0,0,0,6.684,0L49.764,60a9.63,9.63,0,0,1,8.472,0l.422.211A7.5,7.5,0,0,0,62,61h1Z" fill="#43b6e5"/>
      <path id="Trazado_920262" data-name="Trazado 920262" d="M63,48H62a9.527,9.527,0,0,1-4.236-1l-.422-.211a7.6,7.6,0,0,0-6.684,0L50.236,47a9.63,9.63,0,0,1-8.472,0l-.422-.211a7.6,7.6,0,0,0-6.684,0L34.236,47a9.63,9.63,0,0,1-8.472,0l-.422-.211a7.6,7.6,0,0,0-6.684,0L18.236,47a9.63,9.63,0,0,1-8.472,0l-.422-.211a7.6,7.6,0,0,0-6.684,0L1.447,47.4.553,45.61,1.764,45a9.63,9.63,0,0,1,8.472,0l.422.211a7.6,7.6,0,0,0,6.684,0L17.764,45a9.63,9.63,0,0,1,8.472,0l.422.211a7.6,7.6,0,0,0,6.684,0L33.764,45a9.63,9.63,0,0,1,8.472,0l.422.211a7.6,7.6,0,0,0,6.684,0L49.764,45a9.63,9.63,0,0,1,8.472,0l.422.211A7.505,7.505,0,0,0,62,46h1Z" fill="#43b6e5"/>
      <rect id="Rectángulo_405787" data-name="Rectángulo 405787" width="10" height="24" transform="translate(11.951 11)" fill="#785349"/>
      <rect id="Rectángulo_405788" data-name="Rectángulo 405788" width="10.951" height="18" transform="translate(1 14)" fill="#785349"/>
      <path id="Trazado_920263" data-name="Trazado 920263" d="M15,24.881a7.114,7.114,0,0,0,6.951,7.11V11H15Z" fill="#916658"/>
      <rect id="Rectángulo_405789" data-name="Rectángulo 405789" width="10.951" height="15" transform="translate(1 17)" fill="#916658"/>
      <path id="Trazado_920264" data-name="Trazado 920264" d="M49,2A13,13,0,0,0,38.237,22.29L36,29l8-2A13,13,0,1,0,49,2Z" fill="#0059be"/>
      <path id="Trazado_920265" data-name="Trazado 920265" d="M59.133,23.133A12.992,12.992,0,0,0,40.867,4.867,12.992,12.992,0,0,0,59.133,23.133Z" fill="#006bdb"/>
      <rect id="Rectángulo_405790" data-name="Rectángulo 405790" width="2" height="2" transform="translate(54 19)" fill="#719301"/>
      <rect id="Rectángulo_405791" data-name="Rectángulo 405791" width="2" height="2" transform="translate(40 10)" fill="#719301"/>
      <rect id="Rectángulo_405792" data-name="Rectángulo 405792" width="2" height="2" transform="translate(58 13)" fill="#719301"/>
      <rect id="Rectángulo_405793" data-name="Rectángulo 405793" width="2" height="3.88" transform="translate(45 14)" fill="#719301"/>
      <rect id="Rectángulo_405794" data-name="Rectángulo 405794" width="4" height="2" transform="translate(40 19)" fill="#719301"/>
      <rect id="Rectángulo_405795" data-name="Rectángulo 405795" width="2" height="4" transform="translate(45 22)" fill="#719301"/>
      <rect id="Rectángulo_405796" data-name="Rectángulo 405796" width="4.104" height="2" transform="translate(47.896 19)" fill="#719301"/>
      <rect id="Rectángulo_405797" data-name="Rectángulo 405797" width="3.536" height="2" transform="translate(46.793 17.793) rotate(-45)" fill="#8dbf00"/>
      <rect id="Rectángulo_405798" data-name="Rectángulo 405798" width="2" height="3.536" transform="translate(41.293 16.707) rotate(-45)" fill="#8dbf00"/>
      <rect id="Rectángulo_405799" data-name="Rectángulo 405799" width="3.536" height="2" transform="translate(41.293 23.293) rotate(-45)" fill="#8dbf00"/>
      <rect id="Rectángulo_405800" data-name="Rectángulo 405800" width="2" height="3.536" transform="translate(46.793 22.207) rotate(-45)" fill="#8dbf00"/>
      <circle id="Elipse_11997" data-name="Elipse 11997" cx="3" cy="3" r="3" transform="translate(43 17)" fill="#719301"/>
      <path id="Trazado_920266" data-name="Trazado 920266" d="M46,17a2.965,2.965,0,0,0-1.554.446A2.965,2.965,0,0,0,44,19a3,3,0,0,0,3,3,2.965,2.965,0,0,0,1.554-.446A2.965,2.965,0,0,0,49,20,3,3,0,0,0,46,17Z" fill="#82ab00"/>
      <rect id="Rectángulo_405801" data-name="Rectángulo 405801" width="2" height="3.88" transform="translate(51 3)" fill="#719301"/>
      <rect id="Rectángulo_405802" data-name="Rectángulo 405802" width="4" height="2" transform="translate(46 8)" fill="#719301"/>
      <rect id="Rectángulo_405803" data-name="Rectángulo 405803" width="2" height="4" transform="translate(51 11)" fill="#719301"/>
      <rect id="Rectángulo_405804" data-name="Rectángulo 405804" width="4.104" height="2" transform="translate(53.896 8)" fill="#719301"/>
      <rect id="Rectángulo_405805" data-name="Rectángulo 405805" width="3.536" height="2" transform="translate(52.792 6.793) rotate(-45)" fill="#8dbf00"/>
      <rect id="Rectángulo_405806" data-name="Rectángulo 405806" width="2" height="3.536" transform="translate(47.293 5.707) rotate(-45)" fill="#8dbf00"/>
      <rect id="Rectángulo_405807" data-name="Rectángulo 405807" width="3.536" height="2" transform="translate(47.292 12.293) rotate(-45)" fill="#8dbf00"/>
      <rect id="Rectángulo_405808" data-name="Rectángulo 405808" width="2" height="3.536" transform="translate(52.793 11.207) rotate(-45)" fill="#8dbf00"/>
      <circle id="Elipse_11998" data-name="Elipse 11998" cx="3" cy="3" r="3" transform="translate(49 6)" fill="#719301"/>
      <path id="Trazado_920267" data-name="Trazado 920267" d="M52,6a2.965,2.965,0,0,0-1.554.446A2.965,2.965,0,0,0,50,8a3,3,0,0,0,3,3,2.965,2.965,0,0,0,1.554-.446A2.965,2.965,0,0,0,55,9,3,3,0,0,0,52,6Z" fill="#82ab00"/>
      <path id="Trazado_920268" data-name="Trazado 920268" d="M58.658,60.211,58.236,60a9.63,9.63,0,0,0-8.472,0l-.422.211a7.6,7.6,0,0,1-6.684,0L42.236,60a9.63,9.63,0,0,0-8.472,0l-.422.211a7.6,7.6,0,0,1-6.684,0L26.236,60a9.63,9.63,0,0,0-8.472,0l-.422.211a7.6,7.6,0,0,1-6.684,0L10.236,60a9.63,9.63,0,0,0-8.472,0l-1.211.6.894,1.79,1.211-.606a7.6,7.6,0,0,1,6.684,0L9.764,62a9.63,9.63,0,0,0,8.472,0l.422-.211a7.6,7.6,0,0,1,6.684,0l.422.211a9.63,9.63,0,0,0,8.472,0l.422-.211a7.6,7.6,0,0,1,6.684,0l.422.211a9.63,9.63,0,0,0,8.472,0l.422-.211a7.6,7.6,0,0,1,6.684,0l.422.211A9.527,9.527,0,0,0,62,63h1V61H62a7.5,7.5,0,0,1-3.342-.789Z"/>
      <path id="Trazado_920269" data-name="Trazado 920269" d="M58.658,52.211,58.236,52a9.63,9.63,0,0,0-8.472,0l-.422.211a7.6,7.6,0,0,1-6.684,0L42.236,52a9.63,9.63,0,0,0-8.472,0l-.422.211a7.6,7.6,0,0,1-6.684,0L26.236,52a9.63,9.63,0,0,0-8.472,0l-.422.211a7.6,7.6,0,0,1-6.684,0L10.236,52a9.63,9.63,0,0,0-8.472,0l-1.211.6.894,1.79,1.211-.606a7.6,7.6,0,0,1,6.684,0L9.764,54a9.63,9.63,0,0,0,8.472,0l.422-.211a7.6,7.6,0,0,1,6.684,0l.422.211a9.63,9.63,0,0,0,8.472,0l.422-.211a7.6,7.6,0,0,1,6.684,0l.422.211a9.63,9.63,0,0,0,8.472,0l.422-.211a7.6,7.6,0,0,1,6.684,0l.422.211A9.527,9.527,0,0,0,62,55h1V53H62a7.5,7.5,0,0,1-3.342-.789Z"/>
      <rect id="Rectángulo_405809" data-name="Rectángulo 405809" width="2" height="7" transform="translate(40 36)"/>
      <rect id="Rectángulo_405810" data-name="Rectángulo 405810" width="2" height="2" transform="translate(40 32)"/>
      <path id="Trazado_920270" data-name="Trazado 920270" d="M42.567,22.019l-1.274,1.274,1.414,1.414,1.274-1.274A3.915,3.915,0,0,0,45,23.858V26h2V23.858a3.915,3.915,0,0,0,1.019-.425l1.274,1.274,1.414-1.414-1.274-1.274A3.915,3.915,0,0,0,49.858,21H52V19H49.858a3.915,3.915,0,0,0-.425-1.019l1.274-1.274-1.414-1.414-1.274,1.274A3.915,3.915,0,0,0,47,16.142V14H45v2.142a3.915,3.915,0,0,0-1.019.425l-1.274-1.274-1.414,1.414,1.274,1.274A3.915,3.915,0,0,0,42.142,19H40v2h2.142a3.915,3.915,0,0,0,.425,1.019ZM46,18a2,2,0,1,1-2,2A2,2,0,0,1,46,18Z"/>
      <rect id="Rectángulo_405811" data-name="Rectángulo 405811" width="2" height="2" transform="translate(54 19)"/>
      <rect id="Rectángulo_405812" data-name="Rectángulo 405812" width="2" height="2" transform="translate(40 10)"/>
      <rect id="Rectángulo_405813" data-name="Rectángulo 405813" width="2" height="2" transform="translate(58 13)"/>
      <path id="Trazado_920271" data-name="Trazado 920271" d="M63,15a14,14,0,1,0-27.729,2.722A20.811,20.811,0,0,0,24.95,15h-2V11a1,1,0,0,0-1-1h-10a1,1,0,0,0-1,1v2H1v2h9.95V31H1v2h9.95v2a1,1,0,0,0,1,1h10a1,1,0,0,0,1-1V31h3a5.007,5.007,0,0,1,5,5.005l.024,4.613A6.954,6.954,0,0,1,28.6,45.847a7.333,7.333,0,0,1-1.947-.636L26.236,45a9.63,9.63,0,0,0-8.472,0l-.422.211a7.6,7.6,0,0,1-6.684,0L10.236,45a9.63,9.63,0,0,0-8.472,0l-1.211.6.894,1.79,1.211-.606a7.6,7.6,0,0,1,6.684,0L9.764,47a9.63,9.63,0,0,0,8.472,0l.422-.211a7.6,7.6,0,0,1,6.684,0l.422.211a9.63,9.63,0,0,0,8.472,0l.422-.211a7.6,7.6,0,0,1,6.684,0l.422.211a9.63,9.63,0,0,0,8.472,0l.422-.211a7.6,7.6,0,0,1,6.684,0l.422.211A9.527,9.527,0,0,0,62,48h1V46H62a7.505,7.505,0,0,1-3.342-.789L58.236,45a9.63,9.63,0,0,0-8.472,0l-.422.211a7.2,7.2,0,0,1-1.3.486,9.029,9.029,0,0,1-2.069-5.706L45.95,36a20.809,20.809,0,0,0-1.491-7.772A13.874,13.874,0,0,0,49,29,14.015,14.015,0,0,0,63,15ZM20.95,34h-8V12h8ZM52,11a2,2,0,1,1,2-2A2,2,0,0,1,52,11Zm2.019-5.433A3.915,3.915,0,0,0,53,5.142V3.7a11.97,11.97,0,0,1,1.977.909ZM49,3a11.986,11.986,0,0,1,2,.181V5.142a3.915,3.915,0,0,0-1.019.425L48.707,4.293,47.293,5.707l1.274,1.274A3.915,3.915,0,0,0,48.142,8H46v2h2.142a3.915,3.915,0,0,0,.425,1.019l-1.274,1.274,1.414,1.414,1.274-1.274A3.915,3.915,0,0,0,51,12.858V15h2V12.858a3.915,3.915,0,0,0,1.019-.425l1.274,1.274,1.414-1.414-1.274-1.274A3.915,3.915,0,0,0,55.858,10H58V8H55.858a3.915,3.915,0,0,0-.425-1.019l1.218-1.218A12,12,0,0,1,44.384,26.077a1,1,0,0,0-.627-.047l-6.233,1.558,1.661-4.982a1,1,0,0,0-.122-.877A12,12,0,0,1,49,3ZM42.236,45a9.63,9.63,0,0,0-8.472,0l-.422.211a7.334,7.334,0,0,1-2.077.658,8.963,8.963,0,0,0,1.709-5.261L32.95,36a7.008,7.008,0,0,0-7-7h-3V17h2a18.825,18.825,0,0,1,11.263,3.706,13.963,13.963,0,0,0,.922,1.726l-2.083,6.252a1,1,0,0,0,1.19,1.286l6.137-1.534a18.822,18.822,0,0,1,1.571,7.57l.022,4a11.031,11.031,0,0,0,1.789,5.97,7.455,7.455,0,0,1-3.1-.761Z"/>
    </g>
  </g>
</svg>
