<svg xmlns="http://www.w3.org/2000/svg" xmlns:xlink="http://www.w3.org/1999/xlink" width="400.475" height="277.74" viewBox="0 0 400.475 277.74">
  <defs>
    <clipPath id="clip-path">
      <path id="Trazado_918280" data-name="Trazado 918280" d="M82.781,280.111c-43.767-38.59-55.809-103.942-32.646-157.5S132.972,33.738,191.066,39.2,301.2,90.49,313.973,147.426c9.855,43.932-4.233,91.76-34.152,125.006-31.011,34.459-77.958,49.261-123.441,42.259C130.5,310.707,102.481,297.481,82.781,280.111Z" transform="translate(-38.578 -38.646)" fill="none"/>
    </clipPath>
    <clipPath id="clip-path-2">
      <path id="Trazado_918338" data-name="Trazado 918338" d="M42.815,192.936a142.446,142.446,0,0,1,10.861-70.323,130.884,130.884,0,0,1,17.139-28.7c.473-5.345,2.109-18.72,6.919-24.064,6.077-6.751,25.655-16.2,29.706-15.19a19.666,19.666,0,0,1,5.687,2.908c24.615-14.035,53.233-21.022,81.48-18.365C252.7,44.666,304.744,90.49,317.515,147.426c9.855,43.932-4.233,91.76-34.152,125.006-31.011,34.459-77.958,49.261-123.441,42.259-25.876-3.984-53.9-17.209-73.6-34.579a128.6,128.6,0,0,1-34.432-49.432c-5.932-.5-12.549-1.961-13.186-5.925C37.953,220.081,40.719,203.971,42.815,192.936Z" transform="translate(-38.578 -38.646)" fill="none"/>
    </clipPath>
  </defs>
  <g id="Grupo_1120231" data-name="Grupo 1120231" transform="translate(-180.051 -8790.043)">
    <rect id="person-is-holding-tablet-with-word-weather-it" width="400.475" height="250.489" rx="8" transform="translate(180.051 8790.043)" fill="#e4d5bf"/>
    <g id="Grupo_1120230" data-name="Grupo 1120230" transform="translate(223.835 8779.164)">
      <g id="Grupo_1120192" data-name="Grupo 1120192" transform="translate(15.973 10.879)">
        <path id="Trazado_918232" data-name="Trazado 918232" d="M82.781,280.111c-43.767-38.59-55.809-103.942-32.646-157.5S132.972,33.738,191.066,39.2,301.2,90.49,313.973,147.426c9.855,43.932-4.233,91.76-34.152,125.006-31.011,34.459-77.958,49.261-123.441,42.259C130.5,310.707,102.481,297.481,82.781,280.111Z" transform="translate(-38.578 -38.646)" fill="#a7ebf9"/>
        <path id="Trazado_918233" data-name="Trazado 918233" d="M38.58,167.15a141.258,141.258,0,0,1,11.077-44.537C72.82,69.056,132.493,33.738,190.588,39.2S300.724,90.49,313.5,147.426a131.69,131.69,0,0,1,2.823,37.424c-9.195-4.326-19.825-5.409-30.093-5.5-12.171-.114-24.472.948-36.428-1.336C228.822,174,211.283,160.27,193.6,148.3s-38.093-22.932-59.274-20.206c-23.039,2.965-40.834,21.2-62.086,30.578C61.574,163.375,50.188,165.78,38.58,167.15Z" transform="translate(-38.1 -38.646)" fill="#80d6e8"/>
      </g>
      <g id="Grupo_1120193" data-name="Grupo 1120193" transform="translate(0 16.933)">
        <path id="Trazado_918234" data-name="Trazado 918234" d="M90.5,95.058h99.709c-3.481-2.918-8.152-5.782-12.7-5.77-1.948.006-3.85.594-5.794.729a25.043,25.043,0,0,1-8.171-1.26c-2.691-.727-5.466-1.5-7.647-3.232-2.89-2.3-4.4-6.037-7.381-8.214a9.8,9.8,0,0,0-12.039.705c-2.565,2.375-4.039,6.288-7.429,7.143-3.842.968-7.182-2.646-10.929-3.934a9.941,9.941,0,0,0-10.972,3.47c-1.7,2.345-2.489,5.585-5.069,6.9-1.9.968-4.165.553-6.3.481A5.562,5.562,0,0,0,90.5,95.058Z" transform="translate(70.314 -57.477)" fill="#fff"/>
        <path id="Trazado_918235" data-name="Trazado 918235" d="M11.216,179.834h97.015c-6.823,0-12.372-4.649-18.981-6.344a12.065,12.065,0,0,1-5.218-2.271c-1.91-1.711-2.516-4.405-3.764-6.645a12.419,12.419,0,0,0-19.315-3.044c-3.227,3.006-5.2,7.923-9.525,8.8-4.54.923-8.876-3.357-13.452-2.629-3.379.538-5.755,3.627-8.925,4.916-3.192,1.3-6.8.639-10.235.889S11.571,176.407,11.216,179.834Z" transform="translate(204.149 -86.065)" fill="#fff"/>
        <path id="Trazado_918236" data-name="Trazado 918236" d="M263.138,194.12H410.547a10.446,10.446,0,0,1-7.521-2.95c-1.946-2-3.9-4.455-6.676-4.71-3.194-.292-6.211,2.542-9.326,1.778-3.758-.922-4.673-6.2-8.1-7.991-3.241-1.692-7.472.349-10.76-1.249-3.647-1.772-4.02-6.7-5.809-10.336a12.424,12.424,0,0,0-21.464-1.447c-2.412,3.592-3.574,8.936-7.811,9.816s-8.053-3.768-12.351-3.228c-5.67.712-7.61,9.6-13.311,9.978-4.054.271-6.731-3.921-9.871-6.5-5.786-4.751-15.405-3.731-20.067,2.128-3.131,3.935-4.781,9.969-9.706,10.985-1.276.263-2.684.139-3.787.831S261.835,194.12,263.138,194.12Z" transform="translate(-262.533 -87.282)" fill="#fff"/>
        <path id="Trazado_918237" data-name="Trazado 918237" d="M292.051,61.231h79.5c-1.99-3-6.328-6.54-9.807-5.609-1.3.348-2.427,1.3-3.77,1.4a4.812,4.812,0,0,1-3.94-2.182c-.953-1.244-1.6-2.706-2.581-3.923-3.243-4-10.241-4.025-13.51-.043-1.76,2.146-3.091,5.471-5.865,5.386-2.243-.068-4.045-2.584-6.246-2.145-1.489.3-2.476,1.88-3.973,2.138a3.692,3.692,0,0,1-3.339-1.677c-.795-1.042-1.288-2.285-2.065-3.341-2.908-3.948-9.88-3.695-12.493.455-1.184,1.88-1.67,4.413-3.632,5.458-1.468.782-3.255.423-4.909.6S291.6,59.628,292.051,61.231Z" transform="translate(-242.802 -47.903)" fill="#fff"/>
        <path id="Trazado_918238" data-name="Trazado 918238" d="M110.692,251.541H238.159c-3.447-2.673-7.793-5.273-12.111-5.891-2.637-.378-5.452.06-7.879-1.039-3.668-1.661-5.4-6.375-9.254-7.555-3.355-1.028-7.026,1.063-10.434.231-2.968-.725-4.975-3.473-6.337-6.209s-2.4-5.733-4.568-7.889c-3.358-3.345-8.956-3.826-13.21-1.738s-7.177,6.36-8.386,10.942c-.531,2.012-.851,4.253-2.376,5.668-1.861,1.725-4.854,1.515-7.158.454s-4.222-2.814-6.447-4.033-5.069-1.849-7.247-.545c-3.05,1.825-4.139,6.932-7.692,6.842-2.486-.062-3.973-2.817-6.226-3.872-3.585-1.68-7.613,1.411-9.783,4.722S114.321,249.958,110.692,251.541Z" transform="translate(9.162 -107.514)" fill="#fff"/>
      </g>
      <g id="Grupo_1120209" data-name="Grupo 1120209" transform="translate(15.973 10.879)">
        <g id="Grupo_1120208" data-name="Grupo 1120208" transform="translate(0 0)" clip-path="url(#clip-path)">
          <path id="Trazado_918239" data-name="Trazado 918239" d="M-9.163,351.172c.4-3.229,3.688-6.97,6.87-7.89,1.84-.532,9,.375,9.074,3.217a5.327,5.327,0,0,1,3.77-5.1,5.326,5.326,0,0,1,5.876,2.394c1.265-5.365,10.335-4.529,9.516,1.125a4.334,4.334,0,0,1,7.244-2.578,5.8,5.8,0,0,1,8.156-7.5,7.973,7.973,0,0,1-1.654-9.815,7.5,7.5,0,0,1,.779-1.079,9.128,9.128,0,0,1,9.823-2.434,10.482,10.482,0,0,1,6.423,8.591c4.568.1,9.74,1,12.775,4.732a12.3,12.3,0,0,1,1.693,12.184,5.739,5.739,0,0,1,5.434-1.407c2.625.715,4.59,2.873,6.184,5.078a10.857,10.857,0,0,1,2.1,4.354,5.707,5.707,0,0,1,1-.141c2.544-.121,5.157,1.844,5.316,4.387.143,2.288-1.615,4.352-3.7,5.3a17.164,17.164,0,0,1-6.746,1.069l-60.63,1.406c-9.11.211-19.355-.017-25.7-6.56C-7.955,358.025-9.585,354.594-9.163,351.172Z" transform="translate(218.55 -136.324)" fill="#2da185"/>
          <path id="Trazado_918240" data-name="Trazado 918240" d="M89.706,359.342a5.764,5.764,0,0,0-5.324,3.273,5.043,5.043,0,0,0-7.177.46,4.8,4.8,0,1,0-9.462,1.531,6.506,6.506,0,0,0-8.731.022c-2.571-1.961-5.94-3.223-9.054-2.355s-5.508,4.447-4.287,7.441a6.354,6.354,0,0,0,4.149,3.421,18.816,18.816,0,0,0,5.511.54l25.656-.027c3.407,0,7-.056,9.929-1.8C95.513,369.112,96.816,359.612,89.706,359.342Z" transform="translate(179.384 -149.432)" fill="#51d4b3"/>
          <g id="Grupo_1120203" data-name="Grupo 1120203" transform="translate(88.496 69.883)">
            <g id="Grupo_1120194" data-name="Grupo 1120194" transform="translate(66.546)">
              <path id="Trazado_918241" data-name="Trazado 918241" d="M210.3,233.71s-.232-86.719-.927-87.414-.927-.464-2.087-.7-22.723,0-22.723,0-1.16.7-1.16,1.391v86.487Z" transform="translate(-181.547 -145.497)" fill="#e8d1a7"/>
              <path id="Trazado_918242" data-name="Trazado 918242" d="M181.488,169.6h28.443a1.16,1.16,0,0,0,1.16-1.16h0a1.16,1.16,0,0,0-1.16-1.16H181.488a1.159,1.159,0,0,0-1.159,1.16h0A1.159,1.159,0,0,0,181.488,169.6Z" transform="translate(-180.329 -153.033)" fill="#fff0d4"/>
              <path id="Trazado_918243" data-name="Trazado 918243" d="M181.488,198.316h28.443a1.159,1.159,0,0,0,1.16-1.159h0a1.16,1.16,0,0,0-1.16-1.16H181.488a1.159,1.159,0,0,0-1.159,1.16h0A1.159,1.159,0,0,0,181.488,198.316Z" transform="translate(-180.329 -162.969)" fill="#fff0d4"/>
              <path id="Trazado_918244" data-name="Trazado 918244" d="M181.488,227.033h28.443a1.16,1.16,0,0,0,1.16-1.16h0a1.159,1.159,0,0,0-1.16-1.159H181.488a1.159,1.159,0,0,0-1.159,1.159h0A1.159,1.159,0,0,0,181.488,227.033Z" transform="translate(-180.329 -172.904)" fill="#fff0d4"/>
              <path id="Trazado_918245" data-name="Trazado 918245" d="M181.488,255.75h28.443a1.16,1.16,0,0,0,1.16-1.16h0a1.159,1.159,0,0,0-1.16-1.159H181.488a1.159,1.159,0,0,0-1.159,1.159h0A1.159,1.159,0,0,0,181.488,255.75Z" transform="translate(-180.329 -182.84)" fill="#fff0d4"/>
            </g>
            <g id="Grupo_1120195" data-name="Grupo 1120195" transform="translate(15.072)">
              <path id="Trazado_918246" data-name="Trazado 918246" d="M289,233.71s-.232-86.719-.927-87.414-.927-.464-2.087-.7-22.723,0-22.723,0-1.159.7-1.159,1.391v86.487Z" transform="translate(-260.252 -145.497)" fill="#e8d1a7"/>
              <path id="Trazado_918247" data-name="Trazado 918247" d="M260.193,169.6h28.443a1.16,1.16,0,0,0,1.16-1.16h0a1.16,1.16,0,0,0-1.16-1.16H260.193a1.159,1.159,0,0,0-1.159,1.16h0A1.159,1.159,0,0,0,260.193,169.6Z" transform="translate(-259.034 -153.033)" fill="#fff0d4"/>
              <path id="Trazado_918248" data-name="Trazado 918248" d="M260.193,198.316h28.443a1.159,1.159,0,0,0,1.16-1.159h0a1.16,1.16,0,0,0-1.16-1.16H260.193a1.159,1.159,0,0,0-1.159,1.16h0A1.159,1.159,0,0,0,260.193,198.316Z" transform="translate(-259.034 -162.969)" fill="#fff0d4"/>
              <path id="Trazado_918249" data-name="Trazado 918249" d="M260.193,227.033h28.443a1.16,1.16,0,0,0,1.16-1.16h0a1.159,1.159,0,0,0-1.16-1.159H260.193a1.159,1.159,0,0,0-1.159,1.159h0A1.159,1.159,0,0,0,260.193,227.033Z" transform="translate(-259.034 -172.904)" fill="#fff0d4"/>
              <path id="Trazado_918250" data-name="Trazado 918250" d="M260.193,255.75h28.443a1.16,1.16,0,0,0,1.16-1.16h0a1.159,1.159,0,0,0-1.16-1.159H260.193a1.159,1.159,0,0,0-1.159,1.159h0A1.159,1.159,0,0,0,260.193,255.75Z" transform="translate(-259.034 -182.84)" fill="#fff0d4"/>
            </g>
            <g id="Grupo_1120198" data-name="Grupo 1120198" transform="translate(96.689 57.82)">
              <g id="Grupo_1120196" data-name="Grupo 1120196" transform="translate(31.149)">
                <path id="Trazado_918251" data-name="Trazado 918251" d="M127.188,299.773l-2.524-64.933a.779.779,0,0,0-.714-.748c-1.773-.147-6.4-.455-6.964.294-.7.927-2.551,64.923-1.855,65.387S125.565,300.7,127.188,299.773Z" transform="translate(-114.978 -233.903)" fill="#c2a77e"/>
                <path id="Trazado_918252" data-name="Trazado 918252" d="M127.016,250.945c-1.946.057-6.254,0-8.859-.041.052-1.256.1-2.443.153-3.544,2.609-.014,7.163.177,8.577.24Z" transform="translate(-116.885 -238.559)" fill="#e8d1a7"/>
              </g>
              <g id="Grupo_1120197" data-name="Grupo 1120197" transform="translate(9.508)">
                <path id="Trazado_918253" data-name="Trazado 918253" d="M160.278,299.773l-2.524-64.933a.78.78,0,0,0-.714-.748c-1.774-.147-6.4-.455-6.965.294-.7.927-2.55,64.923-1.855,65.387S158.655,300.7,160.278,299.773Z" transform="translate(-148.067 -233.903)" fill="#c2a77e"/>
                <path id="Trazado_918254" data-name="Trazado 918254" d="M160.105,250.945c-1.946.057-6.254,0-8.859-.041.052-1.256.1-2.443.153-3.544,2.608-.014,7.163.177,8.576.24Z" transform="translate(-149.974 -238.559)" fill="#e8d1a7"/>
              </g>
              <path id="Trazado_918255" data-name="Trazado 918255" d="M105.3,358.032s1.545-22.723-1.392-34.007-9.5-15.9-16.455-17.14A40.691,40.691,0,0,0,75,306.558l.309,8.968s13.294-2.475,17,3.862,4.946,15.3,5.1,21.641,0,17.468,0,17.468Z" transform="translate(-36.204 -258.929)" fill="#c2a77e"/>
              <path id="Trazado_918256" data-name="Trazado 918256" d="M152.678,369.766v-34.78s.232-2.319-1.391-2.551-52.634,0-52.634,0v37.1Z" transform="translate(-98.652 -267.958)" fill="#c2a77e"/>
            </g>
            <g id="Grupo_1120199" data-name="Grupo 1120199" transform="translate(0 84.04)">
              <path id="Trazado_918257" data-name="Trazado 918257" d="M170.96,274.169c1.438-.234,100.11-.234,101.547,0,1.623.264,1.391,2.908,1.391,2.908v39.658H169.569V277.077S169.337,274.433,170.96,274.169Z" transform="translate(-169.558 -273.993)" fill="#c2a77e"/>
              <path id="Trazado_918258" data-name="Trazado 918258" d="M209.642,306.516V283.947a.9.9,0,0,0-.927-.618h-7.033s-.542.154-.542.618v22.492s-.154.618.387.618h7.5S209.719,306.825,209.642,306.516Z" transform="translate(-125.937 -277.223)" fill="#e8d1a7"/>
              <path id="Trazado_918259" data-name="Trazado 918259" d="M232.331,306.516V283.947a.9.9,0,0,0-.927-.618H224.37s-.541.154-.541.618v22.492s-.155.618.386.618h7.5S232.408,306.825,232.331,306.516Z" transform="translate(-163.466 -277.223)" fill="#e8d1a7"/>
              <path id="Trazado_918260" data-name="Trazado 918260" d="M255.021,306.516V283.947a.9.9,0,0,0-.927-.618H247.06s-.541.154-.541.618v22.492s-.155.618.387.618h7.5S255.1,306.825,255.021,306.516Z" transform="translate(-200.996 -277.223)" fill="#e8d1a7"/>
              <path id="Trazado_918261" data-name="Trazado 918261" d="M277.711,306.516V283.947a.9.9,0,0,0-.927-.618H269.75s-.541.154-.541.618v22.492s-.154.618.387.618h7.5S277.789,306.825,277.711,306.516Z" transform="translate(-238.525 -277.223)" fill="#e8d1a7"/>
            </g>
            <g id="Grupo_1120201" data-name="Grupo 1120201" transform="translate(14.53 119.672)">
              <path id="Trazado_918262" data-name="Trazado 918262" d="M259.343,368.459c-.035-.795,0-38.727,0-37.972s-1.006-2.012-2.515-2.012h-85s-2.012.251-2.264,1.257,0,39.139,0,39.139.252,1.852,1.761,2.1,85.752,0,85.752,0S259.408,369.962,259.343,368.459Z" transform="translate(-169.455 -328.475)" fill="#fff0d4"/>
              <path id="Trazado_918263" data-name="Trazado 918263" d="M221.019,339.309q.012-4.332.024-8.664a.52.52,0,0,1,1.039,0q-.041,15.325-.083,30.649-.012,4.332-.024,8.664a.52.52,0,0,1-1.04,0Q220.977,354.634,221.019,339.309Z" transform="translate(-165.861 -329.052)" fill="#e8d1a7"/>
              <g id="Grupo_1120200" data-name="Grupo 1120200" transform="translate(2.291 3.772)">
                <path id="Trazado_918264" data-name="Trazado 918264" d="M227.817,338.046h46.868a1.9,1.9,0,0,0,1.9-1.9h0a1.9,1.9,0,0,0-1.9-1.9H227.817a1.9,1.9,0,0,0-1.9,1.9h0A1.9,1.9,0,0,0,227.817,338.046Z" transform="translate(-225.915 -334.242)" fill="#c2a77e"/>
                <path id="Trazado_918265" data-name="Trazado 918265" d="M227.817,348.928h46.868a1.9,1.9,0,0,0,1.9-1.9h0a1.9,1.9,0,0,0-1.9-1.9H227.817a1.9,1.9,0,0,0-1.9,1.9h0A1.9,1.9,0,0,0,227.817,348.928Z" transform="translate(-225.915 -338.007)" fill="#c2a77e"/>
                <path id="Trazado_918266" data-name="Trazado 918266" d="M227.817,359.81h46.868a1.9,1.9,0,0,0,1.9-1.9h0a1.9,1.9,0,0,0-1.9-1.9H227.817a1.9,1.9,0,0,0-1.9,1.9h0A1.9,1.9,0,0,0,227.817,359.81Z" transform="translate(-225.915 -341.772)" fill="#c2a77e"/>
                <path id="Trazado_918267" data-name="Trazado 918267" d="M227.817,370.693h46.868a1.9,1.9,0,0,0,1.9-1.9h0a1.9,1.9,0,0,0-1.9-1.9H227.817a1.9,1.9,0,0,0-1.9,1.9h0A1.9,1.9,0,0,0,227.817,370.693Z" transform="translate(-225.915 -345.537)" fill="#c2a77e"/>
                <path id="Trazado_918268" data-name="Trazado 918268" d="M227.817,381.575h46.868a1.9,1.9,0,0,0,1.9-1.9h0a1.9,1.9,0,0,0-1.9-1.9H227.817a1.9,1.9,0,0,0-1.9,1.9h0A1.9,1.9,0,0,0,227.817,381.575Z" transform="translate(-225.915 -349.302)" fill="#c2a77e"/>
              </g>
            </g>
            <g id="Grupo_1120202" data-name="Grupo 1120202" transform="translate(86.377 81.708)">
              <path id="Trazado_918269" data-name="Trazado 918269" d="M163.746,339.248l-.614-47.272s-1.481-21.832-23.625-21.544S113,287.917,112.26,292.636s-.816,46.967-.816,46.967S149.613,341.88,163.746,339.248Z" transform="translate(-107.763 -270.429)" fill="#82a827"/>
              <path id="Trazado_918270" data-name="Trazado 918270" d="M112.287,297.08a41.8,41.8,0,0,1,.2-4.444c.736-4.718,5.1-21.916,27.247-22.2s23.625,21.544,23.625,21.544l.063,4.855C155.218,297.1,127.558,298.206,112.287,297.08Z" transform="translate(-107.993 -270.429)" fill="#b2db60"/>
              <path id="Trazado_918271" data-name="Trazado 918271" d="M164.9,380.28s-.833-5.075-5.25-5.771c0,0-16.861.407-26.062.339S108.1,374.8,108.1,374.8s-3.8,2.686-3.954,5.514c0,0,19.126,1.823,34.842,1.808A163.012,163.012,0,0,0,164.9,380.28Z" transform="translate(-104.144 -306.438)" fill="#628212"/>
              <path id="Trazado_918272" data-name="Trazado 918272" d="M150.186,344.412a8.631,8.631,0,0,0,2.841-4.674,13.97,13.97,0,0,0,.3-3.022,5.69,5.69,0,0,0-.2-1.527c-.08-.292-.257-1.088-.517-1.258a6.591,6.591,0,0,1,2.573,7.233,6.266,6.266,0,0,1-5.919,4.479A3.189,3.189,0,0,1,150.186,344.412Zm-6.971-5.045a12.08,12.08,0,0,1-1.551-8.815,21,21,0,0,1,1.61-5.119,15.207,15.207,0,0,1,2.441-3.788,9.638,9.638,0,0,0,2.048,6.2,33.372,33.372,0,0,1,3.04,4.583,9.5,9.5,0,0,1,.636,7.207c-1.91,5.067-4.336,6.189-5.024,6.377a3.146,3.146,0,0,0,.047-.868,5.194,5.194,0,0,0-.116-.944,5.139,5.139,0,0,0-.7-1.7C144.922,341.381,143.965,340.465,143.215,339.367Zm-2.3-9.783a7.418,7.418,0,0,0-.64,3.219,12.024,12.024,0,0,0,1.876,6.925,30.176,30.176,0,0,1,2.084,2.742,15.19,15.19,0,0,1,1.341,3.358c-.005-.019-1.445-.154-1.589-.186a8.51,8.51,0,0,1-1.6-.522,8,8,0,0,1-2.672-1.867,8.592,8.592,0,0,1-2.177-6.135,11.845,11.845,0,0,1,.823-4.5A8.129,8.129,0,0,1,140.917,329.584Z" transform="translate(-116.524 -288.148)" fill="#ffb81e"/>
              <path id="Trazado_918273" data-name="Trazado 918273" d="M117.6,274.427a22.807,22.807,0,0,1,19.292,19.729c.064.5-.715.5-.778.01A22.037,22.037,0,0,0,117.4,275.18C116.908,275.107,117.107,274.354,117.6,274.427Z" transform="translate(-84.622 -271.81)" fill="#fff"/>
              <path id="Trazado_918274" data-name="Trazado 918274" d="M111.045,377.354h42.819a.48.48,0,0,1,0,.959H111.045A.48.48,0,0,1,111.045,377.354Z" transform="translate(-97.78 -307.423)" fill="#82a827"/>
            </g>
          </g>
          <g id="Grupo_1120205" data-name="Grupo 1120205" transform="translate(-17.004 223.653)">
            <rect id="Rectángulo_405723" data-name="Rectángulo 405723" width="312.559" height="77.908" transform="translate(0 0.989)" fill="#82a827"/>
            <path id="Trazado_918275" data-name="Trazado 918275" d="M12.52,458.073v-33.28a34.22,34.22,0,0,1,12.136-1.58l78.559,1.564,138.633,2.759,69.316,1.38c3.466.069,9.065-.906,13.914-.26v30.618H14.487Q13.487,458.717,12.52,458.073Z" transform="translate(-12.52 -395.347)" fill="#628212"/>
            <g id="Grupo_1120204" data-name="Grupo 1120204" transform="translate(0)">
              <rect id="Rectángulo_405724" data-name="Rectángulo 405724" width="312.559" height="10.666" transform="translate(0 3.014)" fill="#e8d1a7"/>
              <rect id="Rectángulo_405725" data-name="Rectángulo 405725" width="312.559" height="3.014" fill="#c2a77e"/>
            </g>
          </g>
          <g id="Grupo_1120206" data-name="Grupo 1120206" transform="translate(189.587 185.499)">
            <path id="Trazado_918276" data-name="Trazado 918276" d="M116.844,400.29a17.091,17.091,0,0,0,4.722-3.884,5.8,5.8,0,0,0,.939-5.775c-.878-1.852-3.527-2.809-5.124-1.523,1.235-4.253,5.339-6.968,9.335-8.876s8.36-3.518,11.22-6.9,3.325-9.3-.37-11.744c-1.751-1.157-4.074-1.317-5.653-2.7-1.685-1.476-2.065-4.01-1.611-6.2a28.292,28.292,0,0,1,2.557-6.195,39.558,39.558,0,0,0,3.763-15.3c.139-3.464-.767-7.727-4.088-8.727a5.961,5.961,0,0,0-5.46,1.515,17.591,17.591,0,0,0-3.451,4.77q-3.332,5.9-6.662,11.8c-1.126,1.994-2.749,4.271-5.032,4.092-2.537-.2-4.02-3.382-6.549-3.66-2.649-.291-4.389,2.636-5.317,5.134a109.736,109.736,0,0,0-5.114,18.672,13.366,13.366,0,0,1-1.258,4.3,4.2,4.2,0,0,1-3.6,2.308c-1.273-.056-2.4-.893-3.672-1-2.65-.215-4.4,2.634-5.383,5.105a88.907,88.907,0,0,0-5.23,19.253c-.6,3.87-.91,7.959.559,11.589C82.637,421.848,108.556,405.578,116.844,400.29Z" transform="translate(-75.305 -322.274)" fill="#628212"/>
            <path id="Trazado_918277" data-name="Trazado 918277" d="M92.174,413.309q3.569-3.83,6.95-7.827c0-.006,0-.012,0-.017a71.384,71.384,0,0,0-2.343-13.481c-.178-.647.812-.986.992-.336a72.937,72.937,0,0,1,2.3,12.712q5.7-6.818,10.844-14.078,2.554-3.608,4.953-7.322a.567.567,0,0,1-.18-.361,91.715,91.715,0,0,0-3.484-19.271c-.19-.646.8-.983.991-.336a93.093,93.093,0,0,1,3.468,18.737q5.218-8.167,9.711-16.769,3.854-7.39,7.141-15.058c.266-.619,1.2-.143.933.475a220.887,220.887,0,0,1-13.569,26.532c-.988,1.646-2,3.275-3.033,4.9l18.4-2.668c.666-.1.723.949.06,1.045l-19.2,2.783a222.124,222.124,0,0,1-13.183,18.342q-1.357,1.7-2.748,3.368a205.4,205.4,0,0,1,20.536-2.192.523.523,0,0,1,.06,1.044,205.426,205.426,0,0,0-21.618,2.354q-3.5,4.146-7.2,8.124C92.5,414.5,91.713,413.8,92.174,413.309Z" transform="translate(-82.812 -331.733)" fill="#82a827"/>
          </g>
          <g id="Grupo_1120207" data-name="Grupo 1120207" transform="translate(151.618 210.331)">
            <path id="Trazado_918278" data-name="Trazado 918278" d="M206.051,414.73c.808-1.812,1.535-3.807,1.095-5.741s-2.532-3.6-4.379-2.877c-1.471.578-2.834,2.46-4.173,1.623-.992-.621-.716-2.109-.377-3.23a32.428,32.428,0,0,0,1.267-12.052,8.637,8.637,0,0,0-1.221-4.243,3.574,3.574,0,0,0-3.853-1.576c-.863.286-1.54,1-2.411,1.254-1.615.477-3.313-.817-3.938-2.381a12.365,12.365,0,0,1-.428-4.995,41.409,41.409,0,0,0-2.792-16.248c-.753-1.937-2.133-4.126-4.209-4.018a3.616,3.616,0,0,0-2.9,2.268,10.644,10.644,0,0,0-.68,3.793l-.775,13.909a3.379,3.379,0,0,1-.683,2.247c-1.125,1.143-3.126.131-4.006-1.209s-1.368-3.044-2.723-3.9c-1.871-1.181-4.515.01-5.616,1.929s-1.054,4.271-.857,6.475a64.028,64.028,0,0,0,3.75,16.461,7.067,7.067,0,0,1,.649,2.908,2.263,2.263,0,0,1-1.736,2.16c-1.088.139-2.048-.812-3.144-.848a2.639,2.639,0,0,0-2.42,2.258,7.019,7.019,0,0,0,.506,3.526A53.286,53.286,0,0,0,175.7,435.5c6.325,5.425,10.67,3.746,16.105-1.3A59.9,59.9,0,0,0,206.051,414.73Z" transform="translate(-159.414 -360.243)" fill="#b2db60"/>
            <path id="Trazado_918279" data-name="Trazado 918279" d="M174.991,423.082l13.192,8.15q.7-8.237.886-16.5a72.768,72.768,0,0,0-12.381-12.888c-.523-.425.122-1.249.645-.824A73.9,73.9,0,0,1,189.1,413.068q.116-7.429-.186-14.859-.238-5.736-.727-11.458a.524.524,0,0,1,1.041-.114,264.329,264.329,0,0,1,.908,26.688l10.982-8.614c.531-.417,1.161.42.631.835l-11.643,9.133c-.094,4.368-.283,8.734-.593,13.094-.091,1.276-.207,2.55-.317,3.824l15.154-11.011c.545-.4,1.176.439.63.835l-15.638,11.364a.5.5,0,0,1-.251.092c-.2,2.193-.42,4.384-.674,6.571-.078.669-1.113.512-1.035-.158.266-2.3.491-4.6.7-6.9l-13.736-8.486C173.773,423.553,174.424,422.733,174.991,423.082Z" transform="translate(-166.948 -369.219)" fill="#628212"/>
          </g>
        </g>
      </g>
      <g id="Grupo_1120229" data-name="Grupo 1120229" transform="translate(12.431 10.879)">
        <g id="Grupo_1120228" data-name="Grupo 1120228" transform="translate(0 0)" clip-path="url(#clip-path-2)">
          <g id="Grupo_1120227" data-name="Grupo 1120227" transform="translate(1.182 22.033)">
            <path id="Trazado_918281" data-name="Trazado 918281" d="M385.574,429.459l2.908,29.321s-91.6,1.455-91.6-.727,2.665-25.444,2.665-25.444Z" transform="translate(-276.547 -195.892)" fill="#423c39"/>
            <g id="Grupo_1120210" data-name="Grupo 1120210" transform="translate(20.09 78.157)">
              <path id="Trazado_918282" data-name="Trazado 918282" d="M284.1,218.266s11.753,17.811,14.782,24.475,10.283,29.014,11.631,34.168c-1.638,1.315-11.995,6.3-15.145,5.089s-9.693-47.98-9.693-47.98Z" transform="translate(-210.311 -200.981)" fill="#d77b51"/>
              <path id="Trazado_918283" data-name="Trazado 918283" d="M352.359,199.72s14.037,9.275,15.814,11.375,9.37,36.51,10.662,40.387,4.039,54.927,4.362,61.388.969,25.525.969,26.494-4.2,3.715-7.916,4.362a280.356,280.356,0,0,1-31.987,2.585c-14.054.323-26.332-2.746-33.118-3.554a69.134,69.134,0,0,1-11.793-2.423s.646-53.15,1.131-60.258,1.777-56.057,1.777-56.057l-.646-22.94s16.16-6.037,19.793-6.33,20.756,4.392,20.756,4.392Z" transform="translate(-293.938 -192.84)" fill="#d77b51"/>
              <path id="Trazado_918284" data-name="Trazado 918284" d="M349.982,191.837c2.585,0,17.931,2.423,17.931,2.423a52.344,52.344,0,0,1,6.157,4.457c1.255,3.37,3.789,10.911,3.052,15.09-.969,5.492-13.409,9.208-21.486-.162-6.627-7.688-11.511-16.133-12.517-19.9A27,27,0,0,1,349.982,191.837Z" transform="translate(-315.65 -191.837)" fill="#e8ac8f"/>
              <path id="Trazado_918285" data-name="Trazado 918285" d="M373.506,217.639s-1.939-5.937-2.908-7.391-12.116-8.723-12.6-8.723.121,2.544.121,2.544,4.12,13.57,4.847,16.478,1.454,5.574.848,6.543-11.146.848-18.053.606-14.418-.364-15.509-1.818-1.454-6.664-3.15-13.328-5.574-17.2-6.664-17.447-12.479,3.393-12.964,4.362,4.483,12.964,5.331,17.932,2.06,29.563,1.939,35.258-8.723,24.959-9.935,27.02-3.756,15.508-4.483,17.568-4.241,50.4-4.12,51.857a3.618,3.618,0,0,0,1.939,3.029c1.091.606,30.048,4.725,38.166,5.453s32.108-1.818,39.62-4,11.995-4,12.48-5.21-1.333-13.933-1.455-16.963-2.908-46.647-2.786-50.887-1.939-24.475-2.787-30.412S375.929,225.272,373.506,217.639Z" transform="translate(-296.202 -192.963)" fill="#ffb81e"/>
              <path id="Trazado_918286" data-name="Trazado 918286" d="M305.553,303.3c8.236.674,18.591,1.551,26.318,2.3,11.918,1.154,36.491.02,46.142-.5.257,2.77.482,5.426.639,7.65-8.318,1-32.924.708-42.9-.124-7.4-.617-22.543-2.311-32.586-3.464C303.945,307.33,304.768,305.323,305.553,303.3Z" transform="translate(-290.916 -230.403)" fill="#ffecb5"/>
              <path id="Trazado_918287" data-name="Trazado 918287" d="M335.437,404.825c-14.417-1.5-28.548-2.817-37.215-3.6.169-2.331.349-4.776.536-7.247,10.188.837,29.309,3.477,48.311,3.819a210.64,210.64,0,0,0,40.532-2.822c.166,2.778.278,4.692.3,5.245s.1,1.445.215,2.527C378.353,404.474,354.213,406.781,335.437,404.825Z" transform="translate(-297.147 -261.774)" fill="#ffecb5"/>
              <path id="Trazado_918288" data-name="Trazado 918288" d="M353.579,252.416q-.252-1.532-.536-3.058c-.116-.63.848-.9.966-.266a176.038,176.038,0,0,1,2.661,24.133c.368,8.146.285,16.3.007,24.452-.279,8.194-.757,16.378-1.185,24.564s-.807,16.373-.889,24.57a237.874,237.874,0,0,0,.883,24.351q.144,1.547.315,3.092c.07.64-.932.635-1,0a222.273,222.273,0,0,1-1.213-24.332c0-8.153.331-16.3.74-24.443s.9-16.3,1.226-24.451c.326-8.113.492-16.237.247-24.354A183.565,183.565,0,0,0,353.579,252.416Z" transform="translate(-301.798 -211.521)" fill="#423c39"/>
              <path id="Trazado_918289" data-name="Trazado 918289" d="M390.7,199.166a62.958,62.958,0,0,1,6.96,26.22c.027.644-.974.643-1,0a61.79,61.79,0,0,0-6.823-25.715C389.537,199.1,390.4,198.592,390.7,199.166Z" transform="translate(-366.566 -194.285)" fill="#ffd863"/>
              <path id="Trazado_918290" data-name="Trazado 918290" d="M311.213,218.931a225.643,225.643,0,0,1,8.251,32.338q.818,4.615,1.444,9.26c.085.631-.88.9-.966.266a225.72,225.72,0,0,0-6.9-32.654q-1.306-4.5-2.8-8.944C310.042,218.585,311.009,218.322,311.213,218.931Z" transform="translate(-237.791 -201.091)" fill="#ffd863"/>
            </g>
            <g id="Grupo_1120217" data-name="Grupo 1120217" transform="translate(35.088)">
              <path id="Trazado_918291" data-name="Trazado 918291" d="M330.076,120.47a48.638,48.638,0,0,0,7.64,43.921c.68.88,2.157.252,3.073-.379a10.923,10.923,0,0,1,2.78-1.812c2.753-.842,5.508,2.241,8.31,1.583,1.459-1.484,3.75-1.148,5.687-.386s3.816,1.925,5.9,1.9a13.371,13.371,0,0,0,3.816-.912,6.8,6.8,0,0,1,3.867-.353,2.787,2.787,0,0,1,2.146,2.885,2.391,2.391,0,0,0,3.035-.294,7.14,7.14,0,0,0,1.511-3.013,174.584,174.584,0,0,0,4.426-17.3c.717-3.547,1.313-7.289.186-10.728a14.358,14.358,0,0,0-5.11-6.774,31.4,31.4,0,0,0-7.6-4c-9.631-3.789-19.913-5.628-30.175-6.973A12.686,12.686,0,0,0,330.076,120.47Z" transform="translate(-326.474 -88.039)" fill="#423c39"/>
              <path id="Trazado_918292" data-name="Trazado 918292" d="M375.976,157.726a10.409,10.409,0,0,0-.8-1.886,13.336,13.336,0,0,0-6.055-5.3,47.382,47.382,0,0,0-7.744-2.6c-5.074-1.432-10.116-3.117-15.357-3.695-4.359-.48-11.973-.622-14.976,3.39-2.848,3.805.087,11.329,1.487,15.159a27.165,27.165,0,0,0,4.98,8.619c.091-.037.174-.089.269-.118,2.753-.842,5.507,2.241,8.31,1.583,1.459-1.484,3.75-1.148,5.687-.386s3.816,1.925,5.9,1.9a13.371,13.371,0,0,0,3.816-.912,6.8,6.8,0,0,1,3.867-.353,2.787,2.787,0,0,1,2.146,2.885,2.39,2.39,0,0,0,3.035-.294,7.134,7.134,0,0,0,1.511-3.012Q374.351,165.306,375.976,157.726Z" transform="translate(-320.689 -97.129)" fill="#262221"/>
              <path id="Trazado_918293" data-name="Trazado 918293" d="M350.514,186.949A40.86,40.86,0,0,0,368.3,205.14c.057-.007.114-.007.171-.015s.084-.02.127-.028c6.762-6.783,5.5-18.528,5.6-18.511-.095-.853-.174-1.7-.211-2.539a2.054,2.054,0,0,0-.205-.97,2.114,2.114,0,0,0-1.585-.751c-6.987-1.105-14.548-2.853-20.8-6.155A44.972,44.972,0,0,1,350.514,186.949Z" transform="translate(-332.466 -108.259)" fill="#e8ac8f"/>
              <path id="Trazado_918294" data-name="Trazado 918294" d="M329.83,122.446a53.033,53.033,0,0,1-1.273,14.944,45.956,45.956,0,0,0-.1,21.851c.1.39-.4.842-.727.6a11.381,11.381,0,0,1-3.668-5.164,27.869,27.869,0,0,1-1.295-6.2c-1.006-8.194-1.216-16.834,2.211-24.343a5.8,5.8,0,0,1,1.6-2.3C327.335,121.263,329.056,121.9,329.83,122.446Z" transform="translate(-269.577 -89.383)" fill="#423c39"/>
              <path id="Trazado_918295" data-name="Trazado 918295" d="M374.511,110.452a29.118,29.118,0,0,1,.264,13.809,30.634,30.634,0,0,0-.89,9.706c.276,3,.014,8.275-1.648,10.79-4.226,6.394-6.669,8.88-13.638,13.038-1.387.828-5.884,1.485-7.392.906-7.055-2.708-14.954-6.848-17.454-13.98a119.9,119.9,0,0,1-3.6-12.364c-1.085-4.642-2.388-9.176-2.256-13.941a23.441,23.441,0,0,1,4.284-13.408,22.081,22.081,0,0,1,10.674-7.436,34.52,34.52,0,0,1,13.039-1.513c4.267.249,8.609,1.111,12.224,3.392S373.361,106.334,374.511,110.452Z" transform="translate(-318.907 -80.516)" fill="#e8ac8f"/>
              <g id="Grupo_1120211" data-name="Grupo 1120211" transform="translate(27.587 44.844)">
                <path id="Trazado_918296" data-name="Trazado 918296" d="M369.331,142.115a4.738,4.738,0,0,0,.088,1.787,2.1,2.1,0,0,0,.228.735.713.713,0,0,0,.634.372.691.691,0,0,0,.488-.318,1.7,1.7,0,0,0,.218-.557,6.959,6.959,0,0,0,.163-2.386C370.986,140.182,369.547,141.073,369.331,142.115Z" transform="translate(-369.276 -140.9)" fill="#262221"/>
              </g>
              <g id="Grupo_1120212" data-name="Grupo 1120212" transform="translate(42.461 45.106)">
                <path id="Trazado_918297" data-name="Trazado 918297" d="M346.589,142.516a4.738,4.738,0,0,0,.088,1.787,2.117,2.117,0,0,0,.228.736.714.714,0,0,0,.634.371.691.691,0,0,0,.488-.319,1.7,1.7,0,0,0,.218-.557,6.942,6.942,0,0,0,.163-2.386C348.243,140.583,346.8,141.474,346.589,142.516Z" transform="translate(-346.534 -141.301)" fill="#262221"/>
              </g>
              <g id="Grupo_1120213" data-name="Grupo 1120213" transform="translate(25.981 44.1)">
                <path id="Trazado_918298" data-name="Trazado 918298" d="M371.343,141.359a.286.286,0,0,1-.141-.037,4.7,4.7,0,0,0-4.306-.071.291.291,0,0,1-.4-.154,3.222,3.222,0,0,0-.509-.861.291.291,0,0,1,.449-.369,3.891,3.891,0,0,1,.476.736,5.234,5.234,0,0,1,4.574.211.29.29,0,0,1-.141.544Z" transform="translate(-365.918 -139.762)" fill="#262221"/>
              </g>
              <g id="Grupo_1120214" data-name="Grupo 1120214" transform="translate(41.707 44.645)">
                <path id="Trazado_918299" data-name="Trazado 918299" d="M346.823,142.017a.286.286,0,0,1-.171-.056,4.328,4.328,0,0,0-4.487-.28.29.29,0,1,1-.28-.508,4.867,4.867,0,0,1,4.865.154l.047-.068c.074-.107.148-.213.218-.309a.291.291,0,0,1,.469.344c-.068.091-.138.194-.209.3s-.148.213-.218.309A.288.288,0,0,1,346.823,142.017Z" transform="translate(-341.735 -140.596)" fill="#262221"/>
              </g>
              <g id="Grupo_1120215" data-name="Grupo 1120215" transform="translate(41.148 38.342)">
                <path id="Trazado_918300" data-name="Trazado 918300" d="M346.8,132.243a.3.3,0,0,1-.1-.019,10.958,10.958,0,0,0-7.492-.046.29.29,0,0,1-.2-.545,11.535,11.535,0,0,1,7.9.048.291.291,0,0,1-.1.562Z" transform="translate(-338.813 -130.959)" fill="#423c39"/>
              </g>
              <g id="Grupo_1120216" data-name="Grupo 1120216" transform="translate(23.308 37.505)">
                <path id="Trazado_918301" data-name="Trazado 918301" d="M364.144,131.3a.29.29,0,0,1-.121-.554,12.013,12.013,0,0,1,9.388-.21.29.29,0,1,1-.219.538,11.431,11.431,0,0,0-8.926.2A.277.277,0,0,1,364.144,131.3Z" transform="translate(-363.854 -129.679)" fill="#423c39"/>
              </g>
              <path id="Trazado_918302" data-name="Trazado 918302" d="M375.734,132.258a12.379,12.379,0,0,1-5.567.812,5.475,5.475,0,0,1-4.424-3.122,5.378,5.378,0,0,1,.805-4.936,11.2,11.2,0,0,1,4.007-3.255,22.578,22.578,0,0,1,15.439-2.2c1.466.332,6.4,1.33,4.928,3.6-1.288,1.992-4.638,3.72-6.615,4.964A40.369,40.369,0,0,1,375.734,132.258Z" transform="translate(-359.189 -88.494)" fill="#423c39"/>
              <path id="Trazado_918303" data-name="Trazado 918303" d="M400.555,140.641a3.118,3.118,0,0,0-4.069-2.173,4.545,4.545,0,0,0-2.732,4.15,8.688,8.688,0,0,0,1.625,4.932,16.459,16.459,0,0,0,6.687,5.862C402.115,149.27,401.151,144.741,400.555,140.641Z" transform="translate(-388.573 -95.157)" fill="#e8ac8f"/>
              <path id="Trazado_918304" data-name="Trazado 918304" d="M383.807,136.165a64.255,64.255,0,0,0,3.019,24.82c.94,2.859,2.16,5.766,4.439,7.731.256.221.805-.5.687-.819a59.777,59.777,0,0,1-3.789-26.347c.139-1.411.646-5.525.117-6.841S385.114,135.614,383.807,136.165Z" transform="translate(-371.855 -93.773)" fill="#423c39"/>
              <path id="Trazado_918305" data-name="Trazado 918305" d="M401.157,174.848a32.642,32.642,0,0,1-6.245-14.186c-.156-.882-1.5-.508-1.344.371a33.531,33.531,0,0,0,6.386,14.518C400.492,176.254,401.7,175.561,401.157,174.848Z" transform="translate(-387.675 -102.72)" fill="#262221"/>
              <path id="Trazado_918306" data-name="Trazado 918306" d="M376.314,109.608a246.217,246.217,0,0,0-68.2.793,2.663,2.663,0,0,1-2.075-2.358,2.628,2.628,0,0,1,1.918-2.46c-.659-10.3,5.007-20.627,13.468-26.541A29.81,29.81,0,0,1,350.868,76.6,28.867,28.867,0,0,1,366.88,101.3a66.582,66.582,0,0,1,9.354,6.873,1.52,1.52,0,0,1,.663,1.118C376.866,109.744,376.488,110.022,376.314,109.608Z" transform="translate(-306.044 -72.844)" fill="#ffd863"/>
              <path id="Trazado_918307" data-name="Trazado 918307" d="M333.133,124.886l21.331.209a.536.536,0,0,1,0,1.071l-21.331-.209A.536.536,0,0,1,333.133,124.886Z" transform="translate(-301.505 -90.516)" fill="#d77b51"/>
              <path id="Trazado_918308" data-name="Trazado 918308" d="M374.381,102.1a2.926,2.926,0,0,1,1.247-5.033c6.411-1.564,13.427-.668,20.018-.334a2.775,2.775,0,0,1-.221,5.545A143.249,143.249,0,0,1,374.381,102.1Z" transform="translate(-371.469 -80.583)" fill="#ffd863"/>
              <path id="Trazado_918309" data-name="Trazado 918309" d="M324.939,76.289A24.4,24.4,0,0,1,353.4,90.611c1,2.4,4.341,3.124,6.931,2.861a4.662,4.662,0,0,0,2.26-.763,2.578,2.578,0,0,0,1.132-2.027c-.019-5.969-5.3-10.816-10.393-13.937a31.993,31.993,0,0,0-17.112-4.407A17.521,17.521,0,0,0,324.939,76.289Z" transform="translate(-305.227 -72.334)" fill="#ffd863"/>
              <path id="Trazado_918310" data-name="Trazado 918310" d="M353.192,162.322h.037a1.846,1.846,0,0,0,1.545-1.3,2.769,2.769,0,0,0-.135-1.891,7.307,7.307,0,0,0-.9-1.476.436.436,0,0,0-.708.508h0a6.559,6.559,0,0,1,.8,1.3,1.907,1.907,0,0,1,.113,1.29,1,1,0,0,1-.789.7.436.436,0,0,0,.035.87Z" transform="translate(-314.58 -101.789)" fill="#d77b51"/>
              <path id="Trazado_918311" data-name="Trazado 918311" d="M357.612,176.474c-.1,0-.207,0-.311-.007a8.487,8.487,0,0,1-5.276-2.148.435.435,0,1,1,.584-.646,7.49,7.49,0,0,0,9.589.373.435.435,0,1,1,.53.691A8.5,8.5,0,0,1,357.612,176.474Z" transform="translate(-322.024 -107.356)" fill="#cf3645"/>
              <path id="Trazado_918312" data-name="Trazado 918312" d="M353.8,181.607c4.9,3.8,11.53,8.585,17.979,5.447.577-.281,1.086.583.506.865a12.746,12.746,0,0,1-9.95.156c-3.444-1.269-6.371-3.534-9.243-5.76C352.586,181.921,353.3,181.217,353.8,181.607Z" transform="translate(-332.348 -110.101)" fill="#d77b51"/>
              <path id="Trazado_918313" data-name="Trazado 918313" d="M374.029,103.594l11.464.491,5.732.245c1.439.061,3.708.215,4.207-1.558a.5.5,0,0,1,.966.266,3.567,3.567,0,0,1-3.489,2.315,60.214,60.214,0,0,1-6.169-.214l-12.71-.544C373.388,104.568,373.384,103.566,374.029,103.594Z" transform="translate(-369.713 -82.743)" fill="#ffb81e"/>
              <path id="Trazado_918314" data-name="Trazado 918314" d="M331.1,116.586a212.851,212.851,0,0,1,38.388-2.613q5.457.127,10.9.534c.639.047.644,1.049,0,1a212.031,212.031,0,0,0-38.215.6q-5.423.579-10.81,1.44C330.732,117.652,330.461,116.687,331.1,116.586Z" transform="translate(-326.162 -86.721)" fill="#ffb81e"/>
              <path id="Trazado_918315" data-name="Trazado 918315" d="M373.218,95.99a5.827,5.827,0,0,1,6.016,1.965.517.517,0,0,1,0,.708.5.5,0,0,1-.708,0,4.852,4.852,0,0,0-5.042-1.707A.5.5,0,0,1,373.218,95.99Z" transform="translate(-352.222 -80.451)" fill="#ffecb5"/>
              <path id="Trazado_918316" data-name="Trazado 918316" d="M386.538,95.817l9.854.085a.5.5,0,0,1,0,1l-9.854-.084A.5.5,0,0,1,386.538,95.817Z" transform="translate(-378.35 -80.459)" fill="#ffecb5"/>
              <path id="Trazado_918317" data-name="Trazado 918317" d="M327.492,76.807A25.923,25.923,0,0,1,348.324,84.8a24.422,24.422,0,0,1,2.378,2.957c.778,1.14,1.451,2.349,2.252,3.473a7.767,7.767,0,0,0,3.416,2.946,3.953,3.953,0,0,0,4.006-.415c.487-.417,1.2.288.708.708-1.921,1.645-4.753,1.191-6.669-.235-2.254-1.679-3.392-4.374-5.013-6.587A24.767,24.767,0,0,0,336.478,78.7a24.124,24.124,0,0,0-8.986-.9C326.85,77.866,326.853,76.864,327.492,76.807Z" transform="translate(-304.108 -73.848)" fill="#ffb81e"/>
            </g>
            <g id="Grupo_1120224" data-name="Grupo 1120224" transform="translate(46.992 88.588)">
              <g id="Grupo_1120220" data-name="Grupo 1120220" transform="translate(38.649)">
                <path id="Trazado_918318" data-name="Trazado 918318" d="M286.231,323.354c5.659-7.379,5.92-17.173,4.987-26.037-1.012-9.625-3.269-19.356-1.169-29a25.462,25.462,0,0,1,6.322-12.434c.449-.464,1.158.245.708.708-6.209,6.4-7.345,15.875-6.776,24.388.657,9.828,3.281,19.588,1.966,29.477a27.855,27.855,0,0,1-5.174,13.4C286.709,324.364,285.838,323.866,286.231,323.354Z" transform="translate(-263.898 -224.374)" fill="#628212"/>
                <g id="Grupo_1120218" data-name="Grupo 1120218" transform="translate(0 26.318)">
                  <path id="Trazado_918319" data-name="Trazado 918319" d="M323.272,279.29a35.088,35.088,0,0,0-17.931-29.8c-1.895-1.032-4.115-1.9-6.166-1.232-2.453,2.99-2.384,7.167-1.285,10.875C301.142,270.116,311.9,277.946,323.272,279.29Z" transform="translate(-297.161 -248.026)" fill="#b2db60"/>
                  <path id="Trazado_918320" data-name="Trazado 918320" d="M301.062,261.528a99.557,99.557,0,0,0,14.328,18.8c.449.463-.258,1.172-.708.708a100.7,100.7,0,0,1-14.485-19A.5.5,0,0,1,301.062,261.528Z" transform="translate(-291.361 -252.614)" fill="#82a827"/>
                </g>
                <g id="Grupo_1120219" data-name="Grupo 1120219" transform="translate(27.508)">
                  <path id="Trazado_918321" data-name="Trazado 918321" d="M248.747,245.775c8.943-.145,16.9-5.963,22.557-12.893a33.2,33.2,0,0,0,6.576-11.833,18.116,18.116,0,0,0-1.054-13.264c-9.02.384-18.231,4.87-23.6,12.127S246.479,237.038,248.747,245.775Z" transform="translate(-247.698 -207.786)" fill="#b2db60"/>
                  <path id="Trazado_918322" data-name="Trazado 918322" d="M260.681,247.657a75.1,75.1,0,0,1,13.42-19.675q2.362-2.5,4.95-4.764c.483-.424,1.194.282.708.708a74.3,74.3,0,0,0-15.067,18.248q-1.709,2.92-3.145,5.988C261.272,248.745,260.408,248.237,260.681,247.657Z" transform="translate(-257.425 -213.08)" fill="#82a827"/>
                </g>
              </g>
              <g id="Grupo_1120221" data-name="Grupo 1120221" transform="translate(58.955 34.247)">
                <path id="Trazado_918323" data-name="Trazado 918323" d="M254.935,323.22a11.153,11.153,0,0,0,3.443-3.719,4.608,4.608,0,0,0-.245-4.836c-1.211-1.508-3.368-1.734-5.278-2.031s-4.1-1.048-4.659-2.9c-.512-1.69.681-3.491,2.2-4.392a22.353,22.353,0,0,1,5-1.689,10.772,10.772,0,0,0,5.858-3.942,6.228,6.228,0,0,0,.335-6.775c-1.211-1.821-3.574-2.8-4.324-4.859A5.03,5.03,0,0,1,258.3,283.4a15.693,15.693,0,0,1,3.852-3.162c3.028-2.007,6.09-4.2,7.937-7.329s2.164-7.445-.192-10.21c-2.151-2.525-6-3.094-9.148-2.057s-5.693,3.4-7.785,5.973-3.844,5.417-6.047,7.9c-1.309,1.474-3.056,2.909-5.011,2.661-2.834-.359-4.249-3.957-7.012-4.678-2.007-.523-4.139.71-5.309,2.423a15.289,15.289,0,0,0-1.98,5.849q-1,5.175-1.995,10.351c-.4,2.061-1.243,4.57-3.326,4.835-2.217.281-3.835-2.3-6.054-2.576-2.729-.335-4.481,2.772-5.326,5.388a95.78,95.78,0,0,0-4.416,23c-.156,2.316-.2,4.751.834,6.828,1.938,3.881,6.939,5.132,11.267,4.846C231.055,332.614,244.695,331,254.935,323.22Z" transform="translate(-206.396 -260.149)" fill="#628212"/>
                <path id="Trazado_918324" data-name="Trazado 918324" d="M226.462,311.436a50.92,50.92,0,0,1,3.576,15.823q5.1-8.061,10.545-15.9,1.548-2.227,3.13-4.43a.429.429,0,0,1-.3-.453A38.055,38.055,0,0,0,241,291.108c-.229-.6.739-.865.965-.266a38.778,38.778,0,0,1,2.469,15.081q5.553-7.729,11.435-15.212,4.51-5.737,9.209-11.32c.415-.494,1.121.218.708.708q-8.3,9.868-16.014,20.211-2.013,2.7-3.983,5.437l14.905-3.136c.629-.132.9.833.266.966l-16.026,3.372q-5.087,7.1-9.894,14.4-2.22,3.378-4.371,6.8a61.23,61.23,0,0,1,24.148-4.17c.643.02.646,1.022,0,1a60.493,60.493,0,0,0-25.038,4.6c-.833,1.331-1.67,2.659-2.489,4-.336.549-1.2.046-.865-.506.886-1.45,1.787-2.889,2.689-4.329A50.186,50.186,0,0,0,225.5,311.7C225.255,311.1,226.223,310.844,226.462,311.436Z" transform="translate(-213.207 -266.749)" fill="#b2db60"/>
              </g>
              <g id="Grupo_1120222" data-name="Grupo 1120222" transform="translate(0 32.789)">
                <path id="Trazado_918325" data-name="Trazado 918325" d="M359.645,292.271a11.753,11.753,0,0,0-2.718-5.526c-1.485-1.454-3.979-2.077-5.675-.875-1.425,1.01-2,3.03-3.589,3.746-1.5.676-3.332-.165-4.347-1.464a13.37,13.37,0,0,1-1.9-4.53,45.969,45.969,0,0,0-6.094-12.731,11.121,11.121,0,0,0-4.288-4.128c-1.833-.827-4.294-.572-5.46,1.065-.908,1.275-.925,3.156-2.173,4.1a3.268,3.268,0,0,1-3.632-.131,11.259,11.259,0,0,1-2.64-2.8,42.924,42.924,0,0,0-9.405-8.989c-2.255-1.578-5.32-2.94-7.623-1.435-2.066,1.349-2.314,4.276-1.959,6.718a23.759,23.759,0,0,0,4.451,10.746,20.556,20.556,0,0,1,2.936,4.361c.659,1.63.6,3.72-.706,4.9-2.026,1.838-5.731.538-7.644,2.493a4.085,4.085,0,0,0-.213,4.825,11.954,11.954,0,0,0,3.795,3.485l8.343,5.677c1.7,1.158,3.472,2.39,4.417,4.22s.729,4.434-1.018,5.524c-1.35.842-3.309.645-4.318,1.875a2.973,2.973,0,0,0,.085,3.449,8.215,8.215,0,0,0,2.848,2.309A97.177,97.177,0,0,0,341,330.368c3.926.77,8.211,1.26,12.114.105,4.814-1.424,5.648-4.311,6.776-8.87A59.1,59.1,0,0,0,359.645,292.271Z" transform="translate(-296.282 -257.92)" fill="#b2db60"/>
                <path id="Trazado_918326" data-name="Trazado 918326" d="M323.161,278.773a117.655,117.655,0,0,1,17.634,19.284q1.02,1.4,2,2.831.62-6.136,1.239-12.274c.065-.642,1.056-.494.991.146l-1.339,13.269a.478.478,0,0,1-.041.133,118.9,118.9,0,0,1,10.128,18.583c.188.434.361.875.544,1.312l3.526-11.44c.189-.614,1.105-.207.917.4L354.91,323.5a116.581,116.581,0,0,1,3.85,11.112c.179.615-.749.993-.929.375-1.041-3.587-2.265-7.119-3.645-10.589A.583.583,0,0,1,354,324.3c-.018,0-.032.006-.05,0a69.549,69.549,0,0,0-16.728-.139.5.5,0,0,1-.123-.995,70.8,70.8,0,0,1,16.636.1A117.5,117.5,0,0,0,347.9,311.06c-1.7-3.078-3.545-6.077-5.515-8.991a56.947,56.947,0,0,0-15.346-1.8c-.639.013-.767-.981-.123-.994a57.985,57.985,0,0,1,14.625,1.563,118.2,118.2,0,0,0-8.568-10.92,115.428,115.428,0,0,0-10.436-10.364C322.051,279.132,322.674,278.346,323.161,278.773Z" transform="translate(-310.503 -265.092)" fill="#82a827"/>
              </g>
              <g id="Grupo_1120223" data-name="Grupo 1120223" transform="translate(14.725 95.12)">
                <path id="Trazado_918327" data-name="Trazado 918327" d="M302.04,357.784a67.413,67.413,0,0,0-27.305-4.471,53.436,53.436,0,0,0-26.259,8.335c-6.044,3.95-11.345,9.566-13.249,16.53a9.326,9.326,0,0,0-.3,4.572,10.375,10.375,0,0,0,3.175,4.782c9.253,9.025,22.263,13.138,35.05,15.024,7.471,1.1,21.23,3.347,28.3.691,5.379-2.022,7.8-5.766,12.277-9.37,3.355-2.7,2.946-7.154,6.3-9.853,2.061-1.659,6.2-3.782,5.494-6.952-1.311-5.9-8.593-11.347-13.366-14.334A79.189,79.189,0,0,0,302.04,357.784Z" transform="translate(-234.758 -353.225)" fill="#423c39"/>
                <path id="Trazado_918328" data-name="Trazado 918328" d="M260.967,356.563a66.343,66.343,0,0,1,39.1,8.033c.563.313.059,1.179-.506.865a65.35,65.35,0,0,0-38.591-7.9C260.326,357.632,260.331,356.63,260.967,356.563Z" transform="translate(-226.288 -354.259)" fill="#e8d1a7"/>
              </g>
            </g>
            <g id="Grupo_1120225" data-name="Grupo 1120225" transform="translate(136.288 200.546)">
              <path id="Trazado_918329" data-name="Trazado 918329" d="M228.122,383.516a5.356,5.356,0,0,0,3.092,1.941c1.271.363,5.509.789,5.509.789l1.859.3a3.522,3.522,0,0,1-.52,1.953l2.054-.194s2.485-2.241,2.729-3.392a4.53,4.53,0,0,0-.125-3.03c-.42-.607-3.812-2.848-4.72-2.911a18.468,18.468,0,0,0-3.143.551c-1.778.4-3.806.933-4.739,1.27C228.422,381.4,227.577,382.608,228.122,383.516Z" transform="translate(-222.306 -378.969)" fill="#e8ac8f"/>
              <path id="Trazado_918330" data-name="Trazado 918330" d="M247.909,392.9s1.979,4.16,1.494,5.492-3.756,3.392-3.756,3.392a4.451,4.451,0,0,1-.243,3.271,11.578,11.578,0,0,1-3.15,3.271c-.485.243-.243,3.514-1.212,4.362a9.554,9.554,0,0,1-5.695,2.3c-2.423,0-5.089-2.18-5.089-2.18l3.756-9.572,5.574-7.27Z" transform="translate(-230.259 -383.79)" fill="#e8ac8f"/>
              <path id="Trazado_918331" data-name="Trazado 918331" d="M243.992,416.468a.51.51,0,0,1,.616-.35c.083.024.166.044.25.063a.867.867,0,0,0,.218.039l-.024,0,.073.008.11.009c.08.005.16.008.24.008s.16,0,.239-.008c.037,0,.073,0,.11-.008l.077-.009.082-.012.109-.021c.084-.018.167-.039.25-.061a.5.5,0,0,1,.266.966,4.226,4.226,0,0,1-2.268,0A.508.508,0,0,1,243.992,416.468Z" transform="translate(-236.721 -391.816)" fill="#d77b51"/>
              <path id="Trazado_918332" data-name="Trazado 918332" d="M238.269,405.943a12.316,12.316,0,0,0,1.31.024q.315-.012.628-.039c.1-.01.209-.02.313-.032l.1-.013.05-.006.025,0,.1-.015a.514.514,0,0,1,.616.35.507.507,0,0,1-.35.616,12.735,12.735,0,0,1-2.8.12.5.5,0,1,1,0-1Z" transform="translate(-227.121 -388.27)" fill="#d77b51"/>
            </g>
            <g id="Grupo_1120226" data-name="Grupo 1120226" transform="translate(0 86.396)">
              <path id="Trazado_918333" data-name="Trazado 918333" d="M261.032,323.767s.525,16.356,1.01,17.165,4.846,2.585,7.593,3.069,15.993,7.108,21.163,9.369,29.563,8.886,31.663,8.4,18.255-5.655,21.486-5.816,14.378-.323,16.478-.323,3.878-.323,3.878.485-.969,2.585-4.524,4.039-9.854.808-9.854.808,7.916,2.423,10.985,3.392,10.986,1.615,11.309,2.262,0,2.1-.969,3.231a5.418,5.418,0,0,1-5.169,2.1s.485,2.585-.162,3.716a6.33,6.33,0,0,1-2.585,1.939,2.635,2.635,0,0,1,.162,2.746,9.647,9.647,0,0,1-3.07,2.746A5.593,5.593,0,0,1,359.294,386c-1.131,1.615-3.554,2.423-5.654,2.423a68.14,68.14,0,0,1-16.8-3.392c-6.3-2.262-11.955-5.331-13.57-5.654s-40.549-5.493-47.333-6.947-26.333-7.269-28.271-8.239a12.068,12.068,0,0,1-4.846-5.008c-.969-1.939-10.5-34.087-10.339-36.995s7.755-5.816,13.409-5.17S261.032,323.767,261.032,323.767Z" transform="translate(-218.281 -243.356)" fill="#e8ac8f"/>
              <path id="Trazado_918334" data-name="Trazado 918334" d="M308.969,351.579c20.836,7.857,41.333,17.116,63.416,20.938.828.143.477,1.4-.347,1.262-22.083-3.823-42.58-13.082-63.416-20.938C307.841,352.546,308.179,351.282,308.969,351.579Z" transform="translate(-268.311 -255.328)" fill="#d77b51"/>
              <path id="Trazado_918335" data-name="Trazado 918335" d="M402.258,328.631a157.887,157.887,0,0,1,1,16.443.654.654,0,0,1-1.308,0,157.887,157.887,0,0,0-1-16.443C400.855,327.8,402.164,327.8,402.258,328.631Z" transform="translate(-359.385 -247.188)" fill="#d77b51"/>
              <path id="Trazado_918336" data-name="Trazado 918336" d="M430.126,204.434s-9.37,4.079-13.853,12.56c-2.055,3.888-3.039,8.457-4.08,12.694-2,8.15-3.568,16.409-5.022,24.672-.648,3.681-4.2,24.252-4.812,28.264,18.868,6.691,42.145,3.191,42.751,2.222s-.242-38.287-1.454-47.859S438.163,208.473,430.126,204.434Z" transform="translate(-402.358 -204.434)" fill="#d77b51"/>
              <path id="Trazado_918337" data-name="Trazado 918337" d="M232.751,409.93a6.255,6.255,0,0,0,5.1-1.127,4.5,4.5,0,0,0,1.619-4.077,5.017,5.017,0,0,1-1.336.171.5.5,0,0,1,0-1,4.026,4.026,0,0,0,3.043-1.319,3.974,3.974,0,0,0,.963-3.087,22.832,22.832,0,0,1-6.262-.954.5.5,0,0,1,.266-.965c2.436.609,5.061,1.3,7.57.715a5.817,5.817,0,0,0,4.4-3.615c.2-.611,1.163-.35.966.267a6.723,6.723,0,0,1-4.748,4.223,8.87,8.87,0,0,1-1.213.243,5.044,5.044,0,0,1-1.184,3.822,4.79,4.79,0,0,1-1.517,1.148,5.454,5.454,0,0,1-1.862,5.139,6.186,6.186,0,0,1-1.32.845.458.458,0,0,1,.039.353,7.5,7.5,0,0,1-2.346,3.7.515.515,0,0,1-.708,0,.5.5,0,0,1,0-.708,6.466,6.466,0,0,0,1.293-1.469,6.959,6.959,0,0,0,.478-.882,6.142,6.142,0,0,0,.229-.61,8.128,8.128,0,0,1-3.74.16C231.851,410.778,232.119,409.812,232.751,409.93Z" transform="translate(-94.821 -270.131)" fill="#d77b51"/>
            </g>
          </g>
        </g>
      </g>
    </g>
  </g>
</svg>
