<svg xmlns="http://www.w3.org/2000/svg" xmlns:xlink="http://www.w3.org/1999/xlink" width="117.999" height="118" viewBox="0 0 117.999 118">
  <defs>
    <filter id="Trazado_874925" x="0" y="0" width="117.999" height="118" filterUnits="userSpaceOnUse">
      <feOffset dy="3" input="SourceAlpha"/>
      <feGaussianBlur stdDeviation="3" result="blur"/>
      <feFlood flood-opacity="0.161"/>
      <feComposite operator="in" in2="blur"/>
      <feComposite in="SourceGraphic"/>
    </filter>
  </defs>
  <g id="Grupo_1120233" data-name="Grupo 1120233" transform="translate(-429.051 -9293)">
    <g id="Grupo_1111552" data-name="Grupo 1111552" transform="translate(-370.449 6781.843)">
      <g id="Grupo_1111316" data-name="Grupo 1111316" transform="translate(808.5 2517.157)">
        <g id="Grupo_1109835" data-name="Grupo 1109835" transform="translate(0 0)">
          <g id="Grupo_1107913" data-name="Grupo 1107913" transform="translate(0 0)">
            <g transform="matrix(1, 0, 0, 1, -9, -6)" filter="url(#Trazado_874925)">
              <g id="Trazado_874925-2" data-name="Trazado 874925" transform="translate(9 6)" fill="#bb965f" opacity="0.859">
                <path d="M 49.99972534179688 98.4998779296875 C 43.45164108276367 98.4998779296875 37.10022354125977 97.21776580810547 31.12189674377441 94.68914794921875 C 25.34676742553711 92.24647521972656 20.15985298156738 88.74925994873047 15.70523929595947 84.29464721679688 C 11.25062561035156 79.84004974365234 7.753411293029785 74.65313720703125 5.310725212097168 68.87800598144531 C 2.782111167907715 62.89969253540039 1.499996781349182 56.54829406738281 1.499996781349182 50.00022125244141 C 1.499996781349182 43.45157623291016 2.782111167907715 37.10017776489258 5.310725212097168 31.12186431884766 C 7.753411293029785 25.34673500061035 11.25062561035156 20.15983581542969 15.70523929595947 15.70522117614746 C 20.15985298156738 11.25062084197998 25.34676742553711 7.753406524658203 31.12189674377441 5.31073522567749 C 37.10022354125977 2.782120943069458 43.45164108276367 1.500006556510925 49.99972534179688 1.500006556510925 C 56.54780960083008 1.500006556510925 62.89922714233398 2.782120943069458 68.87755584716797 5.31073522567749 C 74.65267944335938 7.753406524658203 79.839599609375 11.25062084197998 84.29421234130859 15.70522117614746 C 88.74882507324219 20.15983581542969 92.24604034423828 25.34673500061035 94.68872833251953 31.12186431884766 C 97.21733856201172 37.10017776489258 98.49945068359375 43.45157623291016 98.49945068359375 49.99964904785156 C 98.49945068359375 56.54829406738281 97.21733856201172 62.89969253540039 94.68872833251953 68.87800598144531 C 92.24604034423828 74.65313720703125 88.74882507324219 79.84004974365234 84.29421234130859 84.29464721679688 C 79.839599609375 88.74925994873047 74.65267944335938 92.24647521972656 68.87755584716797 94.68914794921875 C 62.89922714233398 97.21776580810547 56.54780960083008 98.4998779296875 49.99972534179688 98.4998779296875 Z" stroke="none"/>
                <path d="M 49.99972534179688 3 C 43.65348052978516 3 37.49866485595703 4.242240905761719 31.70623016357422 6.692230224609375 C 26.10989379882812 9.059272766113281 21.08323669433594 12.44853210449219 16.76589202880859 16.76587677001953 C 12.44855499267578 21.08321380615234 9.059295654296875 26.10985565185547 6.692230224609375 31.70618438720703 C 4.24224853515625 37.49859619140625 3 43.65341186523438 3 50.00022888183594 C 3 56.34645843505859 4.24224853515625 62.50127410888672 6.692230224609375 68.29368591308594 C 9.059295654296875 73.8900146484375 12.44855499267578 78.91665649414062 16.76589202880859 83.23399353027344 C 21.08323669433594 87.55132293701172 26.10989379882812 90.94059753417969 31.70623016357422 93.30764007568359 C 37.49866485595703 95.75762939453125 43.65348052978516 96.99987030029297 49.99972534179688 96.99987030029297 C 56.34597015380859 96.99987030029297 62.50078582763672 95.75762939453125 68.293212890625 93.30764007568359 C 73.88955688476562 90.94059753417969 78.91621398925781 87.55132293701172 83.23355865478516 83.23399353027344 C 87.55089569091797 78.91665649414062 90.94015502929688 73.8900146484375 93.30722045898438 68.29368591308594 C 95.7572021484375 62.50127410888672 96.99945068359375 56.34645843505859 96.99945068359375 49.99964141845703 C 96.99945068359375 43.65341186523438 95.7572021484375 37.49859619140625 93.30722045898438 31.70618438720703 C 90.94015502929688 26.10985565185547 87.55089569091797 21.08321380615234 83.23355865478516 16.76587677001953 C 78.91621398925781 12.44853210449219 73.88955688476562 9.059272766113281 68.293212890625 6.692230224609375 C 62.50078582763672 4.242240905761719 56.34597015380859 3 49.99972534179688 3 M 49.99972534179688 0 C 77.61381530761719 0 99.99945068359375 22.38559722900391 99.99945068359375 49.99964141845703 L 99.99945068359375 50.00022888183594 C 99.99945068359375 77.6142578125 77.61381530761719 99.99987030029297 49.99972534179688 99.99987030029297 C 22.38563537597656 99.99987030029297 0 77.6142578125 0 50.00022888183594 L 0 49.99964141845703 C 0 22.38559722900391 22.38563537597656 0 49.99972534179688 0 Z" stroke="none" fill="#fff"/>
              </g>
            </g>
            <g id="Trazado_874923" data-name="Trazado 874923" transform="translate(0 0)" fill="none">
              <path d="M50,0a50,50,0,0,1,50,50h0A50,50,0,0,1,0,50H0A50,50,0,0,1,50,0Z" stroke="none"/>
              <path d="M 49.99972534179688 3 C 43.65348052978516 3 37.49866485595703 4.242240905761719 31.70623016357422 6.692230224609375 C 26.10989379882812 9.059272766113281 21.08323669433594 12.44853210449219 16.76589202880859 16.76587677001953 C 12.44855499267578 21.08321380615234 9.059295654296875 26.10985565185547 6.692230224609375 31.70618438720703 C 4.24224853515625 37.49859619140625 3 43.65341186523438 3 50.00022888183594 C 3 56.34645843505859 4.24224853515625 62.50127410888672 6.692230224609375 68.29368591308594 C 9.059295654296875 73.8900146484375 12.44855499267578 78.91665649414062 16.76589202880859 83.23399353027344 C 21.08323669433594 87.55132293701172 26.10989379882812 90.94059753417969 31.70623016357422 93.30764007568359 C 37.49866485595703 95.75762939453125 43.65348052978516 96.99987030029297 49.99972534179688 96.99987030029297 C 56.34597015380859 96.99987030029297 62.50078582763672 95.75762939453125 68.293212890625 93.30764007568359 C 73.88955688476562 90.94059753417969 78.91621398925781 87.55132293701172 83.23355865478516 83.23399353027344 C 87.55089569091797 78.91665649414062 90.94015502929688 73.8900146484375 93.30722045898438 68.29368591308594 C 95.7572021484375 62.50127410888672 96.99945068359375 56.34645843505859 96.99945068359375 49.99964141845703 C 96.99945068359375 43.65341186523438 95.7572021484375 37.49859619140625 93.30722045898438 31.70618438720703 C 90.94015502929688 26.10985565185547 87.55089569091797 21.08321380615234 83.23355865478516 16.76587677001953 C 78.91621398925781 12.44853210449219 73.88955688476562 9.059272766113281 68.293212890625 6.692230224609375 C 62.50078582763672 4.242240905761719 56.34597015380859 3 49.99972534179688 3 M 49.99972534179688 0 C 77.61381530761719 0 99.99945068359375 22.38559722900391 99.99945068359375 49.99964141845703 L 99.99945068359375 50.00022888183594 C 99.99945068359375 77.6142578125 77.61381530761719 99.99987030029297 49.99972534179688 99.99987030029297 C 22.38563537597656 99.99987030029297 0 77.6142578125 0 50.00022888183594 L 0 49.99964141845703 C 0 22.38559722900391 22.38563537597656 0 49.99972534179688 0 Z" stroke="none" fill="#fff"/>
            </g>
          </g>
        </g>
      </g>
    </g>
    <g id="Grupo_1120232" data-name="Grupo 1120232" transform="translate(457.051 9318)">
      <path id="Trazado_918339" data-name="Trazado 918339" d="M19.313,263.2H17.894a4.114,4.114,0,1,0-5.389,0H11.085A3.085,3.085,0,0,0,8,266.285v6.171l2.057,1.028v10.285H20.341V273.484l2.057-1.028v-6.171A3.085,3.085,0,0,0,19.313,263.2Zm0,0" transform="translate(-6.972 -223.09)" fill="#1787ce"/>
      <path id="Trazado_918340" data-name="Trazado 918340" d="M304.683,20.341A12.341,12.341,0,1,1,292.341,8,12.341,12.341,0,0,1,304.683,20.341Zm0,0" transform="translate(-244.004 -6.972)" fill="#fca219"/>
      <path id="Trazado_918341" data-name="Trazado 918341" d="M198.171,427.085A3.085,3.085,0,1,1,195.085,424,3.086,3.086,0,0,1,198.171,427.085Zm0,0" transform="translate(-167.317 -369.492)" fill="#e91d18"/>
      <path id="Trazado_918342" data-name="Trazado 918342" d="M406.171,235.085A3.085,3.085,0,1,1,403.085,232,3.086,3.086,0,0,1,406.171,235.085Zm0,0" transform="translate(-348.577 -202.175)" fill="#1787ce"/>
      <path id="Trazado_918343" data-name="Trazado 918343" d="M14.171,123.085A3.085,3.085,0,1,1,11.085,120,3.086,3.086,0,0,1,14.171,123.085Zm0,0" transform="translate(-6.972 -104.573)" fill="#006e20"/>
      <path id="Trazado_918344" data-name="Trazado 918344" d="M327.2,40l1.7,5.142h5.5L329.949,48.9l1.7,5.5L327.2,51l-4.449,3.4,1.7-5.5L320,45.142h5.5Zm0,0" transform="translate(-278.862 -34.858)" fill="#e91d18"/>
      <path id="Trazado_918345" data-name="Trazado 918345" d="M49.028,334.171h2.057v-4.114h1.028V328H48v2.057h1.028Zm0,0" transform="translate(-41.829 -285.834)"/>
      <path id="Trazado_918346" data-name="Trazado 918346" d="M72,440h2.057v2.057H72Zm0,0" transform="translate(-62.744 -383.435)"/>
      <path id="Trazado_918347" data-name="Trazado 918347" d="M.569,266.4l1.488.744V276.8a1.027,1.027,0,0,0,1.028,1.028H13.37A1.027,1.027,0,0,0,14.4,276.8v-9.649l1.488-.745a1.027,1.027,0,0,0,.569-.919v-6.171a4.122,4.122,0,0,0-3.541-4.075,5.063,5.063,0,0,0,.455-2.1,5.142,5.142,0,0,0-10.285,0,5.063,5.063,0,0,0,.455,2.1A4.122,4.122,0,0,0,0,259.313v6.171A1.029,1.029,0,0,0,.569,266.4Zm1.488-7.091a2.059,2.059,0,0,1,2.057-2.057H5.533a1.028,1.028,0,0,0,.678-1.8,3.041,3.041,0,0,1-1.069-2.312,3.085,3.085,0,1,1,6.171,0,3.04,3.04,0,0,1-1.068,2.311,1.029,1.029,0,0,0,.677,1.8h1.419a2.059,2.059,0,0,1,2.057,2.057v5.535l-1.488.745a1.027,1.027,0,0,0-.569.919v9.256H4.114v-9.256a1.029,1.029,0,0,0-.569-.92l-1.488-.744Zm0,0" transform="translate(0 -216.118)"/>
      <path id="Trazado_918348" data-name="Trazado 918348" d="M184,420.114A4.114,4.114,0,1,0,188.114,416,4.118,4.118,0,0,0,184,420.114Zm4.114-2.057a2.057,2.057,0,1,1-2.057,2.057A2.059,2.059,0,0,1,188.114,418.057Zm0,0" transform="translate(-160.346 -362.521)"/>
      <path id="Trazado_918349" data-name="Trazado 918349" d="M396.114,224a4.114,4.114,0,1,0,4.114,4.114A4.118,4.118,0,0,0,396.114,224Zm0,6.171a2.057,2.057,0,1,1,2.057-2.057A2.059,2.059,0,0,1,396.114,230.171Zm0,0" transform="translate(-341.606 -195.203)"/>
      <path id="Trazado_918350" data-name="Trazado 918350" d="M4.114,120.228A4.114,4.114,0,1,0,0,116.114,4.118,4.118,0,0,0,4.114,120.228Zm0-6.171a2.057,2.057,0,1,1-2.057,2.057A2.059,2.059,0,0,1,4.114,114.057Zm0,0" transform="translate(0 -97.602)"/>
      <path id="Trazado_918351" data-name="Trazado 918351" d="M322.673,37.142l-1.466-4.436a1.028,1.028,0,0,0-1.952,0l-1.466,4.436h-4.757a1.028,1.028,0,0,0-.663,1.813l3.93,3.317-1.5,4.85a1.029,1.029,0,0,0,1.607,1.121l3.824-2.922,3.825,2.922a1.028,1.028,0,0,0,1.606-1.121l-1.5-4.85,3.93-3.317a1.028,1.028,0,0,0-.663-1.813Zm-.357,4A1.028,1.028,0,0,0,322,42.231l.75,2.426-1.892-1.446a1.029,1.029,0,0,0-1.248,0l-1.892,1.446.75-2.426a1.028,1.028,0,0,0-.319-1.089l-2.3-1.943h2.688a1.025,1.025,0,0,0,.976-.707l.724-2.186.723,2.187a1.027,1.027,0,0,0,.976.706h2.688Zm0,0" transform="translate(-271.893 -27.886)"/>
      <path id="Trazado_918352" data-name="Trazado 918352" d="M424.514,418.344l-2.358,2.358-2.358-2.358-1.454,1.454,2.358,2.358-2.358,2.358,1.454,1.454,2.358-2.358,2.358,2.358,1.454-1.454-2.358-2.358,2.358-2.358Zm0,0" transform="translate(-364.563 -364.563)"/>
      <path id="Trazado_918353" data-name="Trazado 918353" d="M83.8,9.969l2.358-2.358,2.358,2.358,1.454-1.454L87.611,6.156,89.969,3.8,88.514,2.344,86.156,4.7,83.8,2.344,82.344,3.8,84.7,6.156,82.344,8.514Zm0,0" transform="translate(-71.758 -2.042)"/>
      <path id="Trazado_918354" data-name="Trazado 918354" d="M155.8,233.969l2.358-2.358,2.358,2.358,1.454-1.454-2.358-2.358,2.358-2.358-1.454-1.454-2.358,2.358-2.358-2.358-1.454,1.454,2.358,2.358-2.358,2.358Zm0,0" transform="translate(-134.502 -197.246)"/>
      <path id="Trazado_918355" data-name="Trazado 918355" d="M242.117,318.908l11.312-12.342,1.517,1.39L243.633,320.3Zm0,0" transform="translate(-210.992 -267.155)"/>
      <path id="Trazado_918356" data-name="Trazado 918356" d="M310.2,288.371l1.028-7.2a1.033,1.033,0,0,0-.291-.873,1.021,1.021,0,0,0-.873-.291l-7.2,1.028.291,2.037,5.841-.835-.835,5.841Zm0,0" transform="translate(-263.928 -244.001)"/>
      <path id="Trazado_918357" data-name="Trazado 918357" d="M80,136H97.484v2.057H80Zm0,0" transform="translate(-69.715 -118.516)"/>
      <path id="Trazado_918358" data-name="Trazado 918358" d="M204.286,105.754,203,107.36l4.138,3.311L203,113.982l1.286,1.606,5.142-4.114a1.029,1.029,0,0,0,0-1.606Zm0,0" transform="translate(-176.903 -92.159)"/>
      <path id="Trazado_918359" data-name="Trazado 918359" d="M285.37,0a13.37,13.37,0,1,0,13.37,13.37A13.385,13.385,0,0,0,285.37,0Zm0,24.683A11.313,11.313,0,1,1,296.683,13.37,11.326,11.326,0,0,1,285.37,24.683Zm0,0" transform="translate(-237.033)"/>
    </g>
  </g>
</svg>
