<svg xmlns="http://www.w3.org/2000/svg" xmlns:xlink="http://www.w3.org/1999/xlink" width="117.999" height="118" viewBox="0 0 117.999 118">
  <defs>
    <filter id="Trazado_874925" x="0" y="0" width="117.999" height="118" filterUnits="userSpaceOnUse">
      <feOffset dy="3" input="SourceAlpha"/>
      <feGaussianBlur stdDeviation="3" result="blur"/>
      <feFlood flood-opacity="0.161"/>
      <feComposite operator="in" in2="blur"/>
      <feComposite in="SourceGraphic"/>
    </filter>
  </defs>
  <g id="Grupo_1123374" data-name="Grupo 1123374" transform="translate(-429.051 -1373)">
    <g id="Grupo_1111552" data-name="Grupo 1111552" transform="translate(-370.449 -1138.157)">
      <g id="Grupo_1111316" data-name="Grupo 1111316" transform="translate(808.5 2517.157)">
        <g id="Grupo_1109835" data-name="Grupo 1109835" transform="translate(0 0)">
          <g id="Grupo_1107913" data-name="Grupo 1107913" transform="translate(0 0)">
            <g transform="matrix(1, 0, 0, 1, -9, -6)" filter="url(#Trazado_874925)">
              <g id="Trazado_874925-2" data-name="Trazado 874925" transform="translate(9 6)" fill="#bb965f" opacity="0.859">
                <path d="M 49.99972534179688 98.4998779296875 C 43.45164108276367 98.4998779296875 37.10022354125977 97.21776580810547 31.12189674377441 94.68914794921875 C 25.34676742553711 92.24647521972656 20.15985298156738 88.74925994873047 15.70523929595947 84.29464721679688 C 11.25062561035156 79.84004974365234 7.753411293029785 74.65313720703125 5.310725212097168 68.87800598144531 C 2.782111167907715 62.89969253540039 1.499996781349182 56.54829406738281 1.499996781349182 50.00022125244141 C 1.499996781349182 43.45157623291016 2.782111167907715 37.10017776489258 5.310725212097168 31.12186431884766 C 7.753411293029785 25.34673500061035 11.25062561035156 20.15983581542969 15.70523929595947 15.70522117614746 C 20.15985298156738 11.25062084197998 25.34676742553711 7.753406524658203 31.12189674377441 5.31073522567749 C 37.10022354125977 2.782120943069458 43.45164108276367 1.500006556510925 49.99972534179688 1.500006556510925 C 56.54780960083008 1.500006556510925 62.89922714233398 2.782120943069458 68.87755584716797 5.31073522567749 C 74.65267944335938 7.753406524658203 79.839599609375 11.25062084197998 84.29421234130859 15.70522117614746 C 88.74882507324219 20.15983581542969 92.24604034423828 25.34673500061035 94.68872833251953 31.12186431884766 C 97.21733856201172 37.10017776489258 98.49945068359375 43.45157623291016 98.49945068359375 49.99964904785156 C 98.49945068359375 56.54829406738281 97.21733856201172 62.89969253540039 94.68872833251953 68.87800598144531 C 92.24604034423828 74.65313720703125 88.74882507324219 79.84004974365234 84.29421234130859 84.29464721679688 C 79.839599609375 88.74925994873047 74.65267944335938 92.24647521972656 68.87755584716797 94.68914794921875 C 62.89922714233398 97.21776580810547 56.54780960083008 98.4998779296875 49.99972534179688 98.4998779296875 Z" stroke="none"/>
                <path d="M 49.99972534179688 3 C 43.65348052978516 3 37.49866485595703 4.242240905761719 31.70623016357422 6.692230224609375 C 26.10989379882812 9.059272766113281 21.08323669433594 12.44853210449219 16.76589202880859 16.76587677001953 C 12.44855499267578 21.08321380615234 9.059295654296875 26.10985565185547 6.692230224609375 31.70618438720703 C 4.24224853515625 37.49859619140625 3 43.65341186523438 3 50.00022888183594 C 3 56.34645843505859 4.24224853515625 62.50127410888672 6.692230224609375 68.29368591308594 C 9.059295654296875 73.8900146484375 12.44855499267578 78.91665649414062 16.76589202880859 83.23399353027344 C 21.08323669433594 87.55132293701172 26.10989379882812 90.94059753417969 31.70623016357422 93.30764007568359 C 37.49866485595703 95.75762939453125 43.65348052978516 96.99987030029297 49.99972534179688 96.99987030029297 C 56.34597015380859 96.99987030029297 62.50078582763672 95.75762939453125 68.293212890625 93.30764007568359 C 73.88955688476562 90.94059753417969 78.91621398925781 87.55132293701172 83.23355865478516 83.23399353027344 C 87.55089569091797 78.91665649414062 90.94015502929688 73.8900146484375 93.30722045898438 68.29368591308594 C 95.7572021484375 62.50127410888672 96.99945068359375 56.34645843505859 96.99945068359375 49.99964141845703 C 96.99945068359375 43.65341186523438 95.7572021484375 37.49859619140625 93.30722045898438 31.70618438720703 C 90.94015502929688 26.10985565185547 87.55089569091797 21.08321380615234 83.23355865478516 16.76587677001953 C 78.91621398925781 12.44853210449219 73.88955688476562 9.059272766113281 68.293212890625 6.692230224609375 C 62.50078582763672 4.242240905761719 56.34597015380859 3 49.99972534179688 3 M 49.99972534179688 0 C 77.61381530761719 0 99.99945068359375 22.38559722900391 99.99945068359375 49.99964141845703 L 99.99945068359375 50.00022888183594 C 99.99945068359375 77.6142578125 77.61381530761719 99.99987030029297 49.99972534179688 99.99987030029297 C 22.38563537597656 99.99987030029297 0 77.6142578125 0 50.00022888183594 L 0 49.99964141845703 C 0 22.38559722900391 22.38563537597656 0 49.99972534179688 0 Z" stroke="none" fill="#fff"/>
              </g>
            </g>
            <g id="Trazado_874923" data-name="Trazado 874923" transform="translate(0 0)" fill="none">
              <path d="M50,0a50,50,0,0,1,50,50h0A50,50,0,0,1,0,50H0A50,50,0,0,1,50,0Z" stroke="none"/>
              <path d="M 49.99972534179688 3 C 43.65348052978516 3 37.49866485595703 4.242240905761719 31.70623016357422 6.692230224609375 C 26.10989379882812 9.059272766113281 21.08323669433594 12.44853210449219 16.76589202880859 16.76587677001953 C 12.44855499267578 21.08321380615234 9.059295654296875 26.10985565185547 6.692230224609375 31.70618438720703 C 4.24224853515625 37.49859619140625 3 43.65341186523438 3 50.00022888183594 C 3 56.34645843505859 4.24224853515625 62.50127410888672 6.692230224609375 68.29368591308594 C 9.059295654296875 73.8900146484375 12.44855499267578 78.91665649414062 16.76589202880859 83.23399353027344 C 21.08323669433594 87.55132293701172 26.10989379882812 90.94059753417969 31.70623016357422 93.30764007568359 C 37.49866485595703 95.75762939453125 43.65348052978516 96.99987030029297 49.99972534179688 96.99987030029297 C 56.34597015380859 96.99987030029297 62.50078582763672 95.75762939453125 68.293212890625 93.30764007568359 C 73.88955688476562 90.94059753417969 78.91621398925781 87.55132293701172 83.23355865478516 83.23399353027344 C 87.55089569091797 78.91665649414062 90.94015502929688 73.8900146484375 93.30722045898438 68.29368591308594 C 95.7572021484375 62.50127410888672 96.99945068359375 56.34645843505859 96.99945068359375 49.99964141845703 C 96.99945068359375 43.65341186523438 95.7572021484375 37.49859619140625 93.30722045898438 31.70618438720703 C 90.94015502929688 26.10985565185547 87.55089569091797 21.08321380615234 83.23355865478516 16.76587677001953 C 78.91621398925781 12.44853210449219 73.88955688476562 9.059272766113281 68.293212890625 6.692230224609375 C 62.50078582763672 4.242240905761719 56.34597015380859 3 49.99972534179688 3 M 49.99972534179688 0 C 77.61381530761719 0 99.99945068359375 22.38559722900391 99.99945068359375 49.99964141845703 L 99.99945068359375 50.00022888183594 C 99.99945068359375 77.6142578125 77.61381530761719 99.99987030029297 49.99972534179688 99.99987030029297 C 22.38563537597656 99.99987030029297 0 77.6142578125 0 50.00022888183594 L 0 49.99964141845703 C 0 22.38559722900391 22.38563537597656 0 49.99972534179688 0 Z" stroke="none" fill="#fff"/>
            </g>
          </g>
        </g>
      </g>
    </g>
    <g id="Layer_29" transform="translate(455.056 1395.623)">
      <g id="Grupo_1123373" data-name="Grupo 1123373" transform="translate(-0.006 0.377)">
        <g id="Grupo_1123368" data-name="Grupo 1123368" transform="translate(0 8.251)">
          <g id="Grupo_1123355" data-name="Grupo 1123355" transform="translate(5.856)">
            <g id="Grupo_1123348" data-name="Grupo 1123348">
              <circle id="Elipse_11980" data-name="Elipse 11980" cx="26.905" cy="26.905" r="26.905" transform="translate(0.787 0.767)" fill="#55bde3"/>
              <path id="Trazado_919943" data-name="Trazado 919943" d="M73.092,119.7a27.679,27.679,0,1,1,19.566-8.113A27.669,27.669,0,0,1,73.092,119.7Zm0-53.8A26.125,26.125,0,1,0,99.21,92.023,26.152,26.152,0,0,0,73.092,65.9Z" transform="translate(-45.4 -64.35)"/>
            </g>
            <g id="Grupo_1123354" data-name="Grupo 1123354" transform="translate(3.07 0.006)">
              <g id="Grupo_1123349" data-name="Grupo 1123349" transform="translate(32.49 12.924)">
                <path id="Trazado_919944" data-name="Trazado 919944" d="M346.477,184.244l-2.541,1.238-2.67,5.559-8.538,2.1-4.127-5.353,4.489-6.23-1.045-2.309,3.508-3.7h.1a5.749,5.749,0,0,0,1.612-.245l.645.1a5.55,5.55,0,0,0,.8.052,6.617,6.617,0,0,0,4.3-1.561A26.79,26.79,0,0,1,346.477,184.244Z" transform="translate(-327.633 -172.7)" fill="#2a8078"/>
                <path id="Trazado_919945" data-name="Trazado 919945" d="M325.9,185.92l-4.8-6.2,4.566-6.346L324.6,171l4.1-4.334h.426a4.449,4.449,0,0,0,1.367-.206l.206-.064.206.039a4.01,4.01,0,0,0,.568.1,5.877,5.877,0,0,0,4.5-1.341l.709-.593.464.8a26.951,26.951,0,0,1,3.56,10.641l.065.555-2.786,1.367-2.709,5.649Zm-2.863-6.243,3.47,4.5,7.687-1.9,2.631-5.482,2.283-1.109a25.926,25.926,0,0,0-2.876-8.758,7.4,7.4,0,0,1-4.05,1.2,7.067,7.067,0,0,1-.9-.052l-.5-.077a5.91,5.91,0,0,1-1.419.219l-2.928,3.083,1.019,2.244Z" transform="translate(-321.1 -164.6)"/>
              </g>
              <g id="Grupo_1123350" data-name="Grupo 1123350" transform="translate(3.276 0)">
                <path id="Trazado_919946" data-name="Trazado 919946" d="M122.152,78.585l3.108,6.952-.4,6.075-6.268,2.438-1.832-4.256-5.507.49-2.206-5.043a40.393,40.393,0,0,0-5.675-3.715,15.066,15.066,0,0,1-2.773-1.574h.013A26.941,26.941,0,0,1,125.261,70.7Z" transform="translate(-99.826 -69.621)" fill="#2a8078"/>
                <path id="Trazado_919947" data-name="Trazado 919947" d="M112.954,89.822,111.045,85.4l-5.507.477-2.347-5.366A39.2,39.2,0,0,0,97.824,77a14.281,14.281,0,0,1-2.915-1.664l-.31-.232v-.7l.206-.206a27.644,27.644,0,0,1,21.14-9.8,28.7,28.7,0,0,1,4.2.31l.954.155-3.341,8.487,3.057,6.823-.451,6.759Zm-.929-6.062,1.767,4.076,5.095-1.986.361-5.391-3.16-7.068,2.863-7.274a26.24,26.24,0,0,0-22.417,8.461A15.355,15.355,0,0,0,98.469,75.6a42.348,42.348,0,0,1,5.83,3.8l.155.116,2.064,4.721Z" transform="translate(-94.6 -64.4)"/>
              </g>
              <g id="Grupo_1123351" data-name="Grupo 1123351" transform="translate(3.276)">
                <path id="Trazado_919948" data-name="Trazado 919948" d="M100.6,79.952A26.976,26.976,0,0,1,125.261,70.7l-3.108,7.881,3.108,6.952-.4,6.075-6.268,2.438-1.832-4.256-5.507.49-2.206-5.043Z" transform="translate(-99.826 -69.621)" fill="#2a8078"/>
                <path id="Trazado_919949" data-name="Trazado 919949" d="M112.954,89.822,111.045,85.4l-5.507.477-2.322-5.327L94.6,75.157v-.748l.206-.206a27.644,27.644,0,0,1,21.14-9.8,28.7,28.7,0,0,1,4.2.31l.954.155-3.341,8.487,3.057,6.823-.451,6.759Zm-.929-6.062,1.767,4.076,5.095-1.986.361-5.391-3.16-7.068,2.863-7.274A26.222,26.222,0,0,0,96.56,74.55l7.881,4.94,2.077,4.746Z" transform="translate(-94.6 -64.4)"/>
              </g>
              <g id="Grupo_1123352" data-name="Grupo 1123352" transform="translate(10.409 26.929)">
                <path id="Trazado_919950" data-name="Trazado 919950" d="M163.439,279.693s2.257-.232,3.121-.374c2.128-.374,6.333.593,6.333.593l1.715,5.507-1.96,1.831-1.96,4.682-.722,7.094-4.05,4.54s-.8-3.083-.967-4.437-.49-4.243-.49-4.243l-1.651-.929-1.638-4.334-4.269-1.38,1.509-6.759Z" transform="translate(-155.997 -278.453)" fill="#2a8078"/>
                <path id="Trazado_919951" data-name="Trazado 919951" d="M159.432,299.886l-.361-1.393c-.039-.129-.813-3.147-.98-4.527-.129-1.045-.361-3.031-.451-3.869l-1.548-.864-1.612-4.256-4.579-1.483,1.754-7.868,5.507-1.96h.1c.013-.013,2.244-.245,3.07-.387,2.257-.387,6.449.568,6.63.606l.439.1,1.986,6.4-2.18,2.051-1.857,4.424-.735,7.223Zm-2.089-11.724,1.741.967.052.4c0,.026.322,2.915.49,4.243.09.709.361,1.948.593,2.915l2.915-3.25.7-6.965,2.077-4.94,1.715-1.612L166.19,275.3a19.43,19.43,0,0,0-5.6-.49c-.787.129-2.644.335-3.083.374l-4.54,1.612-1.251,5.649,3.947,1.277Z" transform="translate(-149.9 -273.186)"/>
              </g>
              <g id="Grupo_1123353" data-name="Grupo 1123353" transform="translate(0 22.365)">
                <path id="Trazado_919952" data-name="Trazado 919952" d="M77.8,247.934l2.283-2.734,2.941,1.367v4.372h-1.3Z" transform="translate(-76.691 -244.246)" fill="#2a8078"/>
                <path id="Trazado_919953" data-name="Trazado 919953" d="M76.307,245.268H73.959l-4.759-3.65,3.186-3.818,3.921,1.831Zm-1.819-1.548h.271v-3.108l-1.948-.9-1.393,1.664Z" transform="translate(-69.2 -237.8)"/>
              </g>
            </g>
          </g>
          <g id="Grupo_1123361" data-name="Grupo 1123361" transform="translate(34.248 27.789)">
            <g id="Grupo_1123356" data-name="Grupo 1123356" transform="translate(0 20.706)">
              <path id="Trazado_919954" data-name="Trazado 919954" d="M278.583,453.713l-2.631,1.3a2.591,2.591,0,0,1-3.108-1.406L271.76,451.2a3.138,3.138,0,0,1,1.393-4.05l1.432-.748" transform="translate(-270.718 -445.618)" fill="#ffc9a3"/>
              <path id="Trazado_919955" data-name="Trazado 919955" d="M270,450.614a3.347,3.347,0,0,1-3.057-1.96l-1.083-2.425a3.928,3.928,0,0,1,1.741-5.043l1.432-.748a.752.752,0,0,1,1.032.3.013.013,0,0,0,.013.013.765.765,0,0,1-.31,1.045.013.013,0,0,0-.013.013l-1.419.748a2.333,2.333,0,0,0-1.058,3.044l1.083,2.425a1.773,1.773,0,0,0,2.115.98l2.58-1.264a.773.773,0,0,1,1.032.361.752.752,0,0,1-.335,1.019.013.013,0,0,0-.013.013l-2.7,1.316-.064.026A3.165,3.165,0,0,1,270,450.614Z" transform="translate(-265.523 -440.34)"/>
            </g>
            <g id="Grupo_1123357" data-name="Grupo 1123357" transform="translate(2.696 18.382)">
              <path id="Trazado_919956" data-name="Trazado 919956" d="M303.04,437l-3.1,2a3.272,3.272,0,0,1-4.23-1.341l-2.992-5.572a2.332,2.332,0,0,1,.864-3.108l.632-.387a2.34,2.34,0,0,1,3.212.825.013.013,0,0,0,.013.013l.7,1.225" transform="translate(-291.667 -427.493)" fill="#ffc9a3"/>
              <path id="Trazado_919957" data-name="Trazado 919957" d="M293.321,434.906a4.047,4.047,0,0,1-3.521-2.038h-.013l-2.992-5.585a3.1,3.1,0,0,1,1.148-4.14l.632-.374a3.1,3.1,0,0,1,4.256,1.045l.039.077.7,1.212a.774.774,0,0,1-1.341.774l-.7-1.225a1.541,1.541,0,0,0-.954-.722,1.512,1.512,0,0,0-1.2.168l-.632.374a1.55,1.55,0,0,0-.58,2.077l2.979,5.559a2.508,2.508,0,0,0,3.186,1.032l3.044-1.96a.775.775,0,0,1,.838,1.3l-3.134,2.012-.039.026A3.969,3.969,0,0,1,293.321,434.906Z" transform="translate(-286.424 -422.32)"/>
            </g>
            <g id="Grupo_1123358" data-name="Grupo 1123358" transform="translate(6.916 14.822)">
              <path id="Trazado_919958" data-name="Trazado 919958" d="M337.092,410.631l-3.482,2.257a3.691,3.691,0,0,1-4.785-1.509l-3.366-6.294a2.627,2.627,0,0,1,.967-3.508l.722-.439a2.654,2.654,0,0,1,3.611.916.047.047,0,0,1,.013.039l.8,1.38" transform="translate(-324.367 -399.993)" fill="#ffc9a3"/>
              <path id="Trazado_919959" data-name="Trazado 919959" d="M326.824,408.738a4.5,4.5,0,0,1-3.9-2.244v-.026l-3.379-6.294a3.41,3.41,0,0,1,1.251-4.54l.722-.426a3.388,3.388,0,0,1,4.656,1.161c.013.026.026.039.039.065l.8,1.38a.774.774,0,0,1-1.341.774l-.8-1.38a1.847,1.847,0,0,0-2.567-.671l-.709.426a1.857,1.857,0,0,0-.7,2.476l3.379,6.294a2.937,2.937,0,0,0,3.727,1.2l3.444-2.218a.775.775,0,0,1,.838,1.3l-3.534,2.27-.052.026A4.366,4.366,0,0,1,326.824,408.738Z" transform="translate(-319.142 -394.72)"/>
            </g>
            <g id="Grupo_1123359" data-name="Grupo 1123359" transform="translate(12.757 13.025)">
              <path id="Trazado_919960" data-name="Trazado 919960" d="M383.844,389.074l-1.677,6.5a4.072,4.072,0,0,1-3.534,3.044l-.284.026a4.054,4.054,0,0,1-3.753-1.7l-3.611-5.108a3.183,3.183,0,0,1,.606-4.308l.052-.039a3.176,3.176,0,0,1,4.463.49l.116.155,2.206,3.134" transform="translate(-369.634 -386.016)" fill="#ffc9a3"/>
              <path id="Trazado_919961" data-name="Trazado 919961" d="M372.732,394.217a4.873,4.873,0,0,1-3.973-2.051l-3.611-5.12a3.95,3.95,0,0,1,.761-5.353l.039-.039a3.952,3.952,0,0,1,5.7.813l2.206,3.121a.772.772,0,1,1-1.212.954c-.013-.026-.026-.039-.039-.064l-2.206-3.121a2.368,2.368,0,0,0-1.625-.993,2.429,2.429,0,0,0-1.844.5l-.039.039a2.4,2.4,0,0,0-.464,3.25l3.611,5.12a3.354,3.354,0,0,0,3.044,1.38l.284-.026a3.333,3.333,0,0,0,2.863-2.476l1.677-6.5a.768.768,0,0,1,.967-.5.777.777,0,0,1,.529.89l-1.677,6.5a4.89,4.89,0,0,1-4.2,3.624l-.271.026Z" transform="translate(-364.43 -380.789)"/>
            </g>
            <g id="Grupo_1123360" data-name="Grupo 1123360" transform="translate(19.483)">
              <path id="Trazado_919962" data-name="Trazado 919962" d="M428.474,294.5l4.85,5.572a5.418,5.418,0,0,1-1.251,7.545l-4.321,2.167a3.57,3.57,0,0,1-4.785-1.612c0-.013-.013-.013-.013-.026a3.458,3.458,0,0,1,1.225-4.372l2.8-2.425a18.322,18.322,0,0,0,1.006-3.083,37.285,37.285,0,0,0,.49-3.766Z" transform="translate(-421.841 -292.604)" fill="#ffc9a3"/>
              <path id="Trazado_919963" data-name="Trazado 919963" d="M420.9,298.128a4.42,4.42,0,0,1-1.419-.232,4.307,4.307,0,0,1-2.489-2.218,4.222,4.222,0,0,1,1.445-5.327l2.631-2.283a15.833,15.833,0,0,0,.9-2.773,34.059,34.059,0,0,0,.464-3.65l.142-1.844,6.114,7.016a5.828,5.828,0,0,1,1.019,4.927,6.131,6.131,0,0,1-2.554,3.753l-4.321,2.167A4.234,4.234,0,0,1,420.9,298.128Zm2.9-14.562c-.09.7-.193,1.47-.322,2.064a20.342,20.342,0,0,1-1.058,3.224l-.077.155-3.005,2.605a2.64,2.64,0,0,0-.942,3.392,2.692,2.692,0,0,0,1.586,1.419,2.779,2.779,0,0,0,2.154-.142l4.321-2.167a4.731,4.731,0,0,0,1.741-2.734,4.286,4.286,0,0,0-.748-3.637Z" transform="translate(-416.577 -279.8)"/>
            </g>
          </g>
          <g id="Grupo_1123367" data-name="Grupo 1123367" transform="translate(0 27.789)">
            <g id="Grupo_1123362" data-name="Grupo 1123362" transform="translate(24.135 20.709)">
              <path id="Trazado_919964" data-name="Trazado 919964" d="M193.2,453.713l2.644,1.3a2.582,2.582,0,0,0,3.1-1.406l1.083-2.412a3.138,3.138,0,0,0-1.393-4.05L197.2,446.4" transform="translate(-192.416 -445.621)" fill="#ffc9a3"/>
              <path id="Trazado_919965" data-name="Trazado 919965" d="M191.295,450.635a3.166,3.166,0,0,1-.98-.142l-.064-.026-2.7-1.316a.781.781,0,0,1-.361-1.032.792.792,0,0,1,1.045-.361l2.58,1.264a1.8,1.8,0,0,0,2.128-.98l1.071-2.425a2.332,2.332,0,0,0-1.045-3.044l-1.432-.748a.8.8,0,0,1-.322-1.058.768.768,0,0,1,1.045-.31l1.432.748a3.928,3.928,0,0,1,1.741,5.043l-1.083,2.425a3.326,3.326,0,0,1-3.057,1.961Z" transform="translate(-187.118 -440.364)"/>
            </g>
            <g id="Grupo_1123363" data-name="Grupo 1123363" transform="translate(17.947 18.372)">
              <path id="Trazado_919966" data-name="Trazado 919966" d="M145.1,437l3.1,2a3.268,3.268,0,0,0,4.231-1.341l2.992-5.572a2.32,2.32,0,0,0-.864-3.108l-.632-.387a2.34,2.34,0,0,0-3.212.825.013.013,0,0,1-.013.013l-.7,1.225" transform="translate(-144.331 -427.483)" fill="#ffc9a3"/>
              <path id="Trazado_919967" data-name="Trazado 919967" d="M144.383,434.838a3.969,3.969,0,0,1-1.715-.387l-.039-.026-3.134-2.012a.775.775,0,1,1,.838-1.3l3.044,1.961a2.508,2.508,0,0,0,3.186-1.032l2.979-5.572a1.557,1.557,0,0,0-.568-2.077l-.645-.374a1.475,1.475,0,0,0-1.187-.168,1.6,1.6,0,0,0-.967.722l-.7,1.225a.752.752,0,0,1-1.032.3c-.013,0-.013-.013-.026-.013a.767.767,0,0,1-.284-1.058l.7-1.212a3.088,3.088,0,0,1,4.218-1.161l.077.039.632.374a3.1,3.1,0,0,1,1.148,4.14l-3.005,5.6A4.047,4.047,0,0,1,144.383,434.838Z" transform="translate(-139.139 -422.242)"/>
            </g>
            <g id="Grupo_1123364" data-name="Grupo 1123364" transform="translate(12.375 14.825)">
              <path id="Trazado_919968" data-name="Trazado 919968" d="M101.9,410.6l3.482,2.257a3.691,3.691,0,0,0,4.785-1.509l3.379-6.294a2.644,2.644,0,0,0-.98-3.508l-.709-.439a2.65,2.65,0,0,0-3.624.929c0,.013-.013.013-.013.026l-.787,1.38" transform="translate(-101.131 -399.96)" fill="#ffc9a3"/>
              <path id="Trazado_919969" data-name="Trazado 919969" d="M101.751,408.754a4.366,4.366,0,0,1-1.883-.426l-.052-.026-3.521-2.27a.775.775,0,1,1,.838-1.3l3.431,2.218a2.91,2.91,0,0,0,3.728-1.2l3.379-6.294a1.868,1.868,0,0,0-.684-2.476l-.722-.426a1.851,1.851,0,0,0-2.541.619.1.1,0,0,0-.026.052l-.787,1.38a.78.78,0,0,1-1.354-.774l.8-1.38a3.4,3.4,0,0,1,4.63-1.264c.026.013.039.026.064.039l.722.426a3.423,3.423,0,0,1,1.264,4.54l-3.392,6.32A4.5,4.5,0,0,1,101.751,408.754Z" transform="translate(-95.939 -394.739)"/>
            </g>
            <g id="Grupo_1123365" data-name="Grupo 1123365" transform="translate(5.046 13.031)">
              <path id="Trazado_919970" data-name="Trazado 919970" d="M45.1,389.074l1.677,6.5a4.072,4.072,0,0,0,3.534,3.044l.284.026a4.054,4.054,0,0,0,3.753-1.7l3.611-5.108a3.183,3.183,0,0,0-.606-4.308l-.052-.039a3.176,3.176,0,0,0-4.463.49l-.116.155-2.206,3.134" transform="translate(-44.328 -386.021)" fill="#ffc9a3"/>
              <path id="Trazado_919971" data-name="Trazado 919971" d="M45.8,394.257l-.49-.026-.284-.026a4.89,4.89,0,0,1-4.2-3.624l-1.677-6.5a.779.779,0,1,1,1.509-.387l1.664,6.5a3.333,3.333,0,0,0,2.863,2.476l.284.026a3.354,3.354,0,0,0,3.044-1.38l3.611-5.12a2.4,2.4,0,0,0-.464-3.25l-.039-.039a2.408,2.408,0,0,0-3.47.49l-2.206,3.121a.768.768,0,0,1-1.071.193.783.783,0,0,1-.193-1.083l2.206-3.121a3.977,3.977,0,0,1,5.52-.954.972.972,0,0,1,.181.142l.039.039a3.95,3.95,0,0,1,.761,5.353l-3.611,5.12a4.873,4.873,0,0,1-3.973,2.051Z" transform="translate(-39.117 -380.834)"/>
            </g>
            <g id="Grupo_1123366" data-name="Grupo 1123366">
              <path id="Trazado_919972" data-name="Trazado 919972" d="M11.928,294.5l-4.863,5.572a5.418,5.418,0,0,0,1.264,7.545l4.321,2.167a3.555,3.555,0,0,0,4.772-1.612.045.045,0,0,1,.013-.026,3.439,3.439,0,0,0-1.212-4.372l-2.812-2.425a18.322,18.322,0,0,1-1.006-3.083A35.869,35.869,0,0,1,11.928,294.5Z" transform="translate(-5.246 -292.604)" fill="#ffc9a3"/>
              <path id="Trazado_919973" data-name="Trazado 919973" d="M8.972,298.128a4.144,4.144,0,0,1-1.922-.464L2.729,295.5a6.087,6.087,0,0,1-2.567-3.753,5.872,5.872,0,0,1,1.019-4.927l.052-.052L7.3,279.8l.142,1.844c.013.026.193,2.373.464,3.65a19.329,19.329,0,0,0,.9,2.773l2.631,2.283a4.2,4.2,0,0,1,1.445,5.327,4.307,4.307,0,0,1-2.489,2.218A4.42,4.42,0,0,1,8.972,298.128ZM2.42,287.745a4.286,4.286,0,0,0-.748,3.637,4.731,4.731,0,0,0,1.754,2.734l4.308,2.167a2.793,2.793,0,0,0,3.74-1.251.045.045,0,0,1,.013-.026,2.668,2.668,0,0,0-.942-3.392l-.09-.064-2.928-2.541-.077-.155a20.341,20.341,0,0,1-1.058-3.224c-.129-.593-.232-1.367-.322-2.064Z" transform="translate(0.006 -279.8)"/>
            </g>
          </g>
        </g>
        <g id="Grupo_1123370" data-name="Grupo 1123370" transform="translate(17.116)">
          <g id="Grupo_1123369" data-name="Grupo 1123369">
            <path id="Trazado_919974" data-name="Trazado 919974" d="M147.009,6a6.709,6.709,0,0,0-6.139,4.011,5.236,5.236,0,0,0,3.083,9.467,5.176,5.176,0,0,0,1.6-.245,6.907,6.907,0,0,0,1.457.155,6.694,6.694,0,0,0,0-13.388Z" transform="translate(-137.941 -5.275)" fill="#719b29"/>
            <path id="Trazado_919975" data-name="Trazado 919975" d="M138.71,15.355a6.009,6.009,0,0,1-3.7-10.744,7.439,7.439,0,1,1,5.34,10.512A5.846,5.846,0,0,1,138.71,15.355Zm3.057-13.478a5.92,5.92,0,0,0-5.43,3.547.671.671,0,0,1-.258.31,4.476,4.476,0,0,0,4,7.868.707.707,0,0,1,.4-.026,6.174,6.174,0,0,0,1.29.142,5.92,5.92,0,0,0,0-11.84Z" transform="translate(-132.7 -0.377)"/>
          </g>
          <path id="Trazado_919976" data-name="Trazado 919976" d="M190.8,58.3h1.548V73.017H190.8Z" transform="translate(-183.306 -50.829)"/>
          <path id="Trazado_919977" data-name="Trazado 919977" d="M0,0H4.656V1.548H0Z" transform="translate(7.74 11.462) rotate(-40.782)"/>
          <path id="Trazado_919978" data-name="Trazado 919978" d="M0,0H1.548V2.721H0Z" transform="translate(5.509 9.155) rotate(-61.719)"/>
        </g>
        <g id="Grupo_1123372" data-name="Grupo 1123372" transform="translate(43.427 9.777)">
          <g id="Grupo_1123371" data-name="Grupo 1123371">
            <path id="Trazado_919979" data-name="Trazado 919979" d="M357.682,88.8a6.688,6.688,0,0,1-6.694,6.694,5.552,5.552,0,0,1-.8-.052l-.645-.1a5.75,5.75,0,0,1-1.612.245h-.1a5.235,5.235,0,0,1-2.979-9.467A6.694,6.694,0,0,1,357.682,88.8Z" transform="translate(-341.919 -81.33)" fill="#719b29"/>
            <path id="Trazado_919980" data-name="Trazado 919980" d="M342.7,91.21h-.129A6.009,6.009,0,0,1,339,80.466a7.472,7.472,0,1,1,6.771,10.654,7.064,7.064,0,0,1-.9-.052l-.5-.077A6.7,6.7,0,0,1,342.7,91.21Zm3.057-13.478a5.947,5.947,0,0,0-5.43,3.547.818.818,0,0,1-.245.31,4.463,4.463,0,0,0,2.528,8.074h.09a4.448,4.448,0,0,0,1.367-.206.745.745,0,0,1,.413-.026,4.012,4.012,0,0,0,.568.1A5.92,5.92,0,0,0,346.4,77.77a5.406,5.406,0,0,0-.645-.039Z" transform="translate(-336.691 -76.181)"/>
          </g>
          <path id="Trazado_919981" data-name="Trazado 919981" d="M394.8,134.5h1.548v14.717H394.8Z" transform="translate(-387.305 -126.978)"/>
          <path id="Trazado_919982" data-name="Trazado 919982" d="M0,0H4.656V1.548H0Z" transform="translate(7.739 11.513) rotate(-40.782)"/>
          <path id="Trazado_919983" data-name="Trazado 919983" d="M0,0H1.548V2.721H0Z" transform="translate(5.512 9.193) rotate(-61.719)"/>
        </g>
      </g>
    </g>
  </g>
</svg>
