<svg xmlns="http://www.w3.org/2000/svg" xmlns:xlink="http://www.w3.org/1999/xlink" width="117.999" height="118" viewBox="0 0 117.999 118">
  <defs>
    <filter id="Trazado_874925" x="0" y="0" width="117.999" height="118" filterUnits="userSpaceOnUse">
      <feOffset dy="3" input="SourceAlpha"/>
      <feGaussianBlur stdDeviation="3" result="blur"/>
      <feFlood flood-opacity="0.161"/>
      <feComposite operator="in" in2="blur"/>
      <feComposite in="SourceGraphic"/>
    </filter>
  </defs>
  <g id="Grupo_1120262" data-name="Grupo 1120262" transform="translate(949.466 2410.72)">
    <g id="Grupo_1111553" data-name="Grupo 1111553" transform="translate(-1748.967 -4921.877)">
      <g id="Grupo_1111316" data-name="Grupo 1111316" transform="translate(808.5 2517.157)">
        <g id="Grupo_1109835" data-name="Grupo 1109835" transform="translate(0 0)">
          <g id="Grupo_1107913" data-name="Grupo 1107913" transform="translate(0 0)">
            <g transform="matrix(1, 0, 0, 1, -9, -6)" filter="url(#Trazado_874925)">
              <g id="Trazado_874925-2" data-name="Trazado 874925" transform="translate(9 6)" fill="#bb965f" opacity="0.859">
                <path d="M 49.99972534179688 98.4998779296875 C 43.45164108276367 98.4998779296875 37.10022354125977 97.21776580810547 31.12189674377441 94.68914794921875 C 25.34676742553711 92.24647521972656 20.15985298156738 88.74925994873047 15.70523929595947 84.29464721679688 C 11.25062561035156 79.84004974365234 7.753411293029785 74.65313720703125 5.310725212097168 68.87800598144531 C 2.782111167907715 62.89969253540039 1.499996781349182 56.54829406738281 1.499996781349182 50.00022125244141 C 1.499996781349182 43.45157623291016 2.782111167907715 37.10017776489258 5.310725212097168 31.12186431884766 C 7.753411293029785 25.34673500061035 11.25062561035156 20.15983581542969 15.70523929595947 15.70522117614746 C 20.15985298156738 11.25062084197998 25.34676742553711 7.753406524658203 31.12189674377441 5.31073522567749 C 37.10022354125977 2.782120943069458 43.45164108276367 1.500006556510925 49.99972534179688 1.500006556510925 C 56.54780960083008 1.500006556510925 62.89922714233398 2.782120943069458 68.87755584716797 5.31073522567749 C 74.65267944335938 7.753406524658203 79.839599609375 11.25062084197998 84.29421234130859 15.70522117614746 C 88.74882507324219 20.15983581542969 92.24604034423828 25.34673500061035 94.68872833251953 31.12186431884766 C 97.21733856201172 37.10017776489258 98.49945068359375 43.45157623291016 98.49945068359375 49.99964904785156 C 98.49945068359375 56.54829406738281 97.21733856201172 62.89969253540039 94.68872833251953 68.87800598144531 C 92.24604034423828 74.65313720703125 88.74882507324219 79.84004974365234 84.29421234130859 84.29464721679688 C 79.839599609375 88.74925994873047 74.65267944335938 92.24647521972656 68.87755584716797 94.68914794921875 C 62.89922714233398 97.21776580810547 56.54780960083008 98.4998779296875 49.99972534179688 98.4998779296875 Z" stroke="none"/>
                <path d="M 49.99972534179688 3 C 43.65348052978516 3 37.49866485595703 4.242240905761719 31.70623016357422 6.692230224609375 C 26.10989379882812 9.059272766113281 21.08323669433594 12.44853210449219 16.76589202880859 16.76587677001953 C 12.44855499267578 21.08321380615234 9.059295654296875 26.10985565185547 6.692230224609375 31.70618438720703 C 4.24224853515625 37.49859619140625 3 43.65341186523438 3 50.00022888183594 C 3 56.34645843505859 4.24224853515625 62.50127410888672 6.692230224609375 68.29368591308594 C 9.059295654296875 73.8900146484375 12.44855499267578 78.91665649414062 16.76589202880859 83.23399353027344 C 21.08323669433594 87.55132293701172 26.10989379882812 90.94059753417969 31.70623016357422 93.30764007568359 C 37.49866485595703 95.75762939453125 43.65348052978516 96.99987030029297 49.99972534179688 96.99987030029297 C 56.34597015380859 96.99987030029297 62.50078582763672 95.75762939453125 68.293212890625 93.30764007568359 C 73.88955688476562 90.94059753417969 78.91621398925781 87.55132293701172 83.23355865478516 83.23399353027344 C 87.55089569091797 78.91665649414062 90.94015502929688 73.8900146484375 93.30722045898438 68.29368591308594 C 95.7572021484375 62.50127410888672 96.99945068359375 56.34645843505859 96.99945068359375 49.99964141845703 C 96.99945068359375 43.65341186523438 95.7572021484375 37.49859619140625 93.30722045898438 31.70618438720703 C 90.94015502929688 26.10985565185547 87.55089569091797 21.08321380615234 83.23355865478516 16.76587677001953 C 78.91621398925781 12.44853210449219 73.88955688476562 9.059272766113281 68.293212890625 6.692230224609375 C 62.50078582763672 4.242240905761719 56.34597015380859 3 49.99972534179688 3 M 49.99972534179688 0 C 77.61381530761719 0 99.99945068359375 22.38559722900391 99.99945068359375 49.99964141845703 L 99.99945068359375 50.00022888183594 C 99.99945068359375 77.6142578125 77.61381530761719 99.99987030029297 49.99972534179688 99.99987030029297 C 22.38563537597656 99.99987030029297 0 77.6142578125 0 50.00022888183594 L 0 49.99964141845703 C 0 22.38559722900391 22.38563537597656 0 49.99972534179688 0 Z" stroke="none" fill="#fff"/>
              </g>
            </g>
            <g id="Trazado_874923" data-name="Trazado 874923" transform="translate(0 0)" fill="none">
              <path d="M50,0a50,50,0,0,1,50,50h0A50,50,0,0,1,0,50H0A50,50,0,0,1,50,0Z" stroke="none"/>
              <path d="M 49.99972534179688 3 C 43.65348052978516 3 37.49866485595703 4.242240905761719 31.70623016357422 6.692230224609375 C 26.10989379882812 9.059272766113281 21.08323669433594 12.44853210449219 16.76589202880859 16.76587677001953 C 12.44855499267578 21.08321380615234 9.059295654296875 26.10985565185547 6.692230224609375 31.70618438720703 C 4.24224853515625 37.49859619140625 3 43.65341186523438 3 50.00022888183594 C 3 56.34645843505859 4.24224853515625 62.50127410888672 6.692230224609375 68.29368591308594 C 9.059295654296875 73.8900146484375 12.44855499267578 78.91665649414062 16.76589202880859 83.23399353027344 C 21.08323669433594 87.55132293701172 26.10989379882812 90.94059753417969 31.70623016357422 93.30764007568359 C 37.49866485595703 95.75762939453125 43.65348052978516 96.99987030029297 49.99972534179688 96.99987030029297 C 56.34597015380859 96.99987030029297 62.50078582763672 95.75762939453125 68.293212890625 93.30764007568359 C 73.88955688476562 90.94059753417969 78.91621398925781 87.55132293701172 83.23355865478516 83.23399353027344 C 87.55089569091797 78.91665649414062 90.94015502929688 73.8900146484375 93.30722045898438 68.29368591308594 C 95.7572021484375 62.50127410888672 96.99945068359375 56.34645843505859 96.99945068359375 49.99964141845703 C 96.99945068359375 43.65341186523438 95.7572021484375 37.49859619140625 93.30722045898438 31.70618438720703 C 90.94015502929688 26.10985565185547 87.55089569091797 21.08321380615234 83.23355865478516 16.76587677001953 C 78.91621398925781 12.44853210449219 73.88955688476562 9.059272766113281 68.293212890625 6.692230224609375 C 62.50078582763672 4.242240905761719 56.34597015380859 3 49.99972534179688 3 M 49.99972534179688 0 C 77.61381530761719 0 99.99945068359375 22.38559722900391 99.99945068359375 49.99964141845703 L 99.99945068359375 50.00022888183594 C 99.99945068359375 77.6142578125 77.61381530761719 99.99987030029297 49.99972534179688 99.99987030029297 C 22.38563537597656 99.99987030029297 0 77.6142578125 0 50.00022888183594 L 0 49.99964141845703 C 0 22.38559722900391 22.38563537597656 0 49.99972534179688 0 Z" stroke="none" fill="#fff"/>
            </g>
          </g>
        </g>
      </g>
    </g>
    <g id="Fill_out_line" data-name="Fill out line" transform="translate(-938.943 -2403.196)">
      <rect id="Rect치ngulo_405727" data-name="Rect치ngulo 405727" width="62.951" height="41.244" rx="6" transform="translate(16.724 25.96)" fill="#8acce7"/>
      <path id="Trazado_918466" data-name="Trazado 918466" d="M86.787,344v2.165a4.331,4.331,0,0,1-4.33,4.33H28.33a4.331,4.331,0,0,1-4.33-4.33V344Z" transform="translate(-6.917 -283.616)" fill="#396795"/>
      <path id="Trazado_918467" data-name="Trazado 918467" d="M203.486,400.66l-1.268-1.268A10.454,10.454,0,0,1,199.155,392H188.33a10.454,10.454,0,0,1-3.062,7.392L184,400.66Z" transform="translate(-145.267 -325.121)" fill="#26507a"/>
      <rect id="Rect치ngulo_405728" data-name="Rect치ngulo 405728" width="32.561" height="4.341" rx="2.171" transform="translate(31.919 75.887)" fill="#396795"/>
      <path id="Trazado_918468" data-name="Trazado 918468" d="M245.889,201.461v11.1H208a20.571,20.571,0,0,1,37.889-11.1Z" transform="translate(-166.019 -152.176)" fill="#c4965c"/>
      <path id="Trazado_918469" data-name="Trazado 918469" d="M368.238,29.413V24H356.33A4.33,4.33,0,0,0,352,28.33v5.413h11.908A4.33,4.33,0,0,0,368.238,29.413Z" transform="translate(-290.534 -6.917)" fill="#349966"/>
      <path id="Trazado_918470" data-name="Trazado 918470" d="M267.908,78.733l1.083-12.99h-8.66a4.331,4.331,0,0,1-4.33-4.33V56h11.908a4.331,4.331,0,0,1,4.33,4.33v5.413l1.083,12.99Z" transform="translate(-207.524 -34.587)" fill="#4ba477"/>
      <path id="Trazado_918471" data-name="Trazado 918471" d="M80,120H97.321v5.413H80Z" transform="translate(-55.34 -89.927)" fill="#eedc9a"/>
      <path id="Trazado_918472" data-name="Trazado 918472" d="M78.021,25.267a5.379,5.379,0,0,0,.766-2.772V17.083A1.083,1.083,0,0,0,77.7,16H65.8a5.422,5.422,0,0,0-5.3,4.333l-.108,0H48.476a1.083,1.083,0,0,0-1.083,1.083V24.66H21.413A5.419,5.419,0,0,0,16,30.073V62.549a5.419,5.419,0,0,0,5.413,5.413h20.5a9.3,9.3,0,0,1-2.681,5.544l-.951.951H34.4a3.248,3.248,0,0,0,0,6.5H62.549a3.248,3.248,0,1,0,0-6.5H58.667l-.951-.951a9.3,9.3,0,0,1-2.681-5.544h20.5a5.419,5.419,0,0,0,5.413-5.413V30.073a5.451,5.451,0,0,0-2.931-4.806ZM59.38,43.158a5.421,5.421,0,0,0-4.409,5.318h2.165a3.248,3.248,0,0,1,6.5,0H65.8a5.381,5.381,0,0,0-.977-3.1,3.246,3.246,0,0,1,4.225,3.1h2.165A5.421,5.421,0,0,0,66.8,43.158l-.152-1.826a19.469,19.469,0,0,1,12.139,8.28V59.3H43.094A19.487,19.487,0,0,1,59.549,41.129Zm19.407,2.905a21.6,21.6,0,0,0-12.326-6.975L65.8,31.11v-3.2h7.578a5.381,5.381,0,0,0,3.063-.953,3.267,3.267,0,0,1,2.35,3.118ZM65.8,18.165H76.622V22.5a3.251,3.251,0,0,1-3.248,3.248h0A5.384,5.384,0,0,0,74.457,22.5V20.33H72.292V22.5a3.251,3.251,0,0,1-3.248,3.248H65.8a5.419,5.419,0,0,0-3.191-4.934A3.252,3.252,0,0,1,65.8,18.165ZM49.559,22.5H60.384a3.251,3.251,0,0,1,3.248,3.248v5.413q0,.045,0,.09l1,11.946a5.44,5.44,0,0,0-1.542.6,5.374,5.374,0,0,0-1.539-.6l1-11.946a1.082,1.082,0,0,0-1.079-1.172h-4.33a3.251,3.251,0,0,1-3.248-3.248V24.66H51.724v2.165a5.384,5.384,0,0,0,1.086,3.248h0a3.251,3.251,0,0,1-3.248-3.248Zm-28.146,4.33H47.394a5.419,5.419,0,0,0,5.413,5.413H60.29l-.556,6.678A21.652,21.652,0,0,0,40.926,59.3H18.165V30.073a3.251,3.251,0,0,1,3.248-3.248ZM63.632,77.7a1.084,1.084,0,0,1-1.083,1.083H34.4a1.083,1.083,0,1,1,0-2.165H62.549A1.084,1.084,0,0,1,63.632,77.7Zm-7.984-3.248H41.3a11.428,11.428,0,0,0,2.79-6.5h8.763A11.428,11.428,0,0,0,55.648,74.457ZM75.539,65.8H21.413a3.251,3.251,0,0,1-3.248-3.248V61.466H78.787v1.083A3.251,3.251,0,0,1,75.539,65.8Z"/>
      <circle id="Elipse_11909" data-name="Elipse 11909" cx="1.085" cy="1.085" r="1.085" transform="translate(47.114 62.863)"/>
      <path id="Trazado_918473" data-name="Trazado 918473" d="M73.083,119.578H90.4a1.083,1.083,0,0,0,1.083-1.083v-5.413A1.083,1.083,0,0,0,90.4,112H73.083A1.083,1.083,0,0,0,72,113.083V118.5a1.083,1.083,0,0,0,1.083,1.083Zm1.083-5.413H89.321v3.248H74.165Z" transform="translate(-48.422 -83.01)"/>
      <path id="Trazado_918474" data-name="Trazado 918474" d="M176,184h4.33v2.165H176Z" transform="translate(-138.349 -145.267)"/>
      <path id="Trazado_918475" data-name="Trazado 918475" d="M112,184h6.5v2.165H112Z" transform="translate(-83.01 -145.267)"/>
      <path id="Trazado_918476" data-name="Trazado 918476" d="M80,184h2.165v2.165H80Z" transform="translate(-55.34 -145.267)"/>
      <path id="Trazado_918477" data-name="Trazado 918477" d="M176,216h4.33v2.165H176Z" transform="translate(-138.349 -172.937)"/>
      <path id="Trazado_918478" data-name="Trazado 918478" d="M112,216h6.5v2.165H112Z" transform="translate(-83.01 -172.937)"/>
      <path id="Trazado_918479" data-name="Trazado 918479" d="M56,216h5.413v2.165H56Z" transform="translate(-34.587 -172.937)"/>
      <path id="Trazado_918480" data-name="Trazado 918480" d="M56,248h4.33v2.165H56Z" transform="translate(-34.587 -200.606)"/>
      <path id="Trazado_918481" data-name="Trazado 918481" d="M104,248h6.5v2.165H104Z" transform="translate(-76.092 -200.606)"/>
      <path id="Trazado_918482" data-name="Trazado 918482" d="M168,248h5.413v2.165H168Z" transform="translate(-131.432 -200.606)"/>
      <path id="Trazado_918483" data-name="Trazado 918483" d="M56,280h7.578v2.165H56Z" transform="translate(-34.587 -228.276)"/>
      <path id="Trazado_918484" data-name="Trazado 918484" d="M128,280h4.33v2.165H128Z" transform="translate(-96.845 -228.276)"/>
    </g>
  </g>
</svg>
