<svg xmlns="http://www.w3.org/2000/svg" xmlns:xlink="http://www.w3.org/1999/xlink" width="117.999" height="118" viewBox="0 0 117.999 118">
  <defs>
    <filter id="Trazado_874925" x="0" y="0" width="117.999" height="118" filterUnits="userSpaceOnUse">
      <feOffset dy="3" input="SourceAlpha"/>
      <feGaussianBlur stdDeviation="3" result="blur"/>
      <feFlood flood-opacity="0.161"/>
      <feComposite operator="in" in2="blur"/>
      <feComposite in="SourceGraphic"/>
    </filter>
  </defs>
  <g id="Grupo_1120284" data-name="Grupo 1120284" transform="translate(298.999 2411)">
    <g id="Grupo_1111553" data-name="Grupo 1111553" transform="translate(-1098.5 -4922.157)">
      <g id="Grupo_1111316" data-name="Grupo 1111316" transform="translate(808.5 2517.157)">
        <g id="Grupo_1109835" data-name="Grupo 1109835" transform="translate(0 0)">
          <g id="Grupo_1107913" data-name="Grupo 1107913" transform="translate(0 0)">
            <g transform="matrix(1, 0, 0, 1, -9, -6)" filter="url(#Trazado_874925)">
              <g id="Trazado_874925-2" data-name="Trazado 874925" transform="translate(9 6)" fill="#bb965f" opacity="0.859">
                <path d="M 49.99972534179688 98.4998779296875 C 43.45164108276367 98.4998779296875 37.10022354125977 97.21776580810547 31.12189674377441 94.68914794921875 C 25.34676742553711 92.24647521972656 20.15985298156738 88.74925994873047 15.70523929595947 84.29464721679688 C 11.25062561035156 79.84004974365234 7.753411293029785 74.65313720703125 5.310725212097168 68.87800598144531 C 2.782111167907715 62.89969253540039 1.499996781349182 56.54829406738281 1.499996781349182 50.00022125244141 C 1.499996781349182 43.45157623291016 2.782111167907715 37.10017776489258 5.310725212097168 31.12186431884766 C 7.753411293029785 25.34673500061035 11.25062561035156 20.15983581542969 15.70523929595947 15.70522117614746 C 20.15985298156738 11.25062084197998 25.34676742553711 7.753406524658203 31.12189674377441 5.31073522567749 C 37.10022354125977 2.782120943069458 43.45164108276367 1.500006556510925 49.99972534179688 1.500006556510925 C 56.54780960083008 1.500006556510925 62.89922714233398 2.782120943069458 68.87755584716797 5.31073522567749 C 74.65267944335938 7.753406524658203 79.839599609375 11.25062084197998 84.29421234130859 15.70522117614746 C 88.74882507324219 20.15983581542969 92.24604034423828 25.34673500061035 94.68872833251953 31.12186431884766 C 97.21733856201172 37.10017776489258 98.49945068359375 43.45157623291016 98.49945068359375 49.99964904785156 C 98.49945068359375 56.54829406738281 97.21733856201172 62.89969253540039 94.68872833251953 68.87800598144531 C 92.24604034423828 74.65313720703125 88.74882507324219 79.84004974365234 84.29421234130859 84.29464721679688 C 79.839599609375 88.74925994873047 74.65267944335938 92.24647521972656 68.87755584716797 94.68914794921875 C 62.89922714233398 97.21776580810547 56.54780960083008 98.4998779296875 49.99972534179688 98.4998779296875 Z" stroke="none"/>
                <path d="M 49.99972534179688 3 C 43.65348052978516 3 37.49866485595703 4.242240905761719 31.70623016357422 6.692230224609375 C 26.10989379882812 9.059272766113281 21.08323669433594 12.44853210449219 16.76589202880859 16.76587677001953 C 12.44855499267578 21.08321380615234 9.059295654296875 26.10985565185547 6.692230224609375 31.70618438720703 C 4.24224853515625 37.49859619140625 3 43.65341186523438 3 50.00022888183594 C 3 56.34645843505859 4.24224853515625 62.50127410888672 6.692230224609375 68.29368591308594 C 9.059295654296875 73.8900146484375 12.44855499267578 78.91665649414062 16.76589202880859 83.23399353027344 C 21.08323669433594 87.55132293701172 26.10989379882812 90.94059753417969 31.70623016357422 93.30764007568359 C 37.49866485595703 95.75762939453125 43.65348052978516 96.99987030029297 49.99972534179688 96.99987030029297 C 56.34597015380859 96.99987030029297 62.50078582763672 95.75762939453125 68.293212890625 93.30764007568359 C 73.88955688476562 90.94059753417969 78.91621398925781 87.55132293701172 83.23355865478516 83.23399353027344 C 87.55089569091797 78.91665649414062 90.94015502929688 73.8900146484375 93.30722045898438 68.29368591308594 C 95.7572021484375 62.50127410888672 96.99945068359375 56.34645843505859 96.99945068359375 49.99964141845703 C 96.99945068359375 43.65341186523438 95.7572021484375 37.49859619140625 93.30722045898438 31.70618438720703 C 90.94015502929688 26.10985565185547 87.55089569091797 21.08321380615234 83.23355865478516 16.76587677001953 C 78.91621398925781 12.44853210449219 73.88955688476562 9.059272766113281 68.293212890625 6.692230224609375 C 62.50078582763672 4.242240905761719 56.34597015380859 3 49.99972534179688 3 M 49.99972534179688 0 C 77.61381530761719 0 99.99945068359375 22.38559722900391 99.99945068359375 49.99964141845703 L 99.99945068359375 50.00022888183594 C 99.99945068359375 77.6142578125 77.61381530761719 99.99987030029297 49.99972534179688 99.99987030029297 C 22.38563537597656 99.99987030029297 0 77.6142578125 0 50.00022888183594 L 0 49.99964141845703 C 0 22.38559722900391 22.38563537597656 0 49.99972534179688 0 Z" stroke="none" fill="#fff"/>
              </g>
            </g>
            <g id="Trazado_874923" data-name="Trazado 874923" transform="translate(0 0)" fill="none">
              <path d="M50,0a50,50,0,0,1,50,50h0A50,50,0,0,1,0,50H0A50,50,0,0,1,50,0Z" stroke="none"/>
              <path d="M 49.99972534179688 3 C 43.65348052978516 3 37.49866485595703 4.242240905761719 31.70623016357422 6.692230224609375 C 26.10989379882812 9.059272766113281 21.08323669433594 12.44853210449219 16.76589202880859 16.76587677001953 C 12.44855499267578 21.08321380615234 9.059295654296875 26.10985565185547 6.692230224609375 31.70618438720703 C 4.24224853515625 37.49859619140625 3 43.65341186523438 3 50.00022888183594 C 3 56.34645843505859 4.24224853515625 62.50127410888672 6.692230224609375 68.29368591308594 C 9.059295654296875 73.8900146484375 12.44855499267578 78.91665649414062 16.76589202880859 83.23399353027344 C 21.08323669433594 87.55132293701172 26.10989379882812 90.94059753417969 31.70623016357422 93.30764007568359 C 37.49866485595703 95.75762939453125 43.65348052978516 96.99987030029297 49.99972534179688 96.99987030029297 C 56.34597015380859 96.99987030029297 62.50078582763672 95.75762939453125 68.293212890625 93.30764007568359 C 73.88955688476562 90.94059753417969 78.91621398925781 87.55132293701172 83.23355865478516 83.23399353027344 C 87.55089569091797 78.91665649414062 90.94015502929688 73.8900146484375 93.30722045898438 68.29368591308594 C 95.7572021484375 62.50127410888672 96.99945068359375 56.34645843505859 96.99945068359375 49.99964141845703 C 96.99945068359375 43.65341186523438 95.7572021484375 37.49859619140625 93.30722045898438 31.70618438720703 C 90.94015502929688 26.10985565185547 87.55089569091797 21.08321380615234 83.23355865478516 16.76587677001953 C 78.91621398925781 12.44853210449219 73.88955688476562 9.059272766113281 68.293212890625 6.692230224609375 C 62.50078582763672 4.242240905761719 56.34597015380859 3 49.99972534179688 3 M 49.99972534179688 0 C 77.61381530761719 0 99.99945068359375 22.38559722900391 99.99945068359375 49.99964141845703 L 99.99945068359375 50.00022888183594 C 99.99945068359375 77.6142578125 77.61381530761719 99.99987030029297 49.99972534179688 99.99987030029297 C 22.38563537597656 99.99987030029297 0 77.6142578125 0 50.00022888183594 L 0 49.99964141845703 C 0 22.38559722900391 22.38563537597656 0 49.99972534179688 0 Z" stroke="none" fill="#fff"/>
            </g>
          </g>
        </g>
      </g>
    </g>
    <g id="Grupo_1120283" data-name="Grupo 1120283" transform="translate(-290.829 -2386)">
      <g id="Grupo_1120281" data-name="Grupo 1120281" transform="translate(23.736 0.906)">
        <path id="Trazado_918510" data-name="Trazado 918510" d="M217.718,10.388A4.182,4.182,0,0,0,213.741,7.5H198.867a4.182,4.182,0,0,0-3.976,2.888,5.5,5.5,0,0,0-3.745,5.208V25.02h30.318V15.6a5.5,5.5,0,0,0-3.745-5.209Z" transform="translate(-171.709 -7.5)" fill="#ffe177"/>
        <path id="Trazado_918511" data-name="Trazado 918511" d="M366.026,15.6V25.02H363.3V15.6a5.5,5.5,0,0,0-3.745-5.208A4.183,4.183,0,0,0,355.581,7.5H358.3a4.183,4.183,0,0,1,3.976,2.889,5.5,5.5,0,0,1,3.745,5.208Z" transform="translate(-316.271 -7.5)" fill="#ffd15b"/>
        <path id="Trazado_918512" data-name="Trazado 918512" d="M191.378,319.354v12.133a2.5,2.5,0,0,1-2.5,2.5H151.47V319.354a5.788,5.788,0,0,1,4.628-5.672l4.56-.934,10.767-2.206,10.765,2.206,4.56.934A5.788,5.788,0,0,1,191.378,319.354Z" transform="translate(-136.829 -273.917)" fill="#cb97e7"/>
        <path id="Trazado_918513" data-name="Trazado 918513" d="M322.635,319.352v12.133a2.5,2.5,0,0,1-2.5,2.5h-3.819a2.5,2.5,0,0,0,2.5-2.5V319.352a5.789,5.789,0,0,0-4.629-5.672l-4.559-.933-8.857-1.815,1.911-.392,10.765,2.207,4.56.933A5.789,5.789,0,0,1,322.635,319.352Z" transform="translate(-268.085 -273.914)" fill="#b289c9"/>
        <path id="Trazado_918514" data-name="Trazado 918514" d="M291.442,272.43v5.427l-4.011,2.905-1.574-1.143-2.426-1.762V272.43Z" transform="translate(-252.841 -240.41)" fill="#ffeee6"/>
        <path id="Trazado_918515" data-name="Trazado 918515" d="M309.086,272.43v5.427l-4.011,2.905-1.574-1.143,1.91-1.762V272.43Z" transform="translate(-270.485 -240.41)" fill="#ffdfcf"/>
        <path id="Trazado_918516" data-name="Trazado 918516" d="M395.834,127.88h1.483a3.918,3.918,0,1,0,0-7.836h-3.8Z" transform="translate(-349.62 -106.442)" fill="#ffeee6"/>
        <path id="Trazado_918517" data-name="Trazado 918517" d="M418.1,123.958a3.918,3.918,0,0,1-3.918,3.918H412.7c1.345,0,3.059-1.754,3.059-3.918a4.348,4.348,0,0,0-1.025-2.77,2.88,2.88,0,0,0-2.034-1.148h1.483a3.92,3.92,0,0,1,3.918,3.918Z" transform="translate(-366.487 -106.438)" fill="#ffdfcf"/>
        <path id="Trazado_918518" data-name="Trazado 918518" d="M234.793,88.54h-5.475a8.881,8.881,0,0,1-8.881-8.881V62.647h23.237V79.659A8.881,8.881,0,0,1,234.793,88.54Z" transform="translate(-197.46 -55.982)" fill="#ffeee6"/>
        <path id="Trazado_918519" data-name="Trazado 918519" d="M321.693,62.65V79.661a8.881,8.881,0,0,1-8.881,8.881h-3.631a8.881,8.881,0,0,0,8.882-8.881V62.65Z" transform="translate(-275.479 -55.985)" fill="#ffdfcf"/>
        <path id="Trazado_918520" data-name="Trazado 918520" d="M240.046,62.65H220.438v6.937a3.63,3.63,0,0,0,3.63-3.63h15.978a3.63,3.63,0,0,0,3.63,3.63V62.65Z" transform="translate(-197.461 -55.985)" fill="#ffe177"/>
        <path id="Trazado_918521" data-name="Trazado 918521" d="M74.7,376.518H66.644a2.5,2.5,0,0,1-2.5-2.5v-15.1h8.189a2.365,2.365,0,0,1,2.365,2.365v15.229Z" transform="translate(-60.06 -316.451)" fill="#cb97e7"/>
        <path id="Trazado_918522" data-name="Trazado 918522" d="M108.507,361.3v15.229h-3.541V361.3a2.366,2.366,0,0,0-2.365-2.365h3.541A2.365,2.365,0,0,1,108.507,361.3Z" transform="translate(-93.866 -316.456)" fill="#b289c9"/>
        <circle id="Elipse_11910" data-name="Elipse 11910" cx="8.499" cy="8.499" r="8.499" transform="translate(14.019 9.102)" fill="#8ebac5"/>
        <path id="Trazado_918523" data-name="Trazado 918523" d="M208.248,97.321a8.494,8.494,0,0,1-7.989,2.257,8.5,8.5,0,0,0,0-16.532,8.5,8.5,0,0,1,7.989,14.275Z" transform="translate(-179.721 -73.711)" fill="#7ca1b1"/>
        <path id="Trazado_918524" data-name="Trazado 918524" d="M184.941,129.772a1.487,1.487,0,0,1,0,1.964,6.151,6.151,0,0,1-9.247,0,1.487,1.487,0,0,1,0-1.964,6.151,6.151,0,0,1,9.247,0Z" transform="translate(-157.799 -113.153)" fill="#eaf6ff"/>
        <circle id="Elipse_11911" data-name="Elipse 11911" cx="1.813" cy="1.813" r="1.813" transform="translate(20.662 15.788)" fill="#fb5f7a"/>
        <path id="Trazado_918525" data-name="Trazado 918525" d="M253.587,317.329l-4.1.841,2.139,4.682a1.912,1.912,0,0,0,3.158.488l2.806-3.1Z" transform="translate(-222.997 -279.883)" fill="#eaf6ff"/>
        <path id="Trazado_918526" data-name="Trazado 918526" d="M270.56,320.235l-2.805,3.1a1.913,1.913,0,0,1-2.9-.077l2.736-3.028-3.345-2.43,2.319-.475Z" transform="translate(-235.97 -279.884)" fill="#c8effe"/>
        <path id="Trazado_918527" data-name="Trazado 918527" d="M320.526,317.329l4.1.841-2.139,4.682a1.912,1.912,0,0,1-3.158.488l-2.806-3.1Z" transform="translate(-281.936 -279.883)" fill="#eaf6ff"/>
        <path id="Trazado_918528" data-name="Trazado 918528" d="M344.528,320.466l-2.139,4.682a1.913,1.913,0,0,1-3.158.487l-.07-.077a1.869,1.869,0,0,0,.254-.41l2.549-5.208Z" transform="translate(-301.835 -282.178)" fill="#c8effe"/>
        <path id="Trazado_918529" data-name="Trazado 918529" d="M82.256,277.866l-6.165-4.2v-1.963l8.8-.234Z" transform="translate(-70.56 -239.569)" fill="#ffdfcf"/>
        <path id="Trazado_918530" data-name="Trazado 918530" d="M64.147,289.65h7.608v8.372H64.147Z" transform="translate(-60.06 -255.549)" fill="#ffeee6"/>
        <path id="Trazado_918531" data-name="Trazado 918531" d="M96.689,289.647h3.675v8.373H96.689Z" transform="translate(-88.669 -255.546)" fill="#ffdfcf"/>
        <path id="Trazado_918532" data-name="Trazado 918532" d="M40.954,217.824l-9.91,9.91a2.437,2.437,0,1,0,3.447,3.447l9.91-9.91a2.437,2.437,0,1,0-3.447-3.447Z" transform="translate(-30.33 -191.776)" fill="#fb5f7a"/>
        <path id="Trazado_918533" data-name="Trazado 918533" d="M51.512,221.268,41.6,231.179a2.436,2.436,0,0,1-3.182.227,2.436,2.436,0,0,0,.262-.227l9.911-9.911a2.438,2.438,0,0,0-.263-3.675,2.437,2.437,0,0,1,3.183,3.675Z" transform="translate(-37.441 -191.774)" fill="#f74455"/>
        <path id="Trazado_918534" data-name="Trazado 918534" d="M51.265,220.5,47.7,224.064a2.53,2.53,0,0,1-3.578,0l-.267-.267a2.53,2.53,0,0,1,0-3.578l3.566-3.566a2.53,2.53,0,0,1,3.578,0l.267.267a2.53,2.53,0,0,1,0,3.578Z" transform="translate(-41.568 -190.724)" fill="#ffeee6"/>
        <path id="Trazado_918535" data-name="Trazado 918535" d="M61.215,220.5l-3.567,3.567a2.529,2.529,0,0,1-3.217.3,2.441,2.441,0,0,0,.359-.3l3.567-3.567a2.53,2.53,0,0,0,0-3.577l-.267-.267a2.528,2.528,0,0,0-.359-.3,2.53,2.53,0,0,1,3.217.3l.267.267A2.531,2.531,0,0,1,61.215,220.5Z" transform="translate(-51.518 -190.727)" fill="#ffdfcf"/>
        <path id="Trazado_918536" data-name="Trazado 918536" d="M103.275,247.75l-1.349,1.349a2.5,2.5,0,0,1-3.542-3.542l1.349-1.349a2.5,2.5,0,1,1,3.542,3.542Z" transform="translate(-89.514 -214.954)" fill="#ffeee6"/>
        <path id="Trazado_918537" data-name="Trazado 918537" d="M112,245.982a2.5,2.5,0,0,1-.735,1.771l-1.349,1.349a2.506,2.506,0,0,1-3.177.3,2.525,2.525,0,0,0,.365-.3l1.349-1.349a2.5,2.5,0,0,0-.365-3.843A2.506,2.506,0,0,1,112,245.982Z" transform="translate(-97.501 -214.957)" fill="#ffdfcf"/>
      </g>
      <g id="Grupo_1120282" data-name="Grupo 1120282" transform="translate(22.829 0)">
        <path id="Trazado_918538" data-name="Trazado 918538" d="M73.838,39.784l-10.6-2.169V34.125a9.8,9.8,0,0,0,7.613-9.541V23.251a4.915,4.915,0,0,0,5.4-4.825,4.817,4.817,0,0,0-1.861-3.8V9a6.394,6.394,0,0,0-3.948-5.913A5.073,5.073,0,0,0,65.768,0H50.894a5.073,5.073,0,0,0-4.68,3.091,6.673,6.673,0,0,0-3.948,6.9,9.4,9.4,0,0,0-3.272,14.5L37.719,25.76a3.344,3.344,0,0,0-3.895.452l-.018-.018a3.44,3.44,0,0,0-4.86,0,.906.906,0,0,0,1.282,1.282,1.741,1.741,0,0,1,2.563.267,1.625,1.625,0,0,1,0,2.3l-3.566,3.566a1.731,1.731,0,0,1-2.563-.267,1.623,1.623,0,0,1,0-2.3l.53-.53a.906.906,0,1,0-1.282-1.282l-.53.53a3.436,3.436,0,0,0,0,4.86l.015.015-1.587,1.587a3.344,3.344,0,0,0,2.364,5.708,3.371,3.371,0,0,0,.744-.084V58.476a3.408,3.408,0,0,0,3.4,3.4H75.788a3.408,3.408,0,0,0,3.4-3.4V46.344a6.718,6.718,0,0,0-5.353-6.559Zm-19.723-.463L56.976,41.4l-2.13,2.356a1.006,1.006,0,0,1-1.661-.256L51.52,39.853Zm8.427,0,2.588.531L63.465,43.5a1.006,1.006,0,0,1-1.661.256L59.675,41.4Zm-1.113-1.44-3.1,2.255-3.093-2.247V34.363c.722.009,5.212.019,6.2,0Zm10-16.444h-.576V15.415h.576a3.012,3.012,0,0,1,0,6.023ZM44.078,9a4.583,4.583,0,0,1,3.128-4.349.906.906,0,0,0,.574-.579,3.266,3.266,0,0,1,3.114-2.262H65.768a3.266,3.266,0,0,1,3.114,2.262.906.906,0,0,0,.574.579A4.583,4.583,0,0,1,72.583,9v4.739a13.2,13.2,0,0,0-2.634-.14,2.726,2.726,0,0,1-2.723-2.723.906.906,0,0,0-.906-.906c-.266.009-15.837-.017-16.1.009a9.456,9.456,0,0,0-6.146-.62Zm-3.193,4.136A7.6,7.6,0,0,1,52.6,14.33a.906.906,0,0,0,1.513-1,9.465,9.465,0,0,0-1.2-1.475c-.025-.025-.05-.047-.075-.071H65.5a4.549,4.549,0,0,0,3.539,3.538v9.26a7.984,7.984,0,0,1-7.975,7.975H55.594A8,8,0,0,1,48.251,27.7a9.407,9.407,0,0,0,7.384-9.867.906.906,0,1,0-1.808.13,7.592,7.592,0,1,1-12.941-4.822ZM34.6,38.847a.943.943,0,0,0-.073.367v3.259h-5.8V40.76l4.333-4.333a3.42,3.42,0,0,0,2.517.044ZM36.855,30.8a1.617,1.617,0,0,1,0,2.26L35.507,34.41a1.6,1.6,0,0,1-2.26,0,1.643,1.643,0,0,1,0-2.26L34.6,30.8a1.6,1.6,0,0,1,2.26,0Zm.309-3.207,0,0a1.53,1.53,0,0,1,.4,1.462,3.421,3.421,0,0,0-2.5-.472,3.448,3.448,0,0,0-.191-.864,1.606,1.606,0,0,1,2.291-.128ZM25.09,39.67a1.532,1.532,0,0,1,0-2.165l1.815-1.815a3.819,3.819,0,0,0,4.209-1.409,3.375,3.375,0,0,0,.512,1.018L27.255,39.67A1.532,1.532,0,0,1,25.09,39.67Zm3.639,18.807V44.286h7.283a1.46,1.46,0,0,1,1.459,1.459V60.068H30.32A1.593,1.593,0,0,1,28.729,58.477Zm48.649,0a1.593,1.593,0,0,1-1.591,1.591h-36.5V46.317a4.9,4.9,0,0,1,3.9-4.757.906.906,0,0,0-.363-1.776A6.711,6.711,0,0,0,38.2,43.315a3.259,3.259,0,0,0-1.863-.825V39.383l2.492-6.036a3.422,3.422,0,0,0,.019-2.791A3.347,3.347,0,0,0,39,27.043l1.274-1.274a9.472,9.472,0,0,0,6.112,2.141,9.828,9.828,0,0,0,7.032,6.214v3.49l-6.564,1.346a.907.907,0,0,0-.706,1.07.964.964,0,0,0,1.07.706l2.479-.508,1.839,4.026a2.818,2.818,0,0,0,4.655.719l1.226-1.357V48.63a.906.906,0,0,0,1.813,0V43.613l1.228,1.358a2.809,2.809,0,0,0,2.088.929,2.853,2.853,0,0,0,.433-.033,2.811,2.811,0,0,0,2.134-1.614l1.839-4.026,6.522,1.334a4.9,4.9,0,0,1,3.9,4.783Z" transform="translate(-22.829 0)"/>
        <path id="Trazado_918539" data-name="Trazado 918539" d="M284.96,210.406a.906.906,0,0,0-.468,1.193,4.158,4.158,0,0,0,7.62,0,.907.907,0,1,0-1.662-.725,2.345,2.345,0,0,1-4.3,0A.906.906,0,0,0,284.96,210.406Z" transform="translate(-252.801 -184.909)"/>
        <path id="Trazado_918540" data-name="Trazado 918540" d="M309.976,161.95a.906.906,0,0,0,.906-.906v-2.938a.906.906,0,1,0-1.813,0v2.938A.906.906,0,0,0,309.976,161.95Z" transform="translate(-274.475 -138.2)"/>
        <path id="Trazado_918541" data-name="Trazado 918541" d="M176.707,124.159a2.511,2.511,0,0,0,0-3.3h0a7.511,7.511,0,0,0-11.293,0,2.511,2.511,0,0,0,0,3.305,7.512,7.512,0,0,0,11.292,0Zm-5.691-2.652a1,1,0,1,1-1,1A1,1,0,0,1,171.016,121.508Zm4.329.543a.694.694,0,0,1,0,.913,5.7,5.7,0,0,1-2.454,1.638,2.807,2.807,0,0,0,0-4.189A5.7,5.7,0,0,1,175.344,122.051Zm-8.568.913a.694.694,0,0,1,0-.913,5.7,5.7,0,0,1,2.308-1.585,2.805,2.805,0,0,0,0,4.082A5.7,5.7,0,0,1,166.777,122.963Z" transform="translate(-147.636 -104)"/>
        <path id="Trazado_918542" data-name="Trazado 918542" d="M379.583,421.9h-6.718a.906.906,0,1,0,0,1.813h6.718a.906.906,0,1,0,0-1.813Z" transform="translate(-329.762 -370.905)"/>
      </g>
    </g>
  </g>
</svg>
