<svg xmlns="http://www.w3.org/2000/svg" xmlns:xlink="http://www.w3.org/1999/xlink" width="117.999" height="118" viewBox="0 0 117.999 118">
  <defs>
    <filter id="Trazado_874925" x="0" y="0" width="117.999" height="118" filterUnits="userSpaceOnUse">
      <feOffset dy="3" input="SourceAlpha"/>
      <feGaussianBlur stdDeviation="3" result="blur"/>
      <feFlood flood-opacity="0.161"/>
      <feComposite operator="in" in2="blur"/>
      <feComposite in="SourceGraphic"/>
    </filter>
  </defs>
  <g id="Grupo_1119964" data-name="Grupo 1119964" transform="translate(-795.051 -8062)">
    <g id="Grupo_1119690" data-name="Grupo 1119690" transform="translate(0.217 -0.28)">
      <g id="Grupo_1107913" data-name="Grupo 1107913" transform="translate(803.834 8068.28)">
        <g transform="matrix(1, 0, 0, 1, -9, -6)" filter="url(#Trazado_874925)">
          <g id="Trazado_874925-2" data-name="Trazado 874925" transform="translate(9 6)" fill="#bb965f">
            <path d="M 49.99972534179688 98.4998779296875 C 43.45164108276367 98.4998779296875 37.10022354125977 97.21776580810547 31.12189674377441 94.68914794921875 C 25.34676742553711 92.24647521972656 20.15985298156738 88.74925994873047 15.70523929595947 84.29464721679688 C 11.25062561035156 79.84004974365234 7.753411293029785 74.65313720703125 5.310725212097168 68.87800598144531 C 2.782111167907715 62.89969253540039 1.499996781349182 56.54829406738281 1.499996781349182 50.00022125244141 C 1.499996781349182 43.45157623291016 2.782111167907715 37.10017776489258 5.310725212097168 31.12186431884766 C 7.753411293029785 25.34673500061035 11.25062561035156 20.15983581542969 15.70523929595947 15.70522117614746 C 20.15985298156738 11.25062084197998 25.34676742553711 7.753406524658203 31.12189674377441 5.31073522567749 C 37.10022354125977 2.782120943069458 43.45164108276367 1.500006556510925 49.99972534179688 1.500006556510925 C 56.54780960083008 1.500006556510925 62.89922714233398 2.782120943069458 68.87755584716797 5.31073522567749 C 74.65267944335938 7.753406524658203 79.839599609375 11.25062084197998 84.29421234130859 15.70522117614746 C 88.74882507324219 20.15983581542969 92.24604034423828 25.34673500061035 94.68872833251953 31.12186431884766 C 97.21733856201172 37.10017776489258 98.49945068359375 43.45157623291016 98.49945068359375 49.99964904785156 C 98.49945068359375 56.54829406738281 97.21733856201172 62.89969253540039 94.68872833251953 68.87800598144531 C 92.24604034423828 74.65313720703125 88.74882507324219 79.84004974365234 84.29421234130859 84.29464721679688 C 79.839599609375 88.74925994873047 74.65267944335938 92.24647521972656 68.87755584716797 94.68914794921875 C 62.89922714233398 97.21776580810547 56.54780960083008 98.4998779296875 49.99972534179688 98.4998779296875 Z" stroke="none"/>
            <path d="M 49.99972534179688 3 C 43.65348052978516 3 37.49866485595703 4.242240905761719 31.70623016357422 6.692230224609375 C 26.10989379882812 9.059272766113281 21.08323669433594 12.44853210449219 16.76589202880859 16.76587677001953 C 12.44855499267578 21.08321380615234 9.059295654296875 26.10985565185547 6.692230224609375 31.70618438720703 C 4.24224853515625 37.49859619140625 3 43.65341186523438 3 50.00022888183594 C 3 56.34645843505859 4.24224853515625 62.50127410888672 6.692230224609375 68.29368591308594 C 9.059295654296875 73.8900146484375 12.44855499267578 78.91665649414062 16.76589202880859 83.23399353027344 C 21.08323669433594 87.55132293701172 26.10989379882812 90.94059753417969 31.70623016357422 93.30764007568359 C 37.49866485595703 95.75762939453125 43.65348052978516 96.99987030029297 49.99972534179688 96.99987030029297 C 56.34597015380859 96.99987030029297 62.50078582763672 95.75762939453125 68.293212890625 93.30764007568359 C 73.88955688476562 90.94059753417969 78.91621398925781 87.55132293701172 83.23355865478516 83.23399353027344 C 87.55089569091797 78.91665649414062 90.94015502929688 73.8900146484375 93.30722045898438 68.29368591308594 C 95.7572021484375 62.50127410888672 96.99945068359375 56.34645843505859 96.99945068359375 49.99964141845703 C 96.99945068359375 43.65341186523438 95.7572021484375 37.49859619140625 93.30722045898438 31.70618438720703 C 90.94015502929688 26.10985565185547 87.55089569091797 21.08321380615234 83.23355865478516 16.76587677001953 C 78.91621398925781 12.44853210449219 73.88955688476562 9.059272766113281 68.293212890625 6.692230224609375 C 62.50078582763672 4.242240905761719 56.34597015380859 3 49.99972534179688 3 M 49.99972534179688 0 C 77.61381530761719 0 99.99945068359375 22.38559722900391 99.99945068359375 49.99964141845703 L 99.99945068359375 50.00022888183594 C 99.99945068359375 77.6142578125 77.61381530761719 99.99987030029297 49.99972534179688 99.99987030029297 C 22.38563537597656 99.99987030029297 0 77.6142578125 0 50.00022888183594 L 0 49.99964141845703 C 0 22.38559722900391 22.38563537597656 0 49.99972534179688 0 Z" stroke="none" fill="#fff"/>
          </g>
        </g>
        <g id="Trazado_874923" data-name="Trazado 874923" transform="translate(0 0)" fill="none">
          <path d="M50,0a50,50,0,0,1,50,50h0A50,50,0,0,1,0,50H0A50,50,0,0,1,50,0Z" stroke="none"/>
          <path d="M 49.99972534179688 3 C 43.65348052978516 3 37.49866485595703 4.242240905761719 31.70623016357422 6.692230224609375 C 26.10989379882812 9.059272766113281 21.08323669433594 12.44853210449219 16.76589202880859 16.76587677001953 C 12.44855499267578 21.08321380615234 9.059295654296875 26.10985565185547 6.692230224609375 31.70618438720703 C 4.24224853515625 37.49859619140625 3 43.65341186523438 3 50.00022888183594 C 3 56.34645843505859 4.24224853515625 62.50127410888672 6.692230224609375 68.29368591308594 C 9.059295654296875 73.8900146484375 12.44855499267578 78.91665649414062 16.76589202880859 83.23399353027344 C 21.08323669433594 87.55132293701172 26.10989379882812 90.94059753417969 31.70623016357422 93.30764007568359 C 37.49866485595703 95.75762939453125 43.65348052978516 96.99987030029297 49.99972534179688 96.99987030029297 C 56.34597015380859 96.99987030029297 62.50078582763672 95.75762939453125 68.293212890625 93.30764007568359 C 73.88955688476562 90.94059753417969 78.91621398925781 87.55132293701172 83.23355865478516 83.23399353027344 C 87.55089569091797 78.91665649414062 90.94015502929688 73.8900146484375 93.30722045898438 68.29368591308594 C 95.7572021484375 62.50127410888672 96.99945068359375 56.34645843505859 96.99945068359375 49.99964141845703 C 96.99945068359375 43.65341186523438 95.7572021484375 37.49859619140625 93.30722045898438 31.70618438720703 C 90.94015502929688 26.10985565185547 87.55089569091797 21.08321380615234 83.23355865478516 16.76587677001953 C 78.91621398925781 12.44853210449219 73.88955688476562 9.059272766113281 68.293212890625 6.692230224609375 C 62.50078582763672 4.242240905761719 56.34597015380859 3 49.99972534179688 3 M 49.99972534179688 0 C 77.61381530761719 0 99.99945068359375 22.38559722900391 99.99945068359375 49.99964141845703 L 99.99945068359375 50.00022888183594 C 99.99945068359375 77.6142578125 77.61381530761719 99.99987030029297 49.99972534179688 99.99987030029297 C 22.38563537597656 99.99987030029297 0 77.6142578125 0 50.00022888183594 L 0 49.99964141845703 C 0 22.38559722900391 22.38563537597656 0 49.99972534179688 0 Z" stroke="none" fill="#fff"/>
        </g>
      </g>
    </g>
    <g id="Grupo_1119963" data-name="Grupo 1119963" transform="translate(825.051 8077.707)">
      <g id="Grupo_1119961" data-name="Grupo 1119961" transform="translate(0.856 14.157)">
        <path id="Trazado_917462" data-name="Trazado 917462" d="M64.242,386.864H7.5v-10.9l28.371-2.581,28.371,2.581Z" transform="translate(-7.5 -333.138)" fill="#d98f61"/>
        <path id="Trazado_917463" data-name="Trazado 917463" d="M37.584,373.542l-1.713-.156L7.5,375.967v10.9h3.425v-10.9Z" transform="translate(-7.5 -333.138)" fill="#d37f50"/>
        <path id="Trazado_917464" data-name="Trazado 917464" d="M64.242,199.89l-28.371,2.627L7.5,199.89v-3.546H64.242Z" transform="translate(-7.5 -176.309)" fill="#b2e59f"/>
        <path id="Trazado_917465" data-name="Trazado 917465" d="M10.925,199.89v-3.546H7.5v3.546l28.371,2.627,1.713-.159Z" transform="translate(-7.5 -176.309)" fill="#95d6a4"/>
        <path id="Trazado_917466" data-name="Trazado 917466" d="M7.5,267.035V252.843l2.893-1.774,25.478-.655,25.57.655,2.8,1.773v14.193Z" transform="translate(-7.5 -224.206)" fill="#bd6629"/>
        <path id="Trazado_917467" data-name="Trazado 917467" d="M13.818,255.377l-3.425.088L7.5,257.239v14.192h3.425V257.239Z" transform="translate(-7.5 -228.602)" fill="#a45924"/>
        <path id="Trazado_917468" data-name="Trazado 917468" d="M7.5,232.461c2.755.026,2.782,1.37,5.591,1.37,2.837,0,2.837-1.37,5.674-1.37s2.837,1.37,5.674,1.37,2.837-1.37,5.674-1.37,2.837,1.37,5.674,1.37,2.837-1.37,5.674-1.37,2.837,1.37,5.674,1.37,2.837-1.37,5.674-1.37,2.837,1.37,5.675,1.37,2.837-1.37,5.675-1.37h.083v-5.055H7.5Z" transform="translate(-7.5 -203.824)" fill="#d98f61"/>
        <circle id="Elipse_11867" data-name="Elipse 11867" cx="1.773" cy="1.773" r="1.773" transform="translate(8.866 46.633)" fill="#f3cbb1"/>
        <circle id="Elipse_11868" data-name="Elipse 11868" cx="1.773" cy="1.773" r="1.773" transform="translate(35.464 46.633)" fill="#f3cbb1"/>
        <g id="Grupo_1119960" data-name="Grupo 1119960" transform="translate(5.672)">
          <g id="Grupo_1119958" data-name="Grupo 1119958" transform="translate(24.472)">
            <path id="Trazado_917469" data-name="Trazado 917469" d="M279.763,34.3c-3.586.964-7-.132-8-3.689-1.011-3.621,1.316-7.138,4.864-8.38,8.882-3.11,15.047.034,15.047.034C286.779,23.585,286.245,32.56,279.763,34.3Z" transform="translate(-271.53 -20.86)" fill="#95d6a4"/>
          </g>
          <path id="Trazado_917470" data-name="Trazado 917470" d="M275.192,30.615c-1.011-3.621,1.316-7.138,4.864-8.38a24.092,24.092,0,0,1,6.076-1.3,22.994,22.994,0,0,0-9.5,1.3c-3.549,1.243-5.875,4.759-4.864,8.38.935,3.349,4.018,4.516,7.369,3.836A5.187,5.187,0,0,1,275.192,30.615Z" transform="translate(-247.058 -20.861)" fill="#85c691"/>
          <g id="Grupo_1119959" data-name="Grupo 1119959" transform="translate(0 2.418)">
            <path id="Trazado_917471" data-name="Trazado 917471" d="M69.049,55.5c3.582.979,7-.1,8.011-3.656,1.026-3.617-1.286-7.143-4.83-8.4-8.869-3.147-15.047-.027-15.047-.027C62.077,44.758,62.574,53.735,69.049,55.5Z" transform="translate(-57.183 -42.042)" fill="#95d6a4"/>
          </g>
          <path id="Trazado_917472" data-name="Trazado 917472" d="M72.474,55.508c-5.3-1.448-6.595-7.726-9.574-10.69a1.4,1.4,0,0,1,.712-2.347,19.608,19.608,0,0,1,2.46-.356,18.057,18.057,0,0,0-8.889,1.309c4.894,1.337,5.391,10.314,11.866,12.084a8.3,8.3,0,0,0,4.083.157Q72.8,55.6,72.474,55.508Z" transform="translate(-57.183 -39.627)" fill="#85c691"/>
        </g>
      </g>
      <g id="Grupo_1119962" data-name="Grupo 1119962" transform="translate(0 13.293)">
        <path id="Trazado_917473" data-name="Trazado 917473" d="M57.6,33.336H30.264a18.356,18.356,0,0,1,1.82-6.32,6.67,6.67,0,0,0,4.744,1.775h0c9.321,0,9.685-11.093,14.544-12.4A.847.847,0,0,0,52,15.561c0-1.306-4.9-2.268-8.083-2.268-4.32,0-13.78,1.365-13.78,8.933a6.979,6.979,0,0,0,.817,3.286A16.433,16.433,0,0,0,29.492,28.8a19.126,19.126,0,0,0-2.273-2.148,7.256,7.256,0,0,0,.288-2.016c0-6.7-8.02-8.347-8.827-8.347a.856.856,0,0,0-.187,1.692c.716.161,7.3,1.232,7.3,6.673a5.453,5.453,0,0,1-.076.909c-2.211-1.443-3.629-1.8-6.995-3.286a.856.856,0,1,0-.666,1.578l3.988,1.684a17.377,17.377,0,0,1,3.1,1.7,4.624,4.624,0,0,1-4.307,2.287c-7.29,0-8.032-8.322-12.151-11.435a20.1,20.1,0,0,1,6.268-.619A.856.856,0,0,0,15,15.757q-.677-.039-1.312-.038c-3.126,0-8.013.913-8.013,2.232a.846.846,0,0,0,.629.829c4.889,1.336,5.133,12.459,14.528,12.459a6.375,6.375,0,0,0,5.677-2.958,17.379,17.379,0,0,1,2.441,2.531,25.036,25.036,0,0,0-.408,2.524H.856A.856.856,0,0,0,0,34.192C0,51.355,0,67.883,0,67.883a.856.856,0,0,0,.856.856H57.6c1.121,0,.855-.964.855-5.282V34.192A.856.856,0,0,0,57.6,33.336ZM31.859,22.192c0-7.312,11.927-7.176,12.089-7.176a18.534,18.534,0,0,1,5.045.675c-4.125,3.093-4.9,11.383-12.168,11.383A4.851,4.851,0,0,1,33,25.513c3.32-4.64,6.647-3.42,6.647-5.1,0-.1-.015-.163-.018-.144a.858.858,0,0,0-.833-.664,12.4,12.4,0,0,0-6.684,4.24,5.559,5.559,0,0,1-.255-1.657ZM56.742,35.048v1.834H48.91a.856.856,0,0,0,0,1.713h7.832v3.377c-2.377.223-2.562,1.335-4.9,1.335-2.535,0-2.639-1.37-5.675-1.37-3.051,0-3.12,1.37-5.674,1.37-2.535,0-2.638-1.37-5.674-1.37-2.623,0-3.136,1.052-4.755,1.3V38.595H45.178a.856.856,0,1,0,0-1.713H30.063c.005-.332,0-.84.052-1.834ZM1.713,38.595H28.351V43.26c-1.742-.224-2.185-1.323-4.881-1.323-3.051,0-3.12,1.37-5.674,1.37-2.534,0-2.638-1.37-5.674-1.37-3.051,0-3.12,1.37-5.674,1.37-2.305,0-2.476-1.052-4.735-1.317Zm0-3.546H28.4c-.053.994-.047,1.651-.049,1.834H1.713Zm55.03,31.978H1.713V58.1H13.176a.856.856,0,1,0,0-1.713H1.713V43.718c1.6.257,2.122,1.3,4.735,1.3,3.051,0,3.12-1.37,5.674-1.37,2.534,0,2.638,1.37,5.674,1.37,3.051,0,3.12-1.37,5.674-1.37,2.335,0,2.52,1.105,4.881,1.333V47.31L23.122,48.96c-3.418-1.828-3.328-1.913-3.715-1.913A.857.857,0,0,0,19,48.655l2.9,1.589-1.489,3.013a.856.856,0,1,0,1.535.759l1.691-3.422,4.713-1.487v2.553a.856.856,0,0,0,1.713,0V49.128l4.644,1.465L36.4,54.015a.856.856,0,1,0,1.535-.759l-1.489-3.013,2.9-1.589a.856.856,0,1,0-.822-1.5l-3.3,1.808-5.159-1.627V44.969c2.276-.261,2.441-1.319,4.755-1.319,2.535,0,2.638,1.37,5.674,1.37,3.051,0,3.12-1.37,5.674-1.37,2.535,0,2.639,1.37,5.675,1.37,2.721,0,3.123-1.1,4.9-1.325V56.388H16.908a.856.856,0,1,0,0,1.713H56.742Z" transform="translate(0 -13.293)"/>
        <path id="Trazado_917474" data-name="Trazado 917474" d="M31.912,452.875a.856.856,0,1,0,.86.857A.858.858,0,0,0,31.912,452.875Z" transform="translate(-27.512 -402.688)"/>
        <path id="Trazado_917475" data-name="Trazado 917475" d="M80.285,421.811a2.629,2.629,0,1,0,2.629,2.629A2.632,2.632,0,0,0,80.285,421.811Zm0,3.546a.917.917,0,1,1,.917-.917A.918.918,0,0,1,80.285,425.357Z" transform="translate(-68.79 -375.17)"/>
        <path id="Trazado_917476" data-name="Trazado 917476" d="M313.252,427.07a2.629,2.629,0,1,0-2.629-2.629A2.633,2.633,0,0,0,313.252,427.07Zm0-3.546a.917.917,0,1,1-.917.917A.918.918,0,0,1,313.252,423.524Z" transform="translate(-275.159 -375.17)"/>
        <path id="Trazado_917477" data-name="Trazado 917477" d="M171.694,423.52a.856.856,0,1,0-.856-.856A.857.857,0,0,0,171.694,423.52Z" transform="translate(-151.333 -375.167)"/>
        <path id="Trazado_917478" data-name="Trazado 917478" d="M249.185,444.913a.856.856,0,1,0-.671-.671A.856.856,0,0,0,249.185,444.913Z" transform="translate(-220.125 -394.133)"/>
        <path id="Trazado_917479" data-name="Trazado 917479" d="M404.832,454.57a.856.856,0,1,0-1.024-.839A.856.856,0,0,0,404.832,454.57Z" transform="translate(-357.705 -402.687)"/>
        <path id="Trazado_917480" data-name="Trazado 917480" d="M466.626,432.241a.856.856,0,1,0-.688-.839A.856.856,0,0,0,466.626,432.241Z" transform="translate(-412.741 -382.907)"/>
      </g>
    </g>
  </g>
</svg>
