<svg xmlns="http://www.w3.org/2000/svg" xmlns:xlink="http://www.w3.org/1999/xlink" width="117.999" height="118" viewBox="0 0 117.999 118">
  <defs>
    <filter id="Trazado_874925" x="0" y="0" width="117.999" height="118" filterUnits="userSpaceOnUse">
      <feOffset dy="3" input="SourceAlpha"/>
      <feGaussianBlur stdDeviation="3" result="blur"/>
      <feFlood flood-opacity="0.161"/>
      <feComposite operator="in" in2="blur"/>
      <feComposite in="SourceGraphic"/>
    </filter>
  </defs>
  <g id="Grupo_1120287" data-name="Grupo 1120287" transform="translate(-15.534 2410.72)">
    <g id="Grupo_1111553" data-name="Grupo 1111553" transform="translate(-783.967 -4921.877)">
      <g id="Grupo_1111316" data-name="Grupo 1111316" transform="translate(808.5 2517.157)">
        <g id="Grupo_1109835" data-name="Grupo 1109835" transform="translate(0 0)">
          <g id="Grupo_1107913" data-name="Grupo 1107913" transform="translate(0 0)">
            <g transform="matrix(1, 0, 0, 1, -9, -6)" filter="url(#Trazado_874925)">
              <g id="Trazado_874925-2" data-name="Trazado 874925" transform="translate(9 6)" fill="#bb965f" opacity="0.859">
                <path d="M 49.99972534179688 98.4998779296875 C 43.45164108276367 98.4998779296875 37.10022354125977 97.21776580810547 31.12189674377441 94.68914794921875 C 25.34676742553711 92.24647521972656 20.15985298156738 88.74925994873047 15.70523929595947 84.29464721679688 C 11.25062561035156 79.84004974365234 7.753411293029785 74.65313720703125 5.310725212097168 68.87800598144531 C 2.782111167907715 62.89969253540039 1.499996781349182 56.54829406738281 1.499996781349182 50.00022125244141 C 1.499996781349182 43.45157623291016 2.782111167907715 37.10017776489258 5.310725212097168 31.12186431884766 C 7.753411293029785 25.34673500061035 11.25062561035156 20.15983581542969 15.70523929595947 15.70522117614746 C 20.15985298156738 11.25062084197998 25.34676742553711 7.753406524658203 31.12189674377441 5.31073522567749 C 37.10022354125977 2.782120943069458 43.45164108276367 1.500006556510925 49.99972534179688 1.500006556510925 C 56.54780960083008 1.500006556510925 62.89922714233398 2.782120943069458 68.87755584716797 5.31073522567749 C 74.65267944335938 7.753406524658203 79.839599609375 11.25062084197998 84.29421234130859 15.70522117614746 C 88.74882507324219 20.15983581542969 92.24604034423828 25.34673500061035 94.68872833251953 31.12186431884766 C 97.21733856201172 37.10017776489258 98.49945068359375 43.45157623291016 98.49945068359375 49.99964904785156 C 98.49945068359375 56.54829406738281 97.21733856201172 62.89969253540039 94.68872833251953 68.87800598144531 C 92.24604034423828 74.65313720703125 88.74882507324219 79.84004974365234 84.29421234130859 84.29464721679688 C 79.839599609375 88.74925994873047 74.65267944335938 92.24647521972656 68.87755584716797 94.68914794921875 C 62.89922714233398 97.21776580810547 56.54780960083008 98.4998779296875 49.99972534179688 98.4998779296875 Z" stroke="none"/>
                <path d="M 49.99972534179688 3 C 43.65348052978516 3 37.49866485595703 4.242240905761719 31.70623016357422 6.692230224609375 C 26.10989379882812 9.059272766113281 21.08323669433594 12.44853210449219 16.76589202880859 16.76587677001953 C 12.44855499267578 21.08321380615234 9.059295654296875 26.10985565185547 6.692230224609375 31.70618438720703 C 4.24224853515625 37.49859619140625 3 43.65341186523438 3 50.00022888183594 C 3 56.34645843505859 4.24224853515625 62.50127410888672 6.692230224609375 68.29368591308594 C 9.059295654296875 73.8900146484375 12.44855499267578 78.91665649414062 16.76589202880859 83.23399353027344 C 21.08323669433594 87.55132293701172 26.10989379882812 90.94059753417969 31.70623016357422 93.30764007568359 C 37.49866485595703 95.75762939453125 43.65348052978516 96.99987030029297 49.99972534179688 96.99987030029297 C 56.34597015380859 96.99987030029297 62.50078582763672 95.75762939453125 68.293212890625 93.30764007568359 C 73.88955688476562 90.94059753417969 78.91621398925781 87.55132293701172 83.23355865478516 83.23399353027344 C 87.55089569091797 78.91665649414062 90.94015502929688 73.8900146484375 93.30722045898438 68.29368591308594 C 95.7572021484375 62.50127410888672 96.99945068359375 56.34645843505859 96.99945068359375 49.99964141845703 C 96.99945068359375 43.65341186523438 95.7572021484375 37.49859619140625 93.30722045898438 31.70618438720703 C 90.94015502929688 26.10985565185547 87.55089569091797 21.08321380615234 83.23355865478516 16.76587677001953 C 78.91621398925781 12.44853210449219 73.88955688476562 9.059272766113281 68.293212890625 6.692230224609375 C 62.50078582763672 4.242240905761719 56.34597015380859 3 49.99972534179688 3 M 49.99972534179688 0 C 77.61381530761719 0 99.99945068359375 22.38559722900391 99.99945068359375 49.99964141845703 L 99.99945068359375 50.00022888183594 C 99.99945068359375 77.6142578125 77.61381530761719 99.99987030029297 49.99972534179688 99.99987030029297 C 22.38563537597656 99.99987030029297 0 77.6142578125 0 50.00022888183594 L 0 49.99964141845703 C 0 22.38559722900391 22.38563537597656 0 49.99972534179688 0 Z" stroke="none" fill="#fff"/>
              </g>
            </g>
            <g id="Trazado_874923" data-name="Trazado 874923" transform="translate(0 0)" fill="none">
              <path d="M50,0a50,50,0,0,1,50,50h0A50,50,0,0,1,0,50H0A50,50,0,0,1,50,0Z" stroke="none"/>
              <path d="M 49.99972534179688 3 C 43.65348052978516 3 37.49866485595703 4.242240905761719 31.70623016357422 6.692230224609375 C 26.10989379882812 9.059272766113281 21.08323669433594 12.44853210449219 16.76589202880859 16.76587677001953 C 12.44855499267578 21.08321380615234 9.059295654296875 26.10985565185547 6.692230224609375 31.70618438720703 C 4.24224853515625 37.49859619140625 3 43.65341186523438 3 50.00022888183594 C 3 56.34645843505859 4.24224853515625 62.50127410888672 6.692230224609375 68.29368591308594 C 9.059295654296875 73.8900146484375 12.44855499267578 78.91665649414062 16.76589202880859 83.23399353027344 C 21.08323669433594 87.55132293701172 26.10989379882812 90.94059753417969 31.70623016357422 93.30764007568359 C 37.49866485595703 95.75762939453125 43.65348052978516 96.99987030029297 49.99972534179688 96.99987030029297 C 56.34597015380859 96.99987030029297 62.50078582763672 95.75762939453125 68.293212890625 93.30764007568359 C 73.88955688476562 90.94059753417969 78.91621398925781 87.55132293701172 83.23355865478516 83.23399353027344 C 87.55089569091797 78.91665649414062 90.94015502929688 73.8900146484375 93.30722045898438 68.29368591308594 C 95.7572021484375 62.50127410888672 96.99945068359375 56.34645843505859 96.99945068359375 49.99964141845703 C 96.99945068359375 43.65341186523438 95.7572021484375 37.49859619140625 93.30722045898438 31.70618438720703 C 90.94015502929688 26.10985565185547 87.55089569091797 21.08321380615234 83.23355865478516 16.76587677001953 C 78.91621398925781 12.44853210449219 73.88955688476562 9.059272766113281 68.293212890625 6.692230224609375 C 62.50078582763672 4.242240905761719 56.34597015380859 3 49.99972534179688 3 M 49.99972534179688 0 C 77.61381530761719 0 99.99945068359375 22.38559722900391 99.99945068359375 49.99964141845703 L 99.99945068359375 50.00022888183594 C 99.99945068359375 77.6142578125 77.61381530761719 99.99987030029297 49.99972534179688 99.99987030029297 C 22.38563537597656 99.99987030029297 0 77.6142578125 0 50.00022888183594 L 0 49.99964141845703 C 0 22.38559722900391 22.38563537597656 0 49.99972534179688 0 Z" stroke="none" fill="#fff"/>
            </g>
          </g>
        </g>
      </g>
    </g>
    <g id="Grupo_1120286" data-name="Grupo 1120286" transform="translate(4.208 -2386.729)">
      <g id="Grupo_1120285" data-name="Grupo 1120285" transform="translate(44.73 0.938)">
        <path id="Trazado_918543" data-name="Trazado 918543" d="M339.2,279.73H327.545a1.03,1.03,0,0,1-1.03-1.03V248.639a1.03,1.03,0,0,1,1.03-1.03H339.2a1.03,1.03,0,0,1,1.03,1.03V278.7A1.03,1.03,0,0,1,339.2,279.73Z" transform="translate(-292.103 -217.586)" fill="#6ce79a"/>
        <path id="Trazado_918544" data-name="Trazado 918544" d="M385.653,279.73h5.291a1.03,1.03,0,0,0,1.03-1.03V248.639a1.03,1.03,0,0,0-1.03-1.03h-1.556C389.288,251.45,388.693,274.109,385.653,279.73Z" transform="translate(-343.846 -217.586)" fill="#00d8a2"/>
        <path id="Trazado_918545" data-name="Trazado 918545" d="M281.922,59.958a3.843,3.843,0,0,1,1.564,1.531l7.48.85,3.977-.85a17.53,17.53,0,0,1,.686-3.357l1.844-5.96,1.8-6.432a1.837,1.837,0,0,0-1.769-2.331H297.5a1.837,1.837,0,0,0-1.726,1.209l-1.76,4.841,1.208-8.237a1.837,1.837,0,1,0-3.634-.533l-1.287,8.77V39.336A1.837,1.837,0,0,0,288.46,37.5h-.039a1.837,1.837,0,0,0-1.837,1.837V49.459l-1.266-7.793a1.837,1.837,0,0,0-1.813-1.542h-.047a1.837,1.837,0,0,0-1.82,2.084l1.324,9.734a3.588,3.588,0,0,1-.655,2.6.559.559,0,0,1-.943-.062L280,51.982a1.984,1.984,0,1,0-3.4,2.032l1.753,2.689a9.614,9.614,0,0,0,3.569,3.254Z" transform="translate(-248.148 -33.748)" fill="#ffd3a3"/>
        <path id="Trazado_918546" data-name="Trazado 918546" d="M333.918,229.36a3.841,3.841,0,0,1,.488,1.843l.017.439h10.855v-.456a17.53,17.53,0,0,1,.1-1.825H333.918Z" transform="translate(-298.58 -201.619)" fill="#ffbe84"/>
        <path id="Trazado_918547" data-name="Trazado 918547" d="M114.221,253.481H102.566a1.03,1.03,0,0,1-1.03-1.03V218.639a1.03,1.03,0,0,1,1.03-1.03h11.655a1.03,1.03,0,0,1,1.03,1.03v33.812A1.03,1.03,0,0,1,114.221,253.481Z" transform="translate(-95.255 -191.337)" fill="#ffab56"/>
        <path id="Trazado_918548" data-name="Trazado 918548" d="M160.673,253.481h5.291a1.03,1.03,0,0,0,1.03-1.03V218.639a1.03,1.03,0,0,0-1.03-1.03h-1.556C164.308,221.45,163.714,247.86,160.673,253.481Z" transform="translate(-146.997 -191.337)" fill="#ff982a"/>
        <path id="Trazado_918549" data-name="Trazado 918549" d="M56.943,29.958a3.843,3.843,0,0,1,1.564,1.531l7.48.85,3.977-.85a17.531,17.531,0,0,1,.686-3.357l1.844-5.96,1.8-6.432a1.837,1.837,0,0,0-1.769-2.331h-.006a1.837,1.837,0,0,0-1.726,1.209l-1.76,4.841,1.208-8.237a1.837,1.837,0,1,0-3.634-.533l-1.287,8.77V9.336A1.837,1.837,0,0,0,63.481,7.5h-.039a1.837,1.837,0,0,0-1.837,1.837V19.459l-1.266-7.793a1.837,1.837,0,0,0-1.813-1.542h-.047a1.837,1.837,0,0,0-1.82,2.084l1.324,9.734a3.588,3.588,0,0,1-.655,2.6.559.559,0,0,1-.943-.062l-1.359-2.495a1.984,1.984,0,1,0-3.4,2.032L53.374,26.7a9.613,9.613,0,0,0,3.569,3.254Z" transform="translate(-51.3 -7.499)" fill="#ffe6c2"/>
        <path id="Trazado_918550" data-name="Trazado 918550" d="M108.938,199.36a3.841,3.841,0,0,1,.488,1.843l.017.439H120.3v-.456a17.536,17.536,0,0,1,.1-1.825H108.938Z" transform="translate(-101.731 -175.37)" fill="#ffd3a3"/>
        <path id="Trazado_918551" data-name="Trazado 918551" d="M258.15,407.633H246.495a1.03,1.03,0,0,1-1.03-1.03V394.82a1.03,1.03,0,0,1,1.03-1.03H258.15a1.03,1.03,0,0,1,1.03,1.03V406.6A1.03,1.03,0,0,1,258.15,407.633Z" transform="translate(-221.187 -345.489)" fill="#88bde7"/>
        <path id="Trazado_918552" data-name="Trazado 918552" d="M304.6,407.634h5.291a1.03,1.03,0,0,0,1.03-1.03V394.821a1.03,1.03,0,0,0-1.03-1.03h-1.556A28.818,28.818,0,0,1,304.6,407.634Z" transform="translate(-272.93 -345.49)" fill="#5faee2"/>
        <path id="Trazado_918553" data-name="Trazado 918553" d="M200.872,206.14a3.843,3.843,0,0,1,1.564,1.531l7.48.85,3.977-.85a17.531,17.531,0,0,1,.686-3.357l1.844-5.96,1.8-6.432a1.837,1.837,0,0,0-1.769-2.331h-.006a1.837,1.837,0,0,0-1.726,1.209l-1.76,4.841,1.208-8.237a1.837,1.837,0,1,0-3.634-.533l-1.287,8.77V185.518a1.837,1.837,0,0,0-1.837-1.837h-.039a1.837,1.837,0,0,0-1.837,1.837v10.123l-1.266-7.793a1.837,1.837,0,0,0-1.813-1.542h-.047a1.837,1.837,0,0,0-1.82,2.084l1.324,9.734a3.588,3.588,0,0,1-.655,2.6.559.559,0,0,1-.943-.062l-1.359-2.495a1.984,1.984,0,1,0-3.4,2.032l1.753,2.689A9.612,9.612,0,0,0,200.872,206.14Z" transform="translate(-177.232 -161.652)" fill="#ffe6c2"/>
        <path id="Trazado_918554" data-name="Trazado 918554" d="M252.867,375.542a3.841,3.841,0,0,1,.488,1.843l.017.439h10.855v-.456a17.539,17.539,0,0,1,.1-1.825H252.867Z" transform="translate(-227.663 -329.523)" fill="#ffd3a3"/>
      </g>
      <path id="Trazado_918555" data-name="Trazado 918555" d="M96.294,10.758a2.778,2.778,0,0,0-3.8-.6l.237-1.613a2.771,2.771,0,0,0-4.913-2.127,2.794,2.794,0,0,0-5.586.1v.856a2.827,2.827,0,0,0-4.278-.056,2.773,2.773,0,0,0-.659,2.2l1.324,9.734a2.64,2.64,0,0,1-.172,1.36l-1.032-1.9A2.921,2.921,0,1,0,72.4,21.716l.65,1a2.769,2.769,0,0,0-.953,2.091v.856a2.826,2.826,0,0,0-4.278-.056,2.774,2.774,0,0,0-.659,2.2l1.324,9.734a2.641,2.641,0,0,1-.172,1.36L67.276,37a2.9,2.9,0,0,0-1.612-1.364v-7.4a1.971,1.971,0,0,0-1.425-1.892,16.579,16.579,0,0,1,.737-4.5l1.844-5.96.007-.025,1.8-6.432A2.776,2.776,0,0,0,64.361,6.41L64.6,4.8A2.771,2.771,0,0,0,59.684,2.67a2.795,2.795,0,0,0-5.587.1V3.63a2.826,2.826,0,0,0-4.278-.056,2.774,2.774,0,0,0-.659,2.2l1.324,9.734a2.64,2.64,0,0,1-.172,1.36l-1.032-1.9a2.921,2.921,0,1,0-5.013,2.992l1.753,2.69a10.574,10.574,0,0,0,3.917,3.572,2.9,2.9,0,0,1,1.519,2.135,1.971,1.971,0,0,0-1.381,1.878v5.335a.938.938,0,1,0,1.876,0V28.239a.092.092,0,0,1,.092-.092H63.7a.092.092,0,0,1,.092.092v7.386a2.955,2.955,0,0,0-.558.254,2.919,2.919,0,0,0-.968,4.114l1.526,2.341V62.051a.092.092,0,0,1-.092.092H52.041a.092.092,0,0,1-.092-.092V37.2a.938.938,0,0,0-1.876,0V62.052a1.97,1.97,0,0,0,1.968,1.968H63.7a1.97,1.97,0,0,0,1.968-1.968V44.643a10.564,10.564,0,0,0,2.268,1.612,2.9,2.9,0,0,1,1.519,2.135,1.971,1.971,0,0,0-1.381,1.878V62.052a1.97,1.97,0,0,0,1.968,1.968h2.406a.938.938,0,1,0,0-1.876H70.038a.092.092,0,0,1-.092-.092V50.269a.092.092,0,0,1,.092-.092H81.693a.092.092,0,0,1,.092.092V62.052a.092.092,0,0,1-.092.092H76.07a.938.938,0,1,0,0,1.876H91.828A1.97,1.97,0,0,0,93.8,62.052V31.991A1.971,1.971,0,0,0,92.37,30.1a16.578,16.578,0,0,1,.737-4.5l.261-.843a.938.938,0,1,0-1.792-.555l-.261.843a18.452,18.452,0,0,0-.819,4.978H86.639a2.781,2.781,0,0,0-4.282-1.583l.237-1.613A2.771,2.771,0,0,0,77.681,24.7a2.778,2.778,0,0,0-2.773-2.67H74.84l-.872-1.338a1.046,1.046,0,1,1,1.795-1.071l1.359,2.495a1.5,1.5,0,0,0,2.525.165,4.506,4.506,0,0,0,.826-3.275L79.149,9.271a.887.887,0,0,1,.214-.712.931.931,0,0,1,1.611.447L82.241,16.8a.938.938,0,0,0,1.863-.151V6.525a.919.919,0,0,1,1.837,0V16.648a.938.938,0,0,0,1.866.136l1.287-8.77a.9.9,0,0,1,.889-.768.9.9,0,0,1,.889,1.029l-1.208,8.237a.938.938,0,0,0,1.809.457l1.76-4.841a.9.9,0,0,1,.851-.592.9.9,0,0,1,.866,1.141L93.155,19.1l-.5,1.621a.938.938,0,0,0,1.792.554l.506-1.634.007-.025,1.8-6.432a2.753,2.753,0,0,0-.462-2.424ZM53.334,26.272a4.777,4.777,0,0,0-2.523-3.7A8.7,8.7,0,0,1,47.59,19.63l-1.753-2.69a1.046,1.046,0,1,1,1.795-1.071l1.359,2.495a1.5,1.5,0,0,0,2.525.165,4.506,4.506,0,0,0,.826-3.275L51.018,5.52a.887.887,0,0,1,.214-.712.931.931,0,0,1,1.611.447l1.266,7.793a.938.938,0,0,0,1.863-.151V2.774a.919.919,0,0,1,1.837,0V12.9a.938.938,0,0,0,1.866.136l1.287-8.77a.9.9,0,0,1,.889-.768.9.9,0,0,1,.889,1.029l-1.208,8.237a.938.938,0,0,0,1.809.457L65.1,8.377a.9.9,0,0,1,.851-.592.9.9,0,0,1,.866,1.141l-1.794,6.42-1.84,5.947a18.452,18.452,0,0,0-.819,4.978H53.334ZM91.828,31.9a.092.092,0,0,1,.092.092V62.052a.092.092,0,0,1-.092.092H83.659q0-.046,0-.092V50.269a1.971,1.971,0,0,0-1.425-1.892,16.575,16.575,0,0,1,.737-4.5l1.844-5.96.007-.025L86.5,31.9h5.329ZM75.807,24.8V34.927a.938.938,0,0,0,1.866.136l1.287-8.77a.9.9,0,0,1,.889-.768.9.9,0,0,1,.889,1.029L79.529,34.79a.938.938,0,0,0,1.809.457l1.76-4.841a.9.9,0,0,1,1.566-.236.892.892,0,0,1,.15.785l-1.794,6.42-1.84,5.947a18.452,18.452,0,0,0-.819,4.978H71.33a4.776,4.776,0,0,0-2.523-3.7c-2.441-1.288-3.278-3.025-4.973-5.626A1.046,1.046,0,1,1,65.629,37.9l1.359,2.494a1.5,1.5,0,0,0,2.525.166,4.506,4.506,0,0,0,.826-3.275l-1.324-9.735a.887.887,0,0,1,.214-.712.932.932,0,0,1,1.611.447l1.266,7.793a.938.938,0,0,0,1.863-.151V24.8a.919.919,0,0,1,1.838,0Z"/>
    </g>
  </g>
</svg>
