<svg xmlns="http://www.w3.org/2000/svg" xmlns:xlink="http://www.w3.org/1999/xlink" width="118" height="118" viewBox="0 0 118 118">
  <defs>
    <filter id="Trazado_874925" x="0" y="0" width="118" height="118" filterUnits="userSpaceOnUse">
      <feOffset dy="3" input="SourceAlpha"/>
      <feGaussianBlur stdDeviation="3" result="blur"/>
      <feFlood flood-opacity="0.161"/>
      <feComposite operator="in" in2="blur"/>
      <feComposite in="SourceGraphic"/>
    </filter>
  </defs>
  <g id="Grupo_1119974" data-name="Grupo 1119974" transform="translate(-1109.051 -8062.28)">
    <g id="Grupo_1119691" data-name="Grupo 1119691" transform="translate(314.217)">
      <g id="Grupo_1107913" data-name="Grupo 1107913" transform="translate(803.834 8068.28)">
        <g transform="matrix(1, 0, 0, 1, -9, -6)" filter="url(#Trazado_874925)">
          <g id="Trazado_874925-2" data-name="Trazado 874925" transform="translate(9 6)" fill="#bb965f">
            <path d="M 49.99972534179688 98.4998779296875 C 43.45164108276367 98.4998779296875 37.10022354125977 97.21776580810547 31.12189674377441 94.68914794921875 C 25.34676742553711 92.24647521972656 20.15985298156738 88.74925994873047 15.70523929595947 84.29464721679688 C 11.25062561035156 79.84004974365234 7.753411293029785 74.65313720703125 5.310725212097168 68.87800598144531 C 2.782111167907715 62.89969253540039 1.499996781349182 56.54829406738281 1.499996781349182 50.00022125244141 C 1.499996781349182 43.45157623291016 2.782111167907715 37.10017776489258 5.310725212097168 31.12186431884766 C 7.753411293029785 25.34673500061035 11.25062561035156 20.15983581542969 15.70523929595947 15.70522117614746 C 20.15985298156738 11.25062084197998 25.34676742553711 7.753406524658203 31.12189674377441 5.31073522567749 C 37.10022354125977 2.782120943069458 43.45164108276367 1.500006556510925 49.99972534179688 1.500006556510925 C 56.54780960083008 1.500006556510925 62.89922714233398 2.782120943069458 68.87755584716797 5.31073522567749 C 74.65267944335938 7.753406524658203 79.839599609375 11.25062084197998 84.29421234130859 15.70522117614746 C 88.74882507324219 20.15983581542969 92.24604034423828 25.34673500061035 94.68872833251953 31.12186431884766 C 97.21733856201172 37.10017776489258 98.49945068359375 43.45157623291016 98.49945068359375 49.99964904785156 C 98.49945068359375 56.54829406738281 97.21733856201172 62.89969253540039 94.68872833251953 68.87800598144531 C 92.24604034423828 74.65313720703125 88.74882507324219 79.84004974365234 84.29421234130859 84.29464721679688 C 79.839599609375 88.74925994873047 74.65267944335938 92.24647521972656 68.87755584716797 94.68914794921875 C 62.89922714233398 97.21776580810547 56.54780960083008 98.4998779296875 49.99972534179688 98.4998779296875 Z" stroke="none"/>
            <path d="M 49.99972534179688 3 C 43.65348052978516 3 37.49866485595703 4.242240905761719 31.70623016357422 6.692230224609375 C 26.10989379882812 9.059272766113281 21.08323669433594 12.44853210449219 16.76589202880859 16.76587677001953 C 12.44855499267578 21.08321380615234 9.059295654296875 26.10985565185547 6.692230224609375 31.70618438720703 C 4.24224853515625 37.49859619140625 3 43.65341186523438 3 50.00022888183594 C 3 56.34645843505859 4.24224853515625 62.50127410888672 6.692230224609375 68.29368591308594 C 9.059295654296875 73.8900146484375 12.44855499267578 78.91665649414062 16.76589202880859 83.23399353027344 C 21.08323669433594 87.55132293701172 26.10989379882812 90.94059753417969 31.70623016357422 93.30764007568359 C 37.49866485595703 95.75762939453125 43.65348052978516 96.99987030029297 49.99972534179688 96.99987030029297 C 56.34597015380859 96.99987030029297 62.50078582763672 95.75762939453125 68.293212890625 93.30764007568359 C 73.88955688476562 90.94059753417969 78.91621398925781 87.55132293701172 83.23355865478516 83.23399353027344 C 87.55089569091797 78.91665649414062 90.94015502929688 73.8900146484375 93.30722045898438 68.29368591308594 C 95.7572021484375 62.50127410888672 96.99945068359375 56.34645843505859 96.99945068359375 49.99964141845703 C 96.99945068359375 43.65341186523438 95.7572021484375 37.49859619140625 93.30722045898438 31.70618438720703 C 90.94015502929688 26.10985565185547 87.55089569091797 21.08321380615234 83.23355865478516 16.76587677001953 C 78.91621398925781 12.44853210449219 73.88955688476562 9.059272766113281 68.293212890625 6.692230224609375 C 62.50078582763672 4.242240905761719 56.34597015380859 3 49.99972534179688 3 M 49.99972534179688 0 C 77.61381530761719 0 99.99945068359375 22.38559722900391 99.99945068359375 49.99964141845703 L 99.99945068359375 50.00022888183594 C 99.99945068359375 77.6142578125 77.61381530761719 99.99987030029297 49.99972534179688 99.99987030029297 C 22.38563537597656 99.99987030029297 0 77.6142578125 0 50.00022888183594 L 0 49.99964141845703 C 0 22.38559722900391 22.38563537597656 0 49.99972534179688 0 Z" stroke="none" fill="#fff"/>
          </g>
        </g>
        <g id="Trazado_874923" data-name="Trazado 874923" transform="translate(0 0)" fill="none">
          <path d="M50,0a50,50,0,0,1,50,50h0A50,50,0,0,1,0,50H0A50,50,0,0,1,50,0Z" stroke="none"/>
          <path d="M 49.99972534179688 3 C 43.65348052978516 3 37.49866485595703 4.242240905761719 31.70623016357422 6.692230224609375 C 26.10989379882812 9.059272766113281 21.08323669433594 12.44853210449219 16.76589202880859 16.76587677001953 C 12.44855499267578 21.08321380615234 9.059295654296875 26.10985565185547 6.692230224609375 31.70618438720703 C 4.24224853515625 37.49859619140625 3 43.65341186523438 3 50.00022888183594 C 3 56.34645843505859 4.24224853515625 62.50127410888672 6.692230224609375 68.29368591308594 C 9.059295654296875 73.8900146484375 12.44855499267578 78.91665649414062 16.76589202880859 83.23399353027344 C 21.08323669433594 87.55132293701172 26.10989379882812 90.94059753417969 31.70623016357422 93.30764007568359 C 37.49866485595703 95.75762939453125 43.65348052978516 96.99987030029297 49.99972534179688 96.99987030029297 C 56.34597015380859 96.99987030029297 62.50078582763672 95.75762939453125 68.293212890625 93.30764007568359 C 73.88955688476562 90.94059753417969 78.91621398925781 87.55132293701172 83.23355865478516 83.23399353027344 C 87.55089569091797 78.91665649414062 90.94015502929688 73.8900146484375 93.30722045898438 68.29368591308594 C 95.7572021484375 62.50127410888672 96.99945068359375 56.34645843505859 96.99945068359375 49.99964141845703 C 96.99945068359375 43.65341186523438 95.7572021484375 37.49859619140625 93.30722045898438 31.70618438720703 C 90.94015502929688 26.10985565185547 87.55089569091797 21.08321380615234 83.23355865478516 16.76587677001953 C 78.91621398925781 12.44853210449219 73.88955688476562 9.059272766113281 68.293212890625 6.692230224609375 C 62.50078582763672 4.242240905761719 56.34597015380859 3 49.99972534179688 3 M 49.99972534179688 0 C 77.61381530761719 0 99.99945068359375 22.38559722900391 99.99945068359375 49.99964141845703 L 99.99945068359375 50.00022888183594 C 99.99945068359375 77.6142578125 77.61381530761719 99.99987030029297 49.99972534179688 99.99987030029297 C 22.38563537597656 99.99987030029297 0 77.6142578125 0 50.00022888183594 L 0 49.99964141845703 C 0 22.38559722900391 22.38563537597656 0 49.99972534179688 0 Z" stroke="none" fill="#fff"/>
        </g>
      </g>
    </g>
    <g id="Grupo_1119973" data-name="Grupo 1119973" transform="translate(1135.311 8079.207)">
      <g id="Grupo_1119971" data-name="Grupo 1119971" transform="translate(6.689 17.714)">
        <g id="Grupo_1119967" data-name="Grupo 1119967" transform="translate(0.419)">
          <path id="Trazado_917481" data-name="Trazado 917481" d="M27.54,51.576h-2.4V64.76H32.8V60.009a2.354,2.354,0,0,0-2.354-2.354h-1.5V52.989a1.413,1.413,0,0,0-1.413-1.413Z" transform="translate(-17.309 -36.067)" fill="#e64c3c"/>
          <g id="Grupo_1119966" data-name="Grupo 1119966">
            <g id="Grupo_1119965" data-name="Grupo 1119965" transform="translate(4.538 7.62)">
              <path id="Trazado_917482" data-name="Trazado 917482" d="M18.143,34.821h3.3V55.895h-3.3Z" transform="translate(-18.143 -34.821)" fill="#f2a226"/>
              <path id="Trazado_917483" data-name="Trazado 917483" d="M59.87,34.821h3.3V55.895h-3.3Z" transform="translate(-40.222 -34.821)" fill="#f2a226"/>
            </g>
            <path id="Trazado_917484" data-name="Trazado 917484" d="M38.458,18.639H16.328a1.413,1.413,0,0,0-1.413,1.413v2.61H39.871v-2.61A1.413,1.413,0,0,0,38.458,18.639Z" transform="translate(-11.897 -18.639)" fill="#e64c3c"/>
            <path id="Trazado_917485" data-name="Trazado 917485" d="M38.171,30.348a2.354,2.354,0,0,0,0-4.709H10.86a2.354,2.354,0,0,0,0,4.709Z" transform="translate(-8.506 -22.343)" fill="#c4402f"/>
          </g>
        </g>
        <path id="Trazado_917486" data-name="Trazado 917486" d="M55.357,73.9a2.354,2.354,0,0,0,2.354-2.354V67.091a2.354,2.354,0,0,0-2.354-2.354H51.5a1.413,1.413,0,0,1-1.325-.922l-2.485-6.7a2.354,2.354,0,0,0-2.207-1.536h-9.97V65.849H10.363a2.354,2.354,0,0,0-2.338,2.079l-.394,3.339A2.354,2.354,0,0,0,9.97,73.9Z" transform="translate(-7.616 -38.184)" fill="#f0c419"/>
        <g id="Grupo_1119969" data-name="Grupo 1119969" transform="translate(2.56 34.242)">
          <path id="Trazado_917487" data-name="Trazado 917487" d="M41.646,99.837a4.238,4.238,0,0,0,0-8.476H17.29a4.238,4.238,0,0,0,0,8.476Z" transform="translate(-13.052 -91.361)" fill="#e64c3c"/>
          <g id="Grupo_1119968" data-name="Grupo 1119968" transform="translate(3.242 2.75)">
            <path id="Trazado_917488" data-name="Trazado 917488" d="M22.913,98.689a1.487,1.487,0,1,0-1.486,1.487,1.487,1.487,0,0,0,1.486-1.487Z" transform="translate(-19.938 -97.202)" fill="#f0c419"/>
            <path id="Trazado_917489" data-name="Trazado 917489" d="M39.457,98.689a1.487,1.487,0,1,0-1.487,1.487A1.487,1.487,0,0,0,39.457,98.689Z" transform="translate(-28.692 -97.202)" fill="#f0c419"/>
            <path id="Trazado_917490" data-name="Trazado 917490" d="M56,98.689a1.487,1.487,0,1,0-1.487,1.487A1.487,1.487,0,0,0,56,98.689Z" transform="translate(-37.448 -97.202)" fill="#f0c419"/>
            <path id="Trazado_917491" data-name="Trazado 917491" d="M72.55,98.689a1.487,1.487,0,1,0-1.487,1.487A1.487,1.487,0,0,0,72.55,98.689Z" transform="translate(-46.203 -97.202)" fill="#f0c419"/>
          </g>
        </g>
        <g id="Grupo_1119970" data-name="Grupo 1119970" transform="translate(38.797 35.711)">
          <path id="Trazado_917492" data-name="Trazado 917492" d="M110.034,94.48H107.19l1.285,7.007h4.93Z" transform="translate(-99.101 -94.48)" fill="#3994d8"/>
          <path id="Trazado_917493" data-name="Trazado 917493" d="M98.73,94.48v7.007H104l-1.285-7.007Z" transform="translate(-94.624 -94.48)" fill="#2889c6"/>
          <path id="Trazado_917494" data-name="Trazado 917494" d="M90.01,94.48h4.106v7.007H90.01Z" transform="translate(-90.01 -94.48)" fill="#3994d8"/>
        </g>
      </g>
      <g id="Grupo_1119972" data-name="Grupo 1119972" transform="translate(5.865 16.89)">
        <path id="Trazado_917495" data-name="Trazado 917495" d="M39.094,18.538a.824.824,0,0,0,0-1.648h-2.34a.824.824,0,0,0,0,1.648Z" transform="translate(-21.773 -16.89)"/>
        <path id="Trazado_917496" data-name="Trazado 917496" d="M78.082,62.837a.824.824,0,1,0,0-1.648H73.674a.824.824,0,1,0,0,1.648Z" transform="translate(-41.309 -40.33)"/>
        <path id="Trazado_917497" data-name="Trazado 917497" d="M78.082,70.065a.824.824,0,1,0,0-1.648H73.674a.824.824,0,1,0,0,1.648Z" transform="translate(-41.309 -44.155)"/>
        <path id="Trazado_917498" data-name="Trazado 917498" d="M78.082,77.293a.824.824,0,1,0,0-1.648H73.674a.824.824,0,0,0,0,1.648Z" transform="translate(-41.309 -47.979)"/>
        <path id="Trazado_917499" data-name="Trazado 917499" d="M22.814,97.762a2.312,2.312,0,1,0-2.312,2.312A2.312,2.312,0,0,0,22.814,97.762Zm-2.976,0a.664.664,0,1,1,.664.664.664.664,0,0,1-.664-.664Z" transform="translate(-12.387 -58.459)"/>
        <path id="Trazado_917500" data-name="Trazado 917500" d="M39.354,97.762a2.312,2.312,0,1,0-2.312,2.312,2.312,2.312,0,0,0,2.312-2.312Zm-2.976,0a.664.664,0,1,1,.664.664A.664.664,0,0,1,36.378,97.762Z" transform="translate(-21.138 -58.459)"/>
        <path id="Trazado_917501" data-name="Trazado 917501" d="M55.9,97.762a2.312,2.312,0,1,0-2.312,2.312A2.312,2.312,0,0,0,55.9,97.762Zm-2.976,0a.664.664,0,1,1,.53.65A.664.664,0,0,1,52.928,97.762Z" transform="translate(-29.896 -58.459)"/>
        <path id="Trazado_917502" data-name="Trazado 917502" d="M72.444,97.762a2.312,2.312,0,1,0-2.312,2.312A2.312,2.312,0,0,0,72.444,97.762Zm-2.976,0a.664.664,0,1,1,.664.664.664.664,0,0,1-.664-.664Z" transform="translate(-38.647 -58.459)"/>
        <path id="Trazado_917503" data-name="Trazado 917503" d="M9.437,44.553a3.174,3.174,0,0,0-3.155,2.808L5.887,50.7a3.169,3.169,0,0,0,2.937,3.536,5.049,5.049,0,0,0,4.662,7.018H37.844a5.05,5.05,0,0,0,4.667-7.007h2.151v6.182a.824.824,0,0,0,.824.824h14.3a.824.824,0,0,0,.743-1.181L57.162,53.07a.808.808,0,0,0-.123-.184,3.16,3.16,0,0,0,.572-1.814V46.621a3.182,3.182,0,0,0-3.178-3.178H50.576a.587.587,0,0,1-.551-.385l-2.486-6.7a3.2,3.2,0,0,0-2.981-2.072H43.132a.824.824,0,0,0,0,1.648h1.427a1.539,1.539,0,0,1,1.436,1l2.485,6.7a2.238,2.238,0,0,0,2.1,1.464h3.856a1.532,1.532,0,0,1,1.53,1.53v4.45a1.532,1.532,0,0,1-1.53,1.53H41.4a5.128,5.128,0,0,0-3.56-1.469H13.486A5.141,5.141,0,0,0,9.924,52.6H9.046a1.529,1.529,0,0,1-1.522-1.706l.4-3.341A1.526,1.526,0,0,1,9.437,46.2H34.59a.824.824,0,0,0,.824-.824V35.932h3.423a.824.824,0,1,0,0-1.648H35.414V26.543h1.361a3.178,3.178,0,1,0,0-6.357h-.866V19.127a2.239,2.239,0,0,0-2.237-2.237h-6.2a.824.824,0,0,0,0,1.648h6.2a.589.589,0,0,1,.589.589v1.059H10.953V19.127a.589.589,0,0,1,.589-.589h5.01a.824.824,0,0,0,0-1.648h-5.01A2.239,2.239,0,0,0,9.3,19.127v1.067a3.176,3.176,0,0,0,.16,6.349h1.356V44.553Zm46.465,9.7,2.578,5.358H55.546l-.983-5.358Zm-5.484,0h2.47l.983,5.358H50.418Zm-4.108,0h2.46v5.358H46.31ZM13.486,52.78H37.844a3.414,3.414,0,1,1,0,6.828H13.486a3.414,3.414,0,1,1,0-6.828Zm.631-8.226H12.469V26.543h1.648Zm7.666,0H15.765V34.048h1.573a.59.59,0,0,1,.589.589V39.3a.824.824,0,0,0,.824.824h1.5a1.532,1.532,0,0,1,1.53,1.53Zm8.688-8.46-2.962-2.012.8-1.229a.824.824,0,1,0-1.38-.9L24.44,35.765a.824.824,0,1,0,1.38.9l.787-1.2,3.861,2.628v6.464H23.431v-2.9a3.182,3.182,0,0,0-3.178-3.178h-.678V34.637A2.239,2.239,0,0,0,17.338,32.4H15.765V26.543H30.47Zm3.3,8.46H32.118V26.543h1.648ZM9.465,24.895a1.53,1.53,0,0,1,0-3.061h27.31a1.53,1.53,0,1,1,0,3.061Z" transform="translate(-5.865 -16.89)"/>
      </g>
    </g>
  </g>
</svg>
