<svg xmlns="http://www.w3.org/2000/svg" xmlns:xlink="http://www.w3.org/1999/xlink" width="117.999" height="118" viewBox="0 0 117.999 118">
  <defs>
    <filter id="Trazado_874925" x="0" y="0" width="117.999" height="118" filterUnits="userSpaceOnUse">
      <feOffset dy="3" input="SourceAlpha"/>
      <feGaussianBlur stdDeviation="3" result="blur"/>
      <feFlood flood-opacity="0.161"/>
      <feComposite operator="in" in2="blur"/>
      <feComposite in="SourceGraphic"/>
    </filter>
  </defs>
  <g id="Grupo_1120377" data-name="Grupo 1120377" transform="translate(-355.001 2410.72)">
    <g id="Grupo_1111553" data-name="Grupo 1111553" transform="translate(-444.5 -4921.877)">
      <g id="Grupo_1111316" data-name="Grupo 1111316" transform="translate(808.5 2517.157)">
        <g id="Grupo_1109835" data-name="Grupo 1109835" transform="translate(0 0)">
          <g id="Grupo_1107913" data-name="Grupo 1107913" transform="translate(0 0)">
            <g transform="matrix(1, 0, 0, 1, -9, -6)" filter="url(#Trazado_874925)">
              <g id="Trazado_874925-2" data-name="Trazado 874925" transform="translate(9 6)" fill="#bb965f" opacity="0.859">
                <path d="M 49.99972534179688 98.4998779296875 C 43.45164108276367 98.4998779296875 37.10022354125977 97.21776580810547 31.12189674377441 94.68914794921875 C 25.34676742553711 92.24647521972656 20.15985298156738 88.74925994873047 15.70523929595947 84.29464721679688 C 11.25062561035156 79.84004974365234 7.753411293029785 74.65313720703125 5.310725212097168 68.87800598144531 C 2.782111167907715 62.89969253540039 1.499996781349182 56.54829406738281 1.499996781349182 50.00022125244141 C 1.499996781349182 43.45157623291016 2.782111167907715 37.10017776489258 5.310725212097168 31.12186431884766 C 7.753411293029785 25.34673500061035 11.25062561035156 20.15983581542969 15.70523929595947 15.70522117614746 C 20.15985298156738 11.25062084197998 25.34676742553711 7.753406524658203 31.12189674377441 5.31073522567749 C 37.10022354125977 2.782120943069458 43.45164108276367 1.500006556510925 49.99972534179688 1.500006556510925 C 56.54780960083008 1.500006556510925 62.89922714233398 2.782120943069458 68.87755584716797 5.31073522567749 C 74.65267944335938 7.753406524658203 79.839599609375 11.25062084197998 84.29421234130859 15.70522117614746 C 88.74882507324219 20.15983581542969 92.24604034423828 25.34673500061035 94.68872833251953 31.12186431884766 C 97.21733856201172 37.10017776489258 98.49945068359375 43.45157623291016 98.49945068359375 49.99964904785156 C 98.49945068359375 56.54829406738281 97.21733856201172 62.89969253540039 94.68872833251953 68.87800598144531 C 92.24604034423828 74.65313720703125 88.74882507324219 79.84004974365234 84.29421234130859 84.29464721679688 C 79.839599609375 88.74925994873047 74.65267944335938 92.24647521972656 68.87755584716797 94.68914794921875 C 62.89922714233398 97.21776580810547 56.54780960083008 98.4998779296875 49.99972534179688 98.4998779296875 Z" stroke="none"/>
                <path d="M 49.99972534179688 3 C 43.65348052978516 3 37.49866485595703 4.242240905761719 31.70623016357422 6.692230224609375 C 26.10989379882812 9.059272766113281 21.08323669433594 12.44853210449219 16.76589202880859 16.76587677001953 C 12.44855499267578 21.08321380615234 9.059295654296875 26.10985565185547 6.692230224609375 31.70618438720703 C 4.24224853515625 37.49859619140625 3 43.65341186523438 3 50.00022888183594 C 3 56.34645843505859 4.24224853515625 62.50127410888672 6.692230224609375 68.29368591308594 C 9.059295654296875 73.8900146484375 12.44855499267578 78.91665649414062 16.76589202880859 83.23399353027344 C 21.08323669433594 87.55132293701172 26.10989379882812 90.94059753417969 31.70623016357422 93.30764007568359 C 37.49866485595703 95.75762939453125 43.65348052978516 96.99987030029297 49.99972534179688 96.99987030029297 C 56.34597015380859 96.99987030029297 62.50078582763672 95.75762939453125 68.293212890625 93.30764007568359 C 73.88955688476562 90.94059753417969 78.91621398925781 87.55132293701172 83.23355865478516 83.23399353027344 C 87.55089569091797 78.91665649414062 90.94015502929688 73.8900146484375 93.30722045898438 68.29368591308594 C 95.7572021484375 62.50127410888672 96.99945068359375 56.34645843505859 96.99945068359375 49.99964141845703 C 96.99945068359375 43.65341186523438 95.7572021484375 37.49859619140625 93.30722045898438 31.70618438720703 C 90.94015502929688 26.10985565185547 87.55089569091797 21.08321380615234 83.23355865478516 16.76587677001953 C 78.91621398925781 12.44853210449219 73.88955688476562 9.059272766113281 68.293212890625 6.692230224609375 C 62.50078582763672 4.242240905761719 56.34597015380859 3 49.99972534179688 3 M 49.99972534179688 0 C 77.61381530761719 0 99.99945068359375 22.38559722900391 99.99945068359375 49.99964141845703 L 99.99945068359375 50.00022888183594 C 99.99945068359375 77.6142578125 77.61381530761719 99.99987030029297 49.99972534179688 99.99987030029297 C 22.38563537597656 99.99987030029297 0 77.6142578125 0 50.00022888183594 L 0 49.99964141845703 C 0 22.38559722900391 22.38563537597656 0 49.99972534179688 0 Z" stroke="none" fill="#fff"/>
              </g>
            </g>
            <g id="Trazado_874923" data-name="Trazado 874923" transform="translate(0 0)" fill="none">
              <path d="M50,0a50,50,0,0,1,50,50h0A50,50,0,0,1,0,50H0A50,50,0,0,1,50,0Z" stroke="none"/>
              <path d="M 49.99972534179688 3 C 43.65348052978516 3 37.49866485595703 4.242240905761719 31.70623016357422 6.692230224609375 C 26.10989379882812 9.059272766113281 21.08323669433594 12.44853210449219 16.76589202880859 16.76587677001953 C 12.44855499267578 21.08321380615234 9.059295654296875 26.10985565185547 6.692230224609375 31.70618438720703 C 4.24224853515625 37.49859619140625 3 43.65341186523438 3 50.00022888183594 C 3 56.34645843505859 4.24224853515625 62.50127410888672 6.692230224609375 68.29368591308594 C 9.059295654296875 73.8900146484375 12.44855499267578 78.91665649414062 16.76589202880859 83.23399353027344 C 21.08323669433594 87.55132293701172 26.10989379882812 90.94059753417969 31.70623016357422 93.30764007568359 C 37.49866485595703 95.75762939453125 43.65348052978516 96.99987030029297 49.99972534179688 96.99987030029297 C 56.34597015380859 96.99987030029297 62.50078582763672 95.75762939453125 68.293212890625 93.30764007568359 C 73.88955688476562 90.94059753417969 78.91621398925781 87.55132293701172 83.23355865478516 83.23399353027344 C 87.55089569091797 78.91665649414062 90.94015502929688 73.8900146484375 93.30722045898438 68.29368591308594 C 95.7572021484375 62.50127410888672 96.99945068359375 56.34645843505859 96.99945068359375 49.99964141845703 C 96.99945068359375 43.65341186523438 95.7572021484375 37.49859619140625 93.30722045898438 31.70618438720703 C 90.94015502929688 26.10985565185547 87.55089569091797 21.08321380615234 83.23355865478516 16.76587677001953 C 78.91621398925781 12.44853210449219 73.88955688476562 9.059272766113281 68.293212890625 6.692230224609375 C 62.50078582763672 4.242240905761719 56.34597015380859 3 49.99972534179688 3 M 49.99972534179688 0 C 77.61381530761719 0 99.99945068359375 22.38559722900391 99.99945068359375 49.99964141845703 L 99.99945068359375 50.00022888183594 C 99.99945068359375 77.6142578125 77.61381530761719 99.99987030029297 49.99972534179688 99.99987030029297 C 22.38563537597656 99.99987030029297 0 77.6142578125 0 50.00022888183594 L 0 49.99964141845703 C 0 22.38559722900391 22.38563537597656 0 49.99972534179688 0 Z" stroke="none" fill="#fff"/>
            </g>
          </g>
        </g>
      </g>
    </g>
    <g id="Grupo_1120376" data-name="Grupo 1120376" transform="translate(360.298 -2386.606)">
      <g id="Grupo_1120374" data-name="Grupo 1120374" transform="translate(26.133 0.917)">
        <g id="Grupo_1120308" data-name="Grupo 1120308" transform="translate(0)">
          <g id="Grupo_1120304" data-name="Grupo 1120304" transform="translate(0 32.079)">
            <g id="Grupo_1120295" data-name="Grupo 1120295">
              <g id="Grupo_1120288" data-name="Grupo 1120288" transform="translate(15.182 3.551)">
                <path id="Trazado_918556" data-name="Trazado 918556" d="M155.643,308.752l1.368-10.624a2.481,2.481,0,0,1,4.941.371l-.214,9.861-2.023,3.073Z" transform="translate(-155.643 -295.964)" fill="#873f30"/>
              </g>
              <g id="Grupo_1120289" data-name="Grupo 1120289" transform="translate(11.464 1.336)">
                <path id="Trazado_918557" data-name="Trazado 918557" d="M127.142,291.473l-1.583-10.594a2.481,2.481,0,0,1,4.855-.992l2.485,9.545-1.108,3.509Z" transform="translate(-125.531 -278.032)" fill="#a34f41"/>
              </g>
              <g id="Grupo_1120290" data-name="Grupo 1120290" transform="translate(5.662)">
                <path id="Trazado_918558" data-name="Trazado 918558" d="M82.205,280.624l-3.517-10.117a2.481,2.481,0,0,1,4.587-1.873l4.209,8.92-.439,3.653Z" transform="translate(-78.55 -267.21)" fill="#ba5d4f"/>
              </g>
              <g id="Grupo_1120292" data-name="Grupo 1120292" transform="translate(0 0.261)">
                <g id="Grupo_1120291" data-name="Grupo 1120291">
                  <path id="Trazado_918559" data-name="Trazado 918559" d="M34.284,269.49a2.481,2.481,0,0,0-1.336,3.4l5.808,11.895a4.416,4.416,0,0,0,.729,1.063l3.825,4.129a5.091,5.091,0,0,1,1.356,3.46v4.915h5.026l4.289-1.254a5.091,5.091,0,0,1,.49-2.18l.973-2.053a7.586,7.586,0,0,0,.731-3.248V285.33a3.659,3.659,0,0,0-1.722-3.1l-6.462-4.033A2.994,2.994,0,0,0,43.44,280.3l-6.162-9.816a2.481,2.481,0,0,0-2.994-1Zm9.068,10.858.074.059s0,.01,0,.015Z" transform="translate(-32.695 -269.323)" fill="#c86f5c"/>
                </g>
              </g>
              <g id="Grupo_1120294" data-name="Grupo 1120294" transform="translate(16.997 10.737)">
                <g id="Grupo_1120293" data-name="Grupo 1120293">
                  <path id="Trazado_918560" data-name="Trazado 918560" d="M176.827,359.69v4.289a7.575,7.575,0,0,1-.731,3.248l-.972,2.053a5.083,5.083,0,0,0-.491,2.179v1.255h-4.289v-1.255a5.1,5.1,0,0,1,.49-2.179l.973-2.053a7.575,7.575,0,0,0,.731-3.248v-7.005a3.658,3.658,0,0,0-1.322-2.815l3.89,2.428A3.658,3.658,0,0,1,176.827,359.69Z" transform="translate(-170.344 -354.158)" fill="#ba5d4f"/>
                </g>
              </g>
            </g>
            <g id="Grupo_1120303" data-name="Grupo 1120303" transform="translate(31.66)">
              <g id="Grupo_1120296" data-name="Grupo 1120296" transform="translate(1.988 3.551)">
                <path id="Trazado_918561" data-name="Trazado 918561" d="M311.5,308.752l-1.368-10.624a2.481,2.481,0,0,0-4.941.371l.214,9.861,2.024,3.073Z" transform="translate(-305.185 -295.964)" fill="#f69583"/>
              </g>
              <g id="Grupo_1120297" data-name="Grupo 1120297" transform="translate(4.649 1.336)">
                <path id="Trazado_918562" data-name="Trazado 918562" d="M332.492,291.473l1.583-10.594a2.481,2.481,0,0,0-4.855-.992l-2.485,9.545,1.108,3.509Z" transform="translate(-326.735 -278.032)" fill="#ffa792"/>
              </g>
              <g id="Grupo_1120298" data-name="Grupo 1120298" transform="translate(8.883)">
                <path id="Trazado_918563" data-name="Trazado 918563" d="M366.3,280.624l3.517-10.117a2.481,2.481,0,0,0-4.587-1.873l-4.209,8.92.439,3.653Z" transform="translate(-361.02 -267.21)" fill="#fdb0a0"/>
              </g>
              <g id="Grupo_1120300" data-name="Grupo 1120300" transform="translate(0 0.261)">
                <g id="Grupo_1120299" data-name="Grupo 1120299">
                  <path id="Trazado_918564" data-name="Trazado 918564" d="M307.981,270.485l-6.162,9.816a2.994,2.994,0,0,0-4.551-2.108l-6.462,4.033a3.659,3.659,0,0,0-1.722,3.1v4.289a7.585,7.585,0,0,0,.731,3.248l.973,2.053a5.091,5.091,0,0,1,.49,2.18v1.254h5.363l3.952-4.915a5.091,5.091,0,0,1,1.356-3.46l3.825-4.129a4.417,4.417,0,0,0,.729-1.063l5.808-11.895a2.481,2.481,0,0,0-4.331-2.408Zm-6.146,9.936s0-.01,0-.015l.074-.059Z" transform="translate(-289.084 -269.323)" fill="#ffcec0"/>
                </g>
              </g>
              <g id="Grupo_1120302" data-name="Grupo 1120302" transform="translate(7.557 0.26)">
                <g id="Grupo_1120301" data-name="Grupo 1120301">
                  <path id="Trazado_918565" data-name="Trazado 918565" d="M365.954,272.889l-5.807,11.894a4.392,4.392,0,0,1-.729,1.063l-3.825,4.129a5.092,5.092,0,0,0-1.357,3.46v4.915h-3.951v-4.915a5.092,5.092,0,0,1,1.357-3.46l3.826-4.129a4.392,4.392,0,0,0,.729-1.063L362,272.889a2.48,2.48,0,0,0-.253-2.589,2.481,2.481,0,0,1,4.2,2.589Z" transform="translate(-350.284 -269.318)" fill="#fdb0a0"/>
                </g>
              </g>
            </g>
          </g>
          <g id="Grupo_1120307" data-name="Grupo 1120307" transform="translate(8.069)">
            <g id="Grupo_1120306" data-name="Grupo 1120306">
              <path id="Trazado_918566" data-name="Trazado 918566" d="M132.571,19.268v-4.46h.232a19.426,19.426,0,1,0,2.667,4.46Z" transform="translate(-98.038 -7.442)" fill="#64b9fc"/>
              <path id="Trazado_918567" data-name="Trazado 918567" d="M98.039,54.6a19.615,19.615,0,0,0,.322,3.543h4.732a1.235,1.235,0,0,0,.873-.362l2.821-2.821a1.235,1.235,0,0,1,.873-.362h2.357a1.235,1.235,0,0,0,1.235-1.235V52.113a1.235,1.235,0,0,0-.362-.873l-2.2-2.2a1.235,1.235,0,0,1-.362-.873V44.664a1.235,1.235,0,0,0-.362-.873L106.2,42.026a1.235,1.235,0,0,1-.362-.873V39a19.471,19.471,0,0,0-7.8,15.6Z" transform="translate(-98.039 -35.101)" fill="#6fd7a3"/>
              <path id="Trazado_918568" data-name="Trazado 918568" d="M253.836,19.254v-4.46h.237a19.527,19.527,0,0,0-17.659-7.217,19.5,19.5,0,0,1-.028,38.708,19.506,19.506,0,0,0,20.346-27.03Z" transform="translate(-219.303 -7.428)" fill="#31a7fb"/>
              <g id="Grupo_1120305" data-name="Grupo 1120305" transform="translate(21.717 3.07)">
                <path id="Trazado_918569" data-name="Trazado 918569" d="M286.726,41.047v-4.46h.237a19.508,19.508,0,0,0-4.019-3.792q-.371-.262-.751-.5l-6.541,6.541a1.235,1.235,0,0,1-.873.362h-.868v3.268h1.308a1.235,1.235,0,0,1,.873.362l3.868,3.868a1.235,1.235,0,0,1,.362.873v2.862a1.235,1.235,0,0,1-.362.873l-1.48,1.48a1.235,1.235,0,0,1-.873.362h-2.223a1.235,1.235,0,0,0-1.235,1.235v3.708l3.389,1.505a1.235,1.235,0,0,1,.575,1.733l-.807,1.437a1.235,1.235,0,0,0,.2,1.478l2.245,2.245a19.508,19.508,0,0,0,9.87-25.437h-2.9Z" transform="translate(-273.91 -32.291)" fill="#6fd7a3"/>
              </g>
              <path id="Trazado_918570" data-name="Trazado 918570" d="M312.069,32.795q-.371-.262-.751-.5l-2.09,2.09a19.516,19.516,0,0,1-2.089,30.363l1.74,1.74a19.5,19.5,0,0,0,3.191-33.689Z" transform="translate(-281.319 -29.221)" fill="#3ec3a4"/>
            </g>
          </g>
        </g>
        <g id="Grupo_1120373" data-name="Grupo 1120373" transform="translate(15.182 7.046)">
          <g id="Grupo_1120369" data-name="Grupo 1120369">
            <g id="Grupo_1120314" data-name="Grupo 1120314" transform="translate(0 10.272)">
              <g id="Grupo_1120313" data-name="Grupo 1120313">
                <g id="Grupo_1120312" data-name="Grupo 1120312">
                  <g id="Grupo_1120311" data-name="Grupo 1120311">
                    <g id="Grupo_1120310" data-name="Grupo 1120310">
                      <g id="Grupo_1120309" data-name="Grupo 1120309">
                        <ellipse id="Elipse_11912" data-name="Elipse 11912" cx="4.371" cy="2.185" rx="4.371" ry="2.185" fill="#ffefd2"/>
                      </g>
                    </g>
                  </g>
                </g>
              </g>
            </g>
            <g id="Grupo_1120320" data-name="Grupo 1120320" transform="translate(1.087 3.411)">
              <g id="Grupo_1120319" data-name="Grupo 1120319">
                <g id="Grupo_1120318" data-name="Grupo 1120318">
                  <g id="Grupo_1120317" data-name="Grupo 1120317">
                    <g id="Grupo_1120316" data-name="Grupo 1120316">
                      <g id="Grupo_1120315" data-name="Grupo 1120315">
                        <ellipse id="Elipse_11913" data-name="Elipse 11913" cx="2.185" cy="4.371" rx="2.185" ry="4.371" transform="translate(0 3.535) rotate(-53.989)" fill="#ffefd2"/>
                      </g>
                    </g>
                  </g>
                </g>
              </g>
            </g>
            <g id="Grupo_1120326" data-name="Grupo 1120326" transform="translate(6.481)">
              <g id="Grupo_1120325" data-name="Grupo 1120325">
                <g id="Grupo_1120324" data-name="Grupo 1120324">
                  <g id="Grupo_1120323" data-name="Grupo 1120323">
                    <g id="Grupo_1120322" data-name="Grupo 1120322">
                      <g id="Grupo_1120321" data-name="Grupo 1120321">
                        <ellipse id="Elipse_11914" data-name="Elipse 11914" cx="2.185" cy="4.371" rx="2.185" ry="4.371" transform="translate(0 1.35) rotate(-18)" fill="#ffefd2"/>
                      </g>
                    </g>
                  </g>
                </g>
              </g>
            </g>
            <g id="Grupo_1120332" data-name="Grupo 1120332" transform="translate(11.436 0.002)">
              <g id="Grupo_1120331" data-name="Grupo 1120331">
                <g id="Grupo_1120330" data-name="Grupo 1120330">
                  <g id="Grupo_1120329" data-name="Grupo 1120329">
                    <g id="Grupo_1120328" data-name="Grupo 1120328">
                      <g id="Grupo_1120327" data-name="Grupo 1120327">
                        <ellipse id="Elipse_11915" data-name="Elipse 11915" cx="4.371" cy="2.185" rx="4.371" ry="2.185" transform="translate(0 8.314) rotate(-72)" fill="#ffefd2"/>
                      </g>
                    </g>
                  </g>
                </g>
              </g>
            </g>
            <g id="Grupo_1120338" data-name="Grupo 1120338" transform="translate(14.056 3.398)">
              <g id="Grupo_1120337" data-name="Grupo 1120337">
                <g id="Grupo_1120336" data-name="Grupo 1120336">
                  <g id="Grupo_1120335" data-name="Grupo 1120335">
                    <g id="Grupo_1120334" data-name="Grupo 1120334">
                      <g id="Grupo_1120333" data-name="Grupo 1120333">
                        <ellipse id="Elipse_11916" data-name="Elipse 11916" cx="4.371" cy="2.185" rx="4.371" ry="2.185" transform="translate(0 5.14) rotate(-36.011)" fill="#ffefd2"/>
                      </g>
                    </g>
                  </g>
                </g>
              </g>
            </g>
            <g id="Grupo_1120344" data-name="Grupo 1120344" transform="translate(16.033 10.272)">
              <g id="Grupo_1120343" data-name="Grupo 1120343">
                <g id="Grupo_1120342" data-name="Grupo 1120342">
                  <g id="Grupo_1120341" data-name="Grupo 1120341">
                    <g id="Grupo_1120340" data-name="Grupo 1120340">
                      <g id="Grupo_1120339" data-name="Grupo 1120339">
                        <ellipse id="Elipse_11917" data-name="Elipse 11917" cx="4.371" cy="2.185" rx="4.371" ry="2.185" fill="#ffefd2"/>
                      </g>
                    </g>
                  </g>
                </g>
              </g>
            </g>
            <g id="Grupo_1120350" data-name="Grupo 1120350" transform="translate(14.061 12.837)">
              <g id="Grupo_1120349" data-name="Grupo 1120349">
                <g id="Grupo_1120348" data-name="Grupo 1120348">
                  <g id="Grupo_1120347" data-name="Grupo 1120347">
                    <g id="Grupo_1120346" data-name="Grupo 1120346">
                      <g id="Grupo_1120345" data-name="Grupo 1120345">
                        <ellipse id="Elipse_11918" data-name="Elipse 11918" cx="2.185" cy="4.371" rx="2.185" ry="4.371" transform="translate(0 3.535) rotate(-53.989)" fill="#ffefd2"/>
                      </g>
                    </g>
                  </g>
                </g>
              </g>
            </g>
            <g id="Grupo_1120356" data-name="Grupo 1120356" transform="translate(11.435 15.248)">
              <g id="Grupo_1120355" data-name="Grupo 1120355">
                <g id="Grupo_1120354" data-name="Grupo 1120354">
                  <g id="Grupo_1120353" data-name="Grupo 1120353">
                    <g id="Grupo_1120352" data-name="Grupo 1120352">
                      <g id="Grupo_1120351" data-name="Grupo 1120351">
                        <ellipse id="Elipse_11919" data-name="Elipse 11919" cx="2.185" cy="4.371" rx="2.185" ry="4.371" transform="translate(0 1.35) rotate(-18)" fill="#ffefd2"/>
                      </g>
                    </g>
                  </g>
                </g>
              </g>
            </g>
            <g id="Grupo_1120362" data-name="Grupo 1120362" transform="translate(6.48 15.25)">
              <g id="Grupo_1120361" data-name="Grupo 1120361">
                <g id="Grupo_1120360" data-name="Grupo 1120360">
                  <g id="Grupo_1120359" data-name="Grupo 1120359">
                    <g id="Grupo_1120358" data-name="Grupo 1120358">
                      <g id="Grupo_1120357" data-name="Grupo 1120357">
                        <ellipse id="Elipse_11920" data-name="Elipse 11920" cx="4.371" cy="2.185" rx="4.371" ry="2.185" transform="translate(0 8.314) rotate(-72)" fill="#ffefd2"/>
                      </g>
                    </g>
                  </g>
                </g>
              </g>
            </g>
            <g id="Grupo_1120368" data-name="Grupo 1120368" transform="translate(1.086 12.825)">
              <g id="Grupo_1120367" data-name="Grupo 1120367">
                <g id="Grupo_1120366" data-name="Grupo 1120366">
                  <g id="Grupo_1120365" data-name="Grupo 1120365">
                    <g id="Grupo_1120364" data-name="Grupo 1120364">
                      <g id="Grupo_1120363" data-name="Grupo 1120363">
                        <ellipse id="Elipse_11921" data-name="Elipse 11921" cx="4.371" cy="2.185" rx="4.371" ry="2.185" transform="translate(0 5.14) rotate(-36.011)" fill="#ffefd2"/>
                      </g>
                    </g>
                  </g>
                </g>
              </g>
            </g>
          </g>
          <g id="Grupo_1120372" data-name="Grupo 1120372" transform="translate(8.373 8.441)">
            <g id="Grupo_1120371" data-name="Grupo 1120371">
              <g id="Grupo_1120370" data-name="Grupo 1120370">
                <circle id="Elipse_11922" data-name="Elipse 11922" cx="4.015" cy="4.015" r="4.015" fill="#ffd15b"/>
                <path id="Trazado_918571" data-name="Trazado 918571" d="M248.1,136.866a4.016,4.016,0,0,1-5.689,3.65,4.016,4.016,0,0,0,0-7.3,4.016,4.016,0,0,1,5.689,3.65Z" transform="translate(-240.069 -132.851)" fill="#feb237"/>
              </g>
            </g>
          </g>
        </g>
      </g>
      <g id="Grupo_1120375" data-name="Grupo 1120375" transform="translate(25.208 -0.001)">
        <path id="Trazado_918572" data-name="Trazado 918572" d="M109.583,425.975a.926.926,0,0,0-1.359,1.259l.393.424a4.152,4.152,0,0,1,1.11,2.83V435.4a.926.926,0,0,0,1.852,0v-4.915a6,6,0,0,0-1.6-4.089Z" transform="translate(-97.757 -373.115)"/>
        <path id="Trazado_918573" data-name="Trazado 918573" d="M81.961,34.492a3.406,3.406,0,0,0-5.914-.772,3.407,3.407,0,0,0-6,.3l-.222.47a3.389,3.389,0,0,0-.758-.61A20.786,20.786,0,0,0,70.388,32.2a20.34,20.34,0,0,0,2.181-19.618.926.926,0,0,0-1.711.709,18.6,18.6,0,0,1-8.9,23.773L60.171,35.28a.309.309,0,0,1-.051-.369l.807-1.437a2.161,2.161,0,0,0-1.007-3.033l-.36-.16a7.375,7.375,0,0,0-.106-1.945,7.2,7.2,0,0,0,2.174.776,4.6,4.6,0,0,0,.754.065,2.458,2.458,0,0,0,2.091-.932,2.761,2.761,0,0,0-.055-2.973,7.2,7.2,0,0,0-1.41-1.828c2.356-.321,4.008-1.514,4.008-3.025s-1.652-2.7-4.008-3.025a7.2,7.2,0,0,0,1.41-1.828,2.761,2.761,0,0,0,.055-2.973c-.888-1.222-2.927-1.216-5.023-.09a7.2,7.2,0,0,0,.069-2.309c-.009-.063-.021-.124-.032-.184l4.831-4.831.1.068a18.511,18.511,0,0,1,4.605,4.662.926.926,0,1,0,1.528-1.048A20.432,20.432,0,1,0,38.334,33.886a3.394,3.394,0,0,0-.754.608l-.222-.471a3.407,3.407,0,0,0-6-.3,3.406,3.406,0,0,0-5.8,3.513l5.807,11.894a5.337,5.337,0,0,0,.882,1.287l.694.75a.926.926,0,1,0,1.358-1.26l-.694-.748a3.467,3.467,0,0,1-.575-.841L27.217,36.42a1.557,1.557,0,0,1,.838-2.134,1.559,1.559,0,0,1,1.877.624l5.991,9.545a3.914,3.914,0,0,0,1.549,3.34l5.6,4.244a.926.926,0,1,0,1.119-1.476l-5.6-4.244a2.067,2.067,0,0,1-.453-2.827l0-.006a2.069,2.069,0,0,1,2.8-.575L47.4,46.945a2.717,2.717,0,0,1,1.285,2.319v4.289a6.712,6.712,0,0,1-.641,2.851l-.973,2.054a6.054,6.054,0,0,0-.58,2.576v1.255a.926.926,0,1,0,1.852,0V61.033a4.2,4.2,0,0,1,.4-1.783l.973-2.052a8.577,8.577,0,0,0,.82-3.645V49.264A4.555,4.555,0,0,0,48.413,45.4l.113-5.2a20.214,20.214,0,0,0,5.133.661,20.693,20.693,0,0,0,3.509-.3q.868-.149,1.71-.37l.113,5.215a4.555,4.555,0,0,0-2.126,3.869v4.289a8.577,8.577,0,0,0,.82,3.645l.973,2.052a4.2,4.2,0,0,1,.4,1.783v1.255a.926.926,0,1,0,1.852,0V61.033a6.054,6.054,0,0,0-.58-2.576L59.359,56.4a6.712,6.712,0,0,1-.641-2.851V49.264A2.716,2.716,0,0,1,60,46.945l6.462-4.032a2.068,2.068,0,0,1,2.8.574l0,.005a2.067,2.067,0,0,1-.453,2.827l-5.6,4.244a.926.926,0,1,0,1.119,1.476l5.6-4.244a3.914,3.914,0,0,0,1.549-3.341L76.2,36.931l.014-.023,1.254-2a1.559,1.559,0,0,1,1.877-.624,1.556,1.556,0,0,1,.838,2.133l-5.809,11.9a3.467,3.467,0,0,1-.575.841l-3.825,4.128a6,6,0,0,0-1.6,4.09v4.915a.926.926,0,0,0,1.852,0V57.373a4.153,4.153,0,0,1,1.11-2.83l3.825-4.129a5.338,5.338,0,0,0,.882-1.287l5.807-11.894a3.412,3.412,0,0,0,.11-2.741ZM42.241,20.419c0-.432,1.342-1.258,3.445-1.258a6.916,6.916,0,0,1,1.989.273c.064.022.129.042.193.062a3.3,3.3,0,0,1,.916.465c-.014.151-.022.3-.022.458s.008.307.022.458a5.444,5.444,0,0,1-3.1.8c-2.1,0-3.445-.826-3.445-1.259Zm2.189-6.737a.786.786,0,0,1,.6-.168,2.739,2.739,0,0,1,.445.04,6.238,6.238,0,0,1,2.484,1.135,6.851,6.851,0,0,1,1.488,1.444c.025.035.05.07.076.1a3.3,3.3,0,0,1,.472.922,4.962,4.962,0,0,0-.538.739,3.275,3.275,0,0,1-1.008-.16c-.054-.019-.11-.036-.166-.054a6.889,6.889,0,0,1-1.8-.96,6.238,6.238,0,0,1-1.847-2.012c-.272-.524-.294-.9-.2-1.031Zm10.553-1.276a6.237,6.237,0,0,1,1.343-2.378,1.469,1.469,0,0,1,.851-.519.221.221,0,0,1,.068.01c.152.049.356.368.444.952a6.237,6.237,0,0,1-.312,2.713,6.847,6.847,0,0,1-.917,1.866c-.024.033-.049.066-.072.1a3.305,3.305,0,0,1-.73.734,4.9,4.9,0,0,0-.871-.283,5.43,5.43,0,0,1,.2-3.194Zm-4.369,8.013A3.089,3.089,0,1,1,53.7,23.508,3.093,3.093,0,0,1,50.613,20.419Zm2.163-5.836a3.314,3.314,0,0,1-.158,1.016,4.9,4.9,0,0,0-.872.283,3.3,3.3,0,0,1-.729-.732c-.025-.035-.051-.07-.077-.105a6.854,6.854,0,0,1-.913-1.861,6.239,6.239,0,0,1-.312-2.713c.088-.584.292-.9.444-.952a.22.22,0,0,1,.068-.01,1.469,1.469,0,0,1,.851.519,6.238,6.238,0,0,1,1.343,2.378,6.946,6.946,0,0,1,.354,1.944c0,.079,0,.156,0,.234Zm-6.3,9.53a6.949,6.949,0,0,1,1.735-.936c.09-.027.177-.057.264-.087a3.355,3.355,0,0,1,.926-.152l.052,0a4.975,4.975,0,0,0,.538.738,3.288,3.288,0,0,1-.468.917c-.03.039-.058.08-.087.12a6.864,6.864,0,0,1-1.481,1.434c-1.7,1.236-3.273,1.356-3.527,1.007s.346-1.807,2.047-3.043Zm3.551,3.541a6.857,6.857,0,0,1,.908-1.854c.028-.038.056-.076.082-.113a3.3,3.3,0,0,1,.728-.731,4.9,4.9,0,0,0,.872.283,3.26,3.26,0,0,1,.158.986c0,.094,0,.189,0,.285a6.977,6.977,0,0,1-.355,1.922c-.65,2-1.851,3.021-2.261,2.888s-.782-1.665-.132-3.665Zm4.759-2.416a4.912,4.912,0,0,0,.871-.283,3.307,3.307,0,0,1,.729.733c.024.034.049.068.074.1a6.851,6.851,0,0,1,.915,1.864c.65,2,.279,3.532-.132,3.665-.153.049-.5-.089-.919-.509a6.237,6.237,0,0,1-1.343-2.378A5.43,5.43,0,0,1,54.787,25.239Zm8.188,1.917c-.094.129-.46.225-1.042.128a6.237,6.237,0,0,1-2.484-1.135A6.846,6.846,0,0,1,57.96,24.7c-.025-.035-.05-.07-.075-.1a3.3,3.3,0,0,1-.472-.923,4.973,4.973,0,0,0,.539-.739,3.256,3.256,0,0,1,.994.156c.071.025.144.048.218.071a6.931,6.931,0,0,1,1.766.947,6.238,6.238,0,0,1,1.847,2.012c.272.524.294.9.2,1.031Zm2.189-6.737c0,.432-1.342,1.258-3.445,1.258a6.9,6.9,0,0,1-2-.277l-.183-.059a3.3,3.3,0,0,1-.915-.464c.014-.151.022-.3.022-.458s-.008-.307-.022-.458a3.3,3.3,0,0,1,.92-.466c.062-.019.123-.039.185-.06a6.912,6.912,0,0,1,1.992-.275c2.1,0,3.445.827,3.445,1.259Zm-2.189-6.737c.094.13.071.507-.2,1.031a6.238,6.238,0,0,1-1.847,2.012,6.852,6.852,0,0,1-1.836.97l-.119.038a3.308,3.308,0,0,1-1.022.165,4.964,4.964,0,0,0-.538-.739,3.3,3.3,0,0,1,.472-.922c.025-.034.05-.069.075-.1a6.856,6.856,0,0,1,1.489-1.445C61.15,13.453,62.721,13.333,62.975,13.682Zm-.269-9.51L58.629,8.249a2.1,2.1,0,0,0-.813-.492,2.761,2.761,0,0,0-2.811.971,7.2,7.2,0,0,0-1.3,1.908,7.2,7.2,0,0,0-1.3-1.908,2.76,2.76,0,0,0-2.811-.971,2.761,2.761,0,0,0-1.7,2.438,7.207,7.207,0,0,0,.069,2.311,7.2,7.2,0,0,0-2.178-.779c-.121-.02-.24-.034-.356-.045v-1.2a2.147,2.147,0,0,0-.633-1.528L43.022,7.187a.311.311,0,0,1-.09-.218V5.287A18.624,18.624,0,0,1,62.706,4.173ZM38.53,9.7a18.58,18.58,0,0,1,2.549-2.912v.177A2.147,2.147,0,0,0,41.712,8.5l1.765,1.765a.307.307,0,0,1,.09.218v1.537a2.09,2.09,0,0,0-.637.576,2.761,2.761,0,0,0,.055,2.973,7.2,7.2,0,0,0,1.41,1.828c-2.356.321-4.008,1.514-4.008,3.025a2.134,2.134,0,0,0,.393,1.219l-1.308,1.308a.307.307,0,0,1-.218.09H35.313A18.445,18.445,0,0,1,38.53,9.7ZM36.738,42.27,32.82,36.028c0-.014-.007-.028-.012-.041a1.555,1.555,0,0,1,1.086-2.018,1.558,1.558,0,0,1,1.789.844l2.9,6.14A3.907,3.907,0,0,0,36.738,42.27Zm3.823-1.459-2.015-4.269a1.549,1.549,0,0,1,1.16-1.239,20.717,20.717,0,0,0,2.017,1.662l1.323,5.081-1.128-.7A3.926,3.926,0,0,0,40.562,40.811Zm6.023,3.442-1.253-.782-1.319-5.066a20.383,20.383,0,0,0,2.673,1.207Zm10.269-5.528A18.577,18.577,0,0,1,35.672,24.889h3.583a2.147,2.147,0,0,0,1.528-.633l1.444-1.444a7.09,7.09,0,0,0,2.167.631c-1.716,1.644-2.35,3.58-1.463,4.8a2.484,2.484,0,0,0,2.107.926,6.337,6.337,0,0,0,2.912-.834c-.422,2.339.2,4.278,1.638,4.745a2.037,2.037,0,0,0,.633.1c1.266,0,2.6-1.145,3.482-2.977a7.2,7.2,0,0,0,1.3,1.906,3.121,3.121,0,0,0,2.165,1.074,2.08,2.08,0,0,0,.646-.1,2.216,2.216,0,0,0,1.214-1.01l.139.062a.309.309,0,0,1,.144.433L58.506,34a2.168,2.168,0,0,0,.356,2.587l1.263,1.263A18.783,18.783,0,0,1,56.854,38.725Zm6.535-.31-1.316,5.056-1.253.782-.1-4.644a20.255,20.255,0,0,0,2.671-1.194Zm2.1,2.926-1.128.7,1.318-5.065A20.258,20.258,0,0,0,67.7,35.3a1.546,1.546,0,0,1,1.156,1.238l-2.015,4.27a3.924,3.924,0,0,0-1.357.53Zm3.338-.388,2.9-6.14a1.557,1.557,0,0,1,1.789-.844A1.555,1.555,0,0,1,74.6,35.987l-.017.049L70.666,42.27a3.906,3.906,0,0,0-1.842-1.316Z" transform="translate(-25.208 0.001)"/>
      </g>
    </g>
  </g>
</svg>
