<svg xmlns="http://www.w3.org/2000/svg" xmlns:xlink="http://www.w3.org/1999/xlink" width="118" height="118" viewBox="0 0 118 118">
  <defs>
    <filter id="Trazado_874925" x="0" y="0" width="118" height="118" filterUnits="userSpaceOnUse">
      <feOffset dy="3" input="SourceAlpha"/>
      <feGaussianBlur stdDeviation="3" result="blur"/>
      <feFlood flood-opacity="0.161"/>
      <feComposite operator="in" in2="blur"/>
      <feComposite in="SourceGraphic"/>
    </filter>
  </defs>
  <g id="Grupo_1119979" data-name="Grupo 1119979" transform="translate(6941 3520.813)">
    <g id="Grupo_1119693" data-name="Grupo 1119693" transform="translate(-7735.834 -11583.093)">
      <g id="Grupo_1107913" data-name="Grupo 1107913" transform="translate(803.834 8068.28)">
        <g transform="matrix(1, 0, 0, 1, -9, -6)" filter="url(#Trazado_874925)">
          <g id="Trazado_874925-2" data-name="Trazado 874925" transform="translate(9 6)" fill="#bb965f">
            <path d="M 49.99972534179688 98.4998779296875 C 43.45164108276367 98.4998779296875 37.10022354125977 97.21776580810547 31.12189674377441 94.68914794921875 C 25.34676742553711 92.24647521972656 20.15985298156738 88.74925994873047 15.70523929595947 84.29464721679688 C 11.25062561035156 79.84004974365234 7.753411293029785 74.65313720703125 5.310725212097168 68.87800598144531 C 2.782111167907715 62.89969253540039 1.499996781349182 56.54829406738281 1.499996781349182 50.00022125244141 C 1.499996781349182 43.45157623291016 2.782111167907715 37.10017776489258 5.310725212097168 31.12186431884766 C 7.753411293029785 25.34673500061035 11.25062561035156 20.15983581542969 15.70523929595947 15.70522117614746 C 20.15985298156738 11.25062084197998 25.34676742553711 7.753406524658203 31.12189674377441 5.31073522567749 C 37.10022354125977 2.782120943069458 43.45164108276367 1.500006556510925 49.99972534179688 1.500006556510925 C 56.54780960083008 1.500006556510925 62.89922714233398 2.782120943069458 68.87755584716797 5.31073522567749 C 74.65267944335938 7.753406524658203 79.839599609375 11.25062084197998 84.29421234130859 15.70522117614746 C 88.74882507324219 20.15983581542969 92.24604034423828 25.34673500061035 94.68872833251953 31.12186431884766 C 97.21733856201172 37.10017776489258 98.49945068359375 43.45157623291016 98.49945068359375 49.99964904785156 C 98.49945068359375 56.54829406738281 97.21733856201172 62.89969253540039 94.68872833251953 68.87800598144531 C 92.24604034423828 74.65313720703125 88.74882507324219 79.84004974365234 84.29421234130859 84.29464721679688 C 79.839599609375 88.74925994873047 74.65267944335938 92.24647521972656 68.87755584716797 94.68914794921875 C 62.89922714233398 97.21776580810547 56.54780960083008 98.4998779296875 49.99972534179688 98.4998779296875 Z" stroke="none"/>
            <path d="M 49.99972534179688 3 C 43.65348052978516 3 37.49866485595703 4.242240905761719 31.70623016357422 6.692230224609375 C 26.10989379882812 9.059272766113281 21.08323669433594 12.44853210449219 16.76589202880859 16.76587677001953 C 12.44855499267578 21.08321380615234 9.059295654296875 26.10985565185547 6.692230224609375 31.70618438720703 C 4.24224853515625 37.49859619140625 3 43.65341186523438 3 50.00022888183594 C 3 56.34645843505859 4.24224853515625 62.50127410888672 6.692230224609375 68.29368591308594 C 9.059295654296875 73.8900146484375 12.44855499267578 78.91665649414062 16.76589202880859 83.23399353027344 C 21.08323669433594 87.55132293701172 26.10989379882812 90.94059753417969 31.70623016357422 93.30764007568359 C 37.49866485595703 95.75762939453125 43.65348052978516 96.99987030029297 49.99972534179688 96.99987030029297 C 56.34597015380859 96.99987030029297 62.50078582763672 95.75762939453125 68.293212890625 93.30764007568359 C 73.88955688476562 90.94059753417969 78.91621398925781 87.55132293701172 83.23355865478516 83.23399353027344 C 87.55089569091797 78.91665649414062 90.94015502929688 73.8900146484375 93.30722045898438 68.29368591308594 C 95.7572021484375 62.50127410888672 96.99945068359375 56.34645843505859 96.99945068359375 49.99964141845703 C 96.99945068359375 43.65341186523438 95.7572021484375 37.49859619140625 93.30722045898438 31.70618438720703 C 90.94015502929688 26.10985565185547 87.55089569091797 21.08321380615234 83.23355865478516 16.76587677001953 C 78.91621398925781 12.44853210449219 73.88955688476562 9.059272766113281 68.293212890625 6.692230224609375 C 62.50078582763672 4.242240905761719 56.34597015380859 3 49.99972534179688 3 M 49.99972534179688 0 C 77.61381530761719 0 99.99945068359375 22.38559722900391 99.99945068359375 49.99964141845703 L 99.99945068359375 50.00022888183594 C 99.99945068359375 77.6142578125 77.61381530761719 99.99987030029297 49.99972534179688 99.99987030029297 C 22.38563537597656 99.99987030029297 0 77.6142578125 0 50.00022888183594 L 0 49.99964141845703 C 0 22.38559722900391 22.38563537597656 0 49.99972534179688 0 Z" stroke="none" fill="#fff"/>
          </g>
        </g>
        <g id="Trazado_874923" data-name="Trazado 874923" transform="translate(0 0)" fill="none">
          <path d="M50,0a50,50,0,0,1,50,50h0A50,50,0,0,1,0,50H0A50,50,0,0,1,50,0Z" stroke="none"/>
          <path d="M 49.99972534179688 3 C 43.65348052978516 3 37.49866485595703 4.242240905761719 31.70623016357422 6.692230224609375 C 26.10989379882812 9.059272766113281 21.08323669433594 12.44853210449219 16.76589202880859 16.76587677001953 C 12.44855499267578 21.08321380615234 9.059295654296875 26.10985565185547 6.692230224609375 31.70618438720703 C 4.24224853515625 37.49859619140625 3 43.65341186523438 3 50.00022888183594 C 3 56.34645843505859 4.24224853515625 62.50127410888672 6.692230224609375 68.29368591308594 C 9.059295654296875 73.8900146484375 12.44855499267578 78.91665649414062 16.76589202880859 83.23399353027344 C 21.08323669433594 87.55132293701172 26.10989379882812 90.94059753417969 31.70623016357422 93.30764007568359 C 37.49866485595703 95.75762939453125 43.65348052978516 96.99987030029297 49.99972534179688 96.99987030029297 C 56.34597015380859 96.99987030029297 62.50078582763672 95.75762939453125 68.293212890625 93.30764007568359 C 73.88955688476562 90.94059753417969 78.91621398925781 87.55132293701172 83.23355865478516 83.23399353027344 C 87.55089569091797 78.91665649414062 90.94015502929688 73.8900146484375 93.30722045898438 68.29368591308594 C 95.7572021484375 62.50127410888672 96.99945068359375 56.34645843505859 96.99945068359375 49.99964141845703 C 96.99945068359375 43.65341186523438 95.7572021484375 37.49859619140625 93.30722045898438 31.70618438720703 C 90.94015502929688 26.10985565185547 87.55089569091797 21.08321380615234 83.23355865478516 16.76587677001953 C 78.91621398925781 12.44853210449219 73.88955688476562 9.059272766113281 68.293212890625 6.692230224609375 C 62.50078582763672 4.242240905761719 56.34597015380859 3 49.99972534179688 3 M 49.99972534179688 0 C 77.61381530761719 0 99.99945068359375 22.38559722900391 99.99945068359375 49.99964141845703 L 99.99945068359375 50.00022888183594 C 99.99945068359375 77.6142578125 77.61381530761719 99.99987030029297 49.99972534179688 99.99987030029297 C 22.38563537597656 99.99987030029297 0 77.6142578125 0 50.00022888183594 L 0 49.99964141845703 C 0 22.38559722900391 22.38563537597656 0 49.99972534179688 0 Z" stroke="none" fill="#fff"/>
        </g>
      </g>
    </g>
    <g id="Grupo_1119978" data-name="Grupo 1119978" transform="translate(-6909.999 -3515.892)">
      <g id="Grupo_1119976" data-name="Grupo 1119976" transform="translate(0.835 34.807)">
        <g id="Grupo_1119975" data-name="Grupo 1119975">
          <path id="Trazado_917504" data-name="Trazado 917504" d="M342.435,220.533a4.315,4.315,0,0,0-1.2,3.816.543.543,0,0,0,.438.438,4.32,4.32,0,0,0,5.014-5.014.543.543,0,0,0-.437-.437A4.315,4.315,0,0,0,342.435,220.533Z" transform="translate(-304.024 -207.085)" fill="#9be69d"/>
          <path id="Trazado_917505" data-name="Trazado 917505" d="M295.318,220.533a4.315,4.315,0,0,1,1.2,3.816.544.544,0,0,1-.437.438,4.32,4.32,0,0,1-5.014-5.014.543.543,0,0,1,.438-.437A4.315,4.315,0,0,1,295.318,220.533Z" transform="translate(-259.437 -207.085)" fill="#bbf49b"/>
          <path id="Trazado_917506" data-name="Trazado 917506" d="M172.094,220.533a4.315,4.315,0,0,0-1.2,3.816.543.543,0,0,0,.438.438,4.32,4.32,0,0,0,5.014-5.014.543.543,0,0,0-.437-.437A4.315,4.315,0,0,0,172.094,220.533Z" transform="translate(-152.647 -207.085)" fill="#9be69d"/>
          <path id="Trazado_917507" data-name="Trazado 917507" d="M124.977,220.533a4.315,4.315,0,0,1,1.2,3.816.543.543,0,0,1-.437.438,4.32,4.32,0,0,1-5.014-5.014.543.543,0,0,1,.438-.437A4.315,4.315,0,0,1,124.977,220.533Z" transform="translate(-108.059 -207.085)" fill="#bbf49b"/>
          <path id="Trazado_917508" data-name="Trazado 917508" d="M172.763,331.176H138.373a2.783,2.783,0,0,0-2.783,2.783v12.26a1.113,1.113,0,0,0,1.113,1.113h37.729a1.113,1.113,0,0,0,1.113-1.113v-12.26A2.783,2.783,0,0,0,172.763,331.176Z" transform="translate(-121.33 -306.535)" fill="#9be69d"/>
          <path id="Trazado_917509" data-name="Trazado 917509" d="M452.84,331.176H449.5a2.783,2.783,0,0,1,2.783,2.783v12.26a1.113,1.113,0,0,1-1.113,1.113h3.34c.615,0,1.113-6.8,1.113-7.41v-5.963A2.783,2.783,0,0,0,452.84,331.176Z" transform="translate(-400.294 -306.535)" fill="#6fd7a3"/>
          <path id="Trazado_917510" data-name="Trazado 917510" d="M86.925,282.267a4.315,4.315,0,0,0-1.2,3.816.543.543,0,0,0,.438.438,4.32,4.32,0,0,0,5.014-5.014.543.543,0,0,0-.437-.437A4.315,4.315,0,0,0,86.925,282.267Z" transform="translate(-76.959 -261.946)" fill="#9be69d"/>
          <path id="Trazado_917511" data-name="Trazado 917511" d="M39.807,282.267a4.315,4.315,0,0,1,1.2,3.816.543.543,0,0,1-.438.438,4.32,4.32,0,0,1-5.014-5.014.543.543,0,0,1,.438-.437A4.315,4.315,0,0,1,39.807,282.267Z" transform="translate(-32.37 -261.946)" fill="#bbf49b"/>
          <path id="Trazado_917512" data-name="Trazado 917512" d="M257.265,282.267a4.315,4.315,0,0,0-1.2,3.816.543.543,0,0,0,.438.438,4.32,4.32,0,0,0,5.014-5.014.543.543,0,0,0-.437-.437A4.315,4.315,0,0,0,257.265,282.267Z" transform="translate(-228.336 -261.946)" fill="#9be69d"/>
          <path id="Trazado_917513" data-name="Trazado 917513" d="M210.148,282.267a4.315,4.315,0,0,1,1.2,3.816.543.543,0,0,1-.437.438,4.32,4.32,0,0,1-5.014-5.014.543.543,0,0,1,.438-.437A4.315,4.315,0,0,1,210.148,282.267Z" transform="translate(-183.748 -261.946)" fill="#bbf49b"/>
          <path id="Trazado_917514" data-name="Trazado 917514" d="M427.605,282.267a4.315,4.315,0,0,0-1.2,3.816.543.543,0,0,0,.438.438,4.32,4.32,0,0,0,5.014-5.014.544.544,0,0,0-.437-.437A4.315,4.315,0,0,0,427.605,282.267Z" transform="translate(-379.713 -261.946)" fill="#9be69d"/>
          <path id="Trazado_917515" data-name="Trazado 917515" d="M380.488,282.267a4.315,4.315,0,0,1,1.2,3.816.543.543,0,0,1-.438.438,4.32,4.32,0,0,1-5.014-5.014.543.543,0,0,1,.438-.437A4.315,4.315,0,0,1,380.488,282.267Z" transform="translate(-335.126 -261.946)" fill="#bbf49b"/>
          <path id="Trazado_917516" data-name="Trazado 917516" d="M67.264,114.493l-.236-2.127a1.045,1.045,0,0,0-1.81,0l-.216.15-1.141,1.976A2.616,2.616,0,0,0,65,118.163a2.586,2.586,0,0,0,1.122.136C68.134,118.3,68.27,116.235,67.264,114.493Z" transform="translate(-57.272 -111.62)" fill="#c3ddff"/>
          <path id="Trazado_917517" data-name="Trazado 917517" d="M80.319,112.7l-1.357-2.351a1.045,1.045,0,0,0-1.81,0l-.216.374,1.141,1.976a2.615,2.615,0,0,1-1.141,3.668,2.615,2.615,0,0,0,3.383-3.668Z" transform="translate(-69.206 -109.83)" fill="#a4ccff"/>
          <path id="Trazado_917518" data-name="Trazado 917518" d="M236.258,114.493l-.236-2.127a1.045,1.045,0,0,0-1.81,0l-.216.15-1.141,1.976A2.616,2.616,0,0,0,234,118.163a2.586,2.586,0,0,0,1.122.136C237.128,118.3,237.264,116.235,236.258,114.493Z" transform="translate(-207.453 -111.62)" fill="#c3ddff"/>
          <path id="Trazado_917519" data-name="Trazado 917519" d="M249.313,112.7l-1.357-2.351a1.045,1.045,0,0,0-1.81,0l-.216.374,1.141,1.976a2.615,2.615,0,0,1-1.141,3.668,2.615,2.615,0,0,0,3.383-3.668Z" transform="translate(-219.387 -109.83)" fill="#a4ccff"/>
          <path id="Trazado_917520" data-name="Trazado 917520" d="M405.253,114.493l-.236-2.127a1.045,1.045,0,0,0-1.81,0l-.216.15-1.141,1.976a2.616,2.616,0,0,0,1.141,3.669,2.586,2.586,0,0,0,1.122.136C406.123,118.3,406.259,116.235,405.253,114.493Z" transform="translate(-357.635 -111.62)" fill="#c3ddff"/>
          <path id="Trazado_917521" data-name="Trazado 917521" d="M418.308,112.7l-1.357-2.351a1.045,1.045,0,0,0-1.81,0l-.216.374,1.141,1.976a2.615,2.615,0,0,1-1.141,3.668,2.615,2.615,0,0,0,3.383-3.668Z" transform="translate(-369.568 -109.83)" fill="#a4ccff"/>
          <path id="Trazado_917522" data-name="Trazado 917522" d="M58.932,384.738H10.283A2.783,2.783,0,0,0,7.5,387.521v6.693a1.113,1.113,0,0,0,1.113,1.113H60.6a1.113,1.113,0,0,0,1.113-1.113v-6.693A2.783,2.783,0,0,0,58.932,384.738Z" transform="translate(-7.5 -354.134)" fill="#bbf49b"/>
          <path id="Trazado_917523" data-name="Trazado 917523" d="M452.84,384.738H449.5a2.783,2.783,0,0,1,2.783,2.783v6.693a1.113,1.113,0,0,1-1.113,1.113h3.34a1.113,1.113,0,0,0,1.113-1.113v-6.693A2.783,2.783,0,0,0,452.84,384.738Z" transform="translate(-400.294 -354.134)" fill="#9be69d"/>
        </g>
      </g>
      <g id="Grupo_1119977" data-name="Grupo 1119977" transform="translate(0 25.409)">
        <path id="Trazado_917524" data-name="Trazado 917524" d="M60.123,426.036a.835.835,0,0,0-.835-.835H47.69a.835.835,0,0,0,0,1.67h11.6A.835.835,0,0,0,60.123,426.036Z" transform="translate(-41.639 -380.694)"/>
        <path id="Trazado_917525" data-name="Trazado 917525" d="M294.014,426.871a.835.835,0,0,0,0-1.67h-11.6a.835.835,0,0,0,0,1.67Z" transform="translate(-250.234 -380.694)"/>
        <path id="Trazado_917526" data-name="Trazado 917526" d="M440.55,426.036a.835.835,0,1,0-.835.835A.835.835,0,0,0,440.55,426.036Z" transform="translate(-390.022 -380.694)"/>
        <path id="Trazado_917527" data-name="Trazado 917527" d="M217.977,426.036a.835.835,0,1,0-.835.835A.835.835,0,0,0,217.977,426.036Z" transform="translate(-192.227 -380.694)"/>
        <path id="Trazado_917528" data-name="Trazado 917528" d="M57,227.077a3.622,3.622,0,0,0-3.618-3.618h-.856a5.162,5.162,0,0,0,1.278-4.392,1.38,1.38,0,0,0-1.113-1.113,5.135,5.135,0,0,0-5.227,2.266,5.135,5.135,0,0,0-5.227-2.266,1.38,1.38,0,0,0-1.113,1.113,5.162,5.162,0,0,0,1.278,4.392H38.816v-5.221c.143.012.286.018.428.018a5.154,5.154,0,0,0,5.077-6.062,1.38,1.38,0,0,0-1.113-1.113,5.135,5.135,0,0,0-5.227,2.266,5.135,5.135,0,0,0-5.227-2.266,1.38,1.38,0,0,0-1.113,1.113,5.154,5.154,0,0,0,5.077,6.062c.142,0,.285-.006.428-.018v5.221H33.561a5.162,5.162,0,0,0,1.278-4.392,1.38,1.38,0,0,0-1.113-1.113,5.135,5.135,0,0,0-5.227,2.266,5.135,5.135,0,0,0-5.227-2.266,1.38,1.38,0,0,0-1.113,1.113,5.162,5.162,0,0,0,1.278,4.392H19.853v-5.221c.143.012.286.018.428.018a5.154,5.154,0,0,0,5.077-6.062,1.38,1.38,0,0,0-1.113-1.113,5.135,5.135,0,0,0-5.227,2.266,5.135,5.135,0,0,0-5.227-2.266,1.381,1.381,0,0,0-1.113,1.113,5.154,5.154,0,0,0,5.077,6.062c.142,0,.285-.006.428-.018v5.221h-.305a3.622,3.622,0,0,0-3.618,3.618v2.345H10.371V225.11c.143.012.286.018.428.018a5.154,5.154,0,0,0,5.077-6.062,1.38,1.38,0,0,0-1.113-1.113,5.135,5.135,0,0,0-5.227,2.266,5.135,5.135,0,0,0-5.227-2.266A1.38,1.38,0,0,0,3.2,219.067a5.154,5.154,0,0,0,5.077,6.062c.142,0,.285-.006.428-.018v4.311H3.618A3.622,3.622,0,0,0,0,233.04v6.693a1.95,1.95,0,0,0,1.948,1.948h8.082a.835.835,0,0,0,0-1.67H1.948a.279.279,0,0,1-.278-.278V233.04a1.95,1.95,0,0,1,1.948-1.948H36.161a.835.835,0,1,0,0-1.67H29.334v-4.293H46.627v4.293H39.8a.835.835,0,0,0,0,1.67H53.38a1.95,1.95,0,0,1,1.948,1.948v6.693a.279.279,0,0,1-.278.278h-4.88a.835.835,0,1,0,0,1.67h4.88A1.95,1.95,0,0,0,57,239.733ZM39.836,213.691a3.492,3.492,0,0,1,2.872-1,3.484,3.484,0,0,1-3.868,3.868,3.491,3.491,0,0,1,1-2.872Zm-2.714,2.872a3.484,3.484,0,0,1-3.868-3.868,3.484,3.484,0,0,1,3.868,3.868Zm-16.249-2.872a3.492,3.492,0,0,1,2.872-1,3.484,3.484,0,0,1-3.868,3.868A3.49,3.49,0,0,1,20.873,213.691Zm-2.714,2.872a3.484,3.484,0,0,1-3.868-3.868,3.484,3.484,0,0,1,3.868,3.868Zm-6.768,4a3.492,3.492,0,0,1,2.872-1,3.484,3.484,0,0,1-3.868,3.868,3.491,3.491,0,0,1,1-2.872Zm-2.714,2.872a3.484,3.484,0,0,1-3.868-3.868,3.484,3.484,0,0,1,3.868,3.868Zm40.64-2.872a3.491,3.491,0,0,1,2.872-1,3.484,3.484,0,0,1-3.868,3.868,3.491,3.491,0,0,1,1-2.872Zm-6.582-1a3.484,3.484,0,0,1,3.868,3.868,3.484,3.484,0,0,1-3.868-3.868Zm-12.381,1a3.492,3.492,0,0,1,2.872-1,3.484,3.484,0,0,1-3.868,3.868,3.491,3.491,0,0,1,1-2.872Zm-6.582-1a3.484,3.484,0,0,1,3.868,3.868,3.484,3.484,0,0,1-3.868-3.868Zm3.892,9.855H15.929v-2.345a1.95,1.95,0,0,1,1.948-1.948h9.787Zm25.716,0H48.3v-4.293H53.38a1.95,1.95,0,0,1,1.948,1.948v2.917A3.6,3.6,0,0,0,53.38,229.422Z" transform="translate(0 -190.34)"/>
        <path id="Trazado_917529" data-name="Trazado 917529" d="M.835,27.079H8.851v2.393a.835.835,0,0,0,1.67,0V27.079H27.664v2.393a.835.835,0,0,0,1.67,0V27.079H46.478v2.393a.835.835,0,0,0,1.67,0V27.079h8.016a.835.835,0,1,0,0-1.67H.835a.835.835,0,0,0,0,1.67Z" transform="translate(0 -25.409)"/>
        <path id="Trazado_917530" data-name="Trazado 917530" d="M59.445,101.559a1.861,1.861,0,0,0-1.628.94L56.46,104.85a3.447,3.447,0,1,0,5.97,0L61.073,102.5A1.861,1.861,0,0,0,59.445,101.559Zm1.539,5.9a1.777,1.777,0,0,1-3.078-1.777l1.357-2.351a.21.21,0,0,1,.364,0l1.357,2.351a1.759,1.759,0,0,1,0,1.777Z" transform="translate(-49.759 -93.082)"/>
        <path id="Trazado_917531" data-name="Trazado 917531" d="M228.44,101.559a1.86,1.86,0,0,0-1.628.94l-1.357,2.351a3.447,3.447,0,1,0,5.97,0l-1.357-2.351A1.861,1.861,0,0,0,228.44,101.559Zm1.539,5.9a1.777,1.777,0,0,1-3.078-1.777l1.357-2.351a.21.21,0,0,1,.364,0l1.357,2.351A1.759,1.759,0,0,1,229.979,107.462Z" transform="translate(-199.941 -93.082)"/>
        <path id="Trazado_917532" data-name="Trazado 917532" d="M397.434,101.559a1.861,1.861,0,0,0-1.628.94l-1.357,2.351a3.447,3.447,0,1,0,5.97,0l-1.357-2.351A1.86,1.86,0,0,0,397.434,101.559Zm1.539,5.9a1.777,1.777,0,0,1-3.078-1.777l1.357-2.351a.21.21,0,0,1,.364,0l1.357,2.351A1.758,1.758,0,0,1,398.973,107.462Z" transform="translate(-350.121 -93.082)"/>
        <path id="Trazado_917533" data-name="Trazado 917533" d="M148.931,471.591H116.123a.835.835,0,0,0,0,1.67h32.808a.835.835,0,1,0,0-1.67Z" transform="translate(-102.454 -421.92)"/>
      </g>
    </g>
  </g>
</svg>
