<svg xmlns="http://www.w3.org/2000/svg" xmlns:xlink="http://www.w3.org/1999/xlink" width="118" height="118" viewBox="0 0 118 118">
  <defs>
    <filter id="Trazado_874925" x="0" y="0" width="118" height="118" filterUnits="userSpaceOnUse">
      <feOffset dy="3" input="SourceAlpha"/>
      <feGaussianBlur stdDeviation="3" result="blur"/>
      <feFlood flood-opacity="0.161"/>
      <feComposite operator="in" in2="blur"/>
      <feComposite in="SourceGraphic"/>
    </filter>
  </defs>
  <g id="Grupo_1120034" data-name="Grupo 1120034" transform="translate(5684 3520.813)">
    <g id="Grupo_1119697" data-name="Grupo 1119697" transform="translate(-6478.834 -11583.093)">
      <g id="Grupo_1107913" data-name="Grupo 1107913" transform="translate(803.834 8068.28)">
        <g transform="matrix(1, 0, 0, 1, -9, -6)" filter="url(#Trazado_874925)">
          <g id="Trazado_874925-2" data-name="Trazado 874925" transform="translate(9 6)" fill="#bb965f">
            <path d="M 49.99972534179688 98.4998779296875 C 43.45164108276367 98.4998779296875 37.10022354125977 97.21776580810547 31.12189674377441 94.68914794921875 C 25.34676742553711 92.24647521972656 20.15985298156738 88.74925994873047 15.70523929595947 84.29464721679688 C 11.25062561035156 79.84004974365234 7.753411293029785 74.65313720703125 5.310725212097168 68.87800598144531 C 2.782111167907715 62.89969253540039 1.499996781349182 56.54829406738281 1.499996781349182 50.00022125244141 C 1.499996781349182 43.45157623291016 2.782111167907715 37.10017776489258 5.310725212097168 31.12186431884766 C 7.753411293029785 25.34673500061035 11.25062561035156 20.15983581542969 15.70523929595947 15.70522117614746 C 20.15985298156738 11.25062084197998 25.34676742553711 7.753406524658203 31.12189674377441 5.31073522567749 C 37.10022354125977 2.782120943069458 43.45164108276367 1.500006556510925 49.99972534179688 1.500006556510925 C 56.54780960083008 1.500006556510925 62.89922714233398 2.782120943069458 68.87755584716797 5.31073522567749 C 74.65267944335938 7.753406524658203 79.839599609375 11.25062084197998 84.29421234130859 15.70522117614746 C 88.74882507324219 20.15983581542969 92.24604034423828 25.34673500061035 94.68872833251953 31.12186431884766 C 97.21733856201172 37.10017776489258 98.49945068359375 43.45157623291016 98.49945068359375 49.99964904785156 C 98.49945068359375 56.54829406738281 97.21733856201172 62.89969253540039 94.68872833251953 68.87800598144531 C 92.24604034423828 74.65313720703125 88.74882507324219 79.84004974365234 84.29421234130859 84.29464721679688 C 79.839599609375 88.74925994873047 74.65267944335938 92.24647521972656 68.87755584716797 94.68914794921875 C 62.89922714233398 97.21776580810547 56.54780960083008 98.4998779296875 49.99972534179688 98.4998779296875 Z" stroke="none"/>
            <path d="M 49.99972534179688 3 C 43.65348052978516 3 37.49866485595703 4.242240905761719 31.70623016357422 6.692230224609375 C 26.10989379882812 9.059272766113281 21.08323669433594 12.44853210449219 16.76589202880859 16.76587677001953 C 12.44855499267578 21.08321380615234 9.059295654296875 26.10985565185547 6.692230224609375 31.70618438720703 C 4.24224853515625 37.49859619140625 3 43.65341186523438 3 50.00022888183594 C 3 56.34645843505859 4.24224853515625 62.50127410888672 6.692230224609375 68.29368591308594 C 9.059295654296875 73.8900146484375 12.44855499267578 78.91665649414062 16.76589202880859 83.23399353027344 C 21.08323669433594 87.55132293701172 26.10989379882812 90.94059753417969 31.70623016357422 93.30764007568359 C 37.49866485595703 95.75762939453125 43.65348052978516 96.99987030029297 49.99972534179688 96.99987030029297 C 56.34597015380859 96.99987030029297 62.50078582763672 95.75762939453125 68.293212890625 93.30764007568359 C 73.88955688476562 90.94059753417969 78.91621398925781 87.55132293701172 83.23355865478516 83.23399353027344 C 87.55089569091797 78.91665649414062 90.94015502929688 73.8900146484375 93.30722045898438 68.29368591308594 C 95.7572021484375 62.50127410888672 96.99945068359375 56.34645843505859 96.99945068359375 49.99964141845703 C 96.99945068359375 43.65341186523438 95.7572021484375 37.49859619140625 93.30722045898438 31.70618438720703 C 90.94015502929688 26.10985565185547 87.55089569091797 21.08321380615234 83.23355865478516 16.76587677001953 C 78.91621398925781 12.44853210449219 73.88955688476562 9.059272766113281 68.293212890625 6.692230224609375 C 62.50078582763672 4.242240905761719 56.34597015380859 3 49.99972534179688 3 M 49.99972534179688 0 C 77.61381530761719 0 99.99945068359375 22.38559722900391 99.99945068359375 49.99964141845703 L 99.99945068359375 50.00022888183594 C 99.99945068359375 77.6142578125 77.61381530761719 99.99987030029297 49.99972534179688 99.99987030029297 C 22.38563537597656 99.99987030029297 0 77.6142578125 0 50.00022888183594 L 0 49.99964141845703 C 0 22.38559722900391 22.38563537597656 0 49.99972534179688 0 Z" stroke="none" fill="#fff"/>
          </g>
        </g>
        <g id="Trazado_874923" data-name="Trazado 874923" transform="translate(0 0)" fill="none">
          <path d="M50,0a50,50,0,0,1,50,50h0A50,50,0,0,1,0,50H0A50,50,0,0,1,50,0Z" stroke="none"/>
          <path d="M 49.99972534179688 3 C 43.65348052978516 3 37.49866485595703 4.242240905761719 31.70623016357422 6.692230224609375 C 26.10989379882812 9.059272766113281 21.08323669433594 12.44853210449219 16.76589202880859 16.76587677001953 C 12.44855499267578 21.08321380615234 9.059295654296875 26.10985565185547 6.692230224609375 31.70618438720703 C 4.24224853515625 37.49859619140625 3 43.65341186523438 3 50.00022888183594 C 3 56.34645843505859 4.24224853515625 62.50127410888672 6.692230224609375 68.29368591308594 C 9.059295654296875 73.8900146484375 12.44855499267578 78.91665649414062 16.76589202880859 83.23399353027344 C 21.08323669433594 87.55132293701172 26.10989379882812 90.94059753417969 31.70623016357422 93.30764007568359 C 37.49866485595703 95.75762939453125 43.65348052978516 96.99987030029297 49.99972534179688 96.99987030029297 C 56.34597015380859 96.99987030029297 62.50078582763672 95.75762939453125 68.293212890625 93.30764007568359 C 73.88955688476562 90.94059753417969 78.91621398925781 87.55132293701172 83.23355865478516 83.23399353027344 C 87.55089569091797 78.91665649414062 90.94015502929688 73.8900146484375 93.30722045898438 68.29368591308594 C 95.7572021484375 62.50127410888672 96.99945068359375 56.34645843505859 96.99945068359375 49.99964141845703 C 96.99945068359375 43.65341186523438 95.7572021484375 37.49859619140625 93.30722045898438 31.70618438720703 C 90.94015502929688 26.10985565185547 87.55089569091797 21.08321380615234 83.23355865478516 16.76587677001953 C 78.91621398925781 12.44853210449219 73.88955688476562 9.059272766113281 68.293212890625 6.692230224609375 C 62.50078582763672 4.242240905761719 56.34597015380859 3 49.99972534179688 3 M 49.99972534179688 0 C 77.61381530761719 0 99.99945068359375 22.38559722900391 99.99945068359375 49.99964141845703 L 99.99945068359375 50.00022888183594 C 99.99945068359375 77.6142578125 77.61381530761719 99.99987030029297 49.99972534179688 99.99987030029297 C 22.38563537597656 99.99987030029297 0 77.6142578125 0 50.00022888183594 L 0 49.99964141845703 C 0 22.38559722900391 22.38563537597656 0 49.99972534179688 0 Z" stroke="none" fill="#fff"/>
        </g>
      </g>
    </g>
    <g id="Grupo_1120033" data-name="Grupo 1120033" transform="translate(-5704.4 -3494.117)">
      <g id="Grupo_1120004" data-name="Grupo 1120004" transform="translate(61.477 4.559)">
        <path id="Trazado_917650" data-name="Trazado 917650" d="M117.348,39.825a17.923,17.923,0,1,0,17.923,17.923,17.924,17.924,0,0,0-17.923-17.923Zm0,32.146a14.223,14.223,0,1,1,14.223-14.223A14.24,14.24,0,0,1,117.348,71.971Z" transform="translate(-99.425 -39.825)" fill="#e278b1"/>
      </g>
      <g id="Grupo_1120005" data-name="Grupo 1120005" transform="translate(61.477 17.857)">
        <path id="Trazado_917651" data-name="Trazado 917651" d="M103.125,160.618a14.161,14.161,0,0,1,.773-4.625h-3.869a18.018,18.018,0,0,0,0,9.251H103.9A14.161,14.161,0,0,1,103.125,160.618Z" transform="translate(-99.425 -155.993)" fill="#dd5ca2"/>
      </g>
      <g id="Grupo_1120006" data-name="Grupo 1120006" transform="translate(74.774 4.559)">
        <path id="Trazado_917652" data-name="Trazado 917652" d="M215.593,40.429V44.3a14.229,14.229,0,0,1,9.251,0V40.429a18.017,18.017,0,0,0-9.251,0Z" transform="translate(-215.593 -39.825)" fill="#dd5ca2"/>
      </g>
      <g id="Grupo_1120007" data-name="Grupo 1120007" transform="translate(92.85 17.857)">
        <path id="Trazado_917653" data-name="Trazado 917653" d="M374.272,160.618a14.161,14.161,0,0,1-.773,4.625h3.869a18.018,18.018,0,0,0,0-9.251H373.5A14.162,14.162,0,0,1,374.272,160.618Z" transform="translate(-373.499 -155.993)" fill="#dd5ca2"/>
      </g>
      <g id="Grupo_1120008" data-name="Grupo 1120008" transform="translate(68.877 11.96)">
        <path id="Trazado_917654" data-name="Trazado 917654" d="M174.6,104.476A10.523,10.523,0,1,0,185.121,115,10.534,10.534,0,0,0,174.6,104.476Zm0,17.345A6.823,6.823,0,1,1,181.42,115,6.831,6.831,0,0,1,174.6,121.821Z" transform="translate(-164.075 -104.476)" fill="#ffe07d"/>
      </g>
      <g id="Grupo_1120009" data-name="Grupo 1120009" transform="translate(76.278 19.36)">
        <circle id="Elipse_11871" data-name="Elipse 11871" cx="3.122" cy="3.122" r="3.122" transform="translate(0)" fill="#e278b1"/>
      </g>
      <g id="Grupo_1120010" data-name="Grupo 1120010" transform="translate(77.55 0.859)">
        <path id="Trazado_917655" data-name="Trazado 917655" d="M242.381,18.6h-1.388a1.156,1.156,0,0,1-1.156-1.156V8.656A1.156,1.156,0,0,1,240.993,7.5h1.388a1.156,1.156,0,0,1,1.156,1.156v8.788A1.156,1.156,0,0,1,242.381,18.6Z" transform="translate(-239.837 -7.5)" fill="#c3247d"/>
      </g>
      <g id="Grupo_1120011" data-name="Grupo 1120011" transform="translate(57.776 20.632)">
        <path id="Trazado_917656" data-name="Trazado 917656" d="M78.2,181.393v1.388a1.156,1.156,0,0,1-1.156,1.156H68.256a1.156,1.156,0,0,1-1.156-1.156v-1.388a1.156,1.156,0,0,1,1.156-1.156h8.788A1.156,1.156,0,0,1,78.2,181.393Z" transform="translate(-67.1 -180.237)" fill="#c3247d"/>
      </g>
      <g id="Grupo_1120012" data-name="Grupo 1120012" transform="translate(89.923 20.632)">
        <path id="Trazado_917657" data-name="Trazado 917657" d="M347.926,182.781v-1.388a1.156,1.156,0,0,1,1.156-1.156h8.788a1.156,1.156,0,0,1,1.156,1.156v1.388a1.156,1.156,0,0,1-1.156,1.156h-8.788A1.156,1.156,0,0,1,347.926,182.781Z" transform="translate(-347.926 -180.237)" fill="#c3247d"/>
      </g>
      <g id="Grupo_1120018" data-name="Grupo 1120018" transform="translate(84.256 36.243)">
        <g id="Grupo_1120013" data-name="Grupo 1120013" transform="translate(13.414 17.114)">
          <path id="Trazado_917658" data-name="Trazado 917658" d="M415.606,466.114h3.7v4.394h-3.7Z" transform="translate(-415.606 -466.114)" fill="#f1d0a5"/>
        </g>
        <g id="Grupo_1120014" data-name="Grupo 1120014" transform="translate(4.279)">
          <circle id="Elipse_11872" data-name="Elipse 11872" cx="4.278" cy="4.278" r="4.278" fill="#f1d0a5"/>
        </g>
        <g id="Grupo_1120015" data-name="Grupo 1120015" transform="translate(4.771 0.493)">
          <path id="Trazado_917659" data-name="Trazado 917659" d="M345.887,320.915a4.278,4.278,0,0,1-5.779,5.779,4.278,4.278,0,1,0,5.779-5.779Z" transform="translate(-340.108 -320.915)" fill="#f1b986"/>
        </g>
        <g id="Grupo_1120016" data-name="Grupo 1120016" transform="translate(0 8.557)">
          <path id="Trazado_917660" data-name="Trazado 917660" d="M310.915,391.362h-7.863a4.625,4.625,0,0,0-4.625,4.625v3.932h3.7v4.394h9.713v-4.394h3.7v-3.932A4.625,4.625,0,0,0,310.915,391.362Z" transform="translate(-298.426 -391.362)" fill="#a2f4c1"/>
        </g>
        <g id="Grupo_1120017" data-name="Grupo 1120017" transform="translate(0 8.557)">
          <path id="Trazado_917661" data-name="Trazado 917661" d="M304.671,404.313V393.675a7.131,7.131,0,0,0-.385-2.313h-1.234a4.625,4.625,0,0,0-4.625,4.625v3.932h3.7v4.394Z" transform="translate(-298.427 -391.362)" fill="#78d0b1"/>
        </g>
      </g>
      <g id="Grupo_1120024" data-name="Grupo 1120024" transform="translate(57.429 36.243)">
        <g id="Grupo_1120019" data-name="Grupo 1120019" transform="translate(0 17.114)">
          <path id="Trazado_917662" data-name="Trazado 917662" d="M0,0H3.7V4.394H0Z" transform="translate(3.7 4.394) rotate(180)" fill="#f1d0a5"/>
        </g>
        <g id="Grupo_1120020" data-name="Grupo 1120020" transform="translate(4.278)">
          <circle id="Elipse_11873" data-name="Elipse 11873" cx="4.278" cy="4.278" r="4.278" fill="#f1d0a5"/>
        </g>
        <g id="Grupo_1120021" data-name="Grupo 1120021" transform="translate(4.771 0.493)">
          <path id="Trazado_917663" data-name="Trazado 917663" d="M105.75,326.694a4.278,4.278,0,0,0,5.779-5.779,4.278,4.278,0,1,1-5.779,5.779Z" transform="translate(-105.75 -320.915)" fill="#f1b986"/>
        </g>
        <g id="Grupo_1120022" data-name="Grupo 1120022" transform="translate(0 8.557)">
          <path id="Trazado_917664" data-name="Trazado 917664" d="M68.694,391.362h7.863a4.625,4.625,0,0,1,4.625,4.625v3.932h-3.7v4.394H67.769v-4.394h-3.7v-3.932A4.625,4.625,0,0,1,68.694,391.362Z" transform="translate(-64.069 -391.362)" fill="#ffe07d"/>
        </g>
        <g id="Grupo_1120023" data-name="Grupo 1120023" transform="translate(10.87 8.557)">
          <path id="Trazado_917665" data-name="Trazado 917665" d="M159.024,404.313V393.675a7.133,7.133,0,0,1,.385-2.313h1.234a4.625,4.625,0,0,1,4.625,4.625v3.932h-3.7v4.394Z" transform="translate(-159.024 -391.362)" fill="#ffd064"/>
        </g>
      </g>
      <g id="Grupo_1120031" data-name="Grupo 1120031" transform="translate(70.843 33.93)">
        <g id="Grupo_1120025" data-name="Grupo 1120025" transform="translate(13.414 17.114)">
          <path id="Trazado_917666" data-name="Trazado 917666" d="M298.427,445.911h3.7v6.707h-3.7Z" transform="translate(-298.427 -445.911)" fill="#f1d0a5"/>
        </g>
        <g id="Grupo_1120026" data-name="Grupo 1120026" transform="translate(0 17.114)">
          <path id="Trazado_917667" data-name="Trazado 917667" d="M0,0H3.7V6.707H0Z" transform="translate(3.7 6.707) rotate(180)" fill="#f1d0a5"/>
        </g>
        <g id="Grupo_1120027" data-name="Grupo 1120027" transform="translate(4.278)">
          <circle id="Elipse_11874" data-name="Elipse 11874" cx="4.278" cy="4.278" r="4.278" fill="#f1d0a5"/>
        </g>
        <g id="Grupo_1120028" data-name="Grupo 1120028" transform="translate(4.771 0.493)">
          <path id="Trazado_917668" data-name="Trazado 917668" d="M228.708,300.712a4.278,4.278,0,0,1-5.779,5.779,4.278,4.278,0,1,0,5.779-5.779Z" transform="translate(-222.929 -300.712)" fill="#f1b986"/>
        </g>
        <g id="Grupo_1120029" data-name="Grupo 1120029" transform="translate(0 8.557)">
          <path id="Trazado_917669" data-name="Trazado 917669" d="M193.737,371.159h-7.863a4.625,4.625,0,0,0-4.625,4.625v3.932h3.7v6.707h9.713v-6.707h3.7v-3.932A4.626,4.626,0,0,0,193.737,371.159Z" transform="translate(-181.249 -371.159)" fill="#80b4fb"/>
        </g>
        <g id="Grupo_1120030" data-name="Grupo 1120030" transform="translate(3.7 8.818)">
          <path id="Trazado_917670" data-name="Trazado 917670" d="M223.893,373.437a19.3,19.3,0,0,1-10.32,10.5v4.5h9.713v-6.707h3.7V377.8A4.627,4.627,0,0,0,223.893,373.437Z" transform="translate(-213.573 -373.437)" fill="#61a2f9"/>
        </g>
      </g>
      <g id="Grupo_1120032" data-name="Grupo 1120032" transform="translate(56.571 0)">
        <path id="Trazado_917671" data-name="Trazado 917671" d="M196.581,144.662a7.681,7.681,0,1,0-7.681-7.681A7.69,7.69,0,0,0,196.581,144.662Zm0-13.645a5.964,5.964,0,1,1-5.964,5.964A5.971,5.971,0,0,1,196.581,131.017Z" transform="translate(-173.752 -114.499)"/>
        <path id="Trazado_917672" data-name="Trazado 917672" d="M225.207,169.588a3.981,3.981,0,1,0-3.981-3.981A3.985,3.985,0,0,0,225.207,169.588Zm0-6.244a2.264,2.264,0,1,1-2.264,2.264A2.266,2.266,0,0,1,225.207,163.344Z" transform="translate(-202.378 -143.125)"/>
        <path id="Trazado_917673" data-name="Trazado 917673" d="M102.229,49.425a5.49,5.49,0,0,0-5.484-5.484h-.1a5.133,5.133,0,0,0-3.6-8.551c.119-.126.236-.252.352-.382a18.618,18.618,0,0,0,4.593-9.818h1.88a2.017,2.017,0,0,0,2.015-2.015V21.788a2.017,2.017,0,0,0-2.015-2.015h-1.88A18.789,18.789,0,0,0,82.109,3.9V2.015A2.017,2.017,0,0,0,80.094,0H78.706a2.017,2.017,0,0,0-2.015,2.015V3.9A18.789,18.789,0,0,0,60.813,19.774h-1.88a2.017,2.017,0,0,0-2.015,2.015v1.388a2.017,2.017,0,0,0,2.015,2.015h1.88a18.617,18.617,0,0,0,4.593,9.818c.116.129.234.256.352.382a5.133,5.133,0,0,0-3.6,8.551h-.1a5.49,5.49,0,0,0-5.484,5.484v8.326a.859.859,0,0,0,.859.859h5.836a.859.859,0,1,0,0-1.717H61.988V51.044a.859.859,0,0,0-1.717,0V52.5H58.288V49.425a3.772,3.772,0,0,1,3.767-3.767h7.863c.087,0,.174,0,.261.01a5.468,5.468,0,0,0-.194,1.444v9.78H67.272a.859.859,0,1,0,0,1.717H91.178a.859.859,0,1,0,0-1.717H88.815v-9.78a5.473,5.473,0,0,0-.194-1.444c.086-.006.173-.01.261-.01h7.863a3.772,3.772,0,0,1,3.767,3.767V52.5H98.529V51.044a.859.859,0,0,0-1.717,0v5.848H95.184a.859.859,0,0,0,0,1.717h6.186a.858.858,0,0,0,.859-.859ZM60.271,54.215v2.677H58.288V54.215ZM96.234,40.521a3.424,3.424,0,0,1-3.411,3.42H92.8a3.42,3.42,0,1,1,3.429-3.42Zm-11.728-1.75a5.1,5.1,0,0,0-.184-2.034,15.115,15.115,0,0,0,9.914-11.546h2.015a17.011,17.011,0,0,1-11.745,13.58ZM79.4,12.818a9.664,9.664,0,1,1-9.664,9.666v0A9.675,9.675,0,0,1,79.4,12.818ZM82.109,10.8V9.4A13.363,13.363,0,0,1,92.486,19.773H91.079a2.009,2.009,0,0,0-.6.092,11.42,11.42,0,0,0-8.46-8.46A2,2,0,0,0,82.109,10.8Zm-.391,22.823a11.418,11.418,0,0,0,8.76-8.527,2.008,2.008,0,0,0,.6.092h1.409a13.324,13.324,0,0,1-8.939,9.995,5.172,5.172,0,0,0-1.833-1.559Zm-4.634,0a5.171,5.171,0,0,0-1.833,1.559,13.324,13.324,0,0,1-8.939-9.995h1.41a2.007,2.007,0,0,0,.6-.092A11.418,11.418,0,0,0,77.083,33.626Zm-1.1,4.583a3.42,3.42,0,1,1,3.42,3.42A3.424,3.424,0,0,1,75.98,38.209Zm24.185-16.42v1.388a.3.3,0,0,1-.3.3H91.079a.3.3,0,0,1-.3-.3V21.788a.3.3,0,0,1,.3-.3h8.788A.3.3,0,0,1,100.165,21.788ZM96.25,19.773H94.237A15.082,15.082,0,0,0,82.109,7.646V5.634A17.118,17.118,0,0,1,96.25,19.773ZM78.706,1.717h1.388a.3.3,0,0,1,.3.3V8.356s0,0,0,.006V10.8a.3.3,0,0,1-.3.3H78.706a.3.3,0,0,1-.3-.3V2.015a.3.3,0,0,1,.3-.3ZM76.691,5.634V7.648a15.036,15.036,0,0,0-6.585,2.964.858.858,0,1,0,1.06,1.351A13.323,13.323,0,0,1,76.691,9.4V10.8a2.008,2.008,0,0,0,.092.6,11.42,11.42,0,0,0-8.46,8.46,2.008,2.008,0,0,0-.6-.092H66.313a13.358,13.358,0,0,1,2.248-5.1.859.859,0,1,0-1.392-1.006,15.076,15.076,0,0,0-2.606,6.107H62.55A17.118,17.118,0,0,1,76.691,5.634ZM58.635,23.176V21.788a.3.3,0,0,1,.3-.3h8.788a.3.3,0,0,1,.3.3v1.388a.3.3,0,0,1-.3.3H58.933a.3.3,0,0,1-.3-.3Zm3.914,2.015h2.015a15.115,15.115,0,0,0,9.914,11.546,5.1,5.1,0,0,0-.184,2.034A17.011,17.011,0,0,1,62.549,25.191Zm.017,15.33A3.42,3.42,0,1,1,66,43.941h-.018A3.424,3.424,0,0,1,62.566,40.521Zm7.352,3.42h-.1a5.126,5.126,0,0,0,1.154-4.666,18.683,18.683,0,0,0,3.956,1.453,5.168,5.168,0,0,0,.645.9h-.1a5.482,5.482,0,0,0-4.537,2.407,5.5,5.5,0,0,0-1.013-.094Zm3.766,12.951H71.7V51.9h1.983ZM75.4,48.731a.859.859,0,0,0-1.717,0v1.454H71.7V47.112a3.771,3.771,0,0,1,3.767-3.767h7.863A3.771,3.771,0,0,1,87.1,47.112v3.073H85.115V48.731a.859.859,0,1,0-1.717,0v8.161h-8V48.731Zm11.7,8.161H85.115V51.9H87.1Zm.77-12.857a5.482,5.482,0,0,0-4.537-2.407h-.1a5.163,5.163,0,0,0,.645-.9,18.677,18.677,0,0,0,3.956-1.453,5.126,5.126,0,0,0,1.154,4.666h-.1a5.5,5.5,0,0,0-1.014.094ZM98.529,56.892V54.215h1.983v2.677Z" transform="translate(-56.571 0)"/>
      </g>
    </g>
  </g>
</svg>
