<svg xmlns="http://www.w3.org/2000/svg" xmlns:xlink="http://www.w3.org/1999/xlink" width="118" height="118" viewBox="0 0 118 118">
  <defs>
    <filter id="Trazado_874925" x="0" y="0" width="118" height="118" filterUnits="userSpaceOnUse">
      <feOffset dy="3" input="SourceAlpha"/>
      <feGaussianBlur stdDeviation="3" result="blur"/>
      <feFlood flood-opacity="0.161"/>
      <feComposite operator="in" in2="blur"/>
      <feComposite in="SourceGraphic"/>
    </filter>
  </defs>
  <g id="Grupo_1119996" data-name="Grupo 1119996" transform="translate(5998 3520.813)">
    <g id="Grupo_1119694" data-name="Grupo 1119694" transform="translate(-6792.834 -11583.093)">
      <g id="Grupo_1107913" data-name="Grupo 1107913" transform="translate(803.834 8068.28)">
        <g transform="matrix(1, 0, 0, 1, -9, -6)" filter="url(#Trazado_874925)">
          <g id="Trazado_874925-2" data-name="Trazado 874925" transform="translate(9 6)" fill="#bb965f">
            <path d="M 49.99972534179688 98.4998779296875 C 43.45164108276367 98.4998779296875 37.10022354125977 97.21776580810547 31.12189674377441 94.68914794921875 C 25.34676742553711 92.24647521972656 20.15985298156738 88.74925994873047 15.70523929595947 84.29464721679688 C 11.25062561035156 79.84004974365234 7.753411293029785 74.65313720703125 5.310725212097168 68.87800598144531 C 2.782111167907715 62.89969253540039 1.499996781349182 56.54829406738281 1.499996781349182 50.00022125244141 C 1.499996781349182 43.45157623291016 2.782111167907715 37.10017776489258 5.310725212097168 31.12186431884766 C 7.753411293029785 25.34673500061035 11.25062561035156 20.15983581542969 15.70523929595947 15.70522117614746 C 20.15985298156738 11.25062084197998 25.34676742553711 7.753406524658203 31.12189674377441 5.31073522567749 C 37.10022354125977 2.782120943069458 43.45164108276367 1.500006556510925 49.99972534179688 1.500006556510925 C 56.54780960083008 1.500006556510925 62.89922714233398 2.782120943069458 68.87755584716797 5.31073522567749 C 74.65267944335938 7.753406524658203 79.839599609375 11.25062084197998 84.29421234130859 15.70522117614746 C 88.74882507324219 20.15983581542969 92.24604034423828 25.34673500061035 94.68872833251953 31.12186431884766 C 97.21733856201172 37.10017776489258 98.49945068359375 43.45157623291016 98.49945068359375 49.99964904785156 C 98.49945068359375 56.54829406738281 97.21733856201172 62.89969253540039 94.68872833251953 68.87800598144531 C 92.24604034423828 74.65313720703125 88.74882507324219 79.84004974365234 84.29421234130859 84.29464721679688 C 79.839599609375 88.74925994873047 74.65267944335938 92.24647521972656 68.87755584716797 94.68914794921875 C 62.89922714233398 97.21776580810547 56.54780960083008 98.4998779296875 49.99972534179688 98.4998779296875 Z" stroke="none"/>
            <path d="M 49.99972534179688 3 C 43.65348052978516 3 37.49866485595703 4.242240905761719 31.70623016357422 6.692230224609375 C 26.10989379882812 9.059272766113281 21.08323669433594 12.44853210449219 16.76589202880859 16.76587677001953 C 12.44855499267578 21.08321380615234 9.059295654296875 26.10985565185547 6.692230224609375 31.70618438720703 C 4.24224853515625 37.49859619140625 3 43.65341186523438 3 50.00022888183594 C 3 56.34645843505859 4.24224853515625 62.50127410888672 6.692230224609375 68.29368591308594 C 9.059295654296875 73.8900146484375 12.44855499267578 78.91665649414062 16.76589202880859 83.23399353027344 C 21.08323669433594 87.55132293701172 26.10989379882812 90.94059753417969 31.70623016357422 93.30764007568359 C 37.49866485595703 95.75762939453125 43.65348052978516 96.99987030029297 49.99972534179688 96.99987030029297 C 56.34597015380859 96.99987030029297 62.50078582763672 95.75762939453125 68.293212890625 93.30764007568359 C 73.88955688476562 90.94059753417969 78.91621398925781 87.55132293701172 83.23355865478516 83.23399353027344 C 87.55089569091797 78.91665649414062 90.94015502929688 73.8900146484375 93.30722045898438 68.29368591308594 C 95.7572021484375 62.50127410888672 96.99945068359375 56.34645843505859 96.99945068359375 49.99964141845703 C 96.99945068359375 43.65341186523438 95.7572021484375 37.49859619140625 93.30722045898438 31.70618438720703 C 90.94015502929688 26.10985565185547 87.55089569091797 21.08321380615234 83.23355865478516 16.76587677001953 C 78.91621398925781 12.44853210449219 73.88955688476562 9.059272766113281 68.293212890625 6.692230224609375 C 62.50078582763672 4.242240905761719 56.34597015380859 3 49.99972534179688 3 M 49.99972534179688 0 C 77.61381530761719 0 99.99945068359375 22.38559722900391 99.99945068359375 49.99964141845703 L 99.99945068359375 50.00022888183594 C 99.99945068359375 77.6142578125 77.61381530761719 99.99987030029297 49.99972534179688 99.99987030029297 C 22.38563537597656 99.99987030029297 0 77.6142578125 0 50.00022888183594 L 0 49.99964141845703 C 0 22.38559722900391 22.38563537597656 0 49.99972534179688 0 Z" stroke="none" fill="#fff"/>
          </g>
        </g>
        <g id="Trazado_874923" data-name="Trazado 874923" transform="translate(0 0)" fill="none">
          <path d="M50,0a50,50,0,0,1,50,50h0A50,50,0,0,1,0,50H0A50,50,0,0,1,50,0Z" stroke="none"/>
          <path d="M 49.99972534179688 3 C 43.65348052978516 3 37.49866485595703 4.242240905761719 31.70623016357422 6.692230224609375 C 26.10989379882812 9.059272766113281 21.08323669433594 12.44853210449219 16.76589202880859 16.76587677001953 C 12.44855499267578 21.08321380615234 9.059295654296875 26.10985565185547 6.692230224609375 31.70618438720703 C 4.24224853515625 37.49859619140625 3 43.65341186523438 3 50.00022888183594 C 3 56.34645843505859 4.24224853515625 62.50127410888672 6.692230224609375 68.29368591308594 C 9.059295654296875 73.8900146484375 12.44855499267578 78.91665649414062 16.76589202880859 83.23399353027344 C 21.08323669433594 87.55132293701172 26.10989379882812 90.94059753417969 31.70623016357422 93.30764007568359 C 37.49866485595703 95.75762939453125 43.65348052978516 96.99987030029297 49.99972534179688 96.99987030029297 C 56.34597015380859 96.99987030029297 62.50078582763672 95.75762939453125 68.293212890625 93.30764007568359 C 73.88955688476562 90.94059753417969 78.91621398925781 87.55132293701172 83.23355865478516 83.23399353027344 C 87.55089569091797 78.91665649414062 90.94015502929688 73.8900146484375 93.30722045898438 68.29368591308594 C 95.7572021484375 62.50127410888672 96.99945068359375 56.34645843505859 96.99945068359375 49.99964141845703 C 96.99945068359375 43.65341186523438 95.7572021484375 37.49859619140625 93.30722045898438 31.70618438720703 C 90.94015502929688 26.10985565185547 87.55089569091797 21.08321380615234 83.23355865478516 16.76587677001953 C 78.91621398925781 12.44853210449219 73.88955688476562 9.059272766113281 68.293212890625 6.692230224609375 C 62.50078582763672 4.242240905761719 56.34597015380859 3 49.99972534179688 3 M 49.99972534179688 0 C 77.61381530761719 0 99.99945068359375 22.38559722900391 99.99945068359375 49.99964141845703 L 99.99945068359375 50.00022888183594 C 99.99945068359375 77.6142578125 77.61381530761719 99.99987030029297 49.99972534179688 99.99987030029297 C 22.38563537597656 99.99987030029297 0 77.6142578125 0 50.00022888183594 L 0 49.99964141845703 C 0 22.38559722900391 22.38563537597656 0 49.99972534179688 0 Z" stroke="none" fill="#fff"/>
        </g>
      </g>
    </g>
    <g id="Grupo_1119995" data-name="Grupo 1119995" transform="translate(-5970.446 -3496.142)">
      <g id="Grupo_1119992" data-name="Grupo 1119992" transform="translate(5.15 4.494)">
        <path id="Trazado_917579" data-name="Trazado 917579" d="M383.246,396.1l-3.493,2.446v1.34H389.98a1.938,1.938,0,0,0,1.835-1.952V385.267h-8.567Z" transform="translate(-338.336 -342.636)" fill="#fde31d"/>
        <path id="Trazado_917580" data-name="Trazado 917580" d="M56.413,340.434S53.19,336.687,50,336.762c-2.328.013-4.776.986-4.776,4.575,8.024-2.965,7.649,3.818,11.187,3.818h.066c3.538,0,3.164-6.782,11.187-3.818,0-3.589-2.448-4.562-4.776-4.575-3.188-.075-6.411,3.672-6.411,3.672Z" transform="translate(-44.727 -300.063)" fill="#8ae897"/>
        <path id="Trazado_917581" data-name="Trazado 917581" d="M137.226,55.156c3.538,0,3.164-6.782,11.187-3.818,0-3.589-2.448-4.562-4.776-4.575-3.188-.075-6.411,3.672-6.411,3.672Z" transform="translate(-125.474 -45.536)" fill="#8ae897"/>
        <path id="Trazado_917582" data-name="Trazado 917582" d="M56.555,178.85c-3.332,0-3.219-6.782-11.243-3.818,0-3.589,2.4-4.606,4.725-4.619,3.188-.075,6.518,3.716,6.518,3.716Z" transform="translate(-44.802 -154.062)" fill="#8ae897"/>
        <path id="Trazado_917583" data-name="Trazado 917583" d="M137.226,233.031c1.823,0,2.493-4.971,8.374-2.8a3.994,3.994,0,0,0-3.774-4.138c-2.337-.055-4.6,2.619-4.6,2.619v4.317Z" transform="translate(-125.474 -202.933)" fill="#8ae897"/>
        <path id="Trazado_917584" data-name="Trazado 917584" d="M48.283,240.484c-2.15-2.149-5.714-4.516-6.845-3.385-.712.712-.036,2.39,1.1,4.072l5.819-.612Z" transform="translate(-41.146 -212.334)" fill="#fde31d"/>
        <path id="Trazado_917585" data-name="Trazado 917585" d="M52.514,268.09a19.448,19.448,0,0,0,2.287,2.773c2.15,2.15,3.7,1.635,4.4.939s1.2-2.214-.867-4.325Z" transform="translate(-51.123 -239.255)" fill="#8ae897"/>
        <path id="Trazado_917586" data-name="Trazado 917586" d="M178.909,115.828c-1.131-1.131-4.7,1.236-6.845,3.385q-.2.2-.369.392l6.059.378C178.922,118.274,179.633,116.552,178.909,115.828Z" transform="translate(-155.727 -105.898)" fill="#fde31d"/>
        <path id="Trazado_917587" data-name="Trazado 917587" d="M163.272,148.806c-1.717,1.947-1.223,3.354-.57,4.007.7.7,2.249,1.21,4.4-.939a19.492,19.492,0,0,0,2.23-2.69Z" transform="translate(-147.303 -135.098)" fill="#8ae897"/>
        <path id="Trazado_917588" data-name="Trazado 917588" d="M188.827,280c-.96-1.279-4.823.561-7.255,2.385-.1.077-.2.153-.291.229l5.721,1.44C188.453,282.5,189.456,280.842,188.827,280Z" transform="translate(-164.141 -249.875)" fill="#fde31d"/>
        <path id="Trazado_917589" data-name="Trazado 917589" d="M169.3,304.431c-2.114,1.729-1.826,3.239-1.26,3.993.591.787,2.056,1.516,4.487-.308a19.535,19.535,0,0,0,2.493-2.245Z" transform="translate(-152.16 -271.688)" fill="#8ae897"/>
        <path id="Trazado_917590" data-name="Trazado 917590" d="M76.6,102.031c-1.823,0-2.493-4.971-8.374-2.8A3.994,3.994,0,0,1,72,95.095c2.337-.055,4.6,2.619,4.6,2.619v4.317Z" transform="translate(-64.914 -87.956)" fill="#8ae897"/>
        <path id="Trazado_917591" data-name="Trazado 917591" d="M312.631,81.118l-.6.326a3.076,3.076,0,0,1-4.177-1.223l-1.626-2.973,5.407-2.939,3.078,5.629Z" transform="translate(-273.808 -69.714)" fill="#ffceb7"/>
        <path id="Trazado_917592" data-name="Trazado 917592" d="M296.908,41.04l-6.489,3.527L288.831,39.1l4.32-2.364Z" transform="translate(-258.535 -36.738)" fill="#e6cc9f"/>
        <path id="Trazado_917593" data-name="Trazado 917593" d="M360.512,117.532a4.281,4.281,0,1,0-7.523,4.089l1.951,3.74,7.819-4.25C361.5,119,360.512,117.532,360.512,117.532Z" transform="translate(-314.389 -105.686)" fill="#fff"/>
        <path id="Trazado_917594" data-name="Trazado 917594" d="M380.491,162.849l-7.819,4.25,4.364,8.366,0,14.589H385.6V175.465C385.6,172.083,382.654,166.5,380.491,162.849Z" transform="translate(-332.121 -147.424)" fill="#ff6a47"/>
        <g id="Grupo_1119991" data-name="Grupo 1119991" transform="translate(0.499 2.309)">
          <path id="Trazado_917595" data-name="Trazado 917595" d="M73.607,95.438A3.89,3.89,0,0,0,72,95.094a3.994,3.994,0,0,0-3.774,4.138,7.317,7.317,0,0,1,3.088-.534A4.041,4.041,0,0,1,73.607,95.438Z" transform="translate(-65.414 -90.265)" fill="#54e072"/>
          <path id="Trazado_917596" data-name="Trazado 917596" d="M51.461,170.614a4.752,4.752,0,0,0-1.424-.2c-2.328.013-4.725,1.03-4.725,4.619a11.322,11.322,0,0,1,3.1-.73A3.9,3.9,0,0,1,51.461,170.614Z" transform="translate(-45.301 -156.371)" fill="#54e072"/>
          <path id="Trazado_917597" data-name="Trazado 917597" d="M51.412,336.958a4.742,4.742,0,0,0-1.411-.2c-2.328.013-4.776.986-4.776,4.575a11.276,11.276,0,0,1,3.1-.731A3.872,3.872,0,0,1,51.412,336.958Z" transform="translate(-45.226 -302.373)" fill="#54e072"/>
          <path id="Trazado_917598" data-name="Trazado 917598" d="M140.284,55.619a14.748,14.748,0,0,0-3.058,2.589v4.721c1.367,0,2.149-1.012,3.058-2.083Z" transform="translate(-125.973 -55.619)" fill="#54e072"/>
          <path id="Trazado_917599" data-name="Trazado 917599" d="M140.284,228.691a9.346,9.346,0,0,0-3.058,2.3v4.317c1.012,0,1.669-1.531,3.058-2.522Z" transform="translate(-125.973 -207.522)" fill="#54e072"/>
        </g>
        <path id="Trazado_917600" data-name="Trazado 917600" d="M383.246,396.1l-3.493,2.446v1.34H389.98a1.938,1.938,0,0,0,1.835-1.952V385.267h-8.567Z" transform="translate(-338.336 -342.636)" fill="#fde31d"/>
        <path id="Trazado_917601" data-name="Trazado 917601" d="M380.093,211.256l0-14.589-5.039-9.661-2.382,1.295,4.364,8.366,0,14.589Z" transform="translate(-332.122 -168.626)" fill="#fd3501"/>
        <path id="Trazado_917602" data-name="Trazado 917602" d="M355.436,120.695a4.281,4.281,0,0,1,.724-5.062,4.281,4.281,0,0,0-3.17,6.285l1.951,3.74,2.4-1.306Z" transform="translate(-314.39 -105.983)" fill="#e3e9ee"/>
        <path id="Trazado_917603" data-name="Trazado 917603" d="M310.31,91.368l-1.778-3.249-2.3,1.25,1.626,2.973a3.076,3.076,0,0,0,4.177,1.223l.56-.306A3.994,3.994,0,0,1,310.31,91.368Z" transform="translate(-273.809 -81.834)" fill="#ffaa81"/>
        <path id="Trazado_917604" data-name="Trazado 917604" d="M290.952,46.573l-2.121,1.161,1.587,5.465,2.938-1.6Z" transform="translate(-258.535 -45.37)" fill="#dfba7f"/>
        <path id="Trazado_917605" data-name="Trazado 917605" d="M233.06,208.661c-.01,2.04,2.833,3.063,4.559,2.278.458-.209,1.125-.5,1.885-.822l-2.068-3.3Z" transform="translate(-209.586 -186.013)" fill="#ffceb7"/>
        <path id="Trazado_917606" data-name="Trazado 917606" d="M283.51,139.03a1.847,1.847,0,0,0-2.61-.09l-5.425,5.065-6.644,2.8,2.068,3.3c2.668-1.139,6.486-2.707,6.486-2.707l6.035-5.76A1.846,1.846,0,0,0,283.51,139.03Z" transform="translate(-240.982 -126.004)" fill="#fff"/>
        <path id="Trazado_917607" data-name="Trazado 917607" d="M47.984,448.37s3.087-7.859,10.916-7.859c8.493,0,10.685,7.859,10.685,7.859Z" transform="translate(-47.148 -391.123)" fill="#e6cc9f"/>
        <path id="Trazado_917608" data-name="Trazado 917608" d="M60.484,440.607a12.76,12.76,0,0,0-1.584-.1c-7.829,0-10.916,7.859-10.916,7.859h3.058s2.7-6.865,9.442-7.762Z" transform="translate(-47.148 -391.122)" fill="#dfba7f"/>
        <path id="Trazado_917609" data-name="Trazado 917609" d="M140.285,345.619a14.748,14.748,0,0,0-3.058,2.589v4.721c1.367,0,2.149-1.012,3.058-2.083Z" transform="translate(-125.475 -307.838)" fill="#54e072"/>
      </g>
      <g id="Grupo_1119993" data-name="Grupo 1119993" transform="translate(14.034 57.383)">
        <path id="Trazado_917610" data-name="Trazado 917610" d="M113.782,469.138h1.835v1.835h-1.835Z" transform="translate(-113.782 -469.138)" fill="#fff"/>
        <path id="Trazado_917611" data-name="Trazado 917611" d="M143.782,469.138h1.835v1.835h-1.835Z" transform="translate(-140.113 -469.138)" fill="#fff"/>
      </g>
      <g id="Grupo_1119994" data-name="Grupo 1119994" transform="translate(0.133 0)">
        <path id="Trazado_917612" data-name="Trazado 917612" d="M256.945,84.755a2.883,2.883,0,0,0,.193-1.035V56.467a18.443,18.443,0,0,0-2.03-7.044l-1.669.763a17.075,17.075,0,0,1,1.864,6.281V70.139h-1.841V58.186h-1.835V70.139h-3.056l0-13.9-4.05-7.766,6.246-3.395c.617,1.066,1.273,2.254,1.889,3.477l1.639-.825a80.371,80.371,0,0,0-4.648-7.941,5.221,5.221,0,0,0-5.717-2.543l-2.112-3.862,4.89-2.658-.876-1.612-4.511,2.452-3.758-4.3-5.612,3.071,1.587,5.463-4.508,2.45.876,1.612L234.8,37.2c1.211,2.276,2.116,4.5,5.182,4.219a5.227,5.227,0,0,0-.064,1.245l-3.191,2.979L225.3,50.463c-.467,3.028,3.318,4.907,5.853,3.723,2.028-.923,8.276-3.49,8.339-3.516l.16-.066,2.611-2.492,4.474,8.579,0,24.716-3.493,2.446v.9H231.271V86.59h29.081V84.755h-3.406ZM246.058,39.09a3.391,3.391,0,0,1,2.048,1.7c.013.02.74,1.1,1.726,2.716l-6.157,3.346-.028-.054,2.161-2.062a2.763,2.763,0,0,0-3.529-4.241,3.375,3.375,0,0,1,3.78-1.4Zm-8.906-9.506,2.519,2.884-.321.174L235.189,34.9l-1.064-3.663Zm1.734,9.945a2.145,2.145,0,0,1-1.288-1.036l-1.185-2.165,3.8-2.063,2.031,3.715a5.166,5.166,0,0,0-1.2,1.092A2.564,2.564,0,0,1,238.886,39.529ZM230.4,52.517a2.679,2.679,0,0,1-3.127-.891l2.961-1.248,1.085,1.732c-.354.154-.667.292-.919.407Zm8.242-3.477c-.69.284-3.372,1.389-5.616,2.339l-1.08-1.723,5.8-2.446,5.544-5.177a.929.929,0,0,1,1.261,1.365Zm6.517,35.716,3.416-2.392V71.973h3.057V83.72a1.034,1.034,0,0,1-.917,1.035Zm8.115,0a2.882,2.882,0,0,0,.193-1.035V71.973H255.3V83.72a1.034,1.034,0,0,1-.917,1.035Z" transform="translate(-197.726 -23.932)"/>
        <path id="Trazado_917613" data-name="Trazado 917613" d="M26.139,57.23a11.438,11.438,0,0,0-8.32-4.235V50.379c4.348-1.788,2.909-6.664,11.188-3.3.133-2.452-.277-4.78-2.277-5.951,1.9-1.567,5.349-5,3.84-7.062-2-2.66-8.474,2.153-8.539,2.2-2.386,1.79-2.638,3.66-2.068,4.937a13.259,13.259,0,0,0-2.144,1.49V35.28a5.262,5.262,0,0,0,1.4-1.239c1.8-2.139,3.243-2.461,6.974-.931V31.793c-.194-5.021-5.215-6.363-8.374-3.611V26.266L20.654,23.4c1.732.807,3.382.045,4.941-1.486,1.8-1.847,5.305-6.108,3.386-8.143-2.351-2.35-8.085,3.328-8.143,3.386-1.533,1.539-2.3,3.258-1.483,4.948l-1.536,1.55V14.908c4.348-1.787,2.908-6.665,11.187-3.3V10.3c.064-6.469-7.47-6.776-11.187-3.064-.007-.592-.177-3.926,4.74-4.009V1.388a6.934,6.934,0,0,0-4.74,1.5V0H15.984V7.292a6.934,6.934,0,0,0-4.74-1.5V7.626c5.058.167,4.733,3.277,4.74,4.583-3.191-2.8-8.215-1.526-8.44,3.56,0,0,0,1.317,0,1.317,3.736-1.533,5.173-1.2,6.974.931a5.023,5.023,0,0,0,1.465,1.273v3.127c-1.384-1.158-3.487-2.538-5.614-2.49-4.2-.006-5.977,2.87-5.629,6.853,8.239-3.356,7.037,1.434,11.243,3.286v8.438L14.42,36.939c.809-1.691.048-3.4-1.484-4.945-.058-.058-5.791-5.736-8.143-3.385-1.92,2.035,1.589,6.3,3.385,8.142,1.558,1.532,3.213,2.3,4.944,1.485L15.984,41.1v1.657C12.242,39.01,4.71,39.221,4.731,45.767v1.317c8.347-3.4,6.837,1.6,11.253,3.313V53c-4.653.228-8.756,3.892-10.591,7.824H.133v1.835h31.71V60.823h-3.6a13.456,13.456,0,0,0-2.1-3.593Zm1.383-42.184c.575-.185-.232,1.766-.879,2.679l-3.319-.349C24.338,16.483,26.575,15.008,27.522,15.046Zm-6.657,5.574a2.952,2.952,0,0,1,.747-1.579l3.765.4c-.912,1.118-2.237,2.429-3.24,2.455a1.147,1.147,0,0,1-1.271-1.271ZM6.089,29.908c.953-.2,3.1,1.266,4.13,2.112L7,32.358c-.075-.12-.147-.24-.214-.357-.8-1.4-.754-2.009-.7-2.093Zm5.548,6.816c-1.072-.026-2.491-1.512-3.4-2.651l3.763-.4c.91,1.071,1.218,2.014.579,2.716a1.173,1.173,0,0,1-.94.331Zm17.126-1.612a.639.639,0,0,1,.338.059c.044.094,0,.707-.986,1.977-.129.165-.269.334-.416.5l-3.236-.814a10.755,10.755,0,0,1,4.3-1.725Zm-6.23,3.132,3.669.923c-1.225,1.144-3.457,2.808-4.438,1.512C21.279,40.033,21.571,39.149,22.533,38.244Zm-1.273,4.364a3.874,3.874,0,0,0,3.725-.259,2.845,2.845,0,0,1,2.036,2.115c-5.811-1.439-6.668,1.744-9.2,3.918V45.22A12.639,12.639,0,0,1,21.261,42.608Zm.22-14.035A2.988,2.988,0,0,1,24.128,30.5c-3.568-.75-5.223,1.141-6.309,2.352V30.628C18.533,29.879,20.1,28.542,21.48,28.573ZM23.219,6.637C25.8,6.6,26.8,7.892,27.04,9c-5.826-1.45-6.683,1.736-9.221,3.914V9.745c.991-1.057,3.341-3.108,5.4-3.108ZM15.886,16.794a5.928,5.928,0,0,0-6.277-2.316c1.625-3.379,4.747-1.62,6.375.2V16.9ZM14.8,26.822c-1.438-1.675-3.362-3.918-8.076-2.661.4-1.609,1.718-2.419,3.752-2.4,2.067,0,4.484,2.085,5.507,3.157v3.115A8.036,8.036,0,0,1,14.8,26.822ZM14.614,47.07c-1.391-1.647-3.252-3.851-7.916-2.6.244-1.1,1.243-2.4,3.821-2.36,2.106,0,4.517,2.146,5.466,3.179v3.137a6.382,6.382,0,0,1-1.371-1.355ZM9.232,58.377a10.121,10.121,0,0,1,17.011,2.446H7.47A14.427,14.427,0,0,1,9.232,58.377Z" transform="translate(-0.133 0)"/>
      </g>
    </g>
  </g>
</svg>
