<svg xmlns="http://www.w3.org/2000/svg" xmlns:xlink="http://www.w3.org/1999/xlink" width="117.999" height="118" viewBox="0 0 117.999 118">
  <defs>
    <filter id="Trazado_874925" x="0" y="0" width="117.999" height="118" filterUnits="userSpaceOnUse">
      <feOffset dy="3" input="SourceAlpha"/>
      <feGaussianBlur stdDeviation="3" result="blur"/>
      <feFlood flood-opacity="0.161"/>
      <feComposite operator="in" in2="blur"/>
      <feComposite in="SourceGraphic"/>
    </filter>
  </defs>
  <g id="Grupo_1123397" data-name="Grupo 1123397" transform="translate(-743.517 -1373.28)">
    <g id="Grupo_1111553" data-name="Grupo 1111553" transform="translate(-55.983 -1137.877)">
      <g id="Grupo_1111316" data-name="Grupo 1111316" transform="translate(808.5 2517.157)">
        <g id="Grupo_1109835" data-name="Grupo 1109835" transform="translate(0 0)">
          <g id="Grupo_1107913" data-name="Grupo 1107913" transform="translate(0 0)">
            <g transform="matrix(1, 0, 0, 1, -9, -6)" filter="url(#Trazado_874925)">
              <g id="Trazado_874925-2" data-name="Trazado 874925" transform="translate(9 6)" fill="#bb965f" opacity="0.859">
                <path d="M 49.99972534179688 98.4998779296875 C 43.45164108276367 98.4998779296875 37.10022354125977 97.21776580810547 31.12189674377441 94.68914794921875 C 25.34676742553711 92.24647521972656 20.15985298156738 88.74925994873047 15.70523929595947 84.29464721679688 C 11.25062561035156 79.84004974365234 7.753411293029785 74.65313720703125 5.310725212097168 68.87800598144531 C 2.782111167907715 62.89969253540039 1.499996781349182 56.54829406738281 1.499996781349182 50.00022125244141 C 1.499996781349182 43.45157623291016 2.782111167907715 37.10017776489258 5.310725212097168 31.12186431884766 C 7.753411293029785 25.34673500061035 11.25062561035156 20.15983581542969 15.70523929595947 15.70522117614746 C 20.15985298156738 11.25062084197998 25.34676742553711 7.753406524658203 31.12189674377441 5.31073522567749 C 37.10022354125977 2.782120943069458 43.45164108276367 1.500006556510925 49.99972534179688 1.500006556510925 C 56.54780960083008 1.500006556510925 62.89922714233398 2.782120943069458 68.87755584716797 5.31073522567749 C 74.65267944335938 7.753406524658203 79.839599609375 11.25062084197998 84.29421234130859 15.70522117614746 C 88.74882507324219 20.15983581542969 92.24604034423828 25.34673500061035 94.68872833251953 31.12186431884766 C 97.21733856201172 37.10017776489258 98.49945068359375 43.45157623291016 98.49945068359375 49.99964904785156 C 98.49945068359375 56.54829406738281 97.21733856201172 62.89969253540039 94.68872833251953 68.87800598144531 C 92.24604034423828 74.65313720703125 88.74882507324219 79.84004974365234 84.29421234130859 84.29464721679688 C 79.839599609375 88.74925994873047 74.65267944335938 92.24647521972656 68.87755584716797 94.68914794921875 C 62.89922714233398 97.21776580810547 56.54780960083008 98.4998779296875 49.99972534179688 98.4998779296875 Z" stroke="none"/>
                <path d="M 49.99972534179688 3 C 43.65348052978516 3 37.49866485595703 4.242240905761719 31.70623016357422 6.692230224609375 C 26.10989379882812 9.059272766113281 21.08323669433594 12.44853210449219 16.76589202880859 16.76587677001953 C 12.44855499267578 21.08321380615234 9.059295654296875 26.10985565185547 6.692230224609375 31.70618438720703 C 4.24224853515625 37.49859619140625 3 43.65341186523438 3 50.00022888183594 C 3 56.34645843505859 4.24224853515625 62.50127410888672 6.692230224609375 68.29368591308594 C 9.059295654296875 73.8900146484375 12.44855499267578 78.91665649414062 16.76589202880859 83.23399353027344 C 21.08323669433594 87.55132293701172 26.10989379882812 90.94059753417969 31.70623016357422 93.30764007568359 C 37.49866485595703 95.75762939453125 43.65348052978516 96.99987030029297 49.99972534179688 96.99987030029297 C 56.34597015380859 96.99987030029297 62.50078582763672 95.75762939453125 68.293212890625 93.30764007568359 C 73.88955688476562 90.94059753417969 78.91621398925781 87.55132293701172 83.23355865478516 83.23399353027344 C 87.55089569091797 78.91665649414062 90.94015502929688 73.8900146484375 93.30722045898438 68.29368591308594 C 95.7572021484375 62.50127410888672 96.99945068359375 56.34645843505859 96.99945068359375 49.99964141845703 C 96.99945068359375 43.65341186523438 95.7572021484375 37.49859619140625 93.30722045898438 31.70618438720703 C 90.94015502929688 26.10985565185547 87.55089569091797 21.08321380615234 83.23355865478516 16.76587677001953 C 78.91621398925781 12.44853210449219 73.88955688476562 9.059272766113281 68.293212890625 6.692230224609375 C 62.50078582763672 4.242240905761719 56.34597015380859 3 49.99972534179688 3 M 49.99972534179688 0 C 77.61381530761719 0 99.99945068359375 22.38559722900391 99.99945068359375 49.99964141845703 L 99.99945068359375 50.00022888183594 C 99.99945068359375 77.6142578125 77.61381530761719 99.99987030029297 49.99972534179688 99.99987030029297 C 22.38563537597656 99.99987030029297 0 77.6142578125 0 50.00022888183594 L 0 49.99964141845703 C 0 22.38559722900391 22.38563537597656 0 49.99972534179688 0 Z" stroke="none" fill="#fff"/>
              </g>
            </g>
            <g id="Trazado_874923" data-name="Trazado 874923" transform="translate(0 0)" fill="none">
              <path d="M50,0a50,50,0,0,1,50,50h0A50,50,0,0,1,0,50H0A50,50,0,0,1,50,0Z" stroke="none"/>
              <path d="M 49.99972534179688 3 C 43.65348052978516 3 37.49866485595703 4.242240905761719 31.70623016357422 6.692230224609375 C 26.10989379882812 9.059272766113281 21.08323669433594 12.44853210449219 16.76589202880859 16.76587677001953 C 12.44855499267578 21.08321380615234 9.059295654296875 26.10985565185547 6.692230224609375 31.70618438720703 C 4.24224853515625 37.49859619140625 3 43.65341186523438 3 50.00022888183594 C 3 56.34645843505859 4.24224853515625 62.50127410888672 6.692230224609375 68.29368591308594 C 9.059295654296875 73.8900146484375 12.44855499267578 78.91665649414062 16.76589202880859 83.23399353027344 C 21.08323669433594 87.55132293701172 26.10989379882812 90.94059753417969 31.70623016357422 93.30764007568359 C 37.49866485595703 95.75762939453125 43.65348052978516 96.99987030029297 49.99972534179688 96.99987030029297 C 56.34597015380859 96.99987030029297 62.50078582763672 95.75762939453125 68.293212890625 93.30764007568359 C 73.88955688476562 90.94059753417969 78.91621398925781 87.55132293701172 83.23355865478516 83.23399353027344 C 87.55089569091797 78.91665649414062 90.94015502929688 73.8900146484375 93.30722045898438 68.29368591308594 C 95.7572021484375 62.50127410888672 96.99945068359375 56.34645843505859 96.99945068359375 49.99964141845703 C 96.99945068359375 43.65341186523438 95.7572021484375 37.49859619140625 93.30722045898438 31.70618438720703 C 90.94015502929688 26.10985565185547 87.55089569091797 21.08321380615234 83.23355865478516 16.76587677001953 C 78.91621398925781 12.44853210449219 73.88955688476562 9.059272766113281 68.293212890625 6.692230224609375 C 62.50078582763672 4.242240905761719 56.34597015380859 3 49.99972534179688 3 M 49.99972534179688 0 C 77.61381530761719 0 99.99945068359375 22.38559722900391 99.99945068359375 49.99964141845703 L 99.99945068359375 50.00022888183594 C 99.99945068359375 77.6142578125 77.61381530761719 99.99987030029297 49.99972534179688 99.99987030029297 C 22.38563537597656 99.99987030029297 0 77.6142578125 0 50.00022888183594 L 0 49.99964141845703 C 0 22.38559722900391 22.38563537597656 0 49.99972534179688 0 Z" stroke="none" fill="#fff"/>
            </g>
          </g>
        </g>
      </g>
    </g>
    <g id="Grupo_1123396" data-name="Grupo 1123396" transform="translate(764.127 1395.372)">
      <g id="Grupo_1123388" data-name="Grupo 1123388" transform="translate(3.57 11.4)">
        <g id="Grupo_1123377" data-name="Grupo 1123377" transform="translate(24.145)">
          <path id="Trazado_919984" data-name="Trazado 919984" d="M204.673,87.555a3.01,3.01,0,0,1-.187.4,2.908,2.908,0,0,1-5.069,0,2.919,2.919,0,0,1-.366-1.168,13.076,13.076,0,0,0-4.093,1.017,13.066,13.066,0,0,0,17.168,17.168,13.067,13.067,0,0,0-7.454-17.417Z" transform="translate(-193.897 -86.787)" fill="#a2e62e"/>
          <path id="Trazado_919985" data-name="Trazado 919985" d="M207.45,87.555a3.008,3.008,0,0,1-.187.4,2.908,2.908,0,0,1-5.069,0,2.918,2.918,0,0,1-.366-1.168,13.077,13.077,0,0,0-4.093,1.017,13.033,13.033,0,0,0-.643,1.881,13.061,13.061,0,0,1,15.068,16.124,13.052,13.052,0,0,0,2.743-.836,13.067,13.067,0,0,0-7.455-17.417Z" transform="translate(-196.673 -86.787)" fill="#97d729"/>
          <g id="Grupo_1123376" data-name="Grupo 1123376" transform="translate(19.593 5.469)">
            <g id="Grupo_1123375" data-name="Grupo 1123375">
              <path id="Trazado_919986" data-name="Trazado 919986" d="M357.031,143.732a.148.148,0,0,1,.253,0l.508.837q.374-.322.73-.676a13.068,13.068,0,0,0,2.762-14.407,13.066,13.066,0,0,0-17.168,17.168,13.1,13.1,0,0,0,11.481-.56Z" transform="translate(-343.053 -128.423)" fill="#a2e62e"/>
              <path id="Trazado_919987" data-name="Trazado 919987" d="M359.628,146.188a.148.148,0,0,1,.253,0l.508.837q.374-.322.73-.676a13.068,13.068,0,0,0,2.762-14.407,13.014,13.014,0,0,0-2.08-.691,13.059,13.059,0,0,1-15.758,15.869,13.027,13.027,0,0,0,.67,1.991,13.1,13.1,0,0,0,11.481-.56Z" transform="translate(-345.65 -130.879)" fill="#97d729"/>
            </g>
          </g>
        </g>
        <path id="Trazado_919988" data-name="Trazado 919988" d="M279.126,334.191a.878.878,0,0,1,0,1.241,6.08,6.08,0,0,1-8.6,0l-2.813-2.813a4.065,4.065,0,0,0-5.851.107,4.147,4.147,0,0,0,.169,5.708l4.3,4.3a2.006,2.006,0,0,0,1.427.591h18.018a6.53,6.53,0,0,1,2.679.573,17,17,0,0,0-16.408-16.785Z" transform="translate(-227.872 -295.543)" fill="#f6a96c"/>
        <path id="Trazado_919989" data-name="Trazado 919989" d="M349.842,330.575a17.006,17.006,0,0,1,8.695,12.746h1.569a6.53,6.53,0,0,1,2.679.573,17,17,0,0,0-16.408-16.785Z" transform="translate(-302.202 -295.542)" fill="#ea9b58"/>
        <g id="Grupo_1123387" data-name="Grupo 1123387" transform="translate(0 23.516)">
          <g id="Grupo_1123386" data-name="Grupo 1123386">
            <g id="Grupo_1123378" data-name="Grupo 1123378" transform="translate(18.357 1.888)">
              <path id="Trazado_919990" data-name="Trazado 919990" d="M196.081,309.131a6.7,6.7,0,0,0-6.7-6.7H171.361a1.888,1.888,0,0,1-1.335-.553l-4.3-4.3a4,4,0,0,1-.166-5.526,3.933,3.933,0,0,1,5.662-.1l2.813,2.813a6.212,6.212,0,0,0,8.785,0,1.009,1.009,0,0,0,0-1.427l-10.329-10.329a9.635,9.635,0,0,0-6.813-2.822H149.832v14.707h1.055a4.691,4.691,0,0,1,3.317,1.374l12.018,12.018a4.664,4.664,0,0,0,3.3,1.366h26.042a.519.519,0,0,0,.519-.519Z" transform="translate(-149.832 -280.184)" fill="#ffcebf"/>
            </g>
            <g id="Grupo_1123380" data-name="Grupo 1123380" transform="translate(33.397 24.256)">
              <g id="Grupo_1123379" data-name="Grupo 1123379">
                <path id="Trazado_919991" data-name="Trazado 919991" d="M290.113,450.465a6.669,6.669,0,0,1,1.243,3.886.519.519,0,0,1-.519.519H264.8q-.235,0-.467-.023l1.35,1.35a4.664,4.664,0,0,0,3.3,1.366h26.042a.519.519,0,0,0,.519-.519A6.7,6.7,0,0,0,290.113,450.465Z" transform="translate(-264.329 -450.465)" fill="#ffb09e"/>
              </g>
            </g>
            <g id="Grupo_1123382" data-name="Grupo 1123382" transform="translate(30.023 1.888)">
              <g id="Grupo_1123381" data-name="Grupo 1123381">
                <path id="Trazado_919992" data-name="Trazado 919992" d="M255.79,293.334a1.009,1.009,0,0,1,0,1.427,6.187,6.187,0,0,1-2.3,1.458,6.212,6.212,0,0,0,6.483-1.458,1.009,1.009,0,0,0,0-1.427l-10.329-10.329a9.635,9.635,0,0,0-6.813-2.822h-4.181a9.635,9.635,0,0,1,6.813,2.822Z" transform="translate(-238.648 -280.183)" fill="#ffb09e"/>
              </g>
            </g>
            <g id="Grupo_1123384" data-name="Grupo 1123384">
              <g id="Grupo_1123383" data-name="Grupo 1123383">
                <path id="Trazado_919993" data-name="Trazado 919993" d="M10.085,266.632V283.47a.823.823,0,0,0,.823.823H27.784a.823.823,0,0,0,.823-.823V266.632a.823.823,0,0,0-.823-.823H10.908a.823.823,0,0,0-.823.823Z" transform="translate(-10.085 -265.809)" fill="#26a6fe"/>
              </g>
            </g>
            <g id="Grupo_1123385" data-name="Grupo 1123385" transform="translate(0)">
              <path id="Trazado_919994" data-name="Trazado 919994" d="M27.784,265.809H23.21v13.52a.823.823,0,0,1-.823.823h-12.3v3.318a.823.823,0,0,0,.823.823H27.784a.823.823,0,0,0,.823-.823V266.632A.823.823,0,0,0,27.784,265.809Z" transform="translate(-10.085 -265.809)" fill="#0593fc"/>
            </g>
          </g>
        </g>
      </g>
      <g id="Grupo_1123389" data-name="Grupo 1123389" transform="translate(47.2 0.985)">
        <path id="Trazado_919995" data-name="Trazado 919995" d="M346.1,7.686l-3.254,5.357a4.193,4.193,0,1,0,7.167,0l-3.254-5.357A.386.386,0,0,0,346.1,7.686Z" transform="translate(-342.227 -7.5)" fill="#c8effe"/>
      </g>
      <g id="Grupo_1123390" data-name="Grupo 1123390" transform="translate(50.071 0.985)">
        <path id="Trazado_919996" data-name="Trazado 919996" d="M369,13.043l-3.254-5.357a.385.385,0,0,0-.659,0l-1,1.645,2.255,3.713a4.2,4.2,0,0,1-2.255,6.157A4.2,4.2,0,0,0,369,13.043Z" transform="translate(-364.084 -7.5)" fill="#99e6fc"/>
      </g>
      <g id="Grupo_1123391" data-name="Grupo 1123391" transform="translate(58.369 31.976)">
        <path id="Trazado_919997" data-name="Trazado 919997" d="M430.061,243.559l-2.359,3.883a3.039,3.039,0,1,0,5.2,0l-2.359-3.883A.279.279,0,0,0,430.061,243.559Z" transform="translate(-427.255 -243.425)" fill="#c8effe"/>
      </g>
      <g id="Grupo_1123392" data-name="Grupo 1123392" transform="translate(60.06 31.976)">
        <path id="Trazado_919998" data-name="Trazado 919998" d="M444.079,247.443l-2.359-3.883a.279.279,0,0,0-.478,0l-1.114,1.835,1.245,2.049a3.043,3.043,0,0,1-1.245,4.3,3.043,3.043,0,0,0,3.951-4.3Z" transform="translate(-440.128 -243.425)" fill="#99e6fc"/>
      </g>
      <g id="Grupo_1123393" data-name="Grupo 1123393" transform="translate(32.727 5.547)">
        <path id="Trazado_919999" data-name="Trazado 919999" d="M234.854,42.364l-2.359,3.883a3.039,3.039,0,1,0,5.2,0l-2.359-3.883A.279.279,0,0,0,234.854,42.364Z" transform="translate(-232.049 -42.23)" fill="#c8effe"/>
      </g>
      <g id="Grupo_1123394" data-name="Grupo 1123394" transform="translate(34.431 5.547)">
        <path id="Trazado_920000" data-name="Trazado 920000" d="M248.962,46.248,246.6,42.364a.279.279,0,0,0-.478,0l-1.1,1.812,1.258,2.071a3.043,3.043,0,0,1-1.258,4.31,3.043,3.043,0,0,0,3.937-4.31Z" transform="translate(-245.025 -42.23)" fill="#99e6fc"/>
      </g>
      <g id="Grupo_1123395" data-name="Grupo 1123395" transform="translate(2.585 0)">
        <path id="Trazado_920001" data-name="Trazado 920001" d="M65.112,89.151A18.015,18.015,0,0,0,48.369,72.184l-.226-.226V66.891l.464-.464a13.952,13.952,0,0,0,8.9.324,4.026,4.026,0,1,0,7.343-1.1l-1.446-2.38.068-.066a14.054,14.054,0,0,0,2.97-15.493.985.985,0,0,0-.516-.516,14.07,14.07,0,0,0-12.876.909.985.985,0,0,0,1.027,1.682,12.1,12.1,0,0,1,10.7-.931,12.016,12.016,0,0,1-2.457,12.7,1.252,1.252,0,0,0-.915-.395h0a1.255,1.255,0,0,0-1.081.608l-1.4,2.31a12.215,12.215,0,0,1-8.761.788L60.716,54.318a.985.985,0,0,0-1.393-1.393L48.772,63.476a12.05,12.05,0,0,1,2.119-10.863.985.985,0,0,0-1.545-1.223,14.037,14.037,0,0,0-1.392,2.132,14.224,14.224,0,0,0-.189-1.475A14.062,14.062,0,0,0,39.771,41.8a3.986,3.986,0,0,0-.561-2.576L36.851,35.34a1.256,1.256,0,0,0-1.081-.608h0a1.256,1.256,0,0,0-1.081.608h0l-2.359,3.883a4.054,4.054,0,0,0-.546,1.487,13.986,13.986,0,0,0-3.4.972.985.985,0,0,0-.516.516A14.051,14.051,0,0,0,45.447,61.006a6.031,6.031,0,0,1,.726,2.881v2.594h0v3.5l-.889-.889a10.551,10.551,0,0,0-7.51-3.111h-14.7v-.08A1.81,1.81,0,0,0,21.269,64.1H12.36a.985.985,0,0,0,0,1.97h8.746V82.584H4.555V66.071H7.762a.985.985,0,0,0,0-1.97H4.393a1.81,1.81,0,0,0-1.808,1.808V82.747a1.81,1.81,0,0,0,1.808,1.808H21.269a1.81,1.81,0,0,0,1.808-1.808v-.078A3.679,3.679,0,0,1,25.6,83.752L37.621,95.77a5.613,5.613,0,0,0,3.995,1.655H67.657a1.506,1.506,0,0,0,1.5-1.5,7.694,7.694,0,0,0-4.049-6.77ZM59.657,66.674l1.755-2.89,1.756,2.89a2.054,2.054,0,1,1-3.511,0ZM34.015,40.246l1.755-2.89,1.756,2.89a2.054,2.054,0,1,1-3.511,0Zm11.53,17.715L34.994,47.41A.985.985,0,0,0,33.6,48.8L44.152,59.354a12.081,12.081,0,0,1-14.62-16.012,12.026,12.026,0,0,1,2.45-.671,4.142,4.142,0,0,0,.281.614,4.023,4.023,0,0,0,6.789.354,12.078,12.078,0,0,1,6.493,14.321Zm-3.93,37.493a3.655,3.655,0,0,1-2.6-1.078L27,82.358A5.637,5.637,0,0,0,23.077,80.7V67.959h14.7a8.593,8.593,0,0,1,6.116,2.533L54.22,80.822a.024.024,0,0,1,0,.034,5.227,5.227,0,0,1-7.391,0l-2.813-2.813a4.919,4.919,0,0,0-7.08.128,5.009,5.009,0,0,0,.19,6.894l4.3,4.3a2.854,2.854,0,0,0,2.031.841h8.837a.985.985,0,1,0,0-1.97H43.456a.9.9,0,0,1-.638-.264l-4.3-4.3a3.022,3.022,0,0,1-.142-4.158,2.948,2.948,0,0,1,4.244-.078l2.813,2.813a7.2,7.2,0,0,0,10.178,0,2,2,0,0,0,0-2.82l-4.921-4.921A16.059,16.059,0,0,1,63.076,88.4a7.689,7.689,0,0,0-1.6-.169H56.89a.985.985,0,0,0,0,1.97h4.584a5.725,5.725,0,0,1,5.7,5.251H41.615Z" transform="translate(-2.585 -30.17)"/>
        <path id="Trazado_920002" data-name="Trazado 920002" d="M339.89,13.883a5.178,5.178,0,0,0,4.426-7.866L341.062.659A1.36,1.36,0,0,0,339.89,0h0a1.36,1.36,0,0,0-1.171.659l-3.254,5.357a5.178,5.178,0,0,0,4.426,7.866Zm-2.742-6.843,2.742-4.513,2.742,4.513a3.208,3.208,0,1,1-5.483,0Z" transform="translate(-291.076 0)"/>
      </g>
    </g>
  </g>
</svg>
