<svg xmlns="http://www.w3.org/2000/svg" xmlns:xlink="http://www.w3.org/1999/xlink" width="117.999" height="118" viewBox="0 0 117.999 118">
  <defs>
    <filter id="Trazado_874925" x="0" y="0" width="117.999" height="118" filterUnits="userSpaceOnUse">
      <feOffset dy="3" input="SourceAlpha"/>
      <feGaussianBlur stdDeviation="3" result="blur"/>
      <feFlood flood-opacity="0.161"/>
      <feComposite operator="in" in2="blur"/>
      <feComposite in="SourceGraphic"/>
    </filter>
  </defs>
  <g id="Grupo_1123464" data-name="Grupo 1123464" transform="translate(-268 -10858)">
    <g id="Grupo_1111553" data-name="Grupo 1111553" transform="translate(-531.5 8346.843)">
      <g id="Grupo_1111316" data-name="Grupo 1111316" transform="translate(808.5 2517.157)">
        <g id="Grupo_1109835" data-name="Grupo 1109835" transform="translate(0 0)">
          <g id="Grupo_1107913" data-name="Grupo 1107913" transform="translate(0 0)">
            <g transform="matrix(1, 0, 0, 1, -9, -6)" filter="url(#Trazado_874925)">
              <g id="Trazado_874925-2" data-name="Trazado 874925" transform="translate(9 6)" fill="#bb965f" opacity="0.859">
                <path d="M 49.99972534179688 98.4998779296875 C 43.45164108276367 98.4998779296875 37.10022354125977 97.21776580810547 31.12189674377441 94.68914794921875 C 25.34676742553711 92.24647521972656 20.15985298156738 88.74925994873047 15.70523929595947 84.29464721679688 C 11.25062561035156 79.84004974365234 7.753411293029785 74.65313720703125 5.310725212097168 68.87800598144531 C 2.782111167907715 62.89969253540039 1.499996781349182 56.54829406738281 1.499996781349182 50.00022125244141 C 1.499996781349182 43.45157623291016 2.782111167907715 37.10017776489258 5.310725212097168 31.12186431884766 C 7.753411293029785 25.34673500061035 11.25062561035156 20.15983581542969 15.70523929595947 15.70522117614746 C 20.15985298156738 11.25062084197998 25.34676742553711 7.753406524658203 31.12189674377441 5.31073522567749 C 37.10022354125977 2.782120943069458 43.45164108276367 1.500006556510925 49.99972534179688 1.500006556510925 C 56.54780960083008 1.500006556510925 62.89922714233398 2.782120943069458 68.87755584716797 5.31073522567749 C 74.65267944335938 7.753406524658203 79.839599609375 11.25062084197998 84.29421234130859 15.70522117614746 C 88.74882507324219 20.15983581542969 92.24604034423828 25.34673500061035 94.68872833251953 31.12186431884766 C 97.21733856201172 37.10017776489258 98.49945068359375 43.45157623291016 98.49945068359375 49.99964904785156 C 98.49945068359375 56.54829406738281 97.21733856201172 62.89969253540039 94.68872833251953 68.87800598144531 C 92.24604034423828 74.65313720703125 88.74882507324219 79.84004974365234 84.29421234130859 84.29464721679688 C 79.839599609375 88.74925994873047 74.65267944335938 92.24647521972656 68.87755584716797 94.68914794921875 C 62.89922714233398 97.21776580810547 56.54780960083008 98.4998779296875 49.99972534179688 98.4998779296875 Z" stroke="none"/>
                <path d="M 49.99972534179688 3 C 43.65348052978516 3 37.49866485595703 4.242240905761719 31.70623016357422 6.692230224609375 C 26.10989379882812 9.059272766113281 21.08323669433594 12.44853210449219 16.76589202880859 16.76587677001953 C 12.44855499267578 21.08321380615234 9.059295654296875 26.10985565185547 6.692230224609375 31.70618438720703 C 4.24224853515625 37.49859619140625 3 43.65341186523438 3 50.00022888183594 C 3 56.34645843505859 4.24224853515625 62.50127410888672 6.692230224609375 68.29368591308594 C 9.059295654296875 73.8900146484375 12.44855499267578 78.91665649414062 16.76589202880859 83.23399353027344 C 21.08323669433594 87.55132293701172 26.10989379882812 90.94059753417969 31.70623016357422 93.30764007568359 C 37.49866485595703 95.75762939453125 43.65348052978516 96.99987030029297 49.99972534179688 96.99987030029297 C 56.34597015380859 96.99987030029297 62.50078582763672 95.75762939453125 68.293212890625 93.30764007568359 C 73.88955688476562 90.94059753417969 78.91621398925781 87.55132293701172 83.23355865478516 83.23399353027344 C 87.55089569091797 78.91665649414062 90.94015502929688 73.8900146484375 93.30722045898438 68.29368591308594 C 95.7572021484375 62.50127410888672 96.99945068359375 56.34645843505859 96.99945068359375 49.99964141845703 C 96.99945068359375 43.65341186523438 95.7572021484375 37.49859619140625 93.30722045898438 31.70618438720703 C 90.94015502929688 26.10985565185547 87.55089569091797 21.08321380615234 83.23355865478516 16.76587677001953 C 78.91621398925781 12.44853210449219 73.88955688476562 9.059272766113281 68.293212890625 6.692230224609375 C 62.50078582763672 4.242240905761719 56.34597015380859 3 49.99972534179688 3 M 49.99972534179688 0 C 77.61381530761719 0 99.99945068359375 22.38559722900391 99.99945068359375 49.99964141845703 L 99.99945068359375 50.00022888183594 C 99.99945068359375 77.6142578125 77.61381530761719 99.99987030029297 49.99972534179688 99.99987030029297 C 22.38563537597656 99.99987030029297 0 77.6142578125 0 50.00022888183594 L 0 49.99964141845703 C 0 22.38559722900391 22.38563537597656 0 49.99972534179688 0 Z" stroke="none" fill="#fff"/>
              </g>
            </g>
            <g id="Trazado_874923" data-name="Trazado 874923" transform="translate(0 0)" fill="none">
              <path d="M50,0a50,50,0,0,1,50,50h0A50,50,0,0,1,0,50H0A50,50,0,0,1,50,0Z" stroke="none"/>
              <path d="M 49.99972534179688 3 C 43.65348052978516 3 37.49866485595703 4.242240905761719 31.70623016357422 6.692230224609375 C 26.10989379882812 9.059272766113281 21.08323669433594 12.44853210449219 16.76589202880859 16.76587677001953 C 12.44855499267578 21.08321380615234 9.059295654296875 26.10985565185547 6.692230224609375 31.70618438720703 C 4.24224853515625 37.49859619140625 3 43.65341186523438 3 50.00022888183594 C 3 56.34645843505859 4.24224853515625 62.50127410888672 6.692230224609375 68.29368591308594 C 9.059295654296875 73.8900146484375 12.44855499267578 78.91665649414062 16.76589202880859 83.23399353027344 C 21.08323669433594 87.55132293701172 26.10989379882812 90.94059753417969 31.70623016357422 93.30764007568359 C 37.49866485595703 95.75762939453125 43.65348052978516 96.99987030029297 49.99972534179688 96.99987030029297 C 56.34597015380859 96.99987030029297 62.50078582763672 95.75762939453125 68.293212890625 93.30764007568359 C 73.88955688476562 90.94059753417969 78.91621398925781 87.55132293701172 83.23355865478516 83.23399353027344 C 87.55089569091797 78.91665649414062 90.94015502929688 73.8900146484375 93.30722045898438 68.29368591308594 C 95.7572021484375 62.50127410888672 96.99945068359375 56.34645843505859 96.99945068359375 49.99964141845703 C 96.99945068359375 43.65341186523438 95.7572021484375 37.49859619140625 93.30722045898438 31.70618438720703 C 90.94015502929688 26.10985565185547 87.55089569091797 21.08321380615234 83.23355865478516 16.76587677001953 C 78.91621398925781 12.44853210449219 73.88955688476562 9.059272766113281 68.293212890625 6.692230224609375 C 62.50078582763672 4.242240905761719 56.34597015380859 3 49.99972534179688 3 M 49.99972534179688 0 C 77.61381530761719 0 99.99945068359375 22.38559722900391 99.99945068359375 49.99964141845703 L 99.99945068359375 50.00022888183594 C 99.99945068359375 77.6142578125 77.61381530761719 99.99987030029297 49.99972534179688 99.99987030029297 C 22.38563537597656 99.99987030029297 0 77.6142578125 0 50.00022888183594 L 0 49.99964141845703 C 0 22.38559722900391 22.38563537597656 0 49.99972534179688 0 Z" stroke="none" fill="#fff"/>
            </g>
          </g>
        </g>
      </g>
    </g>
    <g id="Grupo_1123463" data-name="Grupo 1123463" transform="translate(285.042 10886)">
      <circle id="Elipse_11999" data-name="Elipse 11999" cx="8.67" cy="8.67" r="8.67" transform="translate(49.761 21.622)" fill="#d7fc7e"/>
      <path id="Trazado_920295" data-name="Trazado 920295" d="M400.367,199.5c-.293,0-.582.015-.867.043a8.671,8.671,0,0,1,0,17.255c.285.028.574.043.867.043a8.67,8.67,0,1,0,0-17.341Z" transform="translate(-341.936 -177.878)" fill="#55e072"/>
      <path id="Trazado_920296" data-name="Trazado 920296" d="M365.569,255.5a5.887,5.887,0,0,0-3.251.882,2.594,2.594,0,0,0-1.951-.882H359.5v5.2h.867a2.594,2.594,0,0,0,1.951-.882,5.887,5.887,0,0,0,3.251.882c2.394,0,4.335-1.165,4.335-2.6S367.964,255.5,365.569,255.5Z" transform="translate(-306.271 -227.809)" fill="#bddbff"/>
      <path id="Trazado_920297" data-name="Trazado 920297" d="M365.569,273.234a5.887,5.887,0,0,1-3.251-.882,2.594,2.594,0,0,1-1.951.882H359.5v1.734h.867a2.594,2.594,0,0,0,1.951-.882,5.887,5.887,0,0,0,3.251.882c2.394,0,4.335-1.165,4.335-2.6a1.7,1.7,0,0,0-.248-.867C369.062,272.51,367.457,273.234,365.569,273.234Z" transform="translate(-306.271 -242.075)" fill="#57a4ff"/>
      <circle id="Elipse_12000" data-name="Elipse 12000" cx="8.67" cy="8.67" r="8.67" transform="translate(35.021 37.229)" fill="#d7fc7e"/>
      <path id="Trazado_920298" data-name="Trazado 920298" d="M264.367,343.5c-.293,0-.582.015-.867.043a8.671,8.671,0,0,1,0,17.254c.285.028.574.043.867.043a8.67,8.67,0,1,0,0-17.341Z" transform="translate(-220.676 -306.271)" fill="#55e072"/>
      <circle id="Elipse_12001" data-name="Elipse 12001" cx="5.202" cy="5.202" r="5.202" transform="translate(17.68 44.165)" fill="#d7fc7e"/>
      <path id="Trazado_920299" data-name="Trazado 920299" d="M72.367,407.5a5.231,5.231,0,0,0-.867.073,5.2,5.2,0,0,1,0,10.258,5.2,5.2,0,1,0,.867-10.331Z" transform="translate(-49.485 -363.335)" fill="#55e072"/>
      <circle id="Elipse_12002" data-name="Elipse 12002" cx="8.67" cy="8.67" r="8.67" transform="translate(45.425 0.813)" fill="#d7fc7e"/>
      <path id="Trazado_920300" data-name="Trazado 920300" d="M360.367,7.5c-.293,0-.582.015-.867.043a8.671,8.671,0,0,1,0,17.254c.285.028.574.043.867.043a8.67,8.67,0,1,0,0-17.341Z" transform="translate(-306.271 -6.687)" fill="#55e072"/>
      <circle id="Elipse_12003" data-name="Elipse 12003" cx="2.601" cy="2.601" r="2.601" transform="translate(51.495 6.015)" fill="#ffdecf"/>
      <path id="Trazado_920301" data-name="Trazado 920301" d="M324.7,103.5a5.2,5.2,0,0,0-5.2,5.2h0a8.671,8.671,0,0,0,10.4,0h0A5.2,5.2,0,0,0,324.7,103.5Z" transform="translate(-270.606 -92.283)" fill="#ffdecf"/>
      <path id="Trazado_920302" data-name="Trazado 920302" d="M360.367,103.5a5.23,5.23,0,0,0-.867.073,5.2,5.2,0,0,1,4.335,5.129h0a8.625,8.625,0,0,1-4.335,1.689c.285.028.574.045.867.045a8.632,8.632,0,0,0,5.2-1.734h0A5.2,5.2,0,0,0,360.367,103.5Z" transform="translate(-306.271 -92.283)" fill="#ffcdbe"/>
      <path id="Trazado_920303" data-name="Trazado 920303" d="M247.5,379.625v-2.391a1.734,1.734,0,0,1,3.468,0v1.883a1.735,1.735,0,0,0,.508,1.226l.464.464a2.6,2.6,0,0,1,.762,1.839v1.524a1.734,1.734,0,0,1-3.468,0v-1.016a1.735,1.735,0,0,0-.508-1.226l-.464-.464A2.6,2.6,0,0,1,247.5,379.625Z" transform="translate(-206.41 -334.803)" fill="#ff7956"/>
      <path id="Trazado_920304" data-name="Trazado 920304" d="M259.074,380.807l-.464-.464a1.734,1.734,0,0,1-.508-1.226v-1.883a1.732,1.732,0,0,0-2.6-1.5,1.732,1.732,0,0,1,.867,1.5v1.883a1.735,1.735,0,0,0,.508,1.226l.464.464a2.6,2.6,0,0,1,.762,1.839v1.524a1.732,1.732,0,0,1-.867,1.5,1.732,1.732,0,0,0,2.6-1.5v-1.524A2.6,2.6,0,0,0,259.074,380.807Z" transform="translate(-213.544 -334.803)" fill="#ff3f62"/>
      <circle id="Elipse_12004" data-name="Elipse 12004" cx="8.67" cy="8.67" r="8.67" transform="translate(16.813 13.819)" fill="#d7fc7e"/>
      <path id="Trazado_920305" data-name="Trazado 920305" d="M96.367,127.5c-.293,0-.582.015-.867.043a8.671,8.671,0,0,1,0,17.255c.285.028.574.043.867.043a8.67,8.67,0,0,0,0-17.341Z" transform="translate(-70.884 -113.681)" fill="#55e072"/>
      <path id="Trazado_920306" data-name="Trazado 920306" d="M65.379,168.029c-.994-.994-3.064-.541-4.675,1-1.61-1.543-3.681-2-4.675-1s-.528,3.122,1.067,4.741c-.809,1.108-.977,2.36-.332,3.006.761.761,2.366.391,3.584-.827a4.965,4.965,0,0,0,.356-.4,4.966,4.966,0,0,0,.356.4c1.218,1.218,2.823,1.588,3.584.827.646-.646.477-1.9-.332-3.006C65.907,171.151,66.386,169.037,65.379,168.029Z" transform="translate(-35.221 -149.348)" fill="#cda0e1"/>
      <path id="Trazado_920307" data-name="Trazado 920307" d="M123.59,168.035a2.339,2.339,0,0,0-2.346-.389,1.709,1.709,0,0,1,.612.389c1.007,1.007.528,3.122-1.067,4.741.809,1.108.977,2.36.332,3.006a1.255,1.255,0,0,1-.28.21,1.877,1.877,0,0,0,2.014-.21c.646-.646.477-1.9-.332-3.006C124.118,171.157,124.6,169.043,123.59,168.035Z" transform="translate(-93.432 -149.354)" fill="#b071d2"/>
      <g id="Grupo_1123460" data-name="Grupo 1123460" transform="translate(20.281 48.555)">
        <path id="Trazado_920308" data-name="Trazado 920308" d="M55.5,448h1.734v1.626H55.5Z" transform="translate(-55.5 -448)" fill="#fff"/>
      </g>
      <g id="Grupo_1123461" data-name="Grupo 1123461" transform="translate(23.749 48.555)">
        <path id="Trazado_920309" data-name="Trazado 920309" d="M87.5,448h1.734v1.626H87.5Z" transform="translate(-87.5 -448)" fill="#fff"/>
      </g>
      <g id="Grupo_1123462" data-name="Grupo 1123462" transform="translate(16 0)">
        <path id="Trazado_920310" data-name="Trazado 920310" d="M58.431,20.809a9.5,9.5,0,0,0-9.449,8.67h-9.6l2.628-4.818A33.853,33.853,0,0,1,47.8,16.931l.195-.195A9.481,9.481,0,0,0,61.3,3.319L60.068,4.376a7.851,7.851,0,0,1-.181,10.413,6.043,6.043,0,0,0-3.3-3.843,3.414,3.414,0,1,0-4.987,0,6.043,6.043,0,0,0-3.3,3.843,7.856,7.856,0,0,1,10.756-11.4L60.09,2.134A9.481,9.481,0,0,0,46.843,15.587l-.195.195a35.478,35.478,0,0,0-6.062,8.1L36.154,32.01l-3.417-3.417A9.481,9.481,0,0,0,19.21,15.377L20.286,16.6A7.853,7.853,0,1,1,19.2,17.774L17.9,16.8a9.481,9.481,0,0,0,13.69,12.944L35.342,33.5l-.377.692A33.854,33.854,0,0,1,29.18,41.92l-2.66,2.66a6.022,6.022,0,1,0,1.149,1.15l2.66-2.66a35.474,35.474,0,0,0,4.249-5.133l1.86,1.86a9.494,9.494,0,1,0,1.15-1.15L35.481,36.54q.475-.774.911-1.572L38.5,31.105H48.982a9.484,9.484,0,1,0,9.449-10.3ZM52.308,8.616A1.788,1.788,0,1,1,54.1,10.4,1.79,1.79,0,0,1,52.308,8.616ZM54.1,12.03a4.4,4.4,0,0,1,4.37,3.98,7.843,7.843,0,0,1-8.741,0A4.4,4.4,0,0,1,54.1,12.03ZM22.882,53.757a4.389,4.389,0,1,1,4.389-4.389A4.394,4.394,0,0,1,22.882,53.757ZM51.549,45.9a7.858,7.858,0,1,1-7.858-7.858A7.866,7.866,0,0,1,51.549,45.9Zm6.882-7.749a7.858,7.858,0,1,1,7.858-7.858A7.866,7.866,0,0,1,58.431,38.15Z" transform="translate(-16 0)"/>
        <path id="Trazado_920311" data-name="Trazado 920311" d="M241.464,375.816a.915.915,0,0,1,.27.651v1.016a2.547,2.547,0,0,0,5.094,0V375.96a3.391,3.391,0,0,0-1-2.414l-.464-.464a.916.916,0,0,1-.27-.652v-1.883a2.547,2.547,0,0,0-5.094,0v2.391a3.391,3.391,0,0,0,1,2.414Zm2.817,2.588a.922.922,0,0,1-.921-.921v-.921H245.2v.921A.922.922,0,0,1,244.281,378.4Zm.4-3.709a1.818,1.818,0,0,1,.2.241h-2.032a2.577,2.577,0,0,0-.235-.27l-.464-.464a1.775,1.775,0,0,1-.517-1.108h1.923a2.531,2.531,0,0,0,.659,1.137Zm-2.132-5.069a.922.922,0,0,1,.921.921v.921h-1.842v-.921A.922.922,0,0,1,242.547,369.626Z" transform="translate(-215.723 -328.116)"/>
        <path id="Trazado_920312" data-name="Trazado 920312" d="M358.882,248a7.036,7.036,0,0,0-3.144.691A3.415,3.415,0,0,0,353.68,248H352v6.828h1.68a3.415,3.415,0,0,0,2.058-.691,7.038,7.038,0,0,0,3.144.691c2.887,0,5.148-1.5,5.148-3.414S361.769,248,358.882,248Zm0,5.2a5.1,5.1,0,0,1-2.794-.741l-.593-.4-.474.537a1.79,1.79,0,0,1-1.341.606h-.054v-3.577h.054a1.79,1.79,0,0,1,1.341.606l.474.538.593-.4a5.1,5.1,0,0,1,2.794-.741c2.016,0,3.522.944,3.522,1.788S360.9,253.2,358.882,253.2Z" transform="translate(-315.584 -221.121)"/>
        <path id="Trazado_920313" data-name="Trazado 920313" d="M53.232,159.5v.777c-1.651-.941-3.418-.976-4.437.043-1.23,1.23-.935,3.516.625,5.4a2.912,2.912,0,0,0,.11,3.495,2.49,2.49,0,0,0,2.378.546,4.483,4.483,0,0,0,1.323-.555v.7h1.626v-.7a4.485,4.485,0,0,0,1.323.555,3.264,3.264,0,0,0,.734.087,2.277,2.277,0,0,0,1.644-.633,2.912,2.912,0,0,0,.11-3.495c1.559-1.886,1.855-4.172.625-5.4-1.018-1.018-2.785-.983-4.437-.043V159.5H53.232Zm-.118,7.74a3.445,3.445,0,0,1-1.571.939.94.94,0,0,1-.863-.112c-.281-.281-.2-1.107.413-1.952l.407-.558-.484-.492c-1.365-1.386-1.66-3.008-1.071-3.6.539-.539,1.979-.329,3.287.788v4.86Q53.174,167.18,53.114,167.24Zm5.03-5.771c.589.589.294,2.211-1.071,3.6l-.484.492.407.558c.616.845.695,1.671.413,1.952a.94.94,0,0,1-.863.112,3.445,3.445,0,0,1-1.571-.939q-.06-.06-.118-.123v-4.86C56.166,161.141,57.606,160.93,58.145,161.469Z" transform="translate(-44.561 -142.213)"/>
      </g>
    </g>
  </g>
</svg>
