<svg xmlns="http://www.w3.org/2000/svg" xmlns:xlink="http://www.w3.org/1999/xlink" width="117.999" height="118" viewBox="0 0 117.999 118">
  <defs>
    <filter id="Trazado_874925" x="0" y="0" width="117.999" height="118" filterUnits="userSpaceOnUse">
      <feOffset dy="3" input="SourceAlpha"/>
      <feGaussianBlur stdDeviation="3" result="blur"/>
      <feFlood flood-opacity="0.161"/>
      <feComposite operator="in" in2="blur"/>
      <feComposite in="SourceGraphic"/>
    </filter>
  </defs>
  <g id="Grupo_1123514" data-name="Grupo 1123514" transform="translate(-897.051 -10858)">
    <g id="Grupo_1111553" data-name="Grupo 1111553" transform="translate(97.551 8346.843)">
      <g id="Grupo_1111316" data-name="Grupo 1111316" transform="translate(808.5 2517.157)">
        <g id="Grupo_1109835" data-name="Grupo 1109835" transform="translate(0 0)">
          <g id="Grupo_1107913" data-name="Grupo 1107913" transform="translate(0 0)">
            <g transform="matrix(1, 0, 0, 1, -9, -6)" filter="url(#Trazado_874925)">
              <g id="Trazado_874925-2" data-name="Trazado 874925" transform="translate(9 6)" fill="#bb965f" opacity="0.859">
                <path d="M 49.99972534179688 98.4998779296875 C 43.45164108276367 98.4998779296875 37.10022354125977 97.21776580810547 31.12189674377441 94.68914794921875 C 25.34676742553711 92.24647521972656 20.15985298156738 88.74925994873047 15.70523929595947 84.29464721679688 C 11.25062561035156 79.84004974365234 7.753411293029785 74.65313720703125 5.310725212097168 68.87800598144531 C 2.782111167907715 62.89969253540039 1.499996781349182 56.54829406738281 1.499996781349182 50.00022125244141 C 1.499996781349182 43.45157623291016 2.782111167907715 37.10017776489258 5.310725212097168 31.12186431884766 C 7.753411293029785 25.34673500061035 11.25062561035156 20.15983581542969 15.70523929595947 15.70522117614746 C 20.15985298156738 11.25062084197998 25.34676742553711 7.753406524658203 31.12189674377441 5.31073522567749 C 37.10022354125977 2.782120943069458 43.45164108276367 1.500006556510925 49.99972534179688 1.500006556510925 C 56.54780960083008 1.500006556510925 62.89922714233398 2.782120943069458 68.87755584716797 5.31073522567749 C 74.65267944335938 7.753406524658203 79.839599609375 11.25062084197998 84.29421234130859 15.70522117614746 C 88.74882507324219 20.15983581542969 92.24604034423828 25.34673500061035 94.68872833251953 31.12186431884766 C 97.21733856201172 37.10017776489258 98.49945068359375 43.45157623291016 98.49945068359375 49.99964904785156 C 98.49945068359375 56.54829406738281 97.21733856201172 62.89969253540039 94.68872833251953 68.87800598144531 C 92.24604034423828 74.65313720703125 88.74882507324219 79.84004974365234 84.29421234130859 84.29464721679688 C 79.839599609375 88.74925994873047 74.65267944335938 92.24647521972656 68.87755584716797 94.68914794921875 C 62.89922714233398 97.21776580810547 56.54780960083008 98.4998779296875 49.99972534179688 98.4998779296875 Z" stroke="none"/>
                <path d="M 49.99972534179688 3 C 43.65348052978516 3 37.49866485595703 4.242240905761719 31.70623016357422 6.692230224609375 C 26.10989379882812 9.059272766113281 21.08323669433594 12.44853210449219 16.76589202880859 16.76587677001953 C 12.44855499267578 21.08321380615234 9.059295654296875 26.10985565185547 6.692230224609375 31.70618438720703 C 4.24224853515625 37.49859619140625 3 43.65341186523438 3 50.00022888183594 C 3 56.34645843505859 4.24224853515625 62.50127410888672 6.692230224609375 68.29368591308594 C 9.059295654296875 73.8900146484375 12.44855499267578 78.91665649414062 16.76589202880859 83.23399353027344 C 21.08323669433594 87.55132293701172 26.10989379882812 90.94059753417969 31.70623016357422 93.30764007568359 C 37.49866485595703 95.75762939453125 43.65348052978516 96.99987030029297 49.99972534179688 96.99987030029297 C 56.34597015380859 96.99987030029297 62.50078582763672 95.75762939453125 68.293212890625 93.30764007568359 C 73.88955688476562 90.94059753417969 78.91621398925781 87.55132293701172 83.23355865478516 83.23399353027344 C 87.55089569091797 78.91665649414062 90.94015502929688 73.8900146484375 93.30722045898438 68.29368591308594 C 95.7572021484375 62.50127410888672 96.99945068359375 56.34645843505859 96.99945068359375 49.99964141845703 C 96.99945068359375 43.65341186523438 95.7572021484375 37.49859619140625 93.30722045898438 31.70618438720703 C 90.94015502929688 26.10985565185547 87.55089569091797 21.08321380615234 83.23355865478516 16.76587677001953 C 78.91621398925781 12.44853210449219 73.88955688476562 9.059272766113281 68.293212890625 6.692230224609375 C 62.50078582763672 4.242240905761719 56.34597015380859 3 49.99972534179688 3 M 49.99972534179688 0 C 77.61381530761719 0 99.99945068359375 22.38559722900391 99.99945068359375 49.99964141845703 L 99.99945068359375 50.00022888183594 C 99.99945068359375 77.6142578125 77.61381530761719 99.99987030029297 49.99972534179688 99.99987030029297 C 22.38563537597656 99.99987030029297 0 77.6142578125 0 50.00022888183594 L 0 49.99964141845703 C 0 22.38559722900391 22.38563537597656 0 49.99972534179688 0 Z" stroke="none" fill="#fff"/>
              </g>
            </g>
            <g id="Trazado_874923" data-name="Trazado 874923" transform="translate(0 0)" fill="none">
              <path d="M50,0a50,50,0,0,1,50,50h0A50,50,0,0,1,0,50H0A50,50,0,0,1,50,0Z" stroke="none"/>
              <path d="M 49.99972534179688 3 C 43.65348052978516 3 37.49866485595703 4.242240905761719 31.70623016357422 6.692230224609375 C 26.10989379882812 9.059272766113281 21.08323669433594 12.44853210449219 16.76589202880859 16.76587677001953 C 12.44855499267578 21.08321380615234 9.059295654296875 26.10985565185547 6.692230224609375 31.70618438720703 C 4.24224853515625 37.49859619140625 3 43.65341186523438 3 50.00022888183594 C 3 56.34645843505859 4.24224853515625 62.50127410888672 6.692230224609375 68.29368591308594 C 9.059295654296875 73.8900146484375 12.44855499267578 78.91665649414062 16.76589202880859 83.23399353027344 C 21.08323669433594 87.55132293701172 26.10989379882812 90.94059753417969 31.70623016357422 93.30764007568359 C 37.49866485595703 95.75762939453125 43.65348052978516 96.99987030029297 49.99972534179688 96.99987030029297 C 56.34597015380859 96.99987030029297 62.50078582763672 95.75762939453125 68.293212890625 93.30764007568359 C 73.88955688476562 90.94059753417969 78.91621398925781 87.55132293701172 83.23355865478516 83.23399353027344 C 87.55089569091797 78.91665649414062 90.94015502929688 73.8900146484375 93.30722045898438 68.29368591308594 C 95.7572021484375 62.50127410888672 96.99945068359375 56.34645843505859 96.99945068359375 49.99964141845703 C 96.99945068359375 43.65341186523438 95.7572021484375 37.49859619140625 93.30722045898438 31.70618438720703 C 90.94015502929688 26.10985565185547 87.55089569091797 21.08321380615234 83.23355865478516 16.76587677001953 C 78.91621398925781 12.44853210449219 73.88955688476562 9.059272766113281 68.293212890625 6.692230224609375 C 62.50078582763672 4.242240905761719 56.34597015380859 3 49.99972534179688 3 M 49.99972534179688 0 C 77.61381530761719 0 99.99945068359375 22.38559722900391 99.99945068359375 49.99964141845703 L 99.99945068359375 50.00022888183594 C 99.99945068359375 77.6142578125 77.61381530761719 99.99987030029297 49.99972534179688 99.99987030029297 C 22.38563537597656 99.99987030029297 0 77.6142578125 0 50.00022888183594 L 0 49.99964141845703 C 0 22.38559722900391 22.38563537597656 0 49.99972534179688 0 Z" stroke="none" fill="#fff"/>
            </g>
          </g>
        </g>
      </g>
    </g>
    <g id="Grupo_1123513" data-name="Grupo 1123513" transform="translate(924.051 10854.686)">
      <g id="Grupo_1123495" data-name="Grupo 1123495" transform="translate(0.92 47.609)">
        <path id="Trazado_920341" data-name="Trazado 920341" d="M7.5,164.075h61v7.439H7.5Z" transform="translate(-7.5 -164.075)" fill="#fcd0a3"/>
      </g>
      <g id="Grupo_1123496" data-name="Grupo 1123496" transform="translate(58.202 47.609)">
        <path id="Trazado_920342" data-name="Trazado 920342" d="M474.195,164.075h3.72v7.439h-3.72Z" transform="translate(-474.195 -164.075)" fill="#ffb983"/>
      </g>
      <g id="Grupo_1123497" data-name="Grupo 1123497" transform="translate(0.92 55.049)">
        <path id="Trazado_920343" data-name="Trazado 920343" d="M7.5,224.685h61V247H7.5Z" transform="translate(-7.5 -224.685)" fill="#fc8086"/>
      </g>
      <g id="Grupo_1123498" data-name="Grupo 1123498" transform="translate(58.202 55.049)">
        <path id="Trazado_920344" data-name="Trazado 920344" d="M474.195,224.685h3.72V247h-3.72Z" transform="translate(-474.195 -224.685)" fill="#fb636f"/>
      </g>
      <g id="Grupo_1123499" data-name="Grupo 1123499" transform="translate(0.92 74.514)">
        <path id="Trazado_920345" data-name="Trazado 920345" d="M68.5,383.28l-4.558,1.482a9.919,9.919,0,0,1-6.135,0l-1.491-.485a9.918,9.918,0,0,0-6.135,0l-1.49.485a9.919,9.919,0,0,1-6.135,0l-1.49-.485a9.92,9.92,0,0,0-6.135,0l-1.489.484a9.918,9.918,0,0,1-6.135,0l-1.49-.484a9.92,9.92,0,0,0-6.135,0l-1.49.485a9.92,9.92,0,0,1-6.135,0L7.5,383.28v11.035h61Z" transform="translate(-7.5 -383.28)" fill="#fcee56"/>
      </g>
      <g id="Grupo_1123500" data-name="Grupo 1123500" transform="translate(58.202 74.514)">
        <path id="Trazado_920346" data-name="Trazado 920346" d="M474.195,384.49v9.825h3.72V383.28Z" transform="translate(-474.195 -383.28)" fill="#f3d802"/>
      </g>
      <g id="Grupo_1123501" data-name="Grupo 1123501" transform="translate(50.515 60.752)">
        <circle id="Elipse_12014" data-name="Elipse 12014" cx="1.86" cy="1.86" r="1.86" transform="translate(0 0)" fill="#ffc3c6"/>
      </g>
      <g id="Grupo_1123502" data-name="Grupo 1123502" transform="translate(40.1 66.827)">
        <circle id="Elipse_12015" data-name="Elipse 12015" cx="1.86" cy="1.86" r="1.86" fill="#ffc3c6"/>
      </g>
      <g id="Grupo_1123503" data-name="Grupo 1123503" transform="translate(29.561 61.372)">
        <circle id="Elipse_12016" data-name="Elipse 12016" cx="1.86" cy="1.86" r="1.86" transform="translate(0 0)" fill="#ffc3c6"/>
      </g>
      <g id="Grupo_1123504" data-name="Grupo 1123504" transform="translate(8.608 60.752)">
        <circle id="Elipse_12017" data-name="Elipse 12017" cx="1.86" cy="1.86" r="1.86" transform="translate(0 0)" fill="#ffc3c6"/>
      </g>
      <g id="Grupo_1123505" data-name="Grupo 1123505" transform="translate(19.022 66.827)">
        <circle id="Elipse_12018" data-name="Elipse 12018" cx="1.86" cy="1.86" r="1.86" fill="#ffc3c6"/>
      </g>
      <g id="Grupo_1123506" data-name="Grupo 1123506" transform="translate(26.461 32.235)">
        <path id="Trazado_920347" data-name="Trazado 920347" d="M225.512,43.774a4.959,4.959,0,0,0-4.863-4.958,5.038,5.038,0,0,0-5.056,5.056v.522a1.24,1.24,0,0,0,1.24,1.24h7.439a1.24,1.24,0,0,0,1.24-1.24Z" transform="translate(-215.593 -38.815)" fill="#a2f4c1"/>
      </g>
      <g id="Grupo_1123507" data-name="Grupo 1123507" transform="translate(30.317 32.235)">
        <path id="Trazado_920348" data-name="Trazado 920348" d="M248.209,38.816a4.811,4.811,0,0,0-1.2.129,4.961,4.961,0,0,1,3.831,4.83v.62a1.24,1.24,0,0,1-1.24,1.24h2.232a1.24,1.24,0,0,0,1.24-1.24v-.62A4.96,4.96,0,0,0,248.209,38.816Z" transform="translate(-247.009 -38.815)" fill="#00f0a3"/>
      </g>
      <g id="Grupo_1123508" data-name="Grupo 1123508" transform="translate(47.291 34.591)">
        <path id="Trazado_920349" data-name="Trazado 920349" d="M395.219,62.967a4.959,4.959,0,0,0-4.863-4.958,5.038,5.038,0,0,0-5.056,5.056v.522a1.24,1.24,0,0,0,1.24,1.24h7.439a1.24,1.24,0,0,0,1.24-1.24Z" transform="translate(-385.3 -58.008)" fill="#a2f4c1"/>
      </g>
      <g id="Grupo_1123509" data-name="Grupo 1123509" transform="translate(51.147 34.591)">
        <path id="Trazado_920350" data-name="Trazado 920350" d="M417.916,58.009a4.811,4.811,0,0,0-1.2.129,4.96,4.96,0,0,1,3.831,4.83v.62a1.24,1.24,0,0,1-1.24,1.24h2.232a1.24,1.24,0,0,0,1.24-1.24v-.62A4.959,4.959,0,0,0,417.916,58.009Z" transform="translate(-416.716 -58.008)" fill="#00f0a3"/>
      </g>
      <g id="Grupo_1123510" data-name="Grupo 1123510" transform="translate(5.632 34.591)">
        <path id="Trazado_920351" data-name="Trazado 920351" d="M55.8,62.967a4.959,4.959,0,0,0-4.863-4.958,5.037,5.037,0,0,0-5.056,5.056v.522a1.24,1.24,0,0,0,1.24,1.24h7.439a1.24,1.24,0,0,0,1.24-1.24v-.62Z" transform="translate(-45.886 -58.008)" fill="#a2f4c1"/>
      </g>
      <g id="Grupo_1123511" data-name="Grupo 1123511" transform="translate(9.488 34.591)">
        <path id="Trazado_920352" data-name="Trazado 920352" d="M78.5,58.009a4.811,4.811,0,0,0-1.2.129,4.961,4.961,0,0,1,3.831,4.83v.62a1.24,1.24,0,0,1-1.24,1.24h2.232a1.24,1.24,0,0,0,1.24-1.24v-.62A4.96,4.96,0,0,0,78.5,58.009Z" transform="translate(-77.302 -58.008)" fill="#00f0a3"/>
      </g>
      <g id="Grupo_1123512" data-name="Grupo 1123512" transform="translate(0 31.315)">
        <circle id="Elipse_12019" data-name="Elipse 12019" cx="1.24" cy="1.24" r="1.24" transform="translate(19.272 30.984) rotate(-67.486)"/>
        <circle id="Elipse_12020" data-name="Elipse 12020" cx="1.24" cy="1.24" r="1.24" transform="translate(6.252 38.488)"/>
        <circle id="Elipse_12021" data-name="Elipse 12021" cx="1.24" cy="1.24" r="1.24" transform="translate(40.472 26.958)"/>
        <circle id="Elipse_12022" data-name="Elipse 12022" cx="1.24" cy="1.24" r="1.24" transform="translate(52.512 39.91) rotate(-67.486)"/>
        <circle id="Elipse_12023" data-name="Elipse 12023" cx="1.24" cy="1.24" r="1.24" transform="translate(32.413 38.488)"/>
        <path id="Trazado_920353" data-name="Trazado 920353" d="M61.921,46.689h-2.8V45.626a.921.921,0,0,0-1.841,0v1.063h-4.4a5.386,5.386,0,0,1-.081-1,4.726,4.726,0,0,1,.321-1.836,6.5,6.5,0,0,0,.373-1.521H55.97a2.163,2.163,0,0,0,2.16-2.16v-.62a5.909,5.909,0,0,0-5.766-5.879,5.782,5.782,0,0,0-4.185,1.681,6.056,6.056,0,0,0-1.809,4.3v.522a2.163,2.163,0,0,0,2.16,2.16h3.1a5.213,5.213,0,0,1-.254.916,6.493,6.493,0,0,0-.423,2.441,7.791,7.791,0,0,0,.059,1H45.856v-2.3a.921.921,0,0,0-1.841,0v2.3H38.541V45.13a.921.921,0,1,0-1.841,0v1.559H32.663a6.5,6.5,0,0,0-.373-1.521,5.416,5.416,0,0,1,0-3.673,6.5,6.5,0,0,0,.373-1.521H35.14a2.163,2.163,0,0,0,2.16-2.161v-.62a5.909,5.909,0,0,0-5.766-5.879A5.787,5.787,0,0,0,27.35,33a6.057,6.057,0,0,0-1.809,4.3v.522a2.163,2.163,0,0,0,2.16,2.161h3.1a5.225,5.225,0,0,1-.253.916,7.255,7.255,0,0,0,0,4.882,5.234,5.234,0,0,1,.254.916h-3.3v-2.3a.921.921,0,1,0-1.841,0v2.3H21.678V45.13a.921.921,0,0,0-1.841,0v1.559H16.471V45.13a.921.921,0,1,0-1.841,0v1.559H11.221a5.386,5.386,0,0,1-.081-1,4.726,4.726,0,0,1,.321-1.836,6.5,6.5,0,0,0,.373-1.521h2.477a2.163,2.163,0,0,0,2.16-2.16v-.62a5.909,5.909,0,0,0-5.766-5.879A5.783,5.783,0,0,0,6.52,35.353a6.057,6.057,0,0,0-1.809,4.3v.522a2.163,2.163,0,0,0,2.16,2.16h3.1a5.213,5.213,0,0,1-.254.916A6.493,6.493,0,0,0,9.3,45.688a7.791,7.791,0,0,0,.059,1H4.445v-2.3a.921.921,0,0,0-1.841,0v2.3H.92A.92.92,0,0,0,0,47.609v31.1a.921.921,0,0,0,1.841,0V75.782l3.352,1.09a10.772,10.772,0,0,0,6.7,0l1.49-.485a8.945,8.945,0,0,1,5.566,0l1.49.484a10.772,10.772,0,0,0,6.7,0l1.489-.484a8.946,8.946,0,0,1,5.566,0l1.49.484a10.773,10.773,0,0,0,6.7,0l1.49-.485a8.943,8.943,0,0,1,5.565,0l1.491.485a10.771,10.771,0,0,0,6.7,0L61,75.782v8.847H1.841v-1.61a.921.921,0,1,0-1.841,0v2.53a.92.92,0,0,0,.921.921h61a.92.92,0,0,0,.921-.921V66.621a.921.921,0,0,0-1.841,0v7.225l-3.922,1.275a8.942,8.942,0,0,1-5.565,0l-1.491-.485a10.769,10.769,0,0,0-6.7,0l-1.49.485a8.942,8.942,0,0,1-5.566,0l-1.49-.484a10.772,10.772,0,0,0-6.7,0l-1.489.484a8.942,8.942,0,0,1-5.566,0l-1.49-.484a10.771,10.771,0,0,0-6.7,0l-1.49.484a8.942,8.942,0,0,1-5.566,0L1.841,73.846V55.969H61v6.345a.921.921,0,1,0,1.841,0v-14.7a.92.92,0,0,0-.921-.921ZM48.212,40.17v-.522a4.2,4.2,0,0,1,1.257-2.981,3.957,3.957,0,0,1,2.785-1.155h.075a4.059,4.059,0,0,1,3.96,4.038v.62a.32.32,0,0,1-.319.319H48.531A.32.32,0,0,1,48.212,40.17Zm-20.83-2.356v-.522a4.2,4.2,0,0,1,1.257-2.981,3.958,3.958,0,0,1,2.785-1.155H31.5a4.058,4.058,0,0,1,3.96,4.038v.62a.32.32,0,0,1-.319.319H27.7a.32.32,0,0,1-.319-.319ZM6.552,40.17v-.522A4.2,4.2,0,0,1,7.81,36.667a3.957,3.957,0,0,1,2.785-1.155h.075a4.059,4.059,0,0,1,3.96,4.038v.62a.32.32,0,0,1-.319.319H6.872A.32.32,0,0,1,6.552,40.17ZM1.841,54.128v-5.6H61v5.6Z" transform="translate(0 -31.315)"/>
        <path id="Trazado_920354" data-name="Trazado 920354" d="M409.626,266.433a2.78,2.78,0,1,0-2.78,2.78A2.783,2.783,0,0,0,409.626,266.433Zm-2.78.939a.939.939,0,1,1,.939-.939A.94.94,0,0,1,406.845,267.372Z" transform="translate(-354.471 -235.136)"/>
        <path id="Trazado_920355" data-name="Trazado 920355" d="M319.211,315.931a2.78,2.78,0,1,0,2.78-2.78A2.783,2.783,0,0,0,319.211,315.931Zm2.78-.939a.939.939,0,1,1-.939.939A.94.94,0,0,1,321.991,314.992Z" transform="translate(-280.032 -278.559)"/>
        <path id="Trazado_920356" data-name="Trazado 920356" d="M68.191,266.433a2.78,2.78,0,1,0-2.78,2.78A2.783,2.783,0,0,0,68.191,266.433Zm-3.72,0a.939.939,0,1,1,.939.939A.94.94,0,0,1,64.471,266.433Z" transform="translate(-54.943 -235.136)"/>
        <path id="Trazado_920357" data-name="Trazado 920357" d="M147.484,315.931a2.78,2.78,0,1,0,2.78-2.78A2.783,2.783,0,0,0,147.484,315.931Zm2.78-.939a.939.939,0,1,1-.939.939A.94.94,0,0,1,150.264,314.992Z" transform="translate(-129.382 -278.559)"/>
        <path id="Trazado_920358" data-name="Trazado 920358" d="M238.909,271.484a2.78,2.78,0,1,0-2.78,2.78A2.783,2.783,0,0,0,238.909,271.484Zm-2.78.939a.939.939,0,1,1,.939-.939A.94.94,0,0,1,236.128,272.423Z" transform="translate(-204.707 -239.567)"/>
      </g>
    </g>
  </g>
</svg>
