<svg xmlns="http://www.w3.org/2000/svg" width="71" height="71" viewBox="0 0 71 71">
  <g id="Grupo_1120037" data-name="Grupo 1120037" transform="translate(-614.051 -8888)">
    <circle id="Elipse_11626" data-name="Elipse 11626" cx="35.5" cy="35.5" r="35.5" transform="translate(614.051 8888)" fill="#fff"/>
    <g id="Grupo_1120036" data-name="Grupo 1120036" transform="translate(623.053 8899.002)">
      <g id="Grupo_1120035" data-name="Grupo 1120035" transform="translate(11.817 0.815)">
        <path id="Trazado_917674" data-name="Trazado 917674" d="M26.026,38.207a.524.524,0,0,1-.878.036c-1.51-2.3-5.843-9.846-3.435-17.744a9.443,9.443,0,0,1,11.43-6.187,8.63,8.63,0,0,1,6.239,10.852C36.607,34.258,29.274,32.727,26.026,38.207Z" transform="translate(-13.662 -3.395)" fill="#9cc824"/>
        <path id="Trazado_917675" data-name="Trazado 917675" d="M41.341,50.457a6.342,6.342,0,1,1-11.992-4.109c2.248-6.64,7.245-5.23,9.688-9.173a.356.356,0,0,1,.615.008c.946,1.755,3.647,7.5,1.69,13.274Z" transform="translate(-15.125 -7.641)" fill="#9cc824"/>
        <path id="Trazado_917676" data-name="Trazado 917676" d="M20.682,13.468c.008.106-.112.163-.168.1-1.228-1.289-3.073-1.289-3.915-2.944-.683-1.346-.482-2.5.946-3.221a2.137,2.137,0,0,1,3.122,1.134c.946,1.9-.3,3.083.015,4.934Z" transform="translate(-12.781 -2.124)" fill="#9cc824"/>
        <path id="Trazado_917677" data-name="Trazado 917677" d="M46.58,6.311c-.657,2.528-2.735,2.6-3.947,4.559a.123.123,0,0,1-.232-.057c-.089-2.2-1.766-3.743-1.2-5.97.457-1.81,1.564-2.7,3.45-2.186S47.005,4.672,46.58,6.311Z" transform="translate(-17.368 -1.279)" fill="#9cc824"/>
        <path id="Trazado_917678" data-name="Trazado 917678" d="M16.864,19.478c.04.082-.033.163-.1.139-1.34-.514-2.7.147-3.875-.775a1.722,1.722,0,0,1-.417-2.691,1.713,1.713,0,0,1,2.672-.277c1.348,1.06.851,2.357,1.718,3.6Z" transform="translate(-12.003 -3.648)" fill="#9cc824"/>
        <path id="Trazado_917679" data-name="Trazado 917679" d="M28.238,4.719c.209,2.12-1.364,2.773-1.725,4.608a.108.108,0,0,1-.2.033c-.683-1.647-2.407-2.324-2.6-4.176-.163-1.5.433-2.5,2.014-2.659A2.148,2.148,0,0,1,28.238,4.719Z" transform="translate(-14.158 -1.278)" fill="#9cc824"/>
        <path id="Trazado_917680" data-name="Trazado 917680" d="M37.153,3.585c-.008,2.251-1.726,2.765-2.311,4.665a.111.111,0,0,1-.209,0c-.546-1.81-2.279-2.708-2.284-4.673-.011-1.6.727-2.585,2.406-2.577a2.288,2.288,0,0,1,2.4,2.585Z" transform="translate(-15.756 -1)" fill="#9cc824"/>
      </g>
      <path id="Trazado_917681" data-name="Trazado 917681" d="M21.75,17.847a.816.816,0,0,0,1.391.852,8.705,8.705,0,0,1,9.609-3.78,32.839,32.839,0,0,0-2.218,3.6c-.007.012-.018.02-.024.033s0,.015-.006.022c-.636,1.19-1.316,2.61-2,4.26a11.5,11.5,0,0,0-3.973.849.816.816,0,0,0,.369,1.545.8.8,0,0,0,.356-.082,9.331,9.331,0,0,1,2.582-.614c-.431,1.142-.86,2.375-1.275,3.72a.816.816,0,1,0,1.559.481,54.386,54.386,0,0,1,3.433-8.645,7.34,7.34,0,0,1,1.578,2.24.816.816,0,0,0,1.461-.726,8.3,8.3,0,0,0-2.259-2.981,28.193,28.193,0,0,1,2.005-3.117,7.92,7.92,0,0,1,3.451,3.262,7.6,7.6,0,0,1,.629,5.967c-1.53,5.013-4.539,6.59-7.451,8.115-2.027,1.06-4.119,2.158-5.577,4.353-1.5-2.393-5-8.982-3.3-15.862a.816.816,0,1,0-1.583-.39c-1.909,7.737,2,14.85,3.782,17.558a1.316,1.316,0,0,0,1.1.582h.05a1.324,1.324,0,0,0,1.107-.652c1.223-2.063,3.146-3.07,5.181-4.137,3.058-1.6,6.524-3.418,8.252-9.083a9.216,9.216,0,0,0-.763-7.238,9.663,9.663,0,0,0-6.047-4.64,10.357,10.357,0,0,0-11.416,4.5Z" transform="translate(-1.659 -2.399)" fill="#262626"/>
      <path id="Trazado_917682" data-name="Trazado 917682" d="M39.2,36a1.189,1.189,0,0,0-1.025.559,7.82,7.82,0,0,1-3.628,2.788c-2.208,1.094-4.712,2.334-6.14,6.552a7.4,7.4,0,0,0,2.2,8.053h0a6.905,6.905,0,0,0,4.441,1.62,7.09,7.09,0,0,0,3.137-.74,7.393,7.393,0,0,0,3.751-4.3c2.006-5.914-.552-11.705-1.756-13.939A1.162,1.162,0,0,0,39.2,36Zm1.2,14.008a5.769,5.769,0,0,1-2.929,3.363,5.3,5.3,0,0,1-5.037-.125,25.507,25.507,0,0,0,1.612-1.984c.01-.013.023-.024.032-.038s0-.011.007-.016c.571-.778,1.192-1.705,1.839-2.79.288.019.563.031.81.031a7.166,7.166,0,0,0,2.129-.258.816.816,0,1,0-.509-1.55,6.06,6.06,0,0,1-1.523.172c.38-.706.764-1.46,1.149-2.279a.816.816,0,0,0-1.474-.695,40.043,40.043,0,0,1-3.213,5.667,5.8,5.8,0,0,1-.71-1.5.816.816,0,1,0-1.55.512,6.589,6.589,0,0,0,1.26,2.352c-.425.545-.81.995-1.142,1.36a5.8,5.8,0,0,1-1.2-5.812c1.212-3.579,3.207-4.567,5.319-5.613a10.236,10.236,0,0,0,3.839-2.746c1.045,2.158,2.933,7.1,1.289,11.945Z" transform="translate(-3.136 -6.641)" fill="#262626"/>
      <path id="Trazado_917683" data-name="Trazado 917683" d="M19.334,6.221a3.017,3.017,0,0,0-2.344.268c-1.765.9-2.24,2.471-1.3,4.318a4.9,4.9,0,0,0,2.5,2.133,5.339,5.339,0,0,1,1.525.979.891.891,0,0,0,.679.309.911.911,0,0,0,.35-.07.931.931,0,0,0,.571-.932.586.586,0,0,0-.008-.075,4.506,4.506,0,0,1,.144-1.774,4.618,4.618,0,0,0-.236-3.388,3.3,3.3,0,0,0-1.877-1.769Zm.518,4.807c-.059.27-.121.554-.163.856-.263-.15-.525-.28-.775-.408a3.415,3.415,0,0,1-1.773-1.41c-.647-1.276-.1-1.776.595-2.129a1.386,1.386,0,0,1,2.016.774,3.055,3.055,0,0,1,.1,2.316Z" transform="translate(-0.778 -1.125)" fill="#262626"/>
      <path id="Trazado_917684" data-name="Trazado 917684" d="M47.191,6.336c.592-2.284-.365-4.061-2.5-4.644a3.466,3.466,0,0,0-4.454,2.773,6.055,6.055,0,0,0,.551,3.928,6.941,6.941,0,0,1,.62,2.295.941.941,0,0,0,.705.86.965.965,0,0,0,.23.029.951.951,0,0,0,.8-.453,5.686,5.686,0,0,1,1.6-1.563,5.494,5.494,0,0,0,2.438-3.224Zm-1.579-.408a3.924,3.924,0,0,1-1.835,2.324,12.058,12.058,0,0,0-1.014.811c-.131-.456-.3-.879-.458-1.277a4.567,4.567,0,0,1-.489-2.925,1.875,1.875,0,0,1,2.447-1.6c1.262.347,1.718,1.242,1.349,2.662Z" transform="translate(-5.372 -0.284)" fill="#262626"/>
      <path id="Trazado_917685" data-name="Trazado 917685" d="M13.4,14.418a2.6,2.6,0,0,0-1.758,1.06,2.52,2.52,0,0,0,.563,3.833,4.011,4.011,0,0,0,2.663.718,4.061,4.061,0,0,1,1.419.175.878.878,0,0,0,.321.06.892.892,0,0,0,.657-.292.912.912,0,0,0,.145-1.026.692.692,0,0,0-.062-.106,3.527,3.527,0,0,1-.484-1.3,3.908,3.908,0,0,0-1.395-2.481,2.773,2.773,0,0,0-2.069-.645Zm1.876,3.492c.038.163.076.326.122.5-.176-.007-.347-.009-.513-.011A2.542,2.542,0,0,1,13.2,18.02c-.762-.588-.667-1.028-.266-1.55a.979.979,0,0,1,1.519-.13,2.359,2.359,0,0,1,.818,1.567Z" transform="translate(0 -2.657)" fill="#262626"/>
      <path id="Trazado_917686" data-name="Trazado 917686" d="M27.732,2.12a3.118,3.118,0,0,0-5.021,2.963,4.944,4.944,0,0,0,1.57,2.9,5.4,5.4,0,0,1,1.11,1.55.909.909,0,0,0,.816.511h.077a.955.955,0,0,0,.836-.743,4.416,4.416,0,0,1,.758-1.6,4.629,4.629,0,0,0,.979-3.251A3.331,3.331,0,0,0,27.732,2.12Zm-1.219,4.7c-.148.228-.3.468-.449.727-.192-.236-.39-.453-.577-.658a3.457,3.457,0,0,1-1.153-1.972c-.1-.971.245-1.66,1.291-1.762.089-.009.175-.014.257-.014.878,0,1.276.68,1.355,1.477a3.063,3.063,0,0,1-.723,2.2Z" transform="translate(-2.151 -0.276)" fill="#262626"/>
      <path id="Trazado_917687" data-name="Trazado 917687" d="M34.513,8.953h.033a.961.961,0,0,0,.887-.648,4.839,4.839,0,0,1,.979-1.62A4.846,4.846,0,0,0,37.78,3.4,3.072,3.072,0,0,0,34.567,0h-.024a3.119,3.119,0,0,0-3.2,3.4,5.213,5.213,0,0,0,1.329,3.187,5.766,5.766,0,0,1,1,1.735.927.927,0,0,0,.842.635Zm-1.1-6.926a1.55,1.55,0,0,1,1.151-.4c.391,0,1.583,0,1.583,1.769a3.321,3.321,0,0,1-1,2.264c-.192.238-.395.489-.585.767-.187-.294-.387-.563-.571-.816A3.707,3.707,0,0,1,32.98,3.39a1.852,1.852,0,0,1,.436-1.363Z" transform="translate(-3.75 0)" fill="#262626"/>
    </g>
  </g>
</svg>
