<svg xmlns="http://www.w3.org/2000/svg" width="71" height="71" viewBox="0 0 71 71">
  <g id="Grupo_1120041" data-name="Grupo 1120041" transform="translate(-1034.051 -9013)">
    <circle id="Elipse_11662" data-name="Elipse 11662" cx="35.5" cy="35.5" r="35.5" transform="translate(1034.051 9013)" fill="#fff"/>
    <g id="Filled_outline" data-name="Filled outline" transform="translate(1045.051 9025)">
      <path id="Trazado_917748" data-name="Trazado 917748" d="M50.2,45.341H21v-2.92l1.46-3.65V9.57L21,5.92V3H50.2V5.92L48.74,9.57v29.2l1.46,3.65Z" transform="translate(-5.13 -0.27)" fill="#3e8051"/>
      <path id="Trazado_917749" data-name="Trazado 917749" d="M21,3H50.2V5.92H21Z" transform="translate(-5.13 -0.27)" fill="#55b56a"/>
      <path id="Trazado_917750" data-name="Trazado 917750" d="M21,57H50.2v2.92H21Z" transform="translate(-5.13 -14.849)" fill="#55b56a"/>
      <path id="Trazado_917751" data-name="Trazado 917751" d="M35,23h1.46a2.92,2.92,0,0,1,2.92,2.92H37.92A2.92,2.92,0,0,1,35,23Z" transform="translate(-8.91 -5.67)" fill="#8ec13f"/>
      <path id="Trazado_917752" data-name="Trazado 917752" d="M43.92,23h1.46a2.92,2.92,0,0,1-2.92,2.92H41A2.92,2.92,0,0,1,43.92,23Z" transform="translate(-10.529 -5.67)" fill="#55b56a"/>
      <path id="Trazado_917753" data-name="Trazado 917753" d="M32,31h3.65a2.92,2.92,0,0,1,2.92,2.92H34.92A2.92,2.92,0,0,1,32,31Z" transform="translate(-8.1 -7.83)" fill="#55b56a"/>
      <path id="Trazado_917754" data-name="Trazado 917754" d="M2.92,0H6.57A2.92,2.92,0,0,1,3.65,2.92H0A2.92,2.92,0,0,1,2.92,0Z" transform="translate(37.041 26.09) rotate(180)" fill="#8ec13f"/>
      <path id="Trazado_917755" data-name="Trazado 917755" d="M34,39H44.22v4.38H34Z" transform="translate(-8.64 -9.99)" fill="#f9bb4b"/>
      <path id="Trazado_917756" data-name="Trazado 917756" d="M32,11H45.14v2.92H32Z" transform="translate(-8.1 -2.43)" fill="#fcf05a"/>
      <path id="Trazado_917757" data-name="Trazado 917757" d="M3,39H20.52v2.92H3Z" transform="translate(-0.27 -9.99)" fill="#55b56a"/>
      <path id="Trazado_917758" data-name="Trazado 917758" d="M17.6,56.14H5.92a1.452,1.452,0,0,1-1.46-1.46L3,43H20.52L19.06,54.68a1.452,1.452,0,0,1-1.46,1.46Z" transform="translate(-0.27 -11.069)" fill="#fcf05a"/>
      <path id="Trazado_917759" data-name="Trazado 917759" d="M4,36.346l6.57-6.57a2.064,2.064,0,0,1,2.92,0l6.57,6.57Z" transform="translate(-0.54 -7.336)" fill="#ffd782"/>
      <path id="Trazado_917760" data-name="Trazado 917760" d="M9,49h1.46a2.92,2.92,0,0,1,2.92,2.92H11.92A2.92,2.92,0,0,1,9,49Z" transform="translate(-1.89 -12.689)" fill="#55b56a"/>
      <path id="Trazado_917761" data-name="Trazado 917761" d="M17.92,49h1.46a2.92,2.92,0,0,1-2.92,2.92H15A2.92,2.92,0,0,1,17.92,49Z" transform="translate(-3.51 -12.689)" fill="#8ec13f"/>
      <path id="Trazado_917762" data-name="Trazado 917762" d="M45.071,2H15.87a.73.73,0,0,0-.73.73V5.65a.739.739,0,0,0,.052.272L16.6,9.44V25.058l-3.134-3.134a2.8,2.8,0,0,0-3.952,0L3.158,28.28H2.73a.73.73,0,0,0-.73.73v2.92c0,.031.006.091.006.091l1.46,11.671A2.175,2.175,0,0,0,5.65,45.8H45.071a.73.73,0,0,0,.73-.73v-2.92a.739.739,0,0,0-.052-.272L44.341,38.36V9.44l1.408-3.519A.739.739,0,0,0,45.8,5.65V2.73a.73.73,0,0,0-.73-.73ZM10.546,22.956a1.337,1.337,0,0,1,1.888,0l5.324,5.324H5.222ZM42.933,38.772l1.06,2.648H19.8l1.175-9.4s.006-.059.006-.091V29.01a.73.73,0,0,0-.73-.73h-.428L18.06,26.518V9.3a.739.739,0,0,0-.052-.272L16.948,6.38H43.993l-1.06,2.648a.739.739,0,0,0-.052.272V38.5a.739.739,0,0,0,.052.272ZM3.46,31.2V29.74H19.52V31.2Zm13.87,13.14H5.65c-.159,0-.645,0-.736-.821L3.557,32.661H19.423L18.065,43.53C17.975,44.341,17.489,44.341,17.33,44.341Zm27.01,0H19.362a2.816,2.816,0,0,0,.153-.639l.1-.821H44.341Zm0-39.421H16.6V3.46h27.74Z"/>
      <path id="Trazado_917763" data-name="Trazado 917763" d="M44.87,27.84H41.22a3.612,3.612,0,0,0-2.19.749V26.38h.73a3.654,3.654,0,0,0,3.65-3.65.73.73,0,0,0-.73-.73H41.22a3.637,3.637,0,0,0-2.92,1.483A3.637,3.637,0,0,0,35.38,22H33.92a.73.73,0,0,0-.73.73,3.654,3.654,0,0,0,3.65,3.65h.73v2.209a3.612,3.612,0,0,0-2.19-.749H31.73a.73.73,0,0,0-.73.73,3.654,3.654,0,0,0,3.65,3.65h2.92v1.46H33.19a.73.73,0,0,0-.73.73v4.38a.73.73,0,0,0,.73.73H43.41a.73.73,0,0,0,.73-.73V34.41a.73.73,0,0,0-.73-.73H39.03V32.22h2.92a3.654,3.654,0,0,0,3.65-3.65A.73.73,0,0,0,44.87,27.84Zm-3.65-4.38h.605a2.194,2.194,0,0,1-2.065,1.46h-.605A2.194,2.194,0,0,1,41.22,23.46Zm-4.38,1.46a2.194,2.194,0,0,1-2.065-1.46h.605a2.194,2.194,0,0,1,2.065,1.46Zm-2.19,5.84a2.194,2.194,0,0,1-2.065-1.46h2.8a2.194,2.194,0,0,1,2.065,1.46Zm8.03,4.38v2.92H33.92V35.14Zm-.73-4.38h-2.8A2.194,2.194,0,0,1,41.22,29.3h2.8a2.194,2.194,0,0,1-2.065,1.46Z" transform="translate(-7.83 -5.4)"/>
      <path id="Trazado_917764" data-name="Trazado 917764" d="M30,26h1.46v1.46H30Z" transform="translate(-7.56 -6.48)"/>
      <path id="Trazado_917765" data-name="Trazado 917765" d="M50,23h1.46v1.46H50Z" transform="translate(-12.959 -5.67)"/>
      <path id="Trazado_917766" data-name="Trazado 917766" d="M40,19h1.46v1.46H40Z" transform="translate(-10.26 -4.59)"/>
      <path id="Trazado_917767" data-name="Trazado 917767" d="M47,18h1.46v1.46H47Z" transform="translate(-12.149 -4.32)"/>
      <path id="Trazado_917768" data-name="Trazado 917768" d="M30,18h1.46v1.46H30Z" transform="translate(-7.56 -4.32)"/>
      <path id="Trazado_917769" data-name="Trazado 917769" d="M31.73,14.38H44.87a.73.73,0,0,0,.73-.73V10.73a.73.73,0,0,0-.73-.73H31.73a.73.73,0,0,0-.73.73v2.92A.73.73,0,0,0,31.73,14.38Zm.73-2.92H44.14v1.46H32.46Z" transform="translate(-7.83 -2.16)"/>
      <path id="Trazado_917770" data-name="Trazado 917770" d="M31,48H45.6v1.46H31Z" transform="translate(-7.83 -12.419)"/>
      <path id="Trazado_917771" data-name="Trazado 917771" d="M36,52h7.3v1.46H36Z" transform="translate(-9.18 -13.499)"/>
      <path id="Trazado_917772" data-name="Trazado 917772" d="M15,32h1.46v1.46H15Z" transform="translate(-3.51 -8.1)"/>
      <path id="Trazado_917773" data-name="Trazado 917773" d="M12,34h1.46v1.46H12Z" transform="translate(-2.7 -8.64)"/>
      <path id="Trazado_917774" data-name="Trazado 917774" d="M11,56h5.84v1.46H11Z" transform="translate(-2.43 -14.579)"/>
      <path id="Trazado_917775" data-name="Trazado 917775" d="M17.49,48H16.03a3.637,3.637,0,0,0-2.92,1.483A3.637,3.637,0,0,0,10.19,48H8.73a.73.73,0,0,0-.73.73,3.654,3.654,0,0,0,3.65,3.65h2.92a3.654,3.654,0,0,0,3.65-3.65.73.73,0,0,0-.73-.73Zm-5.84,2.92a2.194,2.194,0,0,1-2.065-1.46h.605a2.194,2.194,0,0,1,2.065,1.46Zm2.92,0h-.605a2.194,2.194,0,0,1,2.065-1.46h.605A2.194,2.194,0,0,1,14.57,50.92Z" transform="translate(-1.62 -12.419)"/>
      <path id="Trazado_917776" data-name="Trazado 917776" d="M14,46h1.46v1.46H14Z" transform="translate(-3.24 -11.879)"/>
    </g>
  </g>
</svg>
