<svg xmlns="http://www.w3.org/2000/svg" width="71" height="71" viewBox="0 0 71 71">
  <g id="Grupo_1120043" data-name="Grupo 1120043" transform="translate(-614.051 -9139)">
    <circle id="Elipse_11626" data-name="Elipse 11626" cx="35.5" cy="35.5" r="35.5" transform="translate(614.051 9139)" fill="#fff"/>
    <g id="Grupo_1120042" data-name="Grupo 1120042" transform="translate(625.06 9150.006)">
      <circle id="Elipse_11876" data-name="Elipse 11876" cx="1.5" cy="1.5" r="1.5" transform="translate(2.748 6.497)" fill="#f7c23c"/>
      <circle id="Elipse_11877" data-name="Elipse 11877" cx="1.5" cy="1.5" r="1.5" transform="translate(2.748 12.496)" fill="#cd1b1b"/>
      <circle id="Elipse_11878" data-name="Elipse 11878" cx="1.5" cy="1.5" r="1.5" transform="translate(43.236 6.497)" fill="#f7c23c"/>
      <circle id="Elipse_11879" data-name="Elipse 11879" cx="1.5" cy="1.5" r="1.5" transform="translate(43.236 12.496)" fill="#cd1b1b"/>
      <path id="Trazado_917777" data-name="Trazado 917777" d="M24.994,48.489,4,29.745,24.994,11,45.988,29.745Z" transform="translate(-0.503 -2.253)" fill="#9a5d40"/>
      <path id="Trazado_917778" data-name="Trazado 917778" d="M38.994,39.117,18,20.372,28.5,11l10.5,9.372L18,39.117l10.5,9.372Z" transform="translate(-4.006 -2.253)" fill="#b6a698"/>
      <path id="Trazado_917779" data-name="Trazado 917779" d="M16.634,31.6l-.135-.75-.345-1.807a4.041,4.041,0,0,0-1.829-2.587L12,25.11l.517,2.722a4.056,4.056,0,0,0,1.829,2.6L16.364,31.6l.135.082" transform="translate(-2.504 -5.784)" fill="#7ba835"/>
      <path id="Trazado_917780" data-name="Trazado 917780" d="M17.82,31.6l.135-.75.345-1.807a4.041,4.041,0,0,1,1.829-2.587l2.324-1.342-.517,2.722a4.056,4.056,0,0,1-1.829,2.6L18.09,31.6l-.135.082" transform="translate(-3.961 -5.784)" fill="#7ba835"/>
      <path id="Trazado_917781" data-name="Trazado 917781" d="M17.5,15l-1.162,2.512a4.019,4.019,0,0,0,0,3.224L17.5,23.248l1.162-2.512a4.019,4.019,0,0,0,0-3.224Z" transform="translate(-3.505 -3.254)" fill="#a0d34f"/>
      <path id="Trazado_917782" data-name="Trazado 917782" d="M44.634,31.6l-.135-.75-.345-1.807a4.041,4.041,0,0,0-1.829-2.587L40,25.11l.517,2.722a4.056,4.056,0,0,0,1.829,2.6L44.364,31.6l.135.082" transform="translate(-9.51 -5.784)" fill="#7ba835"/>
      <path id="Trazado_917783" data-name="Trazado 917783" d="M45.82,31.6l.135-.75.345-1.807a4.041,4.041,0,0,1,1.829-2.587l2.324-1.342-.517,2.722a4.056,4.056,0,0,1-1.829,2.6L46.09,31.6l-.135.082" transform="translate(-10.967 -5.784)" fill="#7ba835"/>
      <path id="Trazado_917784" data-name="Trazado 917784" d="M45.5,15l-1.162,2.512a4.019,4.019,0,0,0,0,3.224L45.5,23.248l1.162-2.512a4.019,4.019,0,0,0,0-3.224Z" transform="translate(-10.511 -3.254)" fill="#a0d34f"/>
      <path id="Trazado_917785" data-name="Trazado 917785" d="M30.634,19.6l-.135-.75-.345-1.807a4.041,4.041,0,0,0-1.829-2.587L26,13.11l.517,2.722a4.056,4.056,0,0,0,1.829,2.6L30.364,19.6l.135.082" transform="translate(-6.007 -2.781)" fill="#7ba835"/>
      <path id="Trazado_917786" data-name="Trazado 917786" d="M31.82,19.6l.135-.75.345-1.807a4.041,4.041,0,0,1,1.829-2.587l2.324-1.342-.517,2.722a4.056,4.056,0,0,1-1.829,2.6L32.09,19.6l-.135.082" transform="translate(-7.464 -2.781)" fill="#7ba835"/>
      <path id="Trazado_917787" data-name="Trazado 917787" d="M31.5,3,30.337,5.512a4.019,4.019,0,0,0,0,3.224L31.5,11.248l1.162-2.512a4.019,4.019,0,0,0,0-3.224Z" transform="translate(-7.008 -0.252)" fill="#a0d34f"/>
      <path id="Trazado_917788" data-name="Trazado 917788" d="M30.634,44.6l-.135-.75-.345-1.807a4.041,4.041,0,0,0-1.829-2.587L26,38.11l.517,2.722a4.056,4.056,0,0,0,1.829,2.6L30.364,44.6l.135.082" transform="translate(-6.007 -9.037)" fill="#7ba835"/>
      <path id="Trazado_917789" data-name="Trazado 917789" d="M31.82,44.6l.135-.75.345-1.807a4.041,4.041,0,0,1,1.829-2.587l2.324-1.342-.517,2.722a4.056,4.056,0,0,1-1.829,2.6L32.09,44.6l-.135.082" transform="translate(-7.464 -9.037)" fill="#7ba835"/>
      <path id="Trazado_917790" data-name="Trazado 917790" d="M31.5,28l-1.162,2.512a4.019,4.019,0,0,0,0,3.224L31.5,36.248l1.162-2.512a4.019,4.019,0,0,0,0-3.224Z" transform="translate(-7.008 -6.507)" fill="#a0d34f"/>
      <path id="Trazado_917791" data-name="Trazado 917791" d="M40.1,21.448l.39-1.979a.747.747,0,0,0-1.11-.787l-1.44.832-1.2-1.02.315-.682a4.791,4.791,0,0,0,0-3.854l-1.162-2.512a.75.75,0,0,0-1.365,0l-1.162,2.512a4.641,4.641,0,0,0-.352,1.215l-3.382-3,.36-1.7a.721.721,0,0,0-1.11-.75l-1.192.69-1.3-1.192.195-.42a4.791,4.791,0,0,0,0-3.854L25.424,2.434a.75.75,0,0,0-1.365,0L22.9,4.945a4.791,4.791,0,0,0,0,3.854l.195.42L21.81,10.366l-1.192-.69a.721.721,0,0,0-1.11.75l.315,1.665-3.382,3a4.641,4.641,0,0,0-.352-1.215l-1.162-2.512a.75.75,0,0,0-1.365,0L12.4,13.875a4.791,4.791,0,0,0,0,3.854l.345.765L11.59,19.521l-1.47-.847a.747.747,0,0,0-1.11.787l.375,1.979L3.245,26.929a.75.75,0,0,0,0,1.125L24.239,46.8a.75.75,0,0,0,1,0L46.238,28.054a.75.75,0,0,0,0-1.125Zm-9-2.774a.747.747,0,0,0-1.11.787l.375,1.979-3.5,3.127a4.371,4.371,0,0,0-.292-.885l-1.162-2.512a.75.75,0,0,0-1.365,0l-1.162,2.512a4.372,4.372,0,0,0-.292.885l-3.5-3.127.4-1.972a.747.747,0,0,0-1.11-.787l-1.44.832-1.2-1.02.315-.682a3.547,3.547,0,0,0,.187-.495l3.921-3.494a4.836,4.836,0,0,0,2.017,2.5l1.807,1v2.669h1.5V17.332L27.268,16.3a4.836,4.836,0,0,0,2.017-2.5l3.921,3.5a3.839,3.839,0,0,0,.187.487l.345.7-1.155,1.027Zm-5.886,8.248-.472,1.035-.487-1.042a3.314,3.314,0,0,1,0-2.594l.487-1.042.487,1.042a3.314,3.314,0,0,1,0,2.594Zm-1.237,3v.75a4.446,4.446,0,0,0-.832-.75l.592-.525Zm-1.8,1.162a3.314,3.314,0,0,1,1.5,2.1l.195,1.057-.907-.525a3.314,3.314,0,0,1-1.5-2.092l-.21-1.11Zm3.434,3.157.21-1.1a3.314,3.314,0,0,1,1.5-2.1l.907-.525-.21,1.11a3.314,3.314,0,0,1-1.5,2.092Zm-.12-3.606v-.75l.24-.517.592.525a4.446,4.446,0,0,0-.832.742Zm-10.5-10.5.12-.255.48.427a4.656,4.656,0,0,0-.6.555Zm.12,4.356.21-1.1a3.314,3.314,0,0,1,1.5-2.1l.907-.525-.21,1.11a3.314,3.314,0,0,1-1.5,2.092Zm19.374-3.606a4.656,4.656,0,0,0-.6-.555l.48-.427.12.255Zm-1.8.435a3.314,3.314,0,0,1,1.5,2.1l.18,1.072-.907-.525a3.314,3.314,0,0,1-1.5-2.092l-.21-1.11Zm3.419,3.172.21-1.1a3.314,3.314,0,0,1,1.5-2.1l.907-.525-.21,1.11a3.314,3.314,0,0,1-1.5,2.092Zm.48-4.191a4.656,4.656,0,0,0-.6.555v-.75l.12-.255Zm-1.837-5.758.487-1.012.487,1.042a3.314,3.314,0,0,1,0,2.594l-.487,1.042-.487-1.042a3.314,3.314,0,0,1,0-2.594ZM28,12.878a3.314,3.314,0,0,1-1.5,2.092l-.907.525.21-1.1a3.314,3.314,0,0,1,1.5-2.1l.907-.525Zm-1.665-1.74a4.446,4.446,0,0,0-.832.75v-.75l.24-.517ZM24.254,5.575l.487-1.042.487,1.042a3.314,3.314,0,0,1,0,2.594l-.487,1.042-.487-1.042A3.314,3.314,0,0,1,24.254,5.575Zm-.262,5.586v.75a4.446,4.446,0,0,0-.832-.75l.592-.525Zm-1.8,1.162a3.314,3.314,0,0,1,1.5,2.1l.18,1.072-.907-.525a3.314,3.314,0,0,1-1.5-2.092l-.21-1.11Zm-8.435,2.249.487-1.042.487,1.042a3.314,3.314,0,0,1,0,2.594l-.487,1.042-.487-1.042a3.314,3.314,0,0,1,0-2.594Zm-.262,5.586v.75a4.656,4.656,0,0,0-.6-.555l.48-.427Zm-1.8,1.162a3.314,3.314,0,0,1,1.5,2.1l.18,1.072-.907-.525a3.314,3.314,0,0,1-1.5-2.092l-.21-1.11ZM9.806,23.083a4.784,4.784,0,0,0,1.912,2.249l1.777.99V32.74h1.5V26.329L16.771,25.3a4.784,4.784,0,0,0,1.912-2.249l3.9,3.494a4.3,4.3,0,0,0,.315.967l.195.42L21.81,29.081l-1.192-.69a.721.721,0,0,0-1.11.75l.315,1.665-5.578,5.054L4.872,27.491ZM24.742,45.231l-9.372-8.368L20.2,32.552a4.836,4.836,0,0,0,2.017,2.5l1.777,1.02v6.418h1.5V36.076l1.777-1.027a4.836,4.836,0,0,0,2.017-2.5l4.829,4.311Zm10.5-9.372L29.66,30.88l.33-1.665a.721.721,0,0,0-1.11-.75l-1.192.69-1.3-1.192.195-.42a4.3,4.3,0,0,0,.315-.967l3.9-3.494a4.784,4.784,0,0,0,1.912,2.249l1.777.99V32.74h1.5V26.329L37.765,25.3a4.784,4.784,0,0,0,1.912-2.249l4.934,4.439Z" transform="translate(-0.25)"/>
      <path id="Trazado_917792" data-name="Trazado 917792" d="M4.247,11.5A2.249,2.249,0,0,0,6.362,10h.48l1.282,1.912a.75.75,0,0,0,.622.337h3v-1.5H9.151L7.869,8.837A.75.75,0,0,0,7.246,8.5H6.362a2.249,2.249,0,1,0-2.114,3Zm0-3a.75.75,0,1,1-.75.75A.75.75,0,0,1,4.247,8.5Z" transform="translate(0 -1.252)"/>
      <path id="Trazado_917793" data-name="Trazado 917793" d="M6.362,18h3.884V16.5H6.362a2.249,2.249,0,1,0,0,1.5ZM3.5,17.249a.75.75,0,1,1,.75.75A.75.75,0,0,1,3.5,17.249Z" transform="translate(0 -3.254)"/>
      <path id="Trazado_917794" data-name="Trazado 917794" d="M20.463,7.775a5.061,5.061,0,0,0-7.393,0l1.095,1.035a3.539,3.539,0,0,1,5.2,0Z" transform="translate(-2.772 -1.045)"/>
      <path id="Trazado_917795" data-name="Trazado 917795" d="M21.857,4.519a7.91,7.91,0,0,0-11.577,0l1.08,1.035a6.426,6.426,0,0,1,9.417,0Z" transform="translate(-2.074 -0.001)"/>
      <path id="Trazado_917796" data-name="Trazado 917796" d="M17,10h1.5v1.5H17Z" transform="translate(-3.755 -2.003)"/>
      <path id="Trazado_917797" data-name="Trazado 917797" d="M56.5,7a2.249,2.249,0,0,0-2.114,1.5H53.5a.75.75,0,0,0-.622.337l-1.282,1.912H49v1.5h3a.75.75,0,0,0,.622-.337L53.9,10h.48A2.249,2.249,0,1,0,56.5,7Zm0,3a.75.75,0,1,1,.75-.75A.75.75,0,0,1,56.5,10Z" transform="translate(-11.762 -1.252)"/>
      <path id="Trazado_917798" data-name="Trazado 917798" d="M57,15a2.249,2.249,0,0,0-2.114,1.5H51V18h3.884A2.249,2.249,0,1,0,57,15Zm0,3a.75.75,0,1,1,.75-.75A.75.75,0,0,1,57,18Z" transform="translate(-12.263 -3.254)"/>
      <path id="Trazado_917799" data-name="Trazado 917799" d="M48.463,7.775a5.061,5.061,0,0,0-7.393,0l1.095,1.035a3.539,3.539,0,0,1,5.2,0Z" transform="translate(-9.778 -1.045)"/>
      <path id="Trazado_917800" data-name="Trazado 917800" d="M49.857,4.519a7.91,7.91,0,0,0-11.577,0l1.08,1.035a6.426,6.426,0,0,1,9.417,0Z" transform="translate(-9.08 -0.001)"/>
      <path id="Trazado_917801" data-name="Trazado 917801" d="M45,10h1.5v1.5H45Z" transform="translate(-10.761 -2.003)"/>
    </g>
  </g>
</svg>
