<svg xmlns="http://www.w3.org/2000/svg" xmlns:xlink="http://www.w3.org/1999/xlink" width="118" height="118" viewBox="0 0 118 118">
  <defs>
    <filter id="Trazado_874925" x="0" y="0" width="117.999" height="118" filterUnits="userSpaceOnUse">
      <feOffset dy="3" input="SourceAlpha"/>
      <feGaussianBlur stdDeviation="3" result="blur"/>
      <feFlood flood-opacity="0.161"/>
      <feComposite operator="in" in2="blur"/>
      <feComposite in="SourceGraphic"/>
    </filter>
  </defs>
  <g id="Grupo_1123402" data-name="Grupo 1123402" transform="translate(-1058.068 -1373.28)">
    <g id="Grupo_1111553" data-name="Grupo 1111553" transform="translate(258.568 -1137.877)">
      <g id="Grupo_1111316" data-name="Grupo 1111316" transform="translate(808.5 2517.157)">
        <g id="Grupo_1109835" data-name="Grupo 1109835" transform="translate(0 0)">
          <g id="Grupo_1107913" data-name="Grupo 1107913" transform="translate(0 0)">
            <g transform="matrix(1, 0, 0, 1, -9, -6)" filter="url(#Trazado_874925)">
              <g id="Trazado_874925-2" data-name="Trazado 874925" transform="translate(9 6)" fill="#bb965f" opacity="0.859">
                <path d="M 49.99972534179688 98.4998779296875 C 43.45164108276367 98.4998779296875 37.10022354125977 97.21776580810547 31.12189674377441 94.68914794921875 C 25.34676742553711 92.24647521972656 20.15985298156738 88.74925994873047 15.70523929595947 84.29464721679688 C 11.25062561035156 79.84004974365234 7.753411293029785 74.65313720703125 5.310725212097168 68.87800598144531 C 2.782111167907715 62.89969253540039 1.499996781349182 56.54829406738281 1.499996781349182 50.00022125244141 C 1.499996781349182 43.45157623291016 2.782111167907715 37.10017776489258 5.310725212097168 31.12186431884766 C 7.753411293029785 25.34673500061035 11.25062561035156 20.15983581542969 15.70523929595947 15.70522117614746 C 20.15985298156738 11.25062084197998 25.34676742553711 7.753406524658203 31.12189674377441 5.31073522567749 C 37.10022354125977 2.782120943069458 43.45164108276367 1.500006556510925 49.99972534179688 1.500006556510925 C 56.54780960083008 1.500006556510925 62.89922714233398 2.782120943069458 68.87755584716797 5.31073522567749 C 74.65267944335938 7.753406524658203 79.839599609375 11.25062084197998 84.29421234130859 15.70522117614746 C 88.74882507324219 20.15983581542969 92.24604034423828 25.34673500061035 94.68872833251953 31.12186431884766 C 97.21733856201172 37.10017776489258 98.49945068359375 43.45157623291016 98.49945068359375 49.99964904785156 C 98.49945068359375 56.54829406738281 97.21733856201172 62.89969253540039 94.68872833251953 68.87800598144531 C 92.24604034423828 74.65313720703125 88.74882507324219 79.84004974365234 84.29421234130859 84.29464721679688 C 79.839599609375 88.74925994873047 74.65267944335938 92.24647521972656 68.87755584716797 94.68914794921875 C 62.89922714233398 97.21776580810547 56.54780960083008 98.4998779296875 49.99972534179688 98.4998779296875 Z" stroke="none"/>
                <path d="M 49.99972534179688 3 C 43.65348052978516 3 37.49866485595703 4.242240905761719 31.70623016357422 6.692230224609375 C 26.10989379882812 9.059272766113281 21.08323669433594 12.44853210449219 16.76589202880859 16.76587677001953 C 12.44855499267578 21.08321380615234 9.059295654296875 26.10985565185547 6.692230224609375 31.70618438720703 C 4.24224853515625 37.49859619140625 3 43.65341186523438 3 50.00022888183594 C 3 56.34645843505859 4.24224853515625 62.50127410888672 6.692230224609375 68.29368591308594 C 9.059295654296875 73.8900146484375 12.44855499267578 78.91665649414062 16.76589202880859 83.23399353027344 C 21.08323669433594 87.55132293701172 26.10989379882812 90.94059753417969 31.70623016357422 93.30764007568359 C 37.49866485595703 95.75762939453125 43.65348052978516 96.99987030029297 49.99972534179688 96.99987030029297 C 56.34597015380859 96.99987030029297 62.50078582763672 95.75762939453125 68.293212890625 93.30764007568359 C 73.88955688476562 90.94059753417969 78.91621398925781 87.55132293701172 83.23355865478516 83.23399353027344 C 87.55089569091797 78.91665649414062 90.94015502929688 73.8900146484375 93.30722045898438 68.29368591308594 C 95.7572021484375 62.50127410888672 96.99945068359375 56.34645843505859 96.99945068359375 49.99964141845703 C 96.99945068359375 43.65341186523438 95.7572021484375 37.49859619140625 93.30722045898438 31.70618438720703 C 90.94015502929688 26.10985565185547 87.55089569091797 21.08321380615234 83.23355865478516 16.76587677001953 C 78.91621398925781 12.44853210449219 73.88955688476562 9.059272766113281 68.293212890625 6.692230224609375 C 62.50078582763672 4.242240905761719 56.34597015380859 3 49.99972534179688 3 M 49.99972534179688 0 C 77.61381530761719 0 99.99945068359375 22.38559722900391 99.99945068359375 49.99964141845703 L 99.99945068359375 50.00022888183594 C 99.99945068359375 77.6142578125 77.61381530761719 99.99987030029297 49.99972534179688 99.99987030029297 C 22.38563537597656 99.99987030029297 0 77.6142578125 0 50.00022888183594 L 0 49.99964141845703 C 0 22.38559722900391 22.38563537597656 0 49.99972534179688 0 Z" stroke="none" fill="#fff"/>
              </g>
            </g>
            <g id="Trazado_874923" data-name="Trazado 874923" transform="translate(0 0)" fill="none">
              <path d="M50,0a50,50,0,0,1,50,50h0A50,50,0,0,1,0,50H0A50,50,0,0,1,50,0Z" stroke="none"/>
              <path d="M 49.99972534179688 3 C 43.65348052978516 3 37.49866485595703 4.242240905761719 31.70623016357422 6.692230224609375 C 26.10989379882812 9.059272766113281 21.08323669433594 12.44853210449219 16.76589202880859 16.76587677001953 C 12.44855499267578 21.08321380615234 9.059295654296875 26.10985565185547 6.692230224609375 31.70618438720703 C 4.24224853515625 37.49859619140625 3 43.65341186523438 3 50.00022888183594 C 3 56.34645843505859 4.24224853515625 62.50127410888672 6.692230224609375 68.29368591308594 C 9.059295654296875 73.8900146484375 12.44855499267578 78.91665649414062 16.76589202880859 83.23399353027344 C 21.08323669433594 87.55132293701172 26.10989379882812 90.94059753417969 31.70623016357422 93.30764007568359 C 37.49866485595703 95.75762939453125 43.65348052978516 96.99987030029297 49.99972534179688 96.99987030029297 C 56.34597015380859 96.99987030029297 62.50078582763672 95.75762939453125 68.293212890625 93.30764007568359 C 73.88955688476562 90.94059753417969 78.91621398925781 87.55132293701172 83.23355865478516 83.23399353027344 C 87.55089569091797 78.91665649414062 90.94015502929688 73.8900146484375 93.30722045898438 68.29368591308594 C 95.7572021484375 62.50127410888672 96.99945068359375 56.34645843505859 96.99945068359375 49.99964141845703 C 96.99945068359375 43.65341186523438 95.7572021484375 37.49859619140625 93.30722045898438 31.70618438720703 C 90.94015502929688 26.10985565185547 87.55089569091797 21.08321380615234 83.23355865478516 16.76587677001953 C 78.91621398925781 12.44853210449219 73.88955688476562 9.059272766113281 68.293212890625 6.692230224609375 C 62.50078582763672 4.242240905761719 56.34597015380859 3 49.99972534179688 3 M 49.99972534179688 0 C 77.61381530761719 0 99.99945068359375 22.38559722900391 99.99945068359375 49.99964141845703 L 99.99945068359375 50.00022888183594 C 99.99945068359375 77.6142578125 77.61381530761719 99.99987030029297 49.99972534179688 99.99987030029297 C 22.38563537597656 99.99987030029297 0 77.6142578125 0 50.00022888183594 L 0 49.99964141845703 C 0 22.38559722900391 22.38563537597656 0 49.99972534179688 0 Z" stroke="none" fill="#fff"/>
            </g>
          </g>
        </g>
      </g>
    </g>
    <g id="Grupo_1123401" data-name="Grupo 1123401" transform="translate(1078.401 1388.178)">
      <g id="Grupo_1123400" data-name="Grupo 1123400" transform="translate(8.874 8.886)">
        <path id="Trazado_920003" data-name="Trazado 920003" d="M221.087,37.973a4.36,4.36,0,0,0-3.081,7.44,1.3,1.3,0,0,1,0,1.83l-2.784,2.784a1.3,1.3,0,0,1-1.83,0,4.36,4.36,0,0,0-7.44,3.082,1.292,1.292,0,0,1-1.293,1.293h-3.937a1.292,1.292,0,0,1-1.293-1.293,4.359,4.359,0,0,0-7.44-3.082,1.293,1.293,0,0,1-1.828,0l-2.786-2.784a1.3,1.3,0,0,1,0-1.83,4.36,4.36,0,0,0-3.081-7.44A1.293,1.293,0,0,1,183,36.68V32.742a1.293,1.293,0,0,1,1.293-1.293,4.36,4.36,0,0,0,3.081-7.44,1.293,1.293,0,0,1,0-1.828l2.786-2.786a1.293,1.293,0,0,1,1.828,0,4.36,4.36,0,0,0,7.44-3.082,1.293,1.293,0,0,1,1.293-1.293h3.937a1.293,1.293,0,0,1,1.293,1.293,4.36,4.36,0,0,0,7.44,3.082,1.3,1.3,0,0,1,1.83,0l2.784,2.786a1.293,1.293,0,0,1,0,1.828,4.36,4.36,0,0,0,3.081,7.44,1.292,1.292,0,0,1,1.293,1.293V36.68A1.292,1.292,0,0,1,221.087,37.973Z" transform="translate(-161.795 -15.021)" fill="#fdcd56" fill-rule="evenodd"/>
        <path id="Trazado_920004" data-name="Trazado 920004" d="M265.619,108.242a10.6,10.6,0,1,0-10.6-10.6A10.624,10.624,0,0,0,265.619,108.242Z" transform="translate(-224.723 -77.949)" fill="#f4f6f8" fill-rule="evenodd"/>
        <g id="Grupo_1123398" data-name="Grupo 1123398" transform="translate(35.573 13.256)">
          <path id="Trazado_920005" data-name="Trazado 920005" d="M306.169,120.048a2.406,2.406,0,0,1-.234.363c-.518.7-2.031,2.285-5.842,3.852,0,0-5.816,2.333-1.91,8.185,1.813.532,6.129,1.473,8.386-2.906S306.169,120.048,306.169,120.048Z" transform="translate(-296.834 -120.048)" fill="#c6ea94" fill-rule="evenodd"/>
        </g>
        <g id="Grupo_1123399" data-name="Grupo 1123399" transform="translate(0 36.031)">
          <path id="Trazado_920006" data-name="Trazado 920006" d="M55.135,302.366c-3.911,1.918-7.862,3.757-11.8,5.621L48.894,321.3l8.172-3.979a4.914,4.914,0,0,1,3.648-.313l8.669,2.511c2.749.794,6.149-.668,8.707-1.656l16.259-6.278c4.282-1.656,5.314-10.25-4.8-7.28l-11.6,3.407a3.689,3.689,0,0,0-2.6-2.592l-7.859-2.1C62.128,299.225,59.4,300.274,55.135,302.366Z" transform="translate(-39.761 -300.482)" fill="#efc7a4" fill-rule="evenodd"/>
          <path id="Trazado_920007" data-name="Trazado 920007" d="M195.1,340.474l-17.574-4.694a3.7,3.7,0,0,0,2.613,4.514l10.444,2.793A3.7,3.7,0,0,0,195.1,340.474Z" transform="translate(-156.901 -331.325)" fill="#d5a889" fill-rule="evenodd"/>
          <path id="Trazado_920008" data-name="Trazado 920008" d="M28.687,339.227l-4.17,1.73A1.783,1.783,0,0,1,22.194,340q-3.526-8.472-7.055-16.944a1.768,1.768,0,0,1,.961-2.327L20.266,319a1.782,1.782,0,0,1,2.323.957q3.531,8.472,7.055,16.944A1.769,1.769,0,0,1,28.687,339.227Z" transform="translate(-15 -316.544)" fill="#e4e8eb"/>
        </g>
      </g>
      <path id="Trazado_920009" data-name="Trazado 920009" d="M23.882,63.84l.458,1.1h0a2.593,2.593,0,0,1,0,2.036l0,0A2.6,2.6,0,0,1,22.9,68.42h0l-4.166,1.727a2.665,2.665,0,0,1-3.478-1.434Q11.732,60.244,8.2,51.773A2.553,2.553,0,0,1,8.2,49.735a2.579,2.579,0,0,1,1.438-1.442l4.17-1.731a2.668,2.668,0,0,1,3.477,1.433h0l.4.963c2.066-.976,4.129-1.959,6.182-2.964,2.744-1.342,4.906-2.236,7.426-1.9a13.087,13.087,0,0,1,5.691,2.538L44.691,48.7a4.565,4.565,0,0,1,2.9,2.377L58.418,47.9c4.592-1.347,7.133-.381,8.25,1.128A4.378,4.378,0,0,1,67.32,52.6a6.007,6.007,0,0,1-3.539,4.259L47.515,63.126c-2.719,1.046-6.352,2.517-9.27,1.669l-8.666-2.514h0a4.054,4.054,0,0,0-3.017.256Zm-.68-1.635,2.585-1.258a5.757,5.757,0,0,1,4.285-.364L38.737,63.1a7.617,7.617,0,0,0,3.958-.162,38.1,38.1,0,0,0,4.185-1.459l16.265-6.268a4.186,4.186,0,0,0,2.448-2.983,2.625,2.625,0,0,0-.346-2.143,2.807,2.807,0,0,0-1.921-1,10.475,10.475,0,0,0-4.41.515L48.067,52.781a4.526,4.526,0,0,1-.142,1.519,4.582,4.582,0,0,1-5.6,3.231l-10.444-2.8a.884.884,0,1,1,.457-1.707l10.444,2.8h0a2.8,2.8,0,1,0,1.449-5.416L36.375,48.3a.884.884,0,0,1-.283-.133,11.6,11.6,0,0,0-5.036-2.32c-2.184-.3-4.034.569-6.412,1.732-2.086,1.02-4.181,2.018-6.279,3.009Zm-.495,3.411-7.053-16.94a.9.9,0,0,0-1.169-.482l-4.169,1.73a.869.869,0,0,0-.484.486.847.847,0,0,0,0,.679v0q3.526,8.472,7.055,16.944h0a.893.893,0,0,0,1.167.48l4.164-1.726h0a.892.892,0,0,0,.484-1.173Zm45.461-32.9a3.476,3.476,0,0,0-2.457,5.932,2.18,2.18,0,0,1,0,3.08l-2.784,2.784a2.18,2.18,0,0,1-3.08,0,3.476,3.476,0,0,0-5.932,2.457,2.174,2.174,0,0,1-2.177,2.177H47.8a2.174,2.174,0,0,1-2.177-2.177,3.475,3.475,0,0,0-5.931-2.457,2.176,2.176,0,0,1-3.077,0L33.83,41.73a2.18,2.18,0,0,1,0-3.08,3.476,3.476,0,0,0-2.457-5.932A2.177,2.177,0,0,1,29.2,30.542V26.605a2.177,2.177,0,0,1,2.177-2.177A3.476,3.476,0,0,0,33.83,18.5a2.176,2.176,0,0,1,0-3.077l2.786-2.786a2.177,2.177,0,0,1,3.077,0,3.476,3.476,0,0,0,5.931-2.457A2.177,2.177,0,0,1,47.8,8h3.937a2.177,2.177,0,0,1,2.177,2.177,3.476,3.476,0,0,0,5.932,2.457,2.18,2.18,0,0,1,3.08,0l2.784,2.786a2.176,2.176,0,0,1,0,3.077,3.476,3.476,0,0,0,2.457,5.932,2.174,2.174,0,0,1,2.177,2.177v3.937A2.174,2.174,0,0,1,68.168,32.719Zm0-1.767a.409.409,0,0,0,.41-.409V26.605a.409.409,0,0,0-.41-.409,5.244,5.244,0,0,1-3.706-8.948.409.409,0,0,0,0-.578l-2.784-2.786a.411.411,0,0,0-.581,0,5.244,5.244,0,0,1-8.948-3.706.41.41,0,0,0-.41-.41H47.8a.41.41,0,0,0-.41.41,5.244,5.244,0,0,1-8.948,3.706.409.409,0,0,0-.578,0L35.08,16.669a.409.409,0,0,0,0,.578A5.244,5.244,0,0,1,31.373,26.2a.41.41,0,0,0-.41.409v3.937a.41.41,0,0,0,.41.409A5.244,5.244,0,0,1,35.08,39.9a.411.411,0,0,0,0,.581l2.786,2.784a.409.409,0,0,0,.578,0,5.242,5.242,0,0,1,8.948,3.706.409.409,0,0,0,.41.409h3.937a.409.409,0,0,0,.41-.409A5.244,5.244,0,0,1,61.1,43.265a.411.411,0,0,0,.581,0l2.784-2.784a.411.411,0,0,0,0-.581A5.244,5.244,0,0,1,68.168,30.952Zm-18.4,9.108A11.485,11.485,0,1,1,61.256,28.575,11.507,11.507,0,0,1,49.772,40.06Zm0-1.767a9.718,9.718,0,1,0-9.718-9.718A9.738,9.738,0,0,0,49.772,38.293Zm-2.4-12.754c3.555-1.461,4.986-2.913,5.469-3.562a2.189,2.189,0,0,0,.143-.211.883.883,0,0,1,1.584-.032l.009.019c.177.356,2.759,5.7.392,10.288-2.542,4.933-7.378,3.948-9.42,3.349a.883.883,0,0,1-.486-.357,7.133,7.133,0,0,1-1.451-4.96c.435-3.164,3.752-4.53,3.759-4.533Zm2.283,6.856c-.662.662-1.295,1.229-1.829,1.679A5.113,5.113,0,0,0,53.4,31.23c1.394-2.705.723-5.717.14-7.387a16.986,16.986,0,0,1-5.5,3.33l-.007,0a4.426,4.426,0,0,0-2.673,3.136,4.82,4.82,0,0,0,.686,2.938c.273-.214.606-.485.977-.807l-.381-2.068a.884.884,0,0,1,1.738-.32l.175.952c.452-.459.914-.965,1.362-1.509l-.342-1.741a.884.884,0,0,1,1.734-.34l.021.109c.224-.366.433-.743.621-1.129a.884.884,0,0,1,1.588.775,17.835,17.835,0,0,1-2.367,3.565l.448.033a.884.884,0,0,1-.131,1.762Z" transform="translate(0 0)" fill-rule="evenodd"/>
    </g>
  </g>
</svg>
