<svg xmlns="http://www.w3.org/2000/svg" width="71" height="71" viewBox="0 0 71 71">
  <g id="Grupo_1120380" data-name="Grupo 1120380" transform="translate(-615.051 -13636)">
    <circle id="Elipse_11661" data-name="Elipse 11661" cx="35.5" cy="35.5" r="35.5" transform="translate(615.051 13636)" fill="#fff"/>
    <g id="Grupo_1120379" data-name="Grupo 1120379" transform="translate(625.051 13645)">
      <path id="Trazado_918574" data-name="Trazado 918574" d="M45.988,44v4.387a1.994,1.994,0,0,1-3.988,0V44Z" transform="translate(-8.5 -7.893)" fill="#c99e85"/>
      <path id="Trazado_918575" data-name="Trazado 918575" d="M20.988,44v4.387a1.994,1.994,0,0,1-3.988,0V44Z" transform="translate(-3.441 -7.893)" fill="#c99e85"/>
      <path id="Trazado_918576" data-name="Trazado 918576" d="M50.452,44v7.179a3.988,3.988,0,0,1-3.988,3.988H4.988A3.988,3.988,0,0,1,1,51.179V44H13.762v4.387a1.994,1.994,0,1,0,3.988,0V44H33.7v4.387a1.994,1.994,0,0,0,3.988,0V44Z" transform="translate(-0.202 -7.893)" fill="#956143"/>
      <path id="Trazado_918577" data-name="Trazado 918577" d="M9.774,30.19l3.988,10.369H1V27Z" transform="translate(-0.202 -4.452)" fill="#c99e85"/>
      <path id="Trazado_918578" data-name="Trazado 918578" d="M34.75,32.8l2.393,8.774H21.19L18,32l7.976,2.393Z" transform="translate(-3.643 -5.464)" fill="#c99e85"/>
      <path id="Trazado_918579" data-name="Trazado 918579" d="M37.524,30.583l2.393,9.571H35.928l-2.393-8.774-8.774,1.6-7.976-2.393,3.19,9.571H15.988L12,29.786l2.393-3.19,10.369,2.393L39.119,25l.782,4.69Z" transform="translate(-2.429 -4.048)" fill="#b28364"/>
      <path id="Trazado_918580" data-name="Trazado 918580" d="M46.377,30.5l4-1.5,8.774,4.786v7.179H46.393L44,31.393Z" transform="translate(-8.905 -4.857)" fill="#c99e85"/>
      <path id="Trazado_918581" data-name="Trazado 918581" d="M60.774,27.19v5.583L52,27.988,53.6,24Z" transform="translate(-10.524 -3.845)" fill="#b28364"/>
      <path id="Trazado_918582" data-name="Trazado 918582" d="M61.179,18v7.976L54,22.786Z" transform="translate(-10.929 -2.631)" fill="#c99e85"/>
      <path id="Trazado_918583" data-name="Trazado 918583" d="M42.452,9.047,44.19,6H54.559l3.988,4.786L47.381,17.167,41,11.583Z" transform="translate(-8.298 -0.202)" fill="#c99e85"/>
      <path id="Trazado_918584" data-name="Trazado 918584" d="M35.357,6l-3.19,3.988-9.571.8L21,6Z" transform="translate(-4.25 -0.202)" fill="#c99e85"/>
      <path id="Trazado_918585" data-name="Trazado 918585" d="M50.452,10.786v4.786l-7.179,4.786-1.6,3.988-4,1.5-.782-4.69-7.179-7.976-11.964,1.6L12.167,22.75,9.774,25.94,1,22.75V18.762l7.976,1.6,5.583-7.976-.8-3.19L16.952,6l1.6,4.786,9.571-.8L31.309,6l3.047,3.047L32.9,11.583l6.381,5.583Z" transform="translate(-0.202 -0.202)" fill="#956143"/>
      <path id="Trazado_918586" data-name="Trazado 918586" d="M32.548,15l7.179,7.976L25.369,26.964,15,24.571,20.583,16.6Z" transform="translate(-3.036 -2.024)" fill="#c99e85"/>
      <path id="Trazado_918587" data-name="Trazado 918587" d="M13.762,9.19l.8,3.19L8.976,20.357,1,18.762V9.988L6.583,6h6.381Z" transform="translate(-0.202 -0.202)" fill="#c99e85"/>
      <g id="Grupo_1120378" data-name="Grupo 1120378" transform="translate(6.853 8.326)">
        <circle id="Elipse_11923" data-name="Elipse 11923" cx="1.371" cy="1.371" r="1.371" transform="translate(0 0)" fill="#b28364"/>
        <circle id="Elipse_11924" data-name="Elipse 11924" cx="1.371" cy="1.371" r="1.371" transform="translate(32.893 17.817)" fill="#b28364"/>
        <circle id="Elipse_11925" data-name="Elipse 11925" cx="1.371" cy="1.371" r="1.371" transform="translate(9.594 10.964)" fill="#b28364"/>
        <ellipse id="Elipse_11926" data-name="Elipse 11926" cx="0.685" cy="1.371" rx="0.685" ry="1.371" transform="translate(1.371 23.299)" fill="#b28364"/>
        <circle id="Elipse_11927" data-name="Elipse 11927" cx="0.685" cy="0.685" r="0.685" transform="translate(31.522 4.112)" fill="#b28364"/>
      </g>
      <circle id="Elipse_11928" data-name="Elipse 11928" cx="1.371" cy="1.371" r="1.371" transform="translate(24.67 41.219)" fill="#252525"/>
      <circle id="Elipse_11929" data-name="Elipse 11929" cx="0.685" cy="0.685" r="0.685" transform="translate(6.853 41.219)" fill="#252525"/>
      <ellipse id="Elipse_11930" data-name="Elipse 11930" cx="1.371" cy="0.685" rx="1.371" ry="0.685" transform="translate(42.486 41.219)" fill="#252525"/>
      <path id="Trazado_918588" data-name="Trazado 918588" d="M50.862,10.072,46.874,5.286A.8.8,0,0,0,46.262,5H35.893a.8.8,0,0,0-.693.4L33.978,7.54,31.671,5.234A.8.8,0,0,0,31.107,5H16.75a.8.8,0,0,0-.564.234L13.992,7.428,13.536,5.6a.8.8,0,0,0-.774-.6H6.381a.79.79,0,0,0-.463.149L.334,9.137A.8.8,0,0,0,0,9.786v33.5a4.79,4.79,0,0,0,4.786,4.786H46.262a4.79,4.79,0,0,0,4.786-4.786v-32.7a.8.8,0,0,0-.185-.511ZM38.111,35.309l-2.07-8.278,5.373-2.012L49.452,29.4v5.907Zm-6.234-8.186a.8.8,0,0,0-.912-.574L22.379,28.11l-7.793-2.339a.8.8,0,0,0-.986,1.016l3.163,9.319-.013,4.387a1.2,1.2,0,0,1-2.393,0V36.107c0-.1-3.883-10.244-3.883-10.244l1.816-2.422s9.858,2.3,9.918,2.3a.577.577,0,0,0,.339-.029l5.743-1.6a.8.8,0,1,0-.427-1.538l-5.548,1.542L13.3,22.036,18,15.316l11.2-1.494,6.036,6.706-3.547.982a.8.8,0,1,0,.428,1.538l3.931-1.093.528,3.17-1.764.66a.8.8,0,0,0-.493.94l2.369,9.381v4.387a1.2,1.2,0,0,1-2.393,0V36.107C34.3,36.036,31.877,27.123,31.877,27.123ZM18.123,35.309,15.6,27.742l6.5,1.951a.771.771,0,0,0,.372.02l8.056-1.464,1.924,7.061ZM1.6,23.686l7.362,2.678L12.4,35.309H1.6ZM43.5,21.22l5.948,2.643v3.721l-6.973-3.8Zm1.215-1.206,4.733-3.155v5.259ZM29.447,6.6,27.508,9.019l-8.6.718L17.856,6.6ZM6.636,6.6h5.5L13.5,12.019,12.109,14a.8.8,0,1,0,1.307.915l1.6-2.28a.8.8,0,0,0,.12-.65l-.688-2.753L16.4,7.274l1.187,3.561a.8.8,0,0,0,.756.546.628.628,0,0,0,.067,0l9.571-.8a.8.8,0,0,0,.558-.3l2.632-3.293,1.984,1.984-1.149,2a.8.8,0,0,0,.167,1l6.381,5.583a.8.8,0,0,0,.921.092L47.455,13.1a.8.8,0,0,0-.791-1.385l-7.482,4.275-5.463-4.779L36.356,6.6h9.532l3.564,4.277V14.94l-6.824,4.546a1.516,1.516,0,0,0-.3.368l-1.464,3.661L38.1,24.552l-.623-3.735a1.394,1.394,0,0,0-.194-.4L30.1,12.442a.8.8,0,0,0-.7-.257l-11.964,1.6a.8.8,0,0,0-.548.333L11.311,22.09l-2.025,2.7L1.6,21.989V19.533s7.127,1.42,7.179,1.42a.8.8,0,0,0,.653-.341L11.1,18.219A.8.8,0,1,0,9.8,17.3L8.42,19.271,1.6,17.905V10.2ZM46.262,46.476H4.786a3.19,3.19,0,0,1-3.19-3.19V36.9H12.762v3.589a2.792,2.792,0,0,0,5.583,0V36.9H32.7v3.589a2.792,2.792,0,0,0,5.583,0V36.9H49.452v6.381A3.19,3.19,0,0,1,46.262,46.476Z" fill="#252525"/>
    </g>
  </g>
</svg>
