<svg xmlns="http://www.w3.org/2000/svg" width="71" height="71" viewBox="0 0 71 71">
  <g id="Grupo_1120056" data-name="Grupo 1120056" transform="translate(-615.051 -9747)">
    <circle id="Elipse_11664" data-name="Elipse 11664" cx="35.5" cy="35.5" r="35.5" transform="translate(615.051 9747)" fill="#6b9339"/>
    <g id="Grupo_1120055" data-name="Grupo 1120055" transform="translate(597.412 9755)">
      <g id="Grupo_1120053" data-name="Grupo 1120053" transform="translate(29.445 0.807)">
        <g id="Grupo_1120052" data-name="Grupo 1120052" transform="translate(0)">
          <g id="Grupo_1120048" data-name="Grupo 1120048" transform="translate(0 33.749)">
            <path id="Trazado_917824" data-name="Trazado 917824" d="M53.783,329.462l-.752-1.554a2.249,2.249,0,0,0-2.652-1.181l-1.659.481a2.047,2.047,0,0,1-.57.082,2.025,2.025,0,0,1-2.031-1.971l-.055-1.726a2.245,2.245,0,0,0-1.943-2.158l-.62-.085-7.2,12.463a1.284,1.284,0,0,0,1.261,1.917l4.689-.551a1.284,1.284,0,0,1,1.329.767l1.868,4.336a1.284,1.284,0,0,0,2.291.134l6.182-10.707A2.073,2.073,0,0,1,53.783,329.462Z" transform="translate(-36.13 -321.326)" fill="#fe646f"/>
            <path id="Trazado_917825" data-name="Trazado 917825" d="M53.032,371.762a2.263,2.263,0,0,0-2.025-1.27h-.028l-3.9,6.76a1.076,1.076,0,0,1-1.47.394l-6.966-4.022-2.333,4.042a1.284,1.284,0,0,0,1.261,1.917l4.689-.551a1.284,1.284,0,0,1,1.329.767l1.868,4.336a1.284,1.284,0,0,0,2.291.134l6.182-10.707a2.063,2.063,0,0,1-.141-.247Z" transform="translate(-36.131 -365.181)" fill="#fd4755"/>
            <path id="Trazado_917826" data-name="Trazado 917826" d="M327.387,333.62l-7.209-12.487-.79.109a2.244,2.244,0,0,0-1.943,2.158l-.055,1.726a2.031,2.031,0,0,1-2.6,1.89l-1.659-.481a2.249,2.249,0,0,0-2.652,1.181l-.752,1.554c-.015.031-.032.061-.048.091l6.272,10.863a1.284,1.284,0,0,0,2.291-.134l1.868-4.336a1.284,1.284,0,0,1,1.329-.767l4.689.551A1.283,1.283,0,0,0,327.387,333.62Z" transform="translate(-280.242 -321.133)" fill="#fe646f"/>
            <path id="Trazado_917827" data-name="Trazado 917827" d="M357.793,333.62l-7.209-12.487-.79.109a2.244,2.244,0,0,0-1.943,2.158l-.055,1.726a2.068,2.068,0,0,1-.037.319l2.905,5.032a1.076,1.076,0,0,1-.394,1.47l-6.52,3.764,2.605,4.512a1.284,1.284,0,0,0,2.291-.134l1.868-4.336a1.284,1.284,0,0,1,1.329-.767l4.689.551A1.283,1.283,0,0,0,357.793,333.62Z" transform="translate(-310.649 -321.133)" fill="#fd4755"/>
          </g>
          <path id="Trazado_917828" data-name="Trazado 917828" d="M77.068,8.328l1.059,1.364a2.143,2.143,0,0,0,2.7.575l1.522-.815a2.143,2.143,0,0,1,3.092,1.377l.413,1.677a2.143,2.143,0,0,0,2.236,1.625L89.817,14a2.143,2.143,0,0,1,2.265,2.515l-.3,1.7a2.143,2.143,0,0,0,1.382,2.394l1.625.586a2.143,2.143,0,0,1,1.046,3.219l-.97,1.429a2.143,2.143,0,0,0,.289,2.749l1.246,1.2a2.143,2.143,0,0,1-.354,3.366l-1.467.911a2.143,2.143,0,0,0-.854,2.629l.652,1.6a2.143,2.143,0,0,1-1.692,2.931l-1.711.235a2.143,2.143,0,0,0-1.85,2.054l-.055,1.726a2.143,2.143,0,0,1-2.738,1.99l-1.659-.481a2.143,2.143,0,0,0-2.525,1.124l-.752,1.554a2.143,2.143,0,0,1-3.311.7l-1.319-1.114a2.143,2.143,0,0,0-2.764,0l-1.319,1.114a2.143,2.143,0,0,1-3.311-.7l-.752-1.554a2.143,2.143,0,0,0-2.525-1.124l-1.659.481a2.143,2.143,0,0,1-2.738-1.99l-.055-1.726a2.143,2.143,0,0,0-1.85-2.054l-1.711-.235A2.143,2.143,0,0,1,56.38,38.3l.652-1.6a2.143,2.143,0,0,0-.854-2.629l-1.467-.911a2.143,2.143,0,0,1-.354-3.366L55.6,28.6a2.143,2.143,0,0,0,.289-2.749l-.97-1.429A2.143,2.143,0,0,1,55.967,21.2l1.625-.586a2.143,2.143,0,0,0,1.382-2.394l-.3-1.7A2.143,2.143,0,0,1,60.934,14l1.722.126a2.143,2.143,0,0,0,2.236-1.625l.413-1.677A2.143,2.143,0,0,1,68.4,9.452l1.522.815a2.143,2.143,0,0,0,2.7-.575l1.059-1.364a2.143,2.143,0,0,1,3.385,0Z" transform="translate(-51.807 -7.5)" fill="#fedf30"/>
          <path id="Trazado_917829" data-name="Trazado 917829" d="M162.377,43.866l-1.246-1.2a2.143,2.143,0,0,1-.289-2.749l.97-1.429a2.143,2.143,0,0,0-1.046-3.219l-1.624-.586a2.143,2.143,0,0,1-1.382-2.394l.3-1.7a2.143,2.143,0,0,0-2.265-2.515l-1.722.126a2.143,2.143,0,0,1-2.236-1.625l-.413-1.677a2.143,2.143,0,0,0-3.092-1.377l-1.063.569a22.224,22.224,0,0,1-18.736,34.173c-.3,0-.6-.008-.9-.02l.034,1.07a2.143,2.143,0,0,0,2.738,1.99l1.659-.481a2.143,2.143,0,0,1,2.525,1.124l.752,1.554a2.143,2.143,0,0,0,3.311.7l1.319-1.114a2.143,2.143,0,0,1,2.764,0l1.319,1.114a2.143,2.143,0,0,0,3.311-.7l.752-1.554a2.143,2.143,0,0,1,2.525-1.124l1.659.481a2.143,2.143,0,0,0,2.738-1.99l.055-1.726a2.143,2.143,0,0,1,1.85-2.054l1.711-.235a2.143,2.143,0,0,0,1.692-2.931l-.652-1.6a2.143,2.143,0,0,1,.854-2.629l1.467-.911a2.143,2.143,0,0,0,.353-3.366Z" transform="translate(-117.79 -21.573)" fill="#fed402"/>
          <circle id="Elipse_11880" data-name="Elipse 11880" cx="14.827" cy="14.827" r="14.827" transform="translate(8.833 6.817)" fill="#fac600"/>
          <path id="Trazado_917830" data-name="Trazado 917830" d="M219.284,97.7A22.243,22.243,0,0,1,205,123.415,14.829,14.829,0,0,0,219.284,97.7Z" transform="translate(-186.831 -87.994)" fill="#e8b800"/>
          <circle id="Elipse_11881" data-name="Elipse 11881" cx="10.829" cy="10.829" r="10.829" transform="translate(12.83 10.815)" fill="#fff"/>
          <path id="Trazado_917831" data-name="Trazado 917831" d="M266.238,156.338a22.194,22.194,0,0,1-9.135,16.456,10.831,10.831,0,0,0,9.135-16.456Z" transform="translate(-233.325 -140.322)" fill="#eaf6ff"/>
          <g id="Grupo_1120051" data-name="Grupo 1120051" transform="translate(11.5 14.224)">
            <g id="Grupo_1120049" data-name="Grupo 1120049" transform="translate(13.957)">
              <path id="Trazado_917832" data-name="Trazado 917832" d="M282.327,139.708l-6.364,1.705a4.392,4.392,0,1,0,5.379,5.379l1.705-6.364A.588.588,0,0,0,282.327,139.708Z" transform="translate(-272.705 -139.687)" fill="#a2e62e"/>
              <path id="Trazado_917833" data-name="Trazado 917833" d="M288.462,139.708l-3.053.818-1.16,4.331a4.387,4.387,0,0,1-4.668,3.237,4.5,4.5,0,0,0,.549.667,4.392,4.392,0,0,0,7.347-1.969l1.705-6.364A.588.588,0,0,0,288.462,139.708Z" transform="translate(-278.841 -139.687)" fill="#97d729"/>
            </g>
            <g id="Grupo_1120050" data-name="Grupo 1120050">
              <path id="Trazado_917834" data-name="Trazado 917834" d="M143.741,139.708l6.364,1.705a4.392,4.392,0,1,1-5.379,5.379l-1.705-6.364A.588.588,0,0,1,143.741,139.708Z" transform="translate(-143 -139.687)" fill="#a2e62e"/>
              <path id="Trazado_917835" data-name="Trazado 917835" d="M169.246,154.038l-.759-.2a4.386,4.386,0,0,1-.5,5.616,4.333,4.333,0,0,1-3.537,1.264,4.393,4.393,0,1,0,4.8-6.676Z" transform="translate(-162.142 -152.313)" fill="#97d729"/>
            </g>
          </g>
        </g>
      </g>
      <g id="Grupo_1120054" data-name="Grupo 1120054" transform="translate(28.639 0)">
        <path id="Trazado_917836" data-name="Trazado 917836" d="M77.289,46.639l-6.56-11.362A2.949,2.949,0,0,0,72.756,31.3L72.1,29.7a1.332,1.332,0,0,1,.532-1.639l1.467-.911a2.95,2.95,0,0,0,.487-4.634l-1.246-1.2a1.332,1.332,0,0,1-.18-1.714l.97-1.429a2.95,2.95,0,0,0-1.44-4.432l-1.625-.586a1.332,1.332,0,0,1-.862-1.492l.3-1.7A2.95,2.95,0,0,0,67.4,6.507l-1.722.126A1.333,1.333,0,0,1,64.28,5.62l-.413-1.677a2.95,2.95,0,0,0-4.257-1.9l-1.522.815A1.332,1.332,0,0,1,56.4,2.5L55.344,1.141a2.95,2.95,0,0,0-4.66,0L49.625,2.5a1.332,1.332,0,0,1-1.685.358l-1.522-.815a2.95,2.95,0,0,0-4.257,1.9L41.747,5.62a1.331,1.331,0,0,1-1.394,1.013l-1.722-.126A2.95,2.95,0,0,0,35.513,9.97l.305,1.7a1.332,1.332,0,0,1-.862,1.492l-1.624.586a2.95,2.95,0,0,0-1.44,4.432l.97,1.429a1.332,1.332,0,0,1-.18,1.714l-1.246,1.2a2.95,2.95,0,0,0,.487,4.634l1.467.911a1.332,1.332,0,0,1,.532,1.639l-.652,1.6a2.949,2.949,0,0,0,2.19,4.012l-1.329,2.3a.807.807,0,1,0,1.4.807l1.656-2.868.126.017a1.332,1.332,0,0,1,1.153,1.281l.055,1.726a2.95,2.95,0,0,0,3.77,2.739l1.659-.481a1.332,1.332,0,0,1,1.574.7l.727,1.5-5.891,10.2a.477.477,0,0,1-.851-.05L37.64,48.857a2.1,2.1,0,0,0-2.164-1.25l-4.689.551a.477.477,0,0,1-.468-.712l3.327-5.763a.807.807,0,0,0-1.4-.807l-3.327,5.763a2.091,2.091,0,0,0,2.054,3.122l4.689-.551a.48.48,0,0,1,.493.285l1.868,4.336a2.08,2.08,0,0,0,1.8,1.26c.042,0,.083,0,.125,0a2.079,2.079,0,0,0,1.808-1.045l5.62-9.734a2.989,2.989,0,0,0,1.561.441,2.928,2.928,0,0,0,1.9-.7l1.319-1.114a1.333,1.333,0,0,1,1.723,0l1.319,1.114a2.958,2.958,0,0,0,3.589.169l5.67,9.821A2.079,2.079,0,0,0,66.262,55.1c.041,0,.083,0,.125,0a2.08,2.08,0,0,0,1.8-1.26L70.052,49.5a.48.48,0,0,1,.493-.285l4.689.551a2.091,2.091,0,0,0,2.054-3.122ZM57.375,43.112a1.327,1.327,0,0,1-1.139-.286l-1.319-1.114a2.942,2.942,0,0,0-3.806,0l-1.319,1.114a1.336,1.336,0,0,1-2.064-.439l-.752-1.554A2.942,2.942,0,0,0,43.5,39.286l-1.659.481a1.336,1.336,0,0,1-1.707-1.24L40.078,36.8a2.942,2.942,0,0,0-2.546-2.828l-1.711-.235a1.335,1.335,0,0,1-1.055-1.827l.652-1.6a2.942,2.942,0,0,0-1.176-3.619l-1.467-.911a1.336,1.336,0,0,1-.221-2.1l1.246-1.2a2.942,2.942,0,0,0,.4-3.785l-.97-1.429a1.336,1.336,0,0,1,.652-2.007l1.624-.586a2.942,2.942,0,0,0,1.9-3.3l-.305-1.7a1.336,1.336,0,0,1,1.412-1.568l1.722.126a2.941,2.941,0,0,0,3.079-2.237l.413-1.677a1.336,1.336,0,0,1,1.928-.858l1.522.815A2.942,2.942,0,0,0,50.9,3.495l1.059-1.364a1.336,1.336,0,0,1,2.11,0l1.059,1.364a2.942,2.942,0,0,0,3.722.791l1.522-.815a1.336,1.336,0,0,1,1.927.858l.413,1.677a2.942,2.942,0,0,0,3.079,2.237l1.722-.126a1.336,1.336,0,0,1,1.412,1.568l-.3,1.7a2.942,2.942,0,0,0,1.9,3.3l1.625.586a1.336,1.336,0,0,1,.652,2.007L71.83,18.7a2.942,2.942,0,0,0,.4,3.785l1.246,1.2a1.336,1.336,0,0,1-.221,2.1l-1.467.911A2.942,2.942,0,0,0,70.61,30.31l.652,1.6a1.335,1.335,0,0,1-1.055,1.827l-1.711.235A2.942,2.942,0,0,0,65.949,36.8l-.055,1.726a1.336,1.336,0,0,1-1.707,1.24l-1.659-.481a2.942,2.942,0,0,0-3.477,1.548L58.3,42.388a1.327,1.327,0,0,1-.924.725Zm18.5,4.834a.467.467,0,0,1-.454.211l-4.689-.551a2.1,2.1,0,0,0-2.164,1.249L66.7,53.193a.477.477,0,0,1-.85.05L59.861,42.866l.644-1.33a1.332,1.332,0,0,1,1.574-.7l1.659.481a2.95,2.95,0,0,0,3.77-2.739l.055-1.726a1.332,1.332,0,0,1,1.153-1.281l.3-.041,6.88,11.916a.465.465,0,0,1-.015.5Z" transform="translate(-28.639 0)"/>
        <path id="Trazado_917837" data-name="Trazado 917837" d="M141.939,80.128a.807.807,0,1,0-1.61-.116,14.02,14.02,0,1,1-26.73-6.859l1.194,4.456a11.778,11.778,0,0,0-.083,1.376,11.636,11.636,0,1,0,23.273,0,11.776,11.776,0,0,0-.083-1.376l1.2-4.468a13.991,13.991,0,0,1,1.039,3.305.807.807,0,0,0,1.588-.29,15.65,15.65,0,1,0,.214,3.972Zm-20.856-6.057a3.585,3.585,0,0,1,2.113,5.362l-3.688-3.688a.807.807,0,0,0-1.141,1.141l3.688,3.688a3.585,3.585,0,0,1-5.362-2.113l-1.607-6ZM116.6,81.338a5.194,5.194,0,0,0,2.205,1.217,5.285,5.285,0,0,0,1.369.182,5.113,5.113,0,0,0,3.038-1l2.323,2.323v4.915A10.045,10.045,0,0,1,116.6,81.338Zm10.55,7.637V84.06l2.323-2.323a5.111,5.111,0,0,0,3.038,1,5.29,5.29,0,0,0,1.369-.182,5.193,5.193,0,0,0,2.205-1.217A10.044,10.044,0,0,1,127.154,88.976Zm1.923-12.369a3.548,3.548,0,0,1,2.535-2.535l6-1.607-1.607,6a3.586,3.586,0,0,1-5.362,2.113l3.688-3.688a.807.807,0,1,0-1.141-1.141L129.5,79.433A3.542,3.542,0,0,1,129.076,76.606Zm-2.73-11.64a14.018,14.018,0,0,1,11.372,5.808,1.433,1.433,0,0,0-.162.033l-2.354.631a11.6,11.6,0,0,0-6.834-3.913.807.807,0,1,0-.279,1.59,9.976,9.976,0,0,1,5.351,2.795l-2.248.6a5.2,5.2,0,0,0-2.856,8.082l-1.99,1.99-1.99-1.99a5.2,5.2,0,0,0-2.856-8.082l-2.248-.6a9.976,9.976,0,0,1,5.351-2.795.807.807,0,1,0-.279-1.59,11.6,11.6,0,0,0-6.834,3.913l-2.354-.631a1.432,1.432,0,0,0-.148-.031A14.01,14.01,0,0,1,126.347,64.966Z" transform="translate(-101.881 -56.535)"/>
      </g>
    </g>
  </g>
</svg>
