<svg xmlns="http://www.w3.org/2000/svg" width="71" height="71" viewBox="0 0 71 71">
  <g id="Grupo_1120391" data-name="Grupo 1120391" transform="translate(-195.051 -13766)">
    <circle id="Elipse_11626" data-name="Elipse 11626" cx="35.5" cy="35.5" r="35.5" transform="translate(195.051 13766)" fill="#fff"/>
    <g id="Grupo_1120390" data-name="Grupo 1120390" transform="translate(204.051 13774.956)">
      <g id="Grupo_1120388" data-name="Grupo 1120388" transform="translate(0.762 0.806)">
        <path id="Trazado_918596" data-name="Trazado 918596" d="M93.719,311.767h-.064A25.969,25.969,0,0,0,75.3,319.33h0L88.03,330.4l29.85-.077-1.4-3.914Z" transform="translate(-68.414 -280.866)" fill="#b2e5fb"/>
        <path id="Trazado_918597" data-name="Trazado 918597" d="M220.033,478.084a.762.762,0,0,1-.753.647H191l-.583,1.093,1.426.938h28.429a1.526,1.526,0,0,0,1.436-1.008l-.7-1.606Z" transform="translate(-171.834 -430.291)" fill="#94d8e6"/>
        <path id="Trazado_918598" data-name="Trazado 918598" d="M28.251,390.757l-8.468-4.523h0a26.063,26.063,0,0,0-6.276,9.976l9.277,1.093,9.275-1.093L31.1,393.9A6.29,6.29,0,0,0,28.251,390.757Z" transform="translate(-12.896 -347.77)" fill="#acd980"/>
        <path id="Trazado_918599" data-name="Trazado 918599" d="M12.708,484.456l-.007.019a1.522,1.522,0,0,0,1.444,2.012H32.1l-.842-2.031Z" transform="translate(-12.098 -436.016)" fill="#9cd169"/>
        <path id="Trazado_918600" data-name="Trazado 918600" d="M246.519,316.019a11.47,11.47,0,0,0,2.516,5.347,5.85,5.85,0,0,0,3.46,1.992c3.669.419,7.234.419,10.8.629a12.362,12.362,0,0,1,2.1.419,9.96,9.96,0,0,1,1.782,1.048l3.211,3.211s.775.076.657-.551a31.164,31.164,0,0,0-6.235-9.7,25.954,25.954,0,0,0-17.317-6.646l-.131.261A5.9,5.9,0,0,0,246.519,316.019Z" transform="translate(-222.184 -280.873)" fill="#acd980"/>
        <path id="Trazado_918601" data-name="Trazado 918601" d="M434.38,388.119a26.083,26.083,0,0,0-7.256-10.913,26.013,26.013,0,0,1,5.555,9.911.758.758,0,0,1,.023.335l1.671,1.671A1.492,1.492,0,0,0,434.38,388.119Z" transform="translate(-384.503 -339.659)" fill="#9cd169"/>
        <path id="Trazado_918602" data-name="Trazado 918602" d="M10.132,39.864a29.749,29.749,0,0,1,22.527-9.751A31.93,31.93,0,0,1,55.97,40.294c.266-.858,3.639-7.318-4.087-12.346.448-.928,2.516-7.777-5.084-9.713A13.59,13.59,0,0,0,33.251,7.913a13.8,13.8,0,0,0-11.6,8.175c-.233-.015-.468-.024-.7-.024a10.685,10.685,0,0,0-9.572,15.427,7.7,7.7,0,0,0-3.655,8.5,1.472,1.472,0,0,0,.454.76,3.44,3.44,0,0,0,1.96-.886Z" transform="translate(-7.5 -7.875)" fill="#9bb9c3"/>
        <path id="Trazado_918603" data-name="Trazado 918603" d="M58.89,27.953A7.068,7.068,0,0,0,53.574,17.9,13.8,13.8,0,0,0,40.211,7.544q-.513,0-1.017.037a13.805,13.805,0,0,1,12.225,9.867.754.754,0,0,0,.561.528,7.071,7.071,0,0,1,5.138,9.367.768.768,0,0,0,.32.93,9.167,9.167,0,0,1,4.454,7.867c0,1.006-.828,1.564-1.584.855A31.38,31.38,0,0,0,38.6,28.76a31.153,31.153,0,0,0-23.356,9.908,8.215,8.215,0,0,0-1.131,1.751,1.537,1.537,0,0,0,2.127-.091,30.98,30.98,0,0,1,44.5-.221,1.522,1.522,0,0,0,2.5-.486A9.182,9.182,0,0,0,58.89,27.953Z" transform="translate(-13.443 -7.544)" fill="#87a0af"/>
        <path id="Trazado_918604" data-name="Trazado 918604" d="M172.8,281.122c.314-.193.163-.851.119-1.057l-2.123-2.177a.762.762,0,0,0-1.091,0l-2.271,2.329a.762.762,0,0,0-.174.278l1.406,1.016a3.045,3.045,0,0,1,.711,2.438c-.2,1.016-.813,1.727-1.117,2.742a5.053,5.053,0,0,0-.126,1.616l1.842,1.092c.078-.825,1.9-3.674,1.927-5.918C171.919,282.314,170.129,280.92,172.8,281.122Z" transform="translate(-151.036 -250.222)" fill="#df646e"/>
        <path id="Trazado_918605" data-name="Trazado 918605" d="M167.3,305.589h-.418a.763.763,0,0,0,.719,1.016h.687l-.44-.71A.645.645,0,0,0,167.3,305.589Z" transform="translate(-150.656 -275.316)" fill="#ca4646"/>
        <path id="Trazado_918606" data-name="Trazado 918606" d="M180.8,301.509l-.148-.152a.356.356,0,0,1-.348.43h-2.41a.355.355,0,0,0-.291.56l.321.456a4.645,4.645,0,0,1,.508,3.657c-.279,1.022-.982,1.873-1.178,2.866a.351.351,0,0,1-.349.28l-1.037-.006a6.024,6.024,0,0,0,.331,1.542.754.754,0,0,0,.6.489.77.77,0,0,0,.117.009H178.2a.76.76,0,0,0,.719-1.013,3.021,3.021,0,0,1-.19-1.018c.1-1.117.914-2.031,1.219-3.149a4.645,4.645,0,0,0-.508-3.657h.807A.762.762,0,0,0,180.8,301.509Z" transform="translate(-158.763 -271.514)" fill="#ca4646"/>
        <path id="Trazado_918607" data-name="Trazado 918607" d="M292.043,281.122c.314-.193.163-.851.119-1.057l-2.123-2.177a.762.762,0,0,0-1.091,0l-2.271,2.329a.762.762,0,0,0-.174.278l1.406,1.016a3.045,3.045,0,0,1,.711,2.438c-.2,1.016-.813,1.727-1.117,2.742a5.053,5.053,0,0,0-.126,1.616l1.842,1.092c.078-.825,1.9-3.674,1.927-5.918C291.16,282.314,289.37,280.92,292.043,281.122Z" transform="translate(-258.165 -250.222)" fill="#df646e"/>
        <g id="Grupo_1120387" data-name="Grupo 1120387" transform="translate(28.295 29.843)">
          <path id="Trazado_918608" data-name="Trazado 918608" d="M286.541,305.589h-.418a.763.763,0,0,0,.719,1.016h.687l-.44-.71A.645.645,0,0,0,286.541,305.589Z" transform="translate(-286.08 -305.159)" fill="#ca4646"/>
          <path id="Trazado_918609" data-name="Trazado 918609" d="M300.036,301.509l-.148-.152a.356.356,0,0,1-.348.43h-2.41a.355.355,0,0,0-.291.56l.321.456a4.645,4.645,0,0,1,.508,3.657c-.279,1.022-.982,1.873-1.178,2.866a.351.351,0,0,1-.349.28L295.1,309.6a6.024,6.024,0,0,0,.331,1.542.754.754,0,0,0,.6.489.77.77,0,0,0,.117.009h1.294a.76.76,0,0,0,.719-1.013,3.021,3.021,0,0,1-.19-1.018c.1-1.117.914-2.031,1.219-3.149a4.645,4.645,0,0,0-.508-3.657h.807A.762.762,0,0,0,300.036,301.509Z" transform="translate(-294.187 -301.357)" fill="#ca4646"/>
        </g>
      </g>
      <g id="Grupo_1120389" data-name="Grupo 1120389" transform="translate(0 0.044)">
        <path id="Trazado_918610" data-name="Trazado 918610" d="M50.851,282.875a.762.762,0,1,0-1.151,1,25.171,25.171,0,0,1,4.156,6.636l-2.982-2.982a.773.773,0,0,0-.063-.056,10.579,10.579,0,0,0-1.918-1.135.753.753,0,0,0-.1-.041,12.984,12.984,0,0,0-2.23-.451l-.063-.006c-1.2-.071-2.425-.118-3.606-.165-2.326-.091-4.731-.185-7.136-.459a5.082,5.082,0,0,1-2.981-1.73,10.713,10.713,0,0,1-2.344-4.967,5.066,5.066,0,0,1,.673-3.362c.85.017,1.7.073,2.532.174a1.522,1.522,0,0,0,.765.206h.308a2.309,2.309,0,0,1,.336,1.559,5.268,5.268,0,0,1-.512,1.276,8.181,8.181,0,0,0-.581,1.365c0,.011-.007.023-.009.034a6.319,6.319,0,0,0,.226,3.6,1.52,1.52,0,0,0,1.433,1.005H36.9a1.522,1.522,0,0,0,1.435-2.033,2.3,2.3,0,0,1-.145-.726,4.6,4.6,0,0,1,.56-1.482,7.87,7.87,0,0,0,.631-1.5l0-.016a5.96,5.96,0,0,0,.173-1.829,25.125,25.125,0,0,1,7.956,4.861.762.762,0,0,0,1.02-1.132,26.638,26.638,0,0,0-8.713-5.259,1.521,1.521,0,0,0,.215-2.309l-2.271-2.329a1.524,1.524,0,0,0-2.182,0l-2.271,2.329a1.522,1.522,0,0,0-.406.776,27.408,27.408,0,0,0-4.579-.007,1.521,1.521,0,0,0-.4-.77l-2.271-2.329a1.524,1.524,0,0,0-2.182,0L21.2,272.946a1.523,1.523,0,0,0,.192,2.293A26.881,26.881,0,0,0,5.23,291.695a2.249,2.249,0,0,0,.3,2.061,2.294,2.294,0,0,0,1.864.961H53.781a2.294,2.294,0,0,0,1.864-.961,2.248,2.248,0,0,0,.3-2.061,26.667,26.667,0,0,0-5.093-8.82ZM36.676,271.681l2.271,2.329H38.14a.762.762,0,0,0-.643,1.171,3.888,3.888,0,0,1,.413,3.055,6.662,6.662,0,0,1-.518,1.205,5.654,5.654,0,0,0-.722,2.067q0,.034,0,.069a3.756,3.756,0,0,0,.233,1.27H35.606a4.788,4.788,0,0,1-.185-2.692,6.975,6.975,0,0,1,.478-1.1,6.484,6.484,0,0,0,.652-1.693c0-.022.008-.043.01-.065a3.812,3.812,0,0,0-.89-3.018.762.762,0,0,0-.578-.266h-.687Zm-12.112,0,2.271,2.329h-.807a.762.762,0,0,0-.643,1.171,3.888,3.888,0,0,1,.413,3.055,6.661,6.661,0,0,1-.518,1.205,5.654,5.654,0,0,0-.722,2.067c0,.023,0,.046,0,.069a3.754,3.754,0,0,0,.233,1.27H23.494a4.789,4.789,0,0,1-.185-2.692,6.976,6.976,0,0,1,.478-1.1,6.484,6.484,0,0,0,.652-1.693c0-.022.008-.043.01-.065a3.812,3.812,0,0,0-.89-3.018.762.762,0,0,0-.578-.266h-.687Zm1.3,21.513-1.607-3.876a7.069,7.069,0,0,0-3.192-3.519l-1.758-.939a.762.762,0,1,0-.718,1.344l1.758.939a5.542,5.542,0,0,1,2.5,2.759l1.365,3.292H7.394a.758.758,0,0,1-.624-.322.742.742,0,0,1-.1-.68,25.283,25.283,0,0,1,5.707-9.3L16,284.821a.762.762,0,1,0,.718-1.344l-3.194-1.706a25.266,25.266,0,0,1,9.394-5.439,2.737,2.737,0,0,1,.022.759,5.268,5.268,0,0,1-.512,1.276,8.18,8.18,0,0,0-.581,1.365c0,.011-.007.023-.009.034a6.32,6.32,0,0,0,.226,3.6,1.52,1.52,0,0,0,1.433,1.005h1.294a1.522,1.522,0,0,0,1.435-2.033,2.3,2.3,0,0,1-.145-.726,4.6,4.6,0,0,1,.56-1.482,7.87,7.87,0,0,0,.631-1.5l0-.016a5.637,5.637,0,0,0-.073-3.124,1.516,1.516,0,0,0,.418-.175c.022,0,.044,0,.066,0,.567-.065,1.14-.108,1.715-.134a6.424,6.424,0,0,0-.473,3.562l0,.011a12.218,12.218,0,0,0,2.674,5.7l.029.034a6.565,6.565,0,0,0,3.91,2.235l.029,0c2.467.282,4.906.377,7.265.469,1.163.045,2.366.092,3.544.161a11.99,11.99,0,0,1,1.883.367,9.282,9.282,0,0,1,1.565.912l4.408,4.408a.756.756,0,0,1-.455.151Z" transform="translate(-4.585 -242.721)"/>
        <path id="Trazado_918611" data-name="Trazado 918611" d="M133.006,108.942a3.905,3.905,0,0,1,2.195.67.762.762,0,1,0,.853-1.263,5.45,5.45,0,1,0-3.048,9.969,4.451,4.451,0,0,0,3.537-1.6.762.762,0,1,0-1.167-.979,2.931,2.931,0,0,1-2.37,1.051,3.927,3.927,0,0,1,0-7.853Z" transform="translate(-114.6 -96.512)"/>
        <path id="Trazado_918612" data-name="Trazado 918612" d="M227.218,112.868a5.45,5.45,0,1,0,5.45-5.45A5.456,5.456,0,0,0,227.218,112.868Zm9.376,0a3.927,3.927,0,1,1-3.927-3.926A3.931,3.931,0,0,1,236.594,112.868Z" transform="translate(-204.139 -96.512)"/>
        <path id="Trazado_918613" data-name="Trazado 918613" d="M345.959,155.169c-.744,1.063-1.187,1.643-1.425,1.955-.3.4-.5.656-.376,1.064a.791.791,0,0,0,.507.515c.1.033,1.978.055,2.652.046a.762.762,0,0,0-.009-1.523h-.01l-.943.009c.228-.311.509-.7.853-1.193a3.8,3.8,0,0,0,.619-1.288.744.744,0,0,0,.013-.076l.023-.182a.743.743,0,0,0,.006-.1,1.968,1.968,0,0,0-3.9-.38.762.762,0,1,0,1.495.294.444.444,0,0,1,.878.05l-.01.079A2.393,2.393,0,0,1,345.959,155.169Z" transform="translate(-309.02 -136.955)"/>
        <path id="Trazado_918614" data-name="Trazado 918614" d="M1.851,142.659a2.3,2.3,0,0,0,2.259-.629,30.265,30.265,0,0,1,31.049-7.863.762.762,0,1,0,.465-1.451,31.716,31.716,0,0,0-32.614,8.259.769.769,0,0,1-.764.213.723.723,0,0,1-.526-.535A6.934,6.934,0,0,1,5.014,133a.762.762,0,0,0,.3-1,9.927,9.927,0,0,1,1.141-10.6.762.762,0,1,0-1.189-.952,11.475,11.475,0,0,0-2.505,7.147,11.326,11.326,0,0,0,.9,4.457A8.456,8.456,0,0,0,.24,141.014a2.231,2.231,0,0,0,1.611,1.645Z" transform="translate(0 -107.957)"/>
        <path id="Trazado_918615" data-name="Trazado 918615" d="M74.727,11.452a9.868,9.868,0,0,1,5.549-1.7c.209,0,.43.007.655.022a.759.759,0,0,0,.746-.452,13.038,13.038,0,0,1,24.547,2.022.762.762,0,0,0,.626.564,6.306,6.306,0,0,1,4.742,8.971.762.762,0,0,0,.342,1.011,8.42,8.42,0,0,1,3.99,10.7.761.761,0,0,1-1.246.243,31.647,31.647,0,0,0-10.018-6.913.762.762,0,1,0-.609,1.4,30.134,30.134,0,0,1,9.537,6.582,2.275,2.275,0,0,0,1.629.686,2.3,2.3,0,0,0,.44-.043,2.277,2.277,0,0,0,1.675-1.373,9.945,9.945,0,0,0-4.085-12.29A7.831,7.831,0,0,0,107.569,10.5,14.562,14.562,0,0,0,80.5,8.235l-.228,0a11.387,11.387,0,0,0-6.4,1.958.762.762,0,1,0,.853,1.262Z" transform="translate(-66.069 -0.044)"/>
      </g>
    </g>
  </g>
</svg>
