<svg xmlns="http://www.w3.org/2000/svg" width="71" height="71" viewBox="0 0 71 71">
  <g id="Grupo_1120083" data-name="Grupo 1120083" transform="translate(-1034.051 -9747)">
    <circle id="Elipse_11665" data-name="Elipse 11665" cx="35.5" cy="35.5" r="35.5" transform="translate(1034.051 9747)" fill="#6b9339"/>
    <g id="Grupo_1120082" data-name="Grupo 1120082" transform="translate(1042.841 9758.001)">
      <g id="Grupo_1120080" data-name="Grupo 1120080" transform="translate(2.921 0.717)">
        <g id="Grupo_1120057" data-name="Grupo 1120057" transform="translate(14.12 11.411)">
          <path id="Trazado_917838" data-name="Trazado 917838" d="M174.725,135.488l-7.225-8.869a2.944,2.944,0,0,0-4.565,0l-7.225,8.869.078,5.113h19.278Z" transform="translate(-155.711 -125.535)" fill="#cf7451"/>
        </g>
        <g id="Grupo_1120058" data-name="Grupo 1120058" transform="translate(17.752 21.061)">
          <path id="Trazado_917839" data-name="Trazado 917839" d="M193.3,225.407h12.394v5.417H193.3Z" transform="translate(-193.299 -225.407)" fill="#bf613e"/>
        </g>
        <g id="Grupo_1120059" data-name="Grupo 1120059" transform="translate(5.627 0.541)">
          <path id="Trazado_917840" data-name="Trazado 917840" d="M80.881,37.138V30.614L71.8,24.454V15.031a2,2,0,0,0-3.994,0v8.846A10.9,10.9,0,0,0,68.928,28.7l2.537,5.143a3.216,3.216,0,0,1,.332,1.423v1.874h9.083Z" transform="translate(-67.804 -13.034)" fill="#f9e2b6"/>
        </g>
        <g id="Grupo_1120060" data-name="Grupo 1120060" transform="translate(9.619 4.159)">
          <path id="Trazado_917841" data-name="Trazado 917841" d="M112.577,58V52.2a1.726,1.726,0,1,0-3.453,0V58Z" transform="translate(-109.124 -50.473)" fill="#f5cc71"/>
        </g>
        <g id="Grupo_1120061" data-name="Grupo 1120061" transform="translate(9.503 9.65)">
          <path id="Trazado_917842" data-name="Trazado 917842" d="M114.5,116.711l-5.992-5.992a2,2,0,1,1,2.824-2.824l4.957,4.887a4.511,4.511,0,0,1,1.344,3.213v6.31h-4.6Z" transform="translate(-107.919 -107.31)" fill="#f9e2b6"/>
        </g>
        <g id="Grupo_1120062" data-name="Grupo 1120062" transform="translate(28.894 0.541)">
          <path id="Trazado_917843" data-name="Trazado 917843" d="M308.609,37.138V30.614l9.083-6.16V15.031a2,2,0,0,1,3.994,0v8.846a10.9,10.9,0,0,1-1.124,4.821l-2.537,5.143a3.216,3.216,0,0,0-.332,1.423v1.874h-9.083Z" transform="translate(-308.609 -13.034)" fill="#f9e2b6"/>
        </g>
        <g id="Grupo_1120063" data-name="Grupo 1120063" transform="translate(34.525 4.159)">
          <path id="Trazado_917844" data-name="Trazado 917844" d="M366.891,58V52.2a1.726,1.726,0,1,1,3.453,0V58Z" transform="translate(-366.891 -50.473)" fill="#f5cc71"/>
        </g>
        <g id="Grupo_1120064" data-name="Grupo 1120064" transform="translate(28.384 9.65)">
          <path id="Trazado_917845" data-name="Trazado 917845" d="M306.469,116.711l5.992-5.992a2,2,0,0,0-2.824-2.824l-4.957,4.887a4.511,4.511,0,0,0-1.344,3.213v6.31h4.6Z" transform="translate(-303.336 -107.31)" fill="#f9e2b6"/>
        </g>
        <g id="Grupo_1120067" data-name="Grupo 1120067" transform="translate(9.147 21.061)">
          <g id="Grupo_1120065" data-name="Grupo 1120065">
            <path id="Trazado_917846" data-name="Trazado 917846" d="M104.235,225.406l.142.287a3.216,3.216,0,0,1,.332,1.423v1.874H114.3v-3.584H104.235Z" transform="translate(-104.235 -225.406)" fill="#f8d89c"/>
          </g>
          <g id="Grupo_1120066" data-name="Grupo 1120066" transform="translate(19.237 0)">
            <path id="Trazado_917847" data-name="Trazado 917847" d="M303.334,225.407v3.584h9.593v-1.874a3.215,3.215,0,0,1,.332-1.423l.142-.287H303.334Z" transform="translate(-303.334 -225.407)" fill="#f8d89c"/>
          </g>
        </g>
        <g id="Grupo_1120077" data-name="Grupo 1120077" transform="translate(0 24.645)">
          <g id="Grupo_1120070" data-name="Grupo 1120070" transform="translate(0 0)">
            <g id="Grupo_1120068" data-name="Grupo 1120068">
              <path id="Trazado_917848" data-name="Trazado 917848" d="M11.448,262.5a1.88,1.88,0,0,0-1.865,2.091,23.934,23.934,0,0,0,47.574,0,1.88,1.88,0,0,0-1.865-2.091Z" transform="translate(-9.571 -262.499)" fill="#a4e4ff"/>
            </g>
            <g id="Grupo_1120069" data-name="Grupo 1120069" transform="translate(5.493)">
              <path id="Trazado_917849" data-name="Trazado 917849" d="M106.647,262.5h-1.123a23.931,23.931,0,0,1-39.1,14.859,23.933,23.933,0,0,0,42.092-12.768A1.88,1.88,0,0,0,106.647,262.5Z" transform="translate(-66.42 -262.499)" fill="#83dbff"/>
            </g>
          </g>
          <g id="Grupo_1120073" data-name="Grupo 1120073" transform="translate(32.087)">
            <g id="Grupo_1120071" data-name="Grupo 1120071">
              <path id="Trazado_917850" data-name="Trazado 917850" d="M344.615,262.5l.121,2.386a4.862,4.862,0,0,0,.415,2.076,3.442,3.442,0,0,0,1.822,1.472c.388.154.838.306,1,.69.208.5-.24,1.061-.756,1.21a4.07,4.07,0,0,1-1.6-.041,3.693,3.693,0,0,0-2.816.659c-1.2,1.01-1.2,2.826-1.1,4.392a18.149,18.149,0,0,0,.934,5.525c.35.89.837,1.72,1.207,2.6a23.948,23.948,0,0,0,13.318-18.879,1.88,1.88,0,0,0-1.865-2.091Z" transform="translate(-341.659 -262.499)" fill="#57bc88"/>
            </g>
            <g id="Grupo_1120072" data-name="Grupo 1120072" transform="translate(0.643 0)">
              <path id="Trazado_917851" data-name="Trazado 917851" d="M363.17,264.591a1.88,1.88,0,0,0-1.865-2.091H358.25c-1.074,7.453-3.649,13.8-9.935,17.373a9.94,9.94,0,0,0,.33,1c.35.89.837,1.72,1.207,2.6A23.948,23.948,0,0,0,363.17,264.591Z" transform="translate(-348.315 -262.5)" fill="#4bb175"/>
            </g>
          </g>
          <g id="Grupo_1120076" data-name="Grupo 1120076" transform="translate(4.922 0)">
            <g id="Grupo_1120074" data-name="Grupo 1120074">
              <path id="Trazado_917852" data-name="Trazado 917852" d="M61.522,272.689a14.622,14.622,0,0,0-1.007,3.967,23.908,23.908,0,0,0,15.541,8.989,9.4,9.4,0,0,0,.259-3.379,13.127,13.127,0,0,1-.37-2.665c.094-1.545,1.21-2.929,1.125-4.475a1.889,1.889,0,0,0-.376-1.1c-.675-.83-2-.617-2.959-1.086a3.015,3.015,0,0,1-1.493-2.564,10.062,10.062,0,0,1,.474-3.06q.563-2.236.92-4.518.023-.15.045-.3H61.771c.6,2.04,1.273,4.08,1.015,6.155A17.726,17.726,0,0,1,61.522,272.689Z" transform="translate(-60.515 -262.5)" fill="#57bc88"/>
            </g>
            <g id="Grupo_1120075" data-name="Grupo 1120075" transform="translate(0.578 14.865)">
              <path id="Trazado_917853" data-name="Trazado 917853" d="M81.458,424.627a10.143,10.143,0,0,0,.314-2.656,23.832,23.832,0,0,1-15.278-5.624A23.893,23.893,0,0,0,81.458,424.627Z" transform="translate(-66.495 -416.347)" fill="#4bb175"/>
            </g>
          </g>
        </g>
        <g id="Grupo_1120078" data-name="Grupo 1120078" transform="translate(16.489)">
          <path id="Trazado_917854" data-name="Trazado 917854" d="M181.6,13.362c1.482,1.543,4.064,1.6,5.22,1.542a.7.7,0,0,0,.663-.637c.107-1.153.15-3.735-1.332-5.278s-4.064-1.6-5.22-1.542a.7.7,0,0,0-.663.637c-.107,1.153-.15,3.735,1.332,5.278Z" transform="translate(-180.223 -7.432)" fill="#9bd963"/>
        </g>
        <g id="Grupo_1120079" data-name="Grupo 1120079" transform="translate(23.801)">
          <path id="Trazado_917855" data-name="Trazado 917855" d="M261.831,13.362c-1.482,1.543-4.064,1.6-5.22,1.542a.7.7,0,0,1-.663-.637c-.107-1.153-.15-3.735,1.332-5.278s4.064-1.6,5.22-1.542a.7.7,0,0,1,.663.637c.107,1.153.15,3.735-1.332,5.278Z" transform="translate(-255.901 -7.432)" fill="#9bd963"/>
        </g>
      </g>
      <g id="Grupo_1120081" data-name="Grupo 1120081" transform="translate(2.21 -0.001)">
        <path id="Trazado_917856" data-name="Trazado 917856" d="M50.589,25.51a2.6,2.6,0,0,0-1.935-.864H41.635V23.5a2.5,2.5,0,0,1,.257-1.1l2.537-5.143a11.683,11.683,0,0,0,1.2-5.142V3.264a2.722,2.722,0,1,0-5.443,0v1.11a2.449,2.449,0,0,0-3.451,2.237v4.142c0,.02,0,.04,0,.06l-4.584,4.519q-.183.181-.347.378l-2.4-2.947a3.653,3.653,0,0,0-1.951-1.241c0-.018,0-.036,0-.054V8.923q.313.015.607.015c2.949,0,4.464-1.1,5.123-1.782.706-.735,1.843-2.471,1.531-5.846A1.435,1.435,0,0,0,33.371.016C29.983-.16,28.3,1.046,27.59,1.781a4.972,4.972,0,0,0-.858,1.245,4.969,4.969,0,0,0-.858-1.245c-.706-.735-2.4-1.941-5.781-1.764a1.435,1.435,0,0,0-1.347,1.294c-.312,3.375.825,5.112,1.531,5.847.659.686,2.174,1.782,5.123,1.782.2,0,.4-.005.606-.015v2.532a3.651,3.651,0,0,0-2.29,1.309l-2.236,2.745q-.083-.09-.17-.176l-4.584-4.519c0-.02,0-.04,0-.06V6.611a2.45,2.45,0,0,0-3.452-2.237V3.264a2.722,2.722,0,1,0-5.443,0V6.323a.725.725,0,0,0,1.449,0V3.264a1.272,1.272,0,0,1,2.544,0V6.559c0,.017,0,.035,0,.052v4.875a.74.74,0,0,0,0,.081,2.728,2.728,0,0,0,.676,2.731l4.238,4.238a.725.725,0,0,0,1.025-1.025l-4.238-4.238a1.272,1.272,0,1,1,1.8-1.8l4.957,4.887a3.81,3.81,0,0,1,1.128,2.7v5.585H13.279V23.5a3.962,3.962,0,0,0-.407-1.743L10.335,16.61a10.229,10.229,0,0,1-1.05-4.5V9.7a.725.725,0,0,0-1.449,0V12.11a11.684,11.684,0,0,0,1.2,5.142L11.573,22.4a2.5,2.5,0,0,1,.257,1.1v1.149H4.81a2.6,2.6,0,0,0-2.585,2.895,24.659,24.659,0,0,0,49.014,0,2.617,2.617,0,0,0-.651-2.03Zm-37.31-15.6V6.585a1,1,0,0,1,2,.026V9.786a2.734,2.734,0,0,0-2,.121Zm25.906-4.3a1,1,0,0,1,1,.976V9.908a2.737,2.737,0,0,0-2-.121V6.611a1,1,0,0,1,1-1Zm-1.054,5.864a1.272,1.272,0,1,1,1.8,1.8L35.693,17.51a.725.725,0,0,0,1.025,1.025L40.956,14.3a2.724,2.724,0,0,0,.675-2.726.73.73,0,0,0,.005-.085V6.611c0-.017,0-.035,0-.052V3.264a1.272,1.272,0,1,1,2.544,0V12.11a10.228,10.228,0,0,1-1.05,4.5l-2.537,5.143a3.96,3.96,0,0,0-.407,1.743v1.149H32.043V19.061a3.81,3.81,0,0,1,1.128-2.7Zm-9.5-8.689c1.283-1.336,3.658-1.371,4.641-1.322.089.98.148,3.355-1.135,4.69S28.483,7.525,27.5,7.475C27.412,6.5,27.352,4.12,28.635,2.785Zm-2.671,4.69c-.982.05-3.358.014-4.641-1.322s-1.224-3.71-1.135-4.69c.983-.049,3.358-.014,4.641,1.322S26.053,6.5,25.964,7.475Zm-1.123,6.2a2.219,2.219,0,0,1,3.441,0l2.726,3.347a5.241,5.241,0,0,0-.415,2.035v5.585H22.872V19.061a5.252,5.252,0,0,0-.538-2.3ZM3.955,26.478A1.134,1.134,0,0,1,4.81,26.1H8.572a13.255,13.255,0,0,1,.837,5.341,13.434,13.434,0,0,1-.961,3.191c-.088.225-.176.45-.262.675a19.622,19.622,0,0,0-.76,2.394,23.1,23.1,0,0,1-3.76-10.314,1.149,1.149,0,0,1,.289-.9Zm4.651,12.83a14.723,14.723,0,0,1,.935-3.49c.084-.22.17-.441.256-.661a14.723,14.723,0,0,0,1.05-3.541,13.607,13.607,0,0,0-.764-5.519H20.175c-.22,1.314-.879,4.15-.879,4.15a9.789,9.789,0,0,0-.436,3.052,3.7,3.7,0,0,0,1.9,3.17,5.429,5.429,0,0,0,1.422.4,2.177,2.177,0,0,1,1.292.49,1.21,1.21,0,0,1,.214.678,5.318,5.318,0,0,1-.513,2.106,7.635,7.635,0,0,0-.612,2.286,7.507,7.507,0,0,0,.224,2c.058.281.113.547.152.811a8.264,8.264,0,0,1-.1,2.451,23.214,23.214,0,0,1-14.23-8.386ZM49.8,27.382A23.23,23.23,0,0,1,37.548,45.351c-.086-.178-.172-.354-.258-.527-.228-.462-.444-.9-.621-1.35a17.548,17.548,0,0,1-.885-5.306.725.725,0,1,0-1.446.092A18.916,18.916,0,0,0,35.32,44c.2.508.439.993.671,1.461.087.177.172.349.254.52a23.2,23.2,0,0,1-11.973,1.905,9.62,9.62,0,0,0,.1-2.859c-.045-.306-.106-.605-.166-.894a6.319,6.319,0,0,1-.2-1.621,6.465,6.465,0,0,1,.518-1.854,6.466,6.466,0,0,0,.607-2.705,2.6,2.6,0,0,0-.537-1.514,3.3,3.3,0,0,0-2.156-1,4.225,4.225,0,0,1-1.048-.279,2.342,2.342,0,0,1-1.087-1.959,8.572,8.572,0,0,1,.394-2.6l.059-.234c.354-1.4.65-2.841.883-4.273h15.67l.061,1.7a5.528,5.528,0,0,0,.5,2.381,4.118,4.118,0,0,0,2.194,1.8l.084.033a1.9,1.9,0,0,1,.508.253.467.467,0,0,1-.283.244,2.6,2.6,0,0,1-1-.023c-.105-.015-.21-.029-.315-.042a4.372,4.372,0,0,0-3.368.824,3.611,3.611,0,0,0-1.071,1.587.725.725,0,1,0,1.366.484,2.154,2.154,0,0,1,.638-.962,3.074,3.074,0,0,1,2.265-.494c.094.011.189.024.284.038a3.741,3.741,0,0,0,1.6-.02,1.935,1.935,0,0,0,1.179-.992,1.444,1.444,0,0,0,.044-1.2,2.089,2.089,0,0,0-1.323-1.053L40.6,30.63a2.777,2.777,0,0,1-1.45-1.14,4.3,4.3,0,0,1-.33-1.77L38.764,26.1h9.89a1.134,1.134,0,0,1,.855.382A1.148,1.148,0,0,1,49.8,27.382Z" transform="translate(-2.21 0.001)"/>
      </g>
    </g>
  </g>
</svg>
