<svg xmlns="http://www.w3.org/2000/svg" width="71" height="71" viewBox="0 0 71 71">
  <g id="Grupo_1120099" data-name="Grupo 1120099" transform="translate(-615.051 -9878)">
    <circle id="Elipse_11666" data-name="Elipse 11666" cx="35.5" cy="35.5" r="35.5" transform="translate(615.051 9878)" fill="#6b9339"/>
    <g id="Grupo_1120098" data-name="Grupo 1120098" transform="translate(622.05 9865.88)">
      <g id="Grupo_1120096" data-name="Grupo 1120096" transform="translate(0.838 21.957)">
        <g id="Grupo_1120095" data-name="Grupo 1120095" transform="translate(0 0)">
          <g id="Grupo_1120084" data-name="Grupo 1120084" transform="translate(42.99 15.526)">
            <path id="Trazado_917857" data-name="Trazado 917857" d="M392.585,177.569a5.6,5.6,0,0,1,1.765-4.049,4.123,4.123,0,0,1-.251-1.414,4.745,4.745,0,0,1,9.465,0,4.126,4.126,0,0,1-.251,1.414,5.6,5.6,0,0,1,1.765,4.049,5.48,5.48,0,0,1-.783,2.82,5.48,5.48,0,0,1,.783,2.82,6.263,6.263,0,0,1-12.494,0,5.48,5.48,0,0,1,.783-2.82A5.48,5.48,0,0,1,392.585,177.569Z" transform="translate(-392.585 -167.699)" fill="#22b27f"/>
          </g>
          <path id="Trazado_917858" data-name="Trazado 917858" d="M440.346,177.569a5.6,5.6,0,0,0-1.765-4.049,4.123,4.123,0,0,0,.251-1.414A4.578,4.578,0,0,0,434.1,167.7a5.084,5.084,0,0,0-.952.089c2.307,1.8,3.906,5.7,3.906,10.215,0,5.063-2.006,9.347-4.769,10.771a6.673,6.673,0,0,0,1.815.25,6.043,6.043,0,0,0,6.247-5.816,5.48,5.48,0,0,0-.783-2.82A5.48,5.48,0,0,0,440.346,177.569Z" transform="translate(-384.862 -152.173)" fill="#09a76d"/>
          <g id="Grupo_1120085" data-name="Grupo 1120085" transform="translate(16.253 9.968)">
            <path id="Trazado_917859" data-name="Trazado 917859" d="M153.085,127.778a5.6,5.6,0,0,1,1.765-4.049,4.123,4.123,0,0,1-.251-1.414,4.745,4.745,0,0,1,9.465,0,4.126,4.126,0,0,1-.251,1.414,5.6,5.6,0,0,1,1.765,4.049,5.48,5.48,0,0,1-.783,2.82,5.48,5.48,0,0,1,.783,2.82,6.263,6.263,0,0,1-12.494,0,5.48,5.48,0,0,1,.783-2.82A5.48,5.48,0,0,1,153.085,127.778Z" transform="translate(-153.085 -117.908)" fill="#22b27f"/>
          </g>
          <path id="Trazado_917860" data-name="Trazado 917860" d="M201.423,127.778a5.6,5.6,0,0,0-1.765-4.049,4.123,4.123,0,0,0,.251-1.414,4.578,4.578,0,0,0-4.733-4.406,5.079,5.079,0,0,0-1.085.118c2.349,1.771,3.983,5.706,3.983,10.275,0,4.984-1.944,9.213-4.64,10.7a6.677,6.677,0,0,0,1.742.231,6.043,6.043,0,0,0,6.247-5.816,5.48,5.48,0,0,0-.783-2.82,5.48,5.48,0,0,0,.783-2.82Z" transform="translate(-172.677 -107.94)" fill="#09a76d"/>
          <g id="Grupo_1120089" data-name="Grupo 1120089" transform="translate(0 37.447)">
            <path id="Trazado_917861" data-name="Trazado 917861" d="M141.026,377.378h39.417a1.16,1.16,0,0,0,.967-1.8c-4.618-7.025-11.7-11.522-19.643-11.522C153.166,364.057,145.573,369.331,141.026,377.378Z" transform="translate(-126.119 -364.057)" fill="#f6a96c"/>
            <g id="Grupo_1120086" data-name="Grupo 1120086" transform="translate(33.295 1.265)">
              <path id="Trazado_917862" data-name="Trazado 917862" d="M327.737,385.648a25.636,25.636,0,0,0-12.477-10.257,27.718,27.718,0,0,1,6.669,7.124,1.16,1.16,0,0,1-.967,1.8H305.741a22.672,22.672,0,0,1,2.613,3.132H326.77A1.16,1.16,0,0,0,327.737,385.648Z" transform="translate(-305.741 -375.391)" fill="#ea9b58"/>
            </g>
            <g id="Grupo_1120088" data-name="Grupo 1120088" transform="translate(0 3.581)">
              <path id="Trazado_917863" data-name="Trazado 917863" d="M24.854,396.135a22.486,22.486,0,0,0-17.07,7.822,1.16,1.16,0,0,0,.877,1.918H43.408A22.514,22.514,0,0,0,24.854,396.135Z" transform="translate(-7.5 -396.135)" fill="#ffbd86"/>
              <g id="Grupo_1120087" data-name="Grupo 1120087" transform="translate(0 6.608)">
                <path id="Trazado_917864" data-name="Trazado 917864" d="M30.769,455.323H8.913q-.586.587-1.13,1.215a1.16,1.16,0,0,0,.877,1.918H33.384A23.755,23.755,0,0,0,30.769,455.323Z" transform="translate(-7.499 -455.323)" fill="#f6a96c"/>
              </g>
              <path id="Trazado_917865" data-name="Trazado 917865" d="M133.344,396.135a22.689,22.689,0,0,0-3.72.306,26.653,26.653,0,0,1,12.251,9.434H151.9A22.514,22.514,0,0,0,133.344,396.135Z" transform="translate(-115.99 -396.135)" fill="#97d729"/>
              <path id="Trazado_917866" data-name="Trazado 917866" d="M225.968,455.323H215.943a23.785,23.785,0,0,1,2.615,3.132h10.023A22.666,22.666,0,0,0,225.968,455.323Z" transform="translate(-192.673 -448.715)" fill="#8bc727"/>
            </g>
          </g>
          <g id="Grupo_1120090" data-name="Grupo 1120090" transform="translate(0 18.125)">
            <circle id="Elipse_11882" data-name="Elipse 11882" cx="9.405" cy="9.405" r="9.405" fill="#a2e62e"/>
          </g>
          <path id="Trazado_917867" data-name="Trazado 917867" d="M55.745,191.628a9.4,9.4,0,0,1-5.822,17.5,9.4,9.4,0,1,0,5.822-17.5Z" transform="translate(-45.187 -173.43)" fill="#97d729"/>
          <g id="Grupo_1120091" data-name="Grupo 1120091" transform="translate(30.443 24.539)">
            <circle id="Elipse_11883" data-name="Elipse 11883" cx="7.815" cy="7.815" r="7.815" transform="translate(0 0)" fill="#a2e62e"/>
          </g>
          <path id="Trazado_917868" data-name="Trazado 917868" d="M317.84,248.785a7.814,7.814,0,0,1-4.166,14.425,7.889,7.889,0,0,1-.795-.04,7.814,7.814,0,1,0,4.96-14.385Z" transform="translate(-278.788 -224.207)" fill="#97d729"/>
          <path id="Trazado_917869" data-name="Trazado 917869" d="M242.409,30.822a2.768,2.768,0,0,0-5.418,0,2.14,2.14,0,0,0,.15,4.274h5.117a2.14,2.14,0,0,0,.151-4.274Z" transform="translate(-209.602 -28.621)" fill="#dff6fd"/>
          <g id="Grupo_1120092" data-name="Grupo 1120092" transform="translate(25.398 2.266)">
            <path id="Trazado_917870" data-name="Trazado 917870" d="M242.8,48.915a2.141,2.141,0,0,1-2.128,1.907h-5.666c0,.053-.007.107-.007.161a2.141,2.141,0,0,0,2.141,2.141h5.117a2.14,2.14,0,0,0,.543-4.209Z" transform="translate(-235 -48.915)" fill="#c8effe"/>
          </g>
          <path id="Trazado_917871" data-name="Trazado 917871" d="M36.1,67.964H34.7a2.959,2.959,0,0,0-5.788,0h-.619a2.289,2.289,0,0,0,0,4.577H36.1a2.289,2.289,0,1,0,0-4.577Z" transform="translate(-23.935 -61.49)" fill="#dff6fd"/>
          <g id="Grupo_1120093" data-name="Grupo 1120093" transform="translate(2.065 6.475)">
            <path id="Trazado_917872" data-name="Trazado 917872" d="M36.1,86.62h-.615A2.288,2.288,0,0,1,33.2,88.9H26s0,.009,0,.013A2.289,2.289,0,0,0,28.289,91.2H36.1a2.289,2.289,0,0,0,0-4.577Z" transform="translate(-26 -86.62)" fill="#c8effe"/>
          </g>
          <path id="Trazado_917873" data-name="Trazado 917873" d="M385.289,65.964H386.7a2.959,2.959,0,0,1,5.788,0h.619a2.289,2.289,0,1,1,0,4.577h-7.815a2.289,2.289,0,0,1,0-4.577Z" transform="translate(-341.08 -59.713)" fill="#dff6fd"/>
          <g id="Grupo_1120094" data-name="Grupo 1120094" transform="translate(41.92 6.252)">
            <path id="Trazado_917874" data-name="Trazado 917874" d="M393.1,84.62h-.615A2.288,2.288,0,0,1,390.2,86.9H383s0,.009,0,.013a2.289,2.289,0,0,0,2.289,2.289H393.1a2.289,2.289,0,1,0,0-4.577Z" transform="translate(-383 -84.62)" fill="#c8effe"/>
          </g>
        </g>
      </g>
      <g id="Grupo_1120097" data-name="Grupo 1120097" transform="translate(0 21.12)">
        <path id="Trazado_917875" data-name="Trazado 917875" d="M57.159,132.315a6.329,6.329,0,0,0-.667-2.82,6.325,6.325,0,0,0-.991-7.1,4.942,4.942,0,0,0,.144-1.186,5.58,5.58,0,0,0-11.14,0,4.943,4.943,0,0,0,.144,1.186,6.4,6.4,0,0,0-1.614,3.536,8.641,8.641,0,0,0-10.607,2.184.837.837,0,1,0,1.29,1.068,6.977,6.977,0,1,1,6.214,11.372v-2.6l2.359-2.359a.837.837,0,1,0-1.184-1.184l-1.175,1.175v-4.512a.837.837,0,1,0-1.675,0v2.26l-1.175-1.175a.837.837,0,1,0-1.184,1.184l2.359,2.359v4.851a6.971,6.971,0,0,1-6.02-8.212.837.837,0,0,0-1.646-.307,8.717,8.717,0,0,0-.149,1.593,8.6,8.6,0,0,0,1.428,4.753,22.832,22.832,0,0,0-7.7,3.26v-8.284a6.826,6.826,0,0,0,6.247-6.605,6.329,6.329,0,0,0-.667-2.82,6.325,6.325,0,0,0-.991-7.1,4.942,4.942,0,0,0,.144-1.186,5.42,5.42,0,0,0-5.57-5.243,5.42,5.42,0,0,0-5.57,5.243,4.943,4.943,0,0,0,.144,1.186,6.4,6.4,0,0,0-1.632,3.7,10.241,10.241,0,1,0-6.874,18.478v4.166a23.1,23.1,0,0,0-2.581,1.235.837.837,0,1,0,.816,1.462Q8.5,145.4,9.406,145v2.271a.837.837,0,1,0,1.675,0v-2.929a21.742,21.742,0,0,1,3.324-.864,26.073,26.073,0,0,1,10.64,7.729H2a.322.322,0,0,1-.243-.533,21.9,21.9,0,0,1,2.769-2.685.837.837,0,0,0-1.056-1.3,23.6,23.6,0,0,0-2.98,2.891A2,2,0,0,0,2,152.885H55.163a2,2,0,0,0,1.666-3.1,28.88,28.88,0,0,0-5.917-6.609v-4.259a6.826,6.826,0,0,0,6.247-6.605Zm-12.479-5.284c-.009-.119-.015-.238-.015-.356a4.754,4.754,0,0,1,1.507-3.445.837.837,0,0,0,.207-.891,3.29,3.29,0,0,1-.2-1.128,3.91,3.91,0,0,1,7.791,0,3.29,3.29,0,0,1-.2,1.128.837.837,0,0,0,.207.891,4.754,4.754,0,0,1,1.507,3.445,4.671,4.671,0,0,1-.665,2.391.837.837,0,0,0,0,.858,4.671,4.671,0,0,1,.665,2.391,5.135,5.135,0,0,1-4.572,4.919V128.5a.837.837,0,1,0-1.675,0v8.739a5.608,5.608,0,0,1-2-.681,8.637,8.637,0,0,0-2.559-9.522Zm-25.245-9.36a.837.837,0,0,0,.207-.891,3.29,3.29,0,0,1-.2-1.128,3.747,3.747,0,0,1,3.9-3.569,3.747,3.747,0,0,1,3.9,3.569,3.29,3.29,0,0,1-.2,1.128.837.837,0,0,0,.207.891,4.754,4.754,0,0,1,1.507,3.445,4.671,4.671,0,0,1-.665,2.391.837.837,0,0,0,0,.858,4.671,4.671,0,0,1,.665,2.391,5.135,5.135,0,0,1-4.572,4.919v-8.739a.837.837,0,1,0-1.675,0v8.737a5.691,5.691,0,0,1-2.221-.813,10.236,10.236,0,0,0-2.221-8.665,4.608,4.608,0,0,1-.131-1.08,4.754,4.754,0,0,1,1.507-3.445ZM1.675,128.809a8.568,8.568,0,1,1,9.405,8.527v-3.576l2.769-2.769a.837.837,0,0,0-1.184-1.184l-1.585,1.585v-5.539a.837.837,0,0,0-1.675,0v2.933L7.821,127.2a.837.837,0,0,0-1.184,1.184l2.769,2.769v6.181A8.58,8.58,0,0,1,1.675,128.809Zm9.405,10.208a10.266,10.266,0,0,0,8.711-6.5,7.425,7.425,0,0,0,2.708.847v8.509a23.339,23.339,0,0,0-11.42.708ZM27.155,151.21a28.211,28.211,0,0,0-9.4-8.058c.145,0,.291-.007.436-.007a21.72,21.72,0,0,1,16.882,8.065Zm28.274-.5a.314.314,0,0,1,.015.334.309.309,0,0,1-.282.168H37.177a23.414,23.414,0,0,0-11.53-8.516,20.91,20.91,0,0,1,7.446-2.839,8.624,8.624,0,0,0,5.164,2.388v5.031a.837.837,0,1,0,1.675,0v-5.031a8.593,8.593,0,0,0,3.815-1.322A24.783,24.783,0,0,1,55.43,150.708ZM45.235,139.721a8.707,8.707,0,0,0,1.283-1.651,7.284,7.284,0,0,0,2.718.853v3.009A23.988,23.988,0,0,0,45.235,139.721Z" transform="translate(0 -100.442)"/>
        <path id="Trazado_917876" data-name="Trazado 917876" d="M230.478,29.27H235.6a2.977,2.977,0,0,0,.8-5.843,3.605,3.605,0,0,0-6.726,0,2.977,2.977,0,0,0,.8,5.843Zm-.092-4.276a.837.837,0,0,0,.761-.665,1.931,1.931,0,0,1,3.779,0,.837.837,0,0,0,.761.664,1.3,1.3,0,0,1-.092,2.6h-5.117a1.3,1.3,0,0,1-.092-2.6Z" transform="translate(-202.103 -21.12)"/>
        <path id="Trazado_917877" data-name="Trazado 917877" d="M378.626,64.716h7.815a3.126,3.126,0,1,0,0-6.252h-.006a3.8,3.8,0,0,0-7.014,0h-.794a3.126,3.126,0,0,0,0,6.252Zm0-4.577h1.407a.837.837,0,0,0,.819-.664,2.121,2.121,0,0,1,4.15,0,.837.837,0,0,0,.819.664h.619a1.451,1.451,0,0,1,0,2.9h-7.815a1.451,1.451,0,1,1,0-2.9Z" transform="translate(-333.58 -52.213)"/>
        <path id="Trazado_917878" data-name="Trazado 917878" d="M21.626,66.716h.949a.837.837,0,0,0,0-1.675h-.949a1.451,1.451,0,1,1,0-2.9h.619a.837.837,0,0,0,.819-.664,2.121,2.121,0,0,1,4.15,0,.837.837,0,0,0,.819.664H29.44a1.451,1.451,0,1,1,0,2.9H26.482a.837.837,0,0,0,0,1.675H29.44a3.126,3.126,0,0,0,0-6.252h-.794a3.8,3.8,0,0,0-7.014,0h-.006a3.126,3.126,0,0,0,0,6.252Z" transform="translate(-16.435 -53.989)"/>
      </g>
    </g>
  </g>
</svg>
