<svg xmlns="http://www.w3.org/2000/svg" width="71" height="71" viewBox="0 0 71 71">
  <g id="Grupo_1120395" data-name="Grupo 1120395" transform="translate(-615.051 -13766)">
    <circle id="Elipse_11662" data-name="Elipse 11662" cx="35.5" cy="35.5" r="35.5" transform="translate(615.051 13766)" fill="#fff"/>
    <g id="Grupo_1120394" data-name="Grupo 1120394" transform="translate(622.051 13773)">
      <circle id="Elipse_11931" data-name="Elipse 11931" cx="27.473" cy="27.473" r="27.473" transform="translate(0.906 0.906)" fill="#c4f5ff"/>
      <path id="Trazado_918616" data-name="Trazado 918616" d="M40.851,256a24.038,24.038,0,0,0,.273,3.623l2.341,7.246a23.855,23.855,0,0,0,40.178,3.623l3.786-7.246A23.83,23.83,0,0,0,88.552,256h-47.7Z" transform="translate(-36.322 -227.62)" fill="#7fb21e"/>
      <g id="Grupo_1120392" data-name="Grupo 1120392" transform="translate(4.802 32.002)">
        <path id="Trazado_918617" data-name="Trazado 918617" d="M62.457,288.681H43.318a23.681,23.681,0,0,0,2.341,7.246h16.8a3.623,3.623,0,1,0,0-7.246Z" transform="translate(-43.318 -288.681)" fill="#4de1ff"/>
        <path id="Trazado_918618" data-name="Trazado 918618" d="M342.454,321.362H331.293a3.623,3.623,0,0,0,0,7.246h7.375A23.786,23.786,0,0,0,342.454,321.362Z" transform="translate(-296.148 -317.739)" fill="#4de1ff"/>
      </g>
      <path id="Trazado_918619" data-name="Trazado 918619" d="M295.06,132.293l-3.989,10.091h7.978Z" transform="translate(-258.804 -117.628)" fill="#7fb21e"/>
      <path id="Trazado_918620" data-name="Trazado 918620" d="M99.746,79.935a4.565,4.565,0,0,0-5.658-4.429,5.547,5.547,0,0,0-10.746,0,4.565,4.565,0,0,0-5.658,4.429Z" transform="translate(-69.072 -63.428)" fill="#89ebff"/>
      <path id="Trazado_918621" data-name="Trazado 918621" d="M399.707,132.293l-3.989,10.091H403.7Z" transform="translate(-351.85 -117.628)" fill="#557714"/>
      <path id="Trazado_918622" data-name="Trazado 918622" d="M187.947,386.723h-8.3a1.811,1.811,0,0,0,0,3.623h8.3a1.811,1.811,0,1,0,0-3.623Z" transform="translate(-158.122 -343.852)" fill="#4de1ff"/>
      <g id="Grupo_1120393" data-name="Grupo 1120393" transform="translate(0 0)">
        <path id="Trazado_918623" data-name="Trazado 918623" d="M48.446,8.312A28.379,28.379,0,1,0,8.312,48.446,28.379,28.379,0,1,0,48.446,8.312ZM28.379,54.947A26.568,26.568,0,1,1,54.947,28.379,26.6,26.6,0,0,1,28.379,54.947Z" transform="translate(0 0)" fill="#03242b"/>
        <path id="Trazado_918624" data-name="Trazado 918624" d="M70.422,73.577H92.483a.906.906,0,0,0,.906-.906A5.474,5.474,0,0,0,87.921,67.2q-.239,0-.476.021a6.454,6.454,0,0,0-11.985,0q-.237-.021-.476-.021a5.474,5.474,0,0,0-5.468,5.468A.906.906,0,0,0,70.422,73.577Zm4.562-4.562a3.665,3.665,0,0,1,.879.106.906.906,0,0,0,1.094-.655,4.641,4.641,0,0,1,8.991,0,.905.905,0,0,0,1.094.655,3.66,3.66,0,0,1,4.422,2.644H71.441A3.663,3.663,0,0,1,74.984,69.015Z" transform="translate(-61.81 -56.165)" fill="#03242b"/>
        <path id="Trazado_918625" data-name="Trazado 918625" d="M78.375,313.191a.906.906,0,0,0,0,1.811H80.79a.906.906,0,0,0,0-1.811Z" transform="translate(-68.881 -278.472)" fill="#03242b"/>
        <path id="Trazado_918626" data-name="Trazado 918626" d="M131.937,314.1a.906.906,0,0,0,.906.906h8.409a.906.906,0,0,0,0-1.811h-8.409A.906.906,0,0,0,131.937,314.1Z" transform="translate(-117.311 -278.473)" fill="#03242b"/>
        <path id="Trazado_918627" data-name="Trazado 918627" d="M77.07,153.8a24.713,24.713,0,0,0,3.953-7.539l0-.011a24.664,24.664,0,0,0,1.166-7.511.906.906,0,0,0-.906-.906H77.821v-1.811H80.9a.906.906,0,0,0,.842-1.239L77.757,124.7a.906.906,0,0,0-1.685,0l-3.989,10.091a.906.906,0,0,0,.842,1.239h3.083v1.811H66.22v-1.811H69.3a.906.906,0,0,0,.842-1.239L66.156,124.7a.906.906,0,0,0-1.685,0l-3.989,10.091a.906.906,0,0,0,.842,1.239h3.083v1.811H52.728v-1.51a.906.906,0,1,0-1.811,0v1.51H45.482v-1.51a.906.906,0,1,0-1.811,0v1.51H41.86v-1.51a.906.906,0,1,0-1.811,0v1.51H38.237v-1.51a.906.906,0,1,0-1.811,0v1.51H33.587a.906.906,0,0,0-.906.906,24.45,24.45,0,0,0,2.63,11.1c.021.042.044.083.065.125a.911.911,0,0,0,.06.115,25.057,25.057,0,0,0,6.906,8.271.906.906,0,1,0,1.107-1.434,23.109,23.109,0,0,1-5.71-6.4H53a4.529,4.529,0,0,0,0-9.057H50.028a.906.906,0,1,0,0,1.811H53a2.717,2.717,0,0,1,0,5.434H36.757a22.685,22.685,0,0,1-1.819-5.434H46.405a.906.906,0,1,0,0-1.811H34.652q-.105-.9-.142-1.811H80.364a22.843,22.843,0,0,1-.874,5.434H69.005a4.529,4.529,0,0,0,0,9.057h5.428a22.907,22.907,0,0,1-28.073,4.691.906.906,0,0,0-.877,1.585,24.722,24.722,0,0,0,31.581-6.6Zm-.156-26.311,2.657,6.721H74.258Zm-11.6,0,2.657,6.721H62.657Zm3.691,24.836a2.717,2.717,0,1,1,0-5.434h9.88a22.925,22.925,0,0,1-2.969,5.434h-6.91Z" transform="translate(-29.058 -110.363)" fill="#03242b"/>
        <path id="Trazado_918628" data-name="Trazado 918628" d="M180.682,383.986a2.717,2.717,0,0,0,0-5.434h-8.3a2.717,2.717,0,0,0,0,5.434Zm-9.205-2.717a.907.907,0,0,1,.906-.906h8.3a.906.906,0,1,1,0,1.811h-8.3A.907.907,0,0,1,171.477,381.269Z" transform="translate(-150.857 -336.587)" fill="#03242b"/>
        <path id="Trazado_918629" data-name="Trazado 918629" d="M355.5,345.872h-2.415a.906.906,0,1,0,0,1.811H355.5a.906.906,0,1,0,0-1.811Z" transform="translate(-313.14 -307.53)" fill="#03242b"/>
      </g>
    </g>
  </g>
</svg>
