<svg xmlns="http://www.w3.org/2000/svg" width="71" height="71" viewBox="0 0 71 71">
  <g id="Grupo_1120116" data-name="Grupo 1120116" transform="translate(-615.051 -10014)">
    <circle id="Elipse_11668" data-name="Elipse 11668" cx="35.5" cy="35.5" r="35.5" transform="translate(615.051 10014)" fill="#6b9339"/>
    <g id="Grupo_1120115" data-name="Grupo 1120115" transform="translate(621.051 9979.238)">
      <g id="Grupo_1120113" data-name="Grupo 1120113" transform="translate(0.88 46.642)">
        <g id="Grupo_1120112" data-name="Grupo 1120112" transform="translate(0 0)">
          <g id="Grupo_1120108" data-name="Grupo 1120108" transform="translate(23.625)">
            <path id="Trazado_917900" data-name="Trazado 917900" d="M218.973,53.262q-.193,0-.385.006A10.228,10.228,0,0,0,210.26,68.7L218,81.895a1.131,1.131,0,0,0,1.952,0l7.737-13.2a10.228,10.228,0,0,0-8.328-15.428Q219.166,53.262,218.973,53.262Z" transform="translate(-208.838 -53.262)" fill="#fedf30"/>
            <path id="Trazado_917901" data-name="Trazado 917901" d="M281.655,53.269q-.192-.007-.385-.006t-.385.006a10.287,10.287,0,0,0-1.468.155,10.257,10.257,0,0,1,6.86,15.273l-6.86,11.7.877,1.5a1.131,1.131,0,0,0,1.952,0l7.737-13.2a10.228,10.228,0,0,0-8.328-15.428Z" transform="translate(-271.135 -53.263)" fill="#fed402"/>
            <path id="Trazado_917902" data-name="Trazado 917902" d="M236.875,108.519l5.869,10.012a1.131,1.131,0,0,0,1.952,0l5.869-10.012-3.823-5.226a.429.429,0,0,1,.347-.683h1.74a.429.429,0,0,0,.346-.683l-5.109-6.983a.429.429,0,0,0-.693,0l-5.109,6.983a.429.429,0,0,0,.346.683h1.74a.429.429,0,0,1,.347.683Z" transform="translate(-233.585 -89.898)" fill="#22b27f"/>
            <path id="Trazado_917903" data-name="Trazado 917903" d="M286.059,187.989l-6.641,11.328.877,1.5a1.131,1.131,0,0,0,1.952,0l5.869-10.012Z" transform="translate(-271.136 -172.18)" fill="#09a76d"/>
          </g>
          <g id="Grupo_1120111" data-name="Grupo 1120111" transform="translate(3.146 23.047)">
            <g id="Grupo_1120110" data-name="Grupo 1120110">
              <g id="Grupo_1120109" data-name="Grupo 1120109" transform="translate(0)">
                <path id="Trazado_917904" data-name="Trazado 917904" d="M50.946,250.209,34.313,274.2H69.631L53,250.209a1.249,1.249,0,0,0-2.053,0Z" transform="translate(-34.313 -249.672)" fill="#02905d"/>
                <path id="Trazado_917905" data-name="Trazado 917905" d="M50.946,250.209,34.313,274.2H69.631L53,250.209a1.249,1.249,0,0,0-2.053,0Z" transform="translate(-34.313 -249.672)" fill="#02905d"/>
                <path id="Trazado_917906" data-name="Trazado 917906" d="M53,250.209a1.249,1.249,0,0,0-2.053,0L34.313,274.2H60.537l4.547-6.559Z" transform="translate(-34.313 -249.672)" fill="#02905d"/>
                <path id="Trazado_917907" data-name="Trazado 917907" d="M53,250.209a1.249,1.249,0,0,0-2.053,0L34.313,274.2H60.537l4.547-6.559Z" transform="translate(-34.313 -249.672)" fill="#02905d"/>
              </g>
              <path id="Trazado_917908" data-name="Trazado 917908" d="M53,250.209a1.249,1.249,0,0,0-2.053,0l-.987,1.424,9.655,13.929a3.656,3.656,0,0,1-3.005,5.739H36.325l-2.012,2.9H60.537l4.547-6.559Z" transform="translate(-34.313 -249.672)" fill="#017b4e"/>
              <path id="Trazado_917909" data-name="Trazado 917909" d="M126.589,260.895l2.321-2.321a.624.624,0,0,1,.883,0l4.074,4.074a.624.624,0,0,0,.883,0l3.489-3.489-6.2-8.95a1.249,1.249,0,0,0-2.053,0l-6.125,8.837,1.849,1.849a.624.624,0,0,0,.883,0Z" transform="translate(-113.35 -249.672)" fill="#dff6fd"/>
              <path id="Trazado_917910" data-name="Trazado 917910" d="M174.515,261.537l2.378-2.378-6.2-8.95a1.249,1.249,0,0,0-2.053,0l-.987,1.424Z" transform="translate(-152.003 -249.672)" fill="#c8effe"/>
              <path id="Trazado_917911" data-name="Trazado 917911" d="M269.678,308.709,257.8,325.839h25.8l-11.874-17.13A1.249,1.249,0,0,0,269.678,308.709Z" transform="translate(-231.58 -301.307)" fill="#22b27f"/>
              <path id="Trazado_917912" data-name="Trazado 917912" d="M271.73,308.709a1.249,1.249,0,0,0-2.053,0l-1.059,1.527,7.527,10.858a1.173,1.173,0,0,1-.964,1.842H259.815l-2.012,2.9h25.8Z" transform="translate(-231.579 -301.307)" fill="#09a76d"/>
              <path id="Trazado_917913" data-name="Trazado 917913" d="M313.9,319.4l4.074-4.074a.624.624,0,0,1,.883,0l2.321,2.321a.624.624,0,0,0,.883,0l1.421-1.421-5.213-7.521a1.249,1.249,0,0,0-2.053,0l-5.688,8.206,2.489,2.489A.624.624,0,0,0,313.9,319.4Z" transform="translate(-278.114 -301.307)" fill="#dff6fd"/>
              <path id="Trazado_917914" data-name="Trazado 917914" d="M353.4,315.169a.618.618,0,0,1,.28.159L356,317.649a.624.624,0,0,0,.883,0l1.421-1.421-5.213-7.521a1.249,1.249,0,0,0-2.053,0l-1.059,1.527Z" transform="translate(-312.935 -301.306)" fill="#c8effe"/>
            </g>
          </g>
          <path id="Trazado_917915" data-name="Trazado 917915" d="M86.559,105.743a3.1,3.1,0,0,0-6.061,0,2.393,2.393,0,0,0,.168,4.781h5.724a2.393,2.393,0,0,0,.168-4.781Z" transform="translate(-69.968 -97.412)" fill="#dff6fd"/>
          <path id="Trazado_917916" data-name="Trazado 917916" d="M87.04,124.971a2.393,2.393,0,0,1-2.391,2.313H78.276a2.4,2.4,0,0,0,2.394,2.385h5.724a2.393,2.393,0,0,0,.645-4.7Z" transform="translate(-69.971 -116.557)" fill="#c8effe"/>
          <path id="Trazado_917917" data-name="Trazado 917917" d="M395.384,200.967h1.486a3.125,3.125,0,0,1,6.113,0h.654a2.417,2.417,0,0,1,0,4.834h-8.253a2.417,2.417,0,1,1,0-4.834Z" transform="translate(-347.736 -181.45)" fill="#dff6fd"/>
          <path id="Trazado_917918" data-name="Trazado 917918" d="M395.384,200.967h1.486a3.125,3.125,0,0,1,6.113,0h.654a2.417,2.417,0,0,1,0,4.834h-8.253a2.417,2.417,0,1,1,0-4.834Z" transform="translate(-347.736 -181.45)" fill="#dff6fd"/>
          <path id="Trazado_917919" data-name="Trazado 917919" d="M404.13,220a2.417,2.417,0,0,1-2.416,2.4h-8.732a2.416,2.416,0,0,0,2.415,2.385h8.253a2.417,2.417,0,0,0,.48-4.786Z" transform="translate(-347.749 -200.437)" fill="#c8effe"/>
          <path id="Trazado_917920" data-name="Trazado 917920" d="M18.171,217.5H16.685a3.125,3.125,0,0,0-6.113,0H9.918a2.417,2.417,0,1,0,0,4.834h8.253a2.417,2.417,0,1,0,0-4.834Z" transform="translate(-7.501 -196.046)" fill="#dff6fd"/>
          <path id="Trazado_917921" data-name="Trazado 917921" d="M18.546,236.385v0a2.417,2.417,0,0,1-2.417,2.417H7.514a2.416,2.416,0,0,0,2.415,2.385h8.253a2.415,2.415,0,0,0,.364-4.8Z" transform="translate(-7.512 -214.897)" fill="#c8effe"/>
        </g>
      </g>
      <g id="Grupo_1120114" data-name="Grupo 1120114" transform="translate(0 45.762)">
        <path id="Trazado_917922" data-name="Trazado 917922" d="M210.61,75.719a2.011,2.011,0,0,0,3.47,0l7.737-13.2a11.114,11.114,0,0,0,.136-11.076,10.842,10.842,0,0,0-9.194-5.677c-.275-.009-.553-.009-.829,0a10.742,10.742,0,0,0-6.414,2.359.88.88,0,1,0,1.1,1.373,8.994,8.994,0,0,1,5.371-1.973c.236-.008.476-.008.711,0a9.1,9.1,0,0,1,7.712,4.767,9.369,9.369,0,0,1-.113,9.336l-1.19,2.03L216.6,60.234h.852a1.309,1.309,0,0,0,1.057-2.082L213.4,51.168a1.314,1.314,0,0,0-1.057-.536h0a1.314,1.314,0,0,0-1.057.536l-5.108,6.983a1.309,1.309,0,0,0,1.057,2.083h.852l-2.507,3.427-1.19-2.03a9.381,9.381,0,0,1-.169-9.233.88.88,0,1,0-1.552-.83,11.13,11.13,0,0,0,.2,10.954Zm-.577-15.163a1.309,1.309,0,0,0-1.057-2.082h-.852l4.22-5.769,4.22,5.769h-.852a1.309,1.309,0,0,0-1.057,2.082l3.482,4.76-5.577,9.513a.251.251,0,0,1-.434,0l-5.577-9.513Z" transform="translate(-177.706 -45.762)"/>
        <path id="Trazado_917923" data-name="Trazado 917923" d="M59.2,266.7H56.513L44.9,249.95a2.129,2.129,0,0,0-3.5,0l-6.6,9.528L23.435,243.086a2.129,2.129,0,0,0-3.5,0l-9.56,13.791a.88.88,0,0,0,1.447,1l2.834-4.088,1.1,1.1a1.507,1.507,0,0,0,2.128,0l2.14-2.14,3.893,3.893a1.506,1.506,0,0,0,2.128,0l2.744-2.744,4.934,7.118L29.79,266.7H5.707l3.768-5.436a.88.88,0,1,0-1.447-1L3.565,266.7H.88a.88.88,0,0,0,0,1.76H59.2a.88.88,0,0,0,0-1.76ZM24.985,255.223l-3.893-3.893a1.5,1.5,0,0,0-2.128,0l-2.14,2.14-1.149-1.149,5.707-8.233a.369.369,0,0,1,.606,0l5.785,8.346Zm17.863-4.27a.369.369,0,0,1,.606,0l4.795,6.917-.72.72-2.14-2.14a1.507,1.507,0,0,0-2.128,0l-3.893,3.893-1.788-1.789ZM31.932,266.7l4.628-6.677,1.744,1.744a1.506,1.506,0,0,0,2.128,0l3.893-3.893,2.14,2.14a1.506,1.506,0,0,0,2.128,0l.675-.675,5.1,7.362Z" transform="translate(0 -219.123)"/>
        <path id="Trazado_917924" data-name="Trazado 917924" d="M74.047,104.785h5.724a3.273,3.273,0,0,0,.857-6.433,3.976,3.976,0,0,0-7.439,0,3.273,3.273,0,0,0,.857,6.433ZM73.94,100a.88.88,0,0,0,.8-.7,2.216,2.216,0,0,1,4.338,0,.88.88,0,0,0,.8.7,1.513,1.513,0,0,1-.107,3.023H74.047A1.513,1.513,0,0,1,73.94,100Z" transform="translate(-62.468 -89.913)"/>
        <path id="Trazado_917925" data-name="Trazado 917925" d="M388.764,200.06h3.1a.88.88,0,1,0,0-1.76h-3.1a1.537,1.537,0,0,1,0-3.074h1.486a.88.88,0,0,0,.861-.7,2.245,2.245,0,0,1,4.391,0,.88.88,0,0,0,.861.7h.654a1.537,1.537,0,1,1,0,3.074h-1.044a.88.88,0,1,0,0,1.76h1.044a3.3,3.3,0,1,0,0-6.594h-.009a4,4,0,0,0-7.4,0h-.842a3.3,3.3,0,0,0,0,6.594Z" transform="translate(-340.236 -173.949)"/>
        <path id="Trazado_917926" data-name="Trazado 917926" d="M3.3,216.6H11.55a3.3,3.3,0,0,0,0-6.594h-.842a4,4,0,0,0-7.4,0H3.3a3.3,3.3,0,1,0,0,6.594Zm0-4.834h.654a.88.88,0,0,0,.861-.7,2.245,2.245,0,0,1,4.391,0,.88.88,0,0,0,.861.7H11.55a1.537,1.537,0,0,1,0,3.074H3.3a1.537,1.537,0,1,1,0-3.074Z" transform="translate(0 -188.544)"/>
      </g>
    </g>
  </g>
</svg>
