<svg xmlns="http://www.w3.org/2000/svg" xmlns:xlink="http://www.w3.org/1999/xlink" width="117.999" height="118" viewBox="0 0 117.999 118">
  <defs>
    <filter id="Trazado_874925" x="0" y="0" width="117.999" height="118" filterUnits="userSpaceOnUse">
      <feOffset dy="3" input="SourceAlpha"/>
      <feGaussianBlur stdDeviation="3" result="blur"/>
      <feFlood flood-opacity="0.161"/>
      <feComposite operator="in" in2="blur"/>
      <feComposite in="SourceGraphic"/>
    </filter>
  </defs>
  <g id="Grupo_1123290" data-name="Grupo 1123290" transform="translate(-268 -14762.446)">
    <g id="Grupo_1111553" data-name="Grupo 1111553" transform="translate(-531.5 12251.289)">
      <g id="Grupo_1111316" data-name="Grupo 1111316" transform="translate(808.5 2517.157)">
        <g id="Grupo_1109835" data-name="Grupo 1109835" transform="translate(0 0)">
          <g id="Grupo_1107913" data-name="Grupo 1107913" transform="translate(0 0)">
            <g transform="matrix(1, 0, 0, 1, -9, -6)" filter="url(#Trazado_874925)">
              <g id="Trazado_874925-2" data-name="Trazado 874925" transform="translate(9 6)" fill="#bb965f" opacity="0.859">
                <path d="M 49.99972534179688 98.4998779296875 C 43.45164108276367 98.4998779296875 37.10022354125977 97.21776580810547 31.12189674377441 94.68914794921875 C 25.34676742553711 92.24647521972656 20.15985298156738 88.74925994873047 15.70523929595947 84.29464721679688 C 11.25062561035156 79.84004974365234 7.753411293029785 74.65313720703125 5.310725212097168 68.87800598144531 C 2.782111167907715 62.89969253540039 1.499996781349182 56.54829406738281 1.499996781349182 50.00022125244141 C 1.499996781349182 43.45157623291016 2.782111167907715 37.10017776489258 5.310725212097168 31.12186431884766 C 7.753411293029785 25.34673500061035 11.25062561035156 20.15983581542969 15.70523929595947 15.70522117614746 C 20.15985298156738 11.25062084197998 25.34676742553711 7.753406524658203 31.12189674377441 5.31073522567749 C 37.10022354125977 2.782120943069458 43.45164108276367 1.500006556510925 49.99972534179688 1.500006556510925 C 56.54780960083008 1.500006556510925 62.89922714233398 2.782120943069458 68.87755584716797 5.31073522567749 C 74.65267944335938 7.753406524658203 79.839599609375 11.25062084197998 84.29421234130859 15.70522117614746 C 88.74882507324219 20.15983581542969 92.24604034423828 25.34673500061035 94.68872833251953 31.12186431884766 C 97.21733856201172 37.10017776489258 98.49945068359375 43.45157623291016 98.49945068359375 49.99964904785156 C 98.49945068359375 56.54829406738281 97.21733856201172 62.89969253540039 94.68872833251953 68.87800598144531 C 92.24604034423828 74.65313720703125 88.74882507324219 79.84004974365234 84.29421234130859 84.29464721679688 C 79.839599609375 88.74925994873047 74.65267944335938 92.24647521972656 68.87755584716797 94.68914794921875 C 62.89922714233398 97.21776580810547 56.54780960083008 98.4998779296875 49.99972534179688 98.4998779296875 Z" stroke="none"/>
                <path d="M 49.99972534179688 3 C 43.65348052978516 3 37.49866485595703 4.242240905761719 31.70623016357422 6.692230224609375 C 26.10989379882812 9.059272766113281 21.08323669433594 12.44853210449219 16.76589202880859 16.76587677001953 C 12.44855499267578 21.08321380615234 9.059295654296875 26.10985565185547 6.692230224609375 31.70618438720703 C 4.24224853515625 37.49859619140625 3 43.65341186523438 3 50.00022888183594 C 3 56.34645843505859 4.24224853515625 62.50127410888672 6.692230224609375 68.29368591308594 C 9.059295654296875 73.8900146484375 12.44855499267578 78.91665649414062 16.76589202880859 83.23399353027344 C 21.08323669433594 87.55132293701172 26.10989379882812 90.94059753417969 31.70623016357422 93.30764007568359 C 37.49866485595703 95.75762939453125 43.65348052978516 96.99987030029297 49.99972534179688 96.99987030029297 C 56.34597015380859 96.99987030029297 62.50078582763672 95.75762939453125 68.293212890625 93.30764007568359 C 73.88955688476562 90.94059753417969 78.91621398925781 87.55132293701172 83.23355865478516 83.23399353027344 C 87.55089569091797 78.91665649414062 90.94015502929688 73.8900146484375 93.30722045898438 68.29368591308594 C 95.7572021484375 62.50127410888672 96.99945068359375 56.34645843505859 96.99945068359375 49.99964141845703 C 96.99945068359375 43.65341186523438 95.7572021484375 37.49859619140625 93.30722045898438 31.70618438720703 C 90.94015502929688 26.10985565185547 87.55089569091797 21.08321380615234 83.23355865478516 16.76587677001953 C 78.91621398925781 12.44853210449219 73.88955688476562 9.059272766113281 68.293212890625 6.692230224609375 C 62.50078582763672 4.242240905761719 56.34597015380859 3 49.99972534179688 3 M 49.99972534179688 0 C 77.61381530761719 0 99.99945068359375 22.38559722900391 99.99945068359375 49.99964141845703 L 99.99945068359375 50.00022888183594 C 99.99945068359375 77.6142578125 77.61381530761719 99.99987030029297 49.99972534179688 99.99987030029297 C 22.38563537597656 99.99987030029297 0 77.6142578125 0 50.00022888183594 L 0 49.99964141845703 C 0 22.38559722900391 22.38563537597656 0 49.99972534179688 0 Z" stroke="none" fill="#fff"/>
              </g>
            </g>
            <g id="Trazado_874923" data-name="Trazado 874923" transform="translate(0 0)" fill="none">
              <path d="M50,0a50,50,0,0,1,50,50h0A50,50,0,0,1,0,50H0A50,50,0,0,1,50,0Z" stroke="none"/>
              <path d="M 49.99972534179688 3 C 43.65348052978516 3 37.49866485595703 4.242240905761719 31.70623016357422 6.692230224609375 C 26.10989379882812 9.059272766113281 21.08323669433594 12.44853210449219 16.76589202880859 16.76587677001953 C 12.44855499267578 21.08321380615234 9.059295654296875 26.10985565185547 6.692230224609375 31.70618438720703 C 4.24224853515625 37.49859619140625 3 43.65341186523438 3 50.00022888183594 C 3 56.34645843505859 4.24224853515625 62.50127410888672 6.692230224609375 68.29368591308594 C 9.059295654296875 73.8900146484375 12.44855499267578 78.91665649414062 16.76589202880859 83.23399353027344 C 21.08323669433594 87.55132293701172 26.10989379882812 90.94059753417969 31.70623016357422 93.30764007568359 C 37.49866485595703 95.75762939453125 43.65348052978516 96.99987030029297 49.99972534179688 96.99987030029297 C 56.34597015380859 96.99987030029297 62.50078582763672 95.75762939453125 68.293212890625 93.30764007568359 C 73.88955688476562 90.94059753417969 78.91621398925781 87.55132293701172 83.23355865478516 83.23399353027344 C 87.55089569091797 78.91665649414062 90.94015502929688 73.8900146484375 93.30722045898438 68.29368591308594 C 95.7572021484375 62.50127410888672 96.99945068359375 56.34645843505859 96.99945068359375 49.99964141845703 C 96.99945068359375 43.65341186523438 95.7572021484375 37.49859619140625 93.30722045898438 31.70618438720703 C 90.94015502929688 26.10985565185547 87.55089569091797 21.08321380615234 83.23355865478516 16.76587677001953 C 78.91621398925781 12.44853210449219 73.88955688476562 9.059272766113281 68.293212890625 6.692230224609375 C 62.50078582763672 4.242240905761719 56.34597015380859 3 49.99972534179688 3 M 49.99972534179688 0 C 77.61381530761719 0 99.99945068359375 22.38559722900391 99.99945068359375 49.99964141845703 L 99.99945068359375 50.00022888183594 C 99.99945068359375 77.6142578125 77.61381530761719 99.99987030029297 49.99972534179688 99.99987030029297 C 22.38563537597656 99.99987030029297 0 77.6142578125 0 50.00022888183594 L 0 49.99964141845703 C 0 22.38559722900391 22.38563537597656 0 49.99972534179688 0 Z" stroke="none" fill="#fff"/>
            </g>
          </g>
        </g>
      </g>
    </g>
    <g id="Grupo_1123289" data-name="Grupo 1123289" transform="translate(288.909 14829.135)">
      <g id="Grupo_1123288" data-name="Grupo 1123288" transform="translate(4.836 -55.232)">
        <g id="Grupo_1123285" data-name="Grupo 1123285" transform="translate(0 45.879)">
          <path id="Trazado_919790" data-name="Trazado 919790" d="M44.032,296.69v21.375c7.824-.17,10.9,2.433,16.486,5.661a6.846,6.846,0,0,0,5.377.708l28.84-7.728a3.911,3.911,0,0,0-2.025-7.556l-15.4,4.126a4.584,4.584,0,0,0-3.011-8.045H69.448a7.47,7.47,0,0,1-5.468-2.265l-5.1-5.1C55.941,294.927,51.181,297.819,44.032,296.69Z" transform="translate(-39.579 -294.475)" fill="#fedfc5" fill-rule="evenodd"/>
          <path id="Trazado_919791" data-name="Trazado 919791" d="M175.606,390.375a8.967,8.967,0,0,1-4.5-1.173,1.344,1.344,0,1,1,1.342-2.328,6.1,6.1,0,0,0,3.158.814h7.879a4.607,4.607,0,0,0,4.387-3.245,4.55,4.55,0,0,1,.2,1.344,4.6,4.6,0,0,1-4.589,4.589h-7.881Z" transform="translate(-148.766 -370.441)" fill="#fecbaa" fill-rule="evenodd"/>
          <path id="Trazado_919792" data-name="Trazado 919792" d="M16.613,282.494v23.862a.859.859,0,0,1-.856.856H12.189a.859.859,0,0,1-.856-.856V282.494a.859.859,0,0,1,.856-.856h3.568A.858.858,0,0,1,16.613,282.494Z" transform="translate(-11.333 -281.638)" fill="#ffd54f" fill-rule="evenodd"/>
        </g>
        <g id="Grupo_1123286" data-name="Grupo 1123286" transform="translate(6.325 0)">
          <circle id="Elipse_11964" data-name="Elipse 11964" cx="20.97" cy="20.97" r="20.97" transform="translate(0 29.652) rotate(-45)" fill="#43a2ff"/>
          <path id="Trazado_919793" data-name="Trazado 919793" d="M141.024,57.608c-5.4-3.656-8.416-1.714-8.537,2.857a21.045,21.045,0,0,0,15.285,1.9C146.9,53.913,143.5,59.282,141.024,57.608Zm-3.91-16.4c-2.167-.157-1.855,3.541-4.01,3.333-2.015-.195-2.12-2.824-4.4-1.008-3.4,2.7,3.888,5.6-1.146,13.2a20.974,20.974,0,0,1,4.462-32.82c2.441,7.827,13.723.818,11.379,6.183-5.826,5.782,2.45,14.163-2.027,14.777-1.711.235-2.39-3.53-4.253-3.665Zm20.751-2.777c-.391-5.71-10.924-4.128-6.417-15.359a20.977,20.977,0,0,1,3.2,36.1c-.3-4.194.226-5.858-3.114-9.8C143.992,40.153,159.1,47.849,157.864,38.426Z" transform="translate(-112.874 -12.403)" fill="#6ce75a" fill-rule="evenodd"/>
        </g>
        <g id="Grupo_1123287" data-name="Grupo 1123287" transform="translate(47.171 31.039)">
          <path id="Trazado_919794" data-name="Trazado 919794" d="M367.426,197.4c-8.432,0-16.864-8.243,0-24.728C384.289,189.155,375.857,197.4,367.426,197.4Z" transform="translate(-357.689 -172.67)" fill="#c9f0ff" fill-rule="evenodd"/>
        </g>
      </g>
      <path id="Trazado_919795" data-name="Trazado 919795" d="M56.877,35.218c.184-.321.385-.653.6-.985a1.021,1.021,0,1,1,1.722,1.1c-.2.305-.379.609-.547.9a1.021,1.021,0,1,1-1.772-1.016Zm2.8,9.623a1.018,1.018,0,0,1-1.328.567,4.842,4.842,0,0,1-3.129-3.247,7.079,7.079,0,0,1,.273-3.924,1.022,1.022,0,1,1,1.944.628,5.106,5.106,0,0,0-.238,2.79,2.861,2.861,0,0,0,1.911,1.858A1.023,1.023,0,0,1,59.681,44.841Zm10.284-1.348c1.025-2.515,1.274-8.118-8.224-17.681-9.5,9.562-9.25,15.165-8.225,17.681,1.136,2.786,4.364,4.587,8.225,4.587S68.83,46.28,69.965,43.493Zm-38.134-2.7A3.432,3.432,0,0,1,33.3,37.9c1.183-.609,3.111-.079,5.43,1.491a4.078,4.078,0,0,0,3.544.226c.788-.206,1.288-.315,1.586-.109.276.192.752.839,1.064,3a19.937,19.937,0,0,1-13.1-1.714ZM29.812,6.356a6.014,6.014,0,0,0,3.754,3.123,15.169,15.169,0,0,0,5.121.358,9.731,9.731,0,0,1,2.285.041,2.2,2.2,0,0,1-.16.569c-3.5,3.632-2.214,8.164-1.358,11.176.315,1.11.747,2.63.5,3.006-.033.05-.169.121-.444.159-.232.034-.82-.855-1.1-1.283-.676-1.017-1.517-2.285-2.937-2.389-1.749-.125-2.493,1.288-2.986,2.225s-.677,1.14-1,1.11a2.005,2.005,0,0,1-1.15-.68c-.718-.656-1.921-1.754-3.987-.11s-1.287,3.474-.611,5.1c.773,1.863,1.638,3.95-.069,7.185A19.921,19.921,0,0,1,29.812,6.356ZM48.433,4.55a19.916,19.916,0,0,0-16.858.761c1.206,2.544,3.8,2.642,7.012,2.486,1.878-.093,3.361-.165,4.1.909a2.91,2.91,0,0,1-.074,2.726,1.023,1.023,0,0,1-.217.316c-2.829,2.807-1.8,6.416-.979,9.317.56,1.969,1,3.526.247,4.681a2.518,2.518,0,0,1-1.876,1.066c-1.5.206-2.379-1.116-3.083-2.176-.429-.647-.963-1.45-1.382-1.482-.342-.026-.525.177-1.03,1.138-.5.941-1.243,2.366-3.005,2.193a3.889,3.889,0,0,1-2.331-1.2,2.113,2.113,0,0,0-.569-.433c-.07-.014-.322.056-.77.413-.778.618-.707,1.008,0,2.72a9.415,9.415,0,0,1-.481,9.514,20.039,20.039,0,0,0,2.794,2.2,4.955,4.955,0,0,1,2.435-3.62c1.328-.682,3.709-.955,7.509,1.616.438.3,1,.172,1.884-.059a3.747,3.747,0,0,1,3.265.191c.945.656,1.541,1.96,1.885,4.155A19.809,19.809,0,0,0,51,40.137a13.5,13.5,0,0,1,.717-3.416c-.169-1.956-.65-3.361-2.68-5.754l-.012-.013c-2.039-2.494-2.679-4.008-2.209-5.227.522-1.356,2.113-1.6,3.8-1.852,3.107-.468,4.961-1,4.518-4.384,0-.021,0-.042-.006-.063-.11-1.6-1.225-2.447-3.034-3.694-2.735-1.882-6.111-4.207-3.662-11.184ZM60.765,22.985c0,.313-.01.628-.024.941a42.659,42.659,0,0,0-7.628,9.655A13.956,13.956,0,0,0,50.6,29.653c-2.078-2.541-1.88-3.187-1.88-3.19a5.784,5.784,0,0,1,2.2-.568c2.6-.394,6.957-1.051,6.243-6.64-.2-2.647-2.17-4.005-3.912-5.2-2.554-1.758-4.778-3.29-2.965-8.62A19.967,19.967,0,0,1,60.765,22.985ZM71.312,35.537c-1.485-3.544-4.354-7.435-8.528-11.57.014-.327.024-.655.024-.982a21.987,21.987,0,1,0-11.7,19.437,8.631,8.631,0,0,0,.517,1.841c1.451,3.56,5.422,5.859,10.116,5.859s8.665-2.3,10.116-5.859c1.018-2.5.834-5.434-.545-8.727ZM61.475,59.11a2.89,2.89,0,0,0-3.246-4.234L43.05,58.943a5.582,5.582,0,0,1-3.5,1.227H32.46a8.536,8.536,0,0,1-4.341-1.13,1.022,1.022,0,0,1,1.024-1.768,6.521,6.521,0,0,0,3.316.855h7.094a3.568,3.568,0,1,0,0-7.135H34.7a8.471,8.471,0,0,1-6.19-2.563l-5.1-5.1c-1.276-1.277-2.967-1.177-6.093-.872a35.425,35.425,0,0,1-6.184.21V61.8c5.826.218,9.02,2.129,13.005,4.516.684.409,1.391.832,2.143,1.267a5.786,5.786,0,0,0,4.6.606l28.84-7.727a2.866,2.866,0,0,0,1.75-1.348ZM9.092,63.768H5.855V40.237H9.092ZM61.441,53.4a4.9,4.9,0,0,0-3.741-.5L44.874,56.34a5.607,5.607,0,0,0-5.319-7.391H34.7a6.413,6.413,0,0,1-4.746-1.965l-5.1-5.1c-2.018-2.018-4.668-1.759-7.736-1.46a33.235,33.235,0,0,1-5.986.193v-.546a1.879,1.879,0,0,0-1.877-1.877H5.69a1.879,1.879,0,0,0-1.878,1.877V63.933A1.879,1.879,0,0,0,5.69,65.811H9.257a1.879,1.879,0,0,0,1.877-1.878v-.091c5.254.211,8.1,1.916,11.956,4.225.691.413,1.405.84,2.172,1.283a7.879,7.879,0,0,0,3.987,1.1,8.348,8.348,0,0,0,2.165-.294l28.84-7.727A4.928,4.928,0,0,0,61.441,53.4Z" transform="translate(0 -48.569)" fill-rule="evenodd"/>
    </g>
  </g>
</svg>
