<svg xmlns="http://www.w3.org/2000/svg" xmlns:xlink="http://www.w3.org/1999/xlink" width="117.999" height="118" viewBox="0 0 117.999 118">
  <defs>
    <filter id="Trazado_874925" x="0" y="0" width="117.999" height="118" filterUnits="userSpaceOnUse">
      <feOffset dy="3" input="SourceAlpha"/>
      <feGaussianBlur stdDeviation="3" result="blur"/>
      <feFlood flood-opacity="0.161"/>
      <feComposite operator="in" in2="blur"/>
      <feComposite in="SourceGraphic"/>
    </filter>
  </defs>
  <g id="Grupo_1123301" data-name="Grupo 1123301" transform="translate(-582.815 -14762.446)">
    <g id="Grupo_1111553" data-name="Grupo 1111553" transform="translate(-216.685 12251.289)">
      <g id="Grupo_1111316" data-name="Grupo 1111316" transform="translate(808.5 2517.157)">
        <g id="Grupo_1109835" data-name="Grupo 1109835" transform="translate(0 0)">
          <g id="Grupo_1107913" data-name="Grupo 1107913" transform="translate(0 0)">
            <g transform="matrix(1, 0, 0, 1, -9, -6)" filter="url(#Trazado_874925)">
              <g id="Trazado_874925-2" data-name="Trazado 874925" transform="translate(9 6)" fill="#bb965f" opacity="0.859">
                <path d="M 49.99972534179688 98.4998779296875 C 43.45164108276367 98.4998779296875 37.10022354125977 97.21776580810547 31.12189674377441 94.68914794921875 C 25.34676742553711 92.24647521972656 20.15985298156738 88.74925994873047 15.70523929595947 84.29464721679688 C 11.25062561035156 79.84004974365234 7.753411293029785 74.65313720703125 5.310725212097168 68.87800598144531 C 2.782111167907715 62.89969253540039 1.499996781349182 56.54829406738281 1.499996781349182 50.00022125244141 C 1.499996781349182 43.45157623291016 2.782111167907715 37.10017776489258 5.310725212097168 31.12186431884766 C 7.753411293029785 25.34673500061035 11.25062561035156 20.15983581542969 15.70523929595947 15.70522117614746 C 20.15985298156738 11.25062084197998 25.34676742553711 7.753406524658203 31.12189674377441 5.31073522567749 C 37.10022354125977 2.782120943069458 43.45164108276367 1.500006556510925 49.99972534179688 1.500006556510925 C 56.54780960083008 1.500006556510925 62.89922714233398 2.782120943069458 68.87755584716797 5.31073522567749 C 74.65267944335938 7.753406524658203 79.839599609375 11.25062084197998 84.29421234130859 15.70522117614746 C 88.74882507324219 20.15983581542969 92.24604034423828 25.34673500061035 94.68872833251953 31.12186431884766 C 97.21733856201172 37.10017776489258 98.49945068359375 43.45157623291016 98.49945068359375 49.99964904785156 C 98.49945068359375 56.54829406738281 97.21733856201172 62.89969253540039 94.68872833251953 68.87800598144531 C 92.24604034423828 74.65313720703125 88.74882507324219 79.84004974365234 84.29421234130859 84.29464721679688 C 79.839599609375 88.74925994873047 74.65267944335938 92.24647521972656 68.87755584716797 94.68914794921875 C 62.89922714233398 97.21776580810547 56.54780960083008 98.4998779296875 49.99972534179688 98.4998779296875 Z" stroke="none"/>
                <path d="M 49.99972534179688 3 C 43.65348052978516 3 37.49866485595703 4.242240905761719 31.70623016357422 6.692230224609375 C 26.10989379882812 9.059272766113281 21.08323669433594 12.44853210449219 16.76589202880859 16.76587677001953 C 12.44855499267578 21.08321380615234 9.059295654296875 26.10985565185547 6.692230224609375 31.70618438720703 C 4.24224853515625 37.49859619140625 3 43.65341186523438 3 50.00022888183594 C 3 56.34645843505859 4.24224853515625 62.50127410888672 6.692230224609375 68.29368591308594 C 9.059295654296875 73.8900146484375 12.44855499267578 78.91665649414062 16.76589202880859 83.23399353027344 C 21.08323669433594 87.55132293701172 26.10989379882812 90.94059753417969 31.70623016357422 93.30764007568359 C 37.49866485595703 95.75762939453125 43.65348052978516 96.99987030029297 49.99972534179688 96.99987030029297 C 56.34597015380859 96.99987030029297 62.50078582763672 95.75762939453125 68.293212890625 93.30764007568359 C 73.88955688476562 90.94059753417969 78.91621398925781 87.55132293701172 83.23355865478516 83.23399353027344 C 87.55089569091797 78.91665649414062 90.94015502929688 73.8900146484375 93.30722045898438 68.29368591308594 C 95.7572021484375 62.50127410888672 96.99945068359375 56.34645843505859 96.99945068359375 49.99964141845703 C 96.99945068359375 43.65341186523438 95.7572021484375 37.49859619140625 93.30722045898438 31.70618438720703 C 90.94015502929688 26.10985565185547 87.55089569091797 21.08321380615234 83.23355865478516 16.76587677001953 C 78.91621398925781 12.44853210449219 73.88955688476562 9.059272766113281 68.293212890625 6.692230224609375 C 62.50078582763672 4.242240905761719 56.34597015380859 3 49.99972534179688 3 M 49.99972534179688 0 C 77.61381530761719 0 99.99945068359375 22.38559722900391 99.99945068359375 49.99964141845703 L 99.99945068359375 50.00022888183594 C 99.99945068359375 77.6142578125 77.61381530761719 99.99987030029297 49.99972534179688 99.99987030029297 C 22.38563537597656 99.99987030029297 0 77.6142578125 0 50.00022888183594 L 0 49.99964141845703 C 0 22.38559722900391 22.38563537597656 0 49.99972534179688 0 Z" stroke="none" fill="#fff"/>
              </g>
            </g>
            <g id="Trazado_874923" data-name="Trazado 874923" transform="translate(0 0)" fill="none">
              <path d="M50,0a50,50,0,0,1,50,50h0A50,50,0,0,1,0,50H0A50,50,0,0,1,50,0Z" stroke="none"/>
              <path d="M 49.99972534179688 3 C 43.65348052978516 3 37.49866485595703 4.242240905761719 31.70623016357422 6.692230224609375 C 26.10989379882812 9.059272766113281 21.08323669433594 12.44853210449219 16.76589202880859 16.76587677001953 C 12.44855499267578 21.08321380615234 9.059295654296875 26.10985565185547 6.692230224609375 31.70618438720703 C 4.24224853515625 37.49859619140625 3 43.65341186523438 3 50.00022888183594 C 3 56.34645843505859 4.24224853515625 62.50127410888672 6.692230224609375 68.29368591308594 C 9.059295654296875 73.8900146484375 12.44855499267578 78.91665649414062 16.76589202880859 83.23399353027344 C 21.08323669433594 87.55132293701172 26.10989379882812 90.94059753417969 31.70623016357422 93.30764007568359 C 37.49866485595703 95.75762939453125 43.65348052978516 96.99987030029297 49.99972534179688 96.99987030029297 C 56.34597015380859 96.99987030029297 62.50078582763672 95.75762939453125 68.293212890625 93.30764007568359 C 73.88955688476562 90.94059753417969 78.91621398925781 87.55132293701172 83.23355865478516 83.23399353027344 C 87.55089569091797 78.91665649414062 90.94015502929688 73.8900146484375 93.30722045898438 68.29368591308594 C 95.7572021484375 62.50127410888672 96.99945068359375 56.34645843505859 96.99945068359375 49.99964141845703 C 96.99945068359375 43.65341186523438 95.7572021484375 37.49859619140625 93.30722045898438 31.70618438720703 C 90.94015502929688 26.10985565185547 87.55089569091797 21.08321380615234 83.23355865478516 16.76587677001953 C 78.91621398925781 12.44853210449219 73.88955688476562 9.059272766113281 68.293212890625 6.692230224609375 C 62.50078582763672 4.242240905761719 56.34597015380859 3 49.99972534179688 3 M 49.99972534179688 0 C 77.61381530761719 0 99.99945068359375 22.38559722900391 99.99945068359375 49.99964141845703 L 99.99945068359375 50.00022888183594 C 99.99945068359375 77.6142578125 77.61381530761719 99.99987030029297 49.99972534179688 99.99987030029297 C 22.38563537597656 99.99987030029297 0 77.6142578125 0 50.00022888183594 L 0 49.99964141845703 C 0 22.38559722900391 22.38563537597656 0 49.99972534179688 0 Z" stroke="none" fill="#fff"/>
            </g>
          </g>
        </g>
      </g>
    </g>
    <g id="Grupo_1123300" data-name="Grupo 1123300" transform="translate(608.09 14787.189)">
      <g id="Grupo_1123299" data-name="Grupo 1123299" transform="translate(0.184 0.88)">
        <g id="Grupo_1123297" data-name="Grupo 1123297">
          <g id="Grupo_1123293" data-name="Grupo 1123293" transform="translate(35.681 0.021)">
            <g id="Grupo_1123292" data-name="Grupo 1123292">
              <path id="Trazado_919796" data-name="Trazado 919796" d="M315.5,117.721s-3.37-6.267-13.176-6.278a9.767,9.767,0,0,0-4.414,1.015,7.244,7.244,0,0,0-.789.513,6.1,6.1,0,0,0-2.444,4.109c-.345,2.818,1.384,5.465,3.2,7.719s3.876,4.533,4.363,7.332a9.805,9.805,0,0,1-1.49,6.566c-1.187,2-3.006,3.472-4.334,5.345a14.156,14.156,0,0,0-2.444,5.739c-.186,1.164-.934,5.836,2.157,8.268a7.962,7.962,0,0,0,7.379.86c4.214-1.539,5.708-5.718,5.46-9.691-.185-2.957-.876-6.027-.134-8.951,1.038-4.089,4.347-6.381,6.092-10.034,1.83-3.83,2.666-8.613.57-12.512Z" transform="translate(-293.762 -98.738)" fill="#bee49d"/>
              <path id="Trazado_919797" data-name="Trazado 919797" d="M350.54,130.233c1.829-3.83,2.666-8.613.57-12.512,0,0-3.37-6.267-13.176-6.278a10.142,10.142,0,0,0-1.494.11c8.141.837,11.007,6.168,11.007,6.168,2.1,3.9,1.26,8.682-.57,12.512-1.745,3.652-5.053,5.945-6.092,10.034-.743,2.924-.051,5.994.134,8.951.248,3.973-1.246,8.153-5.46,9.691a8.426,8.426,0,0,1-1.137.325,8.756,8.756,0,0,0,4.8-.325c4.214-1.539,5.708-5.718,5.46-9.691-.185-2.957-.876-6.027-.134-8.951C345.486,136.178,348.795,133.886,350.54,130.233Z" transform="translate(-329.37 -98.738)" fill="#a3d8a4"/>
              <g id="Grupo_1123291" data-name="Grupo 1123291" transform="translate(1.327)">
                <ellipse id="Elipse_11965" data-name="Elipse 11965" cx="3.605" cy="4.582" rx="3.605" ry="4.582" transform="translate(0 0.065) rotate(-0.516)" fill="#bee49d"/>
                <path id="Trazado_919798" data-name="Trazado 919798" d="M321.189,7.5a3.026,3.026,0,0,0-1.8.635,4.935,4.935,0,0,1,1.787,3.913,4.912,4.912,0,0,1-1.76,3.981,3.038,3.038,0,0,0,1.861.635c1.991-.019,3.585-2.085,3.561-4.616S323.18,7.481,321.189,7.5Z" transform="translate(-317.585 -7.485)" fill="#a3d8a4"/>
                <ellipse id="Elipse_11966" data-name="Elipse 11966" cx="2.715" cy="3.765" rx="2.715" ry="3.765" transform="translate(7.181 1.87) rotate(-0.516)" fill="#bee49d"/>
                <path id="Trazado_919799" data-name="Trazado 919799" d="M375.656,22.329a2.171,2.171,0,0,0-1.393.551,4.239,4.239,0,0,1,1.316,3.188,4.219,4.219,0,0,1-1.286,3.24,2.183,2.183,0,0,0,1.435.551c1.5-.014,2.7-1.711,2.68-3.79S377.156,22.315,375.656,22.329Z" transform="translate(-365.762 -20.504)" fill="#a3d8a4"/>
                <ellipse id="Elipse_11967" data-name="Elipse 11967" cx="3.293" cy="2.381" rx="3.293" ry="2.381" transform="translate(12.037 9.998) rotate(-81.254)" fill="#bee49d"/>
                <path id="Trazado_919800" data-name="Trazado 919800" d="M416.795,38.582a2.011,2.011,0,0,0-1.379.438,3.453,3.453,0,0,1,.968,3.028,3.864,3.864,0,0,1-1.377,2.634,1.812,1.812,0,0,0,1.027.438c1.312.109,2.546-1.266,2.757-3.072S418.107,38.691,416.795,38.582Z" transform="translate(-401.53 -34.767)" fill="#a3d8a4"/>
                <ellipse id="Elipse_11968" data-name="Elipse 11968" cx="2.938" cy="2.009" rx="2.938" ry="2.009" transform="translate(15.852 11.624) rotate(-70.604)" fill="#bee49d"/>
                <path id="Trazado_919801" data-name="Trazado 919801" d="M448.092,61.888a1.74,1.74,0,0,0-1.641.317,3.052,3.052,0,0,1,.38,3.157,3.688,3.688,0,0,1-1.244,1.729,1.44,1.44,0,0,0,.491.317c1.037.394,2.329-.521,2.885-2.045S449.129,62.282,448.092,61.888Z" transform="translate(-428.378 -55.153)" fill="#a3d8a4"/>
                <ellipse id="Elipse_11969" data-name="Elipse 11969" cx="2.938" cy="2.009" rx="2.938" ry="2.009" transform="translate(19.418 13.53) rotate(-70.604)" fill="#bee49d"/>
                <path id="Trazado_919802" data-name="Trazado 919802" d="M476.634,77.487a1.724,1.724,0,0,0-1.6.291,3.144,3.144,0,0,1,.287,3.057,3.664,3.664,0,0,1-1.28,1.754,1.468,1.468,0,0,0,.583.417c1.037.394,2.329-.521,2.885-2.045S477.672,77.882,476.634,77.487Z" transform="translate(-453.355 -68.847)" fill="#a3d8a4"/>
              </g>
            </g>
          </g>
          <g id="Grupo_1123296" data-name="Grupo 1123296">
            <g id="Grupo_1123295" data-name="Grupo 1123295">
              <path id="Trazado_919803" data-name="Trazado 919803" d="M31.35,117.721s3.37-6.267,13.176-6.278a9.767,9.767,0,0,1,4.414,1.015,7.257,7.257,0,0,1,.789.513,6.1,6.1,0,0,1,2.444,4.109c.345,2.818-1.384,5.465-3.2,7.719s-3.876,4.533-4.363,7.332A9.805,9.805,0,0,0,46.1,138.7c1.187,2,3.006,3.472,4.334,5.345a14.156,14.156,0,0,1,2.444,5.739c.186,1.164.934,5.836-2.157,8.268a7.962,7.962,0,0,1-7.379.86c-4.214-1.539-5.708-5.718-5.46-9.691.185-2.957.876-6.027.134-8.951-1.038-4.089-4.347-6.381-6.092-10.034-1.83-3.83-2.666-8.613-.57-12.512Z" transform="translate(-26.623 -98.717)" fill="#bee49d"/>
              <path id="Trazado_919804" data-name="Trazado 919804" d="M129.949,149.781a14.157,14.157,0,0,0-2.444-5.739c-1.329-1.873-3.148-3.341-4.334-5.345a9.8,9.8,0,0,1-1.49-6.566c.487-2.8,2.544-5.078,4.363-7.332s3.548-4.9,3.2-7.719a6.1,6.1,0,0,0-2.444-4.109,7.257,7.257,0,0,0-.789-.513,9.767,9.767,0,0,0-4.414-1.015,21.432,21.432,0,0,0-2.169.11,9.267,9.267,0,0,1,2.92.9,7.245,7.245,0,0,1,.789.513,6.1,6.1,0,0,1,2.444,4.109c.345,2.818-1.384,5.465-3.2,7.719s-3.876,4.533-4.363,7.332a9.8,9.8,0,0,0,1.49,6.566c1.187,2,3.006,3.472,4.334,5.345a14.156,14.156,0,0,1,2.444,5.739c.186,1.164.934,5.836-2.157,8.268a6.416,6.416,0,0,1-2.58,1.185,7.7,7.7,0,0,0,6.243-1.185C130.883,155.617,130.136,150.944,129.949,149.781Z" transform="translate(-103.698 -98.717)" fill="#a3d8a4"/>
              <g id="Grupo_1123294" data-name="Grupo 1123294">
                <ellipse id="Elipse_11970" data-name="Elipse 11970" cx="4.582" cy="3.605" rx="4.582" ry="3.605" transform="translate(17.838 9.164) rotate(-89.484)" fill="#bee49d"/>
                <path id="Trazado_919805" data-name="Trazado 919805" d="M164.32,7.5a3.038,3.038,0,0,0-1.861.635,4.912,4.912,0,0,1,1.76,3.981,4.935,4.935,0,0,1-1.787,3.913,3.026,3.026,0,0,0,1.8.635c1.991.019,3.624-2.017,3.648-4.548S166.311,7.519,164.32,7.5Z" transform="translate(-142.784 -7.464)" fill="#a3d8a4"/>
                <ellipse id="Elipse_11971" data-name="Elipse 11971" cx="3.765" cy="2.715" rx="3.765" ry="2.715" transform="translate(12.454 9.348) rotate(-89.484)" fill="#bee49d"/>
                <path id="Trazado_919806" data-name="Trazado 919806" d="M115.423,22.329a2.2,2.2,0,0,0-1.493.6,4.257,4.257,0,0,1,1.229,3.188,4.279,4.279,0,0,1-1.257,3.137,2.192,2.192,0,0,0,1.451.6c1.5.014,2.731-1.66,2.75-3.739S116.922,22.344,115.423,22.329Z" transform="translate(-100.178 -20.483)" fill="#a3d8a4"/>
                <ellipse id="Elipse_11972" data-name="Elipse 11972" cx="2.381" cy="3.293" rx="2.381" ry="3.293" transform="translate(7.4 4.208) rotate(-8.746)" fill="#bee49d"/>
                <path id="Trazado_919807" data-name="Trazado 919807" d="M77.752,41.653c-.21-1.805-1.445-3.18-2.757-3.072a1.812,1.812,0,0,0-1.027.438,3.865,3.865,0,0,1,1.377,2.634,3.453,3.453,0,0,1-.968,3.028,2.011,2.011,0,0,0,1.379.438C77.069,45.01,77.962,43.458,77.752,41.653Z" transform="translate(-65.12 -34.746)" fill="#a3d8a4"/>
                <ellipse id="Elipse_11973" data-name="Elipse 11973" cx="2.009" cy="2.938" rx="2.009" ry="2.938" transform="translate(3.564 7.406) rotate(-19.396)" fill="#bee49d"/>
                <path id="Trazado_919808" data-name="Trazado 919808" d="M45.3,63.932c-.556-1.524-1.848-2.44-2.885-2.045a1.441,1.441,0,0,0-.491.317,3.686,3.686,0,0,1,1.244,1.729,3.052,3.052,0,0,1-.38,3.157,1.74,1.74,0,0,0,1.641.317C45.462,67.012,45.852,65.456,45.3,63.932Z" transform="translate(-36.985 -55.131)" fill="#a3d8a4"/>
                <ellipse id="Elipse_11974" data-name="Elipse 11974" cx="2.009" cy="2.938" rx="2.009" ry="2.938" transform="translate(0 9.311) rotate(-19.396)" fill="#bee49d"/>
                <path id="Trazado_919809" data-name="Trazado 919809" d="M16.085,79.531c-.556-1.524-1.848-2.44-2.885-2.045a1.441,1.441,0,0,0-.491.317,3.686,3.686,0,0,1,1.244,1.729,3.052,3.052,0,0,1-.38,3.157,1.74,1.74,0,0,0,1.641.317C16.252,82.611,16.642,81.055,16.085,79.531Z" transform="translate(-11.341 -68.825)" fill="#a3d8a4"/>
              </g>
            </g>
          </g>
        </g>
        <g id="Grupo_1123298" data-name="Grupo 1123298" transform="translate(17.616 22.41)">
          <circle id="Elipse_11975" data-name="Elipse 11975" cx="13.458" cy="13.458" r="13.458" fill="#edf6ff"/>
          <path id="Trazado_919810" data-name="Trazado 919810" d="M242.852,190.767a13.564,13.564,0,0,0-1.831.125,13.459,13.459,0,0,1,0,26.667,13.458,13.458,0,1,0,1.831-26.791Z" transform="translate(-229.394 -190.767)" fill="#ddebfd"/>
        </g>
      </g>
      <path id="Trazado_919811" data-name="Trazado 919811" d="M27.071,35.852c-.546-.458-1.016-.109-1.444.272a1.54,1.54,0,0,1-1.059.372,2.124,2.124,0,1,1,1.187-3.886.916.916,0,1,0,1.025-1.518,3.955,3.955,0,1,0-2.212,7.235,3.362,3.362,0,0,0,2.277-.835c.482-.429.821-1.141.226-1.64Zm31.315-14.2a.916.916,0,0,0-.7,1.088A14.752,14.752,0,0,1,56.208,32a21.681,21.681,0,0,1-2.617,3.921A16.977,16.977,0,0,0,50.055,42.2a19.606,19.606,0,0,0-.1,6.964c.083.785.162,1.526.208,2.269.4,6.35-3.62,8.321-4.861,8.774a7.043,7.043,0,0,1-6.5-.72c-1.218-.958-2.523-3.021-1.819-7.4a11.372,11.372,0,0,1,.716-2.494,14.364,14.364,0,0,0,2.066-24.423c-1.624-2.252-2.285-4.1-2.075-5.817a5.2,5.2,0,0,1,2.076-3.482,6.44,6.44,0,0,1,.692-.452,8.993,8.993,0,0,1,3.96-.9h.008c6.674.008,10.166,3.011,11.655,4.8a.916.916,0,0,0,1.408-1.171c-1.693-2.035-5.64-5.45-13.06-5.46h-.01a10.681,10.681,0,0,0-4.852,1.131,8.163,8.163,0,0,0-.885.576,6.969,6.969,0,0,0-2.809,4.736,8.115,8.115,0,0,0,.731,4.274,14.367,14.367,0,0,0-10.693,0,8.114,8.114,0,0,0,.731-4.274,6.969,6.969,0,0,0-2.81-4.736,8.151,8.151,0,0,0-.883-.575A10.679,10.679,0,0,0,18.1,12.69h-.01C7.851,12.7,4.253,19.175,4.105,19.45c-1.959,3.644-1.759,8.506.549,13.34a23.414,23.414,0,0,0,2.823,4.255,15.329,15.329,0,0,1,3.208,5.61,17.965,17.965,0,0,1,.054,6.321c-.081.769-.166,1.565-.215,2.348a12.572,12.572,0,0,0,.863,5.6.916.916,0,1,0,1.69-.706,10.735,10.735,0,0,1-.725-4.776c.047-.744.125-1.485.208-2.27a19.6,19.6,0,0,0-.1-6.964,16.974,16.974,0,0,0-3.536-6.282A21.692,21.692,0,0,1,6.307,32c-.972-2.035-2.974-7.247-.589-11.683.031-.058,3.217-5.786,12.37-5.8H18.1a9,9,0,0,1,3.959.9,6.435,6.435,0,0,1,.693.452,5.2,5.2,0,0,1,2.076,3.483c.21,1.713-.451,3.564-2.075,5.816a14.364,14.364,0,0,0,2.066,24.423,11.376,11.376,0,0,1,.716,2.495c.388,2.419.388,5.666-1.819,7.4a7.044,7.044,0,0,1-6.5.72,7.142,7.142,0,0,1-1.9-1.036.916.916,0,1,0-1.115,1.453,9.176,9.176,0,0,0,10.651.3c1.6-1.262,3.34-3.871,2.5-9.131a12.162,12.162,0,0,0-.286-1.306,14.391,14.391,0,0,0,8.407,0,12.186,12.186,0,0,0-.285,1.3c-.845,5.261.891,7.87,2.5,9.132A9.052,9.052,0,0,0,50.838,57.55a12.21,12.21,0,0,0,1.152-6.227c-.049-.783-.133-1.578-.215-2.348a17.969,17.969,0,0,1,.054-6.321,15.331,15.331,0,0,1,3.208-5.61,23.408,23.408,0,0,0,2.823-4.255,16.571,16.571,0,0,0,1.613-10.431.916.916,0,0,0-1.088-.7ZM31.257,49.29A12.542,12.542,0,1,1,43.8,36.748,12.556,12.556,0,0,1,31.257,49.29ZM60.8,8.685a2.5,2.5,0,0,0-1.94.1l-.013.007A2.705,2.705,0,0,0,57.231,6.78a2.494,2.494,0,0,0-1.894.082,4.137,4.137,0,0,0-.853-1.991A2.832,2.832,0,0,0,52.532,3.8a2.952,2.952,0,0,0-2.123.7,4.915,4.915,0,0,0-.655-1.24,3.3,3.3,0,0,0-2.676-1.458A3.189,3.189,0,0,0,44.8,2.868,4.505,4.505,0,0,0,40.822,0h-.036c-2.492.023-4.5,2.509-4.469,5.54S38.378,11,40.855,11a4.181,4.181,0,0,0,3.318-1.776,3.575,3.575,0,0,0,2.966,1.952,3.1,3.1,0,0,0,2.061-.807,3.085,3.085,0,0,0,2.418,1.8,2.8,2.8,0,0,0,1.323-.217,2.72,2.72,0,0,0,1.624,2.062,2.505,2.505,0,0,0,1.94-.1l.013-.007a2.7,2.7,0,0,0,1.613,2.011c1.766.672,3.442-.866,4.071-2.587.738-2.023.121-4.063-1.405-4.643Zm-19.924.479c-1.484.015-2.7-1.619-2.724-3.641S39.321,1.845,40.8,1.831s2.7,1.621,2.724,3.641S42.356,9.15,40.873,9.164Zm7.984-1.913c-.2,1.152-.886,2.089-1.708,2.089h-.01c-1.332,0-1.816-1.71-1.816-2.832.012-1.1.407-2.866,1.773-2.866h.01C48.792,3.642,49.069,6.051,48.857,7.251Zm4.685.825c-.148,1.273-.98,2.331-1.771,2.265-1.121-.094-1.368-1.422-1.1-2.646.233-1.076.863-2.07,1.642-2.07C53.332,5.625,53.656,7.1,53.542,8.076ZM55.217,12.3c-1.447-.55.109-4.284,1.363-3.807,1.475.561-.18,4.257-1.363,3.807Zm5.265.4c-.271.742-.951,1.788-1.7,1.5-.592-.225-.665-1.4-.336-2.3h0c.276-.737.838-1.535,1.519-1.535C60.8,10.364,60.812,11.8,60.482,12.7ZM32.149,30.416A3.955,3.955,0,1,0,36.1,34.372,3.96,3.96,0,0,0,32.149,30.416Zm0,6.08a2.124,2.124,0,1,1,2.124-2.124A2.126,2.126,0,0,1,32.149,36.5ZM6,13.9l.013.007a2.487,2.487,0,0,0,1.94.1,2.72,2.72,0,0,0,1.624-2.062,2.921,2.921,0,0,0,3.741-1.584,3.1,3.1,0,0,0,2.035.807h.027a3.328,3.328,0,0,0,2.65-1.458,4.661,4.661,0,0,0,.317-.495A4.186,4.186,0,0,0,21.625,11h.036c2.476,0,4.508-2.438,4.537-5.455S24.221.024,21.728,0a4.493,4.493,0,0,0-4.013,2.867,3.19,3.19,0,0,0-2.278-1.057H15.41a3.755,3.755,0,0,0-3.3,2.7A2.953,2.953,0,0,0,9.983,3.8,3.337,3.337,0,0,0,7.177,6.862,2.5,2.5,0,0,0,5.284,6.78,2.705,2.705,0,0,0,3.671,8.792l-.013-.007a2.505,2.505,0,0,0-1.94-.1C.191,9.265-.426,11.3.312,13.328a3.715,3.715,0,0,0,3.243,2.737A2.574,2.574,0,0,0,6,13.9Zm15.7-12.072h.019c1.483.014,2.673,1.67,2.654,3.692s-1.231,3.641-2.7,3.641h-.019c-1.483-.014-2.674-1.67-2.655-3.692s1.231-3.641,2.7-3.641ZM15.41,3.642h.01c1.418,0,1.759,1.778,1.772,2.866,0,1.15-.435,2.84-1.826,2.832-1.142-.006-1.784-1.643-1.772-2.866C13.6,5.373,14.051,3.642,15.41,3.642ZM10.134,5.628c.762-.063,1.49.846,1.72,1.959.207,1,0,2.661-1.11,2.753-.794.066-1.623-.992-1.771-2.265-.111-.952.167-2.365,1.161-2.448Zm-4.2,2.864c.744-.283,1.39.741,1.653,1.384.36.88.34,2.184-.29,2.423-.7.265-1.433-.775-1.7-1.5-.329-.9-.256-2.079.336-2.3ZM2.033,12.7c-.329-.9-.256-2.079.336-2.3.758-.288,1.436.811,1.7,1.5h0c.329.9.256,2.079-.336,2.3-.7.266-1.433-.775-1.7-1.5ZM40.859,42.14a.915.915,0,0,0-.915-.9h-.012l-.851.008c.228-.314.5-.695.825-1.157a3.208,3.208,0,0,0,.735-1.835,2.226,2.226,0,0,0-4.41-.43.916.916,0,0,0,1.8.353.395.395,0,0,1,.78.036c.025.24-.12.423-.4.826-.807,1.153-1.288,1.783-1.547,2.122-.332.435-.572.749-.422,1.236a.948.948,0,0,0,.607.617,22.12,22.12,0,0,0,2.911.055.915.915,0,0,0,.9-.927Z"/>
    </g>
  </g>
</svg>
