<svg xmlns="http://www.w3.org/2000/svg" width="78" height="78" viewBox="0 0 78 78">
  <g id="Grupo_1120127" data-name="Grupo 1120127" transform="translate(-312.051 -11483)">
    <circle id="Elipse_11669" data-name="Elipse 11669" cx="39" cy="39" r="39" transform="translate(312.051 11483)" fill="#e2dacc"/>
    <g id="Grupo_1120126" data-name="Grupo 1120126" transform="translate(319.051 11489.775)">
      <g id="Grupo_1120117" data-name="Grupo 1120117">
        <path id="Trazado_917927" data-name="Trazado 917927" d="M50.3,8.2a2.148,2.148,0,0,1,2.3,1.1c1.6,2.9,4.7,10.1,1.1,17.5s-11.2,9.4-14.4,10A2.148,2.148,0,0,1,37,35.7c-1.6-2.9-4.7-10.1-1.1-17.5,3.5-7.4,11.1-9.4,14.4-10Z" fill="#66a53d"/>
        <path id="Trazado_917928" data-name="Trazado 917928" d="M38.9,38.1a3.493,3.493,0,0,1-3-1.8c-1.6-3-5-10.7-1.1-18.6,3.9-8,12-10.1,15.4-10.6a3.67,3.67,0,0,1,3.6,1.7A22.9,22.9,0,0,1,55.9,14a1.184,1.184,0,0,1-.9,1.5,1.225,1.225,0,0,1-1.5-.9,25.075,25.075,0,0,0-1.9-4.7.876.876,0,0,0-1-.5c-2.9.5-10.2,2.4-13.5,9.3-3.4,6.9-.4,13.8,1.1,16.4a.876.876,0,0,0,1,.5c2.9-.5,10.2-2.4,13.5-9.3a1.208,1.208,0,1,1,2.2,1c-3.9,8-12,10.1-15.3,10.6a1.232,1.232,0,0,1-.7.2Z" fill="#0e0e0f"/>
      </g>
      <g id="Grupo_1120119" data-name="Grupo 1120119">
        <path id="Trazado_917929" data-name="Trazado 917929" d="M60.4,19.1a2.223,2.223,0,0,1,1.9,1.8c.7,3.2,1.5,11-4.1,17.1-5.6,6-13.5,5.7-16.7,5.3a2.223,2.223,0,0,1-1.9-1.8c-.7-3.2-1.5-11,4.1-17.1s13.5-5.7,16.7-5.3Z" fill="#80d34a"/>
        <g id="Grupo_1120118" data-name="Grupo 1120118">
          <path id="Trazado_917930" data-name="Trazado 917930" d="M44.6,44.6a27.686,27.686,0,0,1-3.3-.2,3.4,3.4,0,0,1-2.9-2.7c-.7-3.3-1.6-11.7,4.4-18.1,6.1-6.5,14.5-6.1,17.8-5.6a3.4,3.4,0,0,1,2.9,2.7c.7,3.3,1.6,11.7-4.4,18.2A20.038,20.038,0,0,1,44.6,44.6ZM57.3,20.1a17.187,17.187,0,0,0-12.7,5.1c-5.3,5.6-4.4,13-3.8,16a1.085,1.085,0,0,0,.8.8c3,.4,10.4.7,15.7-4.9s4.4-13,3.8-16a1.085,1.085,0,0,0-.8-.8,23.638,23.638,0,0,0-3-.2Z" fill="#0e0e0f"/>
          <path id="Trazado_917931" data-name="Trazado 917931" d="M40.2,43.8a1.135,1.135,0,0,1-.8-.3,1.244,1.244,0,0,1-.1-1.7L51.2,29A1.2,1.2,0,1,1,53,30.6L41.1,43.4a1.086,1.086,0,0,1-.9.4Z" fill="#0e0e0f"/>
        </g>
      </g>
      <g id="Grupo_1120121" data-name="Grupo 1120121">
        <path id="Trazado_917932" data-name="Trazado 917932" d="M24.1,31.1V56.5a4.253,4.253,0,0,1-1.1-.2L2.5,45.5a2.2,2.2,0,0,1-1.2-2v-23a2.375,2.375,0,0,1,.3-1.2Z" fill="#bf5230"/>
        <g id="Grupo_1120120" data-name="Grupo 1120120">
          <path id="Trazado_917933" data-name="Trazado 917933" d="M24.1,57.8a2.934,2.934,0,0,1-1.6-.4L1.9,46.6A3.433,3.433,0,0,1,0,43.5v-23a4.136,4.136,0,0,1,.5-1.9,1.188,1.188,0,0,1,1.7-.4,1.188,1.188,0,0,1,.4,1.7,1.421,1.421,0,0,0-.2.6V43.4a.875.875,0,0,0,.6.9L22.8,54.7v-23l-17-8.8A1.253,1.253,0,0,1,7,20.7L24.7,30a1.23,1.23,0,0,1,.7,1.1V56.5a1.4,1.4,0,0,1-1.3,1.3Z" fill="#0e0e0f"/>
          <circle id="Elipse_11885" data-name="Elipse 11885" cx="1.2" cy="1.2" r="1.2" transform="translate(6.4 37.9)" fill="#0e0e0f"/>
        </g>
      </g>
      <g id="Grupo_1120123" data-name="Grupo 1120123">
        <path id="Trazado_917934" data-name="Trazado 917934" d="M47,20.5V43.4a2.188,2.188,0,0,1-1.3,2L25.2,56.3a1.978,1.978,0,0,1-1.1.2V31.1L46.6,19.3a1.922,1.922,0,0,1,.4,1.2Z" fill="#9e3e28"/>
        <g id="Grupo_1120122" data-name="Grupo 1120122">
          <path id="Trazado_917935" data-name="Trazado 917935" d="M24.1,57.8a1.216,1.216,0,0,1-1.2-1.2V31.1a1.23,1.23,0,0,1,.7-1.1L46.1,18.2a1.254,1.254,0,0,1,1.6.4,3.292,3.292,0,0,1,.6,1.9V43.4a3.433,3.433,0,0,1-1.9,3.1L25.7,57.4a3.768,3.768,0,0,1-1.6.4Zm1.2-26v23L45.1,44.4a1.1,1.1,0,0,0,.6-1V21.1Z" fill="#0e0e0f"/>
          <circle id="Elipse_11886" data-name="Elipse 11886" cx="1.2" cy="1.2" r="1.2" transform="translate(34.5 41.8)" fill="#0e0e0f"/>
          <circle id="Elipse_11887" data-name="Elipse 11887" cx="1.2" cy="1.2" r="1.2" transform="translate(40.5 33.8)" fill="#0e0e0f"/>
        </g>
      </g>
      <g id="Grupo_1120125" data-name="Grupo 1120125">
        <path id="Trazado_917936" data-name="Trazado 917936" d="M46.6,19.3,24.1,31.1,1.6,19.3a2.361,2.361,0,0,1,.9-.8L23,7.7a2.56,2.56,0,0,1,2.1,0L45.7,18.4A3.819,3.819,0,0,1,46.6,19.3Z" fill="#dd7247"/>
        <g id="Grupo_1120124" data-name="Grupo 1120124">
          <circle id="Elipse_11888" data-name="Elipse 11888" cx="1.2" cy="1.2" r="1.2" transform="translate(18.2 14.3)" fill="#0e0e0f"/>
          <circle id="Elipse_11889" data-name="Elipse 11889" cx="1.2" cy="1.2" r="1.2" transform="translate(24.8 22.1)" fill="#0e0e0f"/>
          <path id="Trazado_917937" data-name="Trazado 917937" d="M24.1,32.3a1.268,1.268,0,0,1-.6-.1L5.8,22.9A1.253,1.253,0,0,1,7,20.7l17.2,9L44.4,19.1,24.6,8.8a.908.908,0,0,0-1,0L3.1,19.6a.781.781,0,0,0-.4.4,1.276,1.276,0,0,1-1.7.4,1.276,1.276,0,0,1-.4-1.7A3.483,3.483,0,0,1,2,17.4L22.4,6.6a3.817,3.817,0,0,1,3.3,0L46.3,17.3a3.531,3.531,0,0,1,1.4,1.3,1.147,1.147,0,0,1,.1,1,1.057,1.057,0,0,1-.6.7L24.7,32.2a1.268,1.268,0,0,1-.6.1Z" fill="#0e0e0f"/>
        </g>
      </g>
    </g>
  </g>
</svg>
