<svg xmlns="http://www.w3.org/2000/svg" xmlns:xlink="http://www.w3.org/1999/xlink" width="118" height="118" viewBox="0 0 118 118">
  <defs>
    <filter id="Trazado_874925" x="0" y="0" width="118" height="118" filterUnits="userSpaceOnUse">
      <feOffset dy="3" input="SourceAlpha"/>
      <feGaussianBlur stdDeviation="3" result="blur"/>
      <feFlood flood-opacity="0.161"/>
      <feComposite operator="in" in2="blur"/>
      <feComposite in="SourceGraphic"/>
    </filter>
  </defs>
  <g id="Grupo_1123404" data-name="Grupo 1123404" transform="translate(-3810 10231.72)">
    <g id="Grupo_1111553" data-name="Grupo 1111553" transform="translate(3010.5 -12742.877)">
      <g id="Grupo_1111316" data-name="Grupo 1111316" transform="translate(808.5 2517.157)">
        <g id="Grupo_1109835" data-name="Grupo 1109835" transform="translate(0 0)">
          <g id="Grupo_1107913" data-name="Grupo 1107913" transform="translate(0 0)">
            <g transform="matrix(1, 0, 0, 1, -9, -6)" filter="url(#Trazado_874925)">
              <g id="Trazado_874925-2" data-name="Trazado 874925" transform="translate(9 6)" fill="#bb965f" opacity="0.859">
                <path d="M 49.99972534179688 98.4998779296875 C 43.45164108276367 98.4998779296875 37.10022354125977 97.21776580810547 31.12189674377441 94.68914794921875 C 25.34676742553711 92.24647521972656 20.15985298156738 88.74925994873047 15.70523929595947 84.29464721679688 C 11.25062561035156 79.84004974365234 7.753411293029785 74.65313720703125 5.310725212097168 68.87800598144531 C 2.782111167907715 62.89969253540039 1.499996781349182 56.54829406738281 1.499996781349182 50.00022125244141 C 1.499996781349182 43.45157623291016 2.782111167907715 37.10017776489258 5.310725212097168 31.12186431884766 C 7.753411293029785 25.34673500061035 11.25062561035156 20.15983581542969 15.70523929595947 15.70522117614746 C 20.15985298156738 11.25062084197998 25.34676742553711 7.753406524658203 31.12189674377441 5.31073522567749 C 37.10022354125977 2.782120943069458 43.45164108276367 1.500006556510925 49.99972534179688 1.500006556510925 C 56.54780960083008 1.500006556510925 62.89922714233398 2.782120943069458 68.87755584716797 5.31073522567749 C 74.65267944335938 7.753406524658203 79.839599609375 11.25062084197998 84.29421234130859 15.70522117614746 C 88.74882507324219 20.15983581542969 92.24604034423828 25.34673500061035 94.68872833251953 31.12186431884766 C 97.21733856201172 37.10017776489258 98.49945068359375 43.45157623291016 98.49945068359375 49.99964904785156 C 98.49945068359375 56.54829406738281 97.21733856201172 62.89969253540039 94.68872833251953 68.87800598144531 C 92.24604034423828 74.65313720703125 88.74882507324219 79.84004974365234 84.29421234130859 84.29464721679688 C 79.839599609375 88.74925994873047 74.65267944335938 92.24647521972656 68.87755584716797 94.68914794921875 C 62.89922714233398 97.21776580810547 56.54780960083008 98.4998779296875 49.99972534179688 98.4998779296875 Z" stroke="none"/>
                <path d="M 49.99972534179688 3 C 43.65348052978516 3 37.49866485595703 4.242240905761719 31.70623016357422 6.692230224609375 C 26.10989379882812 9.059272766113281 21.08323669433594 12.44853210449219 16.76589202880859 16.76587677001953 C 12.44855499267578 21.08321380615234 9.059295654296875 26.10985565185547 6.692230224609375 31.70618438720703 C 4.24224853515625 37.49859619140625 3 43.65341186523438 3 50.00022888183594 C 3 56.34645843505859 4.24224853515625 62.50127410888672 6.692230224609375 68.29368591308594 C 9.059295654296875 73.8900146484375 12.44855499267578 78.91665649414062 16.76589202880859 83.23399353027344 C 21.08323669433594 87.55132293701172 26.10989379882812 90.94059753417969 31.70623016357422 93.30764007568359 C 37.49866485595703 95.75762939453125 43.65348052978516 96.99987030029297 49.99972534179688 96.99987030029297 C 56.34597015380859 96.99987030029297 62.50078582763672 95.75762939453125 68.293212890625 93.30764007568359 C 73.88955688476562 90.94059753417969 78.91621398925781 87.55132293701172 83.23355865478516 83.23399353027344 C 87.55089569091797 78.91665649414062 90.94015502929688 73.8900146484375 93.30722045898438 68.29368591308594 C 95.7572021484375 62.50127410888672 96.99945068359375 56.34645843505859 96.99945068359375 49.99964141845703 C 96.99945068359375 43.65341186523438 95.7572021484375 37.49859619140625 93.30722045898438 31.70618438720703 C 90.94015502929688 26.10985565185547 87.55089569091797 21.08321380615234 83.23355865478516 16.76587677001953 C 78.91621398925781 12.44853210449219 73.88955688476562 9.059272766113281 68.293212890625 6.692230224609375 C 62.50078582763672 4.242240905761719 56.34597015380859 3 49.99972534179688 3 M 49.99972534179688 0 C 77.61381530761719 0 99.99945068359375 22.38559722900391 99.99945068359375 49.99964141845703 L 99.99945068359375 50.00022888183594 C 99.99945068359375 77.6142578125 77.61381530761719 99.99987030029297 49.99972534179688 99.99987030029297 C 22.38563537597656 99.99987030029297 0 77.6142578125 0 50.00022888183594 L 0 49.99964141845703 C 0 22.38559722900391 22.38563537597656 0 49.99972534179688 0 Z" stroke="none" fill="#fff"/>
              </g>
            </g>
            <g id="Trazado_874923" data-name="Trazado 874923" transform="translate(0 0)" fill="none">
              <path d="M50,0a50,50,0,0,1,50,50h0A50,50,0,0,1,0,50H0A50,50,0,0,1,50,0Z" stroke="none"/>
              <path d="M 49.99972534179688 3 C 43.65348052978516 3 37.49866485595703 4.242240905761719 31.70623016357422 6.692230224609375 C 26.10989379882812 9.059272766113281 21.08323669433594 12.44853210449219 16.76589202880859 16.76587677001953 C 12.44855499267578 21.08321380615234 9.059295654296875 26.10985565185547 6.692230224609375 31.70618438720703 C 4.24224853515625 37.49859619140625 3 43.65341186523438 3 50.00022888183594 C 3 56.34645843505859 4.24224853515625 62.50127410888672 6.692230224609375 68.29368591308594 C 9.059295654296875 73.8900146484375 12.44855499267578 78.91665649414062 16.76589202880859 83.23399353027344 C 21.08323669433594 87.55132293701172 26.10989379882812 90.94059753417969 31.70623016357422 93.30764007568359 C 37.49866485595703 95.75762939453125 43.65348052978516 96.99987030029297 49.99972534179688 96.99987030029297 C 56.34597015380859 96.99987030029297 62.50078582763672 95.75762939453125 68.293212890625 93.30764007568359 C 73.88955688476562 90.94059753417969 78.91621398925781 87.55132293701172 83.23355865478516 83.23399353027344 C 87.55089569091797 78.91665649414062 90.94015502929688 73.8900146484375 93.30722045898438 68.29368591308594 C 95.7572021484375 62.50127410888672 96.99945068359375 56.34645843505859 96.99945068359375 49.99964141845703 C 96.99945068359375 43.65341186523438 95.7572021484375 37.49859619140625 93.30722045898438 31.70618438720703 C 90.94015502929688 26.10985565185547 87.55089569091797 21.08321380615234 83.23355865478516 16.76587677001953 C 78.91621398925781 12.44853210449219 73.88955688476562 9.059272766113281 68.293212890625 6.692230224609375 C 62.50078582763672 4.242240905761719 56.34597015380859 3 49.99972534179688 3 M 49.99972534179688 0 C 77.61381530761719 0 99.99945068359375 22.38559722900391 99.99945068359375 49.99964141845703 L 99.99945068359375 50.00022888183594 C 99.99945068359375 77.6142578125 77.61381530761719 99.99987030029297 49.99972534179688 99.99987030029297 C 22.38563537597656 99.99987030029297 0 77.6142578125 0 50.00022888183594 L 0 49.99964141845703 C 0 22.38559722900391 22.38563537597656 0 49.99972534179688 0 Z" stroke="none" fill="#fff"/>
            </g>
          </g>
        </g>
      </g>
    </g>
    <g id="_17-Test_Tube" data-name="17-Test Tube" transform="translate(3837 -10208)">
      <path id="Trazado_920010" data-name="Trazado 920010" d="M28,7H24a6,6,0,0,1-6-6h4a6,6,0,0,1,5.91,5.01A5.361,5.361,0,0,1,28,7Z" fill="#d2eb5a"/>
      <path id="Trazado_920011" data-name="Trazado 920011" d="M27.648,5H24a6,6,0,0,1-5.65-4H18a6,6,0,0,0,6,6h4a5.361,5.361,0,0,0-.09-.99A5.966,5.966,0,0,0,27.648,5Z" fill="#c3dc4b"/>
      <path id="Trazado_920012" data-name="Trazado 920012" d="M36,7a5.362,5.362,0,0,1,.09-.99A6,6,0,0,1,42,1h4a6,6,0,0,1-6,6Z" fill="#d2eb5a"/>
      <path id="Trazado_920013" data-name="Trazado 920013" d="M40,5H36.352a5.966,5.966,0,0,0-.262,1.01A5.361,5.361,0,0,0,36,7h4a6,6,0,0,0,6-6h-.35A6,6,0,0,1,40,5Z" fill="#c3dc4b"/>
      <path id="Trazado_920014" data-name="Trazado 920014" d="M27,20H19a8,8,0,0,1-8-8h8a8,8,0,0,1,7.94,7.011A8.1,8.1,0,0,1,27,20Z" fill="#b4d241"/>
      <path id="Trazado_920015" data-name="Trazado 920015" d="M26.74,18H21a7.994,7.994,0,0,1-7.738-6H11a8,8,0,0,0,8,8h8a7.5,7.5,0,0,0-.26-2Z" fill="#a0be28"/>
      <path id="Trazado_920016" data-name="Trazado 920016" d="M37,20a8.1,8.1,0,0,1,.06-.99A8,8,0,0,1,45,12h8a8,8,0,0,1-8,8Z" fill="#b4d241"/>
      <path id="Trazado_920017" data-name="Trazado 920017" d="M50.738,12A7.994,7.994,0,0,1,43,18H37.26A7.5,7.5,0,0,0,37,20h8a8,8,0,0,0,8-8Z" fill="#a0be28"/>
      <path id="Trazado_920018" data-name="Trazado 920018" d="M40,20l-6,6v5H30V26l-6-6h3a8.1,8.1,0,0,0-.06-.99L27,19l3,3V11L26,7h2a5.361,5.361,0,0,0-.09-.99L28,6l4,3,4-3,.09.01A5.361,5.361,0,0,0,36,7h2l-4,4V22l3-3,.06.01A8.1,8.1,0,0,0,37,20Z" fill="#966857"/>
      <g id="Grupo_1123403" data-name="Grupo 1123403">
        <path id="Trazado_920019" data-name="Trazado 920019" d="M34,24v2l6-6H38Z" fill="#8d5c4d"/>
        <path id="Trazado_920020" data-name="Trazado 920020" d="M34,11l4-4H36L34,9Z" fill="#8d5c4d"/>
        <path id="Trazado_920021" data-name="Trazado 920021" d="M30,29h4v2H30Z" fill="#8d5c4d"/>
        <path id="Trazado_920022" data-name="Trazado 920022" d="M30,24l-4-4H24l6,6Z" fill="#8d5c4d"/>
      </g>
      <circle id="Elipse_11981" data-name="Elipse 11981" cx="2" cy="2" r="2" transform="translate(6 25)" fill="#cdebfc"/>
      <circle id="Elipse_11982" data-name="Elipse 11982" cx="2" cy="2" r="2" transform="translate(47 26)" fill="#cdebfc"/>
      <circle id="Elipse_11983" data-name="Elipse 11983" cx="2" cy="2" r="2" transform="translate(16 29)" fill="#8bc8e8"/>
      <circle id="Elipse_11984" data-name="Elipse 11984" cx="2" cy="2" r="2" transform="translate(57 18)" fill="#8bc8e8"/>
      <path id="Trazado_920023" data-name="Trazado 920023" d="M22,37V52.67l-3.85,6.42L18,59H6a2.006,2.006,0,0,1-2-2V40L1,37Z" fill="#8bc8e8"/>
      <path id="Trazado_920024" data-name="Trazado 920024" d="M20,37V52.67L16.2,59H18l.15.09L22,52.67V37Z" fill="#68a8d4"/>
      <path id="Trazado_920025" data-name="Trazado 920025" d="M63,37l-3,3V57a2.006,2.006,0,0,1-2,2H46l-.15.09L42,52.67V37Z" fill="#8bc8e8"/>
      <path id="Trazado_920026" data-name="Trazado 920026" d="M44,52.67V37H42V52.67l3.85,6.42L46,59h1.8Z" fill="#68a8d4"/>
      <path id="Trazado_920027" data-name="Trazado 920027" d="M37,30v4H27V30Z" fill="#8bc8e8"/>
      <path id="Trazado_920028" data-name="Trazado 920028" d="M29,30H27v4H37V32H31A2,2,0,0,1,29,30Z" fill="#7ebbe0"/>
      <path id="Trazado_920029" data-name="Trazado 920029" d="M22,52.67,29,41V34h6v7l7,11.67,3.85,6.42L47,61a1.959,1.959,0,0,1-2,2H19a1.959,1.959,0,0,1-2-2l1.15-1.91Z" fill="#e1f1fa"/>
      <path id="Trazado_920030" data-name="Trazado 920030" d="M45.85,59.09,42,52.67,35,41V34H33v7l7,11.67,3.85,6.42L45,61a1.959,1.959,0,0,1-2,2h2a1.959,1.959,0,0,0,2-2Z" fill="#bde6fc"/>
      <path id="Trazado_920031" data-name="Trazado 920031" d="M19,61l1.15-1.91L24,52.67,31,41V34H29v7L22,52.67l-3.85,6.42L17,61a1.959,1.959,0,0,0,2,2h2a1.959,1.959,0,0,1-2-2Z" fill="#f5fafc"/>
      <path id="Trazado_920032" data-name="Trazado 920032" d="M37,35H27a1,1,0,0,1-1-1V30a1,1,0,0,1,1-1H37a1,1,0,0,1,1,1v4A1,1,0,0,1,37,35Zm-9-2h8V31H28Z"/>
      <path id="Trazado_920033" data-name="Trazado 920033" d="M27,21H19a9.01,9.01,0,0,1-9-9,1,1,0,0,1,1-1h8a9.01,9.01,0,0,1,9,9,1,1,0,0,1-1,1ZM12.071,13A7.011,7.011,0,0,0,19,19h6.929A7.011,7.011,0,0,0,19,13Z"/>
      <path id="Trazado_920034" data-name="Trazado 920034" d="M45,21H37a1,1,0,0,1-1-1,9.01,9.01,0,0,1,9-9h8a1,1,0,0,1,1,1A9.01,9.01,0,0,1,45,21Zm-6.929-2H45a7.011,7.011,0,0,0,6.929-6H45A7.011,7.011,0,0,0,38.071,19Z"/>
      <path id="Trazado_920035" data-name="Trazado 920035" d="M28,8H24a7.008,7.008,0,0,1-7-7,1,1,0,0,1,1-1h4a7.008,7.008,0,0,1,7,7A1,1,0,0,1,28,8ZM19.1,2A5.008,5.008,0,0,0,24,6h2.9A5.008,5.008,0,0,0,22,2Z"/>
      <path id="Trazado_920036" data-name="Trazado 920036" d="M40,8H36a1,1,0,0,1-1-1,7.008,7.008,0,0,1,7-7h4a1,1,0,0,1,1,1A7.008,7.008,0,0,1,40,8ZM37.1,6H40a5.008,5.008,0,0,0,4.9-4H42A5.008,5.008,0,0,0,37.1,6Z"/>
      <path id="Trazado_920037" data-name="Trazado 920037" d="M30,23a1,1,0,0,1-.707-.293l-3-3,1.414-1.414L29,19.586V11.414L25.293,7.707l1.414-1.414,4,4A1,1,0,0,1,31,11V22a1,1,0,0,1-1,1Z"/>
      <path id="Trazado_920038" data-name="Trazado 920038" d="M34,23a1,1,0,0,1-1-1V11a1,1,0,0,1,.293-.707l4-4,1.414,1.414L35,11.414v8.172l1.293-1.293,1.414,1.414-3,3A1,1,0,0,1,34,23Z"/>
      <path id="Trazado_920039" data-name="Trazado 920039" d="M31,30H29V26.414l-5.707-5.707,1.414-1.414,6,6A1,1,0,0,1,31,26Z"/>
      <path id="Trazado_920040" data-name="Trazado 920040" d="M35,30H33V26a1,1,0,0,1,.293-.707l6-6,1.414,1.414L35,26.414Z"/>
      <path id="Trazado_920041" data-name="Trazado 920041" d="M32,10a1,1,0,0,1-.6-.2l-4-3,1.2-1.6L32,7.75,35.4,5.2l1.2,1.6-4,3a1,1,0,0,1-.6.2Z"/>
      <path id="Trazado_920042" data-name="Trazado 920042" d="M45,64H19a2.916,2.916,0,0,1-3-3,1,1,0,0,1,.143-.515L28,40.723V34h2v7a1,1,0,0,1-.143.515L18.023,61.237A.878.878,0,0,0,19,62H45a.877.877,0,0,0,.976-.764L34.143,41.515A1,1,0,0,1,34,41V34h2v6.723L47.857,60.485A1,1,0,0,1,48,61a2.916,2.916,0,0,1-3,3Z"/>
      <path id="Trazado_920043" data-name="Trazado 920043" d="M58,60H46V58H58a1,1,0,0,0,1-1V40a1,1,0,0,1,.293-.707L60.586,38H43V53H41V37a1,1,0,0,1,1-1H63a1,1,0,0,1,.707,1.707L61,40.414V57A3,3,0,0,1,58,60Z"/>
      <path id="Trazado_920044" data-name="Trazado 920044" d="M18,60H6a3,3,0,0,1-3-3V40.414L.293,37.707A1,1,0,0,1,1,36H22a1,1,0,0,1,1,1V53H21V38H3.414l1.293,1.293A1,1,0,0,1,5,40V57a1,1,0,0,0,1,1H18Z"/>
      <path id="Trazado_920045" data-name="Trazado 920045" d="M4,42H7v2H4Z"/>
      <path id="Trazado_920046" data-name="Trazado 920046" d="M4,50H7v2H4Z"/>
      <path id="Trazado_920047" data-name="Trazado 920047" d="M4,46H9v2H4Z"/>
      <path id="Trazado_920048" data-name="Trazado 920048" d="M4,54H9v2H4Z"/>
      <path id="Trazado_920049" data-name="Trazado 920049" d="M57,42h3v2H57Z"/>
      <path id="Trazado_920050" data-name="Trazado 920050" d="M57,50h3v2H57Z"/>
      <path id="Trazado_920051" data-name="Trazado 920051" d="M55,46h5v2H55Z"/>
      <path id="Trazado_920052" data-name="Trazado 920052" d="M55,54h5v2H55Z"/>
      <path id="Trazado_920053" data-name="Trazado 920053" d="M8,30a3,3,0,1,1,3-3A3,3,0,0,1,8,30Zm0-4a1,1,0,1,0,1,1A1,1,0,0,0,8,26Z"/>
      <path id="Trazado_920054" data-name="Trazado 920054" d="M18,34a3,3,0,1,1,3-3A3,3,0,0,1,18,34Zm0-4a1,1,0,1,0,1,1A1,1,0,0,0,18,30Z"/>
      <path id="Trazado_920055" data-name="Trazado 920055" d="M59,23a3,3,0,1,1,3-3,3,3,0,0,1-3,3Zm0-4a1,1,0,1,0,1,1A1,1,0,0,0,59,19Z"/>
      <path id="Trazado_920056" data-name="Trazado 920056" d="M49,31a3,3,0,1,1,3-3,3,3,0,0,1-3,3Zm0-4a1,1,0,1,0,1,1A1,1,0,0,0,49,27Z"/>
      <path id="Trazado_920057" data-name="Trazado 920057" d="M22.234,56h2.332v2H22.234Z" transform="matrix(0.515, -0.857, 0.857, 0.515, -37.515, 47.729)"/>
      <path id="Trazado_920058" data-name="Trazado 920058" d="M22.169,48.333H33.831v2H22.169Z" transform="matrix(0.515, -0.857, 0.857, 0.515, -28.708, 47.952)"/>
    </g>
  </g>
</svg>
