<svg xmlns="http://www.w3.org/2000/svg" xmlns:xlink="http://www.w3.org/1999/xlink" width="71" height="71" viewBox="0 0 71 71">
  <defs>
    <clipPath id="clip-path">
      <circle id="Elipse_11902" data-name="Elipse 11902" cx="35.5" cy="35.5" r="35.5" transform="translate(719 2033)" fill="#6b9339"/>
    </clipPath>
  </defs>
  <g id="Grupo_1120160" data-name="Grupo 1120160" transform="translate(-719 -2033)">
    <circle id="Elipse_11675" data-name="Elipse 11675" cx="35.5" cy="35.5" r="35.5" transform="translate(719 2033)" fill="#6b9339"/>
    <g id="Enmascarar_grupo_1098794" data-name="Enmascarar grupo 1098794" clip-path="url(#clip-path)">
      <g id="Grupo_1120159" data-name="Grupo 1120159" transform="translate(687.334 1986)">
        <path id="Trazado_918077" data-name="Trazado 918077" d="M261.942,202.636l-7.754-9.517a3.04,3.04,0,0,0-4.714,0l-39.1,47.991h51.572Z" transform="translate(-159.276 -124.556)" fill="#02c26a"/>
        <path id="Trazado_918078" data-name="Trazado 918078" d="M120,287l30.865-37.88a3.04,3.04,0,0,1,4.714,0L186.444,287Z" transform="translate(-85.222 -170.444)" fill="#08d175"/>
        <path id="Trazado_918079" data-name="Trazado 918079" d="M88,80h23.111v63.556H88Z" transform="translate(-59 -32.778)" fill="#548aff"/>
        <path id="Trazado_918080" data-name="Trazado 918080" d="M183.778,327.222,179.444,320H152v7.222Z" transform="translate(-111.444 -229.444)" fill="#91c0ff"/>
        <path id="Trazado_918081" data-name="Trazado 918081" d="M152,360h31.778v18.778H152Z" transform="translate(-111.444 -262.222)" fill="#639aff"/>
        <path id="Trazado_918082" data-name="Trazado 918082" d="M41.92,306.778a2.3,2.3,0,0,0,2.021-3.4l-7.694-14.106a2.433,2.433,0,0,0-4.272,0l-7.694,14.106a2.3,2.3,0,0,0,2.021,3.4Z" transform="translate(-6.556 -203.222)" fill="#00b55b"/>
        <path id="Trazado_918083" data-name="Trazado 918083" d="M126.444,324.107a2.337,2.337,0,0,0-.247-1.045l-4.885-9.77a2.337,2.337,0,0,0-4.181,0l-4.885,9.77a2.337,2.337,0,0,0,2.09,3.382h9.77a2.337,2.337,0,0,0,2.337-2.337Z" transform="translate(-78.667 -222.889)" fill="#08d175"/>
        <path id="Trazado_918084" data-name="Trazado 918084" d="M57.222,437.778,54.333,432H26.889L24,437.778Z" transform="translate(-6.556 -321.222)" fill="#e8f2ff"/>
        <path id="Trazado_918085" data-name="Trazado 918085" d="M264,424h5.778v7.222H264Z" transform="translate(-203.222 -314.667)" fill="#548aff"/>
        <path id="Trazado_918086" data-name="Trazado 918086" d="M74.889,53.778,72,48h28.889L98,53.778Z" transform="translate(-45.889 -6.556)" fill="#7dafff"/>
        <path id="Trazado_918087" data-name="Trazado 918087" d="M19.746,301.667h6.365V306H20.333a1.444,1.444,0,0,0-1.292.8l-2.889,5.778a1.444,1.444,0,0,0,1.292,2.09H50.667a1.444,1.444,0,0,0,1.292-2.09L49.07,306.8a1.444,1.444,0,0,0-1.292-.8H42v-4.333h3.441a3.781,3.781,0,0,0,3.382-5.473l-4.885-9.77a3.782,3.782,0,0,0-6.765,0L35.35,290.07l-4.39-8.049a3.878,3.878,0,0,0-6.808,0l-7.694,14.106a3.746,3.746,0,0,0,3.289,5.54Zm28.583,10.111H19.782l1.444-2.889H46.885ZM39.111,306H29v-4.333H39.111Zm.646-18.284a.893.893,0,0,1,1.6,0l4.885,9.77a.893.893,0,0,1-.8,1.292H42v-4.333H39.111v4.333H35.67a.893.893,0,0,1-.8-1.292ZM18.994,297.51,26.687,283.4a.989.989,0,0,1,1.736,0l5.353,9.813-1.488,2.976A3.736,3.736,0,0,0,32,298.778H29v-3.56l3.69-2.46-1.6-2.4L29,291.746v-3.079H26.111v7.412l-2.088-1.392-1.6,2.4,2.531,1.687H19.746a.858.858,0,0,1-.753-1.268Z" transform="translate(0 -196.667)"/>
        <path id="Trazado_918088" data-name="Trazado 918088" d="M224,384h2.889v2.889H224Z" transform="translate(-170.444 -281.889)"/>
        <path id="Trazado_918089" data-name="Trazado 918089" d="M224,416h2.889v2.889H224Z" transform="translate(-170.444 -308.111)"/>
        <path id="Trazado_918090" data-name="Trazado 918090" d="M256,384h2.889v2.889H256Z" transform="translate(-196.667 -281.889)"/>
        <path id="Trazado_918091" data-name="Trazado 918091" d="M288,384h2.889v2.889H288Z" transform="translate(-222.889 -281.889)"/>
        <path id="Trazado_918092" data-name="Trazado 918092" d="M112,168h2.889v2.889H112Z" transform="translate(-78.667 -104.889)"/>
        <path id="Trazado_918093" data-name="Trazado 918093" d="M144,168h2.889v2.889H144Z" transform="translate(-104.889 -104.889)"/>
        <path id="Trazado_918094" data-name="Trazado 918094" d="M176,168h2.889v2.889H176Z" transform="translate(-131.111 -104.889)"/>
        <path id="Trazado_918095" data-name="Trazado 918095" d="M112,136h2.889v2.889H112Z" transform="translate(-78.667 -78.667)"/>
        <path id="Trazado_918096" data-name="Trazado 918096" d="M144,136h2.889v2.889H144Z" transform="translate(-104.889 -78.667)"/>
        <path id="Trazado_918097" data-name="Trazado 918097" d="M176,136h2.889v2.889H176Z" transform="translate(-131.111 -78.667)"/>
        <path id="Trazado_918098" data-name="Trazado 918098" d="M112,104h2.889v2.889H112Z" transform="translate(-78.667 -52.444)"/>
        <path id="Trazado_918099" data-name="Trazado 918099" d="M144,104h2.889v2.889H144Z" transform="translate(-104.889 -52.444)"/>
        <path id="Trazado_918100" data-name="Trazado 918100" d="M176,104h2.889v2.889H176Z" transform="translate(-131.111 -52.444)"/>
        <path id="Trazado_918101" data-name="Trazado 918101" d="M112,200h2.889v2.889H112Z" transform="translate(-78.667 -131.111)"/>
        <path id="Trazado_918102" data-name="Trazado 918102" d="M144,200h2.889v2.889H144Z" transform="translate(-104.889 -131.111)"/>
        <path id="Trazado_918103" data-name="Trazado 918103" d="M176,200h2.889v2.889H176Z" transform="translate(-131.111 -131.111)"/>
        <path id="Trazado_918104" data-name="Trazado 918104" d="M112,232h2.889v2.889H112Z" transform="translate(-78.667 -157.333)"/>
        <path id="Trazado_918105" data-name="Trazado 918105" d="M144,232h2.889v2.889H144Z" transform="translate(-104.889 -157.333)"/>
        <path id="Trazado_918106" data-name="Trazado 918106" d="M176,232h2.889v2.889H176Z" transform="translate(-131.111 -157.333)"/>
        <path id="Trazado_918107" data-name="Trazado 918107" d="M112,264h2.889v2.889H112Z" transform="translate(-78.667 -183.556)"/>
        <path id="Trazado_918108" data-name="Trazado 918108" d="M144,264h2.889v2.889H144Z" transform="translate(-104.889 -183.556)"/>
        <path id="Trazado_918109" data-name="Trazado 918109" d="M176,264h2.889v2.889H176Z" transform="translate(-131.111 -183.556)"/>
        <path id="Trazado_918110" data-name="Trazado 918110" d="M66.889,47.563V81.889h2.889V48.667H90V89.111H87.111V92h19.4l2.6,4.333H90v2.889h20.222v15.889h-2.889v-5.778a1.444,1.444,0,0,0-1.444-1.444h-5.778a1.444,1.444,0,0,0-1.444,1.444v5.778H94.333V118h17.333a1.444,1.444,0,0,0,1.444-1.444V97.778a1.435,1.435,0,0,0-.207-.742h0l-4.333-7.222a1.444,1.444,0,0,0-1.239-.7H92.889V47.563l2.736-5.473A1.444,1.444,0,0,0,94.333,40H65.444a1.444,1.444,0,0,0-1.292,2.09Zm34.667,67.548v-4.333h2.889v4.333ZM92,42.889l-1.444,2.889H69.226l-1.444-2.889Z" transform="translate(-39.333)"/>
        <path id="Trazado_918111" data-name="Trazado 918111" d="M258.348,197.588a1.6,1.6,0,0,1,2.474,0l28.945,35.523H268.251V236h24.556a1.444,1.444,0,0,0,1.12-2.357L269.606,203.8l13.3-16.319a1.6,1.6,0,0,1,2.474,0l6.31,7.744,2.239-1.825-6.31-7.744a4.485,4.485,0,0,0-6.953,0l-12.921,15.857-4.682-5.746a4.485,4.485,0,0,0-6.953,0l-6.31,7.744,2.24,1.825Z" transform="translate(-191.585 -118)"/>
      </g>
    </g>
  </g>
</svg>
