<svg xmlns="http://www.w3.org/2000/svg" width="71" height="71" viewBox="0 0 71 71">
  <g id="Grupo_1123520" data-name="Grupo 1123520" transform="translate(-214.075 -3412)">
    <circle id="Elipse_11678" data-name="Elipse 11678" cx="35.5" cy="35.5" r="35.5" transform="translate(214.075 3412)" fill="#4c6929"/>
    <g id="Grupo_1123519" data-name="Grupo 1123519" transform="translate(219.575 3414.499)">
      <g id="Icons">
        <path id="Trazado_920359" data-name="Trazado 920359" d="M39.76,12H53a6,6,0,0,1,6,6V46a6,6,0,0,1-6,6H38.83a2.006,2.006,0,0,0-1.42.59l-6,5.82a1.974,1.974,0,0,1-2.82,0l-6-5.82A2.006,2.006,0,0,0,21.17,52H7a6,6,0,0,1-6-6V18a6,6,0,0,1,6-6Z" fill="#ffdf00"/>
        <path id="Trazado_920360" data-name="Trazado 920360" d="M34.41,52.59,28.5,58.323l.09.087a1.974,1.974,0,0,0,2.82,0l6-5.82A2.006,2.006,0,0,1,38.83,52h-3A2.006,2.006,0,0,0,34.41,52.59Z" fill="#fec108"/>
        <path id="Trazado_920361" data-name="Trazado 920361" d="M53,12H50a6,6,0,0,1,6,6V46a6,6,0,0,1-6,6h3a6,6,0,0,0,6-6V18a6,6,0,0,0-6-6Z" fill="#fec108"/>
        <path id="Trazado_920362" data-name="Trazado 920362" d="M48.2,25.238,34.24,3.329a5.024,5.024,0,0,0-8.48,0L11.8,25.238A5.046,5.046,0,0,0,16.04,33H43.96a5.046,5.046,0,0,0,4.24-7.762Z" fill="#f44335"/>
        <path id="Trazado_920363" data-name="Trazado 920363" d="M48.2,25.239,34.24,3.329A5.01,5.01,0,0,0,28.5,1.236a4.957,4.957,0,0,1,2.74,2.093L45.2,25.239A5.045,5.045,0,0,1,40.96,33h3a5.045,5.045,0,0,0,4.24-7.761Z" fill="#c81e1e"/>
        <g id="Grupo_1123518" data-name="Grupo 1123518">
          <path id="Trazado_920364" data-name="Trazado 920364" d="M33,10c0,1.657-1.343,11-3,11s-3-9.343-3-11a3,3,0,1,1,6,0Z" fill="#ffdf00"/>
          <circle id="Elipse_12024" data-name="Elipse 12024" cx="2" cy="2" r="2" transform="translate(28 25)" fill="#ffdf00"/>
        </g>
      </g>
      <g id="Icons_copy" data-name="Icons copy">
        <path id="Trazado_920365" data-name="Trazado 920365" d="M53,11H40.314l-5.23-8.208a6.025,6.025,0,0,0-10.168,0L19.686,11H7a7.009,7.009,0,0,0-7,7V46a7.009,7.009,0,0,0,7,7H21.17a1.012,1.012,0,0,1,.724.308l5.984,5.805a2.973,2.973,0,0,0,4.228.015L38.117,53.3a1,1,0,0,1,.713-.3H53a7.009,7.009,0,0,0,7-7V18a7.009,7.009,0,0,0-7-7ZM26.6,3.866a4.023,4.023,0,0,1,6.792,0l13.96,21.909A4.046,4.046,0,0,1,43.96,32H16.04a4.046,4.046,0,0,1-3.4-6.225ZM58,46a5.006,5.006,0,0,1-5,5H38.83a2.976,2.976,0,0,0-2.116.872L30.7,57.707a.988.988,0,0,1-1.412-.015L23.3,51.883A2.985,2.985,0,0,0,21.17,51H7a5.006,5.006,0,0,1-5-5V18a5.006,5.006,0,0,1,5-5H18.412L10.956,24.7A6.047,6.047,0,0,0,16.04,34H43.96a6.047,6.047,0,0,0,5.084-9.3L41.588,13H53a5.006,5.006,0,0,1,5,5Z"/>
        <path id="Trazado_920366" data-name="Trazado 920366" d="M30,22c3.134,0,4-11.88,4-12a4,4,0,1,0-8,0C26,10.12,26.866,22,30,22ZM30,8a2,2,0,0,1,2,2c0,1.732-1.051,8.022-2,9.724-.949-1.7-2-7.992-2-9.724a2,2,0,0,1,2-2Z"/>
        <path id="Trazado_920367" data-name="Trazado 920367" d="M30,24a3,3,0,1,0,3,3A3,3,0,0,0,30,24Zm0,4a1,1,0,1,1,1-1A1,1,0,0,1,30,28Z"/>
        <path id="Trazado_920368" data-name="Trazado 920368" d="M44,36H16a1,1,0,0,0,0,2H44a1,1,0,0,0,0-2Z"/>
        <path id="Trazado_920369" data-name="Trazado 920369" d="M16,43H26a1,1,0,0,0,0-2H16a1,1,0,0,0,0,2Z"/>
        <path id="Trazado_920370" data-name="Trazado 920370" d="M44,41H30a1,1,0,0,0,0,2H44a1,1,0,0,0,0-2Z"/>
        <path id="Trazado_920371" data-name="Trazado 920371" d="M44,46H16a1,1,0,0,0,0,2H44a1,1,0,0,0,0-2Z"/>
      </g>
    </g>
  </g>
</svg>
