<svg xmlns="http://www.w3.org/2000/svg" xmlns:xlink="http://www.w3.org/1999/xlink" width="117.999" height="118" viewBox="0 0 117.999 118">
  <defs>
    <filter id="Trazado_874925" x="0" y="0" width="117.999" height="118" filterUnits="userSpaceOnUse">
      <feOffset dy="3" input="SourceAlpha"/>
      <feGaussianBlur stdDeviation="3" result="blur"/>
      <feFlood flood-opacity="0.161"/>
      <feComposite operator="in" in2="blur"/>
      <feComposite in="SourceGraphic"/>
    </filter>
  </defs>
  <g id="Grupo_1123320" data-name="Grupo 1123320" transform="translate(-795.051 -15271.451)">
    <g id="Grupo_1111552" data-name="Grupo 1111552" transform="translate(-4.449 12760.294)">
      <g id="Grupo_1111316" data-name="Grupo 1111316" transform="translate(808.5 2517.157)">
        <g id="Grupo_1109835" data-name="Grupo 1109835" transform="translate(0 0)">
          <g id="Grupo_1107913" data-name="Grupo 1107913" transform="translate(0 0)">
            <g transform="matrix(1, 0, 0, 1, -9, -6)" filter="url(#Trazado_874925)">
              <g id="Trazado_874925-2" data-name="Trazado 874925" transform="translate(9 6)" fill="#bb965f" opacity="0.859">
                <path d="M 49.99972534179688 98.4998779296875 C 43.45164108276367 98.4998779296875 37.10022354125977 97.21776580810547 31.12189674377441 94.68914794921875 C 25.34676742553711 92.24647521972656 20.15985298156738 88.74925994873047 15.70523929595947 84.29464721679688 C 11.25062561035156 79.84004974365234 7.753411293029785 74.65313720703125 5.310725212097168 68.87800598144531 C 2.782111167907715 62.89969253540039 1.499996781349182 56.54829406738281 1.499996781349182 50.00022125244141 C 1.499996781349182 43.45157623291016 2.782111167907715 37.10017776489258 5.310725212097168 31.12186431884766 C 7.753411293029785 25.34673500061035 11.25062561035156 20.15983581542969 15.70523929595947 15.70522117614746 C 20.15985298156738 11.25062084197998 25.34676742553711 7.753406524658203 31.12189674377441 5.31073522567749 C 37.10022354125977 2.782120943069458 43.45164108276367 1.500006556510925 49.99972534179688 1.500006556510925 C 56.54780960083008 1.500006556510925 62.89922714233398 2.782120943069458 68.87755584716797 5.31073522567749 C 74.65267944335938 7.753406524658203 79.839599609375 11.25062084197998 84.29421234130859 15.70522117614746 C 88.74882507324219 20.15983581542969 92.24604034423828 25.34673500061035 94.68872833251953 31.12186431884766 C 97.21733856201172 37.10017776489258 98.49945068359375 43.45157623291016 98.49945068359375 49.99964904785156 C 98.49945068359375 56.54829406738281 97.21733856201172 62.89969253540039 94.68872833251953 68.87800598144531 C 92.24604034423828 74.65313720703125 88.74882507324219 79.84004974365234 84.29421234130859 84.29464721679688 C 79.839599609375 88.74925994873047 74.65267944335938 92.24647521972656 68.87755584716797 94.68914794921875 C 62.89922714233398 97.21776580810547 56.54780960083008 98.4998779296875 49.99972534179688 98.4998779296875 Z" stroke="none"/>
                <path d="M 49.99972534179688 3 C 43.65348052978516 3 37.49866485595703 4.242240905761719 31.70623016357422 6.692230224609375 C 26.10989379882812 9.059272766113281 21.08323669433594 12.44853210449219 16.76589202880859 16.76587677001953 C 12.44855499267578 21.08321380615234 9.059295654296875 26.10985565185547 6.692230224609375 31.70618438720703 C 4.24224853515625 37.49859619140625 3 43.65341186523438 3 50.00022888183594 C 3 56.34645843505859 4.24224853515625 62.50127410888672 6.692230224609375 68.29368591308594 C 9.059295654296875 73.8900146484375 12.44855499267578 78.91665649414062 16.76589202880859 83.23399353027344 C 21.08323669433594 87.55132293701172 26.10989379882812 90.94059753417969 31.70623016357422 93.30764007568359 C 37.49866485595703 95.75762939453125 43.65348052978516 96.99987030029297 49.99972534179688 96.99987030029297 C 56.34597015380859 96.99987030029297 62.50078582763672 95.75762939453125 68.293212890625 93.30764007568359 C 73.88955688476562 90.94059753417969 78.91621398925781 87.55132293701172 83.23355865478516 83.23399353027344 C 87.55089569091797 78.91665649414062 90.94015502929688 73.8900146484375 93.30722045898438 68.29368591308594 C 95.7572021484375 62.50127410888672 96.99945068359375 56.34645843505859 96.99945068359375 49.99964141845703 C 96.99945068359375 43.65341186523438 95.7572021484375 37.49859619140625 93.30722045898438 31.70618438720703 C 90.94015502929688 26.10985565185547 87.55089569091797 21.08321380615234 83.23355865478516 16.76587677001953 C 78.91621398925781 12.44853210449219 73.88955688476562 9.059272766113281 68.293212890625 6.692230224609375 C 62.50078582763672 4.242240905761719 56.34597015380859 3 49.99972534179688 3 M 49.99972534179688 0 C 77.61381530761719 0 99.99945068359375 22.38559722900391 99.99945068359375 49.99964141845703 L 99.99945068359375 50.00022888183594 C 99.99945068359375 77.6142578125 77.61381530761719 99.99987030029297 49.99972534179688 99.99987030029297 C 22.38563537597656 99.99987030029297 0 77.6142578125 0 50.00022888183594 L 0 49.99964141845703 C 0 22.38559722900391 22.38563537597656 0 49.99972534179688 0 Z" stroke="none" fill="#fff"/>
              </g>
            </g>
            <g id="Trazado_874923" data-name="Trazado 874923" transform="translate(0 0)" fill="none">
              <path d="M50,0a50,50,0,0,1,50,50h0A50,50,0,0,1,0,50H0A50,50,0,0,1,50,0Z" stroke="none"/>
              <path d="M 49.99972534179688 3 C 43.65348052978516 3 37.49866485595703 4.242240905761719 31.70623016357422 6.692230224609375 C 26.10989379882812 9.059272766113281 21.08323669433594 12.44853210449219 16.76589202880859 16.76587677001953 C 12.44855499267578 21.08321380615234 9.059295654296875 26.10985565185547 6.692230224609375 31.70618438720703 C 4.24224853515625 37.49859619140625 3 43.65341186523438 3 50.00022888183594 C 3 56.34645843505859 4.24224853515625 62.50127410888672 6.692230224609375 68.29368591308594 C 9.059295654296875 73.8900146484375 12.44855499267578 78.91665649414062 16.76589202880859 83.23399353027344 C 21.08323669433594 87.55132293701172 26.10989379882812 90.94059753417969 31.70623016357422 93.30764007568359 C 37.49866485595703 95.75762939453125 43.65348052978516 96.99987030029297 49.99972534179688 96.99987030029297 C 56.34597015380859 96.99987030029297 62.50078582763672 95.75762939453125 68.293212890625 93.30764007568359 C 73.88955688476562 90.94059753417969 78.91621398925781 87.55132293701172 83.23355865478516 83.23399353027344 C 87.55089569091797 78.91665649414062 90.94015502929688 73.8900146484375 93.30722045898438 68.29368591308594 C 95.7572021484375 62.50127410888672 96.99945068359375 56.34645843505859 96.99945068359375 49.99964141845703 C 96.99945068359375 43.65341186523438 95.7572021484375 37.49859619140625 93.30722045898438 31.70618438720703 C 90.94015502929688 26.10985565185547 87.55089569091797 21.08321380615234 83.23355865478516 16.76587677001953 C 78.91621398925781 12.44853210449219 73.88955688476562 9.059272766113281 68.293212890625 6.692230224609375 C 62.50078582763672 4.242240905761719 56.34597015380859 3 49.99972534179688 3 M 49.99972534179688 0 C 77.61381530761719 0 99.99945068359375 22.38559722900391 99.99945068359375 49.99964141845703 L 99.99945068359375 50.00022888183594 C 99.99945068359375 77.6142578125 77.61381530761719 99.99987030029297 49.99972534179688 99.99987030029297 C 22.38563537597656 99.99987030029297 0 77.6142578125 0 50.00022888183594 L 0 49.99964141845703 C 0 22.38559722900391 22.38563537597656 0 49.99972534179688 0 Z" stroke="none" fill="#fff"/>
            </g>
          </g>
        </g>
      </g>
    </g>
    <g id="Grupo_1123319" data-name="Grupo 1123319" transform="translate(823.051 15296)">
      <g id="Grupo_1123317" data-name="Grupo 1123317">
        <g id="Grupo_1123305" data-name="Grupo 1123305">
          <path id="Trazado_919826" data-name="Trazado 919826" d="M61,61H5a4,4,0,0,1,0-8,4.748,4.748,0,0,1,.53.05A3.964,3.964,0,0,1,9,51a3.887,3.887,0,0,1,1.41.27,3.974,3.974,0,0,1,7.18,0A3.887,3.887,0,0,1,19,51a3.932,3.932,0,0,1,2.24.69,3.973,3.973,0,0,1,7.35-.42,3.817,3.817,0,0,1,2.82,0,3.969,3.969,0,0,1,7.01-.31,3.947,3.947,0,0,1,5.16,0,3.969,3.969,0,0,1,7.01.31,3.817,3.817,0,0,1,2.82,0A3.99,3.99,0,0,1,61,53Z" fill="#dfb28b"/>
        </g>
        <g id="Grupo_1123306" data-name="Grupo 1123306">
          <path id="Trazado_919827" data-name="Trazado 919827" d="M31,45H29a6.009,6.009,0,0,1-6-6h2a6.009,6.009,0,0,1,6,6Z" fill="#b4dd7f"/>
        </g>
        <g id="Grupo_1123307" data-name="Grupo 1123307">
          <path id="Trazado_919828" data-name="Trazado 919828" d="M9,45H7a6.009,6.009,0,0,1-6-6H3a5.944,5.944,0,0,1,4.24,1.76A5.944,5.944,0,0,1,9,45Z" fill="#b4dd7f"/>
        </g>
        <g id="Grupo_1123308" data-name="Grupo 1123308">
          <path id="Trazado_919829" data-name="Trazado 919829" d="M53,45H51a6.009,6.009,0,0,1-6-6h2a6.009,6.009,0,0,1,6,6Z" fill="#b4dd7f"/>
        </g>
        <g id="Grupo_1123309" data-name="Grupo 1123309">
          <path id="Trazado_919830" data-name="Trazado 919830" d="M37,39h2a6.009,6.009,0,0,1-6,6H31a6.009,6.009,0,0,1,6-6Z" fill="#b4dd7f"/>
        </g>
        <g id="Grupo_1123310" data-name="Grupo 1123310">
          <path id="Trazado_919831" data-name="Trazado 919831" d="M59,39h2a6.009,6.009,0,0,1-6,6H53a6.009,6.009,0,0,1,6-6Z" fill="#b4dd7f"/>
        </g>
        <g id="Grupo_1123311" data-name="Grupo 1123311">
          <path id="Trazado_919832" data-name="Trazado 919832" d="M15,39h2a6.009,6.009,0,0,1-6,6H9a6.009,6.009,0,0,1,6-6Z" fill="#b4dd7f"/>
        </g>
        <g id="Grupo_1123312" data-name="Grupo 1123312">
          <path id="Trazado_919833" data-name="Trazado 919833" d="M31.42,36.79,31,37l-.42-.21a6.477,6.477,0,0,1,0-11.58L31,25l.42.21a6.477,6.477,0,0,1,0,11.58Z" fill="#a0d468"/>
        </g>
        <g id="Grupo_1123313" data-name="Grupo 1123313">
          <path id="Trazado_919834" data-name="Trazado 919834" d="M9.42,36.79,9,37l-.42-.21a6.477,6.477,0,0,1,0-11.58L9,25l.42.21a6.477,6.477,0,0,1,0,11.58Z" fill="#a0d468"/>
        </g>
        <g id="Grupo_1123314" data-name="Grupo 1123314">
          <path id="Trazado_919835" data-name="Trazado 919835" d="M53.42,36.79,53,37l-.42-.21a6.477,6.477,0,0,1,0-11.58L53,25l.42.21a6.477,6.477,0,0,1,0,11.58Z" fill="#a0d468"/>
        </g>
        <g id="Grupo_1123315" data-name="Grupo 1123315">
          <circle id="Elipse_11976" data-name="Elipse 11976" cx="5" cy="5" r="5" transform="translate(43 7)" fill="#fcd770"/>
        </g>
        <g id="Grupo_1123316" data-name="Grupo 1123316">
          <path id="Trazado_919836" data-name="Trazado 919836" d="M23,7a4,4,0,0,1,0,8H7A4,4,0,0,1,7,7c.03,0,.05.01.08.01a6.991,6.991,0,0,1,13.9.56A3.959,3.959,0,0,1,23,7Z" fill="#e6e9ed"/>
        </g>
      </g>
      <g id="Grupo_1123318" data-name="Grupo 1123318">
        <path id="Trazado_919837" data-name="Trazado 919837" d="M55,46a7.008,7.008,0,0,0,7-7V38H59a6.973,6.973,0,0,0-5,2.111v-2.5a7.465,7.465,0,0,0-.131-13.291L53,23.882l-.87.435A7.464,7.464,0,0,0,52,37.606v2.5A6.977,6.977,0,0,0,47,38H44v1a7.008,7.008,0,0,0,7,7h1v4a4.814,4.814,0,0,0-.944.1,4.969,4.969,0,0,0-7.708-.493,4.986,4.986,0,0,0-4.695,0A4.957,4.957,0,0,0,32,49.014V46h1a7.008,7.008,0,0,0,7-7V38H37a6.973,6.973,0,0,0-5,2.111v-2.5a7.456,7.456,0,0,0,0-13.213V0H30V24.393a7.456,7.456,0,0,0,0,13.213v2.5A6.977,6.977,0,0,0,25,38H22v1a7.008,7.008,0,0,0,7,7h1v4a4.814,4.814,0,0,0-.944.1,4.97,4.97,0,0,0-8.265.235,4.9,4.9,0,0,0-2.734-.234A4.968,4.968,0,0,0,10,50.026V46h1a7.008,7.008,0,0,0,7-7V38H15a6.973,6.973,0,0,0-5,2.111v-2.5a7.465,7.465,0,0,0-.131-13.291L9,23.882l-.87.435A7.464,7.464,0,0,0,8,37.606v2.5A6.977,6.977,0,0,0,3,38H0v1a7.008,7.008,0,0,0,7,7H8v4.109A5.015,5.015,0,0,0,5.021,52H5A5,5,0,0,0,5,62H62V53a5.006,5.006,0,0,0-5-5,4.938,4.938,0,0,0-3,1.014V46Zm4-6h.9A5.009,5.009,0,0,1,55,44h-.9A5.008,5.008,0,0,1,59,40Zm-8,4a5.008,5.008,0,0,1-4.9-4H47a5.008,5.008,0,0,1,4.9,4ZM37,40h.9A5.009,5.009,0,0,1,33,44h-.9A5.008,5.008,0,0,1,37,40Zm-8,4a5.008,5.008,0,0,1-4.9-4H25a5.008,5.008,0,0,1,4.9,4ZM28,31a5.443,5.443,0,0,1,3-4.882,5.472,5.472,0,0,1,0,9.764A5.444,5.444,0,0,1,28,31ZM15,40h.9A5.009,5.009,0,0,1,11,44h-.9A5.008,5.008,0,0,1,15,40ZM7,44a5.008,5.008,0,0,1-4.9-4H3a5.008,5.008,0,0,1,4.9,4ZM6,31a5.443,5.443,0,0,1,3-4.882,5.472,5.472,0,0,1,0,9.764A5.444,5.444,0,0,1,6,31ZM57,50a3,3,0,0,1,3,3v7H5a3,3,0,0,1,0-6,2.01,2.01,0,0,1,.282.029l.785.1.331-.588A2.925,2.925,0,0,1,10.057,52.2l.855.323.4-.823a2.975,2.975,0,0,1,5.38,0l.4.823.855-.323a2.906,2.906,0,0,1,2.735.31l1.075.728.429-1.226A2.976,2.976,0,0,1,27.69,51.7l.4.823.855-.323a2.806,2.806,0,0,1,2.112,0l.855.323.4-.823a2.974,2.974,0,0,1,5.258-.229l.6,1.016.9-.765a2.924,2.924,0,0,1,3.857,0l.9.765.6-1.016a2.973,2.973,0,0,1,5.257.229l.4.823.855-.323a2.806,2.806,0,0,1,2.112,0l.855.323.4-.823A2.98,2.98,0,0,1,57,50ZM50,31a5.443,5.443,0,0,1,3-4.882,5.472,5.472,0,0,1,0,9.764A5.444,5.444,0,0,1,50,31Z"/>
        <path id="Trazado_919838" data-name="Trazado 919838" d="M7,16h5v4h2V16h6v5h2V16h1A5,5,0,0,0,23,6a4.866,4.866,0,0,0-1.222.158,7.991,7.991,0,0,0-15.531-.1A5,5,0,0,0,7,16ZM6.948,8l1,.008.123-.859a5.991,5.991,0,0,1,11.911.479l.1,1.63,1.407-.83A2.942,2.942,0,0,1,23,8a3,3,0,0,1,0,6H7a3,3,0,0,1-.052-6Z"/>
        <path id="Trazado_919839" data-name="Trazado 919839" d="M8,18h2v4H8Z"/>
        <path id="Trazado_919840" data-name="Trazado 919840" d="M16,18h2v4H16Z"/>
        <path id="Trazado_919841" data-name="Trazado 919841" d="M20,23h2v2H20Z"/>
        <path id="Trazado_919842" data-name="Trazado 919842" d="M48,18a6,6,0,1,0-6-6A6.006,6.006,0,0,0,48,18ZM48,8a4,4,0,1,1-4,4A4,4,0,0,1,48,8Z"/>
        <path id="Trazado_919843" data-name="Trazado 919843" d="M47,0h2V4H47Z"/>
        <path id="Trazado_919844" data-name="Trazado 919844" d="M39.929,2.929h2v4h-2Z" transform="translate(8.505 30.388) rotate(-45)"/>
        <path id="Trazado_919845" data-name="Trazado 919845" d="M36,11h4v2H36Z"/>
        <path id="Trazado_919846" data-name="Trazado 919846" d="M38.929,18.071h4v2h-4Z" transform="translate(-1.498 34.527) rotate(-45)"/>
        <path id="Trazado_919847" data-name="Trazado 919847" d="M47,20h2v4H47Z"/>
        <path id="Trazado_919848" data-name="Trazado 919848" d="M54.071,17.071h2v4h-2Z" transform="translate(2.647 44.532) rotate(-45)"/>
        <path id="Trazado_919849" data-name="Trazado 919849" d="M56,11h4v2H56Z"/>
        <path id="Trazado_919850" data-name="Trazado 919850" d="M53.071,3.929h4v2h-4Z" transform="translate(12.645 40.385) rotate(-45)"/>
        <path id="Trazado_919851" data-name="Trazado 919851" d="M8.382,56h2.236v2H8.382Z" transform="translate(-45.731 40.006) rotate(-63.435)"/>
        <path id="Trazado_919852" data-name="Trazado 919852" d="M16,54.382h2v2.236H16Z" transform="translate(-40.243 45.885) rotate(-63.435)"/>
        <path id="Trazado_919853" data-name="Trazado 919853" d="M25.793,54.5h1.414v2H25.793Z" transform="translate(-31.483 34.994) rotate(-45)"/>
        <path id="Trazado_919854" data-name="Trazado 919854" d="M34.5,54.882h2v2.236h-2Z" transform="translate(-21.296 21.788) rotate(-26.565)"/>
        <path id="Trazado_919855" data-name="Trazado 919855" d="M42.382,54h2.236v2H42.382Z" transform="translate(-25.147 69.311) rotate(-63.435)"/>
        <path id="Trazado_919856" data-name="Trazado 919856" d="M47.5,53.882h2v2.236h-2Z" transform="translate(-19.477 27.496) rotate(-26.565)"/>
        <path id="Trazado_919857" data-name="Trazado 919857" d="M54.793,57.5h1.414v2H54.793Z" transform="translate(-25.11 56.379) rotate(-45)"/>
        <path id="Trazado_919858" data-name="Trazado 919858" d="M55.5,52.793h2v1.414h-2Z" transform="translate(-21.282 55.621) rotate(-45)"/>
      </g>
    </g>
  </g>
</svg>
