<svg xmlns="http://www.w3.org/2000/svg" xmlns:xlink="http://www.w3.org/1999/xlink" width="117.999" height="118" viewBox="0 0 117.999 118">
  <defs>
    <filter id="Trazado_874925" x="0" y="0" width="117.999" height="118" filterUnits="userSpaceOnUse">
      <feOffset dy="3" input="SourceAlpha"/>
      <feGaussianBlur stdDeviation="3" result="blur"/>
      <feFlood flood-opacity="0.161"/>
      <feComposite operator="in" in2="blur"/>
      <feComposite in="SourceGraphic"/>
    </filter>
  </defs>
  <g id="Grupo_1123523" data-name="Grupo 1123523" transform="translate(-268.076 -4509)">
    <g id="Grupo_1111553" data-name="Grupo 1111553" transform="translate(-531.425 1997.843)">
      <g id="Grupo_1111316" data-name="Grupo 1111316" transform="translate(808.5 2517.157)">
        <g id="Grupo_1109835" data-name="Grupo 1109835" transform="translate(0 0)">
          <g id="Grupo_1107913" data-name="Grupo 1107913" transform="translate(0 0)">
            <g transform="matrix(1, 0, 0, 1, -9, -6)" filter="url(#Trazado_874925)">
              <g id="Trazado_874925-2" data-name="Trazado 874925" transform="translate(9 6)" fill="#bb965f" opacity="0.859">
                <path d="M 49.99972534179688 98.4998779296875 C 43.45164108276367 98.4998779296875 37.10022354125977 97.21776580810547 31.12189674377441 94.68914794921875 C 25.34676742553711 92.24647521972656 20.15985298156738 88.74925994873047 15.70523929595947 84.29464721679688 C 11.25062561035156 79.84004974365234 7.753411293029785 74.65313720703125 5.310725212097168 68.87800598144531 C 2.782111167907715 62.89969253540039 1.499996781349182 56.54829406738281 1.499996781349182 50.00022125244141 C 1.499996781349182 43.45157623291016 2.782111167907715 37.10017776489258 5.310725212097168 31.12186431884766 C 7.753411293029785 25.34673500061035 11.25062561035156 20.15983581542969 15.70523929595947 15.70522117614746 C 20.15985298156738 11.25062084197998 25.34676742553711 7.753406524658203 31.12189674377441 5.31073522567749 C 37.10022354125977 2.782120943069458 43.45164108276367 1.500006556510925 49.99972534179688 1.500006556510925 C 56.54780960083008 1.500006556510925 62.89922714233398 2.782120943069458 68.87755584716797 5.31073522567749 C 74.65267944335938 7.753406524658203 79.839599609375 11.25062084197998 84.29421234130859 15.70522117614746 C 88.74882507324219 20.15983581542969 92.24604034423828 25.34673500061035 94.68872833251953 31.12186431884766 C 97.21733856201172 37.10017776489258 98.49945068359375 43.45157623291016 98.49945068359375 49.99964904785156 C 98.49945068359375 56.54829406738281 97.21733856201172 62.89969253540039 94.68872833251953 68.87800598144531 C 92.24604034423828 74.65313720703125 88.74882507324219 79.84004974365234 84.29421234130859 84.29464721679688 C 79.839599609375 88.74925994873047 74.65267944335938 92.24647521972656 68.87755584716797 94.68914794921875 C 62.89922714233398 97.21776580810547 56.54780960083008 98.4998779296875 49.99972534179688 98.4998779296875 Z" stroke="none"/>
                <path d="M 49.99972534179688 3 C 43.65348052978516 3 37.49866485595703 4.242240905761719 31.70623016357422 6.692230224609375 C 26.10989379882812 9.059272766113281 21.08323669433594 12.44853210449219 16.76589202880859 16.76587677001953 C 12.44855499267578 21.08321380615234 9.059295654296875 26.10985565185547 6.692230224609375 31.70618438720703 C 4.24224853515625 37.49859619140625 3 43.65341186523438 3 50.00022888183594 C 3 56.34645843505859 4.24224853515625 62.50127410888672 6.692230224609375 68.29368591308594 C 9.059295654296875 73.8900146484375 12.44855499267578 78.91665649414062 16.76589202880859 83.23399353027344 C 21.08323669433594 87.55132293701172 26.10989379882812 90.94059753417969 31.70623016357422 93.30764007568359 C 37.49866485595703 95.75762939453125 43.65348052978516 96.99987030029297 49.99972534179688 96.99987030029297 C 56.34597015380859 96.99987030029297 62.50078582763672 95.75762939453125 68.293212890625 93.30764007568359 C 73.88955688476562 90.94059753417969 78.91621398925781 87.55132293701172 83.23355865478516 83.23399353027344 C 87.55089569091797 78.91665649414062 90.94015502929688 73.8900146484375 93.30722045898438 68.29368591308594 C 95.7572021484375 62.50127410888672 96.99945068359375 56.34645843505859 96.99945068359375 49.99964141845703 C 96.99945068359375 43.65341186523438 95.7572021484375 37.49859619140625 93.30722045898438 31.70618438720703 C 90.94015502929688 26.10985565185547 87.55089569091797 21.08321380615234 83.23355865478516 16.76587677001953 C 78.91621398925781 12.44853210449219 73.88955688476562 9.059272766113281 68.293212890625 6.692230224609375 C 62.50078582763672 4.242240905761719 56.34597015380859 3 49.99972534179688 3 M 49.99972534179688 0 C 77.61381530761719 0 99.99945068359375 22.38559722900391 99.99945068359375 49.99964141845703 L 99.99945068359375 50.00022888183594 C 99.99945068359375 77.6142578125 77.61381530761719 99.99987030029297 49.99972534179688 99.99987030029297 C 22.38563537597656 99.99987030029297 0 77.6142578125 0 50.00022888183594 L 0 49.99964141845703 C 0 22.38559722900391 22.38563537597656 0 49.99972534179688 0 Z" stroke="none" fill="#fff"/>
              </g>
            </g>
            <g id="Trazado_874923" data-name="Trazado 874923" transform="translate(0 0)" fill="none">
              <path d="M50,0a50,50,0,0,1,50,50h0A50,50,0,0,1,0,50H0A50,50,0,0,1,50,0Z" stroke="none"/>
              <path d="M 49.99972534179688 3 C 43.65348052978516 3 37.49866485595703 4.242240905761719 31.70623016357422 6.692230224609375 C 26.10989379882812 9.059272766113281 21.08323669433594 12.44853210449219 16.76589202880859 16.76587677001953 C 12.44855499267578 21.08321380615234 9.059295654296875 26.10985565185547 6.692230224609375 31.70618438720703 C 4.24224853515625 37.49859619140625 3 43.65341186523438 3 50.00022888183594 C 3 56.34645843505859 4.24224853515625 62.50127410888672 6.692230224609375 68.29368591308594 C 9.059295654296875 73.8900146484375 12.44855499267578 78.91665649414062 16.76589202880859 83.23399353027344 C 21.08323669433594 87.55132293701172 26.10989379882812 90.94059753417969 31.70623016357422 93.30764007568359 C 37.49866485595703 95.75762939453125 43.65348052978516 96.99987030029297 49.99972534179688 96.99987030029297 C 56.34597015380859 96.99987030029297 62.50078582763672 95.75762939453125 68.293212890625 93.30764007568359 C 73.88955688476562 90.94059753417969 78.91621398925781 87.55132293701172 83.23355865478516 83.23399353027344 C 87.55089569091797 78.91665649414062 90.94015502929688 73.8900146484375 93.30722045898438 68.29368591308594 C 95.7572021484375 62.50127410888672 96.99945068359375 56.34645843505859 96.99945068359375 49.99964141845703 C 96.99945068359375 43.65341186523438 95.7572021484375 37.49859619140625 93.30722045898438 31.70618438720703 C 90.94015502929688 26.10985565185547 87.55089569091797 21.08321380615234 83.23355865478516 16.76587677001953 C 78.91621398925781 12.44853210449219 73.88955688476562 9.059272766113281 68.293212890625 6.692230224609375 C 62.50078582763672 4.242240905761719 56.34597015380859 3 49.99972534179688 3 M 49.99972534179688 0 C 77.61381530761719 0 99.99945068359375 22.38559722900391 99.99945068359375 49.99964141845703 L 99.99945068359375 50.00022888183594 C 99.99945068359375 77.6142578125 77.61381530761719 99.99987030029297 49.99972534179688 99.99987030029297 C 22.38563537597656 99.99987030029297 0 77.6142578125 0 50.00022888183594 L 0 49.99964141845703 C 0 22.38559722900391 22.38563537597656 0 49.99972534179688 0 Z" stroke="none" fill="#fff"/>
            </g>
          </g>
        </g>
      </g>
    </g>
    <g id="Grupo_1123522" data-name="Grupo 1123522" transform="translate(293.075 4492.992)">
      <g id="Grupo_1123521" data-name="Grupo 1123521" transform="translate(0.997 45.005)">
        <path id="Trazado_920372" data-name="Trazado 920372" d="M171.952,349.087c1.5-9.6,12.442-17.047,25.716-17.047a33.038,33.038,0,0,1,17.573,5.131,1.681,1.681,0,0,1,.839,1.633v9.253a.924.924,0,0,1-1.031,1.031Z" transform="translate(-150.132 -294.818)" fill="#78c2a4" fill-rule="evenodd"/>
        <path id="Trazado_920373" data-name="Trazado 920373" d="M333.388,439.439h21.677a.924.924,0,0,0,1.031-1.031v-2.193H333.388Z" transform="translate(-290.147 -385.171)" fill="#66b394" fill-rule="evenodd"/>
        <path id="Trazado_920374" data-name="Trazado 920374" d="M51.637,349.087c-1.5-9.6-12.442-17.047-25.712-17.047a30.83,30.83,0,0,0-17.573,5.131c-.779.542-.824.681-.839,1.633v9.253c0,.775.391,1.031,1.031,1.031Z" transform="translate(-7.513 -294.818)" fill="#b3e59f" fill-rule="evenodd"/>
        <path id="Trazado_920375" data-name="Trazado 920375" d="M51.636,378.442c-.786-5.033-4.168-9.471-9.117-12.555a17.612,17.612,0,0,1,4.7,7.835c.335,1.219-.188,1.5-1.339,1.5H7.512v2.193c0,.775.391,1.031,1.031,1.031Z" transform="translate(-7.512 -324.174)" fill="#95d6a4" fill-rule="evenodd"/>
        <path id="Trazado_920376" data-name="Trazado 920376" d="M47.052,51.52H65.908A2.583,2.583,0,0,1,68.485,54.1V70.8a2.583,2.583,0,0,1-2.577,2.576H61.974a1.8,1.8,0,0,0-1.61.854l-3.3,4.856a.636.636,0,0,1-1.159,0l-3.291-4.837a1.878,1.878,0,0,0-1.621-.873H47.052A2.583,2.583,0,0,1,44.476,70.8V54.1A2.583,2.583,0,0,1,47.052,51.52Z" transform="translate(-39.571 -51.52)" fill="#faf8f9" fill-rule="evenodd"/>
        <path id="Trazado_920377" data-name="Trazado 920377" d="M65.265,51.52h.643A2.583,2.583,0,0,1,68.485,54.1V70.8a2.583,2.583,0,0,1-2.577,2.576H61.974a1.8,1.8,0,0,0-1.61.854l-3.3,4.856a.636.636,0,0,1-1.159,0l-3.291-4.837a1.878,1.878,0,0,0-1.621-.873H47.052A2.583,2.583,0,0,1,44.476,70.8v-.643H62.045a3.228,3.228,0,0,0,3.22-3.22Z" transform="translate(-39.571 -51.52)" fill="#ede9fb" fill-rule="evenodd"/>
        <path id="Trazado_920378" data-name="Trazado 920378" d="M289.164,51.52h18.856A2.583,2.583,0,0,1,310.6,54.1V70.8a2.583,2.583,0,0,1-2.577,2.576h-4.965l-4.461,6.56-4.461-6.56h-4.969a2.583,2.583,0,0,1-2.577-2.576V54.1a2.583,2.583,0,0,1,2.577-2.577Z" transform="translate(-249.557 -51.52)" fill="#faf8f9" fill-rule="evenodd"/>
        <path id="Trazado_920379" data-name="Trazado 920379" d="M307.376,51.52h.643A2.583,2.583,0,0,1,310.6,54.1V70.8a2.583,2.583,0,0,1-2.577,2.576h-3.934a1.8,1.8,0,0,0-1.61.854l-3.3,4.856a.636.636,0,0,1-1.158,0l-3.288-4.837a1.884,1.884,0,0,0-1.625-.873h-3.938a2.583,2.583,0,0,1-2.577-2.576v-.643h17.569a3.228,3.228,0,0,0,3.22-3.22V51.52Z" transform="translate(-249.557 -51.52)" fill="#ede9fb" fill-rule="evenodd"/>
        <path id="Trazado_920380" data-name="Trazado 920380" d="M337.72,106.787c-1.181-1.181-2.464-1.817-3.724-.557-3.359,3.359-6.631,8.55-5.45,9.731s6.375-2.091,9.734-5.45C339.541,109.251,338.905,107.968,337.72,106.787Z" transform="translate(-285.735 -98.373)" fill="#f5bc98" fill-rule="evenodd"/>
        <path id="Trazado_920381" data-name="Trazado 920381" d="M337.88,106.787c-1.181-1.181-2.464-1.817-3.724-.557l-.053.053a6.275,6.275,0,0,1,.557.5c1.185,1.181,1.817,2.464.56,3.724a28.114,28.114,0,0,1-6.737,5,.839.839,0,0,0,.222.455c1.185,1.185,6.375-2.091,9.734-5.45C339.7,109.251,339.065,107.968,337.88,106.787Z" transform="translate(-285.894 -98.373)" fill="#e59b6c" fill-rule="evenodd"/>
        <path id="Trazado_920382" data-name="Trazado 920382" d="M97.347,112.211c3.092,0,5.593.85,5.593,3.938a5.591,5.591,0,0,1-11.182,0C91.758,113.061,94.259,112.211,97.347,112.211Z" transform="translate(-80.579 -104.158)" fill="#ff6e6e" fill-rule="evenodd"/>
        <path id="Trazado_920383" data-name="Trazado 920383" d="M102.109,113.854c1.914.41,3.242,1.471,3.242,3.72a5.593,5.593,0,0,1-10.814,2,5.6,5.6,0,0,0,7.594-5.221c0-.177-.008-.342-.023-.5Z" transform="translate(-82.99 -105.583)" fill="#ff555e" fill-rule="evenodd"/>
        <path id="Trazado_920384" data-name="Trazado 920384" d="M87.165,100.417a4.235,4.235,0,0,1-6.124.015c-.677-.752-.685-.982-.011-1.738a4.244,4.244,0,0,1,6.127,0c.67.749.673.978.008,1.726Z" transform="translate(-70.84 -91.299)" fill="#b3e59f" fill-rule="evenodd"/>
      </g>
      <path id="Trazado_920385" data-name="Trazado 920385" d="M18.762,52.1a7.785,7.785,0,0,1,3.468.918A4.27,4.27,0,0,1,24.355,57a6.588,6.588,0,0,1-13.176,0,5.663,5.663,0,0,1,.177-1.422,4.483,4.483,0,0,1-1.636-1.911.984.984,0,0,1,0-.8,4.52,4.52,0,0,1,1.828-2.024,5.334,5.334,0,0,1,5.224-.105V48.984a.995.995,0,1,1,1.99,0V52.1Zm29.147,5.115A1,1,0,0,1,46.5,58.625l-.342-.346c-.229.361-.444.715-.636,1.053-.752,1.347-1.2,2.369-1.012,2.558.214.214,1.365-.312,2.847-1.177a27.361,27.361,0,0,0,3.634-2.592l-.417-.417a1,1,0,0,1,1.407-1.41l.5.5c.124-.117.241-.237.361-.353a1.014,1.014,0,0,0,.372-.959,3.3,3.3,0,0,0-.933-1.358,3.226,3.226,0,0,0-1.358-.929,1,1,0,0,0-.959.372,29.283,29.283,0,0,0-2.644,3.058Zm.647-5.055a2.849,2.849,0,0,1,2.825-.9,4.049,4.049,0,0,1,1.471.73,5.273,5.273,0,0,0,1.042-3.472.991.991,0,0,1,1.967-.248,6.205,6.205,0,0,1-.421,3.017,5.552,5.552,0,0,1,1.58-.1.994.994,0,0,1-.109,1.986,3.686,3.686,0,0,0-1.174.079,5.854,5.854,0,0,0-1.211.451,3.9,3.9,0,0,1,.62,1.324,2.848,2.848,0,0,1-.9,2.821,29.037,29.037,0,0,1-5.887,4.585c-2.249,1.316-4.284,1.835-5.255.865-.929-.929-.5-2.813.684-4.935a29.275,29.275,0,0,1,4.766-6.2Zm12.487,6.029a.995.995,0,0,1,1.99,0v6.1a3.583,3.583,0,0,1-3.573,3.573H55.013l-4.16,6.12a.991.991,0,0,1-1.651-.019l-4.153-6.1H40.6a3.577,3.577,0,0,1-3.57-3.573V47.581a3.577,3.577,0,0,1,3.57-3.573H59.459a3.583,3.583,0,0,1,3.573,3.573v6.1a.995.995,0,0,1-1.99,0v-6.1A1.592,1.592,0,0,0,59.459,46H40.6a1.592,1.592,0,0,0-1.117.466,1.575,1.575,0,0,0-.463,1.117V64.289a1.575,1.575,0,0,0,.463,1.117,1.592,1.592,0,0,0,1.117.466h4.969a.993.993,0,0,1,.82.436l3.641,5.356,3.588-5.277a.993.993,0,0,1,.873-.515h4.965a1.592,1.592,0,0,0,1.584-1.584Zm-32.126,0a.995.995,0,0,1,1.99,0v6.1a3.583,3.583,0,0,1-3.573,3.573H22.888l-4.16,6.12a1,1,0,0,1-1.655-.019l-4.149-6.1H8.478A3.583,3.583,0,0,1,4.9,64.289V47.581a3.583,3.583,0,0,1,3.573-3.573H27.334a3.583,3.583,0,0,1,3.573,3.573v6.1a.995.995,0,0,1-1.99,0v-6.1A1.593,1.593,0,0,0,27.334,46H8.478a1.591,1.591,0,0,0-1.117.466A1.575,1.575,0,0,0,6.9,47.581V64.289a1.575,1.575,0,0,0,.463,1.117,1.592,1.592,0,0,0,1.117.466h4.969a.993.993,0,0,1,.82.436l3.641,5.356L21.5,66.388a.993.993,0,0,1,.873-.515h4.965a1.592,1.592,0,0,0,1.584-1.584ZM26.326,81.911a1,1,0,1,1-.387,1.952,32.627,32.627,0,0,0-3.227-.482q-1.591-.158-3.3-.158A32.59,32.59,0,0,0,9.734,84.66a26.842,26.842,0,0,0-7.745,3.8v9.813H43.914a16.153,16.153,0,0,0-4.183-7.308,24.7,24.7,0,0,0-9.584-5.954.993.993,0,1,1,.662-1.873,29.945,29.945,0,0,1,3.159,1.32,31.685,31.685,0,0,1,6.77-2.362,35.1,35.1,0,0,1,7.794-.865,35.586,35.586,0,0,1,6.552.606,32.578,32.578,0,0,1,6.15,1.794.994.994,0,0,1-.745,1.843,30.607,30.607,0,0,0-5.77-1.685,33.351,33.351,0,0,0-6.187-.568,33.007,33.007,0,0,0-7.357.812,29.953,29.953,0,0,0-5.018,1.61,24.5,24.5,0,0,1,5,3.946,17.955,17.955,0,0,1,4.784,8.685h20V88.46c-.2-.139-.38-.271-.561-.4-.308-.207-.647-.425-1.012-.647a.993.993,0,0,1,1.034-1.7c.35.214.711.448,1.091.7s.733.512,1.042.745a.989.989,0,0,1,.4.79V99.273a.992.992,0,0,1-.993.993H1a1,1,0,0,1-1-.993V87.959a.993.993,0,0,1,.4-.79,28.615,28.615,0,0,1,8.745-4.408,34.564,34.564,0,0,1,10.265-1.527c1.158,0,2.324.057,3.491.173q1.783.175,3.427.5Zm-13.1-25.577a3.9,3.9,0,0,0-.053.662,4.6,4.6,0,0,0,9.2,0,2.422,2.422,0,0,0-1.147-2.272,5.943,5.943,0,0,0-2.64-.651,4.565,4.565,0,0,1-1.625,1.621,5.229,5.229,0,0,1-2.7.737A5.439,5.439,0,0,1,13.221,56.334Zm2.716-2.343a2.657,2.657,0,0,0,.8-.726,2.723,2.723,0,0,0-.8-.73,3.4,3.4,0,0,0-3.37,0,2.723,2.723,0,0,0-.8.73,2.661,2.661,0,0,0,.8.726,3.372,3.372,0,0,0,3.37,0Z"/>
    </g>
  </g>
</svg>
