<svg xmlns="http://www.w3.org/2000/svg" xmlns:xlink="http://www.w3.org/1999/xlink" width="117.999" height="118" viewBox="0 0 117.999 118">
  <defs>
    <filter id="Trazado_874925" x="0" y="0" width="117.999" height="118" filterUnits="userSpaceOnUse">
      <feOffset dy="3" input="SourceAlpha"/>
      <feGaussianBlur stdDeviation="3" result="blur"/>
      <feFlood flood-opacity="0.161"/>
      <feComposite operator="in" in2="blur"/>
      <feComposite in="SourceGraphic"/>
    </filter>
  </defs>
  <g id="Grupo_1123525" data-name="Grupo 1123525" transform="translate(-582.89 -4508.873)">
    <g id="Grupo_1111553" data-name="Grupo 1111553" transform="translate(-216.61 1997.716)">
      <g id="Grupo_1111316" data-name="Grupo 1111316" transform="translate(808.5 2517.157)">
        <g id="Grupo_1109835" data-name="Grupo 1109835" transform="translate(0 0)">
          <g id="Grupo_1107913" data-name="Grupo 1107913" transform="translate(0 0)">
            <g transform="matrix(1, 0, 0, 1, -9, -6)" filter="url(#Trazado_874925)">
              <g id="Trazado_874925-2" data-name="Trazado 874925" transform="translate(9 6)" fill="#bb965f" opacity="0.859">
                <path d="M 49.99972534179688 98.4998779296875 C 43.45164108276367 98.4998779296875 37.10022354125977 97.21776580810547 31.12189674377441 94.68914794921875 C 25.34676742553711 92.24647521972656 20.15985298156738 88.74925994873047 15.70523929595947 84.29464721679688 C 11.25062561035156 79.84004974365234 7.753411293029785 74.65313720703125 5.310725212097168 68.87800598144531 C 2.782111167907715 62.89969253540039 1.499996781349182 56.54829406738281 1.499996781349182 50.00022125244141 C 1.499996781349182 43.45157623291016 2.782111167907715 37.10017776489258 5.310725212097168 31.12186431884766 C 7.753411293029785 25.34673500061035 11.25062561035156 20.15983581542969 15.70523929595947 15.70522117614746 C 20.15985298156738 11.25062084197998 25.34676742553711 7.753406524658203 31.12189674377441 5.31073522567749 C 37.10022354125977 2.782120943069458 43.45164108276367 1.500006556510925 49.99972534179688 1.500006556510925 C 56.54780960083008 1.500006556510925 62.89922714233398 2.782120943069458 68.87755584716797 5.31073522567749 C 74.65267944335938 7.753406524658203 79.839599609375 11.25062084197998 84.29421234130859 15.70522117614746 C 88.74882507324219 20.15983581542969 92.24604034423828 25.34673500061035 94.68872833251953 31.12186431884766 C 97.21733856201172 37.10017776489258 98.49945068359375 43.45157623291016 98.49945068359375 49.99964904785156 C 98.49945068359375 56.54829406738281 97.21733856201172 62.89969253540039 94.68872833251953 68.87800598144531 C 92.24604034423828 74.65313720703125 88.74882507324219 79.84004974365234 84.29421234130859 84.29464721679688 C 79.839599609375 88.74925994873047 74.65267944335938 92.24647521972656 68.87755584716797 94.68914794921875 C 62.89922714233398 97.21776580810547 56.54780960083008 98.4998779296875 49.99972534179688 98.4998779296875 Z" stroke="none"/>
                <path d="M 49.99972534179688 3 C 43.65348052978516 3 37.49866485595703 4.242240905761719 31.70623016357422 6.692230224609375 C 26.10989379882812 9.059272766113281 21.08323669433594 12.44853210449219 16.76589202880859 16.76587677001953 C 12.44855499267578 21.08321380615234 9.059295654296875 26.10985565185547 6.692230224609375 31.70618438720703 C 4.24224853515625 37.49859619140625 3 43.65341186523438 3 50.00022888183594 C 3 56.34645843505859 4.24224853515625 62.50127410888672 6.692230224609375 68.29368591308594 C 9.059295654296875 73.8900146484375 12.44855499267578 78.91665649414062 16.76589202880859 83.23399353027344 C 21.08323669433594 87.55132293701172 26.10989379882812 90.94059753417969 31.70623016357422 93.30764007568359 C 37.49866485595703 95.75762939453125 43.65348052978516 96.99987030029297 49.99972534179688 96.99987030029297 C 56.34597015380859 96.99987030029297 62.50078582763672 95.75762939453125 68.293212890625 93.30764007568359 C 73.88955688476562 90.94059753417969 78.91621398925781 87.55132293701172 83.23355865478516 83.23399353027344 C 87.55089569091797 78.91665649414062 90.94015502929688 73.8900146484375 93.30722045898438 68.29368591308594 C 95.7572021484375 62.50127410888672 96.99945068359375 56.34645843505859 96.99945068359375 49.99964141845703 C 96.99945068359375 43.65341186523438 95.7572021484375 37.49859619140625 93.30722045898438 31.70618438720703 C 90.94015502929688 26.10985565185547 87.55089569091797 21.08321380615234 83.23355865478516 16.76587677001953 C 78.91621398925781 12.44853210449219 73.88955688476562 9.059272766113281 68.293212890625 6.692230224609375 C 62.50078582763672 4.242240905761719 56.34597015380859 3 49.99972534179688 3 M 49.99972534179688 0 C 77.61381530761719 0 99.99945068359375 22.38559722900391 99.99945068359375 49.99964141845703 L 99.99945068359375 50.00022888183594 C 99.99945068359375 77.6142578125 77.61381530761719 99.99987030029297 49.99972534179688 99.99987030029297 C 22.38563537597656 99.99987030029297 0 77.6142578125 0 50.00022888183594 L 0 49.99964141845703 C 0 22.38559722900391 22.38563537597656 0 49.99972534179688 0 Z" stroke="none" fill="#fff"/>
              </g>
            </g>
            <g id="Trazado_874923" data-name="Trazado 874923" transform="translate(0 0)" fill="none">
              <path d="M50,0a50,50,0,0,1,50,50h0A50,50,0,0,1,0,50H0A50,50,0,0,1,50,0Z" stroke="none"/>
              <path d="M 49.99972534179688 3 C 43.65348052978516 3 37.49866485595703 4.242240905761719 31.70623016357422 6.692230224609375 C 26.10989379882812 9.059272766113281 21.08323669433594 12.44853210449219 16.76589202880859 16.76587677001953 C 12.44855499267578 21.08321380615234 9.059295654296875 26.10985565185547 6.692230224609375 31.70618438720703 C 4.24224853515625 37.49859619140625 3 43.65341186523438 3 50.00022888183594 C 3 56.34645843505859 4.24224853515625 62.50127410888672 6.692230224609375 68.29368591308594 C 9.059295654296875 73.8900146484375 12.44855499267578 78.91665649414062 16.76589202880859 83.23399353027344 C 21.08323669433594 87.55132293701172 26.10989379882812 90.94059753417969 31.70623016357422 93.30764007568359 C 37.49866485595703 95.75762939453125 43.65348052978516 96.99987030029297 49.99972534179688 96.99987030029297 C 56.34597015380859 96.99987030029297 62.50078582763672 95.75762939453125 68.293212890625 93.30764007568359 C 73.88955688476562 90.94059753417969 78.91621398925781 87.55132293701172 83.23355865478516 83.23399353027344 C 87.55089569091797 78.91665649414062 90.94015502929688 73.8900146484375 93.30722045898438 68.29368591308594 C 95.7572021484375 62.50127410888672 96.99945068359375 56.34645843505859 96.99945068359375 49.99964141845703 C 96.99945068359375 43.65341186523438 95.7572021484375 37.49859619140625 93.30722045898438 31.70618438720703 C 90.94015502929688 26.10985565185547 87.55089569091797 21.08321380615234 83.23355865478516 16.76587677001953 C 78.91621398925781 12.44853210449219 73.88955688476562 9.059272766113281 68.293212890625 6.692230224609375 C 62.50078582763672 4.242240905761719 56.34597015380859 3 49.99972534179688 3 M 49.99972534179688 0 C 77.61381530761719 0 99.99945068359375 22.38559722900391 99.99945068359375 49.99964141845703 L 99.99945068359375 50.00022888183594 C 99.99945068359375 77.6142578125 77.61381530761719 99.99987030029297 49.99972534179688 99.99987030029297 C 22.38563537597656 99.99987030029297 0 77.6142578125 0 50.00022888183594 L 0 49.99964141845703 C 0 22.38559722900391 22.38563537597656 0 49.99972534179688 0 Z" stroke="none" fill="#fff"/>
            </g>
          </g>
        </g>
      </g>
    </g>
    <g id="Grupo_1123524" data-name="Grupo 1123524" transform="translate(610.034 4476.292)">
      <path id="Trazado_920386" data-name="Trazado 920386" d="M248.913,79.023l-3.29,3.29-3.606-3.29-1.009-6.708,1.48-.467,1.715-.542Z" transform="translate(-209.936 -6.536)" fill="#d57e4b"/>
      <path id="Trazado_920387" data-name="Trazado 920387" d="M245.624,85.976l-3.606-3.29-1.009-6.708,1.48-.467Z" transform="translate(-209.936 -10.199)" fill="#a95e2c"/>
      <path id="Trazado_920388" data-name="Trazado 920388" d="M122.372,285.708a10.675,10.675,0,0,1-10.679,10.679H90.333V275.029h21.36A10.679,10.679,0,0,1,122.372,285.708Z" transform="translate(-78.687 -183.994)" fill="#a95e2c"/>
      <path id="Trazado_920389" data-name="Trazado 920389" d="M205.2,141.841a10.675,10.675,0,0,1-10.679,10.679h-21.36V131.162h21.36A10.679,10.679,0,0,1,205.2,141.841Z" transform="translate(-150.838 -58.675)" fill="#d57e4b"/>
      <path id="Trazado_920390" data-name="Trazado 920390" d="M204.08,250.975a10.679,10.679,0,0,1-9.558,5.911h-21.36v-5.911Z" transform="translate(-150.838 -163.041)" fill="#a95e2c"/>
      <circle id="Elipse_12025" data-name="Elipse 12025" cx="10.679" cy="10.679" r="10.679" transform="translate(0.967 91.035)" fill="#edc1b9"/>
      <circle id="Elipse_12026" data-name="Elipse 12026" cx="10.679" cy="10.679" r="10.679" transform="translate(11.646 72.487)" fill="#edc1b9"/>
      <path id="Trazado_920391" data-name="Trazado 920391" d="M288.034,285.711a10.675,10.675,0,0,1-10.679,10.679h-21.36V275.032h21.36A10.679,10.679,0,0,1,288.034,285.711Z" transform="translate(-222.99 -183.997)" fill="#d57e4b"/>
      <path id="Trazado_920392" data-name="Trazado 920392" d="M286.912,394.844a10.679,10.679,0,0,1-9.558,5.911h-21.36v-5.911Z" transform="translate(-222.99 -288.362)" fill="#a95e2c"/>
      <circle id="Elipse_12027" data-name="Elipse 12027" cx="10.679" cy="10.679" r="10.679" transform="translate(22.326 91.035)" fill="#edc1b9"/>
      <path id="Trazado_920393" data-name="Trazado 920393" d="M206,304.7a.967.967,0,0,0-1.207,1.511,6.218,6.218,0,1,1-7.355-.3.967.967,0,1,0-1.082-1.6A8.153,8.153,0,1,0,206,304.7Z" transform="translate(-167.912 -209.358)"/>
      <path id="Trazado_920394" data-name="Trazado 920394" d="M219.141,325.756a4.757,4.757,0,0,0,4.752,4.752.967.967,0,1,0,0-1.934,2.818,2.818,0,1,1,2.818-2.818.967.967,0,0,0,1.934,0,4.752,4.752,0,0,0-9.5,0Z" transform="translate(-190.888 -224.042)"/>
      <path id="Trazado_920395" data-name="Trazado 920395" d="M35.252,310.932A8.153,8.153,0,1,0,27.1,302.78a.967.967,0,1,0,1.934,0A6.219,6.219,0,1,1,35.252,309a.967.967,0,0,0,0,1.934Z" transform="translate(-23.605 -201.066)"/>
      <path id="Trazado_920396" data-name="Trazado 920396" d="M58.227,322.939a2.812,2.812,0,0,1,1.453.4.967.967,0,1,0,1-1.656,4.752,4.752,0,1,0,2.3,4.071.967.967,0,1,0-1.934,0,2.818,2.818,0,1,1-2.818-2.818Z" transform="translate(-46.581 -224.043)"/>
      <path id="Trazado_920397" data-name="Trazado 920397" d="M54.364,90.068h-1.3a11.643,11.643,0,0,0,1.53-2.817.967.967,0,0,0-1.811-.678,9.748,9.748,0,0,1-2.266,3.495H33.005a11.713,11.713,0,0,0-1.364.08,11.632,11.632,0,0,0-2.9-16.695h14.94A9.723,9.723,0,0,1,53.4,83.165a.967.967,0,0,0,1.934,0A11.659,11.659,0,0,0,43.685,71.519H39.52l-4.427-7.254a.967.967,0,0,0-1.117-.418l-3.2,1.009a.967.967,0,0,0-.665,1.066l.842,5.6H22.326a11.641,11.641,0,0,0-9.315,18.629,11.722,11.722,0,0,0-1.365-.08,11.525,11.525,0,0,0-5.305,1.276.967.967,0,1,0,.882,1.721A9.609,9.609,0,0,1,11.646,92a9.723,9.723,0,0,1,9.713,9.7s0,.009,0,.013,0,.009,0,.013A9.712,9.712,0,1,1,4.436,95.208.967.967,0,0,0,3,93.912a11.645,11.645,0,0,0,8.63,19.448H54.364a11.646,11.646,0,0,0,0-23.293ZM32.151,66.452l1.686-.532,3.417,5.6H32.913Zm.854,44.975a9.723,9.723,0,0,1-9.712-9.7s0-.009,0-.013,0-.009,0-.013a9.712,9.712,0,1,1,9.712,9.726ZM22.323,73.453h.009a9.566,9.566,0,1,1-.009,0ZM20.962,94.732a11.624,11.624,0,0,0,2.728,0,11.653,11.653,0,0,0-1.364,2.338A11.656,11.656,0,0,0,20.962,94.732Zm-2.9,16.695a11.719,11.719,0,0,0,4.261-5.068,11.719,11.719,0,0,0,4.26,5.068Zm36.3,0H39.424a11.637,11.637,0,0,0,0-19.425H54.364a9.712,9.712,0,0,1,0,19.425Z" transform="translate(0 0)"/>
      <path id="Trazado_920398" data-name="Trazado 920398" d="M118.082,167.065a8.152,8.152,0,0,0,5.8-13.878.967.967,0,1,0-1.377,1.358,6.219,6.219,0,1,1-4.427-1.852.967.967,0,1,0,0-1.934,8.153,8.153,0,0,0,0,16.305Z" transform="translate(-95.757 -75.747)"/>
      <path id="Trazado_920399" data-name="Trazado 920399" d="M144.168,184.253a.967.967,0,0,0,1.267-.514,4.753,4.753,0,1,0-4.378,2.9.967.967,0,0,0,0-1.934,2.815,2.815,0,1,1,2.6-1.721A.967.967,0,0,0,144.168,184.253Z" transform="translate(-118.732 -98.723)"/>
      <path id="Trazado_920400" data-name="Trazado 920400" d="M282.352,150.148a.967.967,0,0,0-.967-.967H270.274a.967.967,0,1,0,0,1.934h11.111A.967.967,0,0,0,282.352,150.148Z" transform="translate(-234.586 -74.371)"/>
      <path id="Trazado_920401" data-name="Trazado 920401" d="M269.3,180.566a.967.967,0,0,0,0,1.934h4.929a.967.967,0,0,0,0-1.934Z" transform="translate(-233.735 -101.71)"/>
      <path id="Trazado_920402" data-name="Trazado 920402" d="M331.014,182.5h6.817a.967.967,0,1,0,0-1.934h-6.817a.967.967,0,1,0,0,1.934Z" transform="translate(-287.495 -101.71)"/>
      <path id="Trazado_920403" data-name="Trazado 920403" d="M355.432,297.914a.967.967,0,0,0-.967-.967h-6.817a.967.967,0,0,0,0,1.934h6.817A.967.967,0,0,0,355.432,297.914Z" transform="translate(-301.985 -203.086)"/>
      <path id="Trazado_920404" data-name="Trazado 920404" d="M388.711,324.4h-6.817a.967.967,0,1,0,0,1.934h6.817a.967.967,0,0,0,0-1.934Z" transform="translate(-331.815 -227)"/>
      <path id="Trazado_920405" data-name="Trazado 920405" d="M365.188,367.883h-6.817a.967.967,0,1,0,0,1.934h6.817a.967.967,0,0,0,0-1.934Z" transform="translate(-311.325 -264.877)"/>
      <path id="Trazado_920406" data-name="Trazado 920406" d="M429.647,296.947h-1.766a.967.967,0,1,0,0,1.934h1.766a.967.967,0,1,0,0-1.934Z" transform="translate(-371.874 -203.086)"/>
    </g>
  </g>
</svg>
