<svg xmlns="http://www.w3.org/2000/svg" xmlns:xlink="http://www.w3.org/1999/xlink" width="118" height="118" viewBox="0 0 118 118">
  <defs>
    <filter id="Trazado_874925" x="0" y="0" width="118" height="118" filterUnits="userSpaceOnUse">
      <feOffset dy="3" input="SourceAlpha"/>
      <feGaussianBlur stdDeviation="3" result="blur"/>
      <feFlood flood-opacity="0.161"/>
      <feComposite operator="in" in2="blur"/>
      <feComposite in="SourceGraphic"/>
    </filter>
  </defs>
  <g id="Grupo_1123332" data-name="Grupo 1123332" transform="translate(1591 -3672)">
    <g id="Grupo_1111552" data-name="Grupo 1111552" transform="translate(-2390.5 1160.843)">
      <g id="Grupo_1111316" data-name="Grupo 1111316" transform="translate(808.5 2517.157)">
        <g id="Grupo_1109835" data-name="Grupo 1109835" transform="translate(0 0)">
          <g id="Grupo_1107913" data-name="Grupo 1107913" transform="translate(0 0)">
            <g transform="matrix(1, 0, 0, 1, -9, -6)" filter="url(#Trazado_874925)">
              <g id="Trazado_874925-2" data-name="Trazado 874925" transform="translate(9 6)" fill="#bb965f" opacity="0.859">
                <path d="M 49.99972534179688 98.4998779296875 C 43.45164108276367 98.4998779296875 37.10022354125977 97.21776580810547 31.12189674377441 94.68914794921875 C 25.34676742553711 92.24647521972656 20.15985298156738 88.74925994873047 15.70523929595947 84.29464721679688 C 11.25062561035156 79.84004974365234 7.753411293029785 74.65313720703125 5.310725212097168 68.87800598144531 C 2.782111167907715 62.89969253540039 1.499996781349182 56.54829406738281 1.499996781349182 50.00022125244141 C 1.499996781349182 43.45157623291016 2.782111167907715 37.10017776489258 5.310725212097168 31.12186431884766 C 7.753411293029785 25.34673500061035 11.25062561035156 20.15983581542969 15.70523929595947 15.70522117614746 C 20.15985298156738 11.25062084197998 25.34676742553711 7.753406524658203 31.12189674377441 5.31073522567749 C 37.10022354125977 2.782120943069458 43.45164108276367 1.500006556510925 49.99972534179688 1.500006556510925 C 56.54780960083008 1.500006556510925 62.89922714233398 2.782120943069458 68.87755584716797 5.31073522567749 C 74.65267944335938 7.753406524658203 79.839599609375 11.25062084197998 84.29421234130859 15.70522117614746 C 88.74882507324219 20.15983581542969 92.24604034423828 25.34673500061035 94.68872833251953 31.12186431884766 C 97.21733856201172 37.10017776489258 98.49945068359375 43.45157623291016 98.49945068359375 49.99964904785156 C 98.49945068359375 56.54829406738281 97.21733856201172 62.89969253540039 94.68872833251953 68.87800598144531 C 92.24604034423828 74.65313720703125 88.74882507324219 79.84004974365234 84.29421234130859 84.29464721679688 C 79.839599609375 88.74925994873047 74.65267944335938 92.24647521972656 68.87755584716797 94.68914794921875 C 62.89922714233398 97.21776580810547 56.54780960083008 98.4998779296875 49.99972534179688 98.4998779296875 Z" stroke="none"/>
                <path d="M 49.99972534179688 3 C 43.65348052978516 3 37.49866485595703 4.242240905761719 31.70623016357422 6.692230224609375 C 26.10989379882812 9.059272766113281 21.08323669433594 12.44853210449219 16.76589202880859 16.76587677001953 C 12.44855499267578 21.08321380615234 9.059295654296875 26.10985565185547 6.692230224609375 31.70618438720703 C 4.24224853515625 37.49859619140625 3 43.65341186523438 3 50.00022888183594 C 3 56.34645843505859 4.24224853515625 62.50127410888672 6.692230224609375 68.29368591308594 C 9.059295654296875 73.8900146484375 12.44855499267578 78.91665649414062 16.76589202880859 83.23399353027344 C 21.08323669433594 87.55132293701172 26.10989379882812 90.94059753417969 31.70623016357422 93.30764007568359 C 37.49866485595703 95.75762939453125 43.65348052978516 96.99987030029297 49.99972534179688 96.99987030029297 C 56.34597015380859 96.99987030029297 62.50078582763672 95.75762939453125 68.293212890625 93.30764007568359 C 73.88955688476562 90.94059753417969 78.91621398925781 87.55132293701172 83.23355865478516 83.23399353027344 C 87.55089569091797 78.91665649414062 90.94015502929688 73.8900146484375 93.30722045898438 68.29368591308594 C 95.7572021484375 62.50127410888672 96.99945068359375 56.34645843505859 96.99945068359375 49.99964141845703 C 96.99945068359375 43.65341186523438 95.7572021484375 37.49859619140625 93.30722045898438 31.70618438720703 C 90.94015502929688 26.10985565185547 87.55089569091797 21.08321380615234 83.23355865478516 16.76587677001953 C 78.91621398925781 12.44853210449219 73.88955688476562 9.059272766113281 68.293212890625 6.692230224609375 C 62.50078582763672 4.242240905761719 56.34597015380859 3 49.99972534179688 3 M 49.99972534179688 0 C 77.61381530761719 0 99.99945068359375 22.38559722900391 99.99945068359375 49.99964141845703 L 99.99945068359375 50.00022888183594 C 99.99945068359375 77.6142578125 77.61381530761719 99.99987030029297 49.99972534179688 99.99987030029297 C 22.38563537597656 99.99987030029297 0 77.6142578125 0 50.00022888183594 L 0 49.99964141845703 C 0 22.38559722900391 22.38563537597656 0 49.99972534179688 0 Z" stroke="none" fill="#fff"/>
              </g>
            </g>
            <g id="Trazado_874923" data-name="Trazado 874923" transform="translate(0 0)" fill="none">
              <path d="M50,0a50,50,0,0,1,50,50h0A50,50,0,0,1,0,50H0A50,50,0,0,1,50,0Z" stroke="none"/>
              <path d="M 49.99972534179688 3 C 43.65348052978516 3 37.49866485595703 4.242240905761719 31.70623016357422 6.692230224609375 C 26.10989379882812 9.059272766113281 21.08323669433594 12.44853210449219 16.76589202880859 16.76587677001953 C 12.44855499267578 21.08321380615234 9.059295654296875 26.10985565185547 6.692230224609375 31.70618438720703 C 4.24224853515625 37.49859619140625 3 43.65341186523438 3 50.00022888183594 C 3 56.34645843505859 4.24224853515625 62.50127410888672 6.692230224609375 68.29368591308594 C 9.059295654296875 73.8900146484375 12.44855499267578 78.91665649414062 16.76589202880859 83.23399353027344 C 21.08323669433594 87.55132293701172 26.10989379882812 90.94059753417969 31.70623016357422 93.30764007568359 C 37.49866485595703 95.75762939453125 43.65348052978516 96.99987030029297 49.99972534179688 96.99987030029297 C 56.34597015380859 96.99987030029297 62.50078582763672 95.75762939453125 68.293212890625 93.30764007568359 C 73.88955688476562 90.94059753417969 78.91621398925781 87.55132293701172 83.23355865478516 83.23399353027344 C 87.55089569091797 78.91665649414062 90.94015502929688 73.8900146484375 93.30722045898438 68.29368591308594 C 95.7572021484375 62.50127410888672 96.99945068359375 56.34645843505859 96.99945068359375 49.99964141845703 C 96.99945068359375 43.65341186523438 95.7572021484375 37.49859619140625 93.30722045898438 31.70618438720703 C 90.94015502929688 26.10985565185547 87.55089569091797 21.08321380615234 83.23355865478516 16.76587677001953 C 78.91621398925781 12.44853210449219 73.88955688476562 9.059272766113281 68.293212890625 6.692230224609375 C 62.50078582763672 4.242240905761719 56.34597015380859 3 49.99972534179688 3 M 49.99972534179688 0 C 77.61381530761719 0 99.99945068359375 22.38559722900391 99.99945068359375 49.99964141845703 L 99.99945068359375 50.00022888183594 C 99.99945068359375 77.6142578125 77.61381530761719 99.99987030029297 49.99972534179688 99.99987030029297 C 22.38563537597656 99.99987030029297 0 77.6142578125 0 50.00022888183594 L 0 49.99964141845703 C 0 22.38559722900391 22.38563537597656 0 49.99972534179688 0 Z" stroke="none" fill="#fff"/>
            </g>
          </g>
        </g>
      </g>
    </g>
    <g id="Grupo_1123331" data-name="Grupo 1123331" transform="translate(-1580 3671.088)">
      <path id="Trazado_919884" data-name="Trazado 919884" d="M50.883,30.389h6.248a6.675,6.675,0,0,1,6.658,6.658v9.041a12.231,12.231,0,0,1,6.346,18.571,1.821,1.821,0,0,1,.39,1.438l2.5,2.956a1.859,1.859,0,0,1,1.885.608l4.972,5.908h0a2.35,2.35,0,0,1-.289,3.312v0l-2.069,1.736a2.355,2.355,0,0,1-3.316-.291l-4.97-5.906h0a1.865,1.865,0,0,1-.26-1.993l-2.5-2.955a1.823,1.823,0,0,1-1.327-.633,12.162,12.162,0,0,1-1.365.529V81.034a6.675,6.675,0,0,1-6.658,6.658H22.658A6.675,6.675,0,0,1,16,81.034V37.046a6.675,6.675,0,0,1,6.658-6.658h6.247v-.772a.858.858,0,0,1,.858-.858h4.863c.81-1.892,3.14-2.847,5.269-2.847s4.459.955,5.269,2.847h4.863a.858.858,0,0,1,.858.858v.772Z" transform="translate(0 0)" fill-rule="evenodd"/>
      <path id="Trazado_919885" data-name="Trazado 919885" d="M63.48,99.19H57.233a1.3,1.3,0,0,0-1.3,1.3v43.988a1.3,1.3,0,0,0,1.3,1.3H91.706a1.3,1.3,0,0,0,1.3-1.3V133.281q-.359-.048-.715-.118a12.166,12.166,0,0,1-6.947-4.067l-.009-.009h0l-.048-.056a12.209,12.209,0,0,1,1.427-17.159l.009-.009h0A12.175,12.175,0,0,1,93,109.056v-8.57a1.3,1.3,0,0,0-1.3-1.3H85.459v.754a.858.858,0,0,1-.858.858H64.338a.858.858,0,0,1-.858-.858V99.19Zm10.3,4.482a.856.856,0,0,1,1.382,0q13.622,15.255.166,23.995v2.53a.858.858,0,1,1-1.715,0v-2.529q-13.456-8.739.166-24Zm-13.232,31.87a.858.858,0,1,1,0-1.715h.261a.858.858,0,1,1,0,1.715Zm3.346,0a.858.858,0,1,1,0-1.715h24.5a.858.858,0,1,1,0,1.715Zm-3.346,5.719a.858.858,0,1,1,0-1.715h.261a.858.858,0,1,1,0,1.715Zm3.346,0a.858.858,0,1,1,0-1.715h24.5a.858.858,0,1,1,0,1.715Z" transform="translate(-34.575 -63.44)" fill="#e6e6e6" fill-rule="evenodd"/>
      <path id="Trazado_919886" data-name="Trazado 919886" d="M65.8,99.191H59.556a1.293,1.293,0,0,0-.936.4,30.667,30.667,0,0,0,10.687,18.872q-.687-6.414,6.795-14.793a.856.856,0,0,1,1.382,0q11.39,12.755,3.848,20.955a30.617,30.617,0,0,0,4.158.76,12.216,12.216,0,0,1,3.546-13.516l.009-.009h0a12.175,12.175,0,0,1,6.28-2.807v-8.57a1.3,1.3,0,0,0-1.3-1.3H87.782v.754a.858.858,0,0,1-.858.858H66.661a.858.858,0,0,1-.858-.858v-.754Z" transform="translate(-36.898 -63.441)" fill="#fff" fill-rule="evenodd"/>
      <path id="Trazado_919887" data-name="Trazado 919887" d="M275.7,205.645c.024,0,.048,0,.072,0a10.488,10.488,0,0,0,5.6-1.193.856.856,0,0,1,1.091.254l.375.446a.134.134,0,0,0,.169.015l2.127-1.787h0c.116-.116.141-.119.018-.28l-.36-.429a.854.854,0,0,1-.021-1.073l0,0a10.507,10.507,0,1,0-16.4.268.838.838,0,0,1,.1.117,10.506,10.506,0,0,0,7.24,3.658Zm-5.376-16.689a8.792,8.792,0,1,1,0,12.433A8.791,8.791,0,0,1,270.322,188.956Z" transform="translate(-216.39 -137.435)" fill="#f2aa24" fill-rule="evenodd"/>
      <path id="Trazado_919888" data-name="Trazado 919888" d="M286.829,193.48a10.511,10.511,0,1,0-19.934,6.061q.776.039,1.562.039c.157,0,.313,0,.469-.006a8.792,8.792,0,1,1,16.382-5.03Q286.085,194.034,286.829,193.48Z" transform="translate(-216.39 -137.436)" fill="#ffc447" fill-rule="evenodd"/>
      <path id="Trazado_919889" data-name="Trazado 919889" d="M71.2,109.879v11.084a3.018,3.018,0,0,1-3.011,3.011H33.719a3.018,3.018,0,0,1-3.011-3.011V76.974a3.018,3.018,0,0,1,3.011-3.011h6.247V72.032H33.719a4.959,4.959,0,0,0-4.943,4.942v43.988a4.959,4.959,0,0,0,4.943,4.942H68.192a4.959,4.959,0,0,0,4.942-4.942V109.714A12.234,12.234,0,0,1,71.2,109.879Z" transform="translate(-11.061 -39.928)" fill="#6db2e3" fill-rule="evenodd"/>
      <path id="Trazado_919890" data-name="Trazado 919890" d="M56.143,74.2a2.988,2.988,0,0,1,1.165-.235h6.247V72.032H57.307a4.9,4.9,0,0,0-1.284.171q.028,1.006.119,2Z" transform="translate(-34.65 -39.928)" fill="#8cccfe" fill-rule="evenodd"/>
      <path id="Trazado_919891" data-name="Trazado 919891" d="M275.834,73.964h6.248a3.018,3.018,0,0,1,3.011,3.011v8.461a12.2,12.2,0,0,1,1.931.166V76.975a4.959,4.959,0,0,0-4.942-4.942h-6.248v1.931Z" transform="translate(-224.951 -39.929)" fill="#8cccfe" fill-rule="evenodd"/>
      <path id="Trazado_919892" data-name="Trazado 919892" d="M129.533,41.536H124.9v5.173h18.548V41.536h-4.632v0a.854.854,0,0,1-.841-.7c-.341-1.89-4.091-2.9-6.445-1.455a2.344,2.344,0,0,0-1.145,1.4A.858.858,0,0,1,129.533,41.536Z" transform="translate(-94.281 -11.062)" fill="#5aa1d8" fill-rule="evenodd"/>
      <circle id="Elipse_11977" data-name="Elipse 11977" cx="7.077" cy="7.077" r="7.077" transform="translate(53.072 50.661)" fill="#96c9f2"/>
      <g id="Grupo_1123330" data-name="Grupo 1123330" transform="translate(34.212 43.066)">
        <path id="Trazado_919893" data-name="Trazado 919893" d="M299.215,210.258a7.077,7.077,0,0,0-5.615,11.384,30.517,30.517,0,0,0,12.679-3.892c.008-.137.012-.276.012-.415A7.076,7.076,0,0,0,299.215,210.258Z" transform="translate(-273.278 -202.663)" fill="#b9e0ff" fill-rule="evenodd"/>
        <path id="Trazado_919894" data-name="Trazado 919894" d="M203.839,193.631l-3.47,3.47v3.963l4.518-4.518a15.075,15.075,0,0,0-1.048-2.915Z" transform="translate(-193.829 -188.269)" fill="#5cab45" fill-rule="evenodd"/>
        <path id="Trazado_919895" data-name="Trazado 919895" d="M158.454,197.1l-3.47-3.47a15.076,15.076,0,0,0-1.048,2.915l4.518,4.518Z" transform="translate(-153.63 -188.268)" fill="#5cab45" fill-rule="evenodd"/>
        <path id="Trazado_919896" data-name="Trazado 919896" d="M167.983,157.465l2.633,2.633V153.69a30.561,30.561,0,0,0-2.633,3.775Z" transform="translate(-165.791 -153.69)" fill="#5cab45" fill-rule="evenodd"/>
        <path id="Trazado_919897" data-name="Trazado 919897" d="M200.368,160.1,203,157.463a30.56,30.56,0,0,0-2.633-3.775V160.1Z" transform="translate(-193.829 -153.688)" fill="#5cab45" fill-rule="evenodd"/>
        <path id="Trazado_919898" data-name="Trazado 919898" d="M205.186,231.182,200.368,236v3.856Q205.371,236.175,205.186,231.182Z" transform="translate(-193.829 -220.778)" fill="#4c9137" fill-rule="evenodd"/>
        <path id="Trazado_919899" data-name="Trazado 919899" d="M205.186,231.182,200.368,236v1.7q.877.348,1.78.641A9.318,9.318,0,0,0,205.186,231.182Z" transform="translate(-193.829 -220.778)" fill="#5cab45" fill-rule="evenodd"/>
        <path id="Trazado_919900" data-name="Trazado 919900" d="M156.482,236l-4.818-4.818q-.185,4.993,4.818,8.674Z" transform="translate(-151.658 -220.778)" fill="#4c9137" fill-rule="evenodd"/>
        <path id="Trazado_919901" data-name="Trazado 919901" d="M156.482,236l-4.818-4.818a8.8,8.8,0,0,0,.494,3.3,30.69,30.69,0,0,0,4.324,2.477Z" transform="translate(-151.658 -220.778)" fill="#5cab45" fill-rule="evenodd"/>
        <path id="Trazado_919902" data-name="Trazado 919902" d="M424.975,359.621l-2.824,2.369,0,0a.158.158,0,0,0-.015.21l0,0,4.972,5.907a.658.658,0,0,0,.911.076l2.069-1.736,0,0a.652.652,0,0,0,.073-.905l0,0-4.971-5.906A.162.162,0,0,0,424.975,359.621Z" transform="translate(-385.794 -331.945)" fill="#f2aa24" fill-rule="evenodd"/>
        <path id="Trazado_919903" data-name="Trazado 919903" d="M406.09,339.626l1.415-1.187-2.1-2.475-1.414,1.188Z" transform="translate(-370.117 -311.493)" fill="#f2aa24" fill-rule="evenodd"/>
      </g>
    </g>
  </g>
</svg>
