<svg xmlns="http://www.w3.org/2000/svg" width="72.208" height="71" viewBox="0 0 72.208 71">
  <g id="Grupo_1120129" data-name="Grupo 1120129" transform="translate(-613.051 -13298)">
    <circle id="Elipse_11670" data-name="Elipse 11670" cx="35.5" cy="35.5" r="35.5" transform="translate(614.051 13298)" fill="#6b9339"/>
    <g id="Grupo_1120128" data-name="Grupo 1120128" transform="translate(613.05 13298.5)">
      <path id="Trazado_917938" data-name="Trazado 917938" d="M233.042,116.429V102.566H215.781v13.863a21.24,21.24,0,1,0,17.261,0Zm0,0" transform="translate(-174.517 -87.672)" fill="#c9fff7"/>
      <path id="Trazado_917939" data-name="Trazado 917939" d="M267.532,264.12a16.942,16.942,0,1,1-28.678-12.214h23.473A16.962,16.962,0,0,1,267.532,264.12Zm0,0" transform="translate(-200.696 -215.95)" fill="#f7d360"/>
      <path id="Trazado_917940" data-name="Trazado 917940" d="M219.661,129.519v-3.836a3.763,3.763,0,0,1,3.763-3.763h9.618v-4.114H215.781v11.714a21.242,21.242,0,0,0,8.481,40.65c-6.388-.148-11.54-9.6-11.54-21.238C212.722,140.273,215.574,132.827,219.661,129.519Zm0,0" transform="translate(-174.517 -100.761)" fill="#72cec0"/>
      <path id="Trazado_917941" data-name="Trazado 917941" d="M242.145,278.8a16.932,16.932,0,0,1-3.291-26.9h2.173A34.182,34.182,0,0,0,238.9,264.12,32.11,32.11,0,0,0,242.145,278.8Zm0,0" transform="translate(-200.696 -215.95)" fill="#e58e13"/>
      <path id="Trazado_917942" data-name="Trazado 917942" d="M49.167,202.822,35.373,178.931V166.57H22.264v12.361L8.47,202.822a6.158,6.158,0,0,0,5.333,9.236H43.834A6.158,6.158,0,0,0,49.167,202.822Zm0,0" transform="translate(-6.558 -142.649)" fill="#e6e6e6"/>
      <path id="Trazado_917943" data-name="Trazado 917943" d="M35.37,166.57H22.26v12.36L8.467,202.823a6.156,6.156,0,0,0,5.331,9.236H22c-2.152,0-3.5-5.131-2.422-9.236l6.264-23.893v-6.345a2.361,2.361,0,0,1,2.361-2.361H35.37Zm0,0" transform="translate(-6.555 -142.649)" fill="#ccc"/>
      <path id="Trazado_917944" data-name="Trazado 917944" d="M100.271,129.739a2.794,2.794,0,0,1-2.794,2.794H80.45a2.794,2.794,0,0,1,0-5.588H97.477a2.794,2.794,0,0,1,2.794,2.794Zm0,0" transform="translate(-66.703 -108.613)" fill="#ccc"/>
      <path id="Trazado_917945" data-name="Trazado 917945" d="M141.538,129.739a2.794,2.794,0,0,1-2.794,2.794H128.493a2.794,2.794,0,0,1,0-5.588h10.251a2.794,2.794,0,0,1,2.794,2.794Zm0,0" transform="translate(-107.971 -108.613)" fill="#e6e6e6"/>
      <path id="Trazado_917946" data-name="Trazado 917946" d="M286.775,80.977a2.794,2.794,0,0,1-2.794,2.794H262.919a2.794,2.794,0,0,1,0-5.588h21.063a2.793,2.793,0,0,1,2.794,2.794Zm0,0" transform="translate(-223.438 -66.728)" fill="#72cec0"/>
      <path id="Trazado_917947" data-name="Trazado 917947" d="M326.54,80.977a2.794,2.794,0,0,1-2.794,2.794H309.212a2.794,2.794,0,1,1,0-5.588h14.534a2.793,2.793,0,0,1,2.794,2.794Zm0,0" transform="translate(-263.203 -66.728)" fill="#c9fff7"/>
      <path id="Trazado_917948" data-name="Trazado 917948" d="M71.615,333.79a1.8,1.8,0,0,1-1.609.93H39.974a1.859,1.859,0,0,1-1.61-2.788L48.5,314.375H61.48l10.136,17.557A1.8,1.8,0,0,1,71.615,333.79Zm0,0" transform="translate(-32.729 -269.609)" fill="#fc5f61"/>
      <path id="Trazado_917949" data-name="Trazado 917949" d="M45.749,329.783a12.74,12.74,0,0,0-.245,4.937H39.974a1.859,1.859,0,0,1-1.61-2.788L48.5,314.375h1.288Zm0,0" transform="translate(-32.729 -269.609)" fill="#e83842"/>
      <path id="Trazado_917950" data-name="Trazado 917950" d="M59.6,88.26V86.115a1.075,1.075,0,1,0-2.149,0v2.831a1.075,1.075,0,0,0,.637.982,20.17,20.17,0,0,1-14.776,37.5c.079-.12.155-.241.228-.367a7.36,7.36,0,0,0,.684-1.6,18.019,18.019,0,0,0,23.688-17.1A18.124,18.124,0,0,0,62.376,95.37a1.076,1.076,0,0,0-.745-.3H38.158a1.075,1.075,0,0,0-.745.3,18.031,18.031,0,0,0-4.289,6.414l-1.335-2.312A20.192,20.192,0,0,1,41.7,89.927a1.074,1.074,0,0,0,.637-.982V78.307H57.45v3.51a1.075,1.075,0,1,0,2.149,0v-3.51h.944a3.868,3.868,0,1,0,0-7.736H56.163a1.075,1.075,0,0,0,0,2.149h4.381a1.719,1.719,0,1,1,0,3.438H39.48a1.719,1.719,0,1,1,0-3.438H51.865a1.075,1.075,0,0,0,0-2.149H39.48a3.868,3.868,0,1,0,0,7.736h.71V88.26a22.339,22.339,0,0,0-9.668,9.017l-.632-1.1v-11h.884a3.868,3.868,0,1,0,0-7.736H13.747a3.868,3.868,0,1,0,0,7.736h.884v11L.981,119.824a7.232,7.232,0,0,0,6.263,10.848h18.4a1.075,1.075,0,1,0,0-2.149H7.244a5.083,5.083,0,0,1-4.4-7.624L16.636,97.008a1.077,1.077,0,0,0,.144-.538V85.184H27.74V96.47a1.077,1.077,0,0,0,.144.538L41.678,120.9a5.083,5.083,0,0,1-4.4,7.624H29.945a1.075,1.075,0,0,0,0,2.149h7.331a7.173,7.173,0,0,0,4.469-1.537A22.318,22.318,0,0,0,59.6,88.26ZM15.705,83.035H13.747a1.719,1.719,0,1,1,0-3.438H30.774a1.719,1.719,0,0,1,0,3.438Zm18.859,21.244A15.868,15.868,0,0,1,38.6,97.219h22.59a15.863,15.863,0,0,1-11.3,27.006,15.712,15.712,0,0,1-5.379-.94,7.215,7.215,0,0,0-.975-3.46Zm0,0" transform="translate(0 -60.188)"/>
      <path id="Trazado_917951" data-name="Trazado 917951" d="M66,327.785a2.868,2.868,0,0,0,0-2.934L55.863,307.295a1.074,1.074,0,0,0-.93-.537H41.952a1.074,1.074,0,0,0-.93.537L30.885,324.851a2.934,2.934,0,0,0,2.541,4.4H63.458A2.867,2.867,0,0,0,66,327.785ZM32.747,326.71a.721.721,0,0,1,0-.784l9.826-17.019H54.312l9.826,17.019a.785.785,0,0,1-.68,1.177H33.426A.721.721,0,0,1,32.747,326.71Zm0,0" transform="translate(-26.182 -263.066)"/>
      <path id="Trazado_917952" data-name="Trazado 917952" d="M168.673,386.753a1.074,1.074,0,1,0-.467,1.349A1.083,1.083,0,0,0,168.673,386.753Zm0,0" transform="translate(-143.109 -331.223)"/>
      <path id="Trazado_917953" data-name="Trazado 917953" d="M134.073,75.789a1.075,1.075,0,1,0-1.046-.832A1.084,1.084,0,0,0,134.073,75.789Zm0,0" transform="translate(-114.242 -62.828)"/>
      <path id="Trazado_917954" data-name="Trazado 917954" d="M163.811,46.633a1.074,1.074,0,1,0-.424-1.23A1.082,1.082,0,0,0,163.811,46.633Zm0,0" transform="translate(-140.299 -37.937)"/>
      <path id="Trazado_917955" data-name="Trazado 917955" d="M146.887,1.982a1.074,1.074,0,0,0,2-.048,1.074,1.074,0,1,0-2,.048Zm0,0" transform="translate(-126.101 0)"/>
      <path id="Trazado_917956" data-name="Trazado 917956" d="M413.154,285.42a1.074,1.074,0,1,0,.4-1.309A1.079,1.079,0,0,0,413.154,285.42Zm0,0" transform="translate(-354.816 -243.467)"/>
      <path id="Trazado_917957" data-name="Trazado 917957" d="M419.3,334.754a1.074,1.074,0,1,0,1.2.643A1.083,1.083,0,0,0,419.3,334.754Zm0,0" transform="translate(-359.436 -287.097)"/>
      <path id="Trazado_917958" data-name="Trazado 917958" d="M319.076,393.6a1.074,1.074,0,1,0,.486-1.359A1.084,1.084,0,0,0,319.076,393.6Zm0,0" transform="translate(-274.006 -336.384)"/>
      <path id="Trazado_917959" data-name="Trazado 917959" d="M284.8,328.116a1.075,1.075,0,1,0,1.194.623A1.087,1.087,0,0,0,284.8,328.116Zm0,0" transform="translate(-243.893 -281.395)"/>
      <path id="Trazado_917960" data-name="Trazado 917960" d="M376.98,311.31a1.073,1.073,0,1,0,.395-1.3A1.078,1.078,0,0,0,376.98,311.31Zm0,0" transform="translate(-323.744 -265.704)"/>
      <path id="Trazado_917961" data-name="Trazado 917961" d="M115.328,402.437a1.074,1.074,0,1,0-.431,1.328A1.086,1.086,0,0,0,115.328,402.437Zm0,0" transform="translate(-97.286 -344.682)"/>
      <path id="Trazado_917962" data-name="Trazado 917962" d="M133.951,352.5a1.074,1.074,0,1,0,1.165.562A1.083,1.083,0,0,0,133.951,352.5Zm0,0" transform="translate(-114.317 -302.338)"/>
    </g>
  </g>
</svg>
