<svg xmlns="http://www.w3.org/2000/svg" xmlns:xlink="http://www.w3.org/1999/xlink" width="118" height="118" viewBox="0 0 118 118">
  <defs>
    <filter id="Trazado_874925" x="0" y="0" width="118" height="118" filterUnits="userSpaceOnUse">
      <feOffset dy="3" input="SourceAlpha"/>
      <feGaussianBlur stdDeviation="3" result="blur"/>
      <feFlood flood-opacity="0.161"/>
      <feComposite operator="in" in2="blur"/>
      <feComposite in="SourceGraphic"/>
    </filter>
  </defs>
  <g id="Grupo_1123344" data-name="Grupo 1123344" transform="translate(964 -3672)">
    <g id="Grupo_1111552" data-name="Grupo 1111552" transform="translate(-1763.5 1160.843)">
      <g id="Grupo_1111316" data-name="Grupo 1111316" transform="translate(808.5 2517.157)">
        <g id="Grupo_1109835" data-name="Grupo 1109835" transform="translate(0 0)">
          <g id="Grupo_1107913" data-name="Grupo 1107913" transform="translate(0 0)">
            <g transform="matrix(1, 0, 0, 1, -9, -6)" filter="url(#Trazado_874925)">
              <g id="Trazado_874925-2" data-name="Trazado 874925" transform="translate(9 6)" fill="#bb965f" opacity="0.859">
                <path d="M 49.99972534179688 98.4998779296875 C 43.45164108276367 98.4998779296875 37.10022354125977 97.21776580810547 31.12189674377441 94.68914794921875 C 25.34676742553711 92.24647521972656 20.15985298156738 88.74925994873047 15.70523929595947 84.29464721679688 C 11.25062561035156 79.84004974365234 7.753411293029785 74.65313720703125 5.310725212097168 68.87800598144531 C 2.782111167907715 62.89969253540039 1.499996781349182 56.54829406738281 1.499996781349182 50.00022125244141 C 1.499996781349182 43.45157623291016 2.782111167907715 37.10017776489258 5.310725212097168 31.12186431884766 C 7.753411293029785 25.34673500061035 11.25062561035156 20.15983581542969 15.70523929595947 15.70522117614746 C 20.15985298156738 11.25062084197998 25.34676742553711 7.753406524658203 31.12189674377441 5.31073522567749 C 37.10022354125977 2.782120943069458 43.45164108276367 1.500006556510925 49.99972534179688 1.500006556510925 C 56.54780960083008 1.500006556510925 62.89922714233398 2.782120943069458 68.87755584716797 5.31073522567749 C 74.65267944335938 7.753406524658203 79.839599609375 11.25062084197998 84.29421234130859 15.70522117614746 C 88.74882507324219 20.15983581542969 92.24604034423828 25.34673500061035 94.68872833251953 31.12186431884766 C 97.21733856201172 37.10017776489258 98.49945068359375 43.45157623291016 98.49945068359375 49.99964904785156 C 98.49945068359375 56.54829406738281 97.21733856201172 62.89969253540039 94.68872833251953 68.87800598144531 C 92.24604034423828 74.65313720703125 88.74882507324219 79.84004974365234 84.29421234130859 84.29464721679688 C 79.839599609375 88.74925994873047 74.65267944335938 92.24647521972656 68.87755584716797 94.68914794921875 C 62.89922714233398 97.21776580810547 56.54780960083008 98.4998779296875 49.99972534179688 98.4998779296875 Z" stroke="none"/>
                <path d="M 49.99972534179688 3 C 43.65348052978516 3 37.49866485595703 4.242240905761719 31.70623016357422 6.692230224609375 C 26.10989379882812 9.059272766113281 21.08323669433594 12.44853210449219 16.76589202880859 16.76587677001953 C 12.44855499267578 21.08321380615234 9.059295654296875 26.10985565185547 6.692230224609375 31.70618438720703 C 4.24224853515625 37.49859619140625 3 43.65341186523438 3 50.00022888183594 C 3 56.34645843505859 4.24224853515625 62.50127410888672 6.692230224609375 68.29368591308594 C 9.059295654296875 73.8900146484375 12.44855499267578 78.91665649414062 16.76589202880859 83.23399353027344 C 21.08323669433594 87.55132293701172 26.10989379882812 90.94059753417969 31.70623016357422 93.30764007568359 C 37.49866485595703 95.75762939453125 43.65348052978516 96.99987030029297 49.99972534179688 96.99987030029297 C 56.34597015380859 96.99987030029297 62.50078582763672 95.75762939453125 68.293212890625 93.30764007568359 C 73.88955688476562 90.94059753417969 78.91621398925781 87.55132293701172 83.23355865478516 83.23399353027344 C 87.55089569091797 78.91665649414062 90.94015502929688 73.8900146484375 93.30722045898438 68.29368591308594 C 95.7572021484375 62.50127410888672 96.99945068359375 56.34645843505859 96.99945068359375 49.99964141845703 C 96.99945068359375 43.65341186523438 95.7572021484375 37.49859619140625 93.30722045898438 31.70618438720703 C 90.94015502929688 26.10985565185547 87.55089569091797 21.08321380615234 83.23355865478516 16.76587677001953 C 78.91621398925781 12.44853210449219 73.88955688476562 9.059272766113281 68.293212890625 6.692230224609375 C 62.50078582763672 4.242240905761719 56.34597015380859 3 49.99972534179688 3 M 49.99972534179688 0 C 77.61381530761719 0 99.99945068359375 22.38559722900391 99.99945068359375 49.99964141845703 L 99.99945068359375 50.00022888183594 C 99.99945068359375 77.6142578125 77.61381530761719 99.99987030029297 49.99972534179688 99.99987030029297 C 22.38563537597656 99.99987030029297 0 77.6142578125 0 50.00022888183594 L 0 49.99964141845703 C 0 22.38559722900391 22.38563537597656 0 49.99972534179688 0 Z" stroke="none" fill="#fff"/>
              </g>
            </g>
            <g id="Trazado_874923" data-name="Trazado 874923" transform="translate(0 0)" fill="none">
              <path d="M50,0a50,50,0,0,1,50,50h0A50,50,0,0,1,0,50H0A50,50,0,0,1,50,0Z" stroke="none"/>
              <path d="M 49.99972534179688 3 C 43.65348052978516 3 37.49866485595703 4.242240905761719 31.70623016357422 6.692230224609375 C 26.10989379882812 9.059272766113281 21.08323669433594 12.44853210449219 16.76589202880859 16.76587677001953 C 12.44855499267578 21.08321380615234 9.059295654296875 26.10985565185547 6.692230224609375 31.70618438720703 C 4.24224853515625 37.49859619140625 3 43.65341186523438 3 50.00022888183594 C 3 56.34645843505859 4.24224853515625 62.50127410888672 6.692230224609375 68.29368591308594 C 9.059295654296875 73.8900146484375 12.44855499267578 78.91665649414062 16.76589202880859 83.23399353027344 C 21.08323669433594 87.55132293701172 26.10989379882812 90.94059753417969 31.70623016357422 93.30764007568359 C 37.49866485595703 95.75762939453125 43.65348052978516 96.99987030029297 49.99972534179688 96.99987030029297 C 56.34597015380859 96.99987030029297 62.50078582763672 95.75762939453125 68.293212890625 93.30764007568359 C 73.88955688476562 90.94059753417969 78.91621398925781 87.55132293701172 83.23355865478516 83.23399353027344 C 87.55089569091797 78.91665649414062 90.94015502929688 73.8900146484375 93.30722045898438 68.29368591308594 C 95.7572021484375 62.50127410888672 96.99945068359375 56.34645843505859 96.99945068359375 49.99964141845703 C 96.99945068359375 43.65341186523438 95.7572021484375 37.49859619140625 93.30722045898438 31.70618438720703 C 90.94015502929688 26.10985565185547 87.55089569091797 21.08321380615234 83.23355865478516 16.76587677001953 C 78.91621398925781 12.44853210449219 73.88955688476562 9.059272766113281 68.293212890625 6.692230224609375 C 62.50078582763672 4.242240905761719 56.34597015380859 3 49.99972534179688 3 M 49.99972534179688 0 C 77.61381530761719 0 99.99945068359375 22.38559722900391 99.99945068359375 49.99964141845703 L 99.99945068359375 50.00022888183594 C 99.99945068359375 77.6142578125 77.61381530761719 99.99987030029297 49.99972534179688 99.99987030029297 C 22.38563537597656 99.99987030029297 0 77.6142578125 0 50.00022888183594 L 0 49.99964141845703 C 0 22.38559722900391 22.38563537597656 0 49.99972534179688 0 Z" stroke="none" fill="#fff"/>
            </g>
          </g>
        </g>
      </g>
    </g>
    <g id="Grupo_1123343" data-name="Grupo 1123343" transform="translate(-944.984 3686.998)">
      <g id="Grupo_1123342" data-name="Grupo 1123342" transform="translate(9.893 9.904)">
        <path id="Trazado_919920" data-name="Trazado 919920" d="M30.486,386.949a5.007,5.007,0,0,0-3.405,1.722c.063-2.785.348-3.9,1.721-5.965a8.635,8.635,0,0,0-4.106,3.227,27.9,27.9,0,0,1,2.175-8.715c-2.122,1.143-3.894,3.65-4.968,6.923-1.089-3.84-2.684-6.76-4.55-8.186a51.817,51.817,0,0,1,2.042,10.655,9.255,9.255,0,0,0-3.358-1.676,8.935,8.935,0,0,1,2.348,6.325c3.18,0,6.954.171,10.437.171A6.332,6.332,0,0,1,30.486,386.949Z" transform="translate(-16.036 -329.552)" fill="#afe269" fill-rule="evenodd"/>
        <g id="Grupo_1123340" data-name="Grupo 1123340" transform="translate(0)">
          <path id="Trazado_919921" data-name="Trazado 919921" d="M36.372,17.814a4.306,4.306,0,0,0,4.962,4.962,4.306,4.306,0,0,0,1.816,6.778,4.306,4.306,0,0,0-1.816,6.778A4.306,4.306,0,0,0,36.372,41.3a4.306,4.306,0,0,0-6.778,1.816A4.306,4.306,0,0,0,22.815,41.3a4.306,4.306,0,0,0-4.962-4.962,4.306,4.306,0,0,0-1.816-6.778,4.306,4.306,0,0,0,1.816-6.778,4.306,4.306,0,0,0,4.962-4.962A4.306,4.306,0,0,0,29.593,16a4.306,4.306,0,0,0,6.778,1.816Z" transform="translate(-16.037 -15.998)" fill="#fdcd56" fill-rule="evenodd"/>
          <ellipse id="Elipse_11979" data-name="Elipse 11979" cx="6.914" cy="6.914" rx="6.914" ry="6.914" transform="translate(6.361 6.934) rotate(-2.407)" fill="#f5b945"/>
        </g>
        <g id="Grupo_1123341" data-name="Grupo 1123341" transform="translate(21.06 30.279)">
          <path id="Trazado_919922" data-name="Trazado 919922" d="M385.146,408.522h-7.327a3.8,3.8,0,0,0,.417,2.962l-.16.151a.9.9,0,1,0,1.234,1.311l.2-.187a3.774,3.774,0,0,0,1.07.445l-.007.244a.9.9,0,0,0,1.8.049l.008-.291a3.8,3.8,0,0,0,2.769-4.685Z" transform="translate(-352.124 -388.198)" fill="#efc7a4" fill-rule="evenodd"/>
          <path id="Trazado_919923" data-name="Trazado 919923" d="M253.519,301.516h17.053a5.707,5.707,0,0,1,5.69,5.69v17.163a2.223,2.223,0,0,1-2.219,2.219h-.482a2.223,2.223,0,0,1-2.219-2.219V318.8a2.514,2.514,0,0,0-2.509-2.509H255.639a2.514,2.514,0,0,0-2.509,2.509v5.572a2.223,2.223,0,0,1-2.219,2.219h-.862a2.223,2.223,0,0,1-2.219-2.219V307.206A5.707,5.707,0,0,1,253.519,301.516Z" transform="translate(-239.007 -294.987)" fill="#e7eaed" fill-rule="evenodd"/>
          <path id="Trazado_919924" data-name="Trazado 919924" d="M247.828,318.442v-5.308a2.654,2.654,0,1,1,0,5.308Zm10.5-16.926h12.246a5.655,5.655,0,0,1,3.445,1.17,7.877,7.877,0,0,1-15.694-.966C258.322,301.652,258.323,301.584,258.325,301.516Zm3.733,14.772h-7.221a3.74,3.74,0,1,1,7.221,0Z" transform="translate(-239.007 -294.987)" fill="#424852" fill-rule="evenodd"/>
          <path id="Trazado_919925" data-name="Trazado 919925" d="M208.455,251.422a4.62,4.62,0,0,1-.6,2.977,7.8,7.8,0,0,1-2.328,2.568.673.673,0,0,1-.939-.158l-.9-1.262a.673.673,0,0,1,.158-.939l.047-.032a9.388,9.388,0,0,0,2.2-1.794,7.681,7.681,0,0,0,1.095-1.552.675.675,0,0,1,1.261.193ZM195.5,254.4a4.646,4.646,0,0,1-.6-2.977.675.675,0,0,1,1.261-.193,7.678,7.678,0,0,0,1.095,1.552c.051.057,2.2,1.795,2.2,1.8.016.01.032.02.048.031a.673.673,0,0,1,.158.939l-.9,1.262a.673.673,0,0,1-.939.158A7.8,7.8,0,0,1,195.5,254.4Z" transform="translate(-192.858 -250.868)" fill="#636c77" fill-rule="evenodd"/>
          <path id="Trazado_919926" data-name="Trazado 919926" d="M197.043,281.988a3.742,3.742,0,0,1-3.721,3.482h-10.2a3.742,3.742,0,0,1-3.721-3.482Z" transform="translate(-179.4 -277.976)" fill="#f4f6f8" fill-rule="evenodd"/>
          <path id="Trazado_919927" data-name="Trazado 919927" d="M217.026,275.5h1.745a3.568,3.568,0,0,1,3.557,3.557v4.765a3.568,3.568,0,0,1-3.557,3.557h-1.744a3.568,3.568,0,0,1-3.557-3.557v-4.765A3.568,3.568,0,0,1,217.026,275.5Z" transform="translate(-209.077 -272.324)" fill="#f7f9fb" fill-rule="evenodd"/>
          <path id="Trazado_919928" data-name="Trazado 919928" d="M224.436,338.754a3.578,3.578,0,0,1-2.628,1.945h-2.871a2.137,2.137,0,1,1,.563-3.936h1.745A3.568,3.568,0,0,1,224.436,338.754Z" transform="translate(-211.552 -325.691)" fill="#efc7a4" fill-rule="evenodd"/>
          <path id="Trazado_919929" data-name="Trazado 919929" d="M229.917,313.222a.695.695,0,1,1-.694.695A.695.695,0,0,1,229.917,313.222Zm-4.5,0a.695.695,0,1,1-.694.695A.695.695,0,0,1,225.417,313.222Z" transform="translate(-218.88 -305.184)" fill="#424852" fill-rule="evenodd"/>
        </g>
      </g>
      <path id="Trazado_919930" data-name="Trazado 919930" d="M37.489,48.221a.695.695,0,1,1-.7.695A.693.693,0,0,1,37.489,48.221Zm35.184,11.03v-.068c-.048-1.03-.582-9.948-5.484-11.423a6.575,6.575,0,0,0-4.677-1.95h-13.4a4.594,4.594,0,0,0,.382-1.555.924.924,0,0,0-.243-.676.9.9,0,0,0-.661-.286H46.151a4.347,4.347,0,0,0,.394-2.556.676.676,0,0,0-1.262-.192,8.4,8.4,0,0,1-2.232,2.619,4.447,4.447,0,0,0-2.408-.708H38.9a4.433,4.433,0,0,0-2.323.657,7.493,7.493,0,0,1-2.317-2.568.676.676,0,0,0-1.262.192,4.443,4.443,0,0,0,.394,2.556H30.95a.917.917,0,0,0-.661.286.9.9,0,0,0-.237.676,4.64,4.64,0,0,0,4.386,4.319V51.68a4.464,4.464,0,0,0,4.428,4.459V69.565a3.126,3.126,0,0,0,3.124,3.122h.861a3.126,3.126,0,0,0,3.124-3.122V63.992a1.609,1.609,0,0,1,1.608-1.606h8.11a4.624,4.624,0,0,0,.7,1.717l-.546.508a.9.9,0,0,0,.619,1.562.889.889,0,0,0,.613-.243l.588-.549a4.809,4.809,0,0,0,1.08.542,5.506,5.506,0,0,0,.631.175l-.024.758a.9.9,0,0,0,.874.932h.03a.9.9,0,0,0,.9-.872l.024-.8a4.547,4.547,0,0,0,1.2-.4v3.841A3.127,3.127,0,0,0,65.5,72.686h.479a3.126,3.126,0,0,0,3.124-3.122V52.4c0-.2-.012-.388-.024-.58a19.876,19.876,0,0,1,1.783,7.44.908.908,0,0,0,.9.863h.042a.9.9,0,0,0,.862-.873ZM41.292,48.915a.695.695,0,1,1,.692.695A.693.693,0,0,1,41.292,48.915ZM37.131,58.5a.9.9,0,0,1,0,1.276l-3.076,3.071a.886.886,0,0,1-.637.265.9.9,0,0,1-.637-1.541l1.535-1.531H23.4a.9.9,0,1,1,0-1.8H34.316L32.781,56.7a.9.9,0,1,1,1.274-1.276ZM18.174,53.362l.006-10.92-1.535,1.531A.9.9,0,0,1,15.372,42.7l3.069-3.072a.908.908,0,0,1,1.28,0L22.791,42.7a.9.9,0,0,1-1.28,1.276l-1.529-1.531v10.92a.9.9,0,0,1-1.808,0Zm49.13,16.2a1.322,1.322,0,0,1-1.322,1.317H65.5a1.317,1.317,0,0,1-1.316-1.317V63.992a3.414,3.414,0,0,0-3.409-3.411H55.032a4.642,4.642,0,1,0-9.245.513,3.411,3.411,0,0,0-1.62,2.9v5.572a1.317,1.317,0,0,1-1.316,1.317H41.99a1.317,1.317,0,0,1-1.316-1.317V64.439A3.291,3.291,0,0,0,42.415,63.4a3.667,3.667,0,0,0,.88-2.419,3.441,3.441,0,0,0-2.621-3.456V56.138A4.464,4.464,0,0,0,45.1,51.68V48.573a4.607,4.607,0,0,0,2.59-.959h1.7a8.771,8.771,0,0,0,8.747,8.08,8.8,8.8,0,0,0,8.329-5.99,4.749,4.749,0,0,1,.837,2.7V69.564ZM58.3,63.586c-.006-.006-.006-.011-.012-.016A.587.587,0,0,0,58.2,63.5a2.76,2.76,0,0,1-.661-1.111h3.233a1.6,1.6,0,0,1,1.547,1.19,2.839,2.839,0,0,1-2.978.644A2.963,2.963,0,0,1,58.3,63.586Zm-10.155-4.81a2.834,2.834,0,0,1,4.5,0,2.851,2.851,0,0,1,.588,1.805H47.553a2.819,2.819,0,0,1,.588-1.806Zm-7.467.668a1.716,1.716,0,0,1,.813,1.539,1.884,1.884,0,0,1-.431,1.23,1.4,1.4,0,0,1-.382.309Zm-3.913-6.2A2.674,2.674,0,0,1,38.9,52.158h1.747a2.674,2.674,0,0,1,2.135,1.089,2.644,2.644,0,0,1-2.135,1.087H38.9A2.653,2.653,0,0,1,36.761,53.248ZM32.09,45.1h2.736a4.5,4.5,0,0,0-.382,1.668A2.838,2.838,0,0,1,32.09,45.1Zm8.553-.837H38.9a2.656,2.656,0,0,0-2.651,2.655v4.328a4.456,4.456,0,0,1,2.651-.889h1.747a4.474,4.474,0,0,1,2.657.889V46.915A2.661,2.661,0,0,0,40.643,44.26Zm4.452,2.5a4.381,4.381,0,0,0-.382-1.668h2.742A2.847,2.847,0,0,1,45.1,46.764ZM64.975,48.3a6.97,6.97,0,0,1-11.823,3.487A6.878,6.878,0,0,1,51.2,47.614H62.512a4.739,4.739,0,0,1,2.463.684ZM23.446,17.449a6.011,6.011,0,1,1-6.012,6.011A6.02,6.02,0,0,1,23.446,17.449Zm0,13.827a7.816,7.816,0,1,0-7.813-7.816A7.83,7.83,0,0,0,23.446,31.277ZM13.406,20.771a5.172,5.172,0,0,1-1.723,2.689,5.248,5.248,0,0,1,1.577,5.881,5.237,5.237,0,0,1,4.307,4.306,5.091,5.091,0,0,1,1.808-.329,5.37,5.37,0,0,1,1.383.184,5.2,5.2,0,0,1,2.687,1.72,5.241,5.241,0,0,1,5.878-1.577,5.258,5.258,0,0,1,4.307-4.3,5.269,5.269,0,0,1,1.577-5.877,5.249,5.249,0,0,1-1.577-5.881,5.255,5.255,0,0,1-4.307-4.306A5.28,5.28,0,0,1,23.446,11.7a5.242,5.242,0,0,1-5.878,1.578,5.24,5.24,0,0,1-4.307,4.3,5.191,5.191,0,0,1,.146,3.189ZM9.572,24.306a3.407,3.407,0,0,1,1.438,5.358.9.9,0,0,0,.843,1.464,3.409,3.409,0,0,1,3.925,3.922.9.9,0,0,0,1.462.846A3.423,3.423,0,0,1,22.6,37.333a.9.9,0,0,0,1.686,0A3.411,3.411,0,0,1,29.652,35.9a.9.9,0,0,0,1.462-.846,3.409,3.409,0,0,1,3.925-3.922.9.9,0,0,0,.843-1.464,3.416,3.416,0,0,1,1.438-5.358.9.9,0,0,0,0-1.691,3.407,3.407,0,0,1-1.438-5.358.9.9,0,0,0-.843-1.464,3.409,3.409,0,0,1-3.925-3.922.9.9,0,0,0-1.462-.846,3.423,3.423,0,0,1-5.363-1.436.9.9,0,0,0-1.686,0,3.41,3.41,0,0,1-5.363,1.436.9.9,0,0,0-1.462.846,3.409,3.409,0,0,1-3.925,3.922.9.9,0,0,0-.843,1.464,3.416,3.416,0,0,1-1.438,5.358.9.9,0,0,0,0,1.691ZM21.8,70.878c-1.5-.011-3.051-.048-4.556-.085-1.438-.035-2.815-.068-4.119-.079a9.615,9.615,0,0,0-.813-3.322c.127.089.249.181.37.277a.9.9,0,0,0,1.462-.789,56.9,56.9,0,0,0-.983-6.611,23.617,23.617,0,0,1,1.723,4.471.9.9,0,0,0,.849.656h.018a.9.9,0,0,0,.861-.621,14.933,14.933,0,0,1,2.05-4.129A31.3,31.3,0,0,0,17.653,66.2a.9.9,0,0,0,1.638.6,8.616,8.616,0,0,1,1.165-1.35A13.517,13.517,0,0,0,20.031,69a.9.9,0,0,0,1.565.636,6.117,6.117,0,0,1,.643-.612,6.978,6.978,0,0,0-.437,1.85Zm2.372-4.464a8.041,8.041,0,0,0-2.214.656,7.4,7.4,0,0,1,1.45-3.512.9.9,0,0,0-1.061-1.348,8.926,8.926,0,0,0-2.517,1.407,25.419,25.419,0,0,1,1.717-5.68.9.9,0,0,0-1.25-1.161,11.091,11.091,0,0,0-4.453,5.085,14,14,0,0,0-4.089-6.27.905.905,0,0,0-1.413.987A48.685,48.685,0,0,1,12.151,65.2a10.368,10.368,0,0,0-2.026-.778.9.9,0,0,0-.91,1.471,8.089,8.089,0,0,1,2.123,5.689.892.892,0,0,0,.249.661.9.9,0,0,0,.649.277c1.547,0,3.209.039,4.962.082,1.814.044,3.688.089,5.478.089a.893.893,0,0,0,.649-.277.92.92,0,0,0,.255-.661A5.421,5.421,0,0,1,25.011,67.9a.9.9,0,0,0-.837-1.487Z" fill-rule="evenodd"/>
    </g>
  </g>
</svg>
