<svg xmlns="http://www.w3.org/2000/svg" width="71" height="71" viewBox="0 0 71 71">
  <g id="Grupo_1120132" data-name="Grupo 1120132" transform="translate(-1033.865 -13303.484)">
    <circle id="Elipse_11671" data-name="Elipse 11671" cx="35.5" cy="35.5" r="35.5" transform="translate(1033.865 13303.484)" fill="#6b9339"/>
    <g id="Grupo_1120131" data-name="Grupo 1120131" transform="translate(1019.804 13289.484)">
      <path id="Trazado_917963" data-name="Trazado 917963" d="M16,312H76.973v23.373H16Z" transform="translate(0 -258.4)" fill="#99ceb3"/>
      <path id="Trazado_917964" data-name="Trazado 917964" d="M288,289.444h14.227v4.9H288Z" transform="translate(-237.449 -238.709)" fill="#f6e597"/>
      <path id="Trazado_917965" data-name="Trazado 917965" d="M344,289.444h7.114v4.9H344Z" transform="translate(-286.335 -238.709)" fill="#efd66a"/>
      <path id="Trazado_917966" data-name="Trazado 917966" d="M319.946,118h-8.192L312.8,96h6.1Z" transform="translate(-258.185 -69.838)" fill="#f6e597"/>
      <path id="Trazado_917967" data-name="Trazado 917967" d="M337.406,118h-5.652l.539-22h4.065Z" transform="translate(-275.645 -69.838)" fill="#efd66a"/>
      <path id="Trazado_917968" data-name="Trazado 917968" d="M296.259,268.065H280L282.032,264h12.195Z" transform="translate(-230.465 -216.498)" fill="#dd1c4b"/>
      <path id="Trazado_917969" data-name="Trazado 917969" d="M324.195,268.065H312L314.032,264h8.13Z" transform="translate(-258.4 -216.498)" fill="#af1e4b"/>
      <path id="Trazado_917970" data-name="Trazado 917970" d="M320,55.792v-2.8a3.049,3.049,0,1,1,6.1,0v2.8" transform="translate(-265.384 -29.63)" fill="#af1e4b"/>
      <path id="Trazado_917971" data-name="Trazado 917971" d="M322.925,50.846a3.03,3.03,0,0,1,1.14-.716A3.046,3.046,0,0,0,320,53v2.8h2.032V53a3.049,3.049,0,0,1,.893-2.156Z" transform="translate(-265.384 -29.642)" fill="#dd1c4b"/>
      <rect id="Rect치ngulo_405717" data-name="Rect치ngulo 405717" width="5.684" height="10.105" rx="2.842" transform="translate(19.329 37.644)" fill="#66af8d"/>
      <path id="Trazado_917972" data-name="Trazado 917972" d="M56,240h2.032v10.162H56Z" transform="translate(-34.919 -195.546)" fill="#d68029"/>
      <rect id="Rect치ngulo_405718" data-name="Rect치ngulo 405718" width="6.316" height="10.105" rx="3.158" transform="translate(25.013 37.644)" fill="#66af8d"/>
      <path id="Trazado_917973" data-name="Trazado 917973" d="M104,240h2.032v10.162H104Z" transform="translate(-76.822 -195.546)" fill="#d68029"/>
      <path id="Trazado_917974" data-name="Trazado 917974" d="M353.159,364.079h-2.032v-3.343a.721.721,0,0,0-.212-.513l-.291-.291a.726.726,0,0,0-1.026,0l-1.817,1.816-1.437-1.437,1.817-1.817a2.761,2.761,0,0,1,3.9,0l.291.291a2.74,2.74,0,0,1,.808,1.951Z" transform="translate(-288.381 -298.285)" fill="#d68029"/>
      <path id="Trazado_917975" data-name="Trazado 917975" d="M228.324,346.867v-9.146l-2.032-2.032h-8.13l-3.93-3.93a2.633,2.633,0,0,0-2.694-.636l-1.505.5L208,336.7l1.42.947a2.388,2.388,0,0,0,3.013-.3l.648-.648,1.016,3.049,1.016,7.113h2.032V342.8l8.13-1.016v5.081Z" transform="translate(-167.611 -274.975)" fill="#feac4f"/>
      <path id="Trazado_917976" data-name="Trazado 917976" d="M287.039,102.711l11.011,11.011,2.915-2.834L290,99.921Z" transform="translate(-236.61 -73.261)" fill="#bc9a0c"/>
      <path id="Trazado_917977" data-name="Trazado 917977" d="M289.563,112.785l11.128-11.128-2.939-2.809L286.58,110.019Z" transform="translate(-236.209 -72.324)" fill="#bc9a0c"/>
      <path id="Trazado_917978" data-name="Trazado 917978" d="M264,424h28.454v4.065H264Z" transform="translate(-216.497 -356.173)" fill="#2993ce"/>
      <path id="Trazado_917979" data-name="Trazado 917979" d="M225.438,33.341l-4.311,4.311-9.341-7.9L217.534,24Z" transform="translate(-170.915 -6.984)" fill="#2d7a54"/>
      <path id="Trazado_917980" data-name="Trazado 917980" d="M378.173,184.639l-5.749,5.749-7.9-9.341,4.311-4.311Z" transform="translate(-304.249 -140.318)" fill="#2d7a54"/>
      <path id="Trazado_917981" data-name="Trazado 917981" d="M300.065,404.195H296V393.016L298.032,392l2.032,1.016Z" transform="translate(-244.432 -328.238)" fill="#c3e0ed"/>
      <path id="Trazado_917982" data-name="Trazado 917982" d="M221.126,176.735l4.311,4.311-7.9,9.341-5.749-5.749Z" transform="translate(-170.915 -140.318)" fill="#2d7a54"/>
      <path id="Trazado_917983" data-name="Trazado 917983" d="M372.424,24l5.749,5.749-9.341,7.9-4.311-4.311Z" transform="translate(-304.249 -6.984)" fill="#2d7a54"/>
      <path id="Trazado_917984" data-name="Trazado 917984" d="M364.065,404.195H360V393.016L362.032,392l2.032,1.016Z" transform="translate(-300.303 -328.238)" fill="#c3e0ed"/>
      <path id="Trazado_917985" data-name="Trazado 917985" d="M428.065,404.195H424V393.016L426.032,392l2.032,1.016Z" transform="translate(-356.173 -328.238)" fill="#c3e0ed"/>
      <path id="Trazado_917986" data-name="Trazado 917986" d="M18.032,308.082H16v-3.343a2.74,2.74,0,0,1,.808-1.95l.291-.291a2.761,2.761,0,0,1,3.9,0l1.817,1.817-1.437,1.437-1.816-1.817a.726.726,0,0,0-1.026,0l-.291.291a.721.721,0,0,0-.213.512Z" transform="translate(0 -249.401)" fill="#d68029"/>
      <path id="Trazado_917987" data-name="Trazado 917987" d="M40,291.2v-4.362a1.735,1.735,0,0,1,.508-1.227,1.735,1.735,0,0,0,.508-1.227v-1.611a1.735,1.735,0,0,1,.508-1.227l1.524-1.524h8.13l3.783-3.783a2.97,2.97,0,0,1,3.04-.718l1.307.436,1.558,3.9a1.572,1.572,0,0,1-.588,1.893l-.915.61a1.573,1.573,0,0,1-1.984-.2l-1.12-1.121-1.016,3.049L54.227,291.2H51.178v-4.065l-3.943-.788a2.169,2.169,0,0,0-1.96.593l-.949.949a.9.9,0,0,1-.633.262.9.9,0,0,0-.849.612l-.812,2.436Z" transform="translate(-20.951 -226.423)" fill="#feac4f"/>
      <path id="Trazado_917988" data-name="Trazado 917988" d="M328,296h4.065v4.065H328Z" transform="translate(-272.368 -244.433)" fill="#0a4566"/>
      <g id="Grupo_1120130" data-name="Grupo 1120130" transform="translate(17.016 67.827)">
        <path id="Trazado_917989" data-name="Trazado 917989" d="M24,440h2.032v2.032H24Z" transform="translate(-24 -437.968)" fill="#66af8d"/>
        <path id="Trazado_917990" data-name="Trazado 917990" d="M56,440h5.081v2.032H56Z" transform="translate(-51.935 -437.968)" fill="#66af8d"/>
        <path id="Trazado_917991" data-name="Trazado 917991" d="M152,456h2.032v2.032H152Z" transform="translate(-135.741 -451.935)" fill="#66af8d"/>
        <path id="Trazado_917992" data-name="Trazado 917992" d="M200,448h2.032v2.032H200Z" transform="translate(-177.643 -444.951)" fill="#66af8d"/>
        <path id="Trazado_917993" data-name="Trazado 917993" d="M152,424h2.032v2.032H152Z" transform="translate(-135.741 -424)" fill="#66af8d"/>
      </g>
      <path id="Trazado_917994" data-name="Trazado 917994" d="M236.581,334.781h-3.049v-2.032a1.016,1.016,0,0,0-.562-.909l-2.032-1.016a1.016,1.016,0,0,0-.909,0L228,331.84a1.016,1.016,0,0,0-.562.909v2.032H225.4v-4.36a2.74,2.74,0,0,0-.808-1.95l-.291-.291a2.761,2.761,0,0,0-3.9,0l-.082.082-.3-.3a1.016,1.016,0,0,0-.719-.3H211.6l-3.633-3.633a3.63,3.63,0,0,0-3.735-.881l-1.5.5a1.016,1.016,0,0,0-.622.587l-2.032,5.081a1.016,1.016,0,0,0,.38,1.223l1.42.946a3.415,3.415,0,0,0,3.756.014l.493,1.478,1,7.023h0a1.016,1.016,0,0,0,1,.872h3.049v3.049a1.016,1.016,0,0,0,1.016,1.016h4.065a1.016,1.016,0,0,0,1.016-1.016v-3.049h2.032v3.049a1.016,1.016,0,0,0,1.016,1.016h4.065a1.016,1.016,0,0,0,1.016-1.016v-3.049h2.032v3.049a1.016,1.016,0,0,0,1.016,1.016h4.065a1.016,1.016,0,0,0,1.016-1.016v-3.049h3.049a1.016,1.016,0,0,0,1.016-1.016V335.8A1.016,1.016,0,0,0,236.581,334.781Zm-25.405,4.065h-2.032v-2.032h2.032Zm4.065,4.065h-2.032v-9.534l1.016-.508,1.016.508Zm4.065-4.065h-2.032v-2.032h2.032Zm1.016-7.233-.454.227a1.016,1.016,0,0,0-.562.909v2.032h-2.032v-2.032a1.016,1.016,0,0,0-.562-.909l-2.032-1.016a1.016,1.016,0,0,0-.909,0l-2.032,1.016a1.016,1.016,0,0,0-.562.909v2.032h-2.748l-.311-2.176a1.008,1.008,0,0,0-.042-.178l-1.016-3.049a1.016,1.016,0,0,0-1.683-.4l-.648.648A1.375,1.375,0,0,1,203,329.8l-.734-.489,1.551-3.878,1.058-.353a1.608,1.608,0,0,1,1.654.391l3.93,3.93a1.016,1.016,0,0,0,.718.3h7.709l1.437,1.437Zm3.049,2.152v9.146h-2.032v-9.534l1.016-.508,1.016.508Zm0-2.66-.562-.281a.689.689,0,0,1-.752-.826l-.3-.3.082-.082a.726.726,0,0,1,1.026,0l.291.291a.721.721,0,0,1,.212.513Zm4.065,7.742H225.4v-2.032h2.032Zm4.065,4.065h-2.032v-9.534l1.016-.508,1.016.508Zm4.065-4.065h-2.032v-2.032h2.032Z" transform="translate(-160.625 -267.97)"/>
      <path id="Trazado_917995" data-name="Trazado 917995" d="M66.659,52.1a1.016,1.016,0,0,0,.044-.989l-1.478-2.956,2.174,2.57a1.016,1.016,0,0,0,.734.359h.042a1.016,1.016,0,0,0,.718-.3l5.749-5.749a1.016,1.016,0,0,0-.062-1.494l-9.341-7.9a1.016,1.016,0,0,0-1.375.057l-2.156-2.156,2.156-2.156a1.016,1.016,0,0,0,1.375.057l9.341-7.9a1.016,1.016,0,0,0,.062-1.494L68.894,16.3a1.016,1.016,0,0,0-1.494.062l-5.681,6.714a4.065,4.065,0,0,0-8.119.286v.334l-6.206-7.334A1.016,1.016,0,0,0,45.9,16.3l-5.749,5.749a1.016,1.016,0,0,0,.062,1.494l9.341,7.9a1.016,1.016,0,0,0,1.375-.057l2.156,2.156L50.93,35.7a1.016,1.016,0,0,0-1.375-.057l-9.341,7.9a1.016,1.016,0,0,0-.062,1.494L45.9,50.789a1.016,1.016,0,0,0,.718.3h.042a1.016,1.016,0,0,0,.733-.359l5.335-6.305-.1,2.065H51.568a1.016,1.016,0,0,0-.909.562l-2.032,4.065a1.016,1.016,0,0,0,.909,1.471H40.671L39.3,49.157a1.016,1.016,0,0,0-.622-.587l-1.307-.436a3.965,3.965,0,0,0-4.08.963l-3.485,3.485h-.6V48.39a4.072,4.072,0,0,0,3.049-3.936V40.389A4.062,4.062,0,0,0,25.146,37.7a4.062,4.062,0,0,0-7.114,2.684v4.065a4.072,4.072,0,0,0,3.049,3.936v4.789L21,53.1a2.761,2.761,0,0,0-3.9,0l-.291.291A2.74,2.74,0,0,0,16,55.337v3.343h2.032V55.337a.721.721,0,0,1,.212-.513l.291-.291a.726.726,0,0,1,1.026,0l.094.094a2.73,2.73,0,0,0-.607,1.723v1.611a.714.714,0,0,1-.21.508,2.733,2.733,0,0,0-.806,1.945v4.362a1.016,1.016,0,0,0,1.016,1.016h2.032a1.016,1.016,0,0,0,.964-.695l.785-2.356a1.9,1.9,0,0,0,1.264-.558l.949-.949a1.15,1.15,0,0,1,1.042-.315l3.126.625v3.232a1.016,1.016,0,0,0,1.016,1.016h3.049a1.016,1.016,0,0,0,1.006-.872l1-7.023.468-1.4a2.6,2.6,0,0,0,3.225.282l.915-.61a2.588,2.588,0,0,0,1.077-1.553h8.567v1.016a1.016,1.016,0,0,0,1.016,1.016H64.778a1.016,1.016,0,0,0,1.016-1.016V54.616H76.973V52.584H65.795a1.016,1.016,0,0,0,.864-.482Zm-40.5-11.713a2.032,2.032,0,0,1,4.065,0v4.065a2.032,2.032,0,0,1-1.016,1.757V44.454H27.178v1.757a2.032,2.032,0,0,1-1.016-1.757Zm-1.016,6.749a4.07,4.07,0,0,0,2.032,1.252v4.194H23.113V48.39A4.07,4.07,0,0,0,25.146,47.138Zm-5.081-2.684V40.389a2.032,2.032,0,0,1,4.065,0v4.065a2.032,2.032,0,0,1-1.016,1.757V44.454H21.081v1.757A2.032,2.032,0,0,1,20.065,44.454Zm18.7,10.024-.915.61a.558.558,0,0,1-.7-.07L36.026,53.9a1.016,1.016,0,0,0-1.683.4l-1.016,3.049a1.008,1.008,0,0,0-.042.178l-.891,6.241H31.243V60.713a1.016,1.016,0,0,0-.817-1l-3.942-.788a3.18,3.18,0,0,0-2.877.871l-.915.915a1.909,1.909,0,0,0-1.763,1.306l-.58,1.742h-.284V60.416a.714.714,0,0,1,.21-.508,2.733,2.733,0,0,0,.806-1.945V56.351a.714.714,0,0,1,.21-.508l1.227-1.227h7.709a1.016,1.016,0,0,0,.719-.3l3.783-3.783a1.943,1.943,0,0,1,2-.472l.86.287,1.383,3.459a.559.559,0,0,1-.208.67ZM62.427,37.136,60.99,38.573l-2.156-2.156,1.437-1.437ZM55.241,40.01,57.4,37.855l2.156,2.156a1.016,1.016,0,0,0-.057,1.375l.981,1.159.188,3.942h-6l.22-4.613.413-.488a1.016,1.016,0,0,0-.057-1.375Zm.719-6.467L57.4,32.106l1.437,1.437L57.4,34.98ZM68.238,18.516,72.425,22.7l-7.784,6.587-2.9-2.9-.009-.187Zm-7.248,10,1.437,1.437-2.156,2.156-1.437-1.437ZM55.632,23.36a2.032,2.032,0,0,1,4.065,0v1.786H55.632Zm-.047,3.818h3.866L57.4,29.232l-1.823-1.823Zm-5.431,2.111L42.369,22.7l4.187-4.187L53.143,26.3Zm2.213.661L53.8,28.513l2.156,2.156-1.437,1.437Zm2.156,5.03,1.437,1.437L53.8,38.573l-1.437-1.437ZM46.556,48.571l-4.187-4.187L50.154,37.8l2.989,2.989Zm8.06,6.045H51.568V52.584h3.049Zm4.065,0H56.649V52.584h2.032Zm5.081,0H60.714V52.584h3.049ZM51.179,50.551,52.2,48.519H63.134l1.016,2.032Zm11.453-5.459,1.183,1.4c-.018,0-.035,0-.053,0H62.7Zm-.981-4.306L64.64,37.8l7.785,6.587-4.187,4.187Z" transform="translate(0 0)"/>
      <path id="Trazado_917996" data-name="Trazado 917996" d="M24,440h2.032v2.032H24Z" transform="translate(-6.984 -370.141)"/>
      <path id="Trazado_917997" data-name="Trazado 917997" d="M56,440h5.081v2.032H56Z" transform="translate(-34.919 -370.141)"/>
      <path id="Trazado_917998" data-name="Trazado 917998" d="M152,456h2.032v2.032H152Z" transform="translate(-118.724 -384.108)"/>
      <path id="Trazado_917999" data-name="Trazado 917999" d="M200,448h2.032v2.032H200Z" transform="translate(-160.627 -377.125)"/>
      <path id="Trazado_918000" data-name="Trazado 918000" d="M152,424h2.032v2.032H152Z" transform="translate(-118.724 -356.173)"/>
    </g>
  </g>
</svg>
