<svg xmlns="http://www.w3.org/2000/svg" width="71" height="71" viewBox="0 0 71 71">
  <g id="Grupo_1120153" data-name="Grupo 1120153" transform="translate(-1034.051 -13434)">
    <circle id="Elipse_11673" data-name="Elipse 11673" cx="35.5" cy="35.5" r="35.5" transform="translate(1034.051 13434)" fill="#6b9339"/>
    <g id="Grupo_1120152" data-name="Grupo 1120152" transform="translate(1035.051 13391.473)">
      <g id="Grupo_1120149" data-name="Grupo 1120149" transform="translate(2.993 51.893)">
        <path id="Trazado_918031" data-name="Trazado 918031" d="M22.514,168.261a.377.377,0,0,0-.12.546c1.007,1.417,4.815,6.189,8.153,2.548C30.547,171.355,29.971,164.966,22.514,168.261Z" transform="translate(-22.325 -158.221)" fill="#80d261"/>
        <path id="Trazado_918032" data-name="Trazado 918032" d="M94.419,107.988s-4.874-2.249-.564-8.2a.657.657,0,0,1,1.128,0C99.293,105.739,94.419,107.988,94.419,107.988Z" transform="translate(-82.724 -99.47)" fill="#80d261"/>
        <path id="Trazado_918033" data-name="Trazado 918033" d="M451.206,164.237a.377.377,0,0,1,.12.546c-1.007,1.417-4.815,6.189-8.153,2.548C443.173,167.331,443.749,160.942,451.206,164.237Z" transform="translate(-386.752 -154.737)" fill="#80d261"/>
        <path id="Trazado_918034" data-name="Trazado 918034" d="M397.23,116.986s-4.874-2.249-.564-8.2a.657.657,0,0,1,1.128,0C402.1,114.737,397.23,116.986,397.23,116.986Z" transform="translate(-344.939 -107.261)" fill="#80d261"/>
      </g>
      <path id="Trazado_918035" data-name="Trazado 918035" d="M273.059,181.127a.369.369,0,0,1-.185.515c-1.573.65-7.215,2.619-8.085-2.137C264.79,179.505,268.6,174.51,273.059,181.127Z" transform="translate(-229.291 -115.317)" fill="#97da7b"/>
      <path id="Trazado_918036" data-name="Trazado 918036" d="M74.131,234.279v23.164a1.633,1.633,0,0,1-1.633,1.633H9.133A1.633,1.633,0,0,1,7.5,257.443V234.279a1.633,1.633,0,0,1,1.633-1.633h3.259c3.121,0,5.983-4.673,13.365-4.673s10.505,4.673,13.365,4.673h3.386c3.122,0,5.983-4.673,13.365-4.673s10.507,4.673,13.365,4.673H72.5A1.633,1.633,0,0,1,74.131,234.279Z" transform="translate(-6.494 -158.852)" fill="#bc7c63"/>
      <g id="Grupo_1120150" data-name="Grupo 1120150" transform="translate(17.255 69.121)">
        <path id="Trazado_918037" data-name="Trazado 918037" d="M364.7,232.647h4.022c-2.858,0-5.983-4.673-13.365-4.673a16.28,16.28,0,0,0-2.008.122C359.31,228.83,362.112,232.647,364.7,232.647Z" transform="translate(-323.228 -227.974)" fill="#aa6a51"/>
        <path id="Trazado_918038" data-name="Trazado 918038" d="M140.056,232.647h3.387a3.242,3.242,0,0,0,.331-.019c-2.781-.308-5.94-4.654-13.06-4.654a16.28,16.28,0,0,0-2.008.122C134.67,228.83,137.471,232.647,140.056,232.647Z" transform="translate(-128.705 -227.974)" fill="#aa6a51"/>
        <path id="Trazado_918039" data-name="Trazado 918039" d="M466.34,262.829h-2.65c.387,0,.261.731.261,1.633v23.164a1.633,1.633,0,0,1-1.633,1.633h4.022a1.633,1.633,0,0,0,1.633-1.633V264.462A1.633,1.633,0,0,0,466.34,262.829Z" transform="translate(-417.592 -258.156)" fill="#aa6a51"/>
      </g>
      <path id="Trazado_918040" data-name="Trazado 918040" d="M443.481,398.308a2.378,2.378,0,0,0-3.092,3.611,2.377,2.377,0,1,0,3.092-3.611Z" transform="translate(-380.583 -305.801)" fill="#935b44"/>
      <path id="Trazado_918041" data-name="Trazado 918041" d="M61.322,380.008a2.378,2.378,0,0,0-3.092,3.611,2.377,2.377,0,1,0,3.092-3.611Z" transform="translate(-49.658 -289.954)" fill="#935b44"/>
      <path id="Trazado_918042" data-name="Trazado 918042" d="M406.948,298.212a2.378,2.378,0,0,0-3.092,3.611,2.377,2.377,0,1,0,3.092-3.611Z" transform="translate(-348.948 -219.124)" fill="#935b44"/>
      <path id="Trazado_918043" data-name="Trazado 918043" d="M242.319,345.336a2.11,2.11,0,0,0,0,1.667,2.607,2.607,0,0,1,.213,1.036,2.468,2.468,0,1,1-4.934,0,2.607,2.607,0,0,1,.213-1.036,2.111,2.111,0,0,0,0-1.667,2.607,2.607,0,0,1-.213-1.036,2.468,2.468,0,1,1,4.934,0A2.607,2.607,0,0,1,242.319,345.336Z" transform="translate(-205.744 -257.38)" fill="#ffd15b"/>
      <path id="Trazado_918044" data-name="Trazado 918044" d="M158.64,313.169a2.111,2.111,0,0,0-1.557.594,2.606,2.606,0,0,1-.892.568,2.468,2.468,0,1,1-1.759-4.61,2.605,2.605,0,0,1,1.044-.17,2.111,2.111,0,0,0,1.557-.594,2.606,2.606,0,0,1,.892-.568,2.468,2.468,0,1,1,1.759,4.61A2.605,2.605,0,0,1,158.64,313.169Z" transform="translate(-132.294 -228.337)" fill="#ffd15b"/>
      <path id="Trazado_918045" data-name="Trazado 918045" d="M298.51,313.169a2.11,2.11,0,0,1,1.557.594,2.606,2.606,0,0,0,.892.568,2.468,2.468,0,1,0,1.759-4.61,2.605,2.605,0,0,0-1.044-.17,2.11,2.11,0,0,1-1.557-.594,2.606,2.606,0,0,0-.892-.568,2.468,2.468,0,1,0-1.759,4.61A2.605,2.605,0,0,0,298.51,313.169Z" transform="translate(-256.152 -228.337)" fill="#ffd15b"/>
      <path id="Trazado_918046" data-name="Trazado 918046" d="M318.071,92.971a.421.421,0,0,1,.134.61c-1.125,1.584-5.38,6.915-9.111,2.847C309.095,96.428,309.738,89.289,318.071,92.971Z" transform="translate(-267.656 -41.035)" fill="#97da7b"/>
      <path id="Trazado_918047" data-name="Trazado 918047" d="M157.153,128.844a.421.421,0,0,0-.134.61c1.125,1.584,5.38,6.915,9.111,2.847C166.13,132.3,165.487,125.162,157.153,128.844Z" transform="translate(-135.902 -72.099)" fill="#97da7b"/>
      <path id="Trazado_918048" data-name="Trazado 918048" d="M239.086,61.493s-5.446-2.513-.63-9.162a.735.735,0,0,1,1.26,0C244.533,58.979,239.086,61.493,239.086,61.493Z" transform="translate(-204.766 -6.448)" fill="#97da7b"/>
      <g id="Grupo_1120151" data-name="Grupo 1120151" transform="translate(0 44.527)">
        <path id="Trazado_918049" data-name="Trazado 918049" d="M191.793,72.789h-3.259a7.367,7.367,0,0,1-3.111-1.39,30.628,30.628,0,0,0-3.121-1.714c.475-2.518,1.561-3.378,2.718-3.977a4.308,4.308,0,0,0,3.149,1.119c2.786-.173,5.13-3.068,6.008-4.3a1.39,1.39,0,0,0,.2-1.18,1.324,1.324,0,0,0-.737-.869c-2.823-1.248-5.132-1.363-6.863-.344a5.649,5.649,0,0,0-2.483,3.7,7.893,7.893,0,0,0-2.218,1.625V62.188a5.3,5.3,0,0,0,2.179-3c.493-1.885-.115-4.026-1.807-6.361a1.668,1.668,0,0,0-2.756,0c-1.692,2.335-2.3,4.476-1.807,6.361a5.3,5.3,0,0,0,2.179,3v6.643a17.507,17.507,0,0,0-14.926,2.5,7.45,7.45,0,0,1-3.339,1.458h-.688V69.121q0-1.326.119-2.522a4.043,4.043,0,0,0,1.282,1.091c2.048,1.232,5.725.25,7.239-.435a1.382,1.382,0,0,0,.8-.884,1.317,1.317,0,0,0-.161-1.122h0c-1.694-2.511-3.553-3.814-5.524-3.871a4.921,4.921,0,0,0-2.588.684,10.442,10.442,0,0,1,4.753-5.456c3.89,3.517,8.439-.966,10.127-3.478a1.436,1.436,0,0,0,.21-1.218,1.362,1.362,0,0,0-.757-.894h0c-3.118-1.378-5.662-1.509-7.561-.391a6.2,6.2,0,0,0-2.724,4.075,12.234,12.234,0,0,0-5.21,5.06V55.619c3.41-2.237,3.363-6.489.439-10.326a1.745,1.745,0,0,0-2.888,0c-1.869,2.58-2.542,4.938-2,7.009a5.818,5.818,0,0,0,2.439,3.317v5.8a8.374,8.374,0,0,0-2.157-1.774,6.258,6.258,0,0,0-2.753-4.212c-1.9-1.118-4.442-.987-7.561.391h0a1.432,1.432,0,0,0-.548,2.112c.972,1.368,3.563,4.569,6.625,4.76a4.694,4.694,0,0,0,3.411-1.2c2.11,1.316,2.981,2.914,2.981,9.43v1.864h-.688a7.367,7.367,0,0,1-3.112-1.39,30.484,30.484,0,0,0-3.148-1.728,1.005,1.005,0,1,0-.838,1.828,28.8,28.8,0,0,1,2.945,1.62c1.49.9,2.776,1.681,4.154,1.681h.688v3.885l-3.986,1.52a3.44,3.44,0,0,0-1.362-1.044,3.62,3.62,0,0,0-3.929.738,1.107,1.107,0,0,1-.812.31,3.618,3.618,0,0,0-1.446.236,3.57,3.57,0,0,0-1.977,1.831,3.411,3.411,0,0,0-.1,2.679,3.524,3.524,0,0,0,4.555,1.979,3.594,3.594,0,0,0,1.236-.787,1.1,1.1,0,0,1,.812-.31h0a3.607,3.607,0,0,0,1.446-.236,3.57,3.57,0,0,0,1.977-1.831,3.439,3.439,0,0,0,.321-1.686l3.269-1.247v2.685a3.6,3.6,0,0,0-2.172,4.833,1.1,1.1,0,0,1,0,.869,3.505,3.505,0,1,0,6.354,0,1.1,1.1,0,0,1,0-.869,3.6,3.6,0,0,0,.3-1.435,3.547,3.547,0,0,0-2.467-3.4V80.813l3.332,1.271a3.442,3.442,0,0,0,.321,1.686,3.616,3.616,0,0,0,3.422,2.067h0a1.1,1.1,0,0,1,.812.31,3.617,3.617,0,0,0,3.929.738,3.419,3.419,0,0,0,1.758-4.609,3.617,3.617,0,0,0-3.423-2.067,1.089,1.089,0,0,1-.812-.31,3.617,3.617,0,0,0-3.929-.738,3.44,3.44,0,0,0-1.362,1.044l-4.049-1.545V74.8h.688c1.513,0,2.844-.812,4.386-1.752a15.44,15.44,0,0,1,13.879-2.1v.613c-.039.8-.04,1.691,0,2.677v4.15a4.534,4.534,0,0,0-.339.355,3.137,3.137,0,0,0,.315,4.723,3.383,3.383,0,1,0,4.4-5.139h0a3.294,3.294,0,0,0-2.365-.871V71.81c2.133,1.007,4.286,2.968,6.454,2.99h3.259a.628.628,0,0,1,.628.628V98.591a.628.628,0,0,1-.628.628H181.2a1.006,1.006,0,0,0,0,2.011h10.593a2.642,2.642,0,0,0,2.638-2.639V75.427a2.641,2.641,0,0,0-2.638-2.639Zm-3.979-10.933c.985-.574,2.441-.522,4.24.142-1.126,1.4-2.648,2.736-4.01,2.821a2.378,2.378,0,0,1-1.757-.674,3.606,3.606,0,0,1,1.526-2.289Zm-23,1.532c1.108.032,2.28.822,3.419,2.3-1.653.568-3.588.873-4.748.24a2.3,2.3,0,0,1-1.091-1.45A3.525,3.525,0,0,1,164.81,63.387Zm5.274-11.037c1.178-.687,2.855-.618,4.992.206-.932,1.185-2.787,3.208-4.667,3.325a2.793,2.793,0,0,1-2.1-.83A4.188,4.188,0,0,1,170.084,52.35Zm-17.246,8.34c-1.879-.117-3.735-2.14-4.667-3.325,2.137-.823,3.814-.893,4.992-.206a4.189,4.189,0,0,1,1.776,2.7A2.79,2.79,0,0,1,152.838,60.69Zm7.273-13.958c1.957,2.722,2.3,5.53,0,7.138a3.788,3.788,0,0,1-1.5-2.1C158.252,50.376,158.757,48.683,160.111,46.732ZM153.693,82.92a1.569,1.569,0,0,1-.871.8,1.589,1.589,0,0,1-.642.105,3.12,3.12,0,0,0-2.3.878,1.6,1.6,0,0,1-.549.349,1.5,1.5,0,0,1-1.959-.817,1.417,1.417,0,0,1,.047-1.112,1.569,1.569,0,0,1,.871-.8,1.592,1.592,0,0,1,.642-.105,3.115,3.115,0,0,0,2.3-.878,1.606,1.606,0,0,1,1.733-.33,1.408,1.408,0,0,1,.729,1.911Zm13.627-1.911a1.606,1.606,0,0,1,1.733.33,3.117,3.117,0,0,0,2.3.878,1.605,1.605,0,0,1,1.513.908,1.408,1.408,0,0,1-.729,1.911,1.569,1.569,0,0,1-1.184.018,1.6,1.6,0,0,1-.549-.349,3.119,3.119,0,0,0-2.3-.878,1.606,1.606,0,0,1-1.513-.907,1.409,1.409,0,0,1,.729-1.911Zm-5.748,5.911a1.6,1.6,0,0,1-.13.637h0a3.119,3.119,0,0,0,0,2.465,1.6,1.6,0,0,1,.13.637,1.5,1.5,0,0,1-1.461,1.539,1.547,1.547,0,0,1-1.331-2.177,3.118,3.118,0,0,0,0-2.465,1.547,1.547,0,0,1,1.331-2.176,1.5,1.5,0,0,1,1.461,1.539Zm21.564-7.069a1.372,1.372,0,1,1-1.784,2.084c-.46-.394-.886-.964-.1-1.887A1.159,1.159,0,0,1,183.136,79.852Zm-2.062-25.486c1.618,2.324,1.924,4.663,0,6.071a3.26,3.26,0,0,1-1.245-1.777C179.529,57.472,179.947,56.029,181.074,54.366Z" transform="translate(-125.79 -44.527)"/>
        <path id="Trazado_918050" data-name="Trazado 918050" d="M50.471,140.343H2.638a.628.628,0,0,1-.628-.628V116.551a.628.628,0,0,1,.628-.628H5.9c1.512,0,2.843-.812,4.385-1.752A25.1,25.1,0,0,1,13.56,112.4c.083.915.122,2.011.122,3.343v2.623a1.006,1.006,0,0,0,2.011,0v-6.689a15.312,15.312,0,0,1,5.62-.3,1.006,1.006,0,0,0,.267-1.993,17.452,17.452,0,0,0-5.887.224V102.1c3.066-2.059,3.007-5.9.372-9.359a1.668,1.668,0,0,0-2.756,0c-2.635,3.46-2.691,7.3.373,9.359v4.86a7.5,7.5,0,0,0-1.515-1.243,5.745,5.745,0,0,0-2.53-3.929c-1.73-1.019-4.039-.9-6.862.344h0a1.325,1.325,0,0,0-.737.869,1.39,1.39,0,0,0,.2,1.179c.878,1.236,3.222,4.131,6.008,4.3a4.259,4.259,0,0,0,2.982-.982,4.326,4.326,0,0,1,2,2.857,25.12,25.12,0,0,0-4,2.091A7.448,7.448,0,0,1,5.9,113.912H2.638A2.642,2.642,0,0,0,0,116.551v23.164a2.642,2.642,0,0,0,2.638,2.639H50.471a1.006,1.006,0,0,0,0-2.011ZM14.688,94.283c1.127,1.663,1.546,3.106,1.245,4.293a3.259,3.259,0,0,1-1.245,1.777C12.763,98.944,13.07,96.61,14.688,94.283Zm-6.313,12.2c-1.362-.085-2.884-1.418-4.01-2.821,1.8-.665,3.255-.716,4.24-.142a3.608,3.608,0,0,1,1.526,2.289,2.378,2.378,0,0,1-1.757.674Z" transform="translate(0 -85.651)"/>
        <path id="Trazado_918051" data-name="Trazado 918051" d="M435.477,397.093a3.013,3.013,0,0,0,.345-.02,3.673,3.673,0,0,0,3.075-3.591,3.328,3.328,0,0,0-1.272-2.429,3.182,3.182,0,0,0-2.591-.846,3.864,3.864,0,0,0-3.044,3.556,3.183,3.183,0,0,0,1.235,2.429A3.418,3.418,0,0,0,435.477,397.093Zm-1.039-4.317a1.59,1.59,0,0,1,.891-.581,1.262,1.262,0,0,1,.988.385h0a1.4,1.4,0,0,1,.57.98,1.688,1.688,0,0,1-1.3,1.516,1.4,1.4,0,0,1-1.056-.412,1.269,1.269,0,0,1-.532-.917A1.591,1.591,0,0,1,434.438,392.776Z" transform="translate(-374.073 -343.836)"/>
        <path id="Trazado_918052" data-name="Trazado 918052" d="M55.471,372.75a3.181,3.181,0,0,0-2.591-.846,3.864,3.864,0,0,0-3.044,3.556,3.454,3.454,0,0,0,6.024,2.076,3.4,3.4,0,0,0,.883-2.356A3.327,3.327,0,0,0,55.471,372.75Zm-1.139,3.478a1.227,1.227,0,0,1-1.953.134,1.269,1.269,0,0,1-.532-.917,1.893,1.893,0,0,1,1.328-1.551,1.262,1.262,0,0,1,.988.385A1.244,1.244,0,0,1,54.332,376.228Z" transform="translate(-43.153 -327.987)"/>
      </g>
    </g>
  </g>
</svg>
