<svg xmlns="http://www.w3.org/2000/svg" xmlns:xlink="http://www.w3.org/1999/xlink" width="505.051" height="178.409" viewBox="0 0 505.051 178.409">
  <defs>
    <clipPath id="clip-path">
      <rect id="BG" width="505.051" height="178.409" rx="10" transform="translate(915.024 8437)" fill="#12263f" opacity="0.998"/>
    </clipPath>
    <clipPath id="clip-path-2">
      <circle id="Elipse_12029" data-name="Elipse 12029" cx="81.223" cy="81.223" r="81.223" transform="translate(0 114.867) rotate(-45)" fill="none"/>
    </clipPath>
    <linearGradient id="linear-gradient" x1="0.885" y1="0.401" x2="0.072" y2="0.53" gradientUnits="objectBoundingBox">
      <stop offset="0" stop-color="#fff"/>
      <stop offset="1"/>
    </linearGradient>
  </defs>
  <g id="Grupo_1123656" data-name="Grupo 1123656" transform="translate(-915.075 -8437)">
    <path id="BG-2" data-name="BG" d="M10,0H495.051a10,10,0,0,1,10,10V168.409a10,10,0,0,1-10,10H10a10,10,0,0,1-10-10V10A10,10,0,0,1,10,0Z" transform="translate(915.075 8437)" fill="#4c6929" opacity="0.998"/>
    <g id="Enmascarar_grupo_1098800" data-name="Enmascarar grupo 1098800" transform="translate(0.051)" clip-path="url(#clip-path)">
      <g id="Grupo_1123654" data-name="Grupo 1123654" transform="translate(1046.704 8342.898)">
        <path id="Trazado_920805" data-name="Trazado 920805" d="M328.52,381c-.068-.25-.136-.5-.208-.754l-.03-.106q-.154-.543-.317-1.1l-.061-.211c-.127-.433-.258-.872-.4-1.319s-.267-.855-.4-1.27c-.029-.09-.059-.18-.088-.269q-.724-2.2-1.488-4.06l-.069-.169q-.15-.365-.3-.717l-.094-.219q-.145-.331-.291-.651c-.031-.069-.062-.139-.094-.207a35.8,35.8,0,0,0-2.424-4.464l-7.685-.062,6.714-1.335c-.364-.488-.728-.936-1.092-1.351l-5.528,1.542,1.188-.583L300.3,367.569a4.2,4.2,0,0,0-.038.749,13.484,13.484,0,0,0,1.023,4.107h0q.16.414.325.824.5,1.227,1.021,2.442l0,0q.719,1.669,1.479,3.321l8.521-5.558v0l-7.828,7.042q.5,1.051,1.023,2.092l.205.408h0l.049.1q.477.95.972,1.929l.181.359h0q.478.941.976,1.9h0l.031.057q.594,1.138,1.223,2.283l.207.371q.565,1.019,1.16,2.032c.047.08.09.161.137.24h0c.2.335.407.665.611,1A43.216,43.216,0,0,0,328.52,381Z" transform="translate(-152.009 -126.881)" fill="#3b3f11" opacity="0.37" style="mix-blend-mode: multiply;isolation: isolate"/>
        <path id="Trazado_920806" data-name="Trazado 920806" d="M109.656,263.84a74.368,74.368,0,0,0-14.785-6.229,117.266,117.266,0,0,0,.309,14.939c1.439.029,2.875.067,4.3.117a36.533,36.533,0,0,0-4.183,1.069A54.747,54.747,0,0,0,98.111,287a40.928,40.928,0,0,0,14.8-6.013Z" transform="translate(-61.65 -80.656)" fill="#3b3f11" opacity="0.55" style="mix-blend-mode: multiply;isolation: isolate"/>
        <path id="Trazado_920807" data-name="Trazado 920807" d="M369.856,281.474a42.4,42.4,0,0,0,15.489,5.774,65.129,65.129,0,0,0,2.331-13.221,36.378,36.378,0,0,0-5.192-1.405c1.75-.062,3.521-.105,5.294-.134a85.078,85.078,0,0,0-.485-14.978,73.46,73.46,0,0,0-14.171,5.842Z" transform="translate(-182.612 -80.611)" fill="#3b3f11" opacity="0.55" style="mix-blend-mode: multiply;isolation: isolate"/>
        <g id="Grupo_1123632" data-name="Grupo 1123632" transform="translate(-1.491 96.513)">
          <g id="Grupo_1123618" data-name="Grupo 1123618" transform="translate(80.718 134.624)">
            <g id="Grupo_1123617" data-name="Grupo 1123617">
              <path id="Trazado_920808" data-name="Trazado 920808" d="M195.348,383.8l9.155,5.226q-.268,1.134-.555,2.261a110.281,110.281,0,0,1-4.5,14.68l-8.8-.308,8.074,1.99c-.319.7-.653,1.386-1.006,2.059l-8.053-2.374,6.721,4.693a26.337,26.337,0,0,1-3.321,4.3c-1.4,1.447-3.543,3.2-5.729,2.784,0,0-4.6,2.7,10.3-50.191,0,0,8.022,2.885,8.732,7.245a15.544,15.544,0,0,1-.271,5.1c-.355,2.064-.766,4.117-1.223,6.16Z" transform="translate(-181.286 -360.733)" fill="#6fb590"/>
              <path id="Trazado_920809" data-name="Trazado 920809" d="M183.112,418.805s-5.444-.731-6-16.535l6.405,1.579-6.449-3.938c-.011-2.694.109-5.769.4-9.284a47.945,47.945,0,0,1,2.58-12.867l7.5-1.692-6.844.121c.252-.555.513-1.07.78-1.552l5.729.333-5.17-1.275c4.787-7.533,11.37-5.082,11.37-5.082C182.752,404.645,183.112,418.805,183.112,418.805Z" transform="translate(-177.068 -360.434)" fill="#84d1a6"/>
              <path id="Trazado_920810" data-name="Trazado 920810" d="M177.2,411.291c.063-1.656.169-3.428.326-5.334q.124-1.5.293-2.86l9.555,3.844q-.8,3.5-1.41,6.511Z" transform="translate(-177.126 -375.764)" fill="#6fb590"/>
              <path id="Trazado_920811" data-name="Trazado 920811" d="M178.816,396.343q.336-2.135.778-3.939l9.7,4.764q-.462,1.872-.872,3.623Z" transform="translate(-177.837 -371.063)" fill="#6fb590"/>
              <path id="Trazado_920812" data-name="Trazado 920812" d="M203.6,420.806l-10.972-.965,1.914-7.766,10.7,3.275C204.746,417.154,204.208,418.987,203.6,420.806Z" transform="translate(-183.911 -379.713)" fill="#3b3f11" opacity="0.37" style="mix-blend-mode: multiply;isolation: isolate"/>
              <path id="Trazado_920813" data-name="Trazado 920813" d="M207.254,407.2l-11.3-3.85,1.964-5.131,10,6.395C207.705,405.456,207.483,406.32,207.254,407.2Z" transform="translate(-185.374 -373.618)" fill="#3b3f11" opacity="0.37" style="mix-blend-mode: multiply;isolation: isolate"/>
              <path id="Trazado_920814" data-name="Trazado 920814" d="M203.812,381.79l1.34-5.436,8.621,7.306q-.068.439-.143.874c-.149.87-.311,1.737-.48,2.6Z" transform="translate(-188.828 -364.005)" fill="#3b3f11" opacity="0.37" style="mix-blend-mode: multiply;isolation: isolate"/>
              <path id="Trazado_920815" data-name="Trazado 920815" d="M187.856,412.685s.881-28.079,11.986-56.446c3.368-1.765,3.636-1.925,3.636-1.925S188.856,394.991,187.856,412.685Z" transform="translate(-181.812 -354.314)" fill="#2e6042"/>
            </g>
            <path id="Trazado_920816" data-name="Trazado 920816" d="M178.605,394.51c-.023.108-.045.215-.068.323q-.135.67-.259,1.377c-.022.125-.043.254-.064.381-.028.169-.058.334-.085.506l.006,0q-.155.988-.286,2.051l-.006,0c-.021.17-.039.348-.059.521-.021.188-.043.375-.063.566-.062.577-.12,1.164-.171,1.773q-.057.7-.106,1.372c-.006.075-.01.148-.015.222-.027.384-.053.764-.076,1.137l-.007.124q-.038.614-.067,1.21v.013c-.009.177-.015.347-.023.522a91.714,91.714,0,0,0,19.024,7.9c.191-.532.38-1.064.559-1.6h0c.029-.088.054-.177.083-.265q.367-1.116.7-2.233c.04-.134.082-.268.122-.4q.371-1.252.711-2.492c.006-.021.012-.041.018-.062h0q.285-1.04.551-2.06h0c.034-.129.065-.252.1-.381q.278-1.065.543-2.1c.009-.034.018-.071.027-.1h0l.114-.443q.289-1.128.555-2.261l-4.085-2.332-17.59-3.653C178.664,394.253,178.633,394.377,178.605,394.51Z" transform="translate(-177.151 -371.818)" fill="#3b3f11" opacity="0.37" style="mix-blend-mode: multiply;isolation: isolate"/>
          </g>
          <g id="Grupo_1123619" data-name="Grupo 1123619" transform="translate(149.739 129.127)">
            <path id="Trazado_920817" data-name="Trazado 920817" d="M312.644,370.812l-7.837,7.051q.5,1.051,1.023,2.091a110.243,110.243,0,0,0,7.513,13.39l8.537-2.169-7.467,3.659q.69.922,1.421,1.8l7.365-4.03-5.571,6.013a26.349,26.349,0,0,0,4.158,3.495c1.671,1.117,4.142,2.377,6.19,1.5,0,0,5.064,1.66-20.717-46.861,0,0-7.227,4.521-7,8.933a15.532,15.532,0,0,0,1.348,4.931q1.177,2.912,2.5,5.76Z" transform="translate(-300.256 -349.889)" fill="#6fb590"/>
            <path id="Trazado_920818" data-name="Trazado 920818" d="M333.468,402.732s5.164-1.87,2.353-17.432l-5.924,2.9,5.467-5.217c-.562-2.635-1.331-5.614-2.361-8.988a47.9,47.9,0,0,0-5.252-12.025l-7.685-.062,6.714-1.335c-.364-.488-.728-.936-1.092-1.351l-5.528,1.542,4.782-2.343c-6.276-6.345-12.19-2.552-12.19-2.552C330.815,388.817,333.468,402.732,333.468,402.732Z" transform="translate(-305.75 -349.007)" fill="#84d1a6"/>
            <path id="Trazado_920819" data-name="Trazado 920819" d="M342.958,392.1c-.413-1.605-.893-3.314-1.451-5.143q-.438-1.435-.893-2.733l-8.521,5.784q1.528,3.252,2.759,6.063Z" transform="translate(-314.255 -361.971)" fill="#6fb590"/>
            <path id="Trazado_920820" data-name="Trazado 920820" d="M338.127,377.867q-.782-2.014-1.6-3.685l-8.465,6.714q.849,1.732,1.621,3.356Z" transform="translate(-312.484 -357.553)" fill="#6fb590"/>
            <path id="Trazado_920821" data-name="Trazado 920821" d="M317.214,407.223l10.518-3.272-3.519-7.182-9.756,5.471C315.32,403.9,316.235,405.574,317.214,407.223Z" transform="translate(-306.5 -367.485)" fill="#3b3f11" opacity="0.37" style="mix-blend-mode: multiply;isolation: isolate"/>
            <path id="Trazado_920822" data-name="Trazado 920822" d="M311.771,394.707l10.222-6.16-3.008-4.6-8.416,8.372Q311.156,393.493,311.771,394.707Z" transform="translate(-304.791 -361.848)" fill="#3b3f11" opacity="0.37" style="mix-blend-mode: multiply;isolation: isolate"/>
            <path id="Trazado_920823" data-name="Trazado 920823" d="M311.429,369.045l-2.464-5.028-6.874,8.97q.16.414.325.824.5,1.227,1.021,2.442Z" transform="translate(-301.063 -353.083)" fill="#3b3f11" opacity="0.37" style="mix-blend-mode: multiply;isolation: isolate"/>
            <path id="Trazado_920824" data-name="Trazado 920824" d="M328.022,398.228s-6.822-27.251-23.695-52.615c-3.667-1.01-3.961-1.109-3.961-1.109S323.288,381.15,328.022,398.228Z" transform="translate(-300.305 -344.503)" fill="#2e6042"/>
          </g>
          <g id="Grupo_1123621" data-name="Grupo 1123621" transform="translate(0 78.515)">
            <path id="Trazado_920825" data-name="Trazado 920825" d="M88.238,265.817s-21.19-14.95-39.584-10.972S27.5,272.425,43.47,271.479s42.948-.828,53.55,2.7Z" transform="translate(-33.002 -254.171)" fill="#6fb590"/>
            <g id="Grupo_1123620" data-name="Grupo 1123620" transform="translate(15.734 16.302)">
              <path id="Trazado_920826" data-name="Trazado 920826" d="M105.017,285.512S79.9,275.134,61.085,299.005C95.292,302.749,105.017,285.512,105.017,285.512Z" transform="translate(-61.085 -283.267)" fill="#326347"/>
              <path id="Trazado_920827" data-name="Trazado 920827" d="M108.417,287.273s-24.3-.112-39.6,11.556" transform="translate(-64.485 -285.028)" fill="none" stroke="#6fb590" stroke-miterlimit="10" stroke-width="0.668"/>
              <path id="Trazado_920828" data-name="Trazado 920828" d="M116.565,288.782s-3.807,4.922-5.2,9.594" transform="translate(-83.193 -285.692)" fill="none" stroke="#6fb590" stroke-miterlimit="10" stroke-width="0.668"/>
              <path id="Trazado_920829" data-name="Trazado 920829" d="M92.645,292.309a62.619,62.619,0,0,1-7.334-1.59" transform="translate(-71.737 -286.544)" fill="none" stroke="#6fb590" stroke-miterlimit="10" stroke-width="0.668"/>
            </g>
            <path id="Trazado_920830" data-name="Trazado 920830" d="M100.929,278.448S71.987,255.6,41.9,267.121" transform="translate(-36.913 -258.437)" fill="none" stroke="#448260" stroke-miterlimit="10" stroke-width="0.614"/>
            <path id="Trazado_920831" data-name="Trazado 920831" d="M60.381,264.111a27.9,27.9,0,0,0-8.486,11.083" transform="translate(-41.31 -258.542)" fill="none" stroke="#448260" stroke-miterlimit="10" stroke-width="0.614"/>
            <path id="Trazado_920832" data-name="Trazado 920832" d="M81.958,261.008a21.348,21.348,0,0,0-10.114-5.351" transform="translate(-50.082 -254.825)" fill="none" stroke="#448260" stroke-miterlimit="10" stroke-width="0.614"/>
            <path id="Trazado_920833" data-name="Trazado 920833" d="M101.02,270.339A19.458,19.458,0,0,0,89.553,275.8" transform="translate(-57.868 -261.281)" fill="none" stroke="#448260" stroke-miterlimit="10" stroke-width="0.614"/>
          </g>
          <g id="Grupo_1123623" data-name="Grupo 1123623" transform="translate(176.665 78.515)">
            <path id="Trazado_920834" data-name="Trazado 920834" d="M357.094,265.817s21.19-14.95,39.584-10.972,21.156,17.58,5.184,16.634-42.948-.828-53.549,2.7Z" transform="translate(-348.313 -254.171)" fill="#6fb590"/>
            <g id="Grupo_1123622" data-name="Grupo 1123622" transform="translate(4.351 16.302)">
              <path id="Trazado_920835" data-name="Trazado 920835" d="M356.078,285.512s25.113-10.377,43.932,13.494C365.8,302.749,356.078,285.512,356.078,285.512Z" transform="translate(-356.078 -283.267)" fill="#326347"/>
              <path id="Trazado_920836" data-name="Trazado 920836" d="M356.078,287.273s24.3-.112,39.6,11.556" transform="translate(-356.078 -285.028)" fill="none" stroke="#6fb590" stroke-miterlimit="10" stroke-width="0.668"/>
              <path id="Trazado_920837" data-name="Trazado 920837" d="M374.924,288.782s3.808,4.922,5.2,9.594" transform="translate(-364.365 -285.692)" fill="none" stroke="#6fb590" stroke-miterlimit="10" stroke-width="0.668"/>
              <path id="Trazado_920838" data-name="Trazado 920838" d="M397.171,292.309a62.618,62.618,0,0,0,7.334-1.59" transform="translate(-374.147 -286.544)" fill="none" stroke="#6fb590" stroke-miterlimit="10" stroke-width="0.668"/>
            </g>
            <path id="Trazado_920839" data-name="Trazado 920839" d="M348.313,278.448s28.942-22.853,59.034-11.327" transform="translate(-348.313 -258.437)" fill="none" stroke="#448260" stroke-miterlimit="10" stroke-width="0.614"/>
            <path id="Trazado_920840" data-name="Trazado 920840" d="M428.532,264.111a27.9,27.9,0,0,1,8.486,11.083" transform="translate(-383.586 -258.542)" fill="none" stroke="#448260" stroke-miterlimit="10" stroke-width="0.614"/>
            <path id="Trazado_920841" data-name="Trazado 920841" d="M405.676,261.008a21.352,21.352,0,0,1,10.114-5.351" transform="translate(-373.536 -254.825)" fill="none" stroke="#448260" stroke-miterlimit="10" stroke-width="0.614"/>
            <path id="Trazado_920842" data-name="Trazado 920842" d="M385.553,270.339a19.456,19.456,0,0,1,11.466,5.458" transform="translate(-364.688 -261.281)" fill="none" stroke="#448260" stroke-miterlimit="10" stroke-width="0.614"/>
          </g>
          <g id="Grupo_1123624" data-name="Grupo 1123624" transform="translate(60.709)">
            <path id="Trazado_920843" data-name="Trazado 920843" d="M147.908,125.787a11.661,11.661,0,0,1-5.737-2.018c-2.2-1.792.17-6.246,5.557-2.352-4.162-4.608-2.186-6.288-.264-7.149,2.668-1.2,4.224,5.751,4.224,5.751s-1.066-5.764,1.84-5.976,3.848,5.463.94,8.69C151.225,126.179,147.908,125.787,147.908,125.787Z" transform="translate(-141.356 -114.038)" fill="#ffcb57"/>
            <path id="Trazado_920844" data-name="Trazado 920844" d="M162.3,138.441s1.086,8.4,12.455,14.486" transform="translate(-150.567 -124.768)" fill="none" stroke="#59916f" stroke-miterlimit="10" stroke-width="1.196"/>
            <path id="Trazado_920845" data-name="Trazado 920845" d="M167.9,145.672s-1.5-5.011,1.723-6.64C170.6,141.366,168.9,145.254,167.9,145.672Z" transform="translate(-152.873 -125.028)" fill="#2e6042"/>
            <path id="Trazado_920846" data-name="Trazado 920846" d="M166.025,153.9s-4.877-1.432-6.517.545A5.805,5.805,0,0,0,166.025,153.9Z" transform="translate(-149.338 -131.347)" fill="#2e6042"/>
            <path id="Trazado_920847" data-name="Trazado 920847" d="M151.572,129.146S148,127.391,148.345,126s4.427.042,4.427.042-2.729-3.552-.9-4.295,2.857,3.728,2.857,3.728.684-3.6,2.619-3.676-.268,4.993-.268,4.993A23.54,23.54,0,0,1,151.572,129.146Z" transform="translate(-144.419 -117.391)" fill="#bf7a4b"/>
            <path id="Trazado_920848" data-name="Trazado 920848" d="M153.051,132.612s5.105-1.452,6.559-3.054c1.391,5.039,1.277,5.354-1.389,6.444S153.7,133.917,153.051,132.612Z" transform="translate(-146.498 -120.862)" fill="#2e6042"/>
          </g>
          <g id="Grupo_1123625" data-name="Grupo 1123625" transform="translate(154.777 0.212)">
            <path id="Trazado_920849" data-name="Trazado 920849" d="M327.664,133.789s-7.381,15.322-18.416,16.456" transform="translate(-309.248 -122.935)" fill="none" stroke="#265a4d" stroke-miterlimit="10" stroke-width="1.129"/>
            <path id="Trazado_920850" data-name="Trazado 920850" d="M329.558,145.485s2.385-4.321-.264-6.467C327.93,140.976,328.719,144.9,329.558,145.485Z" transform="translate(-317.738 -125.234)" fill="#59916f"/>
            <path id="Trazado_920851" data-name="Trazado 920851" d="M327.839,153.29s4.783-.347,5.9,1.8A5.476,5.476,0,0,1,327.839,153.29Z" transform="translate(-317.423 -131.5)" fill="#59916f"/>
            <path id="Trazado_920852" data-name="Trazado 920852" d="M336.352,120.021s-2.039-6.649,3.474-5.463.425,5.786.425,5.786,2.834-1.945,4.756.624-3.628,2.077-3.628,2.077,4.06,1,3.687,4.351-4.918.062-4.918.062,1.35,1.209-1.065,3.609-3.289.317-3.219-4.153c-5.628,3.458-8.608-4.04-2.875-4.261C328.239,119.036,331.269,115.722,336.352,120.021Z" transform="translate(-318.327 -114.416)" fill="#db5e1f"/>
            <path id="Trazado_920853" data-name="Trazado 920853" d="M343.611,129.436a2.2,2.2,0,1,1-1.712-2.6A2.2,2.2,0,0,1,343.611,129.436Z" transform="translate(-322.44 -119.856)" fill="#fff"/>
          </g>
          <g id="Grupo_1123627" data-name="Grupo 1123627" transform="translate(13.277 113.86)">
            <g id="Grupo_1123626" data-name="Grupo 1123626">
              <path id="Trazado_920854" data-name="Trazado 920854" d="M114.666,320.545s-20.312-5.724-28.645-2.073-2.069,6.093.846,8.9-5.954,1.8-14.068,1.4-9.925,5.664-3.217,7.991,1.071,2.269-7.448,5.3-6.959,12.508,4.239,7.63,19.272-7.327,13.654-1.5-5.578,18.079,4.253,7.876,17.574-21.025,16.794-15.954.373,19.155,7.342,9S122.007,330.429,114.666,320.545Z" transform="translate(-56.699 -317.255)" fill="#6fb590"/>
              <path id="Trazado_920855" data-name="Trazado 920855" d="M118.049,327.836s-44.4,18.154-61.134,25.535" transform="translate(-56.794 -321.907)" fill="none" stroke="#26490f" stroke-miterlimit="10" stroke-width="0.679"/>
              <path id="Trazado_920856" data-name="Trazado 920856" d="M92.413,348.12a146.549,146.549,0,0,1-16.718-5.957" transform="translate(-65.052 -328.207)" fill="none" stroke="#26490f" stroke-miterlimit="10" stroke-width="0.679"/>
              <path id="Trazado_920857" data-name="Trazado 920857" d="M113.277,344.493s-11.265,13.944-15.63,24.069" transform="translate(-74.704 -329.232)" fill="none" stroke="#26490f" stroke-miterlimit="10" stroke-width="0.679"/>
              <path id="Trazado_920858" data-name="Trazado 920858" d="M127.339,330.591s-18.572-3.477-25.337-6.32" transform="translate(-76.619 -320.34)" fill="none" stroke="#26490f" stroke-miterlimit="10" stroke-width="0.679"/>
              <path id="Trazado_920859" data-name="Trazado 920859" d="M150.336,331.28s-10.5,19.253-9.162,27.6" transform="translate(-93.791 -323.422)" fill="none" stroke="#26490f" stroke-miterlimit="10" stroke-width="0.679"/>
            </g>
            <path id="Trazado_920860" data-name="Trazado 920860" d="M139.339,323.754l1.367-.57-1.371.561a18.07,18.07,0,0,0-1.917-3.2s-20.312-5.724-28.645-2.073c-.117.052-.219.1-.331.152,10.294,6.529,22,14.3,29.346,20.271C140.5,333.836,141.733,328.942,139.339,323.754Z" transform="translate(-79.451 -317.255)" fill="#3b3f11" opacity="0.42" style="mix-blend-mode: multiply;isolation: isolate"/>
          </g>
          <g id="Grupo_1123629" data-name="Grupo 1123629" transform="translate(163.156 12.546)">
            <g id="Grupo_1123628" data-name="Grupo 1123628">
              <path id="Trazado_920861" data-name="Trazado 920861" d="M329.6,168.354a20.994,20.994,0,0,0,18.464-6.408c8.483-8.632,15.984-13.409,23.878-13.444S367.73,127.1,346.4,141.3s-22.2,23.145-22.2,23.145Z" transform="translate(-324.202 -136.429)" fill="#6fb590"/>
              <path id="Trazado_920862" data-name="Trazado 920862" d="M374.2,146.385s-17.47-5.863-38.017,21" transform="translate(-329.472 -140.569)" fill="none" stroke="#26490f" stroke-miterlimit="10" stroke-width="0.745"/>
              <path id="Trazado_920863" data-name="Trazado 920863" d="M385.384,157.352s-10.333-3.293-19.259-1.982" transform="translate(-342.636 -144.622)" fill="none" stroke="#26490f" stroke-miterlimit="10" stroke-width="0.745"/>
              <path id="Trazado_920864" data-name="Trazado 920864" d="M364.453,149.252a99.357,99.357,0,0,1,5.157-9.488" transform="translate(-341.901 -137.896)" fill="none" stroke="#26490f" stroke-miterlimit="10" stroke-width="0.745"/>
              <path id="Trazado_920865" data-name="Trazado 920865" d="M350.8,167.518s8.5-1.432,15.905,1.61" transform="translate(-335.899 -149.951)" fill="none" stroke="#26490f" stroke-miterlimit="10" stroke-width="0.745"/>
              <path id="Trazado_920866" data-name="Trazado 920866" d="M341.788,168.465s.532-6.928,3.21-11.346" transform="translate(-331.935 -145.527)" fill="none" stroke="#26490f" stroke-miterlimit="10" stroke-width="0.745"/>
            </g>
            <path id="Trazado_920867" data-name="Trazado 920867" d="M348.067,169.136c-3.128-6.655-8.223-11.885-7.717-16.356q-1.652,1.251-3.085,2.432h0v0c-12.457,10.246-13.062,16.424-13.062,16.424l5.4,3.907A25.944,25.944,0,0,0,348.067,169.136Z" transform="translate(-324.202 -143.619)" fill="#3b3f11" opacity="0.42" style="mix-blend-mode: multiply;isolation: isolate"/>
          </g>
          <g id="Grupo_1123631" data-name="Grupo 1123631" transform="translate(29.379 12.546)">
            <g id="Grupo_1123630" data-name="Grupo 1123630">
              <path id="Trazado_920868" data-name="Trazado 920868" d="M130.205,168.354a20.992,20.992,0,0,1-18.463-6.408c-8.483-8.632-15.985-13.409-23.878-13.444s4.216-21.406,25.544-7.2,22.2,23.145,22.2,23.145Z" transform="translate(-85.437 -136.429)" fill="#6fb590"/>
              <path id="Trazado_920869" data-name="Trazado 920869" d="M95.143,146.385s17.47-5.863,38.017,21" transform="translate(-89.705 -140.569)" fill="none" stroke="#26490f" stroke-miterlimit="10" stroke-width="0.745"/>
              <path id="Trazado_920870" data-name="Trazado 920870" d="M98.685,157.352s10.333-3.293,19.258-1.982" transform="translate(-91.263 -144.622)" fill="none" stroke="#26490f" stroke-miterlimit="10" stroke-width="0.745"/>
              <path id="Trazado_920871" data-name="Trazado 920871" d="M130.683,149.252a99.365,99.365,0,0,0-5.157-9.488" transform="translate(-103.065 -137.896)" fill="none" stroke="#26490f" stroke-miterlimit="10" stroke-width="0.745"/>
              <path id="Trazado_920872" data-name="Trazado 920872" d="M135.9,167.518s-8.5-1.432-15.905,1.61" transform="translate(-100.631 -149.951)" fill="none" stroke="#26490f" stroke-miterlimit="10" stroke-width="0.745"/>
              <path id="Trazado_920873" data-name="Trazado 920873" d="M154.875,168.465s-.532-6.928-3.21-11.346" transform="translate(-114.559 -145.527)" fill="none" stroke="#26490f" stroke-miterlimit="10" stroke-width="0.745"/>
            </g>
            <path id="Trazado_920874" data-name="Trazado 920874" d="M132.386,169.136c3.128-6.655,8.223-11.885,7.716-16.356q1.652,1.251,3.086,2.432h0v0c12.457,10.246,13.062,16.424,13.062,16.424l-5.4,3.907A25.942,25.942,0,0,1,132.386,169.136Z" transform="translate(-106.081 -143.619)" fill="#3b3f11" opacity="0.42" style="mix-blend-mode: multiply;isolation: isolate"/>
          </g>
        </g>
        <g id="Grupo_1123637" data-name="Grupo 1123637" transform="translate(4.939 74.183)">
          <g id="Grupo_1123636" data-name="Grupo 1123636" transform="translate(0)">
            <g id="Grupo_1123635" data-name="Grupo 1123635" transform="translate(0)">
              <circle id="Elipse_12028" data-name="Elipse 12028" cx="81.223" cy="81.223" r="81.223" transform="translate(0 114.867) rotate(-45)" fill="#2abadb"/>
              <path id="Trazado_920875" data-name="Trazado 920875" d="M202.4,171.312c-7.277-2.274-20.694-2.729-31.154.682s-10.916,0-17.056-1.592-11.6,0-19.1,3.639a13.192,13.192,0,0,1-8.6,1.39,81.324,81.324,0,0,0-20,73.369c2.986,2.64,7.474,5.153,14.5,9.835,13.645,9.1,7.959,3.866,14.327,7.277s3.639,5.458,2.5,8.869,7.277,12.507,10.006,15.236c1.6,1.6-.543,7.084-2.594,11.364a80.716,80.716,0,0,0,22.86,8.882c1.645-1.811,3.748-4.206,5.2-6.146,2.729-3.638,4.093-5.23,7.959-7.05s4.321-5,4.5-7.959,2.327-5.23,3.691-8.641-.682-7.277-3.691-7.959-8.361-2.047-11.09-5a43.619,43.619,0,0,0-10.916-8.641c-4.548-2.5-6.14.227-11.6,0s-5.913-2.274-7.732-4.548,2.047-2.956,4.321-4.321.909-5.23,2.046-7.731,4.548-4.776,10.006-7.277c7.731-4.093,7.277-9.324,9.1-10.916s1.364-4.321-.227-6.595,0-2.957,7.277-1.592,4.548-3.184,7.731-6.14,4.321-3.184,10.461.91,7.05,2.047,11.143-2.047.455-7.959-2.274-8.187-4.32-3.411-2.274-4.548,3.184-2.729,1.592-6.595,0-2.957,7.5-6.368S209.679,173.586,202.4,171.312Z" transform="translate(-70.882 -116.104)" fill="#fff" opacity="0.46"/>
              <path id="Trazado_920876" data-name="Trazado 920876" d="M338.3,246.928a80.9,80.9,0,0,0-7.69-34.587,16.534,16.534,0,0,1-7.533-.568c-10.688-2.956-15.236-9.324-23.877-4.093s-15.464,17.965-13.19,21.831,8.286,3.178-.973,8.07S270.32,247.7,272.822,253.388s-1.819,4.776-4.321,11.37-3.411,18.647,4.775,22.058,6.823-3.184,12.507,2.5,5.23,12.735,5.913,20.466a21.226,21.226,0,0,0,3.426,8.862A81.2,81.2,0,0,0,338.3,246.928Z" transform="translate(-142.211 -132.005)" fill="#fff" opacity="0.46"/>
              <g id="Grupo_1123634" data-name="Grupo 1123634">
                <g id="Grupo_1123633" data-name="Grupo 1123633" clip-path="url(#clip-path-2)">
                  <path id="Trazado_920877" data-name="Trazado 920877" d="M86.749,203.665l4.687.159a.375.375,0,0,0,.264-.1h0a2.9,2.9,0,0,1,3.162-.454l1.107.521a.373.373,0,0,0,.161.036l6.748,0a.378.378,0,0,0,.312-.162l1.222-1.763a.379.379,0,0,0-.087-.521l-2.076-1.525a.38.38,0,0,1-.146-.385l.4-1.861a.378.378,0,0,1,.37-.3h2.137a.38.38,0,0,1,.369.292l.6,2.563a.385.385,0,0,0,.047.114L107.4,202.5a.379.379,0,0,0,.631.017l.389-.556a.378.378,0,0,1,.678.13l.482,2.028a.378.378,0,0,0,.663.149l1.435-1.791a.379.379,0,0,0,.054-.382l-.45-1.084a.379.379,0,0,1,.47-.5l3.135,1.048a.378.378,0,0,1,.1.667l-.322.23a.378.378,0,0,0-.113.489l.726,1.334a.378.378,0,0,1-.075.458l-1.993,1.848a.378.378,0,0,0-.092.422l.645,1.552a.379.379,0,0,1-.114.441l-1.277,1.02a.378.378,0,0,1-.447.02l-1.114-.744a.379.379,0,0,1-.165-.368l.114-.792a.379.379,0,0,0-.67-.291l-.464.58a.383.383,0,0,1-.1.086l-1.85,1.136a.378.378,0,0,0-.123.523l.255.408a.379.379,0,0,1-.353.578l-1.145-.1a.379.379,0,0,0-.281.092l-2.464,2.153a.378.378,0,0,0-.124.351l.375,2.135a.379.379,0,0,0,.583.249h0a.378.378,0,0,1,.587.292l.1,1.646a.378.378,0,0,0,.46.346l1.013-.224a.373.373,0,0,1,.194.008l6.884,2.135a.38.38,0,0,1,.261.3l.445,2.533a.382.382,0,0,0,.156.246l2.105,1.488a.383.383,0,0,0,.6-.348l-.262-2.772,2.328-2.014a.38.38,0,0,0,.072-.489l-1.721-2.728a.378.378,0,0,1,.053-.47l.94-.938a.378.378,0,0,0,.047-.477l-1.606-2.412a.379.379,0,0,1,.2-.57l3.66-1.169a.383.383,0,0,1,.29.025l4.566,2.366a.379.379,0,0,1,.193.428l-.4,1.6a.381.381,0,0,0,.052.3l.76,1.142a.379.379,0,0,0,.464.138l1.965-.84a.378.378,0,0,0,.2-.212l.478-1.239a.379.379,0,0,1,.7-.021l2.306,5.053a.381.381,0,0,0,.192.189l2.61,1.144,3.93,2.859a.383.383,0,0,1,.01.612l-2.262,1.757a.386.386,0,0,1-.123.064L133.5,226.8a.372.372,0,0,0-.1.045l-3.171,2.065a.383.383,0,0,0-.148.458l.531,1.382a.382.382,0,0,0,.422.24l2.716-.47a.383.383,0,0,1,.448.377v.908a.382.382,0,0,1-.29.371l-2.636.657a.386.386,0,0,0-.169.092l-1.91,1.788a.382.382,0,0,1-.624-.159l-.212-.636a.385.385,0,0,1,.026-.3l.522-.968a.382.382,0,0,0-.457-.545l-2.986.993a.381.381,0,0,0-.24.235l-.787,2.225a.381.381,0,0,1-.222.229l-2.367.919a.381.381,0,0,0-.234.271l-1.128,4.921a.381.381,0,0,1-.189.25l-4.29,2.349a.383.383,0,0,0-.192.406l.975,5.176a.384.384,0,0,1-.045.264l-.61,1.043a.383.383,0,0,1-.68-.038l-1.42-3.2a.384.384,0,0,0-.3-.224l-5.617-.77a.383.383,0,0,0-.375.584h0a.383.383,0,0,1-.458.563l-2.344-.881a.383.383,0,0,0-.38.065l-4.311,3.61a.383.383,0,0,0-.115.42l1.951,5.589a.384.384,0,0,0,.284.249l3.18.665a.382.382,0,0,0,.379-.138l1.429-1.816a.385.385,0,0,1,.226-.139l2.379-.474a.383.383,0,0,1,.456.411l-.371,3.934a.383.383,0,0,0,.351.417l3.115.241a.383.383,0,0,1,.347.452l-.68,3.656,1.207,1.968,4.33.258a1.694,1.694,0,0,0,1.35-.547l1.025-1.121a1.7,1.7,0,0,1,1.25-.551l2.343,0a1.7,1.7,0,0,1,.938.285l.584.39a1.692,1.692,0,0,0,1.4.22l2.493-.71a1.69,1.69,0,0,1,1.221.114l9.387,4.7a1.694,1.694,0,0,1,.793.835l1.367,3.133a1.7,1.7,0,0,0,1.1.954l12.1,3.331a1.692,1.692,0,0,1,1.243,1.633l0,2.838a1.691,1.691,0,0,1-.692,1.364l-2.906,2.128a1.692,1.692,0,0,0-.671,1.094l-1.113,6.876a1.7,1.7,0,0,1-1.156,1.342l-5.225,1.667a1.694,1.694,0,0,0-1.024.908l-3.712,8.106a1.692,1.692,0,0,1-1.41.982l-1.044.08a1.693,1.693,0,0,0-1.564,1.686h0a1.693,1.693,0,0,1-.781,1.425l-5.663,3.619a1.7,1.7,0,0,0-.68.85l-3.217,8.889a1.691,1.691,0,0,0-.022,1.088l.774,2.438a1.692,1.692,0,0,1-2.123,2.125l-1.183-.374a1.693,1.693,0,0,1-1.153-1.3l-1.971-10.634a1.69,1.69,0,0,1-.009-.562l2.183-14.4,1.5-9.435a1.693,1.693,0,0,0-.755-1.688l-2.623-1.689a1.689,1.689,0,0,1-.527-.54l-4.836-7.9a1.693,1.693,0,0,1-.245-.779l-.191-3.089a1.693,1.693,0,0,1,.689-1.47l2.719-1.991a1.693,1.693,0,0,0,.693-1.364v-1.606a1.692,1.692,0,0,0-1.691-1.693h-1.509a1.692,1.692,0,0,1-.757-.179L111.9,266.5l-1.937-3.048-3.324,0-2.716-2.176a.39.39,0,0,0-.118-.064l-8.942-2.987a.384.384,0,0,1-.206-.164l-5-8.213a.382.382,0,0,0-.688.323l.573,1.662a.383.383,0,0,1-.665.359l-5.218-6.761L77.3,236.837l1.391-8.863-8.03-4.715-4.7-6.652-8.05-2.689a.832.832,0,0,0-.518,0l-8.205,2.641a.807.807,0,0,1-.255.04l-2.669,0a.833.833,0,0,1-.454-.135L40.7,213.124a.831.831,0,0,1-.007-1.388l3.551-2.364a.831.831,0,0,0-.1-1.442l-1.171-.559a.832.832,0,0,1,.359-1.582h0a.831.831,0,0,0,.373-1.574l-2.211-1.108a.831.831,0,0,1,.123-1.537L46.6,200a11.926,11.926,0,0,1,5.57-.378l11.8,2.006a11.105,11.105,0,0,0,6.48-.85h0a11.1,11.1,0,0,1,7.319-.673l8.171,2.049a.378.378,0,0,1,.281.3l.16.9A.38.38,0,0,0,86.749,203.665Zm22.614-8.6-.189.538a1.739,1.739,0,0,0,1.149,2.244L117,199.81a1.739,1.739,0,0,1,.577.3l2.2,1.717a1.738,1.738,0,0,1,.667,1.268l.236,3.938a1.74,1.74,0,0,0,.868,1.4l5.522,3.177a1.739,1.739,0,0,0,2.476-.848l.668-1.629a1.727,1.727,0,0,1,.351-.541l1.351-1.418a1.739,1.739,0,0,0-.678-2.84l-2.137-.756a1.739,1.739,0,0,1-1.159-1.641h0a1.74,1.74,0,0,0-.862-1.5l-5.052-2.952a1.73,1.73,0,0,1-.448-.376l-2.2-2.592a1.738,1.738,0,0,0-1.325-.614l-7.05,0A1.738,1.738,0,0,0,109.363,195.06Zm-4-1.167h-1.128a.977.977,0,0,0-.978.977v.447a.977.977,0,0,0,.977.978h.729a.975.975,0,0,0,.729-.326l.4-.447A.977.977,0,0,0,105.36,193.893Zm-4.508,4,1-1.168a.979.979,0,0,0,.179-.965l-.368-1.033a.977.977,0,0,0-1.156-.62l-2.269.565a.978.978,0,0,0-.456,1.639l1.634,1.636A.978.978,0,0,0,100.852,197.89ZM87.521,195l-8.155-1.858a1.724,1.724,0,0,0-1.924.909l-.5,1a1.723,1.723,0,0,0,.436,2.1l.337.281a1.724,1.724,0,0,0,1.521.348l1.251-.312a1.726,1.726,0,0,1,1.229.152l1.778.95a1.722,1.722,0,0,1,.378.273l2.722,2.6a1.724,1.724,0,0,0,1.647.415l3.539-.973a1.718,1.718,0,0,1,.983.02l3.05.978a1.723,1.723,0,0,0,1.419-.166h0a1.724,1.724,0,0,0,.157-2.843l-1.548-1.187a1.723,1.723,0,0,1-.624-.951l-.319-1.281a1.724,1.724,0,0,0-1.978-1.28l-4.712.848A1.737,1.737,0,0,1,87.521,195Zm-6.967-4.978,6.339,2.722a.831.831,0,0,0,.5.049l4.514-.964a.833.833,0,0,0,.017-1.625l-3.966-.933a.845.845,0,0,1-.179-.064l-3.732-1.851a.835.835,0,0,0-.688-.024l-2.8,1.155A.833.833,0,0,0,80.554,190.025Zm6.709-2.868.2.24a.976.976,0,0,0,1.01.313l2.067-.574a.978.978,0,0,0,.715-.941v-.29a.977.977,0,0,0-1.236-.942l-2.268.624A.977.977,0,0,0,87.263,187.158Zm9.821,2.373,2.089,2.232a.975.975,0,0,0,.549.3l2.974.507a.978.978,0,0,0,1.064-1.345l-.25-.591a.977.977,0,0,0-.9-.6h-.838a.977.977,0,0,1-.852-.5l-.64-1.145a.976.976,0,0,0-.852-.5l-1.63,0A.977.977,0,0,0,97.084,189.531Zm9.518,3.334,10.364.007a.353.353,0,0,0,.352-.352V190.7a.353.353,0,0,0-.315-.351l-2.871-.3a.349.349,0,0,0-.14.013l-4.3,1.311a.352.352,0,0,1-.4-.155l-.517-.854a.352.352,0,0,1,.144-.5l1.451-.724a.355.355,0,0,1,.2-.034l7.389.889a.352.352,0,0,0,.394-.35v-1.591a.35.35,0,0,1,.116-.261l2.809-2.538a.353.353,0,0,0-.236-.614h0a.352.352,0,0,1-.131-.679l2.571-1.026.036-.017,4.427-2.38.032-.016,4.788-1.967a.352.352,0,0,0-.055-.67l-10.161-2.317a.369.369,0,0,0-.145,0l-15.325,2.924a.352.352,0,0,0-.161.615l1.58,1.339a.351.351,0,0,0,.2.082l5.655.5a.345.345,0,0,0,.126-.012l1.167-.326a.352.352,0,0,1,.262.649l-1.594.857a.363.363,0,0,1-.147.041l-2.767.161a.347.347,0,0,1-.136-.019l-4.857-1.678a.346.346,0,0,1-.092-.048l-1.681-1.225a.352.352,0,0,0-.345-.04L100.474,181a.352.352,0,0,0-.119.566l2.851,3a.358.358,0,0,0,.13.087l4.07,1.55a.351.351,0,0,0,.277-.012l2.866-1.373a.352.352,0,0,1,.435.528l-1.332,1.791a.357.357,0,0,1-.119.1l-3.042,1.6a.351.351,0,0,1-.3.013l-3.474-1.45a.352.352,0,0,0-.488.325v1.08a.352.352,0,0,0,.27.343l2.707.649a.351.351,0,0,1,.254.238l.8,2.576A.352.352,0,0,0,106.6,192.865Zm-11.937-6.878h0a.982.982,0,0,0,.57.331l2.69.5a.977.977,0,0,0,1.025-1.447l-.17-.3a.976.976,0,0,0-.769-.487l-2.521-.2A.977.977,0,0,0,94.664,185.987Zm6.123-.466.039.1a.978.978,0,0,0,.914.635h.077a.977.977,0,0,0,.784-1.56l-.077-.1a.976.976,0,0,0-.783-.394H101.7A.977.977,0,0,0,100.788,185.521Zm26.323,4.56,6.149.291a1.386,1.386,0,0,1,.9.387l6.65,6.438a1.38,1.38,0,0,1,.4.778l2.074,13.236a1.384,1.384,0,0,0,.328.7L145.455,214a1.381,1.381,0,0,0,2.285-.324l2.47-5.24a1.382,1.382,0,0,1,1.25-.792l2.48,0a1.38,1.38,0,0,0,1.024-.453l2.743-3.021a1.372,1.372,0,0,1,.561-.374l6.416-2.271a1.384,1.384,0,0,0,.747-.633l4.132-7.465a1.38,1.38,0,0,0,.106-1.09l-1.929-6.021a1.381,1.381,0,0,1,.6-1.606l5.656-3.39a1.381,1.381,0,0,0-.413-2.533l-5.073-1.116c-.035-.008-.071-.015-.106-.019l-14.669-2.047a1.373,1.373,0,0,0-.431.008l-17.092,3.018a1.381,1.381,0,0,0-.58.249l-5.394,3.986a1.387,1.387,0,0,1-.4.2l-5,1.6a1.381,1.381,0,0,0-.708,2.11l1.91,2.714A1.38,1.38,0,0,0,127.111,190.081Zm37.947,15.974,4.163,3.127,5.207,0,2.537-3.866-7.294-1.046ZM178.434,245.4,177,247.064c-.046.054-.091.109-.133.165l-4.6,6.06a3.531,3.531,0,0,0-.387,3.631l.263.563a3.533,3.533,0,0,1-.036,3.067h0a3.532,3.532,0,0,0,.678,4.081l5.318,5.262a3.53,3.53,0,0,0,2.481,1.021l3.034,0h1.448a3.546,3.546,0,0,0,1.512-.339l3.195-1.511a.61.61,0,0,1,.647.08l2,1.638a.608.608,0,0,0,.385.138h1.64a.609.609,0,0,1,.608.61l0,4.343a1.817,1.817,0,0,0,.191.813l3.06,6.13a1.818,1.818,0,0,1,.1,1.369l-1.575,4.886a1.822,1.822,0,0,0,.087,1.335l1.533,3.242a1.814,1.814,0,0,1,.175.778l0,3.3a1.816,1.816,0,0,0,.3,1.009l4.532,6.807a1.819,1.819,0,0,0,1.512.811l5.271,0a1.817,1.817,0,0,0,1.476-.754l3.152-4.372a1.82,1.82,0,0,0,.343-1.062v-1.406a1.818,1.818,0,0,1,1.319-1.746l.5-.143a1.817,1.817,0,0,0,1.319-1.746v-1.912a1.82,1.82,0,0,1,.533-1.285l3.422-3.417a1.819,1.819,0,0,0,.533-1.285l0-4.594a1.811,1.811,0,0,0-.239-.9l-.855-1.5a1.817,1.817,0,0,1,.312-2.2l7.15-6.953a1.816,1.816,0,0,0,.494-.852l.718-2.8a2.31,2.31,0,0,0-2.777-2.82h0a3.328,3.328,0,0,1-3.416-1.209l-.924-1.2-2.465-1.347-3.877-10.632a.191.191,0,0,1,.326-.187l4.9,5.887L224.678,261a3.328,3.328,0,0,0,4.148,1.659l6.907-2.563a1.032,1.032,0,0,0,.546-.471l1.959-3.554a1.035,1.035,0,0,0-.084-1.127l-1.922-2.517a1.034,1.034,0,0,0-1.383-.241l-2.053,1.326a1.034,1.034,0,0,1-1.48-.394l-2.056-3.981a1.035,1.035,0,0,1,.92-1.509h0a1.037,1.037,0,0,1,.851.447l1.378,1.994a1.036,1.036,0,0,0,.908.444l3-.164a1.033,1.033,0,0,1,.789.3l1.163,1.164a1.033,1.033,0,0,0,.731.3l5.394,0a1.029,1.029,0,0,1,.761.338l3.843,4.254a1.032,1.032,0,0,1,.174.267l4.25,9.44a1.026,1.026,0,0,0,1.83.082l2.942-5.222a1.041,1.041,0,0,1,.266-.308l7.678-5.942a1.026,1.026,0,0,1,1.6.477l1.268,3.67a1.026,1.026,0,0,0,1.126.68l1.111-.17a1.026,1.026,0,0,1,1.159.8l.67,3.148a.985.985,0,0,1,.023.215l0,2.648a1.018,1.018,0,0,0,.088.417l1.625,3.664a1.02,1.02,0,0,0,.212.309l.594.6a1.027,1.027,0,0,0,1.711-1.016l-.586-1.981a1.032,1.032,0,0,0-.189-.359l-1.654-2.023a1.031,1.031,0,0,1-.231-.651h0a1.026,1.026,0,0,1,1.886-.56l1.265,1.937a1.027,1.027,0,0,0,1.551.2l3.134-2.858a1.415,1.415,0,0,0,.462-1.046l0-1.851a1.417,1.417,0,0,0-.722-1.235l-1.5-.847a1.416,1.416,0,0,1-.464-2.047l.079-.113a1.416,1.416,0,0,1,1.583-.538l1.931.6a1.415,1.415,0,0,0,1.239-.194l6.61-4.659a1.418,1.418,0,0,0,.565-.845l1.355-5.981a1.417,1.417,0,0,0-.071-.852l-1.141-2.778a1.416,1.416,0,0,1,.063-1.211l.708-1.312a1.416,1.416,0,0,1,1.647-.686l2,.589a1.418,1.418,0,0,1,.944.912l.454,1.365a1.416,1.416,0,0,0,2.25.642h0a1.416,1.416,0,0,0,.176-2l-.823-.974a1.416,1.416,0,0,1-.059-1.753l1.383-1.883a1.418,1.418,0,0,1,1.142-.578l2.924,0a1.415,1.415,0,0,0,1.245-.74l3.71-6.823a1.253,1.253,0,0,0,.154-.6l0-3.35a1.262,1.262,0,0,0-1.262-1.263h0a1.262,1.262,0,0,1-.856-2.189l4.226-3.905a1.265,1.265,0,0,1,.857-.335l6.735.005a1.267,1.267,0,0,0,.719-.224l4.959-3.43a1.263,1.263,0,0,1,.719-.224h1.742a1.262,1.262,0,0,1,.852,2.193l-5.192,4.753a1.262,1.262,0,0,0-.4,1.109l.638,4.488a1.262,1.262,0,0,0,2.194.66l4.829-5.444a1.263,1.263,0,0,0,.318-.837v-2.1a1.263,1.263,0,0,1,.9-1.207l4.488-1.364,5.382-2.238h2.242l6.254-5.921a1.374,1.374,0,0,0-.464-2.284l-11.671-4.352a1.373,1.373,0,0,0-1.175.1l-2.89,1.7a1.374,1.374,0,0,1-.777.187l-6.686-.4a1.37,1.37,0,0,1-.888-.4L321.74,196.1a1.372,1.372,0,0,0-.969-.4l-10.552-.007a1.371,1.371,0,0,0-.936.368l-2.668,2.482a1.372,1.372,0,0,1-1.228.336l-5.392-1.181a1.372,1.372,0,0,1-1.079-1.342V195.4a1.373,1.373,0,0,0-1.052-1.336l-3.617-.871a1.374,1.374,0,0,0-1.466.577l-.682,1.03a1.372,1.372,0,0,1-1.582.543l-4.218-1.42a1.373,1.373,0,0,1-.257-2.485l.468-.275a1.374,1.374,0,0,0,.672-1.307l-.041-.456a1.372,1.372,0,0,0-1.247-1.244L271.96,186.93a1.369,1.369,0,0,0-.742.145l-10.339,5.262a1.372,1.372,0,0,0-.75,1.223v.077a1.374,1.374,0,0,1-.8,1.244l-4.718,2.188a1.371,1.371,0,0,1-1.43-.17l-.945-.749a1.372,1.372,0,0,0-1.379-.192l-5.224,2.17a1.373,1.373,0,0,0-.833,1.461h0a1.373,1.373,0,0,1-1.731,1.514l-3.847-1.085a1.372,1.372,0,0,0-1.687.926l-.018.061a1.373,1.373,0,0,1-1.191.972l-6.139.554a1.378,1.378,0,0,0-.62.213l-9.482,6.115a.89.89,0,0,1-1.056-.067l-1.163-.98a.89.89,0,0,1,.313-1.531l3.24-.994a.868.868,0,0,0,.248-.12h0a.89.89,0,0,0-.112-1.526l-12.116-6.03a.888.888,0,0,0-.856.035l-10.9,6.574a.889.889,0,0,0-.211.177l-7.322,8.395a.889.889,0,0,0-.077,1.067l1.726,2.671a.89.89,0,0,0,1.029.361l2.9-.966a.889.889,0,0,1,1.149.648l.5,2.206a.889.889,0,0,0,.993.685l1.844-.262a.89.89,0,0,0,.685-.512l1.9-4.181a.889.889,0,0,0,.041-.63l-.631-2.056a.891.891,0,0,1,.249-.917l4.267-3.919a.89.89,0,0,1,.6-.235h.661a.89.89,0,0,1,.631,1.516l-2.987,3.015a.89.89,0,0,0-.164,1.024l.575,1.153a.889.889,0,0,0,.84.491l3.372-.166a.89.89,0,0,1,.806.43l.036.059a.89.89,0,0,1-.763,1.348h-1.416a.89.89,0,0,0-.887.819l-.118,1.486a.89.89,0,0,1-.54.749l-6.722,2.846a.891.891,0,0,1-.379.07l-5.833-.212a.888.888,0,0,0-.464.111l-3.78,2.1a.632.632,0,0,0-.077.051l-4.176,3.228a3.318,3.318,0,0,0-.5,4.766h0a.608.608,0,0,1,.107.6l-.631,1.733a.61.61,0,0,1-.573.4l-2.022,0a2.915,2.915,0,0,0-2.907,3.145l.163,2.057a.609.609,0,0,0,.415.529l3.437,1.149a.612.612,0,0,0,.425-.015l3.226-1.326a.609.609,0,0,0,.378-.563v-1.02a4.022,4.022,0,0,1,2.382-3.671l3.292-1.47a2.174,2.174,0,0,1,3.055,1.842h0a.61.61,0,0,0,.2.415l3.5,3.112a.61.61,0,0,0,.743.052l.485-.323a.609.609,0,0,0,.194-.8l-2.7-4.824a.611.611,0,0,1,0-.587l.726-1.345a.609.609,0,0,1,1.118.108l.656,2.1a.609.609,0,0,0,.1.19l2.151,2.8a.651.651,0,0,1,.042.062l2.575,4.365a.609.609,0,0,0,.847.207l.916-.572a.608.608,0,0,0,.277-.622h0a.609.609,0,0,1,1.128-.41l1.193,2.071a1.306,1.306,0,0,0,1.312.642l3.807-.526a2.28,2.28,0,0,1,2.516,2.842l-.439,1.656a1.307,1.307,0,0,1-1.265.973l-3.8,0a1.308,1.308,0,0,1-.239-.022l-6.456-1.2a1.917,1.917,0,0,0-1.968.854h0a1.918,1.918,0,0,1-2.373.731l-5.855-2.514a.609.609,0,0,1-.345-.728l.513-1.79a.609.609,0,0,0-.626-.775l-9.226.609-.526.049A10.423,10.423,0,0,0,178.434,245.4Zm41.783-13.8.049.244a1.545,1.545,0,0,0,.847,1.091l2.706,1.3a1.545,1.545,0,0,1,.538,2.358h0a1.545,1.545,0,0,1-1.49.552l-6.122-1.153a1.567,1.567,0,0,0-.285-.026l-2.919,0a1.544,1.544,0,0,1-1.368-2.257l1.311-2.517a1.544,1.544,0,0,1,1.37-.83l3.851,0A1.544,1.544,0,0,1,220.217,231.6Zm13.426,4.448,0,3.763a1.544,1.544,0,0,1-1.545,1.543h-.724a1.544,1.544,0,0,1-1.543-1.545l0-2.128a1.552,1.552,0,0,0-.162-.69l-1.556-3.119a1.543,1.543,0,0,1,.8-2.118l1.734-.708a1.544,1.544,0,0,1,2.084,1.063l.872,3.574A1.554,1.554,0,0,1,233.643,236.047Zm-5.6,51.452-2.1,2.284a1.993,1.993,0,0,0-.5,1.04l-.671,4.275a2,2,0,0,0,1.969,2.3h.691a2,2,0,0,0,1.9-1.393l2.076-6.56a2,2,0,0,0,.021-1.135h0A2,2,0,0,0,228.038,287.5Zm44.853-13.448,1.67,3.05a.873.873,0,0,0,.224.263l3.118,2.428a.854.854,0,0,0,1.266-.25l.914-1.6a.854.854,0,0,0-.261-1.131l-5.593-3.8c-.018-.012-.036-.026-.054-.04h0A.854.854,0,0,0,272.891,274.051Zm8.279,5.714h0a1.6,1.6,0,0,0,.869,2.145l2.75,1.078a1.6,1.6,0,0,0,1.554-.22l.558-.429a1.6,1.6,0,0,0,0-2.528l-.842-.648a1.6,1.6,0,0,0-.972-.331l-2.466,0A1.594,1.594,0,0,0,281.17,279.765Zm1.454-4.895L284.3,277.2a1.119,1.119,0,0,0,.552.406l2.8.937a1.118,1.118,0,0,0,1.336-.527l2.195-4.044a1.117,1.117,0,0,0,.017-1.031l-.948-1.9a1.117,1.117,0,0,1,.21-1.289h0a1.118,1.118,0,0,0-.2-1.742l-.628-.387a1.117,1.117,0,0,0-1.6.492l-1.376,3.052a1.116,1.116,0,0,1-.365.447l-1.577,1.136a1.108,1.108,0,0,1-.443.192l-.951.182A1.117,1.117,0,0,0,282.624,274.87Zm9.785-22.242-.594.485a.565.565,0,0,0-.156.671l.592,1.294a.565.565,0,0,0,.512.329h0a.564.564,0,0,0,.564-.563v-1.779A.563.563,0,0,0,292.408,252.628Zm-.173,6.143-.665,2.052a.732.732,0,0,0,.054.578l.326.593a.731.731,0,0,0,1.132.189h0a.73.73,0,0,0,.239-.541v-.885a.728.728,0,0,1,.124-.406l.634-.949a.731.731,0,0,0-.608-1.137h-.541A.731.731,0,0,0,292.235,258.771Zm1.028,8.687h0a.73.73,0,0,0,.889.792l.132-.031a.73.73,0,0,1,.809.37l.5.941a.73.73,0,0,0,1.108.223l1.192-.977a.731.731,0,0,0,.246-.742l-.362-1.453a.731.731,0,0,0-.888-.532l-3.078.78A.73.73,0,0,0,293.263,267.458Zm.8-4.363.677.676a.526.526,0,0,1,.131.218l.465,1.51a.527.527,0,0,0,.5.371h.205a.526.526,0,0,0,.527-.526V264.4a.525.525,0,0,0-.146-.364l-1.611-1.68a.527.527,0,0,0-.833.1h0A.527.527,0,0,0,294.064,263.1Zm-1.481,10.838-1.484,3.228a.336.336,0,0,0-.028.183l.35,2.769a.338.338,0,0,0,.334.294h.292a.336.336,0,0,0,.336-.336v-1.56a.336.336,0,0,1,.618-.184l.6.919a.337.337,0,0,0,.424.121l.784-.364a.336.336,0,0,0,.14-.489l-1.054-1.62a.336.336,0,0,1,.02-.393l.472-.592a.336.336,0,0,0-.262-.546h-.746a.346.346,0,0,0-.132.026h0a.336.336,0,0,1-.43-.464l.185-.356a.335.335,0,0,1,.346-.178l2.151.313a.336.336,0,0,0,.313-.126l1.023-1.31a.336.336,0,0,0-.154-.524l-.693-.241a.337.337,0,0,0-.419.183l-.322.737a.336.336,0,0,1-.29.2l-2.089.114A.337.337,0,0,0,292.583,273.934Zm14.694,2.526-2.072.881a.372.372,0,0,1-.422-.093l-.193-.213a.37.37,0,0,1-.1-.25v-1.136a.372.372,0,0,0-.266-.357l-2.107-.631a.384.384,0,0,0-.107-.016h-.692a.373.373,0,0,0-.373.373v.126a.373.373,0,0,0,.2.331l1.013.524a.371.371,0,0,1,.145.134l.314.5a.373.373,0,0,0,.282.174l.5.046a.373.373,0,0,1,.338.371v.127a.381.381,0,0,1-.044.175l-.271.508a.373.373,0,0,0,.443.531l.2-.064a.376.376,0,0,1,.19-.01l1.66.343a.383.383,0,0,1,.117.046l2.137,1.286a.373.373,0,0,1,.064.589l-.555.527a.372.372,0,0,0,.256.643h1.618a.373.373,0,0,1,.264.11l1.065,1.072a.372.372,0,0,0,.483.039l1.88-1.358a.373.373,0,0,1,.4-.022l.909.521a.373.373,0,0,1,.188.324v.443a.372.372,0,0,0,.272.359l2.72.766a.373.373,0,0,0,.371-.615l-2.176-2.3a.373.373,0,0,1-.078-.387l.291-.777a.373.373,0,0,0-.348-.5h-.86a.373.373,0,0,1-.359-.273l-.33-1.19a.372.372,0,0,0-.279-.265l-6.474-1.43A.373.373,0,0,0,307.277,276.46ZM292.163,292.4l-4.748,1.9a1.2,1.2,0,0,0-.735,1.314l1.676,9.8a1.2,1.2,0,0,0,1.18,1l5.318,0a1.192,1.192,0,0,0,.547-.132l4.882-2.5a1.2,1.2,0,0,1,1.239.089l2.945,2.089a1.2,1.2,0,0,0,1.327.04l.514-.321a1.2,1.2,0,0,1,1.727.526l1.621,3.609a1.2,1.2,0,0,0,1.093.707l3.32,0a1.191,1.191,0,0,0,.481-.1l2.842-1.242a1.2,1.2,0,0,0,.551-.487l3.064-5.163a1.2,1.2,0,0,0,.168-.611l0-5.777a1.2,1.2,0,0,0-.393-.888l-5.469-4.96a1.191,1.191,0,0,1-.217-.263l-2.613-4.273a1.2,1.2,0,0,0-2.163.257l-.794,2.46a1.2,1.2,0,0,1-1.913.547l-1.351-1.14a1.2,1.2,0,0,1-.416-1.059l.192-1.588a1.2,1.2,0,0,0-1.189-1.342l-2.035,0a1.2,1.2,0,0,0-.812.317l-3.121,2.869a1.2,1.2,0,0,1-1.414.154h0a1.2,1.2,0,0,0-1.556.31l-1.042,1.37a1.15,1.15,0,0,1-.128.143l-2.2,2.1A1.2,1.2,0,0,1,292.163,292.4Zm46.313,14.94,1.073,2.9a.665.665,0,0,1-.054.572l-.356.591a.663.663,0,0,0,.051.758l.893,1.11a.663.663,0,0,0,1.156-.241l.405-1.481a.662.662,0,0,1,.363-.428l1.262-.578a.663.663,0,0,0,.387-.6v-.223a.663.663,0,0,0-.793-.65l-1.449.289a.664.664,0,0,1-.733-.375l-.982-2.149a.661.661,0,0,0-.6-.388h0A.663.663,0,0,0,338.476,307.341Zm-.275,6.649-.7-.177a.662.662,0,0,0-.578.128l-3.873,3.136a.663.663,0,0,0,.225,1.15l1.941.587a.663.663,0,0,0,.773-.314l1.139-2.057a.64.64,0,0,1,.127-.163l1.243-1.164A.663.663,0,0,0,338.2,313.991Z" transform="translate(-42.649 -118.761)" fill="#4f8e6b"/>
                </g>
              </g>
              <path id="Trazado_920878" data-name="Trazado 920878" d="M185.693,334.546a81.231,81.231,0,0,1-80.636-71.932,82.119,82.119,0,0,0-.532,9.235,81.223,81.223,0,1,0,161.914-9.236A81.231,81.231,0,0,1,185.693,334.546Z" transform="translate(-70.882 -157.038)" opacity="0.59" fill="url(#linear-gradient)" style="mix-blend-mode: multiply;isolation: isolate"/>
              <path id="Trazado_920879" data-name="Trazado 920879" d="M201.3,134.23a81.037,81.037,0,0,0-61.532,28.14,63.142,63.142,0,0,0,126.1,3.877A81.087,81.087,0,0,0,201.3,134.23Z" transform="translate(-86.378 -100.586)" fill="#f5f7e9" opacity="0.35" style="mix-blend-mode: overlay;isolation: isolate"/>
            </g>
          </g>
          <ellipse id="Elipse_12030" data-name="Elipse 12030" cx="30.407" cy="10.236" rx="30.407" ry="10.236" transform="translate(84.533 39.36)" fill="#f5f7e9" opacity="0.35" style="mix-blend-mode: overlay;isolation: isolate"/>
        </g>
        <g id="Grupo_1123638" data-name="Grupo 1123638" transform="translate(25.62 120.539)">
          <path id="Trazado_920880" data-name="Trazado 920880" d="M88.67,268.863s-4.563-4.7-2.281-7.243,6.953,4.506,6.953,4.506-3.151-5.676,0-7.939,7.5,9.036,7.5,9.036-.978-5.574,1.847-5.829,3.368,6.873,3.368,6.873,7.931-4.629,10.864,2.215H81.391A6.733,6.733,0,0,1,88.67,268.863Z" transform="translate(-81.391 -201.316)" fill="#fefefe"/>
          <path id="Trazado_920881" data-name="Trazado 920881" d="M288.6,169.1s5.066-5.215,2.533-8.041-7.719,5-7.719,5,3.5-6.3,0-8.813-8.322,10.031-8.322,10.031,1.085-6.188-2.051-6.471-3.739,7.629-3.739,7.629-8.8-5.138-12.06,2.46h39.438A7.473,7.473,0,0,0,288.6,169.1Z" transform="translate(-158.717 -156.919)" fill="#fefefe"/>
          <path id="Trazado_920882" data-name="Trazado 920882" d="M333.582,289.692s-3.728-3.838-1.864-5.917,5.681,3.682,5.681,3.682-2.574-4.638,0-6.486,6.124,7.382,6.124,7.382-.8-4.554,1.509-4.762,2.752,5.615,2.752,5.615,6.48-3.781,8.876,1.81H327.635A5.5,5.5,0,0,1,333.582,289.692Z" transform="translate(-189.667 -211.359)" fill="#fefefe"/>
        </g>
        <g id="Grupo_1123639" data-name="Grupo 1123639" transform="translate(92.085 96.256)">
          <path id="Trazado_920883" data-name="Trazado 920883" d="M214.539,140.741s-19.189-7.549-13.451-17.538c4.49-7.5,10.471.815,10.471.815s2.235-9.8,7.386-10.424S227.233,131.567,214.539,140.741Z" transform="translate(-200.017 -113.579)" fill="#c73b3c"/>
          <path id="Trazado_920884" data-name="Trazado 920884" d="M282.044,134.319s10.41-1.377,8.771-6.731c-1.32-4.042-5.283-.8-5.283-.8s.073-4.867-2.4-5.746S278.737,129.686,282.044,134.319Z" transform="translate(-235.31 -116.834)" fill="#c73b3c"/>
        </g>
        <g id="Grupo_1123653" data-name="Grupo 1123653" transform="translate(-91.606 76.997)">
          <g id="Grupo_1123655" data-name="Grupo 1123655" transform="translate(0)">
            <g id="Grupo_1123651" data-name="Grupo 1123651">
              <g id="Grupo_1123642" data-name="Grupo 1123642" transform="translate(61.768 102.718)">
                <g id="Grupo_1123641" data-name="Grupo 1123641" transform="translate(0)">
                  <g id="Grupo_1123640" data-name="Grupo 1123640" transform="translate(26.637)">
                    <path id="Trazado_920885" data-name="Trazado 920885" d="M29.952,378.865l52.17-59.833s1.054-18.855,3.042-27.145A63.029,63.029,0,0,0,86.645,280.6a2.967,2.967,0,0,1,5.389-1.553,17.083,17.083,0,0,1,3.207,10.289l.919,5.4s9.23-13.237,13.877-15.97,23.619-16.716,26.216-16.207a13.32,13.32,0,0,1,5.063,2.584s5.027-3.963,8.23,1.753c4.7,1.99,7.7,4.907.851,11.125,2.754,5-.481,8.935-3.715,13.672s-17.583,35.246-35.134,41.649c-42.372,59.026-45.339,64.04-45.339,64.04Z" transform="translate(-29.952 -262.536)" fill="#f2b0a0"/>
                    <path id="Trazado_920886" data-name="Trazado 920886" d="M149.359,383.374s-4.086,3.277-1.908,11.094" transform="translate(-81.336 -315.67)" fill="none" stroke="#c15656" stroke-linecap="round" stroke-miterlimit="10" stroke-width="1.297"/>
                    <path id="Trazado_920887" data-name="Trazado 920887" d="M130.81,295.563c-.07,1.229-.175,2.55-.326,3.921a9.03,9.03,0,0,0,3.165-.944c.659-.706.208-3.619.208-3.619Z" transform="translate(-74.157 -276.776)" fill="#fff6e7" opacity="0.22" style="mix-blend-mode: overlay;isolation: isolate"/>
                    <path id="Trazado_920888" data-name="Trazado 920888" d="M209.835,265.69a6.91,6.91,0,0,0,4.942,2.54l1.648-1.322c-.206-1.051-2.223-2.263-3.507-2.938C212.043,264.4,211,264.993,209.835,265.69Z" transform="translate(-109.049 -263.167)" fill="#fff6e7" opacity="0.22" style="mix-blend-mode: overlay;isolation: isolate"/>
                    <path id="Trazado_920889" data-name="Trazado 920889" d="M227.128,266.6s3.561,2.639,3.851,3.729l-1.622,1.335a14.964,14.964,0,0,1-5.319-2.836C225.014,268.116,227.128,266.6,227.128,266.6Z" transform="translate(-115.294 -264.325)" fill="#fff6e7" opacity="0.22" style="mix-blend-mode: overlay;isolation: isolate"/>
                    <path id="Trazado_920890" data-name="Trazado 920890" d="M239.219,271.947s3.338,2.731,3.628,3.82a7.235,7.235,0,0,1-1.832,1.913,15.857,15.857,0,0,1-4.864-2.877A39.655,39.655,0,0,0,239.219,271.947Z" transform="translate(-120.62 -266.674)" fill="#fff6e7" opacity="0.22" style="mix-blend-mode: overlay;isolation: isolate"/>
                    <path id="Trazado_920891" data-name="Trazado 920891" d="M238.583,295.345s2.185,1.269,2.683,2.743l-.849,1.051a11.51,11.51,0,0,0-3.385-2.183A13.239,13.239,0,0,1,238.583,295.345Z" transform="translate(-121.008 -276.962)" fill="#fff6e7" opacity="0.22" style="mix-blend-mode: overlay;isolation: isolate"/>
                    <path id="Trazado_920892" data-name="Trazado 920892" d="M172.17,292.741a263.053,263.053,0,0,1-15.526,21.311c-9.1,11.167-18.877,22.228-26.35,24.126C116.635,354.95,90.24,389.706,78,405.889l9.334,4.765s2.967-5.015,45.339-64.04c17.551-6.4,31.9-36.912,35.134-41.649C170.728,300.7,173.641,297.074,172.17,292.741Z" transform="translate(-51.081 -275.817)" fill="#fff6e7" opacity="0.22" style="mix-blend-mode: overlay;isolation: isolate"/>
                    <path id="Trazado_920893" data-name="Trazado 920893" d="M183.8,262.549c-2.6-.509-21.569,13.475-26.216,16.207s-13.877,15.97-13.877,15.97l-.086-.5c-1.607,2.36-3,4.3-4.226,6.227-1.835,2.88-1.938,4.86.892,5.217s15.142-19.786,21.53-25.5c5.185-4.641,18.646-13.841,23.531-17.14A8.5,8.5,0,0,0,183.8,262.549Z" transform="translate(-77.496 -262.536)" fill="#ba5850" opacity="0.33" style="mix-blend-mode: multiply;isolation: isolate"/>
                    <path id="Trazado_920894" data-name="Trazado 920894" d="M128.64,329.663c-1.443-1.68-1.758-10.231.821-20.612a31.964,31.964,0,0,0-.983-17.612,2.886,2.886,0,0,0-.77,1.866,63.027,63.027,0,0,1-1.482,11.292c-1.549,6.461-2.531,19.338-2.889,24.706a105.934,105.934,0,0,0,.705,12.026C124.714,345.531,130.083,331.342,128.64,329.663Z" transform="translate(-71.014 -275.245)" fill="#ba5850" opacity="0.33" style="mix-blend-mode: multiply;isolation: isolate"/>
                    <path id="Trazado_920895" data-name="Trazado 920895" d="M123.064,363.371s.4,6.272.858,9.587" transform="translate(-70.894 -306.874)" fill="none" stroke="#c15656" stroke-linecap="round" stroke-miterlimit="10" stroke-width="1.297"/>
                    <line id="Lnea_631" data-name="Lnea 631" x1="4.767" y2="6.142" transform="translate(61.441 32.19)" fill="none" stroke="#c15656" stroke-linecap="round" stroke-miterlimit="10" stroke-width="1.297"/>
                    <path id="Trazado_920896" data-name="Trazado 920896" d="M223.3,270.859s-13.017,12.019-17.478,16.714-7.371,7.769-7.371,7.769" transform="translate(-104.043 -266.196)" fill="none" stroke="#c15656" stroke-linecap="round" stroke-miterlimit="10" stroke-width="1.297"/>
                    <path id="Trazado_920897" data-name="Trazado 920897" d="M208.819,267.5s-19.053,13.635-24.773,20.637" transform="translate(-97.709 -264.718)" fill="none" stroke="#c15656" stroke-linecap="round" stroke-miterlimit="10" stroke-width="1.297"/>
                    <path id="Trazado_920898" data-name="Trazado 920898" d="M232.594,290.524s-11.511,11.388-15.239,17.262" transform="translate(-112.355 -274.842)" fill="none" stroke="#c15656" stroke-linecap="round" stroke-miterlimit="10" stroke-width="1.297"/>
                  </g>
                  <path id="Trazado_920899" data-name="Trazado 920899" d="M95.479,374.684,72.9,400.58c7.794,8.927,17.817,19.5,26.4,25.671,4.066-5.747,9.289-13.093,15.983-22.46C110.889,390.939,101.649,380.557,95.479,374.684Z" transform="translate(-22.2 -311.849)" fill="#6b413d" opacity="0.36" style="mix-blend-mode: multiply;isolation: isolate"/>
                  <path id="Trazado_920900" data-name="Trazado 920900" d="M50.672,389.922c7.321,4.378,18.153,11.878,24.315,20.96a10.126,10.126,0,0,1-.124,11.449L27.236,490.761-17.59,455.905l55.269-63.824A10.184,10.184,0,0,1,50.672,389.922Z" transform="translate(17.59 -317.915)" fill="#2abadb"/>
                  <path id="Trazado_920901" data-name="Trazado 920901" d="M87.014,389.922a10.184,10.184,0,0,0-12.993,2.159l-8.962,10.566c9.089,3.964,24.215,12.762,38.222,31.086l7.924-11.4a10.126,10.126,0,0,0,.124-11.449C105.167,401.8,94.335,394.3,87.014,389.922Z" transform="translate(-18.752 -317.915)" fill="#b9cece" opacity="0.59" style="mix-blend-mode: multiply;isolation: isolate"/>
                  <path id="Trazado_920902" data-name="Trazado 920902" d="M132.8,431.138a4.032,4.032,0,1,1-4.384-3.647A4.032,4.032,0,0,1,132.8,431.138Z" transform="translate(-45.001 -335.061)" fill="#1c2c48" opacity="0.55" style="mix-blend-mode: multiply;isolation: isolate"/>
                  <path id="Trazado_920903" data-name="Trazado 920903" d="M55.89,393.229c-1.848-1.238-3.619-2.351-5.218-3.307a10.184,10.184,0,0,0-12.993,2.159L-17.59,455.905,9.865,477.253c3.487-4.324,19.816-35.263,21.737-43.191A79.317,79.317,0,0,1,55.89,393.229Z" transform="translate(17.59 -317.915)" fill="#365641" opacity="0.36" style="mix-blend-mode: multiply;isolation: isolate"/>
                </g>
                <path id="Trazado_920904" data-name="Trazado 920904" d="M211.094,266.886c-3.2-5.716-8.23-1.753-8.23-1.753a14.957,14.957,0,0,0-3.515-2.108h0q-.353-.144-.721-.26l-.1-.029a7.45,7.45,0,0,0-.731-.187,5.216,5.216,0,0,0-2.432.792h0l-.19.1c-.15.076-.3.152-.461.236l-.231.125c-.169.091-.338.182-.515.281l-.251.142c-.181.1-.362.205-.551.315l-.258.151c-.2.115-.393.231-.6.354l-.028.017h0c-6.748,4.05-17.38,11.745-20.7,13.7a11.872,11.872,0,0,0-1.661,1.237c.267,2.754,1.43,6.768,5.714,8.792,6.9,3.26,11.29,5.941,11.29,5.941s-9.724,2.651-8.538,6c1.08,3.05,9.49,6.852,20.063,7.505,4.908-7.644,8.38-14.5,9.777-16.547q.257-.377.513-.746l.524-.759.058-.084q.25-.362.492-.719l.041-.061q.245-.362.481-.721l.018-.029c.324-.5.632-.987.916-1.476l.005-.009q.207-.357.394-.713l.025-.047q.183-.35.345-.7l.022-.048q.163-.356.3-.713l.006-.017a9.039,9.039,0,0,0,.562-2.219l.005-.042q.039-.361.042-.726V281.8a7.058,7.058,0,0,0-.038-.743l0-.022a7.358,7.358,0,0,0-.352-1.578v0h0a8.99,8.99,0,0,0-.643-1.448C218.792,271.793,215.791,268.876,211.094,266.886Z" transform="translate(-64.862 -262.536)" fill="#894a4a" opacity="0.31" style="mix-blend-mode: multiply;isolation: isolate"/>
              </g>
              <g id="Grupo_1123644" data-name="Grupo 1123644" transform="translate(168.607 88.477)">
                <g id="Grupo_1123643" data-name="Grupo 1123643" transform="translate(0)">
                  <path id="Trazado_920905" data-name="Trazado 920905" d="M286.217,286.711s-17.668-3.931-23.416-7.543-14.147-16.678-18.713-20.483-9.473-6.751-12.018-10.637c-3.518-4.494-6.5-9.218-7.535-10.512s-2.8.654-3.408,2.734a12.741,12.741,0,0,0,2.377,10.142,78.666,78.666,0,0,1,6.072,8.913,46.732,46.732,0,0,1-16.281-4.153c-3.737-1.928-17.864-8.651-22.827-10.625s-7.041-2.027-8.084.875c-.7,1.943,1.863,3.725,7.053,6.342s14.908,7.917,18.593,10.046,7.927,5.916,4.664,4.95-28.877-10.489-32.331-11.53-5.5-2.3-6.977,1.425c-.929,2.614.236,3.852,5.581,5.977l23.381,9.3c3.436,1.366,7.484,3.971,6.971,4.983s-9.825-1.7-16.619-4.067-16.531-7.347-18.086-2.882c-1.2,2.73,1,4.156,7.814,6.755s21.891,8.042,24.124,8.819,7.6,4.791,1.076,3.965-20.519-2.855-22.744-2.413a2.744,2.744,0,0,0-2.218,3.76c.651,1.143,2.369,2.379,10.554,3.755s25.261,4.85,32.053,6.114,22.929,2.376,28.977,3.565a105.208,105.208,0,0,1,19.7,6.616l4.028,1.823S288.355,297.177,286.217,286.711Z" transform="translate(-173.096 -237.119)" fill="#b26260"/>
                  <path id="Trazado_920906" data-name="Trazado 920906" d="M191.9,328.479a1.082,1.082,0,0,1,1.053-.8c1.369.014,3.962.357,3.479,2.81-.453,2.39-4.333.681-4.333.681S191.3,330.652,191.9,328.479Z" transform="translate(-181.266 -276.941)" fill="#894a4a" opacity="0.65" style="mix-blend-mode: multiply;isolation: isolate"/>
                  <path id="Trazado_920907" data-name="Trazado 920907" d="M177.671,297.449a.732.732,0,0,0,.426.554c1.013.458,3.945,1.544,4.858-.751.888-2.234-1.656-3.038-3.363-3.474a.734.734,0,0,0-.745.241A4.3,4.3,0,0,0,177.671,297.449Z" transform="translate(-175.091 -262.023)" fill="#894a4a" opacity="0.65" style="mix-blend-mode: multiply;isolation: isolate"/>
                  <path id="Trazado_920908" data-name="Trazado 920908" d="M175.068,272.876a.975.975,0,0,0,.574.811c1.223.559,4.278,1.658,5.249-.782.979-2.464-2.264-3.791-3.6-4.223a.977.977,0,0,0-1.019.266A5.07,5.07,0,0,0,175.068,272.876Z" transform="translate(-173.955 -250.976)" fill="#894a4a" opacity="0.65" style="mix-blend-mode: multiply;isolation: isolate"/>
                  <path id="Trazado_920909" data-name="Trazado 920909" d="M192.056,252.866c.932.637,3.64,2.185,5.11-.148.828-1.753-2.046-3.19-3.32-3.727a.9.9,0,0,0-1.031.244,4.273,4.273,0,0,0-1.153,2.941A.914.914,0,0,0,192.056,252.866Z" transform="translate(-181.257 -242.308)" fill="#894a4a" opacity="0.65" style="mix-blend-mode: multiply;isolation: isolate"/>
                  <path id="Trazado_920910" data-name="Trazado 920910" d="M262,239.4a12.585,12.585,0,0,1,1.487-1.54c.647.811,2.062,2.972,3.9,5.578-1.948,1.421-3.57.166-5.411-2.278A1.435,1.435,0,0,1,262,239.4Z" transform="translate(-212.051 -237.446)" fill="#894a4a" opacity="0.65" style="mix-blend-mode: multiply;isolation: isolate"/>
                  <path id="Trazado_920911" data-name="Trazado 920911" d="M226.756,264.043a5.755,5.755,0,0,0-2.6,4.768A12.314,12.314,0,0,0,226.756,264.043Z" transform="translate(-195.546 -248.958)" fill="#894a4a" opacity="0.21" style="mix-blend-mode: multiply;isolation: isolate"/>
                  <path id="Trazado_920912" data-name="Trazado 920912" d="M229.721,265.222a5.753,5.753,0,0,0-2.6,4.767A12.3,12.3,0,0,0,229.721,265.222Z" transform="translate(-196.85 -249.476)" fill="#894a4a" opacity="0.21" style="mix-blend-mode: multiply;isolation: isolate"/>
                  <path id="Trazado_920913" data-name="Trazado 920913" d="M216.125,283.238s-1.671,1.491-2.277,5.726A25.754,25.754,0,0,0,216.125,283.238Z" transform="translate(-191.015 -257.398)" fill="#894a4a" opacity="0.21" style="mix-blend-mode: multiply;isolation: isolate"/>
                  <path id="Trazado_920914" data-name="Trazado 920914" d="M218.341,284.119s-1.671,1.491-2.277,5.726A25.754,25.754,0,0,0,218.341,284.119Z" transform="translate(-191.99 -257.785)" fill="#894a4a" opacity="0.21" style="mix-blend-mode: multiply;isolation: isolate"/>
                  <path id="Trazado_920915" data-name="Trazado 920915" d="M217.048,306.418s-1.711,2.635-1.378,4.923C217.651,307.818,217.048,306.418,217.048,306.418Z" transform="translate(-191.798 -267.591)" fill="#894a4a" opacity="0.21" style="mix-blend-mode: multiply;isolation: isolate"/>
                  <path id="Trazado_920916" data-name="Trazado 920916" d="M214.787,305.519s-1.711,2.635-1.377,4.923C215.391,306.919,214.787,305.519,214.787,305.519Z" transform="translate(-190.804 -267.195)" fill="#894a4a" opacity="0.21" style="mix-blend-mode: multiply;isolation: isolate"/>
                  <path id="Trazado_920917" data-name="Trazado 920917" d="M223.662,333.671a10.276,10.276,0,0,0-.636,3.892C223.981,336.2,223.662,333.671,223.662,333.671Z" transform="translate(-195.034 -279.574)" fill="#894a4a" opacity="0.21" style="mix-blend-mode: multiply;isolation: isolate"/>
                  <path id="Trazado_920918" data-name="Trazado 920918" d="M221.729,332.9a10.279,10.279,0,0,0-.636,3.892C222.049,335.433,221.729,332.9,221.729,332.9Z" transform="translate(-194.184 -279.236)" fill="#894a4a" opacity="0.21" style="mix-blend-mode: multiply;isolation: isolate"/>
                  <path id="Trazado_920919" data-name="Trazado 920919" d="M209.266,330.762a8.1,8.1,0,0,1-.648,3.721A9.891,9.891,0,0,1,209.266,330.762Z" transform="translate(-188.697 -278.295)" fill="#894a4a" opacity="0.21" style="mix-blend-mode: multiply;isolation: isolate"/>
                  <path id="Trazado_920920" data-name="Trazado 920920" d="M210.169,256.009a8.424,8.424,0,0,1-2.738,4.383A50.792,50.792,0,0,0,210.169,256.009Z" transform="translate(-188.194 -245.425)" fill="#894a4a" opacity="0.21" style="mix-blend-mode: multiply;isolation: isolate"/>
                  <path id="Trazado_920921" data-name="Trazado 920921" d="M193.826,274.246a6.931,6.931,0,0,1-1.878,4.724C192.759,276.722,193.826,274.246,193.826,274.246Z" transform="translate(-181.386 -253.444)" fill="#894a4a" opacity="0.21" style="mix-blend-mode: multiply;isolation: isolate"/>
                  <path id="Trazado_920922" data-name="Trazado 920922" d="M196.692,301s.275,1.6-1.452,3.65A25.542,25.542,0,0,1,196.692,301Z" transform="translate(-182.833 -265.206)" fill="#894a4a" opacity="0.21" style="mix-blend-mode: multiply;isolation: isolate"/>
                  <path id="Trazado_920923" data-name="Trazado 920923" d="M271.48,259.054a18.1,18.1,0,0,0,3.478-3.287l.374.481c.084.128.178.253.267.379C274.49,257.7,272.86,259.018,271.48,259.054Z" transform="translate(-216.357 -245.319)" fill="#894a4a" opacity="0.21" style="mix-blend-mode: multiply;isolation: isolate"/>
                  <path id="Trazado_920924" data-name="Trazado 920924" d="M197.582,255.094a4.347,4.347,0,0,1,1.26-3.6c.8.652,1.337,1.462.916,2.355A2.435,2.435,0,0,1,197.582,255.094Z" transform="translate(-183.848 -243.441)" fill="#e9a08c" opacity="0.15"/>
                  <path id="Trazado_920925" data-name="Trazado 920925" d="M181.2,275.718a6.405,6.405,0,0,1,1.753-4.138,2.264,2.264,0,0,1,.646,2.62A2.342,2.342,0,0,1,181.2,275.718Z" transform="translate(-176.658 -252.272)" fill="#e9a08c" opacity="0.15"/>
                  <path id="Trazado_920926" data-name="Trazado 920926" d="M185.093,295.982a1.822,1.822,0,0,1,.5,2.249,2.126,2.126,0,0,1-1.955,1.4A7.739,7.739,0,0,1,185.093,295.982Z" transform="translate(-177.733 -263.002)" fill="#e9a08c" opacity="0.15"/>
                  <path id="Trazado_920927" data-name="Trazado 920927" d="M198.143,332.328a5.09,5.09,0,0,1,.548-3.182,1.957,1.957,0,0,1,.559,1.99A1.417,1.417,0,0,1,198.143,332.328Z" transform="translate(-184.082 -277.584)" fill="#e9a08c" opacity="0.15"/>
                  <path id="Trazado_920928" data-name="Trazado 920928" d="M268.656,244.857c.362.525.747,1.08,1.154,1.659a2.449,2.449,0,0,1-2.608.374A5.728,5.728,0,0,1,268.656,244.857Z" transform="translate(-214.476 -240.521)" fill="#e9a08c" opacity="0.15"/>
                  <path id="Trazado_920929" data-name="Trazado 920929" d="M211.076,317.071h0c2.487-.468-1.551-3.364-3.412-4.012-2.233-.777-17.311-6.22-24.124-8.819-4.713-1.8-7.215-3.035-7.916-4.529a66.859,66.859,0,0,0,12.2,5.142c6.244,1.807,21.127,6.731,23.516,8.454S215.472,316.942,211.076,317.071Z" transform="translate(-174.208 -264.641)" fill="#894a4a" opacity="0.51" style="mix-blend-mode: multiply;isolation: isolate"/>
                  <path id="Trazado_920930" data-name="Trazado 920930" d="M206.158,289.3c2.419,1.422,7,4.855,3.245,4.625.513-1.012-3.535-3.617-6.971-4.983l-23.381-9.3c-3.643-1.449-5.343-2.485-5.763-3.827.009.007,1.963,1.4,8.664,3.857C188.668,282.147,203.74,287.883,206.158,289.3Z" transform="translate(-173.181 -254.137)" fill="#894a4a" opacity="0.51" style="mix-blend-mode: multiply;isolation: isolate"/>
                  <path id="Trazado_920931" data-name="Trazado 920931" d="M217.614,268.167c3.361,2.11,7.572,6.5,3.272,5.24h0c1-.275-2.526-3.275-5.654-5.082-3.685-2.129-13.4-7.43-18.593-10.046s-7.752-4.4-7.053-6.342a20,20,0,0,0,7.373,5.64C201.825,259.788,214.253,266.056,217.614,268.167Z" transform="translate(-180.297 -243.634)" fill="#894a4a" opacity="0.51" style="mix-blend-mode: multiply;isolation: isolate"/>
                  <path id="Trazado_920932" data-name="Trazado 920932" d="M258.612,241.223a6.555,6.555,0,0,1,.935-1.936s-1.6,5.321,1.12,9.164,11.261,13.209,6.395,11.827a78.672,78.672,0,0,0-6.072-8.913A12.741,12.741,0,0,1,258.612,241.223Z" transform="translate(-210.581 -238.072)" fill="#894a4a" opacity="0.21" style="mix-blend-mode: multiply;isolation: isolate"/>
                  <path id="Trazado_920933" data-name="Trazado 920933" d="M326.607,350.041s4.165,3.978,7.455-.682" transform="translate(-240.597 -286.472)" fill="none" stroke="#894a4a" stroke-miterlimit="10" stroke-width="0.833"/>
                  <path id="Trazado_920934" data-name="Trazado 920934" d="M232.6,342.187c-6.792-1.264-23.868-4.739-32.053-6.114s-9.9-2.612-10.554-3.755a1.96,1.96,0,0,1-.235-.89,105.294,105.294,0,0,0,16.678,4.362c10.049,1.758,35.89,5.981,44.915,5.8,7.836-.157,28.019,2.565,37.032,7.3-1.674,3.189-3.083,5.3-3.083,5.3l-4.028-1.823a105.208,105.208,0,0,0-19.7-6.616C255.528,344.563,239.391,343.451,232.6,342.187Z" transform="translate(-180.422 -278.587)" fill="#894a4a" opacity="0.51" style="mix-blend-mode: multiply;isolation: isolate"/>
                  <path id="Trazado_920935" data-name="Trazado 920935" d="M326.269,294.278c-16.258-3.546-37.819-20.123-40.4-26-2.874-6.532-10.638-11.606-16.845-18.717-4.5-5.149-4.671-9.795-4.425-11.968a1.252,1.252,0,0,1,.143.152c1.033,1.294,4.017,6.018,7.535,10.512,2.544,3.886,7.452,6.832,12.018,10.637S297.255,275.763,303,279.376s23.416,7.543,23.416,7.543A19.222,19.222,0,0,1,326.269,294.278Z" transform="translate(-213.299 -237.327)" fill="#fff" opacity="0.22" style="mix-blend-mode: overlay;isolation: isolate"/>
                </g>
                <path id="Trazado_920936" data-name="Trazado 920936" d="M345.85,312.619c-2.322,6.805-5.633,19.406-3.287,30.906a5.648,5.648,0,0,0,3.018,3.923l115.851,57.73,85.6-24.749-194.258-71.4A5.641,5.641,0,0,0,345.85,312.619Z" transform="translate(-247.26 -268.64)" fill="#a06338"/>
                <path id="Trazado_920937" data-name="Trazado 920937" d="M373.675,315.123l-20.9-6.09a5.641,5.641,0,0,0-6.921,3.586c-2.322,6.805-5.633,19.406-3.287,30.906a5.65,5.65,0,0,0,3.019,3.923l25.485,12.7C365.413,343.453,370.7,323.843,373.675,315.123Z" transform="translate(-247.26 -268.64)" fill="#bc8d2f" opacity="0.43"/>
                <path id="Trazado_920938" data-name="Trazado 920938" d="M462.257,405.412c-21.348-7.738-52.659-28.244-71.871-43.856-23.185-18.84-47.716-23.766-47.724-23.767a51.023,51.023,0,0,0-.1,18.48,5.65,5.65,0,0,0,3.019,3.923l115.851,57.73Z" transform="translate(-247.26 -281.385)" fill="#fff" opacity="0.59" style="mix-blend-mode: overlay;isolation: isolate"/>
              </g>
              <g id="Grupo_1123646" data-name="Grupo 1123646" transform="translate(189.134 21.935)">
                <g id="Grupo_1123645" data-name="Grupo 1123645" transform="translate(0 11.426)">
                  <path id="Trazado_920939" data-name="Trazado 920939" d="M366.925,138.747l-85.818,38.56s-18.344-4.486-26.853-5a63,63,0,0,1-11.234-1.873,2.967,2.967,0,0,0-3.056,4.7,17.075,17.075,0,0,0,8.908,6.066l4.893,2.451s-15.353,4.972-19.321,8.621S211.57,210,211.3,212.629a13.317,13.317,0,0,0,1,5.6s-5.256,3.654-.722,8.384c.535,5.073,2.451,8.793,10.394,4.056,3.978,4.091,8.688,2.144,14.161.431s38.84-6.549,50.08-21.472c68.812-23.331,74.473-24.709,74.473-24.709Z" transform="translate(-209.732 -138.747)" fill="#ffccc7"/>
                  <path id="Trazado_920940" data-name="Trazado 920940" d="M348.012,239.7s4.326-2.954,11.168,1.407" transform="translate(-270.535 -182.706)" fill="none" stroke="#c15656" stroke-linecap="round" stroke-miterlimit="10" stroke-width="1.297"/>
                  <path id="Trazado_920941" data-name="Trazado 920941" d="M269.228,195.608c1.2.291,2.49.576,3.846.831a9.034,9.034,0,0,1-1.825,2.753c-.868.424-3.523-.856-3.523-.856Z" transform="translate(-235.233 -163.749)" fill="#fff6e7" opacity="0.22" style="mix-blend-mode: overlay;isolation: isolate"/>
                  <path id="Trazado_920942" data-name="Trazado 920942" d="M217.691,262.5a6.908,6.908,0,0,1,.99,5.468l-1.745,1.191c-.945-.5-1.517-2.786-1.788-4.211C215.817,264.237,216.685,263.409,217.691,262.5Z" transform="translate(-212.113 -193.163)" fill="#fff6e7" opacity="0.22" style="mix-blend-mode: overlay;isolation: isolate"/>
                  <path id="Trazado_920943" data-name="Trazado 920943" d="M213.524,279.426s1.488,4.176,2.445,4.771l1.75-1.163a14.96,14.96,0,0,0-1.163-5.915C215.586,277.844,213.524,279.426,213.524,279.426Z" transform="translate(-211.399 -199.591)" fill="#fff6e7" opacity="0.22" style="mix-blend-mode: overlay;isolation: isolate"/>
                  <path id="Trazado_920944" data-name="Trazado 920944" d="M215.116,292.692s1.64,3.989,2.6,4.584a7.229,7.229,0,0,0,2.363-1.2,15.839,15.839,0,0,0-1.335-5.491A39.7,39.7,0,0,1,215.116,292.692Z" transform="translate(-212.099 -205.514)" fill="#fff6e7" opacity="0.22" style="mix-blend-mode: overlay;isolation: isolate"/>
                  <path id="Trazado_920945" data-name="Trazado 920945" d="M238.03,298.618s.577,2.46,1.842,3.365l1.253-.505a11.519,11.519,0,0,1-1.1-3.875A13.207,13.207,0,0,0,238.03,298.618Z" transform="translate(-222.175 -208.598)" fill="#fff6e7" opacity="0.22" style="mix-blend-mode: overlay;isolation: isolate"/>
                  <path id="Trazado_920946" data-name="Trazado 920946" d="M233.712,259.838a263.192,263.192,0,0,0,24.91-8.641c13.334-5.452,26.764-11.579,30.758-18.176,20.024-8.18,60.963-23.3,80.01-30.288l1.838,10.318s-5.662,1.377-74.473,24.709c-11.239,14.923-44.606,19.759-50.08,21.472C241.741,260.775,237.428,262.507,233.712,259.838Z" transform="translate(-220.276 -166.882)" fill="#fff6e7" opacity="0.22" style="mix-blend-mode: overlay;isolation: isolate"/>
                  <path id="Trazado_920947" data-name="Trazado 920947" d="M212.5,245.612c.269-2.633,19.176-16.706,23.143-20.355s19.321-8.621,19.321-8.621l-.455-.227c2.727-.85,4.993-1.616,7.188-2.228,3.29-.916,5.215-.438,4.731,2.374s-23.34,8.719-30.671,13.163c-5.951,3.607-18.674,13.8-23.254,17.515A8.458,8.458,0,0,1,212.5,245.612Z" transform="translate(-210.934 -171.73)" fill="#ba5850" opacity="0.33" style="mix-blend-mode: multiply;isolation: isolate"/>
                  <path id="Trazado_920948" data-name="Trazado 920948" d="M302.077,206.712c-1.186-1.87-9.274-4.663-19.957-5.221a31.962,31.962,0,0,1-16.56-6.073,2.888,2.888,0,0,1,2.009-.193A62.988,62.988,0,0,0,278.8,197.1c6.632.4,19.236,3.214,24.476,4.436a105.88,105.88,0,0,1,11.3,4.179C318.4,207.581,303.262,208.582,302.077,206.712Z" transform="translate(-234.28 -163.538)" fill="#ba5850" opacity="0.33" style="mix-blend-mode: multiply;isolation: isolate"/>
                  <path id="Trazado_920949" data-name="Trazado 920949" d="M337.122,207.568s5.882,2.215,8.921,3.614" transform="translate(-265.747 -169.008)" fill="none" stroke="#c15656" stroke-linecap="round" stroke-miterlimit="10" stroke-width="1.297"/>
                  <path id="Trazado_920950" data-name="Trazado 920950" d="M213.734,282.093s15.29-8.949,21.081-11.848,9.58-4.787,9.58-4.787" transform="translate(-211.492 -194.463)" fill="none" stroke="#c15656" stroke-linecap="round" stroke-miterlimit="10" stroke-width="1.297"/>
                  <path id="Trazado_920951" data-name="Trazado 920951" d="M214.756,266.383s18.595-14.253,26.96-17.684" transform="translate(-211.941 -187.094)" fill="none" stroke="#c15656" stroke-linecap="round" stroke-miterlimit="10" stroke-width="1.297"/>
                  <path id="Trazado_920952" data-name="Trazado 920952" d="M232.033,295.063s14.249-7.692,20.955-9.547" transform="translate(-219.538 -203.283)" fill="none" stroke="#c15656" stroke-linecap="round" stroke-miterlimit="10" stroke-width="1.297"/>
                </g>
                <path id="Trazado_920953" data-name="Trazado 920953" d="M391.671,153.741c-.039,8.061,1.049,24.692,9.993,33.3a6.818,6.818,0,0,0,6.7,1.6l227.544-63.116L493.423,89.254l-97.537,58.2A6.834,6.834,0,0,0,391.671,153.741Z" transform="translate(-289.732 -118.354)" fill="#6fb590"/>
                <path id="Trazado_920954" data-name="Trazado 920954" d="M415.934,155.446l-20.048,8.321a6.834,6.834,0,0,0-4.215,6.284c-.039,8.061,1.049,24.692,9.993,33.3a6.818,6.818,0,0,0,6.7,1.6l18.553-5.62C416.68,187.7,415.709,166.23,415.934,155.446Z" transform="translate(-289.732 -134.664)" fill="#448260"/>
                <path id="Trazado_920955" data-name="Trazado 920955" d="M464.625,118.354l-68.739,29.1a6.834,6.834,0,0,0-4.214,6.284c-.007,1.4.022,3.071.119,4.906,5.045-.9,12.343-1.532,22.906-1.542,19.874-.02,38.824-6.184,48.047-7.529Z" transform="translate(-289.732 -118.354)" fill="#304c75" opacity="0.28" style="mix-blend-mode: multiply;isolation: isolate"/>
              </g>
              <g id="Grupo_1123648" data-name="Grupo 1123648">
                <path id="Trazado_920956" data-name="Trazado 920956" d="M135.044,185.626s3.226,1.184,1.953,5.507c-1.176,8.206-2.863,30.545-11.788,30.263C116.109,210.75,129.018,188.224,135.044,185.626Z" transform="translate(17.953 -126)" fill="#fdb03e"/>
                <g id="Grupo_1123647" data-name="Grupo 1123647" transform="translate(134.284 61)">
                  <path id="Trazado_920957" data-name="Trazado 920957" d="M112.183,214.905s18.2,3.766,24.153,7.386,14.777,16.9,19.523,20.741,9.827,6.786,12.5,10.736c3.681,4.56,6.816,9.363,7.9,10.676s2.867-.714,3.457-2.859a13.081,13.081,0,0,0-2.6-10.375,80.665,80.665,0,0,1-6.369-9.056c6.391.4,12.911,2.092,16.777,4.014s18.47,8.608,23.595,10.558,7.26,1.973,8.286-1.021c.687-2.005-1.97-3.8-7.338-6.4s-15.425-7.9-19.24-10.029-8.228-5.951-4.863-5.009,29.8,10.325,33.366,11.342,5.678,2.274,7.141-1.57c.914-2.7-.3-3.951-5.821-6.051L198.5,228.8c-3.548-1.35-7.744-3.962-7.232-5.008s10.112,1.591,17.123,3.92,17.082,7.29,18.61,2.682c1.186-2.82-1.09-4.25-8.125-6.814s-22.6-7.921-24.9-8.685-7.875-4.8-1.165-4.054,21.108,2.617,23.385,2.129a2.817,2.817,0,0,0,2.22-3.894c-.686-1.163-2.469-2.406-10.892-3.693s-26.006-4.593-33-5.787-23.574-2.088-29.8-3.217a107.965,107.965,0,0,1-20.319-6.491l-4.162-1.81S109.828,204.194,112.183,214.905Z" transform="translate(-111.837 -188.077)" fill="#5d1408"/>
                  <path id="Trazado_920958" data-name="Trazado 920958" d="M296.459,226.983a1.111,1.111,0,0,1-1.069.835c-1.406.007-4.073-.306-3.614-2.832.428-2.46,4.437-.765,4.437-.765S297.046,224.744,296.459,226.983Z" transform="translate(-190.935 -203.719)" fill="#e9a08c" opacity="0.14"/>
                  <path id="Trazado_920959" data-name="Trazado 920959" d="M310.982,257.956a.752.752,0,0,0-.447-.562c-1.047-.455-4.073-1.525-4.975.845-.877,2.307,1.746,3.094,3.506,3.515a.755.755,0,0,0,.76-.259A4.414,4.414,0,0,0,310.982,257.956Z" transform="translate(-196.942 -218.276)" fill="#e9a08c" opacity="0.14"/>
                  <path id="Trazado_920960" data-name="Trazado 920960" d="M313.6,282.436a1,1,0,0,0-.6-.824c-1.265-.556-4.418-1.638-5.377.883-.968,2.544,2.382,3.858,3.757,4.281a1,1,0,0,0,1.042-.289A5.206,5.206,0,0,0,313.6,282.436Z" transform="translate(-197.851 -228.892)" fill="#e9a08c" opacity="0.14"/>
                  <path id="Trazado_920961" data-name="Trazado 920961" d="M296.766,303.839c-.966-.639-3.77-2.188-5.244.23-.822,1.813,2.149,3.244,3.465,3.776a.922.922,0,0,0,1.056-.266,4.391,4.391,0,0,0,1.138-3.037A.936.936,0,0,0,296.766,303.839Z" transform="translate(-190.784 -238.504)" fill="#e9a08c" opacity="0.14"/>
                  <path id="Trazado_920962" data-name="Trazado 920962" d="M225.108,317.824a12.984,12.984,0,0,1-1.5,1.6c-.677-.824-2.162-3.019-4.083-5.666,1.978-1.489,3.661-.225,5.589,2.255A1.474,1.474,0,0,1,225.108,317.824Z" transform="translate(-159.187 -243.061)" fill="#e9a08c" opacity="0.14"/>
                  <path id="Trazado_920963" data-name="Trazado 920963" d="M263.473,293.076a5.908,5.908,0,0,0,2.6-4.933A12.632,12.632,0,0,0,263.473,293.076Z" transform="translate(-178.513 -232.077)" fill="#894a4a" opacity="0.21" style="mix-blend-mode: multiply;isolation: isolate"/>
                  <path id="Trazado_920964" data-name="Trazado 920964" d="M260.412,291.911a5.908,5.908,0,0,0,2.6-4.933A12.631,12.631,0,0,0,260.412,291.911Z" transform="translate(-177.167 -231.565)" fill="#894a4a" opacity="0.21" style="mix-blend-mode: multiply;isolation: isolate"/>
                  <path id="Trazado_920965" data-name="Trazado 920965" d="M274.356,272.437s1.692-1.556,2.25-5.913A26.464,26.464,0,0,0,274.356,272.437Z" transform="translate(-183.298 -222.571)" fill="#894a4a" opacity="0.21" style="mix-blend-mode: multiply;isolation: isolate"/>
                  <path id="Trazado_920966" data-name="Trazado 920966" d="M272.068,271.567s1.692-1.556,2.25-5.913A26.421,26.421,0,0,0,272.068,271.567Z" transform="translate(-182.292 -222.189)" fill="#894a4a" opacity="0.21" style="mix-blend-mode: multiply;isolation: isolate"/>
                  <path id="Trazado_920967" data-name="Trazado 920967" d="M273.666,249.3s1.716-2.731,1.339-5.075C273.025,247.874,273.666,249.3,273.666,249.3Z" transform="translate(-182.952 -212.767)" fill="#894a4a" opacity="0.21" style="mix-blend-mode: multiply;isolation: isolate"/>
                  <path id="Trazado_920968" data-name="Trazado 920968" d="M276,250.191s1.716-2.731,1.339-5.075C275.36,248.763,276,250.191,276,250.191Z" transform="translate(-183.978 -213.158)" fill="#894a4a" opacity="0.21" style="mix-blend-mode: multiply;isolation: isolate"/>
                  <path id="Trazado_920969" data-name="Trazado 920969" d="M267.085,222.258a10.553,10.553,0,0,0,.593-4C266.718,219.665,267.085,222.258,267.085,222.258Z" transform="translate(-180.071 -201.346)" fill="#894a4a" opacity="0.21" style="mix-blend-mode: multiply;isolation: isolate"/>
                  <path id="Trazado_920970" data-name="Trazado 920970" d="M269.08,223.018a10.552,10.552,0,0,0,.593-4C268.713,220.424,269.08,223.018,269.08,223.018Z" transform="translate(-180.948 -201.68)" fill="#894a4a" opacity="0.21" style="mix-blend-mode: multiply;isolation: isolate"/>
                  <path id="Trazado_920971" data-name="Trazado 920971" d="M281.927,225.162a8.31,8.31,0,0,1,.608-3.83A10.158,10.158,0,0,1,281.927,225.162Z" transform="translate(-186.615 -202.7)" fill="#894a4a" opacity="0.21" style="mix-blend-mode: multiply;isolation: isolate"/>
                  <path id="Trazado_920972" data-name="Trazado 920972" d="M280.516,301.38a8.646,8.646,0,0,1,2.743-4.541A52.145,52.145,0,0,0,280.516,301.38Z" transform="translate(-186.007 -235.901)" fill="#894a4a" opacity="0.21" style="mix-blend-mode: multiply;isolation: isolate"/>
                  <path id="Trazado_920973" data-name="Trazado 920973" d="M297.7,282.134a7.116,7.116,0,0,1,1.856-4.878C298.76,279.576,297.7,282.134,297.7,282.134Z" transform="translate(-193.562 -227.29)" fill="#894a4a" opacity="0.21" style="mix-blend-mode: multiply;isolation: isolate"/>
                  <path id="Trazado_920974" data-name="Trazado 920974" d="M294.683,255.583s-.306-1.639,1.434-3.769A26.206,26.206,0,0,1,294.683,255.583Z" transform="translate(-192.227 -216.103)" fill="#894a4a" opacity="0.21" style="mix-blend-mode: multiply;isolation: isolate"/>
                  <path id="Trazado_920975" data-name="Trazado 920975" d="M216.407,300.074a18.576,18.576,0,0,0-3.52,3.428q-.2-.244-.391-.488c-.088-.131-.186-.257-.28-.385C213.338,301.507,214.991,300.132,216.407,300.074Z" transform="translate(-155.975 -237.323)" fill="#894a4a" opacity="0.21" style="mix-blend-mode: multiply;isolation: isolate"/>
                  <path id="Trazado_920976" data-name="Trazado 920976" d="M293.737,302.76a4.463,4.463,0,0,1-1.239,3.712c-.83-.657-1.4-1.48-.977-2.4A2.5,2.5,0,0,1,293.737,302.76Z" transform="translate(-190.784 -238.505)" fill="#e9a08c" opacity="0.25"/>
                  <path id="Trazado_920977" data-name="Trazado 920977" d="M310.064,280.9a6.577,6.577,0,0,1-1.736,4.275,2.323,2.323,0,0,1-.7-2.68A2.4,2.4,0,0,1,310.064,280.9Z" transform="translate(-197.851 -228.893)" fill="#e9a08c" opacity="0.25"/>
                  <path id="Trazado_920978" data-name="Trazado 920978" d="M306.112,260.552a1.871,1.871,0,0,1-.552-2.3,2.185,2.185,0,0,1,1.986-1.469A7.934,7.934,0,0,1,306.112,260.552Z" transform="translate(-196.942 -218.288)" fill="#e9a08c" opacity="0.25"/>
                  <path id="Trazado_920979" data-name="Trazado 920979" d="M292.893,223.819a5.225,5.225,0,0,1-.514,3.275,2.009,2.009,0,0,1-.6-2.034A1.453,1.453,0,0,1,292.893,223.819Z" transform="translate(-190.935 -203.793)" fill="#e9a08c" opacity="0.25"/>
                  <path id="Trazado_920980" data-name="Trazado 920980" d="M220.731,315.447c-.379-.533-.783-1.1-1.21-1.685a2.514,2.514,0,0,1,2.671-.425A5.873,5.873,0,0,1,220.731,315.447Z" transform="translate(-159.187 -243.062)" fill="#e9a08c" opacity="0.25"/>
                  <path id="Trazado_920981" data-name="Trazado 920981" d="M249.918,228.68h0c-2.546.518,1.644,3.429,3.565,4.066,2.3.764,17.865,6.121,24.9,8.685,4.866,1.773,7.453,3,8.195,4.528a68.629,68.629,0,0,0-12.606-5.092c-6.438-1.76-21.791-6.587-24.27-8.319S245.408,228.879,249.918,228.68Z" transform="translate(-171.338 -205.931)" fill="#894a4a" opacity="0.21" style="mix-blend-mode: multiply;isolation: isolate"/>
                  <path id="Trazado_920982" data-name="Trazado 920982" d="M255.875,256.509c-2.505-1.423-7.257-4.876-3.4-4.7-.512,1.047,3.684,3.659,7.232,5.009l24.144,9.187c3.762,1.432,5.523,2.47,5.975,3.84-.01-.006-2.037-1.4-8.953-3.826C273.939,263.591,258.38,257.932,255.875,256.509Z" transform="translate(-173.037 -216.099)" fill="#894a4a" opacity="0.21" style="mix-blend-mode: multiply;isolation: isolate"/>
                  <path id="Trazado_920983" data-name="Trazado 920983" d="M247.858,275.458c-3.483-2.115-7.873-6.555-3.44-5.329h0c-1.023.3,2.643,3.324,5.882,5.131,3.816,2.129,13.873,7.423,19.24,10.029s8.024,4.4,7.338,6.4a20.54,20.54,0,0,0-7.655-5.677C264.194,283.818,251.34,277.573,247.858,275.458Z" transform="translate(-169.312 -224.064)" fill="#894a4a" opacity="0.21" style="mix-blend-mode: multiply;isolation: isolate"/>
                  <path id="Trazado_920984" data-name="Trazado 920984" d="M224.764,303.923a6.722,6.722,0,0,1-.93,2s1.558-5.486-1.289-9.39-11.762-13.388-6.745-12.043a80.661,80.661,0,0,0,6.369,9.056A13.081,13.081,0,0,1,224.764,303.923Z" transform="translate(-156.89 -230.415)" fill="#894a4a" opacity="0.21" style="mix-blend-mode: multiply;isolation: isolate"/>
                  <path id="Trazado_920985" data-name="Trazado 920985" d="M155.747,208.382s-4.337-4.02-7.643.815" transform="translate(-127.784 -196.316)" fill="none" stroke="#380804" stroke-miterlimit="10" stroke-width="0.855"/>
                  <path id="Trazado_920986" data-name="Trazado 920986" d="M178.713,199.594c6.991,1.194,24.574,4.5,33,5.787s10.206,2.53,10.892,3.693a2.015,2.015,0,0,1,.255.911,107.968,107.968,0,0,0-17.187-4.223c-10.342-1.651-36.935-5.591-46.2-5.267-8.041.282-28.8-2.2-38.126-6.93,1.669-3.3,3.084-5.489,3.084-5.489l4.162,1.81a107.966,107.966,0,0,0,20.319,6.491C155.139,197.506,171.721,198.4,178.713,199.594Z" transform="translate(-116.018 -188.077)" fill="#894a4a" opacity="0.21" style="mix-blend-mode: multiply;isolation: isolate"/>
                  <path id="Trazado_920987" data-name="Trazado 920987" d="M112.225,222.473c16.744,3.392,39.131,20.079,41.875,26.075,3.05,6.662,11.1,11.751,17.578,18.956,4.694,5.217,4.944,9.984,4.725,12.218a1.353,1.353,0,0,1-.15-.154c-1.08-1.313-4.216-6.117-7.9-10.676-2.671-3.949-7.754-6.9-12.5-10.736s-13.567-17.121-19.523-20.741-24.153-7.386-24.153-7.386A19.734,19.734,0,0,1,112.225,222.473Z" transform="translate(-111.837 -203.201)" fill="#fff" opacity="0.22" style="mix-blend-mode: overlay;isolation: isolate"/>
                </g>
                <path id="Trazado_920988" data-name="Trazado 920988" d="M47.553,138.831s-11.578,11.912-9.836,35.77L-76.915,135.946l2.126-56.741Z" transform="translate(105.444 -79.205)" fill="#fdb03e"/>
                <path id="Trazado_920989" data-name="Trazado 920989" d="M139.625,190.988a24.781,24.781,0,0,1,2.152-3.418c2.512,1.119,1.428,4.738,1.428,4.738Z" transform="translate(10.229 -126.854)" fill="#5e2626"/>
                <path id="Trazado_920990" data-name="Trazado 920990" d="M127.328,239.125l.079,3.8s4.293-.243,4.672-2.335Z" transform="translate(15.636 -149.524)" fill="#5e2626"/>
                <path id="Trazado_920991" data-name="Trazado 920991" d="M76.9,166.834c-1.116-18.742,10.092-33.12,15.8-39.161L-64.841,79.205-113.4,124.186S-53.561,141.315,76.9,166.834Z" transform="translate(37.405 -79.205)" fill="#ffcb57"/>
                <path id="Trazado_920992" data-name="Trazado 920992" d="M-73.921,79.205l-1.021,27.238c22.874,5.224,52.921,18.356,72.864,26.047C23.7,142.432,40.5,134.973,40.5,134.973Z" transform="translate(104.576 -79.205)" fill="#fff" opacity="0.59" style="mix-blend-mode: overlay;isolation: isolate"/>
                <line id="Lnea_632" data-name="Lnea 632" x1="114.722" y1="39.238" transform="translate(28.612 44.767)" fill="none" stroke="#5f110c" stroke-miterlimit="10" stroke-width="0.887" opacity="0.64"/>
              </g>
              <g id="Grupo_1123650" data-name="Grupo 1123650" transform="translate(166.595 56.425)">
                <g id="Grupo_1123649" data-name="Grupo 1123649">
                  <path id="Trazado_920993" data-name="Trazado 920993" d="M202.874,302.027s.773-18.91-1.333-25.689-13.054-18.775-15.673-24.411-4.278-11.386-7.521-15c-3.6-4.762-7.568-9.047-8.6-10.438s1.414-2.656,3.678-2.71a13.322,13.322,0,0,1,9.61,5.126,82.108,82.108,0,0,0,7.376,8.529c1.182-6.414,1.121-13.273.176-17.568s-3.944-20.375-4.606-25.92-.157-7.66,3.055-7.935c2.151-.184,3.264,2.883,4.514,8.831s4,17.191,5.158,21.486,3.849,9.6,3.749,6.042-2.843-32-2.968-35.768-.844-6.172,3.315-6.668c2.892-.236,3.829,1.274,4.541,7.245l3.116,26.125c.458,3.839,2,8.63,3.163,8.383s.924-10.384.354-17.887-2.985-18.678,1.946-19.05c3.079-.476,3.93,2.127,4.727,9.71s2.247,24.281,2.433,26.746,2.8,8.967,3.718,2.153,2.627-21.5,3.67-23.631a2.869,2.869,0,0,1,4.395-1.232c.98.965,1.768,3.034.96,11.674S233.943,237,233.4,244.2s-3.757,23.808-4.18,30.239a109.951,109.951,0,0,0,1.4,21.679l.76,4.56S212.876,307,202.874,302.027Z" transform="translate(-169.504 -179.913)" fill="#e9a08c"/>
                  <path id="Trazado_920994" data-name="Trazado 920994" d="M280.655,213.955a1.132,1.132,0,0,0-1.089.85c-.354,1.388-.7,4.1,1.906,4.271,2.536.184,1.852-4.2,1.852-4.2S283.012,213.927,280.655,213.955Z" transform="translate(-217.793 -194.881)" fill="#894a4a" opacity="0.39" style="mix-blend-mode: multiply;isolation: isolate"/>
                  <path id="Trazado_920995" data-name="Trazado 920995" d="M253.184,191.466a.766.766,0,0,1,.445.58c.191,1.147.5,4.4-2.064,4.707-2.5.3-2.626-2.489-2.608-4.331a.77.77,0,0,1,.444-.687A4.5,4.5,0,0,1,253.184,191.466Z" transform="translate(-204.44 -184.86)" fill="#894a4a" opacity="0.39" style="mix-blend-mode: multiply;isolation: isolate"/>
                  <path id="Trazado_920996" data-name="Trazado 920996" d="M229.011,182.286a1.02,1.02,0,0,1,.666.8c.237,1.386.527,4.769-2.2,5.095-2.753.328-3.223-3.306-3.3-4.769a1.021,1.021,0,0,1,.542-.959A5.3,5.3,0,0,1,229.011,182.286Z" transform="translate(-193.543 -180.796)" fill="#894a4a" opacity="0.39" style="mix-blend-mode: multiply;isolation: isolate"/>
                  <path id="Trazado_920997" data-name="Trazado 920997" d="M204.252,194.011c.393,1.113,1.23,4.265-1.522,5.124-1.993.365-2.674-2.924-2.875-4.356a.939.939,0,0,1,.524-.977,4.472,4.472,0,0,1,3.282-.375A.956.956,0,0,1,204.252,194.011Z" transform="translate(-182.846 -185.778)" fill="#894a4a" opacity="0.39" style="mix-blend-mode: multiply;isolation: isolate"/>
                  <path id="Trazado_920998" data-name="Trazado 920998" d="M171.893,261a13.2,13.2,0,0,0-1.955,1.089c.647.872,2.449,2.882,4.59,5.434,1.959-1.587,1.126-3.562-.849-6.079A1.5,1.5,0,0,0,171.893,261Z" transform="translate(-169.695 -215.51)" fill="#894a4a" opacity="0.39" style="mix-blend-mode: multiply;isolation: isolate"/>
                  <path id="Trazado_920999" data-name="Trazado 920999" d="M206.091,232.37a6.016,6.016,0,0,1,5.517-1.351A12.869,12.869,0,0,1,206.091,232.37Z" transform="translate(-185.592 -202.296)" fill="#894a4a" opacity="0.21" style="mix-blend-mode: multiply;isolation: isolate"/>
                  <path id="Trazado_921000" data-name="Trazado 921000" d="M206.486,235.682A6.016,6.016,0,0,1,212,234.331,12.869,12.869,0,0,1,206.486,235.682Z" transform="translate(-185.766 -203.752)" fill="#894a4a" opacity="0.21" style="mix-blend-mode: multiply;isolation: isolate"/>
                  <path id="Trazado_921001" data-name="Trazado 921001" d="M228.412,227.045s1.955-1.288,6.4-.763A26.924,26.924,0,0,1,228.412,227.045Z" transform="translate(-195.407 -200.246)" fill="#894a4a" opacity="0.21" style="mix-blend-mode: multiply;isolation: isolate"/>
                  <path id="Trazado_921002" data-name="Trazado 921002" d="M228.707,229.52s1.955-1.288,6.4-.763A26.929,26.929,0,0,1,228.707,229.52Z" transform="translate(-195.536 -201.335)" fill="#894a4a" opacity="0.21" style="mix-blend-mode: multiply;isolation: isolate"/>
                  <path id="Trazado_921003" data-name="Trazado 921003" d="M251.768,233.848s3.122-1.021,5.345-.069C253.021,234.834,251.768,233.848,251.768,233.848Z" transform="translate(-205.677 -203.42)" fill="#894a4a" opacity="0.21" style="mix-blend-mode: multiply;isolation: isolate"/>
                  <path id="Trazado_921004" data-name="Trazado 921004" d="M251.467,231.322s3.123-1.021,5.345-.069C252.72,232.308,251.467,231.322,251.467,231.322Z" transform="translate(-205.544 -202.309)" fill="#894a4a" opacity="0.21" style="mix-blend-mode: multiply;isolation: isolate"/>
                  <path id="Trazado_921005" data-name="Trazado 921005" d="M277.688,247.6a10.75,10.75,0,0,1,4.1.4C280.16,248.6,277.688,247.6,277.688,247.6Z" transform="translate(-217.074 -209.657)" fill="#894a4a" opacity="0.21" style="mix-blend-mode: multiply;isolation: isolate"/>
                  <path id="Trazado_921006" data-name="Trazado 921006" d="M277.431,245.441a10.743,10.743,0,0,1,4.1.4C279.9,246.444,277.431,245.441,277.431,245.441Z" transform="translate(-216.961 -208.707)" fill="#894a4a" opacity="0.21" style="mix-blend-mode: multiply;isolation: isolate"/>
                  <path id="Trazado_921007" data-name="Trazado 921007" d="M278.612,232.277a8.456,8.456,0,0,0,3.934.345C281.341,232.037,278.612,232.277,278.612,232.277Z" transform="translate(-217.48 -202.916)" fill="#894a4a" opacity="0.21" style="mix-blend-mode: multiply;isolation: isolate"/>
                  <path id="Trazado_921008" data-name="Trazado 921008" d="M202.4,213.528a8.806,8.806,0,0,0,5.164-1.589A53.022,53.022,0,0,1,202.4,213.528Z" transform="translate(-183.969 -193.995)" fill="#894a4a" opacity="0.21" style="mix-blend-mode: multiply;isolation: isolate"/>
                  <path id="Trazado_921009" data-name="Trazado 921009" d="M225.4,201.983a7.249,7.249,0,0,0,5.278-.629C228.188,201.57,225.4,201.983,225.4,201.983Z" transform="translate(-194.081 -189.341)" fill="#894a4a" opacity="0.21" style="mix-blend-mode: multiply;isolation: isolate"/>
                  <path id="Trazado_921010" data-name="Trazado 921010" d="M251.749,211.837s1.545.708,4.079-.486A26.739,26.739,0,0,0,251.749,211.837Z" transform="translate(-205.668 -193.736)" fill="#894a4a" opacity="0.21" style="mix-blend-mode: multiply;isolation: isolate"/>
                  <path id="Trazado_921011" data-name="Trazado 921011" d="M188.854,276.071A18.927,18.927,0,0,1,184.6,278.7q.193.252.386.507c.107.119.208.247.312.371C186.68,278.75,188.446,277.456,188.854,276.071Z" transform="translate(-176.141 -222.195)" fill="#894a4a" opacity="0.21" style="mix-blend-mode: multiply;isolation: isolate"/>
                  <path id="Trazado_921012" data-name="Trazado 921012" d="M205.159,200.169a4.545,4.545,0,0,0-3.974.307c.444.982,1.118,1.744,2.134,1.558A2.545,2.545,0,0,0,205.159,200.169Z" transform="translate(-183.435 -188.677)" fill="#e9a08c" opacity="0.44"/>
                  <path id="Trazado_921013" data-name="Trazado 921013" d="M230.305,189.353a6.7,6.7,0,0,0-4.653.659,2.368,2.368,0,0,0,2.475,1.357A2.449,2.449,0,0,0,230.305,189.353Z" transform="translate(-194.193 -183.986)" fill="#e9a08c" opacity="0.44"/>
                  <path id="Trazado_921014" data-name="Trazado 921014" d="M249.8,198.684a1.9,1.9,0,0,0,2.137,1.113,2.223,2.223,0,0,0,1.941-1.6A8.085,8.085,0,0,0,249.8,198.684Z" transform="translate(-204.811 -187.904)" fill="#e9a08c" opacity="0.44"/>
                  <path id="Trazado_921015" data-name="Trazado 921015" d="M283.2,221.321a5.329,5.329,0,0,0-3.363-.3,2.046,2.046,0,0,0,1.861,1.1A1.481,1.481,0,0,0,283.2,221.321Z" transform="translate(-218.019 -197.925)" fill="#e9a08c" opacity="0.44"/>
                  <path id="Trazado_921016" data-name="Trazado 921016" d="M175.692,269.14c.434.507.891,1.045,1.367,1.612a2.562,2.562,0,0,0,1.079-2.535A5.991,5.991,0,0,0,175.692,269.14Z" transform="translate(-172.225 -218.741)" fill="#e9a08c" opacity="0.44"/>
                  <path id="Trazado_921017" data-name="Trazado 921017" d="M264.437,229.921h0c-1.14,2.388-2.982-2.471-3.138-4.526-.186-2.465-1.637-19.163-2.433-26.746-.551-5.245-1.128-8.106-2.451-9.216a69.891,69.891,0,0,1,1.918,13.713c.149,6.8,1.127,23.157,2.228,26.034S263.126,234.328,264.437,229.921Z" transform="translate(-207.72 -184.099)" fill="#894a4a" opacity="0.43" style="mix-blend-mode: multiply;isolation: isolate"/>
                  <path id="Trazado_921018" data-name="Trazado 921018" d="M237.7,217.494c.787,2.826,3.026,8.375,3.8,4.522-1.16.247-2.705-4.544-3.163-8.383l-3.116-26.125c-.486-4.07-1.076-6.067-2.319-6.851,0,.011.882,2.358,1.57,9.791C235.163,197.9,236.912,214.668,237.7,217.494Z" transform="translate(-197.382 -180.24)" fill="#894a4a" opacity="0.43" style="mix-blend-mode: multiply;isolation: isolate"/>
                  <path id="Trazado_921019" data-name="Trazado 921019" d="M213.238,223.477c1.23,3.963,4.533,9.4,4.417,4.714v0c-.547.937-2.631-3.432-3.617-7.079-1.161-4.3-3.908-15.54-5.158-21.486s-2.363-9.014-4.514-8.831a20.918,20.918,0,0,1,3.719,8.965C209.012,205.271,212.008,219.514,213.238,223.477Z" transform="translate(-184.833 -184.693)" fill="#894a4a" opacity="0.43" style="mix-blend-mode: multiply;isolation: isolate"/>
                  <path id="Trazado_921020" data-name="Trazado 921020" d="M174.771,258.2a6.849,6.849,0,0,0-2.208.425s5.805-.185,8.959,3.593,10.324,14.927,10.234,9.638a82.109,82.109,0,0,1-7.376-8.529A13.322,13.322,0,0,0,174.771,258.2Z" transform="translate(-170.849 -214.338)" fill="#894a4a" opacity="0.43" style="mix-blend-mode: multiply;isolation: isolate"/>
                  <path id="Trazado_921021" data-name="Trazado 921021" d="M265.154,355.666s2.9,5.277-2.692,7.35" transform="translate(-210.379 -257.193)" fill="none" stroke="#894a4a" stroke-miterlimit="10" stroke-width="0.87"/>
                  <path id="Trazado_921022" data-name="Trazado 921022" d="M276.373,258.416c.547-7.2,1.621-25.392,2.429-34.032s.021-10.709-.959-11.674a2.057,2.057,0,0,0-.837-.477,109.966,109.966,0,0,1-.071,18.025c-.923,10.627-3.6,37.874-6.2,46.945-2.264,7.875-4.933,29-2.567,39.382,3.672-.834,6.184-1.691,6.184-1.691l-.76-4.56a109.956,109.956,0,0,1-1.4-21.679C272.615,282.224,275.826,265.619,276.373,258.416Z" transform="translate(-212.481 -194.124)" fill="#894a4a" opacity="0.43" style="mix-blend-mode: multiply;isolation: isolate"/>
                  <path id="Trazado_921023" data-name="Trazado 921023" d="M210.451,340.259c.783-17.381-10.178-43.621-15.424-47.813-5.829-4.658-8.872-13.867-14.39-22.05-4-5.925-8.644-7.35-10.905-7.685a1.427,1.427,0,0,0,.115.185c1.031,1.391,5,5.676,8.6,10.438,3.243,3.614,4.9,9.365,7.521,15s13.567,17.632,15.673,24.411,1.333,25.689,1.333,25.689A20.1,20.1,0,0,0,210.451,340.259Z" transform="translate(-169.604 -216.32)" fill="#fff" opacity="0.22" style="mix-blend-mode: overlay;isolation: isolate"/>
                </g>
                <path id="Trazado_921024" data-name="Trazado 921024" d="M222.658,382.384c7.038-2.371,21.729-6.352,34.175-3.384a5.816,5.816,0,0,1,4.306,4.4l29.216,130.732-65.9,5.074-5.777-131.029A5.844,5.844,0,0,1,222.658,382.384Z" transform="translate(-191.124 -266.989)" fill="#db5e1f"/>
                <path id="Trazado_921025" data-name="Trazado 921025" d="M265.184,401.5,261.14,383.4a5.821,5.821,0,0,0-4.307-4.4c-12.446-2.968-27.138,1.012-34.175,3.384a5.844,5.844,0,0,0-3.98,5.795l.853,19.338C230.008,404.4,250.175,399.367,265.184,401.5Z" transform="translate(-191.124 -266.989)" fill="#1b2942" opacity="0.16" style="mix-blend-mode: multiply;isolation: isolate"/>
                <path id="Trazado_921026" data-name="Trazado 921026" d="M282.125,395.687a3.415,3.415,0,1,1-3.712-3.088A3.415,3.415,0,0,1,282.125,395.687Z" transform="translate(-216.028 -273.427)" fill="#5d1408"/>
                <path id="Trazado_921027" data-name="Trazado 921027" d="M274.774,383.4a5.816,5.816,0,0,0-4.306-4.4c-6.8-1.621-14.263-1.168-20.788-.038,1.306,8.685,4.786,28.3,11.241,42.087,7.763,16.578,24.359,66.363,27.546,94.278l15.523-1.2Z" transform="translate(-204.759 -266.99)" fill="#fff" opacity="0.59" style="mix-blend-mode: overlay;isolation: isolate"/>
                <line id="Lnea_633" data-name="Lnea 633" x2="8.298" y2="137.188" transform="translate(35.956 114.027)" fill="none" stroke="#fff" stroke-miterlimit="10" stroke-width="0.887" opacity="0.38"/>
              </g>
            </g>
          </g>
        </g>
      </g>
    </g>
  </g>
</svg>
