<svg xmlns="http://www.w3.org/2000/svg" xmlns:xlink="http://www.w3.org/1999/xlink" width="118" height="118" viewBox="0 0 118 118">
  <defs>
    <filter id="Trazado_874925" x="0" y="0" width="118" height="118" filterUnits="userSpaceOnUse">
      <feOffset dy="3" input="SourceAlpha"/>
      <feGaussianBlur stdDeviation="3" result="blur"/>
      <feFlood flood-opacity="0.161"/>
      <feComposite operator="in" in2="blur"/>
      <feComposite in="SourceGraphic"/>
    </filter>
  </defs>
  <g id="Grupo_1123420" data-name="Grupo 1123420" transform="translate(-4464 10244.653)">
    <g id="Grupo_1111553" data-name="Grupo 1111553" transform="translate(3664.5 -12755.811)">
      <g id="Grupo_1111316" data-name="Grupo 1111316" transform="translate(808.5 2517.157)">
        <g id="Grupo_1109835" data-name="Grupo 1109835" transform="translate(0 0)">
          <g id="Grupo_1107913" data-name="Grupo 1107913" transform="translate(0 0)">
            <g transform="matrix(1, 0, 0, 1, -9, -6)" filter="url(#Trazado_874925)">
              <g id="Trazado_874925-2" data-name="Trazado 874925" transform="translate(9 6)" fill="#bb965f" opacity="0.859">
                <path d="M 49.99972534179688 98.4998779296875 C 43.45164108276367 98.4998779296875 37.10022354125977 97.21776580810547 31.12189674377441 94.68914794921875 C 25.34676742553711 92.24647521972656 20.15985298156738 88.74925994873047 15.70523929595947 84.29464721679688 C 11.25062561035156 79.84004974365234 7.753411293029785 74.65313720703125 5.310725212097168 68.87800598144531 C 2.782111167907715 62.89969253540039 1.499996781349182 56.54829406738281 1.499996781349182 50.00022125244141 C 1.499996781349182 43.45157623291016 2.782111167907715 37.10017776489258 5.310725212097168 31.12186431884766 C 7.753411293029785 25.34673500061035 11.25062561035156 20.15983581542969 15.70523929595947 15.70522117614746 C 20.15985298156738 11.25062084197998 25.34676742553711 7.753406524658203 31.12189674377441 5.31073522567749 C 37.10022354125977 2.782120943069458 43.45164108276367 1.500006556510925 49.99972534179688 1.500006556510925 C 56.54780960083008 1.500006556510925 62.89922714233398 2.782120943069458 68.87755584716797 5.31073522567749 C 74.65267944335938 7.753406524658203 79.839599609375 11.25062084197998 84.29421234130859 15.70522117614746 C 88.74882507324219 20.15983581542969 92.24604034423828 25.34673500061035 94.68872833251953 31.12186431884766 C 97.21733856201172 37.10017776489258 98.49945068359375 43.45157623291016 98.49945068359375 49.99964904785156 C 98.49945068359375 56.54829406738281 97.21733856201172 62.89969253540039 94.68872833251953 68.87800598144531 C 92.24604034423828 74.65313720703125 88.74882507324219 79.84004974365234 84.29421234130859 84.29464721679688 C 79.839599609375 88.74925994873047 74.65267944335938 92.24647521972656 68.87755584716797 94.68914794921875 C 62.89922714233398 97.21776580810547 56.54780960083008 98.4998779296875 49.99972534179688 98.4998779296875 Z" stroke="none"/>
                <path d="M 49.99972534179688 3 C 43.65348052978516 3 37.49866485595703 4.242240905761719 31.70623016357422 6.692230224609375 C 26.10989379882812 9.059272766113281 21.08323669433594 12.44853210449219 16.76589202880859 16.76587677001953 C 12.44855499267578 21.08321380615234 9.059295654296875 26.10985565185547 6.692230224609375 31.70618438720703 C 4.24224853515625 37.49859619140625 3 43.65341186523438 3 50.00022888183594 C 3 56.34645843505859 4.24224853515625 62.50127410888672 6.692230224609375 68.29368591308594 C 9.059295654296875 73.8900146484375 12.44855499267578 78.91665649414062 16.76589202880859 83.23399353027344 C 21.08323669433594 87.55132293701172 26.10989379882812 90.94059753417969 31.70623016357422 93.30764007568359 C 37.49866485595703 95.75762939453125 43.65348052978516 96.99987030029297 49.99972534179688 96.99987030029297 C 56.34597015380859 96.99987030029297 62.50078582763672 95.75762939453125 68.293212890625 93.30764007568359 C 73.88955688476562 90.94059753417969 78.91621398925781 87.55132293701172 83.23355865478516 83.23399353027344 C 87.55089569091797 78.91665649414062 90.94015502929688 73.8900146484375 93.30722045898438 68.29368591308594 C 95.7572021484375 62.50127410888672 96.99945068359375 56.34645843505859 96.99945068359375 49.99964141845703 C 96.99945068359375 43.65341186523438 95.7572021484375 37.49859619140625 93.30722045898438 31.70618438720703 C 90.94015502929688 26.10985565185547 87.55089569091797 21.08321380615234 83.23355865478516 16.76587677001953 C 78.91621398925781 12.44853210449219 73.88955688476562 9.059272766113281 68.293212890625 6.692230224609375 C 62.50078582763672 4.242240905761719 56.34597015380859 3 49.99972534179688 3 M 49.99972534179688 0 C 77.61381530761719 0 99.99945068359375 22.38559722900391 99.99945068359375 49.99964141845703 L 99.99945068359375 50.00022888183594 C 99.99945068359375 77.6142578125 77.61381530761719 99.99987030029297 49.99972534179688 99.99987030029297 C 22.38563537597656 99.99987030029297 0 77.6142578125 0 50.00022888183594 L 0 49.99964141845703 C 0 22.38559722900391 22.38563537597656 0 49.99972534179688 0 Z" stroke="none" fill="#fff"/>
              </g>
            </g>
            <g id="Trazado_874923" data-name="Trazado 874923" transform="translate(0 0)" fill="none">
              <path d="M50,0a50,50,0,0,1,50,50h0A50,50,0,0,1,0,50H0A50,50,0,0,1,50,0Z" stroke="none"/>
              <path d="M 49.99972534179688 3 C 43.65348052978516 3 37.49866485595703 4.242240905761719 31.70623016357422 6.692230224609375 C 26.10989379882812 9.059272766113281 21.08323669433594 12.44853210449219 16.76589202880859 16.76587677001953 C 12.44855499267578 21.08321380615234 9.059295654296875 26.10985565185547 6.692230224609375 31.70618438720703 C 4.24224853515625 37.49859619140625 3 43.65341186523438 3 50.00022888183594 C 3 56.34645843505859 4.24224853515625 62.50127410888672 6.692230224609375 68.29368591308594 C 9.059295654296875 73.8900146484375 12.44855499267578 78.91665649414062 16.76589202880859 83.23399353027344 C 21.08323669433594 87.55132293701172 26.10989379882812 90.94059753417969 31.70623016357422 93.30764007568359 C 37.49866485595703 95.75762939453125 43.65348052978516 96.99987030029297 49.99972534179688 96.99987030029297 C 56.34597015380859 96.99987030029297 62.50078582763672 95.75762939453125 68.293212890625 93.30764007568359 C 73.88955688476562 90.94059753417969 78.91621398925781 87.55132293701172 83.23355865478516 83.23399353027344 C 87.55089569091797 78.91665649414062 90.94015502929688 73.8900146484375 93.30722045898438 68.29368591308594 C 95.7572021484375 62.50127410888672 96.99945068359375 56.34645843505859 96.99945068359375 49.99964141845703 C 96.99945068359375 43.65341186523438 95.7572021484375 37.49859619140625 93.30722045898438 31.70618438720703 C 90.94015502929688 26.10985565185547 87.55089569091797 21.08321380615234 83.23355865478516 16.76587677001953 C 78.91621398925781 12.44853210449219 73.88955688476562 9.059272766113281 68.293212890625 6.692230224609375 C 62.50078582763672 4.242240905761719 56.34597015380859 3 49.99972534179688 3 M 49.99972534179688 0 C 77.61381530761719 0 99.99945068359375 22.38559722900391 99.99945068359375 49.99964141845703 L 99.99945068359375 50.00022888183594 C 99.99945068359375 77.6142578125 77.61381530761719 99.99987030029297 49.99972534179688 99.99987030029297 C 22.38563537597656 99.99987030029297 0 77.6142578125 0 50.00022888183594 L 0 49.99964141845703 C 0 22.38559722900391 22.38563537597656 0 49.99972534179688 0 Z" stroke="none" fill="#fff"/>
            </g>
          </g>
        </g>
      </g>
    </g>
    <g id="Grupo_1123419" data-name="Grupo 1123419" transform="translate(4481.741 -10225.72)">
      <g id="Grupo_1123417" data-name="Grupo 1123417" transform="translate(8.251 1.044)">
        <g id="Grupo_1123414" data-name="Grupo 1123414" transform="translate(45.243 40.595)">
          <path id="Trazado_920082" data-name="Trazado 920082" d="M360.888,316.762H341.946a1.407,1.407,0,0,1-1.407-1.4l-.017-5.245a2.112,2.112,0,0,1,1.655-2.071l3.35-.742,2.5-6.119a2.114,2.114,0,0,1,1.958-1.315h8.776a2.113,2.113,0,0,1,2.1,1.89l1.428,13.449A1.406,1.406,0,0,1,360.888,316.762Z" transform="translate(-340.523 -299.868)" fill="#b98080"/>
          <path id="Trazado_920083" data-name="Trazado 920083" d="M456.736,315.206l-1.428-13.449a2.113,2.113,0,0,0-2.1-1.89h-3a2.113,2.113,0,0,1,2.1,1.89l1.428,13.449a1.405,1.405,0,0,1-1.4,1.555h3A1.405,1.405,0,0,0,456.736,315.206Z" transform="translate(-434.972 -299.867)" fill="#ae6c6c"/>
          <path id="Trazado_920084" data-name="Trazado 920084" d="M437,316.762H428.9l1.849-9.869a7.767,7.767,0,0,1,1.3-3.066l2.811-3.959a2.113,2.113,0,0,1,2.1,1.89l1.428,13.449A1.405,1.405,0,0,1,437,316.762Z" transform="translate(-416.632 -299.868)" fill="#fed2a4"/>
          <path id="Trazado_920085" data-name="Trazado 920085" d="M469.108,315.206l-1.428-13.449a2.113,2.113,0,0,0-2.1-1.89l-1.009,1.42a2.113,2.113,0,0,1,.107.47l1.428,13.449a1.405,1.405,0,0,1-1.4,1.555h3A1.405,1.405,0,0,0,469.108,315.206Z" transform="translate(-447.345 -299.867)" fill="#ffbd86"/>
        </g>
        <path id="Trazado_920086" data-name="Trazado 920086" d="M46.638,98.02a2,2,0,0,0-.79-2.515l-3.221-1.922a1.98,1.98,0,0,0-2.419,3.095A16.054,16.054,0,0,0,31.588,113.9a1.981,1.981,0,0,0,3.9-.711,12.081,12.081,0,0,1,5.481-12.4,1.979,1.979,0,0,0,3.646.65s1.994-3.354,2.026-3.422Z" transform="translate(-29.019 -81.391)" fill="#97da7b"/>
        <g id="Grupo_1123415" data-name="Grupo 1123415" transform="translate(3.364 11.912)">
          <path id="Trazado_920087" data-name="Trazado 920087" d="M47.517,145.048a2.012,2.012,0,0,0-2.307,0,11.87,11.87,0,0,0-5.481,12.4,1.979,1.979,0,0,1-.8,1.964,1.98,1.98,0,0,0,3.1-1.964A12.081,12.081,0,0,1,47.517,145.048Z" transform="translate(-38.934 -137.559)" fill="#80d261"/>
          <path id="Trazado_920088" data-name="Trazado 920088" d="M99.421,95.509,96.2,93.586a1.979,1.979,0,0,0-2.661.6,1.975,1.975,0,0,1,1.666.169l1.909,1.149a2,2,0,0,1,.79,2.515c-.032.068-1.5,2.538-1.5,2.538-.5.831-.706,1.443-1.391,1.192a1.975,1.975,0,0,0,3.173-.308s1.994-3.354,2.026-3.422a2,2,0,0,0-.79-2.515Z" transform="translate(-85.957 -93.307)" fill="#80d261"/>
        </g>
        <path id="Trazado_920089" data-name="Trazado 920089" d="M375.888,118a2,2,0,0,0,2.58.538l3.25-1.873a1.98,1.98,0,0,0-1.52-3.622,16.054,16.054,0,0,0-10.825-15.928,1.981,1.981,0,0,0-1.281,3.748,12.081,12.081,0,0,1,8.145,10.834,1.979,1.979,0,0,0-2.347,2.865s1.955,3.377,2,3.438Z" transform="translate(-317.867 -84.585)" fill="#97da7b"/>
        <path id="Trazado_920090" data-name="Trazado 920090" d="M385.132,113.964a1.98,1.98,0,0,0-2.247-.917A16.054,16.054,0,0,0,372.06,97.119a1.98,1.98,0,0,0-2.189.641,1.969,1.969,0,0,1,1.237.012c6.768,2.313,9.686,8.105,9.485,14.879a.322.322,0,0,0,.353.33,1.979,1.979,0,0,1,1.152,3.688l-2.142,1.283a1.934,1.934,0,0,1-1.218.246,2,2,0,0,0,2.418.345l3.25-1.873A1.98,1.98,0,0,0,385.132,113.964Z" transform="translate(-320.553 -84.586)" fill="#80d261"/>
        <path id="Trazado_920091" data-name="Trazado 920091" d="M168.51,435.481a2,2,0,0,0-1.9,1.827l-.286,3.74a1.98,1.98,0,0,0,3.849.788,16.055,16.055,0,0,0,19.258.047,1.981,1.981,0,1,0-2.372-3.172,12.081,12.081,0,0,1-13.54.614,1.979,1.979,0,0,0-1.042-3.554S168.585,435.479,168.51,435.481Z" transform="translate(-145.265 -376.054)" fill="#97da7b"/>
        <g id="Grupo_1123416" data-name="Grupo 1123416" transform="translate(22.636 59.427)">
          <path id="Trazado_920092" data-name="Trazado 920092" d="M179.988,435.771a1.979,1.979,0,0,1,1.256,3.366.221.221,0,0,0,.048.344,12.146,12.146,0,0,0,7.225,1.569,12.121,12.121,0,0,1-5.18-1.725,1.979,1.979,0,0,0-1.042-3.554s-3.891-.291-3.966-.29a1.83,1.83,0,0,0-.609.121Z" transform="translate(-177.721 -435.481)" fill="#80d261"/>
          <path id="Trazado_920093" data-name="Trazado 920093" d="M266.7,456.7a1.979,1.979,0,0,0-2.738-.423,1.981,1.981,0,0,1,.031,3.2,15.93,15.93,0,0,1-8.409,3.142,15.952,15.952,0,0,0,10.716-3.142A1.981,1.981,0,0,0,266.7,456.7Z" transform="translate(-244.775 -453.067)" fill="#80d261"/>
        </g>
        <path id="Trazado_920094" data-name="Trazado 920094" d="M222.6,22.361a3.948,3.948,0,0,0,.01-5.583l-.867-.861a3.039,3.039,0,0,0,.019-4.285l-4.112-4.11L213.564,11.7a3.038,3.038,0,0,0,0,4.285l-.87.876a3.948,3.948,0,0,0-.01,5.583,3.76,3.76,0,0,0-.009,5.317l4.946,4.914,4.963-5a3.76,3.76,0,0,0,.009-5.317Z" transform="translate(-184.206 -7.521)" fill="#22b27f"/>
        <path id="Trazado_920095" data-name="Trazado 920095" d="M260.349,22.361a3.948,3.948,0,0,0,.01-5.583l-.867-.861a3.039,3.039,0,0,0,.019-4.285L255.4,7.521l-.023,2.532,1.131,1.578a3.039,3.039,0,0,1-.019,4.285l.867.861a3.948,3.948,0,0,1-.01,5.583,3.76,3.76,0,0,1-.009,5.317l-1.959,1.972v3.023l4.963-5a3.76,3.76,0,0,0,.009-5.317Z" transform="translate(-221.958 -7.521)" fill="#09a76d"/>
        <path id="Trazado_920096" data-name="Trazado 920096" d="M32.5,295.918a8.9,8.9,0,0,1-17.793,0c0-3.585,4.736-10.091,7.3-13.347a2.034,2.034,0,0,1,3.2,0C27.767,285.827,32.5,292.334,32.5,295.918Z" transform="translate(-14.71 -243.708)" fill="#6c7fd8"/>
        <path id="Trazado_920097" data-name="Trazado 920097" d="M68.815,282.571a2.035,2.035,0,0,0-3.2,0l-.265.339a2.016,2.016,0,0,1,1.238.742c2.561,3.256,6.519,8.681,6.519,12.266a8.9,8.9,0,0,1-7.395,8.768,8.891,8.891,0,0,0,10.4-8.768C76.112,292.333,71.376,285.827,68.815,282.571Z" transform="translate(-58.319 -243.708)" fill="#5070c9"/>
      </g>
      <g id="Grupo_1123418" data-name="Grupo 1123418" transform="translate(7.21 0)">
        <path id="Trazado_920098" data-name="Trazado 920098" d="M356.863,308.639l-1.428-13.449a3.149,3.149,0,0,0-3.138-2.821h-8.776a3.145,3.145,0,0,0-2.922,1.963l-2.289,5.614-2.817.624a3.172,3.172,0,0,0-2.471,3.091l.017,5.245a2.453,2.453,0,0,0,2.448,2.44h18.942a2.447,2.447,0,0,0,2.434-2.707Zm-21.741.259-.017-5.245a1.077,1.077,0,0,1,.839-1.05l2.084-.462v2.564a1.041,1.041,0,1,0,2.083,0v-3.656l2.418-5.93a1.069,1.069,0,0,1,.994-.667h6.759l-1.643,2.314a8.874,8.874,0,0,0-1.476,3.478l-1.69,9.019h-9.985A.366.366,0,0,1,335.122,308.9Zm19.579.243a.362.362,0,0,1-.272.121h-6.838l1.618-8.635a6.772,6.772,0,0,1,1.127-2.655l2.425-3.415a1.075,1.075,0,0,1,.6.853l1.428,13.45A.36.36,0,0,1,354.7,309.142Z" transform="translate(-287.779 -251.77)"/>
        <path id="Trazado_920099" data-name="Trazado 920099" d="M27.062,110.1a3.022,3.022,0,0,0,2.974-3.565A10.966,10.966,0,0,1,34.1,95.876a3.021,3.021,0,0,0,4.936-.364c2.02-3.4,2.045-3.453,2.073-3.511a3.043,3.043,0,0,0-1.2-3.852l-3.221-1.922a3.021,3.021,0,0,0-4.4,3.59,17.254,17.254,0,0,0-6.612,7.011,16.9,16.9,0,0,0-1.583,10.8,3.026,3.026,0,0,0,2.971,2.48ZM34.2,91.147a1.042,1.042,0,0,0,.274-1.666.938.938,0,0,1,1.147-1.467l3.233,1.929a.965.965,0,0,1,.382,1.143c-.165.285-1.29,2.182-1.99,3.359a.937.937,0,0,1-1.728-.309,1.041,1.041,0,0,0-1.576-.69,13.123,13.123,0,0,0-5.952,13.466.939.939,0,0,1-1.848.337A15.063,15.063,0,0,1,34.2,91.147Z" transform="translate(-21.504 -73.884)"/>
        <path id="Trazado_920100" data-name="Trazado 920100" d="M361.289,95.386a10.965,10.965,0,0,1,7.325,8.749,3.021,3.021,0,0,0-2.092,4.486c1.979,3.42,2.015,3.469,2.052,3.522h0a3.034,3.034,0,0,0,2.463,1.234,2.9,2.9,0,0,0,1.485-.4l3.25-1.873a3.022,3.022,0,0,0-.985-5.594,17.255,17.255,0,0,0-2.892-9.192,16.9,16.9,0,0,0-8.652-6.651,3.022,3.022,0,1,0-1.955,5.719Zm.089-3.164a.939.939,0,0,1,1.193-.585,15.063,15.063,0,0,1,10.121,14.893,1.041,1.041,0,0,0,1.32,1.052.938.938,0,0,1,.72,1.717l-3.261,1.88a.965.965,0,0,1-1.184-.225c-.169-.283-1.275-2.191-1.961-3.376a.937.937,0,0,1,1.113-1.358,1.042,1.042,0,0,0,1.372-1.039,13.123,13.123,0,0,0-8.848-11.768.939.939,0,0,1-.585-1.193Z" transform="translate(-310.359 -77.074)"/>
        <path id="Trazado_920101" data-name="Trazado 920101" d="M182.214,430.845a3,3,0,0,0-2.242.571,10.945,10.945,0,0,1-8.108,2.083,1.041,1.041,0,0,0-.286,2.063,13.014,13.014,0,0,0,9.641-2.479.939.939,0,1,1,1.125,1.5,15.062,15.062,0,0,1-18.007-.044,1.041,1.041,0,0,0-1.614.5.938.938,0,0,1-1.824-.374l.287-3.753a.965.965,0,0,1,.853-.851c.328.02,2.528.183,3.894.286a.937.937,0,0,1,.493,1.685,1.041,1.041,0,1,0,1.257,1.661,3.021,3.021,0,0,0-1.592-5.423c-3.942-.3-4-.3-4.066-.292a3.043,3.043,0,0,0-2.916,2.789l-.286,3.74A3.021,3.021,0,0,0,164,436.851a17.254,17.254,0,0,0,9.222,2.8h.177a16.894,16.894,0,0,0,10.2-3.392,3.022,3.022,0,0,0-1.378-5.412Z" transform="translate(-137.763 -368.55)"/>
        <path id="Trazado_920102" data-name="Trazado 920102" d="M17.148,274.294a3.059,3.059,0,0,0-2.418,1.175c-6.215,7.9-7.52,11.97-7.52,13.991a9.971,9.971,0,0,0,7.243,9.568,1.041,1.041,0,0,0,.564-2.005,7.881,7.881,0,0,1-5.724-7.563c0-2.323,2.645-7.072,7.074-12.7a.993.993,0,0,1,1.562,0c4.43,5.632,7.074,10.381,7.074,12.7a7.884,7.884,0,0,1-5.7,7.557,1.041,1.041,0,1,0,.569,2,9.976,9.976,0,0,0,7.219-9.561c0-2.021-1.3-6.089-7.52-13.991A3.059,3.059,0,0,0,17.148,274.294Z" transform="translate(-7.21 -236.205)"/>
        <path id="Trazado_920103" data-name="Trazado 920103" d="M139.212,290.565v-.742h.742a1.041,1.041,0,1,0,0-2.083h-.742V287a1.041,1.041,0,1,0-2.083,0v.742h-.742a1.041,1.041,0,1,0,0,2.083h.742v.742a1.041,1.041,0,1,0,2.083,0Z" transform="translate(-117.553 -246.249)"/>
        <path id="Trazado_920104" data-name="Trazado 920104" d="M205.022,15.97a4.8,4.8,0,0,0-.8,2.661,4.731,4.731,0,0,0,1.4,3.39l4.638,4.608v2.754a1.041,1.041,0,0,0,2.083,0V26.626L217,21.935a4.808,4.808,0,0,0,1.409-3.4,4.736,4.736,0,0,0-.795-2.651,5.073,5.073,0,0,0-.822-6.544,4.085,4.085,0,0,0-.622-4.923L212.06.307a1.039,1.039,0,0,0-1.481.009L206.5,4.492a4.1,4.1,0,0,0-.629,4.923A5.1,5.1,0,0,0,205.022,15.97Zm2.091-4.854.87-.876a1.041,1.041,0,0,0,0-1.473,2,2,0,0,1,.006-2.818l2.3-2.348-.01,11.252a1.041,1.041,0,0,0,1.04,1.042h0a1.042,1.042,0,0,0,1.041-1.04l.01-11.3L214.7,5.889a2,2,0,0,1-.02,2.817,1.041,1.041,0,0,0,0,1.473l.867.861a2.848,2.848,0,0,1,.844,2.041,2.926,2.926,0,0,1-.859,2.069,1.041,1.041,0,0,0,0,1.473,2.665,2.665,0,0,1,.789,1.909,2.738,2.738,0,0,1-.8,1.935l-3.18,3.2,0-3.945a1.041,1.041,0,0,0-1.04-1.042h0a1.042,1.042,0,0,0-1.041,1.04l0,3.975-3.172-3.152a2.664,2.664,0,0,1-.789-1.909,2.738,2.738,0,0,1,.8-1.935,1.041,1.041,0,0,0,0-1.473A2.91,2.91,0,0,1,207.113,11.116Z" transform="translate(-176.84 0)"/>
      </g>
    </g>
  </g>
</svg>
