<svg xmlns="http://www.w3.org/2000/svg" width="71" height="71" viewBox="0 0 71 71">
  <g id="Grupo_1123662" data-name="Grupo 1123662" transform="translate(-307.075 -10020)">
    <circle id="Elipse_11679" data-name="Elipse 11679" cx="35.5" cy="35.5" r="35.5" transform="translate(307.075 10020)" fill="#4c6929"/>
    <g id="Grupo_1123661" data-name="Grupo 1123661" transform="translate(320.25 10032.745)">
      <g id="Grupo_1123658" data-name="Grupo 1123658" transform="translate(0.71 1.126)">
        <path id="Trazado_921028" data-name="Trazado 921028" d="M164.081,312.414l2.877,1.967,3.885-5.681-2.61-2.61Z" transform="translate(-150.496 -280.119)" fill="#fde31d"/>
        <path id="Trazado_921029" data-name="Trazado 921029" d="M267.06,58.153h-2.19a2.191,2.191,0,0,1-2.2-2.186l-.007-2.413h4.384l.011,4.569v.028Z" transform="translate(-240.491 -49.585)" fill="#ffceb7"/>
        <path id="Trazado_921030" data-name="Trazado 921030" d="M262.889,11.958h-5.261L258.494,8,262,7.988Z" transform="translate(-235.893 -7.988)" fill="#e6cc9f"/>
        <g id="Grupo_1123657" data-name="Grupo 1123657" transform="translate(0 21.063)">
          <path id="Trazado_921031" data-name="Trazado 921031" d="M47.594,261.765l3.843-2.719v-6.683a2.614,2.614,0,0,0-2.614-2.614h-8.8v1.387a2.614,2.614,0,0,1-2.614,2.614l-2.009.013a2.178,2.178,0,0,0-2.163,2.178v2.752a2.614,2.614,0,0,1-2.614,2.614H25.8l-5.364-8.669-10.108,1.839a2.653,2.653,0,0,0-2.178,2.61v2.27l2.819,6.1h24.7Z" transform="translate(-8.15 -249.749)" fill="#75d2f5"/>
        </g>
        <circle id="Elipse_12031" data-name="Elipse 12031" cx="4.792" cy="4.792" r="4.792" transform="translate(6.521 33.676)" fill="#626169"/>
        <circle id="Elipse_12032" data-name="Elipse 12032" cx="1.307" cy="1.307" r="1.307" transform="translate(10.006 37.161)" fill="#cdd9dd"/>
        <circle id="Elipse_12033" data-name="Elipse 12033" cx="7.841" cy="7.841" r="7.841" transform="translate(26.211 27.578)" fill="#626169"/>
        <path id="Trazado_921032" data-name="Trazado 921032" d="M311.614,332.37a7.842,7.842,0,0,1,6.534-7.731,7.841,7.841,0,1,0,0,15.461A7.842,7.842,0,0,1,311.614,332.37Z" transform="translate(-282.789 -296.951)" fill="#4d4c50"/>
        <path id="Trazado_921033" data-name="Trazado 921033" d="M85.178,399.321a4.793,4.793,0,0,1,3.7-4.666,4.792,4.792,0,1,0,0,9.332A4.793,4.793,0,0,1,85.178,399.321Z" transform="translate(-76.479 -360.852)" fill="#4d4c50"/>
        <path id="Trazado_921034" data-name="Trazado 921034" d="M280.332,106.052a3.049,3.049,0,1,0-6.1,0v.62h6.1Z" transform="translate(-251.051 -94.725)" fill="#fff"/>
        <path id="Trazado_921035" data-name="Trazado 921035" d="M217.175,145.114v9.747h-1.226a2.614,2.614,0,0,0-2.185,1.179l-2.034,3.1,2.61,2.61,2.327-3.4h3.289c1.925,0,3.317-.671,3.317-3.485v-9.747Z" transform="translate(-193.994 -133.167)" fill="#ff6a47"/>
        <path id="Trazado_921036" data-name="Trazado 921036" d="M11.461,304.111v-2.463l-1.133.206a2.653,2.653,0,0,0-2.178,2.61v2.261h.7A2.614,2.614,0,0,0,11.461,304.111Z" transform="translate(-8.15 -276.064)" fill="#fde31d"/>
        <path id="Trazado_921037" data-name="Trazado 921037" d="M10.328,304.012a2.653,2.653,0,0,0-2.178,2.61v2.27l2.819,6.1h2.178l-2.819-6.1Z" transform="translate(-8.15 -278.222)" fill="#2ec2f1"/>
        <path id="Trazado_921038" data-name="Trazado 921038" d="M10.328,308.423v-4.411a2.653,2.653,0,0,0-2.178,2.61v2.261h.7A2.6,2.6,0,0,0,10.328,308.423Z" transform="translate(-8.15 -278.222)" fill="#e9ca1c"/>
        <path id="Trazado_921039" data-name="Trazado 921039" d="M274.224,145.114H276.4v9.747h-2.178Z" transform="translate(-251.043 -133.167)" fill="#fd3501"/>
        <path id="Trazado_921040" data-name="Trazado 921040" d="M197.721,203.892c-.172,1.442,1.757,2.4,3.042,1.981.057-.018.612-.168,1.383-.374l-1.019-2.515Z" transform="translate(-181.195 -185.995)" fill="#ffceb7"/>
        <path id="Trazado_921041" data-name="Trazado 921041" d="M245.572,128.157a1.315,1.315,0,0,0-1.779.543l-2.485,4.666-4.388,1.169,1.019,2.515c2-.533,5.44-1.446,5.44-1.446l2.736-5.668A1.315,1.315,0,0,0,245.572,128.157Z" transform="translate(-216.989 -117.547)" fill="#fff"/>
        <path id="Trazado_921042" data-name="Trazado 921042" d="M278.371,103.2a3.05,3.05,0,0,0-4.138,2.848v.62h2.178v-.62A3.05,3.05,0,0,1,278.371,103.2Z" transform="translate(-251.051 -94.725)" fill="#e3e9ee"/>
        <path id="Trazado_921043" data-name="Trazado 921043" d="M264.85,55.968l-.007-2.413h-2.178l.007,2.413a2.191,2.191,0,0,0,2.2,2.186h2.119A2.191,2.191,0,0,1,264.85,55.968Z" transform="translate(-240.491 -49.585)" fill="#ffaa81"/>
        <path id="Trazado_921044" data-name="Trazado 921044" d="M260.242,8V7.988L258.494,8l-.866,3.96h2.614V8Z" transform="translate(-235.893 -7.988)" fill="#dfba7f"/>
        <circle id="Elipse_12034" data-name="Elipse 12034" cx="1.742" cy="1.742" r="1.742" transform="translate(32.309 33.676)" fill="#cdd9dd"/>
      </g>
      <g id="Grupo_1123659" data-name="Grupo 1123659" transform="translate(33.066 31.483)">
        <path id="Trazado_921045" data-name="Trazado 921045" d="M379.539,356.429h1.307v1.307h-1.307Z" transform="translate(-379.539 -356.429)" fill="#fff"/>
        <path id="Trazado_921046" data-name="Trazado 921046" d="M409.539,356.429h1.307v1.307h-1.307Z" transform="translate(-406.925 -356.429)" fill="#fff"/>
      </g>
      <g id="Grupo_1123660" data-name="Grupo 1123660" transform="translate(0 0.471)">
        <path id="Trazado_921047" data-name="Trazado 921047" d="M0,0H5.233V1.307H0Z" transform="translate(6.706 27.762) rotate(-10.366)"/>
        <path id="Trazado_921048" data-name="Trazado 921048" d="M0,0H5.394V1.307H0Z" transform="translate(7.153 30.408) rotate(-10.366)"/>
        <path id="Trazado_921049" data-name="Trazado 921049" d="M45.244,24.8a3.271,3.271,0,0,0-3.267-3.267H39.537v1.307h2.439a1.987,1.987,0,0,1,1.96,2.178H37.011v1.307h6.926v1.349H41.28v1.307h2.657v2.164l-1.346.952a8.5,8.5,0,0,0-15.7,5.142H17.527a5.456,5.456,0,0,0-9.82,0H4.54L2.314,32.425a3.271,3.271,0,0,0,2.953-3.252V27.256l8-1.455,5.322,8.6h5.187a3.271,3.271,0,0,0,3.267-3.267V28.381a1.529,1.529,0,0,1,1.191-1.487c.119-.015,2.328-.051,2.328-.051a3.271,3.271,0,0,0,3.267-3.267v-.733h4.4V21.535h-4.4V16.091H32.524v7.485a1.963,1.963,0,0,1-1.948,1.96,4.818,4.818,0,0,0,.661-2.716V12.914a3.765,3.765,0,0,0-2.713-4.029l-.008-3.136h3.948V4.442H28.823L27.935.471,23.378.484l-.865,3.959H18.874V5.749h3.952l0,1.762a2.855,2.855,0,0,0,1.805,2.642,3.684,3.684,0,0,0-.8,2.3v4.293L17.619,18.4l-1.754-1.531-.859.985,2.209,1.928-3.57,4.142-1.032-1.668-1.111.688,1.029,1.662L3.365,26.273A3.3,3.3,0,0,0,.65,29.526V31.94L3.7,38.549H7.273a5.464,5.464,0,0,0,1.81,5.184H5.211v1.307H45.2V43.732H39.877a8.547,8.547,0,0,0,3.317-10.459l2.049-1.45Zm-22.6-4.953-.524-1.294L26.065,17.5l2.619-4.917a.662.662,0,0,1,1.168.622l-2.617,5.42c-.93.247-3.018.8-4.593,1.221Zm5.415,3.624V22.166h-2.92V20.538l3.014-.8,1.779-3.685V22.82c-.033,1.491-.3,2.471-1.707,2.752-1.17.177-3.325.027-4.6.091L21.61,28.608l-1.8-1.5,1.805-2.751a1.956,1.956,0,0,1,1.639-.885Zm-8.965,4.735,1.777,1.483L18.95,32.5l-1.3-2.1Zm6.645.173v2.752a1.962,1.962,0,0,1-1.96,1.96H20.126l4.2-6.14c.509,0,1.265.011,1.8.011A2.809,2.809,0,0,0,25.738,28.381Zm3.648-17.447a1.969,1.969,0,0,0-1.854,1.039l-.238.447H25.139A2.4,2.4,0,0,1,29.385,10.933ZM24.431,1.788l2.458-.007.6,2.662H23.85Zm-.293,5.72,0-1.758h3.077l.008,3.015a3.673,3.673,0,0,0-1.122.277H25.68A1.545,1.545,0,0,1,24.138,7.508Zm1,6.219H26.6l-1.417,2.661-.041.011Zm-4.293,5.168.525,1.3c-.4.107-.659.178-.7.192a1.915,1.915,0,0,1-2.136-.871Zm-2.874,2.012a3.416,3.416,0,0,0,2.238.85,2.786,2.786,0,0,0,.857-.13c.116-.035,1.294-.35,2.764-.742v1.281a3.44,3.44,0,0,0-3.3,1.475l-3.633,5.535L14.365,25.09ZM3.6,27.559l.362-.066v1.681a1.964,1.964,0,0,1-2,1.96V29.526A2,2,0,0,1,3.6,27.559ZM8.478,39.594a4.138,4.138,0,1,1,4.138,4.138A4.143,4.143,0,0,1,8.478,39.594Zm7.671,4.138a5.464,5.464,0,0,0,1.81-5.184H27.1a8.523,8.523,0,0,0,3.733,5.184Zm19.206,0a7.2,7.2,0,0,1-7.188-7.188c.395-9.535,13.982-9.533,14.375,0A7.2,7.2,0,0,1,35.355,43.732Z" transform="translate(-0.593 -0.471)"/>
        <path id="Trazado_921050" data-name="Trazado 921050" d="M373.9,387.029a2.4,2.4,0,1,0,2.4,2.4A2.4,2.4,0,0,0,373.9,387.029Zm0,3.485a1.089,1.089,0,1,1,1.089-1.089A1.09,1.09,0,0,1,373.9,390.514Z" transform="translate(-339.134 -353.351)"/>
        <path id="Trazado_921051" data-name="Trazado 921051" d="M117.46,427.029a1.96,1.96,0,1,0,1.96,1.96A1.962,1.962,0,0,0,117.46,427.029Zm0,2.614a.653.653,0,1,1,.653-.653A.654.654,0,0,1,117.46,429.643Z" transform="translate(-105.437 -389.866)"/>
        <path id="Trazado_921052" data-name="Trazado 921052" d="M0,497.029H3.311v1.307H0Z" transform="translate(0 -453.768)"/>
      </g>
    </g>
  </g>
</svg>
