<svg xmlns="http://www.w3.org/2000/svg" xmlns:xlink="http://www.w3.org/1999/xlink" width="117.999" height="118" viewBox="0 0 117.999 118">
  <defs>
    <filter id="Trazado_874925" x="0" y="0" width="117.999" height="118" filterUnits="userSpaceOnUse">
      <feOffset dy="3" input="SourceAlpha"/>
      <feGaussianBlur stdDeviation="3" result="blur"/>
      <feFlood flood-opacity="0.161"/>
      <feComposite operator="in" in2="blur"/>
      <feComposite in="SourceGraphic"/>
    </filter>
  </defs>
  <g id="Grupo_1123663" data-name="Grupo 1123663" transform="translate(-320.896 -12914.357)">
    <g id="Grupo_1111553" data-name="Grupo 1111553" transform="translate(329.896 12920.357)">
      <g id="Grupo_1111316" data-name="Grupo 1111316" transform="translate(0 0)">
        <g id="Grupo_1109835" data-name="Grupo 1109835" transform="translate(0 0)">
          <g id="Grupo_1107913" data-name="Grupo 1107913" transform="translate(0 0)">
            <g transform="matrix(1, 0, 0, 1, -9, -6)" filter="url(#Trazado_874925)">
              <g id="Trazado_874925-2" data-name="Trazado 874925" transform="translate(9 6)" fill="#bb965f" opacity="0.859">
                <path d="M 49.99972534179688 98.4998779296875 C 43.45164108276367 98.4998779296875 37.10022354125977 97.21776580810547 31.12189674377441 94.68914794921875 C 25.34676742553711 92.24647521972656 20.15985298156738 88.74925994873047 15.70523929595947 84.29464721679688 C 11.25062561035156 79.84004974365234 7.753411293029785 74.65313720703125 5.310725212097168 68.87800598144531 C 2.782111167907715 62.89969253540039 1.499996781349182 56.54829406738281 1.499996781349182 50.00022125244141 C 1.499996781349182 43.45157623291016 2.782111167907715 37.10017776489258 5.310725212097168 31.12186431884766 C 7.753411293029785 25.34673500061035 11.25062561035156 20.15983581542969 15.70523929595947 15.70522117614746 C 20.15985298156738 11.25062084197998 25.34676742553711 7.753406524658203 31.12189674377441 5.31073522567749 C 37.10022354125977 2.782120943069458 43.45164108276367 1.500006556510925 49.99972534179688 1.500006556510925 C 56.54780960083008 1.500006556510925 62.89922714233398 2.782120943069458 68.87755584716797 5.31073522567749 C 74.65267944335938 7.753406524658203 79.839599609375 11.25062084197998 84.29421234130859 15.70522117614746 C 88.74882507324219 20.15983581542969 92.24604034423828 25.34673500061035 94.68872833251953 31.12186431884766 C 97.21733856201172 37.10017776489258 98.49945068359375 43.45157623291016 98.49945068359375 49.99964904785156 C 98.49945068359375 56.54829406738281 97.21733856201172 62.89969253540039 94.68872833251953 68.87800598144531 C 92.24604034423828 74.65313720703125 88.74882507324219 79.84004974365234 84.29421234130859 84.29464721679688 C 79.839599609375 88.74925994873047 74.65267944335938 92.24647521972656 68.87755584716797 94.68914794921875 C 62.89922714233398 97.21776580810547 56.54780960083008 98.4998779296875 49.99972534179688 98.4998779296875 Z" stroke="none"/>
                <path d="M 49.99972534179688 3 C 43.65348052978516 3 37.49866485595703 4.242240905761719 31.70623016357422 6.692230224609375 C 26.10989379882812 9.059272766113281 21.08323669433594 12.44853210449219 16.76589202880859 16.76587677001953 C 12.44855499267578 21.08321380615234 9.059295654296875 26.10985565185547 6.692230224609375 31.70618438720703 C 4.24224853515625 37.49859619140625 3 43.65341186523438 3 50.00022888183594 C 3 56.34645843505859 4.24224853515625 62.50127410888672 6.692230224609375 68.29368591308594 C 9.059295654296875 73.8900146484375 12.44855499267578 78.91665649414062 16.76589202880859 83.23399353027344 C 21.08323669433594 87.55132293701172 26.10989379882812 90.94059753417969 31.70623016357422 93.30764007568359 C 37.49866485595703 95.75762939453125 43.65348052978516 96.99987030029297 49.99972534179688 96.99987030029297 C 56.34597015380859 96.99987030029297 62.50078582763672 95.75762939453125 68.293212890625 93.30764007568359 C 73.88955688476562 90.94059753417969 78.91621398925781 87.55132293701172 83.23355865478516 83.23399353027344 C 87.55089569091797 78.91665649414062 90.94015502929688 73.8900146484375 93.30722045898438 68.29368591308594 C 95.7572021484375 62.50127410888672 96.99945068359375 56.34645843505859 96.99945068359375 49.99964141845703 C 96.99945068359375 43.65341186523438 95.7572021484375 37.49859619140625 93.30722045898438 31.70618438720703 C 90.94015502929688 26.10985565185547 87.55089569091797 21.08321380615234 83.23355865478516 16.76587677001953 C 78.91621398925781 12.44853210449219 73.88955688476562 9.059272766113281 68.293212890625 6.692230224609375 C 62.50078582763672 4.242240905761719 56.34597015380859 3 49.99972534179688 3 M 49.99972534179688 0 C 77.61381530761719 0 99.99945068359375 22.38559722900391 99.99945068359375 49.99964141845703 L 99.99945068359375 50.00022888183594 C 99.99945068359375 77.6142578125 77.61381530761719 99.99987030029297 49.99972534179688 99.99987030029297 C 22.38563537597656 99.99987030029297 0 77.6142578125 0 50.00022888183594 L 0 49.99964141845703 C 0 22.38559722900391 22.38563537597656 0 49.99972534179688 0 Z" stroke="none" fill="#fff"/>
              </g>
            </g>
            <g id="Trazado_874923" data-name="Trazado 874923" fill="none">
              <path d="M50,0a50,50,0,0,1,50,50h0A50,50,0,0,1,0,50H0A50,50,0,0,1,50,0Z" stroke="none"/>
              <path d="M 49.99972534179688 3 C 43.65348052978516 3 37.49866485595703 4.242240905761719 31.70623016357422 6.692230224609375 C 26.10989379882812 9.059272766113281 21.08323669433594 12.44853210449219 16.76589202880859 16.76587677001953 C 12.44855499267578 21.08321380615234 9.059295654296875 26.10985565185547 6.692230224609375 31.70618438720703 C 4.24224853515625 37.49859619140625 3 43.65341186523438 3 50.00022888183594 C 3 56.34645843505859 4.24224853515625 62.50127410888672 6.692230224609375 68.29368591308594 C 9.059295654296875 73.8900146484375 12.44855499267578 78.91665649414062 16.76589202880859 83.23399353027344 C 21.08323669433594 87.55132293701172 26.10989379882812 90.94059753417969 31.70623016357422 93.30764007568359 C 37.49866485595703 95.75762939453125 43.65348052978516 96.99987030029297 49.99972534179688 96.99987030029297 C 56.34597015380859 96.99987030029297 62.50078582763672 95.75762939453125 68.293212890625 93.30764007568359 C 73.88955688476562 90.94059753417969 78.91621398925781 87.55132293701172 83.23355865478516 83.23399353027344 C 87.55089569091797 78.91665649414062 90.94015502929688 73.8900146484375 93.30722045898438 68.29368591308594 C 95.7572021484375 62.50127410888672 96.99945068359375 56.34645843505859 96.99945068359375 49.99964141845703 C 96.99945068359375 43.65341186523438 95.7572021484375 37.49859619140625 93.30722045898438 31.70618438720703 C 90.94015502929688 26.10985565185547 87.55089569091797 21.08321380615234 83.23355865478516 16.76587677001953 C 78.91621398925781 12.44853210449219 73.88955688476562 9.059272766113281 68.293212890625 6.692230224609375 C 62.50078582763672 4.242240905761719 56.34597015380859 3 49.99972534179688 3 M 49.99972534179688 0 C 77.61381530761719 0 99.99945068359375 22.38559722900391 99.99945068359375 49.99964141845703 L 99.99945068359375 50.00022888183594 C 99.99945068359375 77.6142578125 77.61381530761719 99.99987030029297 49.99972534179688 99.99987030029297 C 22.38563537597656 99.99987030029297 0 77.6142578125 0 50.00022888183594 L 0 49.99964141845703 C 0 22.38559722900391 22.38563537597656 0 49.99972534179688 0 Z" stroke="none" fill="#fff"/>
            </g>
          </g>
        </g>
      </g>
    </g>
    <g id="Filled_outline" data-name="Filled outline" transform="translate(348.075 12936)">
      <path id="Trazado_921053" data-name="Trazado 921053" d="M29,9a5,5,0,0,0-5,5l2,7h6l2-7A5,5,0,0,0,29,9Z" fill="#ffd782"/>
      <path id="Trazado_921054" data-name="Trazado 921054" d="M15,3a5,5,0,0,0-5,5l2,7h6l2-7A5,5,0,0,0,15,3Z" fill="#ffd782"/>
      <path id="Trazado_921055" data-name="Trazado 921055" d="M40,53a8,8,0,0,1-16,0c0-4.418,3.582-14,8-14S40,48.582,40,53Z" fill="#ad6327"/>
      <path id="Trazado_921056" data-name="Trazado 921056" d="M19,40A8,8,0,1,1,3,40c0-4.418,3.582-14,8-14S19,35.582,19,40Z" fill="#ad6327"/>
      <path id="Trazado_921057" data-name="Trazado 921057" d="M61,29H43V22c0-4.971,9-10,9-10s9,5.029,9,10Z" fill="#ffd782"/>
      <path id="Trazado_921058" data-name="Trazado 921058" d="M43,29a6,6,0,0,0,6,6h1v3a2,2,0,0,0,4,0V35h1a6,6,0,0,0,6-6Z" fill="#66342e"/>
      <path id="Trazado_921059" data-name="Trazado 921059" d="M24.857,17,26,21h6l1.143-4Z" fill="#d3843d"/>
      <path id="Trazado_921060" data-name="Trazado 921060" d="M10.857,11,12,15h6l1.143-4Z" fill="#d3843d"/>
      <path id="Trazado_921061" data-name="Trazado 921061" d="M33,34H28a4,4,0,0,1,0-8h5c2.209,0,5,4,5,4S35.209,34,33,34Z" fill="#f4f4e6"/>
      <path id="Trazado_921062" data-name="Trazado 921062" d="M55,49v5a4,4,0,0,1-8,0V49c0-2.209,4-5,4-5S55,46.791,55,49Z" fill="#f4f4e6"/>
      <path id="Trazado_921063" data-name="Trazado 921063" d="M32,62a9.01,9.01,0,0,0,9-9c0-4.326-3.587-15-9-15s-9,10.674-9,15a9.01,9.01,0,0,0,9,9Zm5-16.72A20.32,20.32,0,0,1,39,53a6.971,6.971,0,0,1-2,4.889Zm-4-5.028A5.845,5.845,0,0,1,35.046,42H35V59.315a6.937,6.937,0,0,1-2,.6Zm-2,0V59.92a6.937,6.937,0,0,1-2-.605V42h-.046A5.845,5.845,0,0,1,31,40.252ZM27,57.889A6.971,6.971,0,0,1,25,53a20.32,20.32,0,0,1,2-7.72Z"/>
      <path id="Trazado_921064" data-name="Trazado 921064" d="M11,49a9.01,9.01,0,0,0,9-9c0-4.326-3.587-15-9-15S2,35.674,2,40a9.01,9.01,0,0,0,9,9Zm5-16.72A20.32,20.32,0,0,1,18,40a6.971,6.971,0,0,1-2,4.889Zm-4-5.028A5.845,5.845,0,0,1,14.046,29H14V46.315a6.937,6.937,0,0,1-2,.6Zm-2,0V46.92a6.937,6.937,0,0,1-2-.6V29H7.954A5.845,5.845,0,0,1,10,27.252ZM6,44.889A6.971,6.971,0,0,1,4,40a20.32,20.32,0,0,1,2-7.72Z"/>
      <path id="Trazado_921065" data-name="Trazado 921065" d="M53,11.424V9a1,1,0,0,0-2,0v2.424C48.917,12.661,42,17.133,42,22v7a7.008,7.008,0,0,0,7,7v2a3,3,0,0,0,6,0V36a7.008,7.008,0,0,0,7-7V22C62,17.133,55.083,12.661,53,11.424ZM55,34H54a1,1,0,0,0-1,1v3a1,1,0,0,1-2,0V35a1,1,0,0,0-1-1H49a5.008,5.008,0,0,1-4.9-4H59.9A5.008,5.008,0,0,1,55,34Zm5-6H58.236a12.4,12.4,0,0,0-.271-5.264,12.646,12.646,0,0,0-4.346-6.521l-1.238,1.57a10.633,10.633,0,0,1,3.654,5.479A10.4,10.4,0,0,1,56.2,28H53V21H51v7H48.8a10.4,10.4,0,0,1,.167-4.736l-1.93-.528A12.4,12.4,0,0,0,46.764,28H44V22c0-3.364,5.38-7.277,8-8.845C54.62,14.72,60,18.63,60,22Z"/>
      <path id="Trazado_921066" data-name="Trazado 921066" d="M48,18h2v2H48Z"/>
      <path id="Trazado_921067" data-name="Trazado 921067" d="M26,22h6a1,1,0,0,0,.961-.726l2-7A.97.97,0,0,0,35,14a6,6,0,1,0-12,0,.97.97,0,0,0,.039.274l2,7A1,1,0,0,0,26,22Zm5.246-2H26.754l-.571-2h5.634ZM29,10a4.005,4.005,0,0,1,4,3.867L32.389,16H30V13a1,1,0,0,0-2,0v3H25.611L25,13.867A4.005,4.005,0,0,1,29,10Z"/>
      <path id="Trazado_921068" data-name="Trazado 921068" d="M15,2A6.006,6.006,0,0,0,9,8a.97.97,0,0,0,.039.274l2,7A1,1,0,0,0,12,16h6a1,1,0,0,0,.961-.726l2-7A.97.97,0,0,0,21,8a6.006,6.006,0,0,0-6-6Zm2.246,12H12.754l-.571-2h5.634Zm1.143-4H16V7a1,1,0,0,0-2,0v3H11.611L11,7.867a4,4,0,1,1,8,0Z"/>
      <path id="Trazado_921069" data-name="Trazado 921069" d="M28,35h5c2.6,0,5.3-3.688,5.82-4.428a1,1,0,0,0,0-1.144C38.3,28.688,35.6,25,33,25H28a5,5,0,1,0,0,10Zm0-8h5c1.016,0,2.665,1.6,3.755,3-1.076,1.372-2.749,3-3.755,3H28a3,3,0,0,1-2.816-2H32a1,1,0,0,0,0-2H25.184A3,3,0,0,1,28,27Z"/>
      <path id="Trazado_921070" data-name="Trazado 921070" d="M56,54V49c0-2.6-3.688-5.3-4.428-5.82a1,1,0,0,0-1.144,0C49.688,43.7,46,46.4,46,49v5a5,5,0,0,0,10,0Zm-6-3v5.816A3,3,0,0,1,48,54V49c0-1.016,1.6-2.665,3-3.755,1.372,1.076,3,2.749,3,3.755v5a3,3,0,0,1-2,2.816V51a1,1,0,0,0-2,0Z"/>
    </g>
  </g>
</svg>
