<svg xmlns="http://www.w3.org/2000/svg" xmlns:xlink="http://www.w3.org/1999/xlink" width="118" height="118" viewBox="0 0 118 118">
  <defs>
    <filter id="Trazado_874925" x="0" y="0" width="118" height="118" filterUnits="userSpaceOnUse">
      <feOffset dy="3" input="SourceAlpha"/>
      <feGaussianBlur stdDeviation="3" result="blur"/>
      <feFlood flood-opacity="0.161"/>
      <feComposite operator="in" in2="blur"/>
      <feComposite in="SourceGraphic"/>
    </filter>
  </defs>
  <g id="Grupo_1123690" data-name="Grupo 1123690" transform="translate(-1160.076 -12914)">
    <g id="Grupo_1111553" data-name="Grupo 1111553" transform="translate(1169.075 12920)">
      <g id="Grupo_1111316" data-name="Grupo 1111316" transform="translate(0 0)">
        <g id="Grupo_1109835" data-name="Grupo 1109835" transform="translate(0 0)">
          <g id="Grupo_1107913" data-name="Grupo 1107913" transform="translate(0 0)">
            <g transform="matrix(1, 0, 0, 1, -9, -6)" filter="url(#Trazado_874925)">
              <g id="Trazado_874925-2" data-name="Trazado 874925" transform="translate(9 6)" fill="#bb965f" opacity="0.859">
                <path d="M 49.99972534179688 98.4998779296875 C 43.45164108276367 98.4998779296875 37.10022354125977 97.21776580810547 31.12189674377441 94.68914794921875 C 25.34676742553711 92.24647521972656 20.15985298156738 88.74925994873047 15.70523929595947 84.29464721679688 C 11.25062561035156 79.84004974365234 7.753411293029785 74.65313720703125 5.310725212097168 68.87800598144531 C 2.782111167907715 62.89969253540039 1.499996781349182 56.54829406738281 1.499996781349182 50.00022125244141 C 1.499996781349182 43.45157623291016 2.782111167907715 37.10017776489258 5.310725212097168 31.12186431884766 C 7.753411293029785 25.34673500061035 11.25062561035156 20.15983581542969 15.70523929595947 15.70522117614746 C 20.15985298156738 11.25062084197998 25.34676742553711 7.753406524658203 31.12189674377441 5.31073522567749 C 37.10022354125977 2.782120943069458 43.45164108276367 1.500006556510925 49.99972534179688 1.500006556510925 C 56.54780960083008 1.500006556510925 62.89922714233398 2.782120943069458 68.87755584716797 5.31073522567749 C 74.65267944335938 7.753406524658203 79.839599609375 11.25062084197998 84.29421234130859 15.70522117614746 C 88.74882507324219 20.15983581542969 92.24604034423828 25.34673500061035 94.68872833251953 31.12186431884766 C 97.21733856201172 37.10017776489258 98.49945068359375 43.45157623291016 98.49945068359375 49.99964904785156 C 98.49945068359375 56.54829406738281 97.21733856201172 62.89969253540039 94.68872833251953 68.87800598144531 C 92.24604034423828 74.65313720703125 88.74882507324219 79.84004974365234 84.29421234130859 84.29464721679688 C 79.839599609375 88.74925994873047 74.65267944335938 92.24647521972656 68.87755584716797 94.68914794921875 C 62.89922714233398 97.21776580810547 56.54780960083008 98.4998779296875 49.99972534179688 98.4998779296875 Z" stroke="none"/>
                <path d="M 49.99972534179688 3 C 43.65348052978516 3 37.49866485595703 4.242240905761719 31.70623016357422 6.692230224609375 C 26.10989379882812 9.059272766113281 21.08323669433594 12.44853210449219 16.76589202880859 16.76587677001953 C 12.44855499267578 21.08321380615234 9.059295654296875 26.10985565185547 6.692230224609375 31.70618438720703 C 4.24224853515625 37.49859619140625 3 43.65341186523438 3 50.00022888183594 C 3 56.34645843505859 4.24224853515625 62.50127410888672 6.692230224609375 68.29368591308594 C 9.059295654296875 73.8900146484375 12.44855499267578 78.91665649414062 16.76589202880859 83.23399353027344 C 21.08323669433594 87.55132293701172 26.10989379882812 90.94059753417969 31.70623016357422 93.30764007568359 C 37.49866485595703 95.75762939453125 43.65348052978516 96.99987030029297 49.99972534179688 96.99987030029297 C 56.34597015380859 96.99987030029297 62.50078582763672 95.75762939453125 68.293212890625 93.30764007568359 C 73.88955688476562 90.94059753417969 78.91621398925781 87.55132293701172 83.23355865478516 83.23399353027344 C 87.55089569091797 78.91665649414062 90.94015502929688 73.8900146484375 93.30722045898438 68.29368591308594 C 95.7572021484375 62.50127410888672 96.99945068359375 56.34645843505859 96.99945068359375 49.99964141845703 C 96.99945068359375 43.65341186523438 95.7572021484375 37.49859619140625 93.30722045898438 31.70618438720703 C 90.94015502929688 26.10985565185547 87.55089569091797 21.08321380615234 83.23355865478516 16.76587677001953 C 78.91621398925781 12.44853210449219 73.88955688476562 9.059272766113281 68.293212890625 6.692230224609375 C 62.50078582763672 4.242240905761719 56.34597015380859 3 49.99972534179688 3 M 49.99972534179688 0 C 77.61381530761719 0 99.99945068359375 22.38559722900391 99.99945068359375 49.99964141845703 L 99.99945068359375 50.00022888183594 C 99.99945068359375 77.6142578125 77.61381530761719 99.99987030029297 49.99972534179688 99.99987030029297 C 22.38563537597656 99.99987030029297 0 77.6142578125 0 50.00022888183594 L 0 49.99964141845703 C 0 22.38559722900391 22.38563537597656 0 49.99972534179688 0 Z" stroke="none" fill="#fff"/>
              </g>
            </g>
            <g id="Trazado_874923" data-name="Trazado 874923" fill="none">
              <path d="M50,0a50,50,0,0,1,50,50h0A50,50,0,0,1,0,50H0A50,50,0,0,1,50,0Z" stroke="none"/>
              <path d="M 49.99972534179688 3 C 43.65348052978516 3 37.49866485595703 4.242240905761719 31.70623016357422 6.692230224609375 C 26.10989379882812 9.059272766113281 21.08323669433594 12.44853210449219 16.76589202880859 16.76587677001953 C 12.44855499267578 21.08321380615234 9.059295654296875 26.10985565185547 6.692230224609375 31.70618438720703 C 4.24224853515625 37.49859619140625 3 43.65341186523438 3 50.00022888183594 C 3 56.34645843505859 4.24224853515625 62.50127410888672 6.692230224609375 68.29368591308594 C 9.059295654296875 73.8900146484375 12.44855499267578 78.91665649414062 16.76589202880859 83.23399353027344 C 21.08323669433594 87.55132293701172 26.10989379882812 90.94059753417969 31.70623016357422 93.30764007568359 C 37.49866485595703 95.75762939453125 43.65348052978516 96.99987030029297 49.99972534179688 96.99987030029297 C 56.34597015380859 96.99987030029297 62.50078582763672 95.75762939453125 68.293212890625 93.30764007568359 C 73.88955688476562 90.94059753417969 78.91621398925781 87.55132293701172 83.23355865478516 83.23399353027344 C 87.55089569091797 78.91665649414062 90.94015502929688 73.8900146484375 93.30722045898438 68.29368591308594 C 95.7572021484375 62.50127410888672 96.99945068359375 56.34645843505859 96.99945068359375 49.99964141845703 C 96.99945068359375 43.65341186523438 95.7572021484375 37.49859619140625 93.30722045898438 31.70618438720703 C 90.94015502929688 26.10985565185547 87.55089569091797 21.08321380615234 83.23355865478516 16.76587677001953 C 78.91621398925781 12.44853210449219 73.88955688476562 9.059272766113281 68.293212890625 6.692230224609375 C 62.50078582763672 4.242240905761719 56.34597015380859 3 49.99972534179688 3 M 49.99972534179688 0 C 77.61381530761719 0 99.99945068359375 22.38559722900391 99.99945068359375 49.99964141845703 L 99.99945068359375 50.00022888183594 C 99.99945068359375 77.6142578125 77.61381530761719 99.99987030029297 49.99972534179688 99.99987030029297 C 22.38563537597656 99.99987030029297 0 77.6142578125 0 50.00022888183594 L 0 49.99964141845703 C 0 22.38559722900391 22.38563537597656 0 49.99972534179688 0 Z" stroke="none" fill="#fff"/>
            </g>
          </g>
        </g>
      </g>
    </g>
    <g id="Grupo_1123689" data-name="Grupo 1123689" transform="translate(1189.519 12940.443)">
      <path id="Trazado_921094" data-name="Trazado 921094" d="M11.728,6.306H46.544v4.5H11.728Z" transform="translate(-4.063 -0.991)" fill="#f9922d"/>
      <path id="Trazado_921095" data-name="Trazado 921095" d="M11.728,111.306H46.544v4.5H11.728Z" transform="translate(-4.063 -60.481)" fill="#f9922d"/>
      <path id="Trazado_921096" data-name="Trazado 921096" d="M43.472,16.694a112.051,112.051,0,0,1,2.35,20.328v.356a112.083,112.083,0,0,1-2.35,20.328H8.656a112.121,112.121,0,0,1-2.35-20.33V37.02a112.044,112.044,0,0,1,2.35-20.326Z" transform="translate(-0.991 -6.876)" fill="#2eb74e"/>
      <path id="Trazado_921097" data-name="Trazado 921097" d="M78.332,95.976c0-.068.01-.136.01-.205a4.1,4.1,0,0,0-3.768-4.085,4.088,4.088,0,0,0-4.031-4.847c-.091,0-.181.008-.271.014a4.491,4.491,0,0,0-8.94,0c-.087-.006-.173-.013-.264-.013a4.09,4.09,0,0,0-4.031,4.847,4.1,4.1,0,0,0-3.767,4.085c0,.069.007.137.01.205a3.775,3.775,0,0,0-2.936,3.679H81.27a3.774,3.774,0,0,0-2.937-3.679Z" transform="translate(-25.942 -44.327)" fill="#fd3"/>
      <circle id="Elipse_12035" data-name="Elipse 12035" cx="10.909" cy="10.909" r="10.909" transform="translate(13.493 19.412)" fill="#ffefc2"/>
      <g id="Grupo_1123687" data-name="Grupo 1123687" transform="translate(19.164 22.579)">
        <path id="Trazado_921098" data-name="Trazado 921098" d="M43.5,69.379a5.239,5.239,0,0,0-5.238-5.239A5.239,5.239,0,0,0,43.5,69.379Z" transform="translate(-38.257 -56.337)" fill="#2eb74e"/>
        <path id="Trazado_921099" data-name="Trazado 921099" d="M48.337,53.545a5.238,5.238,0,0,0,0-7.408A5.238,5.238,0,0,0,48.337,53.545Z" transform="translate(-43.099 -46.137)" fill="#2eb74e"/>
        <path id="Trazado_921100" data-name="Trazado 921100" d="M50.343,69.379a5.239,5.239,0,0,1,5.238-5.239,5.239,5.239,0,0,1-5.238,5.239Z" transform="translate(-45.105 -56.337)" fill="#2eb74e"/>
      </g>
      <g id="Grupo_1123688" data-name="Grupo 1123688" transform="translate(4.557 4.557)">
        <path id="Trazado_921101" data-name="Trazado 921101" d="M94.3,104.986a.759.759,0,0,0,0,1.517,1.8,1.8,0,0,1,1.8,1.8.759.759,0,0,0,1.517,0A3.317,3.317,0,0,0,94.3,104.986Z" transform="translate(-54.974 -61.457)"/>
        <path id="Trazado_921102" data-name="Trazado 921102" d="M80.732,96.755a3.351,3.351,0,0,0-3.347,3.347.758.758,0,1,0,1.517,0,1.832,1.832,0,0,1,1.83-1.83.758.758,0,1,0,0-1.517Z" transform="translate(-45.819 -56.794)"/>
        <path id="Trazado_921103" data-name="Trazado 921103" d="M47.743,52.191a5.981,5.981,0,0,0-4.48,2.024v-1.37a5.984,5.984,0,0,0-.222-8.235.759.759,0,0,0-1.073,0,6,6,0,0,0-.222,8.235v1.37a5.977,5.977,0,0,0-4.48-2.024.759.759,0,0,0-.759.759,6,6,0,0,0,5.238,5.943v1.738a.758.758,0,1,0,1.517,0V58.893A6,6,0,0,0,48.5,52.949.758.758,0,0,0,47.743,52.191ZM42.5,46.329a4.487,4.487,0,0,1,0,5.042A4.492,4.492,0,0,1,42.5,46.329Zm-4.4,7.455a4.492,4.492,0,0,1,3.565,3.569A4.492,4.492,0,0,1,38.1,53.786Zm5.238,3.569a4.492,4.492,0,0,1,3.565-3.567,4.492,4.492,0,0,1-3.565,3.567Z" transform="translate(-22.659 -27.124)"/>
        <path id="Trazado_921104" data-name="Trazado 921104" d="M35.091,37.08A11.668,11.668,0,1,0,46.76,48.748,11.668,11.668,0,0,0,35.091,37.08Zm0,21.819A10.151,10.151,0,1,1,45.243,48.748,10.151,10.151,0,0,1,35.091,58.9Z" transform="translate(-15.247 -22.984)"/>
        <path id="Trazado_921105" data-name="Trazado 921105" d="M53.146,51.082a4.893,4.893,0,0,0-3.684-4.356c0-.038,0-.076,0-.114a4.866,4.866,0,0,0-4.486-4.844,4.8,4.8,0,0,0-.143-.5A87.588,87.588,0,0,0,45.59,30.5v-.356A113.274,113.274,0,0,0,43.24,9.737V5.315a.758.758,0,0,0-.758-.758H17.752a.758.758,0,0,0,0,1.517H41.723V9.059H8.424V6.074h5.8a.758.758,0,1,0,0-1.517H7.666a.758.758,0,0,0-.758.758V9.736a113.281,113.281,0,0,0-2.35,20.407V30.5a113.255,113.255,0,0,0,2.35,20.406v4.421a.758.758,0,0,0,.758.758h31.56a.758.758,0,1,0,0-1.517H33.578a2.048,2.048,0,0,1,1.9-1.29.758.758,0,1,0,0-1.517A3.57,3.57,0,0,0,32,54.568h-6.74a3,3,0,0,1,2.251-2.18.759.759,0,0,0,.59-.777l-.005-.084c0-.028,0-.056,0-.084a3.357,3.357,0,0,1,3.07-3.329.759.759,0,0,0,.685-.893,3.309,3.309,0,0,1-.059-.607,3.347,3.347,0,0,1,3.343-3.343c.051,0,.1,0,.152.007l.065,0a.758.758,0,0,0,.8-.685,3.732,3.732,0,0,1,7.43,0,.757.757,0,0,0,.8.685l.056,0c.055,0,.109-.008.165-.008a3.33,3.33,0,0,1,3.285,3.951.758.758,0,0,0,.685.893,3.357,3.357,0,0,1,3.07,3.329.573.573,0,0,1,0,.082l-.006.087a.759.759,0,0,0,.589.777,3,3,0,0,1,2.251,2.18H48.5a.759.759,0,0,0,0,1.517h6.829a.758.758,0,0,0,.758-.758,4.5,4.5,0,0,0-2.94-4.245ZM23.708,54.567H8.424V51.582H25.618a4.493,4.493,0,0,0-1.91,2.987Zm16.154-16.86a5.224,5.224,0,0,0-5.114,4.061,4.867,4.867,0,0,0-4.48,4.846v.114a4.9,4.9,0,0,0-3.493,3.337H8.283A110.237,110.237,0,0,1,6.072,30.5v-.356a110.069,110.069,0,0,1,2.21-19.567H41.864a110.28,110.28,0,0,1,2.21,19.567V30.5a81.328,81.328,0,0,1-.527,8.712,5.234,5.234,0,0,0-3.686-1.5Z" transform="translate(-4.557 -4.557)"/>
        <path id="Trazado_921106" data-name="Trazado 921106" d="M94.159,119.943h-1.95a.758.758,0,0,0,0,1.517h1.95a.758.758,0,1,0,0-1.517Z" transform="translate(-53.788 -69.931)"/>
        <path id="Trazado_921107" data-name="Trazado 921107" d="M26.521,24.156a.758.758,0,0,0-.758-.756H19.455a.758.758,0,0,0,0,1.517h6.308a.759.759,0,0,0,.758-.761Z" transform="translate(-12.568 -15.233)"/>
        <path id="Trazado_921108" data-name="Trazado 921108" d="M41.03,24.917h1.725a.758.758,0,1,0,0-1.517H41.03a.758.758,0,1,0,0,1.517Z" transform="translate(-24.792 -15.233)"/>
      </g>
    </g>
  </g>
</svg>
